<svg width="53" height="53" viewBox="0 0 53 53" fill="none" xmlns="http://www.w3.org/2000/svg">
<path d="M43.6146 53H9.38405C8.14928 52.9989 6.92686 52.7489 5.78671 52.2643C4.64656 51.7797 3.61107 51.0701 2.73947 50.1761C1.86788 49.282 1.1773 48.221 0.707235 47.0539C0.237171 45.8867 -0.0031469 44.6362 3.11125e-05 43.374V9.62598C-0.00314704 8.36367 0.237214 7.1131 0.707359 5.94584C1.1775 4.77859 1.86821 3.71756 2.73994 2.82348C3.61167 1.92939 4.64731 1.21981 5.78761 0.735321C6.92791 0.250835 8.15048 0.000961568 9.38535 0L43.6159 0C44.8507 0.00113706 46.0731 0.25114 47.2133 0.735704C48.3534 1.22027 49.3889 1.92988 50.2605 2.82395C51.1321 3.71802 51.8227 4.77898 52.2928 5.94615C52.7628 7.11332 53.0031 8.36378 53 9.62598V43.374C53.0031 44.6363 52.7628 45.8869 52.2926 47.0542C51.8225 48.2214 51.1318 49.2824 50.2601 50.1765C49.3883 51.0706 48.3527 51.7802 47.2124 52.2647C46.0721 52.7492 44.8495 52.999 43.6146 53Z" fill="#9999FF"/>
<g clip-path="url(#clip0_2159_1503)">
<path d="M10.6893 1.96289H42.3513C47.1459 1.96289 51.0328 5.95482 51.0328 10.879V42.1379C51.0328 47.0622 47.1459 51.0541 42.3513 51.0541H10.6893C5.8947 51.0541 2.00781 47.0622 2.00781 42.1379V10.879C2.00781 5.95473 5.8947 1.96289 10.6893 1.96289Z" fill="#00005B"/>
<path d="M21.6853 31.3148H14.0881L12.5425 36.2556C12.4991 36.4411 12.3334 36.5687 12.1478 36.5596H8.29996C8.08055 36.5596 8.00378 36.4357 8.06974 36.188L14.6473 16.8132C14.713 16.6105 14.7788 16.4124 14.8446 16.1533C14.9307 15.7027 14.9748 15.2446 14.9761 14.7854C14.9603 14.671 15.0377 14.5652 15.149 14.5489C15.168 14.5462 15.1873 14.5462 15.2063 14.5489H20.4355C20.5886 14.5489 20.6764 14.6053 20.6987 14.7178L28.1641 36.2218C28.2299 36.4471 28.1641 36.5598 27.9668 36.5596H23.6914C23.5394 36.5769 23.3986 36.4757 23.3625 36.3231L21.6853 31.3148ZM17.8702 18.4007H17.8372L15.2721 27.1488H20.4684L17.8702 18.4007Z" fill="#9999FF"/>
<path d="M40.2705 29.3935H33.7916C33.871 30.0518 34.0839 30.6858 34.4165 31.2544C34.7843 31.8175 35.3044 32.2577 35.9129 32.521C36.7375 32.8874 37.6293 33.067 38.5275 33.0473C39.2401 33.0332 39.9502 32.9532 40.6488 32.8081C41.2736 32.7215 41.886 32.5575 42.4726 32.3199C42.582 32.2302 42.6371 32.2861 42.6371 32.4888V35.6975C42.6425 35.7849 42.6255 35.8723 42.5877 35.9509C42.5501 36.0123 42.4994 36.0642 42.4397 36.1029C41.7891 36.3988 41.1044 36.6083 40.4022 36.7263C39.4482 36.9103 38.4786 36.9952 37.5081 36.9797C35.9511 36.9797 34.6465 36.732 33.5944 36.2366C32.5999 35.7866 31.7215 35.1042 31.0293 34.2438C30.3826 33.4331 29.9017 32.4968 29.6151 31.491C29.3312 30.4983 29.1873 29.4689 29.1875 28.4343C29.1845 27.3045 29.3566 26.1815 29.6973 25.1074C30.0255 24.0595 30.5444 23.0853 31.2266 22.2363C32.7299 20.3656 34.7989 19.5859 37.1134 19.5859C39.1079 19.5859 41.1539 20.2643 42.4412 21.8985C42.98 22.6126 43.3919 23.4187 43.658 24.2798C43.9172 25.1095 44.0502 25.9753 44.0527 26.8468C44.0527 27.3423 44.0362 27.7927 44.0033 28.1978C43.9705 28.6031 43.9431 28.8959 43.9212 29.076C43.9035 29.2302 43.7762 29.3463 43.6252 29.3463C43.4937 29.3463 43.2689 29.3632 42.9511 29.3969C42.633 29.4306 42.2384 29.4532 41.7672 29.4645C41.295 29.4759 40.7967 29.3935 40.2705 29.3935ZM33.7916 26.3165H38.0999C38.6261 26.3165 39.0153 26.3109 39.2674 26.2996C39.4361 26.2823 39.599 26.2268 39.7444 26.1372V25.9345C39.7378 25.6703 39.6935 25.4086 39.6129 25.1577C39.2482 23.9733 38.1577 23.1852 36.9491 23.2325C35.8181 23.1623 34.7537 23.785 34.2358 24.8199C34.0103 25.291 33.8604 25.7964 33.7916 26.3165Z" fill="#9999FF"/>
</g>
<defs>
<clipPath id="clip0_2159_1503">
<rect width="49.025" height="50.35" fill="white" transform="translate(2 1.31445)"/>
</clipPath>
</defs>
</svg>
