<svg width="53" height="53" viewBox="0 0 53 53" fill="none" xmlns="http://www.w3.org/2000/svg">
<path d="M43.6146 53H9.38405C8.14928 52.9989 6.92686 52.7489 5.78671 52.2643C4.64656 51.7797 3.61107 51.0701 2.73947 50.1761C1.86788 49.282 1.1773 48.221 0.707235 47.0539C0.237171 45.8867 -0.0031469 44.6362 3.11125e-05 43.374V9.62598C-0.00314704 8.36367 0.237214 7.1131 0.707359 5.94584C1.1775 4.77859 1.86821 3.71756 2.73994 2.82348C3.61167 1.92939 4.64731 1.21981 5.78761 0.735321C6.92791 0.250835 8.15048 0.000961568 9.38535 0L43.6159 0C44.8507 0.00113706 46.0731 0.25114 47.2133 0.735704C48.3534 1.22027 49.3889 1.92988 50.2605 2.82395C51.1321 3.71802 51.8227 4.77898 52.2928 5.94615C52.7628 7.11332 53.0031 8.36378 53 9.62598V43.374C53.0031 44.6363 52.7628 45.8869 52.2926 47.0542C51.8225 48.2214 51.1318 49.2824 50.2601 50.1765C49.3883 51.0706 48.3527 51.7802 47.2124 52.2647C46.0721 52.7492 44.8495 52.999 43.6146 53Z" fill="#FF9A00"/>
<g clip-path="url(#clip0_2159_1489)">
<path d="M10.6823 1.94141H42.3756C47.1807 1.94141 51.0656 5.92413 51.0656 10.8502V42.0835C51.0656 47.0095 47.1807 50.9923 42.3755 50.9923H10.6823C5.87714 50.9922 1.99219 47.0095 1.99219 42.0834V10.8502C1.99219 5.92413 5.87714 1.94141 10.6823 1.94141Z" fill="#390000"/>
<path d="M25.7653 31.3646H18.1589L16.6049 36.2906C16.564 36.4793 16.4005 36.605 16.2165 36.5841H12.3724C12.1474 36.5841 12.0861 36.4583 12.1474 36.2068L18.7314 16.7751C18.7927 16.5656 18.8541 16.3349 18.9358 16.0834C19.0176 15.6432 19.0585 15.1821 19.0585 14.7208C19.0381 14.616 19.1199 14.5113 19.2221 14.4902H19.2835H24.5179C24.6815 14.4902 24.7633 14.5531 24.7837 14.658L32.247 36.2487C32.3083 36.4793 32.247 36.584 32.0426 36.584H27.769C27.6259 36.6049 27.4828 36.5002 27.4419 36.3534L25.7653 31.3646ZM19.3448 27.1093H24.5384L21.9212 18.3682L19.3448 27.1093Z" fill="#FF9A00"/>
<path d="M36.7037 18.076C36.0289 18.0969 35.3746 17.8245 34.8839 17.3423C34.4135 16.8183 34.1682 16.1266 34.1887 15.4138C34.1683 14.7011 34.4341 14.0303 34.9248 13.5482C35.4155 13.066 36.0699 12.8145 36.7446 12.8145C37.5421 12.8145 38.1555 13.066 38.6053 13.5482C39.0551 14.0512 39.3005 14.722 39.2801 15.4138C39.3005 16.1265 39.0551 16.8182 38.5644 17.3423C38.0941 17.8454 37.3989 18.1179 36.7037 18.076Z" fill="#FF9A00"/>
<path d="M34.4062 36.2701V20.1294C34.4062 19.9199 34.488 19.8359 34.672 19.8359H38.7206C38.9046 19.8359 38.9864 19.9408 38.9864 20.1294V36.2701C38.9864 36.5007 38.9046 36.6055 38.7206 36.6055H34.713C34.5084 36.6055 34.4062 36.4797 34.4062 36.2701Z" fill="#FF9A00"/>
</g>
<defs>
<clipPath id="clip0_2159_1489">
<rect width="49.1219" height="50.0832" fill="white" transform="translate(1.9375 1.32031)"/>
</clipPath>
</defs>
</svg>
