<svg xmlns="http://www.w3.org/2000/svg" width="80" height="80" viewBox="0 0 80 80">
  <g id="Group_39459" data-name="Group 39459" transform="translate(-3225 -2501)">
    <rect id="Rectangle_12960" data-name="Rectangle 12960" width="80" height="80" transform="translate(3225 2501)" fill="none"/>
    <path id="Path_106184" data-name="Path 106184" d="M47.328,8.341l3.49-6.3a.7.7,0,0,0-1.23-.682L46.059,7.729a23.787,23.787,0,0,0-19.1,0L23.429,1.362a.7.7,0,0,0-1.23.682l3.49,6.3A20.168,20.168,0,0,0,14.441,26.073H58.576A20.168,20.168,0,0,0,47.328,8.341ZM26.323,18a1.843,1.843,0,1,1,1.843-1.843A1.843,1.843,0,0,1,26.323,18Zm20.37,0a1.843,1.843,0,1,1,1.843-1.843A1.843,1.843,0,0,1,46.694,18ZM14.441,59.805a5.335,5.335,0,0,0,5.335,5.335h3.54V76.053a4.947,4.947,0,1,0,9.894,0V65.14h6.6V76.053a4.947,4.947,0,1,0,9.894,0V65.14h3.541a5.335,5.335,0,0,0,5.335-5.335V27.819H14.441ZM7.651,26.971A4.953,4.953,0,0,0,2.7,31.918V52.53a4.947,4.947,0,1,0,9.894,0V31.918A4.953,4.953,0,0,0,7.651,26.971Zm57.715,0a4.953,4.953,0,0,0-4.947,4.947V52.53a4.947,4.947,0,1,0,9.894,0V31.918a4.953,4.953,0,0,0-4.947-4.947Z" transform="translate(3228.297 2500)" fill="#79c257"/>
  </g>
</svg>
