<svg width="53" height="53" viewBox="0 0 53 53" fill="none" xmlns="http://www.w3.org/2000/svg">
<g clip-path="url(#clip0_2162_1039)">
<g clip-path="url(#clip1_2162_1039)">
<path d="M33.5387 4.86359L35.8508 0.689837C35.8805 0.636331 35.8993 0.577506 35.9063 0.516721C35.9132 0.455935 35.9081 0.394379 35.8912 0.335567C35.8744 0.276755 35.8461 0.221839 35.808 0.173954C35.77 0.12607 35.7228 0.0861541 35.6693 0.0564868C35.6158 0.0268196 35.557 0.00798151 35.4962 0.00104819C35.4354 -0.00588512 35.3738 -0.000777933 35.315 0.0160782C35.2562 0.0329344 35.2013 0.0612094 35.1534 0.0992889C35.1055 0.137368 35.0656 0.184506 35.036 0.238012L32.698 4.45814C30.7033 3.58375 28.549 3.13231 26.3711 3.13231C24.1932 3.13231 22.0389 3.58375 20.0442 4.45814L17.7056 0.239999C17.6457 0.13194 17.5453 0.0521083 17.4265 0.0180657C17.3078 -0.0159768 17.1803 -0.00144136 17.0723 0.0584744C16.9642 0.11839 16.8844 0.218778 16.8503 0.337554C16.8163 0.45633 16.8308 0.583765 16.8907 0.691824L19.2029 4.86557C17.0021 5.95039 15.1425 7.62028 13.828 9.69213C12.5135 11.764 11.795 14.1578 11.7511 16.611H40.9905C40.947 14.1574 40.2286 11.7632 38.9141 9.69099C37.5996 7.61876 35.7398 5.94856 33.5387 4.86359ZM19.6229 11.2627C19.3814 11.2627 19.1453 11.1911 18.9445 11.0569C18.7438 10.9227 18.5873 10.732 18.4948 10.5089C18.4024 10.2858 18.3783 10.0403 18.4254 9.80348C18.4725 9.56664 18.5888 9.34908 18.7595 9.17832C18.9303 9.00756 19.1478 8.89127 19.3847 8.84416C19.6215 8.79705 19.867 8.82123 20.0901 8.91364C20.3133 9.00606 20.5039 9.16255 20.6381 9.36334C20.7723 9.56413 20.8439 9.8002 20.8439 10.0417C20.8439 10.3655 20.7152 10.6761 20.4863 10.9051C20.2573 11.134 19.9467 11.2627 19.6229 11.2627ZM33.118 11.2627C32.8765 11.2627 32.6405 11.1911 32.4397 11.0569C32.2389 10.9227 32.0824 10.732 31.99 10.5089C31.8976 10.2858 31.8734 10.0403 31.9205 9.80348C31.9676 9.56664 32.0839 9.34908 32.2547 9.17832C32.4254 9.00756 32.643 8.89127 32.8798 8.84416C33.1167 8.79705 33.3622 8.82123 33.5853 8.91364C33.8084 9.00606 33.9991 9.16255 34.1332 9.36334C34.2674 9.56413 34.339 9.8002 34.339 10.0417C34.339 10.3654 34.2105 10.6759 33.9816 10.9048C33.7528 11.1338 33.4424 11.2625 33.1187 11.2627H33.118ZM11.7511 38.9585C11.7511 39.8959 12.1234 40.7949 12.7863 41.4577C13.4491 42.1205 14.3481 42.4929 15.2855 42.4929H17.6308V49.7228C17.6308 50.592 17.9761 51.4256 18.5907 52.0403C19.2053 52.6549 20.0389 53.0002 20.9081 53.0002C21.7774 53.0002 22.611 52.6549 23.2256 52.0403C23.8402 51.4256 24.1855 50.592 24.1855 49.7228V42.4929H28.558V49.7228C28.558 50.592 28.9033 51.4256 29.518 52.0403C30.1326 52.6549 30.9662 53.0002 31.8354 53.0002C32.7046 53.0002 33.5383 52.6549 34.1529 52.0403C34.7675 51.4256 35.1128 50.592 35.1128 49.7228V42.4929H37.4587C38.3961 42.4929 39.2951 42.1205 39.9579 41.4577C40.6208 40.7949 40.9932 39.8959 40.9932 38.9585V17.7678H11.7511V38.9585ZM7.25269 17.206C6.38334 17.2063 5.54965 17.5516 4.93468 18.1661C4.31971 18.7806 3.97371 19.614 3.97266 20.4834V34.1388C3.97266 34.5692 4.05743 34.9954 4.22213 35.393C4.38684 35.7906 4.62825 36.1519 4.93258 36.4563C5.23691 36.7606 5.59821 37.002 5.99584 37.1667C6.39347 37.3314 6.81965 37.4162 7.25004 37.4162C7.68044 37.4162 8.10662 37.3314 8.50425 37.1667C8.90188 37.002 9.26317 36.7606 9.56751 36.4563C9.87184 36.1519 10.1133 35.7906 10.278 35.393C10.4427 34.9954 10.5274 34.5692 10.5274 34.1388V20.4834C10.5264 19.6149 10.1811 18.7823 9.56728 18.168C8.95345 17.5537 8.12113 17.2077 7.25269 17.206ZM45.4889 17.206C44.62 17.207 43.787 17.5526 43.1726 18.167C42.5582 18.7815 42.2125 19.6145 42.2115 20.4834V34.1388C42.2115 35.008 42.5568 35.8416 43.1714 36.4563C43.786 37.0709 44.6197 37.4162 45.4889 37.4162C46.3581 37.4162 47.1917 37.0709 47.8064 36.4563C48.421 35.8416 48.7663 35.008 48.7663 34.1388V20.4834C48.7652 19.6145 48.4196 18.7815 47.8052 18.167C47.1908 17.5526 46.3578 17.207 45.4889 17.206Z" fill="#79C257"/>
</g>
</g>
<defs>
<clipPath id="clip0_2162_1039">
<rect width="53" height="53" fill="white"/>
</clipPath>
<clipPath id="clip1_2162_1039">
<rect width="53" height="53" fill="white"/>
</clipPath>
</defs>
</svg>
