<svg xmlns="http://www.w3.org/2000/svg" width="80" height="80" viewBox="0 0 80 80">
  <g id="Group_39452" data-name="Group 39452" transform="translate(-3309 -2369)">
    <rect id="Rectangle_12958" data-name="Rectangle 12958" width="80" height="80" transform="translate(3309 2369)" fill="none"/>
    <path id="ph_angular-logo" d="M83.471,23.287,47.916,8.472a3.074,3.074,0,0,0-2.3,0L10.064,23.287a3,3,0,0,0-1.778,3.148L14.212,70.88A3,3,0,0,0,15.8,73.139L45.434,87.954a3.148,3.148,0,0,0,2.667,0L77.73,73.139a3,3,0,0,0,1.593-2.259l5.926-44.444a3,3,0,0,0-1.778-3.148ZM73.656,68.509,46.768,81.991,19.879,68.509,14.434,27.88,46.768,14.435,79.1,27.88ZM44.1,30.62,30.768,57.287A2.981,2.981,0,1,0,36.1,59.954l3.111-6.259H54.323l3.111,6.259a3,3,0,0,0,2.667,1.63,3.48,3.48,0,0,0,1.333-.3,3.037,3.037,0,0,0,1.333-4L49.434,30.62a3,3,0,0,0-5.333,0ZM51.36,47.769H42.175l4.593-9.185Z" transform="translate(3302.232 2360.75)" fill="#dd0031"/>
  </g>
</svg>
