<svg width="62" height="62" viewBox="0 0 62 62" fill="none" xmlns="http://www.w3.org/2000/svg">
<path d="M43.8711 16.7559L53.244 7.38292L54.6138 8.75273L45.2409 18.1257L43.8711 16.7559Z" fill="white"/>
<path d="M37.4001 16.2798L36.0352 14.91L40.6852 10.2552V6.78125H42.6227V10.6562C42.6226 10.9132 42.5205 11.1595 42.3388 11.3412L37.4001 16.2798Z" fill="white"/>
<path d="M46.7292 26.3258L45.3594 24.956L50.6565 19.6588C50.8381 19.4772 51.0845 19.3751 51.3414 19.375H55.2164V21.3125H51.7425L46.7292 26.3258Z" fill="white"/>
<path d="M24.8194 16.5017L19.6588 11.3412C19.4772 11.1595 19.3751 10.9132 19.375 10.6562V6.78125H21.3125V10.2552L26.1892 15.1319L24.8194 16.5017Z" fill="white"/>
<path d="M14.932 26.2744L9.97003 21.3125H7.46484V19.375H10.3711C10.628 19.3751 10.8744 19.4772 11.056 19.6588L16.3018 24.9046L14.932 26.2744Z" fill="white"/>
<path d="M7.40234 8.77344L8.77216 7.40362L17.9883 16.6197L16.6184 17.9895L7.40234 8.77344Z" fill="white"/>
<path d="M44.1289 45.5117L45.4987 44.1419L54.56 53.2032L53.1902 54.573L44.1289 45.5117Z" fill="white"/>
<path d="M42.6229 55.2186H40.6854V51.7447L35.9492 47.0085L37.319 45.6387L42.3391 50.6587C42.5208 50.8404 42.6229 51.0867 42.6229 51.3436V55.2186Z" fill="white"/>
<path d="M55.2164 42.6246H51.3414C51.0845 42.6246 50.8381 42.5225 50.6565 42.3408L45.3594 37.0436L46.7292 35.6738L51.7425 40.6871H55.2164V42.6246Z" fill="white"/>
<path d="M21.3125 55.2186H19.375V51.3436C19.3751 51.0867 19.4772 50.8404 19.6588 50.6587L24.6789 45.6387L26.0487 47.0085L21.3125 51.7447V55.2186Z" fill="white"/>
<path d="M10.3711 42.624H7.46484V40.6865H9.97003L14.932 35.7246L16.3018 37.0944L11.056 42.3402C10.8744 42.5219 10.628 42.624 10.3711 42.624Z" fill="white"/>
<path d="M7.25391 53.3652L16.4145 44.2046L17.7843 45.5744L8.62372 54.735L7.25391 53.3652Z" fill="white"/>
<path d="M51.3438 33.9062V28.0938L48.1052 27.6307C47.6621 25.3611 46.7695 23.203 45.4799 21.2834L47.4407 18.6678L43.3302 14.5574L40.7146 16.5182C38.7951 15.2286 36.637 14.336 34.3674 13.8928L33.9062 10.6562H28.0938L27.6307 13.8948C25.3611 14.3379 23.203 15.2305 21.2834 16.5201L18.6678 14.5593L14.5574 18.6697L16.5182 21.2854C15.2286 23.2049 14.336 25.363 13.8928 27.6326L10.6562 28.0938V33.9062L13.8948 34.3693C14.3379 36.639 15.2305 38.797 16.5201 40.7166L14.5593 43.3322L18.6697 47.4426L21.2854 45.4818C23.2049 46.7714 25.363 47.664 27.6326 48.1072L28.0938 51.3438H33.9062L34.3693 48.1052C36.639 47.6621 38.797 46.7695 40.7166 45.4799L43.3322 47.4407L47.4426 43.3302L45.4818 40.7146C46.7714 38.7951 47.664 36.637 48.1072 34.3674L51.3438 33.9062Z" fill="#FFA928"/>
<path d="M31 41.6562C36.8853 41.6562 41.6562 36.8853 41.6562 31C41.6562 25.1147 36.8853 20.3438 31 20.3438C25.1147 20.3438 20.3438 25.1147 20.3438 31C20.3438 36.8853 25.1147 41.6562 31 41.6562Z" fill="#F2F2F2"/>
<path d="M31 20.3438C29.0091 20.3414 27.0575 20.8975 25.3669 21.9488C23.6763 23 22.3144 24.5044 21.4359 26.291C20.5575 28.0775 20.1977 30.0746 20.3975 32.0554C20.5972 34.0362 21.3485 35.9213 22.566 37.4964C24.6142 39.0794 27.1691 39.8617 29.7525 39.6969C32.3358 39.5321 34.7706 38.4315 36.601 36.6011C38.4314 34.7706 39.5321 32.3359 39.6969 29.7525C39.8617 27.1691 39.0794 24.6143 37.4964 22.5661C35.6375 21.1249 33.352 20.3431 31 20.3438Z" fill="white"/>
<path d="M30.9312 26.7646C30.8592 26.5849 30.7349 26.4309 30.5745 26.3224C30.4141 26.214 30.2249 26.1561 30.0312 26.1563H28.0938C27.9001 26.1561 27.7109 26.214 27.5505 26.3224C27.3901 26.4309 27.2658 26.5849 27.1938 26.7646L25.2563 31.6084C25.2109 31.7231 25.1875 31.8454 25.1875 31.9688V35.8438H27.125V32.9375H31V35.8438H32.9375V31.9688C32.9375 31.8454 32.9141 31.7231 32.8687 31.6084L30.9312 26.7646ZM28.7496 28.0938H29.3754L30.5379 31H27.5871L28.7496 28.0938Z" fill="black"/>
<path d="M33.9062 26.1562H35.8438V35.8438H33.9062V26.1562Z" fill="black"/>
<path d="M56.1875 9.6875C58.3276 9.6875 60.0625 7.9526 60.0625 5.8125C60.0625 3.6724 58.3276 1.9375 56.1875 1.9375C54.0474 1.9375 52.3125 3.6724 52.3125 5.8125C52.3125 7.9526 54.0474 9.6875 56.1875 9.6875Z" fill="#FFA928"/>
<path d="M56.1874 1.9375C55.4796 1.93646 54.785 2.1296 54.1794 2.4959C53.5737 2.86221 53.0801 3.38764 52.7523 4.01501C52.4246 4.64238 52.2752 5.34764 52.3204 6.05402C52.3657 6.7604 52.6038 7.44083 53.0089 8.02125C53.754 8.54187 54.6586 8.78355 55.564 8.70393C56.4695 8.6243 57.318 8.22845 57.9608 7.58579C58.6036 6.94313 58.9996 6.09469 59.0793 5.18926C59.1591 4.28382 58.9176 3.3792 58.3971 2.63404C57.7495 2.18064 56.978 1.93746 56.1874 1.9375Z" fill="#FFA928"/>
<path d="M41.6562 7.75C43.2613 7.75 44.5625 6.44883 44.5625 4.84375C44.5625 3.23867 43.2613 1.9375 41.6562 1.9375C40.0512 1.9375 38.75 3.23867 38.75 4.84375C38.75 6.44883 40.0512 7.75 41.6562 7.75Z" fill="white"/>
<path d="M38.75 4.84375C38.7518 5.3759 38.9014 5.89709 39.1821 6.34919C39.6342 6.62988 40.1554 6.77946 40.6875 6.78125C41.4583 6.78125 42.1975 6.47506 42.7425 5.93003C43.2876 5.385 43.5938 4.64579 43.5938 3.875C43.592 3.34285 43.4424 2.82166 43.1617 2.36956C42.7096 2.08887 42.1884 1.93929 41.6562 1.9375C40.8855 1.9375 40.1463 2.24369 39.6012 2.78872C39.0562 3.33375 38.75 4.07296 38.75 4.84375Z" fill="white"/>
<path d="M57.1562 23.25C58.7613 23.25 60.0625 21.9488 60.0625 20.3438C60.0625 18.7387 58.7613 17.4375 57.1562 17.4375C55.5512 17.4375 54.25 18.7387 54.25 20.3438C54.25 21.9488 55.5512 23.25 57.1562 23.25Z" fill="white"/>
<path d="M54.25 20.3438C54.2518 20.8759 54.4014 21.3971 54.6821 21.8492C55.1342 22.1299 55.6554 22.2795 56.1875 22.2812C56.9583 22.2812 57.6975 21.9751 58.2425 21.43C58.7876 20.885 59.0938 20.1458 59.0938 19.375C59.092 18.8429 58.9424 18.3217 58.6617 17.8696C58.2096 17.5889 57.6884 17.4393 57.1562 17.4375C56.3855 17.4375 55.6463 17.7437 55.1012 18.2887C54.5562 18.8337 54.25 19.573 54.25 20.3438Z" fill="white"/>
<path d="M5.8125 9.6875C7.9526 9.6875 9.6875 7.9526 9.6875 5.8125C9.6875 3.6724 7.9526 1.9375 5.8125 1.9375C3.6724 1.9375 1.9375 3.6724 1.9375 5.8125C1.9375 7.9526 3.6724 9.6875 5.8125 9.6875Z" fill="#FFA928"/>
<path d="M5.81241 1.9375C5.10459 1.93646 4.41003 2.1296 3.80436 2.4959C3.19868 2.86221 2.7051 3.38764 2.37733 4.01501C2.04956 4.64238 1.90017 5.34764 1.94541 6.05402C1.99066 6.7604 2.22881 7.44083 2.63394 8.02125C3.37902 8.54187 4.2836 8.78355 5.18904 8.70393C6.09449 8.6243 6.943 8.22845 7.58578 7.58579C8.22856 6.94313 8.62456 6.09469 8.70435 5.18926C8.78414 4.28382 8.54261 3.3792 8.02213 2.63404C7.37447 2.18064 6.60301 1.93746 5.81241 1.9375Z" fill="#FFA928"/>
<path d="M20.3438 7.75C21.9488 7.75 23.25 6.44883 23.25 4.84375C23.25 3.23867 21.9488 1.9375 20.3438 1.9375C18.7387 1.9375 17.4375 3.23867 17.4375 4.84375C17.4375 6.44883 18.7387 7.75 20.3438 7.75Z" fill="white"/>
<path d="M17.4375 4.84375C17.4393 5.3759 17.5889 5.89709 17.8696 6.34919C18.3217 6.62988 18.8429 6.77946 19.375 6.78125C20.1458 6.78125 20.885 6.47506 21.43 5.93003C21.9751 5.385 22.2812 4.64579 22.2812 3.875C22.2795 3.34285 22.1299 2.82166 21.8492 2.36956C21.3971 2.08887 20.8759 1.93929 20.3438 1.9375C19.573 1.9375 18.8337 2.24369 18.2887 2.78872C17.7437 3.33375 17.4375 4.07296 17.4375 4.84375Z" fill="white"/>
<path d="M4.84375 23.25C6.44883 23.25 7.75 21.9488 7.75 20.3438C7.75 18.7387 6.44883 17.4375 4.84375 17.4375C3.23867 17.4375 1.9375 18.7387 1.9375 20.3438C1.9375 21.9488 3.23867 23.25 4.84375 23.25Z" fill="white"/>
<path d="M1.9375 20.3438C1.93929 20.8759 2.08887 21.3971 2.36956 21.8492C2.82166 22.1299 3.34285 22.2795 3.875 22.2812C4.64579 22.2812 5.385 21.9751 5.93003 21.43C6.47506 20.885 6.78125 20.1458 6.78125 19.375C6.77946 18.8429 6.62988 18.3217 6.34919 17.8696C5.89709 17.5889 5.3759 17.4393 4.84375 17.4375C4.07296 17.4375 3.33375 17.7437 2.78872 18.2887C2.24369 18.8337 1.9375 19.573 1.9375 20.3438Z" fill="white"/>
<path d="M56.1875 60.0625C58.3276 60.0625 60.0625 58.3276 60.0625 56.1875C60.0625 54.0474 58.3276 52.3125 56.1875 52.3125C54.0474 52.3125 52.3125 54.0474 52.3125 56.1875C52.3125 58.3276 54.0474 60.0625 56.1875 60.0625Z" fill="#FFA928"/>
<path d="M56.1874 52.3125C55.4796 52.3115 54.785 52.5046 54.1794 52.8709C53.5737 53.2372 53.0801 53.7626 52.7523 54.39C52.4246 55.0174 52.2752 55.7226 52.3204 56.429C52.3657 57.1354 52.6038 57.8158 53.0089 58.3963C53.754 58.9169 54.6586 59.1586 55.564 59.0789C56.4695 58.9993 57.318 58.6035 57.9608 57.9608C58.6036 57.3181 58.9996 56.4697 59.0793 55.5643C59.1591 54.6588 58.9176 53.7542 58.3971 53.009C57.7495 52.5556 56.978 52.3125 56.1874 52.3125Z" fill="#FFA928"/>
<path d="M41.6562 60.0625C43.2613 60.0625 44.5625 58.7613 44.5625 57.1562C44.5625 55.5512 43.2613 54.25 41.6562 54.25C40.0512 54.25 38.75 55.5512 38.75 57.1562C38.75 58.7613 40.0512 60.0625 41.6562 60.0625Z" fill="white"/>
<path d="M38.75 57.1562C38.7518 57.6884 38.9014 58.2096 39.1821 58.6617C39.6342 58.9424 40.1554 59.092 40.6875 59.0938C41.4583 59.0938 42.1975 58.7876 42.7425 58.2425C43.2876 57.6975 43.5938 56.9583 43.5938 56.1875C43.592 55.6554 43.4424 55.1342 43.1617 54.6821C42.7096 54.4014 42.1884 54.2518 41.6562 54.25C40.8855 54.25 40.1463 54.5562 39.6012 55.1012C39.0562 55.6463 38.75 56.3855 38.75 57.1562Z" fill="white"/>
<path d="M57.1562 44.5625C58.7613 44.5625 60.0625 43.2613 60.0625 41.6562C60.0625 40.0512 58.7613 38.75 57.1562 38.75C55.5512 38.75 54.25 40.0512 54.25 41.6562C54.25 43.2613 55.5512 44.5625 57.1562 44.5625Z" fill="white"/>
<path d="M54.25 41.6562C54.2518 42.1884 54.4014 42.7096 54.6821 43.1617C55.1342 43.4424 55.6554 43.592 56.1875 43.5938C56.9583 43.5938 57.6975 43.2876 58.2425 42.7425C58.7876 42.1975 59.0938 41.4583 59.0938 40.6875C59.092 40.1554 58.9424 39.6342 58.6617 39.1821C58.2096 38.9014 57.6884 38.7518 57.1562 38.75C56.3855 38.75 55.6463 39.0562 55.1012 39.6012C54.5562 40.1463 54.25 40.8855 54.25 41.6562Z" fill="white"/>
<path d="M5.8125 60.0625C7.9526 60.0625 9.6875 58.3276 9.6875 56.1875C9.6875 54.0474 7.9526 52.3125 5.8125 52.3125C3.6724 52.3125 1.9375 54.0474 1.9375 56.1875C1.9375 58.3276 3.6724 60.0625 5.8125 60.0625Z" fill="#FFA928"/>
<path d="M5.81241 52.3125C5.10459 52.3115 4.41003 52.5046 3.80436 52.8709C3.19868 53.2372 2.7051 53.7626 2.37733 54.39C2.04956 55.0174 1.90017 55.7226 1.94541 56.429C1.99066 57.1354 2.22881 57.8158 2.63394 58.3963C3.37902 58.9169 4.2836 59.1586 5.18904 59.0789C6.09449 58.9993 6.943 58.6035 7.58578 57.9608C8.22856 57.3181 8.62456 56.4697 8.70435 55.5643C8.78414 54.6588 8.54261 53.7542 8.02213 53.009C7.37447 52.5556 6.60301 52.3125 5.81241 52.3125Z" fill="#FFA928"/>
<path d="M20.3438 60.0625C21.9488 60.0625 23.25 58.7613 23.25 57.1562C23.25 55.5512 21.9488 54.25 20.3438 54.25C18.7387 54.25 17.4375 55.5512 17.4375 57.1562C17.4375 58.7613 18.7387 60.0625 20.3438 60.0625Z" fill="white"/>
<path d="M17.4375 57.1562C17.4393 57.6884 17.5889 58.2096 17.8696 58.6617C18.3217 58.9424 18.8429 59.092 19.375 59.0938C20.1458 59.0938 20.885 58.7876 21.43 58.2425C21.9751 57.6975 22.2812 56.9583 22.2812 56.1875C22.2795 55.6554 22.1299 55.1342 21.8492 54.6821C21.3971 54.4014 20.8759 54.2518 20.3438 54.25C19.573 54.25 18.8337 54.5562 18.2887 55.1012C17.7437 55.6463 17.4375 56.3855 17.4375 57.1562Z" fill="white"/>
<path d="M4.84375 44.5625C6.44883 44.5625 7.75 43.2613 7.75 41.6562C7.75 40.0512 6.44883 38.75 4.84375 38.75C3.23867 38.75 1.9375 40.0512 1.9375 41.6562C1.9375 43.2613 3.23867 44.5625 4.84375 44.5625Z" fill="white"/>
<path d="M1.9375 41.6562C1.93929 42.1884 2.08887 42.7096 2.36956 43.1617C2.82166 43.4424 3.34285 43.592 3.875 43.5938C4.64579 43.5938 5.385 43.2876 5.93003 42.7425C6.47506 42.1975 6.78125 41.4583 6.78125 40.6875C6.77946 40.1554 6.62988 39.6342 6.34919 39.1821C5.89709 38.9014 5.3759 38.7518 4.84375 38.75C4.07296 38.75 3.33375 39.0562 2.78872 39.6012C2.24369 40.1463 1.9375 40.8855 1.9375 41.6562Z" fill="white"/>
</svg>
