<svg width="72" height="72" viewBox="0 0 72 72" fill="none" xmlns="http://www.w3.org/2000/svg">
<path d="M20.7213 30.6642C20.7213 31.5452 20.817 32.2593 20.9837 32.7831C21.1955 33.3723 21.4504 33.9452 21.7465 34.497C21.8658 34.6874 21.9133 34.8778 21.9133 35.0447C21.9133 35.2825 21.7704 35.5207 21.4605 35.7588L19.9586 36.7586C19.744 36.9015 19.5294 36.9729 19.3384 36.9729C19.1002 36.9729 18.8617 36.8538 18.6232 36.6395C18.302 36.2948 18.0147 35.9202 17.7651 35.5207C17.5266 35.1163 17.2881 34.6636 17.026 34.1162C15.1664 36.3062 12.8298 37.4014 10.0167 37.4014C8.01419 37.4014 6.41669 36.8299 5.24838 35.6875C4.08034 34.5445 3.48438 33.021 3.48438 31.1166C3.48438 29.0932 4.19959 27.4506 5.65394 26.2127C7.108 24.9748 9.03934 24.3558 11.4949 24.3558C12.3055 24.3558 13.14 24.4271 14.022 24.5462C14.9042 24.6653 15.8102 24.8557 16.7639 25.07V23.3322C16.7639 21.5227 16.3822 20.2612 15.6431 19.5232C14.8803 18.7852 13.5928 18.4279 11.7571 18.4279C10.9226 18.4279 10.0645 18.5234 9.18222 18.7377C8.30022 18.9517 7.44184 19.2137 6.60738 19.5471C6.226 19.7136 5.93997 19.8088 5.77291 19.8565C5.60613 19.9043 5.48688 19.9279 5.39153 19.9279C5.05769 19.9279 4.89091 19.6897 4.89091 19.1898V18.0233C4.89091 17.6424 4.93872 17.3568 5.05769 17.1903C5.17694 17.0235 5.39153 16.8569 5.72538 16.6904C6.55984 16.2619 7.56109 15.9046 8.72913 15.619C9.89772 15.3095 11.1375 15.1669 12.4487 15.1669C15.2859 15.1669 17.3601 15.8094 18.6952 17.0951C20.0064 18.3805 20.6741 20.3326 20.6741 22.9513V30.6642H20.7219H20.7213ZM11.0418 34.2828C11.8288 34.2828 12.6393 34.1401 13.4974 33.8542C14.3558 33.5686 15.1188 33.0448 15.7623 32.3307C16.144 31.8785 16.43 31.3786 16.5729 30.8071C16.7161 30.2359 16.8114 29.5453 16.8114 28.736V27.7362C16.0884 27.5605 15.3561 27.4254 14.6179 27.3315C13.8747 27.2373 13.1262 27.1895 12.3769 27.1886C10.7794 27.1886 9.61141 27.4981 8.82475 28.1409C8.03781 28.7837 7.65644 29.6883 7.65644 30.8785C7.65644 31.9973 7.94247 32.8306 8.53844 33.4021C9.11078 33.9971 9.94525 34.2828 11.0418 34.2828ZM30.1863 36.8538C29.7571 36.8538 29.471 36.7825 29.2803 36.6156C29.0897 36.473 28.9226 36.1396 28.7797 35.6875L23.1772 17.2855C23.0338 16.8092 22.9623 16.4997 22.9623 16.3332C22.9623 15.9524 23.153 15.7378 23.5347 15.7378H25.871C26.3238 15.7378 26.6341 15.8094 26.8008 15.976C26.9915 16.1189 27.1347 16.4523 27.2776 16.9044L31.2828 32.664L35.0021 16.9044C35.1213 16.4284 35.2645 16.1189 35.4549 15.976C35.6459 15.8333 35.9797 15.7381 36.4089 15.7381H38.3161C38.7689 15.7381 39.0791 15.8094 39.2695 15.976C39.4605 16.1189 39.6273 16.4523 39.7226 16.9044L43.4897 32.8544L47.6139 16.9044C47.7568 16.4284 47.9238 16.1189 48.0906 15.976C48.2813 15.8333 48.5913 15.7381 49.0204 15.7381H51.2375C51.6192 15.7381 51.8338 15.9285 51.8338 16.3332C51.8338 16.4523 51.8099 16.5713 51.786 16.714C51.7621 16.8569 51.7145 17.0474 51.6192 17.3094L45.8733 35.7111C45.7304 36.1874 45.5636 36.4969 45.3726 36.6395C45.1819 36.7825 44.872 36.8777 44.467 36.8777H42.4167C41.9636 36.8777 41.6537 36.8063 41.4627 36.6395C41.272 36.473 41.1052 36.1635 41.0099 35.6875L37.3143 20.3326L33.6428 35.6633C33.5238 36.1396 33.3807 36.4491 33.19 36.6156C32.9993 36.7825 32.6655 36.8538 32.2366 36.8538H30.186H30.1863ZM60.822 37.4966C59.5822 37.4966 58.3425 37.3537 57.1505 37.0681C55.9583 36.7825 55.0288 36.4727 54.4089 36.116C54.0273 35.9015 53.7648 35.6636 53.6698 35.4493C53.5769 35.2392 53.5282 35.0123 53.5266 34.7826V33.5686C53.5266 33.0687 53.7173 32.8306 54.0751 32.8306C54.2211 32.8311 54.366 32.8553 54.5043 32.9022C54.6471 32.9499 54.8617 33.0448 55.1002 33.14C55.9423 33.5099 56.8213 33.7892 57.7226 33.9733C58.6565 34.1625 59.6069 34.2582 60.5598 34.2589C62.0617 34.2589 63.23 33.9971 64.0406 33.4734C64.8512 32.9496 65.2803 32.188 65.2803 31.2118C65.2803 30.5454 65.0658 29.9978 64.6366 29.5453C64.2074 29.0932 63.3968 28.6885 62.2288 28.3074L58.7717 27.2363C57.0313 26.6887 55.744 25.8793 54.9571 24.8079C54.1704 23.7604 53.7651 22.5941 53.7651 21.3562C53.7651 20.3564 53.9797 19.4755 54.4089 18.7135C54.8378 17.9519 55.4102 17.2855 56.1254 16.7617C56.8406 16.2141 57.6512 15.8094 58.6049 15.5238C59.5583 15.2382 60.5596 15.1191 61.6086 15.1191C62.1332 15.1191 62.6816 15.143 63.2061 15.2143C63.7546 15.2857 64.2552 15.3809 64.7558 15.4761C65.2325 15.5952 65.6856 15.7142 66.1148 15.8572C66.544 15.9998 66.8776 16.1428 67.1161 16.2854C67.4499 16.4761 67.6881 16.6665 67.8313 16.8808C67.9744 17.0712 68.0459 17.333 68.0459 17.6663V18.7852C68.0459 19.285 67.8552 19.5471 67.4974 19.5471C67.3068 19.5471 66.9968 19.4516 66.5918 19.2612C65.2325 18.6422 63.7068 18.3327 62.0142 18.3327C60.6552 18.3327 59.5822 18.547 58.8431 18.9994C58.1043 19.4516 57.7226 20.1422 57.7226 21.1181C57.7226 21.7848 57.9611 22.356 58.4378 22.8084C58.9148 23.2605 59.7968 23.713 61.0605 24.1177L64.4459 25.189C66.1623 25.7367 67.4021 26.4983 68.1412 27.4742C68.8803 28.4504 69.2381 29.5692 69.2381 30.8071C69.2381 31.8308 69.0232 32.7592 68.6179 33.5686C68.189 34.378 67.6167 35.0921 66.8776 35.6636C66.1384 36.2587 65.2564 36.6873 64.2313 36.9967C63.1583 37.3301 62.0378 37.4966 60.822 37.4966Z" fill="white"/>
<path d="M64.8074 49.0692C56.9639 54.8541 45.5677 57.9251 35.7692 57.9251C22.0366 57.9251 9.66329 52.8543 0.317636 44.427C-0.421489 43.7606 0.245917 42.856 1.12792 43.3795C11.2366 49.236 23.7055 52.783 36.6037 52.783C45.3055 52.783 54.8658 50.9739 63.6633 47.2601C64.9745 46.6647 66.095 48.1172 64.8074 49.0692ZM68.0739 45.3555C67.0726 44.0701 61.4459 44.7365 58.895 45.046C58.132 45.1415 58.0127 44.4748 58.7043 43.9749C63.1863 40.8323 70.5534 41.7372 71.4115 42.7844C72.2698 43.8558 71.173 51.2117 66.977 54.7351C66.3335 55.2827 65.7136 54.9971 65.9996 54.2829C66.9531 51.9259 69.0751 46.6173 68.0739 45.3555Z" fill="white"/>
</svg>
