<svg width="62" height="62" viewBox="0 0 62 62" fill="none" xmlns="http://www.w3.org/2000/svg">
<path d="M17.8429 26.4056C17.8429 27.1642 17.9253 27.7791 18.0689 28.2302C18.2512 28.7376 18.4708 29.2309 18.7257 29.706C18.8284 29.87 18.8693 30.034 18.8693 30.1776C18.8693 30.3824 18.7463 30.5875 18.4794 30.7926L17.1861 31.6535C17.0013 31.7766 16.8166 31.838 16.6521 31.838C16.447 31.838 16.2416 31.7355 16.0362 31.551C15.7596 31.2541 15.5122 30.9315 15.2973 30.5875C15.0919 30.2393 14.8866 29.8495 14.6608 29.3781C13.0595 31.2639 11.0474 32.2071 8.62505 32.2071C6.90067 32.2071 5.52505 31.7149 4.519 30.7312C3.5132 29.7469 3 28.435 3 26.7951C3 25.0528 3.61588 23.6383 4.86823 22.5723C6.12034 21.5063 7.78345 20.9733 9.89798 20.9733C10.596 20.9733 11.3145 21.0347 12.074 21.1373C12.8338 21.2398 13.6139 21.4038 14.4351 21.5883V20.0919C14.4351 18.5337 14.1065 17.4474 13.47 16.8119C12.8132 16.1764 11.7045 15.8688 10.1237 15.8688C9.40513 15.8688 8.66622 15.951 7.90648 16.1355C7.14698 16.3198 6.40782 16.5454 5.68925 16.8325C5.36084 16.9759 5.11454 17.0579 4.97068 17.099C4.82706 17.1401 4.72438 17.1604 4.64227 17.1604C4.3548 17.1604 4.21118 16.9553 4.21118 16.5249V15.5203C4.21118 15.1924 4.25235 14.9464 4.3548 14.803C4.45748 14.6594 4.64227 14.516 4.92975 14.3726C5.64832 14.0035 6.51051 13.6959 7.51631 13.45C8.5226 13.1835 9.59016 13.0606 10.7192 13.0606C13.1624 13.0606 14.9486 13.6139 16.0982 14.721C17.2273 15.8279 17.8023 17.5089 17.8023 19.7639V26.4056H17.8434H17.8429ZM9.50782 29.5215C10.1855 29.5215 10.8834 29.3987 11.6224 29.1525C12.3615 28.9066 13.0186 28.4555 13.5727 27.8406C13.9013 27.4512 14.1476 27.0208 14.2707 26.5286C14.394 26.0368 14.4761 25.4421 14.4761 24.7451V23.8842C13.8535 23.7329 13.2229 23.6166 12.5872 23.5358C11.9472 23.4546 11.3027 23.4135 10.6575 23.4127C9.28186 23.4127 8.27605 23.6792 7.59866 24.2327C6.92102 24.7863 6.59261 25.5652 6.59261 26.5901C6.59261 27.5535 6.83891 28.271 7.35211 28.7632C7.84496 29.2756 8.56353 29.5215 9.50782 29.5215ZM25.9933 31.7355C25.6237 31.7355 25.3774 31.6741 25.2132 31.5304C25.049 31.4076 24.9051 31.1205 24.7821 30.7312L19.9577 14.885C19.8342 14.4749 19.7727 14.2084 19.7727 14.065C19.7727 13.737 19.9369 13.5523 20.2655 13.5523H22.2774C22.6673 13.5523 22.9345 13.6139 23.0781 13.7574C23.2423 13.8804 23.3655 14.1675 23.4886 14.5568L26.9376 28.1276L30.1403 14.5568C30.2429 14.1469 30.3662 13.8804 30.5302 13.7574C30.6946 13.6345 30.9821 13.5525 31.3517 13.5525H32.994C33.3839 13.5525 33.651 13.6139 33.815 13.7574C33.9794 13.8804 34.123 14.1675 34.2051 14.5568L37.449 28.2916L41.0004 14.5568C41.1235 14.1469 41.2673 13.8804 41.4109 13.7574C41.5751 13.6345 41.842 13.5525 42.2116 13.5525H44.1208C44.4494 13.5525 44.6342 13.7165 44.6342 14.065C44.6342 14.1675 44.6136 14.27 44.593 14.3929C44.5725 14.516 44.5315 14.6799 44.4494 14.9056L39.5015 30.7515C39.3785 31.1616 39.2349 31.4281 39.0704 31.551C38.9062 31.6741 38.6393 31.756 38.2906 31.756H36.5251C36.1349 31.756 35.868 31.6946 35.7035 31.551C35.5393 31.4076 35.3957 31.1411 35.3136 30.7312L32.1313 17.5089L28.9698 30.7104C28.8673 31.1205 28.744 31.387 28.5798 31.5304C28.4156 31.6741 28.1282 31.7355 27.7588 31.7355H25.993H25.9933ZM52.374 32.289C51.3065 32.289 50.2389 32.1659 49.2125 31.92C48.1859 31.6741 47.3855 31.4073 46.8517 31.1002C46.523 30.9154 46.2971 30.7106 46.2152 30.5261C46.1353 30.3451 46.0933 30.1498 46.0919 29.952V28.9066C46.0919 28.4761 46.2561 28.271 46.5642 28.271C46.6899 28.2715 46.8147 28.2923 46.9338 28.3327C47.0568 28.3738 47.2416 28.4555 47.447 28.5375C48.1721 28.856 48.9291 29.0965 49.7051 29.255C50.5093 29.418 51.3278 29.5004 52.1483 29.501C53.4416 29.501 54.4477 29.2756 55.1456 28.8246C55.8436 28.3736 56.2132 27.7177 56.2132 26.8771C56.2132 26.3033 56.0284 25.8317 55.6588 25.4421C55.2893 25.0528 54.5913 24.7043 53.5855 24.3761L50.6085 23.4538C49.1098 22.9822 48.0013 22.2853 47.3237 21.3627C46.6463 20.4606 46.2973 19.4563 46.2973 18.3903C46.2973 17.5294 46.4821 16.7708 46.8517 16.1147C47.221 15.4589 47.7139 14.885 48.3298 14.434C48.9456 13.9624 49.6436 13.6139 50.4649 13.368C51.2859 13.1221 52.1481 13.0195 53.0514 13.0195C53.5031 13.0195 53.9754 13.0401 54.4271 13.1015C54.8993 13.1629 55.3304 13.2449 55.7615 13.3269C56.172 13.4294 56.5622 13.532 56.9318 13.6551C57.3013 13.7779 57.5886 13.901 57.794 14.0239C58.0814 14.1881 58.2866 14.352 58.4098 14.5365C58.5331 14.7005 58.5946 14.9259 58.5946 15.2129V16.1764C58.5946 16.6068 58.4304 16.8325 58.1224 16.8325C57.9582 16.8325 57.6913 16.7502 57.3425 16.5863C56.172 16.0533 54.8582 15.7868 53.4007 15.7868C52.2304 15.7868 51.3065 15.9713 50.67 16.3609C50.0338 16.7502 49.7051 17.3449 49.7051 18.1853C49.7051 18.7594 49.9105 19.2513 50.321 19.6408C50.7318 20.0302 51.4913 20.4198 52.5794 20.7682L55.4946 21.6908C56.9727 22.1624 58.0403 22.8182 58.6767 23.6586C59.3132 24.4992 59.6213 25.4627 59.6213 26.5286C59.6213 27.4101 59.4362 28.2096 59.0872 28.9066C58.7179 29.6035 58.225 30.2185 57.5886 30.7106C56.9521 31.223 56.1926 31.5921 55.3098 31.8586C54.3859 32.1456 53.421 32.289 52.374 32.289Z" fill="white"/>
<path d="M55.8064 42.2539C49.0523 47.2354 39.2388 49.8798 30.8013 49.8798C18.976 49.8798 8.32117 45.5133 0.27352 38.2564C-0.362949 37.6826 0.211762 36.9036 0.971262 37.3544C9.67597 42.3975 20.4131 45.4519 31.5198 45.4519C39.0131 45.4519 47.2455 43.894 54.8212 40.696C55.9502 40.1833 56.9151 41.4341 55.8064 42.2539ZM58.6191 39.0559C57.757 37.9491 52.9118 38.5229 50.7151 38.7894C50.0581 38.8717 49.9554 38.2976 50.5509 37.8671C54.4104 35.161 60.7543 35.9402 61.4932 36.842C62.2323 37.7646 61.2878 44.0988 57.6746 47.1328C57.1205 47.6044 56.5867 47.3584 56.833 46.7435C57.654 44.7138 59.4813 40.1425 58.6191 39.0559Z" fill="#FF9900"/>
</svg>
