<svg width="62" height="62" viewBox="0 0 62 62" fill="none" xmlns="http://www.w3.org/2000/svg">
<path d="M45.532 14.5312L44.4268 14.5391C43.9616 11.3047 42.3444 8.34701 39.8726 6.20977C37.4008 4.07254 34.2406 2.89947 30.9729 2.90628C27.7053 2.91309 24.5499 4.0993 22.0871 6.24682C19.6242 8.39433 18.0194 11.3588 17.5677 14.5951C16.2577 14.4454 14.9309 14.5647 13.6686 14.9458C12.4064 15.3269 11.2352 15.9616 10.2268 16.8111C9.21843 17.6607 8.39411 18.7071 7.80434 19.8864C7.21456 21.0657 6.87174 22.3529 6.79688 23.6694C6.72201 24.9858 6.91669 26.3036 7.36897 27.5421C7.82125 28.7807 8.52161 29.9138 9.42717 30.8722C10.3327 31.8306 11.4244 32.594 12.6353 33.1157C13.8463 33.6374 15.151 33.9064 16.4695 33.9062H45.532C48.1013 33.9062 50.5653 32.8856 52.3821 31.0688C54.1988 29.2521 55.2195 26.788 55.2195 24.2187C55.2195 21.6495 54.1988 19.1854 52.3821 17.3686C50.5653 15.5519 48.1013 14.5312 45.532 14.5312Z" fill="#F3F5F9"/>
<path d="M44.5314 15.5598C44.4888 14.9139 44.4 14.2719 44.2657 13.6387C41.6784 13.9515 39.2951 15.2002 37.5651 17.1494C35.8352 19.0985 34.8783 21.6134 34.875 24.2195H36.8125C36.8154 22.0812 37.6029 20.0184 39.0256 18.4222C40.4484 16.826 42.4075 15.8075 44.5314 15.5598ZM16.5979 14.5352C16.512 15.1764 16.4689 15.8226 16.4688 16.4695C16.4628 19.4396 17.3725 22.3393 19.074 24.7737L20.6631 23.6654C19.1889 21.5558 18.4008 19.0431 18.4063 16.4695C18.4064 15.8951 18.4456 15.3215 18.5237 14.7525C17.8906 14.6161 17.2455 14.5433 16.5979 14.5352Z" fill="#E1E6F0"/>
<path d="M30.0327 28.0938H31.9702V42.625H30.0327V28.0938ZM46.7852 47.185L34.8764 35.2762V28.0938H36.8139V34.4738L48.1552 45.815L46.7852 47.185ZM16.1865 46.2163L14.8164 44.8462L25.1889 34.4738V28.0938H27.1264V35.2762L16.1865 46.2163Z" fill="#A3B1CC"/>
<path d="M45.5312 44.5625V56.1875C45.5312 57.7926 48.5673 59.0938 52.3125 59.0938C56.0577 59.0938 59.0938 57.7926 59.0938 56.1875V44.5625H45.5312Z" fill="#66CCFF"/>
<path d="M52.3125 47.4688C56.0577 47.4688 59.0938 46.1676 59.0938 44.5625C59.0938 42.9574 56.0577 41.6562 52.3125 41.6562C48.5673 41.6562 45.5312 42.9574 45.5312 44.5625C45.5312 46.1676 48.5673 47.4688 52.3125 47.4688Z" fill="#99EEFF"/>
<path d="M52.3125 53.2812C48.5673 53.2812 45.5312 51.9801 45.5312 50.375V56.1875C45.5312 57.7926 48.5673 59.0938 52.3125 59.0938C56.0577 59.0938 59.0938 57.7926 59.0938 56.1875V50.375C59.0938 51.9801 56.0577 53.2812 52.3125 53.2812Z" fill="#6680FF"/>
<path d="M24.2188 44.5625V56.1875C24.2188 57.7926 27.2548 59.0938 31 59.0938C34.7452 59.0938 37.7812 57.7926 37.7812 56.1875V44.5625H24.2188Z" fill="#66CCFF"/>
<path d="M31 47.4688C34.7452 47.4688 37.7812 46.1676 37.7812 44.5625C37.7812 42.9574 34.7452 41.6562 31 41.6562C27.2548 41.6562 24.2188 42.9574 24.2188 44.5625C24.2188 46.1676 27.2548 47.4688 31 47.4688Z" fill="#99EEFF"/>
<path d="M31 53.2812C27.2548 53.2812 24.2188 51.9801 24.2188 50.375V56.1875C24.2188 57.7926 27.2548 59.0938 31 59.0938C34.7452 59.0938 37.7812 57.7926 37.7812 56.1875V50.375C37.7812 51.9801 34.7452 53.2812 31 53.2812Z" fill="#6680FF"/>
<path d="M2.90625 44.5625V56.1875C2.90625 57.7926 5.94231 59.0938 9.6875 59.0938C13.4327 59.0938 16.4688 57.7926 16.4688 56.1875V44.5625H2.90625Z" fill="#66CCFF"/>
<path d="M9.6875 47.4688C13.4327 47.4688 16.4688 46.1676 16.4688 44.5625C16.4688 42.9574 13.4327 41.6562 9.6875 41.6562C5.94232 41.6562 2.90625 42.9574 2.90625 44.5625C2.90625 46.1676 5.94232 47.4688 9.6875 47.4688Z" fill="#99EEFF"/>
<path d="M9.6875 53.2812C5.94231 53.2812 2.90625 51.9801 2.90625 50.375V56.1875C2.90625 57.7926 5.94231 59.0938 9.6875 59.0938C13.4327 59.0938 16.4688 57.7926 16.4688 56.1875V50.375C16.4688 51.9801 13.4327 53.2812 9.6875 53.2812Z" fill="#6680FF"/>
</svg>
