<svg width="62" height="62" viewBox="0 0 62 62" fill="none" xmlns="http://www.w3.org/2000/svg">
<path d="M37 10.5L32.5 15.5L32 16.5V47C34.1667 49.3333 38.7 54 39.5 54C40.3 54 42.8333 51.6667 44 50.5L47.5 47L51 44.5L52.5 30.5V19L50 17.5L46.5 14L41.5 9.5L37 10.5Z" fill="white"/>
<path d="M30 33.5V20.5C26.5 20.5 19 20.7 17 21.5C14.5 22.5 12.5 30.5 12.5 31.5C12.5 32.5 20.5 36 21.5 36C22.3 36 27.5 34.3333 30 33.5Z" fill="white"/>
<path d="M58.125 31.0009C58.1258 28.8587 57.3144 26.7959 55.8545 25.2282C55.3617 24.7304 54.9877 24.1277 54.7607 23.4651C54.5336 22.8024 54.4593 22.097 54.5432 21.4016C54.5478 21.3638 54.5501 21.3257 54.5499 21.2876C54.5449 19.1982 53.7721 17.1836 52.3786 15.6268C50.985 14.07 49.068 13.0797 46.9919 12.8441C46.7331 10.7837 45.7547 8.8809 44.2295 7.47155C43.3789 6.68831 42.3751 6.09006 41.2815 5.71462C40.1878 5.33918 39.0282 5.19472 37.8759 5.29037C36.7235 5.38601 35.6036 5.71968 34.5868 6.27029C33.5701 6.8209 32.6786 7.57647 31.9688 8.48922V22.2822H36.156C36.9265 22.2813 37.6652 21.9749 38.2101 21.43C38.7549 20.8852 39.0614 20.1465 39.0622 19.3759V16.8766C38.4159 16.648 37.8711 16.1984 37.5242 15.607C37.1773 15.0157 37.0507 14.3208 37.1666 13.6451C37.2825 12.9694 37.6336 12.3564 38.1577 11.9145C38.6819 11.4726 39.3454 11.2303 40.031 11.2303C40.7165 11.2303 41.38 11.4726 41.9042 11.9145C42.4284 12.3564 42.7794 12.9694 42.8954 13.6451C43.0113 14.3208 42.8846 15.0157 42.5377 15.607C42.1909 16.1984 41.6461 16.648 40.9997 16.8766V19.3759C40.9982 20.6601 40.4874 21.8913 39.5794 22.7993C38.6713 23.7074 37.4402 24.2182 36.156 24.2197H31.9688V27.5096H42.9315C43.702 27.5087 44.4408 27.2023 44.9856 26.6574C45.5305 26.1126 45.8369 25.3738 45.8378 24.6033V22.1039C45.1914 21.8754 44.6466 21.4257 44.2997 20.8344C43.9529 20.2431 43.8262 19.5481 43.9421 18.8724C44.058 18.1967 44.4091 17.5838 44.9333 17.1419C45.4574 16.7 46.1209 16.4577 46.8065 16.4577C47.4921 16.4577 48.1556 16.7 48.6797 17.1419C49.2039 17.5838 49.555 18.1967 49.6709 18.8724C49.7868 19.5481 49.6602 20.2431 49.3133 20.8344C48.9664 21.4257 48.4216 21.8754 47.7753 22.1039V24.6033C47.7737 25.8875 47.2629 27.1186 46.3549 28.0267C45.4468 28.9347 44.2157 29.4456 42.9315 29.4471H31.9688V32.5548H42.9315C44.2157 32.5563 45.4468 33.0671 46.3549 33.9752C47.2629 34.8832 47.7737 36.1144 47.7753 37.3986V39.8979C48.4216 40.1265 48.9664 40.5761 49.3133 41.1675C49.6602 41.7588 49.7868 42.4537 49.6709 43.1294C49.555 43.8051 49.2039 44.4181 48.6797 44.86C48.1556 45.3019 47.4921 45.5442 46.8065 45.5442C46.1209 45.5442 45.4574 45.3019 44.9333 44.86C44.4091 44.4181 44.058 43.8051 43.9421 43.1294C43.8262 42.4537 43.9529 41.7588 44.2997 41.1675C44.6466 40.5761 45.1914 40.1265 45.8378 39.8979V37.3986C45.8369 36.628 45.5305 35.8893 44.9856 35.3445C44.4408 34.7996 43.702 34.4932 42.9315 34.4923H31.9688V37.7822H36.156C37.4402 37.7837 38.6713 38.2945 39.5794 39.2026C40.4874 40.1106 40.9982 41.3418 40.9997 42.6259V45.1253C41.6461 45.3538 42.1909 45.8035 42.5377 46.3948C42.8846 46.9862 43.0113 47.6811 42.8954 48.3568C42.7794 49.0325 42.4284 49.6455 41.9042 50.0874C41.38 50.5292 40.7165 50.7716 40.031 50.7716C39.3454 50.7716 38.6819 50.5292 38.1577 50.0874C37.6336 49.6455 37.2825 49.0325 37.1666 48.3568C37.0507 47.6811 37.1773 46.9862 37.5242 46.3948C37.8711 45.8035 38.4159 45.3538 39.0622 45.1253V42.6259C39.0614 41.8554 38.7549 41.1167 38.2101 40.5718C37.6652 40.027 36.9265 39.7205 36.156 39.7197H31.9688V53.5121C32.6906 54.4434 33.6017 55.211 34.6421 55.7642C35.6825 56.3174 36.8283 56.6436 38.0041 56.7213C38.1819 56.7321 38.3588 56.7375 38.5347 56.7373C40.6894 56.7434 42.7643 55.923 44.3321 54.4451C45.8069 53.0596 46.7417 51.1954 46.9697 49.1848C49.0529 48.9486 50.9765 47.9547 52.3744 46.3921C53.7722 44.8296 54.5467 42.8076 54.5503 40.7111C54.55 40.6741 54.5478 40.6371 54.5436 40.6004C54.4601 39.902 54.5357 39.1938 54.7649 38.5288C54.9941 37.8638 55.371 37.2594 55.8671 36.7608C57.3205 35.1951 58.1272 33.1372 58.125 31.0009Z" fill="#0089D6"/>
<path d="M23.9993 5.28034C22.8661 5.20467 21.7294 5.36013 20.6581 5.73727C19.5869 6.11442 18.6035 6.70538 17.7677 7.47427C16.789 8.37756 16.0301 9.49293 15.5492 10.7349C15.9744 12.1624 16.7735 13.4503 17.8638 14.4651C18.6774 15.1196 19.6227 15.5909 20.6351 15.8468C21.6475 16.1027 22.7032 16.1372 23.7301 15.9479C23.8565 15.933 23.9845 15.9431 24.107 15.9777C24.2294 16.0123 24.3439 16.0707 24.4437 16.1495C24.5436 16.2283 24.627 16.326 24.6892 16.437C24.7513 16.548 24.7909 16.6702 24.8058 16.7966C24.8208 16.9229 24.8106 17.051 24.7761 17.1734C24.7415 17.2958 24.6831 17.4103 24.6043 17.5102C24.5255 17.61 24.4278 17.6934 24.3168 17.7556C24.2058 17.8177 24.0836 17.8573 23.9572 17.8723C23.448 17.9335 22.9356 17.9648 22.4227 17.9658C20.2885 18.0333 18.2058 17.3029 16.5812 15.9172C15.6514 15.0839 14.8966 14.074 14.3608 12.9463C12.4199 13.3187 10.669 14.3546 9.40816 15.8764C8.14729 17.3982 7.45492 19.3111 7.44972 21.2874C7.54812 22.0033 7.48054 22.7323 7.2522 23.4179C7.02387 24.1035 6.64089 24.7275 6.1329 25.2414C4.67922 26.8105 3.87265 28.8712 3.87501 31.0101C3.87736 33.1491 4.68846 35.208 6.14559 36.7738C6.64991 37.2863 7.02978 37.9079 7.25589 38.5904C7.482 39.273 7.54831 39.9984 7.44972 40.7106C7.44614 42.6676 8.11841 44.5658 9.35288 46.0843C10.5873 47.6028 12.3083 48.6484 14.2248 49.0445C14.6556 48.3083 15.2019 47.6459 15.8426 47.0828C17.7876 45.3908 20.4763 44.7725 23.8329 45.2398C24.0821 45.2813 24.3052 45.4185 24.4547 45.6221C24.6042 45.8257 24.6683 46.0797 24.6333 46.3298C24.5982 46.58 24.4668 46.8066 24.2671 46.9613C24.0674 47.116 23.8152 47.1866 23.5642 47.158C20.7913 46.7715 18.6277 47.2336 17.1254 48.5344C16.3818 49.1981 15.8022 50.0251 15.4322 50.9505C15.8779 52.2803 16.6451 53.4795 17.6657 54.4416C19.234 55.9215 21.3104 56.743 23.4667 56.7367C24.7341 56.734 25.9841 56.4423 27.1216 55.8836C28.2592 55.325 29.2543 54.5142 30.0313 53.513V28.4252C29.2308 28.5869 28.4164 28.6702 27.5997 28.6737C26.7225 28.6778 25.8484 28.5686 24.9991 28.3488C24.4772 28.3349 20.8293 28.3004 19.5726 30.4626C19.5104 30.576 19.4262 30.6757 19.3249 30.756C19.2236 30.8363 19.1072 30.8956 18.9827 30.9302C18.8581 30.9648 18.7279 30.9742 18.5997 30.9577C18.4714 30.9412 18.3478 30.8993 18.2361 30.8343C18.1243 30.7693 18.0267 30.6826 17.949 30.5793C17.8713 30.476 17.815 30.3581 17.7835 30.2328C17.752 30.1074 17.746 29.977 17.7657 29.8492C17.7854 29.7214 17.8305 29.5989 17.8983 29.4888C18.3589 28.7792 18.9584 28.1702 19.6605 27.6983C20.3627 27.2264 21.1531 26.9014 21.9841 26.7429C21.0914 25.9102 20.4282 24.8618 20.0581 23.6985C19.9762 23.4549 19.9944 23.1887 20.1087 22.9585C20.2231 22.7283 20.4242 22.5529 20.6678 22.471C20.9115 22.3891 21.1777 22.4073 21.4079 22.5216C21.6381 22.636 21.8134 22.8371 21.8953 23.0807C23.3884 27.5223 28.2391 26.8576 30.0313 26.444V8.48816C29.3097 7.55745 28.399 6.79032 27.3593 6.23738C26.3195 5.68443 25.1743 5.35825 23.9993 5.28034Z" fill="#0089D6"/>
</svg>
