<svg width="62" height="62" viewBox="0 0 62 62" fill="none" xmlns="http://www.w3.org/2000/svg">
<g clip-path="url(#clip0_4552_13751)">
<path d="M37.8088 39.8281C37.4436 39.8281 37.0739 39.7289 36.7413 39.5209C31.8835 36.4813 28.9834 31.2484 28.9834 25.5225C28.9834 21.1953 26.7911 17.2403 23.119 14.9426C22.175 14.3519 21.8885 13.1079 22.4792 12.1639C23.0696 11.2201 24.3136 10.9333 25.2578 11.524C30.1156 14.5636 33.0158 19.7965 33.0158 25.5225C33.0158 29.8496 35.2081 33.8047 38.8801 36.1023C39.8241 36.693 40.1107 37.937 39.52 38.881C39.1374 39.4926 38.4805 39.8281 37.8088 39.8281Z" fill="#D9B1EE"/>
<path d="M35.5914 33.1234C33.9406 30.9803 33.017 28.3304 33.017 25.5231C33.017 21.1848 31.3509 17.1304 28.4312 14.0977C27.6298 15.2904 26.9504 16.5715 26.4102 17.9228C28.0609 20.0659 28.9845 22.7158 28.9845 25.5231C28.9845 29.8614 30.6506 33.9157 33.5703 36.9485C34.3717 35.7559 35.0512 34.4748 35.5914 33.1234Z" fill="#CB97E7"/>
<path d="M62 25.5229C62 16.4203 54.5945 9.01482 45.4919 9.01482C36.3893 9.01482 28.9838 16.4204 28.9838 25.5229C28.9838 32.402 23.3873 37.9985 16.5082 37.9985C9.62913 37.9985 4.03254 32.402 4.03254 25.5229C4.03254 19.4524 8.39107 14.3816 14.143 13.2732L13.7114 14.0738C13.183 15.054 13.5493 16.2769 14.5294 16.8053C14.8337 16.9693 15.1613 17.0471 15.4845 17.0471C16.202 17.0471 16.8967 16.6631 17.2611 15.9872L19.4171 11.9878C19.8034 11.2713 19.721 10.3929 19.208 9.76076L16.3455 6.23233C15.6439 5.36772 14.3742 5.23524 13.5095 5.93686C12.6447 6.63848 12.5124 7.90814 13.214 8.773L13.6163 9.26875C5.8877 10.64 0 17.4067 0 25.5229C0 34.6255 7.40549 42.031 16.5081 42.031C25.6107 42.031 33.0162 34.6255 33.0162 25.5229C33.0162 18.6438 38.6127 13.0474 45.4918 13.0474C52.3709 13.0474 57.9673 18.6438 57.9673 25.5229C57.9673 31.5935 53.6088 36.6643 47.8569 37.7726L48.2884 36.9721C48.8169 35.9918 48.4506 34.7689 47.4704 34.2406C46.4906 33.7124 45.2673 34.0784 44.7388 35.0587L42.5827 39.0581C42.1964 39.7746 42.2789 40.653 42.7919 41.2851L45.6544 44.8135C46.0529 45.3047 46.6347 45.5596 47.2214 45.5596C47.6676 45.5596 48.1168 45.4121 48.4904 45.109C49.3551 44.4074 49.4875 43.1377 48.7859 42.2729L48.3836 41.7771C56.1123 40.406 62 33.6392 62 25.5229Z" fill="#99E6FC"/>
<path d="M20.2929 54.6973H18.6523V53.4893H20.105C20.6067 53.4893 21.0132 53.0827 21.0132 52.5811C21.0132 52.0795 20.6067 51.6729 20.105 51.6729H18.6523V50.4648H20.2929C20.7946 50.4648 21.2011 50.0582 21.2011 49.5566C21.2011 49.0551 20.7946 48.6484 20.2929 48.6484H17.7441C17.2424 48.6484 16.8359 49.0551 16.8359 49.5566V55.6054C16.8359 56.107 17.2424 56.5136 17.7441 56.5136H20.2929C20.7946 56.5136 21.2011 56.107 21.2011 55.6054C21.2011 55.1038 20.7945 54.6973 20.2929 54.6973Z" fill="#838383"/>
<path d="M9.78762 56.5136C9.54774 56.5136 9.31742 56.4187 9.14728 56.2495C8.9763 56.0795 8.8799 55.8484 8.87942 55.6072L8.86719 49.5585C8.8667 49.3172 8.96213 49.0858 9.13251 48.9151C9.30288 48.7443 9.53405 48.6484 9.77539 48.6484H11.4885C13.4927 48.6484 14.8393 50.2288 14.8393 52.5811C14.8393 54.8188 13.4579 56.467 11.5544 56.5003C11.0654 56.5088 9.84272 56.5135 9.79101 56.5137C9.78992 56.5136 9.78883 56.5136 9.78762 56.5136ZM10.6855 50.4648L10.694 54.6923C11.0081 54.6902 11.3293 54.6874 11.5229 54.684C12.5592 54.666 13.0231 53.6147 13.0231 52.581C13.0231 52.0845 12.9124 50.4647 11.4887 50.4647H10.6855V50.4648Z" fill="#838383"/>
<path d="M26.2769 56.5139C25.8354 56.5139 25.4403 56.2351 25.2924 55.8186L23.2223 49.8547C23.0579 49.3809 23.3087 48.8633 23.7825 48.6989C24.256 48.5345 24.7739 48.7851 24.9382 49.259L26.2609 53.0696L27.5195 49.2817C27.6776 48.8055 28.1919 48.5477 28.6675 48.7061C29.1436 48.8643 29.4014 49.3783 29.2431 49.8543L27.2681 55.7994C27.1228 56.2265 26.7279 56.5111 26.2836 56.5139C26.2814 56.5139 26.2792 56.5139 26.2769 56.5139Z" fill="#838383"/>
<path d="M50.4106 56.5132C49.3317 56.5132 48.3181 56.0776 47.6298 55.3182C47.293 54.9466 47.3212 54.3722 47.6928 54.0354C48.0644 53.6986 48.6389 53.7267 48.9757 54.0985C49.3153 54.4731 49.8517 54.6968 50.4108 54.6968C50.9609 54.6968 51.2771 54.3612 51.3176 54.1344C51.3667 53.8595 50.9902 53.6164 50.6216 53.4804L50.3561 53.3827C49.5945 53.1026 49.1749 52.9482 48.7418 52.7123C48.0307 52.325 47.6419 51.5711 47.7273 50.7449C47.8219 49.8306 48.4799 49.06 49.4037 48.7817C51.1341 48.2605 52.5556 49.4327 52.6153 49.4828C52.9993 49.8056 53.0489 50.3784 52.7262 50.7624C52.4051 51.1445 51.8362 51.1956 51.4522 50.8781C51.4253 50.8568 50.697 50.2894 49.9275 50.521C49.6603 50.6015 49.5491 50.7859 49.534 50.9318C49.52 51.068 49.5857 51.1038 49.6106 51.1174C49.9267 51.2896 50.2797 51.4194 50.983 51.678L51.2502 51.7764C52.8644 52.3718 53.267 53.5499 53.1057 54.4539C52.8926 55.6471 51.7591 56.5132 50.4106 56.5132Z" fill="#838383"/>
<path d="M43.065 48.6484H41.3809C41.1395 48.6484 40.908 48.7446 40.7376 48.9156C40.5672 49.0866 40.4719 49.3184 40.4727 49.5598V55.6054C40.4727 56.107 40.8792 56.5136 41.3809 56.5136C41.8826 56.5136 42.2891 56.107 42.2891 55.6054V53.8814C42.5828 53.8799 42.8812 53.8788 43.065 53.8788C44.5255 53.8788 45.7136 52.7057 45.7136 51.2637C45.7136 49.8217 44.5255 48.6484 43.065 48.6484ZM43.065 52.0624C42.8828 52.0624 42.5889 52.0635 42.2977 52.065L42.2921 50.465H43.065C43.5161 50.465 43.8972 50.8308 43.8972 51.2637C43.8972 51.6966 43.5161 52.0624 43.065 52.0624Z" fill="#838383"/>
<path d="M34.5615 56.5137C32.3931 56.5137 30.6289 54.7496 30.6289 52.5811C30.6289 50.4125 32.393 48.6484 34.5615 48.6484C36.7301 48.6484 38.4942 50.4125 38.4942 52.5811C38.4942 54.7496 36.73 56.5137 34.5615 56.5137ZM34.5615 50.465C33.3947 50.465 32.4453 51.4142 32.4453 52.5812C32.4453 53.7482 33.3947 54.6974 34.5615 54.6974C35.7284 54.6974 36.6778 53.7482 36.6778 52.5812C36.6778 51.4142 35.7283 50.465 34.5615 50.465Z" fill="#838383"/>
</g>
<defs>
<clipPath id="clip0_4552_13751">
<rect width="62" height="62" fill="white"/>
</clipPath>
</defs>
</svg>
