<svg width="62" height="62" viewBox="0 0 62 62" fill="none" xmlns="http://www.w3.org/2000/svg">
<g clip-path="url(#clip0_6742_21628)">
<path d="M61.3924 25.5589C61.2274 25.4288 59.6567 24.2399 56.3415 24.2399C55.4651 24.2399 54.5972 24.318 53.7293 24.4655C53.0871 20.0743 49.4595 17.9306 49.2947 17.8352L48.4095 17.3232L47.828 18.1651C47.0991 19.3019 46.561 20.5516 46.2486 21.8621C45.6585 24.3701 46.0143 26.7219 47.29 28.7352C45.754 29.5944 43.2806 29.8027 42.7859 29.82H1.93739C0.869953 29.82 0.0021953 30.6879 0.0021953 31.7466C-0.0411563 35.322 0.557652 38.8802 1.7899 42.2386C3.1958 45.9269 5.28721 48.6432 8.0123 50.3094C11.067 52.1752 16.0224 53.2427 21.6459 53.2427C24.1886 53.2514 26.7227 53.0171 29.2134 52.557C32.6847 51.9235 36.0259 50.7086 39.0893 48.9642C41.6147 47.4976 43.8971 45.6317 45.8324 43.4449C49.0694 39.7826 50.996 35.7038 52.4279 32.0763C52.6189 32.0763 52.8097 32.0763 53.0007 32.0763C56.5415 32.0763 58.7197 30.6617 59.9259 29.4728C60.7243 28.7178 61.3491 27.7893 61.7484 26.7652L62 26.0189L61.3924 25.5589Z" fill="#2496ED"/>
<path d="M5.71954 28.6229H11.1955C11.4559 28.6229 11.6729 28.4059 11.6729 28.1455V23.2684C11.6729 23.008 11.4646 22.791 11.1955 22.791H5.71954C5.45919 22.791 5.24219 23.008 5.24219 23.2684V28.1455C5.24219 28.4059 5.45919 28.6229 5.71954 28.6229Z" fill="#2496ED"/>
<path d="M13.2664 28.6229H18.7424C19.0027 28.6229 19.2197 28.4059 19.2197 28.1455V23.2684C19.2197 23.008 19.0115 22.791 18.7424 22.791H13.2664C12.9973 22.791 12.7891 23.008 12.7891 23.2684V28.1455C12.7891 28.4059 13.0061 28.6229 13.2664 28.6229Z" fill="#2496ED"/>
<path d="M20.9227 28.6229H26.3986C26.659 28.6229 26.876 28.4059 26.876 28.1455V23.2684C26.876 23.008 26.6677 22.791 26.3986 22.791H20.9227C20.6623 22.791 20.4453 23.008 20.4453 23.2684V28.1455C20.4453 28.4059 20.6536 28.6229 20.9227 28.6229Z" fill="#2496ED"/>
<path d="M28.493 28.6229H33.969C34.2293 28.6229 34.4463 28.4059 34.4463 28.1455V23.2684C34.4463 22.9993 34.2293 22.791 33.969 22.791H28.493C28.2326 22.791 28.0156 23.008 28.0156 23.2684V28.1455C28.0156 28.4059 28.2239 28.6229 28.493 28.6229Z" fill="#2496ED"/>
<path d="M13.2664 21.6102H18.7424C19.0027 21.6102 19.2197 21.3932 19.2197 21.1328V16.2557C19.2197 15.9953 19.0027 15.7783 18.7424 15.7783H13.2664C13.0061 15.7783 12.7891 15.9953 12.7891 16.2557V21.1328C12.7891 21.3933 13.0061 21.6102 13.2664 21.6102Z" fill="#2496ED"/>
<path d="M20.9227 21.6102H26.3986C26.659 21.6102 26.876 21.3932 26.876 21.1328V16.2557C26.876 15.9953 26.659 15.7783 26.3986 15.7783H20.9227C20.6623 15.7783 20.4453 15.9953 20.4453 16.2557V21.1328C20.4453 21.3933 20.6536 21.6102 20.9227 21.6102Z" fill="#2496ED"/>
<path d="M28.493 21.6102H33.969C34.238 21.6102 34.4463 21.3932 34.4463 21.1328V16.2557C34.4463 15.9953 34.2293 15.7783 33.969 15.7783H28.493C28.2326 15.7783 28.0156 15.9953 28.0156 16.2557V21.1328C28.0156 21.3933 28.2239 21.6102 28.493 21.6102Z" fill="#2496ED"/>
<path d="M28.493 14.5897H33.969C34.2293 14.5897 34.4463 14.3727 34.4463 14.1123V9.23516C34.4463 8.97481 34.2293 8.75781 33.969 8.75781H28.493C28.2326 8.75781 28.0156 8.97481 28.0156 9.23516V14.1123C28.0156 14.3814 28.2239 14.5897 28.493 14.5897Z" fill="#2496ED"/>
<path d="M36.118 28.6229H41.594C41.8543 28.6229 42.0713 28.4059 42.0713 28.1455V23.2684C42.0713 22.9993 41.8543 22.791 41.594 22.791H36.118C35.8576 22.791 35.6406 23.008 35.6406 23.2684V28.1455C35.6406 28.4059 35.8576 28.6229 36.118 28.6229Z" fill="#2496ED"/>
</g>
<defs>
<clipPath id="clip0_6742_21628">
<rect width="62" height="62" fill="white"/>
</clipPath>
</defs>
</svg>
