<svg width="60" height="61" viewBox="0 0 60 61" fill="none" xmlns="http://www.w3.org/2000/svg">
<path d="M59.412 25.1612C59.2524 25.0353 57.7323 23.8851 54.5241 23.8851C53.6759 23.8851 52.836 23.9606 51.9962 24.1033C51.3748 19.8549 47.8642 17.781 47.7047 17.6887L46.8481 17.1934L46.2853 18.0078C45.5799 19.1077 45.0592 20.3167 44.7568 21.5846C44.1858 24.011 44.5301 26.2864 45.7647 28.2342C44.2781 29.0655 41.8846 29.267 41.4059 29.2837H1.8749C0.84189 29.2837 0.00212448 30.1234 0.00212448 31.1477C-0.0398286 34.6068 0.539664 38.0492 1.73216 41.2985C3.09271 44.8668 5.11666 47.4948 7.75373 49.1068C10.7099 50.912 15.5054 51.9447 20.9475 51.9447C23.4082 51.9531 25.8606 51.7264 28.2709 51.2814C31.6302 50.6684 34.8636 49.493 37.8283 47.8053C40.2722 46.3864 42.4809 44.5812 44.3538 42.4655C47.4864 38.9224 49.3508 34.9762 50.7366 31.4666C50.9214 31.4666 51.1061 31.4666 51.2909 31.4666C54.7174 31.4666 56.8254 30.098 57.9927 28.9477C58.7653 28.2172 59.37 27.3189 59.7564 26.3281L59.9999 25.6061L59.412 25.1612Z" fill="white"/>
<path d="M5.53617 28.1246H10.8355C11.0875 28.1246 11.2975 27.9147 11.2975 27.6628V22.9443C11.2975 22.6924 11.0959 22.4824 10.8355 22.4824H5.53617C5.28422 22.4824 5.07422 22.6924 5.07422 22.9443V27.6628C5.07422 27.9147 5.28422 28.1246 5.53617 28.1246Z" fill="white"/>
<path d="M12.833 28.1246H18.1324C18.3843 28.1246 18.5943 27.9147 18.5943 27.6628V22.9443C18.5943 22.6924 18.3928 22.4824 18.1324 22.4824H12.833C12.5727 22.4824 12.3711 22.6924 12.3711 22.9443V27.6628C12.3711 27.9147 12.5811 28.1246 12.833 28.1246Z" fill="white"/>
<path d="M20.251 28.1246H25.5504C25.8023 28.1246 26.0123 27.9147 26.0123 27.6628V22.9443C26.0123 22.6924 25.8107 22.4824 25.5504 22.4824H20.251C19.9991 22.4824 19.7891 22.6924 19.7891 22.9443V27.6628C19.7891 27.9147 19.9906 28.1246 20.251 28.1246Z" fill="white"/>
<path d="M27.5752 28.1246H32.8746C33.1265 28.1246 33.3365 27.9147 33.3365 27.6628V22.9443C33.3365 22.6839 33.1265 22.4824 32.8746 22.4824H27.5752C27.3233 22.4824 27.1133 22.6924 27.1133 22.9443V27.6628C27.1133 27.9147 27.3148 28.1246 27.5752 28.1246Z" fill="white"/>
<path d="M12.833 21.3414H18.1324C18.3843 21.3414 18.5943 21.1315 18.5943 20.8796V16.161C18.5943 15.9092 18.3843 15.6992 18.1324 15.6992H12.833C12.5811 15.6992 12.3711 15.9092 12.3711 16.161V20.8796C12.3711 21.1316 12.5811 21.3414 12.833 21.3414Z" fill="white"/>
<path d="M20.251 21.3414H25.5504C25.8023 21.3414 26.0123 21.1315 26.0123 20.8796V16.161C26.0123 15.9092 25.8023 15.6992 25.5504 15.6992H20.251C19.9991 15.6992 19.7891 15.9092 19.7891 16.161V20.8796C19.7891 21.1316 19.9906 21.3414 20.251 21.3414Z" fill="white"/>
<path d="M27.5752 21.3414H32.8746C33.135 21.3414 33.3365 21.1315 33.3365 20.8796V16.161C33.3365 15.9092 33.1265 15.6992 32.8746 15.6992H27.5752C27.3233 15.6992 27.1133 15.9092 27.1133 16.161V20.8796C27.1133 21.1316 27.3148 21.3414 27.5752 21.3414Z" fill="white"/>
<path d="M27.5752 14.5485H32.8746C33.1265 14.5485 33.3365 14.3385 33.3365 14.0866V9.36808C33.3365 9.11619 33.1265 8.90625 32.8746 8.90625H27.5752C27.3233 8.90625 27.1133 9.11619 27.1133 9.36808V14.0866C27.1133 14.347 27.3148 14.5485 27.5752 14.5485Z" fill="white"/>
<path d="M34.9541 28.1246H40.2535C40.5054 28.1246 40.7154 27.9147 40.7154 27.6628V22.9443C40.7154 22.6839 40.5054 22.4824 40.2535 22.4824H34.9541C34.7022 22.4824 34.4922 22.6924 34.4922 22.9443V27.6628C34.4922 27.9147 34.7022 28.1246 34.9541 28.1246Z" fill="white"/>
</svg>
