<svg width="35" height="51" viewBox="0 0 35 51" fill="none" xmlns="http://www.w3.org/2000/svg">
<g clip-path="url(#clip0_2159_1522)">
<path d="M9.30355 50.5153C11.5222 50.5146 13.6497 49.633 15.2185 48.0642C16.7873 46.4954 17.6689 44.3679 17.6696 42.1493V33.7832H9.30355C7.08474 33.7832 4.9568 34.6646 3.38786 36.2336C1.81892 37.8025 0.9375 39.9304 0.9375 42.1493C0.9375 44.3681 1.81892 46.496 3.38786 48.0649C4.9568 49.6339 7.08474 50.5153 9.30355 50.5153Z" fill="#0EC878"/>
<path d="M0.9375 25.4149C0.938202 23.1963 1.81985 21.0688 3.38864 19.5C4.95742 17.9312 7.08495 17.0495 9.30355 17.0488H17.6696V33.7809H9.30355C7.08501 33.7801 4.95758 32.8983 3.38883 31.3296C1.82008 29.7609 0.938378 27.6334 0.9375 25.4149H0.9375Z" fill="#974FFF"/>
<path d="M0.9375 8.68832C0.938202 6.46972 1.81985 4.34219 3.38864 2.7734C4.95742 1.20461 7.08495 0.322968 9.30355 0.322266L17.6696 0.322266V17.0544H9.30355C7.08495 17.0537 4.95742 16.172 3.38864 14.6032C1.81985 13.0344 0.938202 10.9069 0.9375 8.68832H0.9375Z" fill="#F0441C"/>
<path d="M17.6797 0.322266H26.0457C28.2646 0.322266 30.3925 1.20369 31.9614 2.77262C33.5304 4.34156 34.4118 6.4695 34.4118 8.68832C34.4118 10.9071 33.5304 13.0351 31.9614 14.604C30.3925 16.1729 28.2646 17.0544 26.0457 17.0544H17.6797V0.322266Z" fill="#FF6657"/>
<path d="M34.4118 25.4149C34.4118 27.0695 33.9211 28.687 33.0019 30.0628C32.0826 31.4386 30.776 32.5109 29.2473 33.1441C27.7186 33.7773 26.0365 33.943 24.4136 33.6202C22.7908 33.2974 21.3001 32.5006 20.1301 31.3306C18.96 30.1606 18.1632 28.6699 17.8404 27.047C17.5176 25.4242 17.6833 23.742 18.3165 22.2133C18.9497 20.6846 20.022 19.378 21.3978 18.4588C22.7736 17.5395 24.3911 17.0488 26.0457 17.0488C28.2643 17.0497 30.3917 17.9314 31.9605 19.5002C33.5292 21.0689 34.4109 23.1963 34.4118 25.4149Z" fill="#18B4FE"/>
</g>
<defs>
<clipPath id="clip0_2159_1522">
<rect width="33.4642" height="50.1956" fill="white" transform="translate(0.9375 0.322266)"/>
</clipPath>
</defs>
</svg>
