<svg xmlns="http://www.w3.org/2000/svg" width="105.921" height="40.004" viewBox="0 0 105.921 40.004">
  <path id="bxl_go-lang" d="M22.552,64.358a.945.945,0,0,0-.576,0l-1.047,1.411H39.36a.786.786,0,0,0,.524-.314l.89-1.359v-.261Zm-7.7,4.651a.734.734,0,0,0-.576,0l-1.047,1.359v.261H37.318a.471.471,0,0,0,.471-.314l.419-1.2V68.8Zm11.938,4.913a.681.681,0,0,0-.524.314l-.681,1.254V75.8H36.846a.418.418,0,0,0,.366-.366v-1.2s0-.366-.314-.366Zm83.722-16.045A18.984,18.984,0,0,0,95.96,55.264a21.42,21.42,0,0,0-14.242,8.519,20.893,20.893,0,0,0-3.508,6.585H61.769a1.309,1.309,0,0,0-1.257.836c-.733,1.307-1.937,3.972-2.618,5.54s0,1.516.942,1.516h9.843a14.63,14.63,0,0,1-1.361,1.882,9.486,9.486,0,0,1-8.639,3.4,8,8,0,0,1-6.911-8A10.814,10.814,0,0,1,57,65.874a8.967,8.967,0,0,1,9.268-.784,7.118,7.118,0,0,1,2.356,1.934c.681.784.733.732,1.518.523L78.681,65.3c.628,0,.838-.418.524-.836a15.685,15.685,0,0,0-5.917-7.212A17.567,17.567,0,0,0,59.78,54.794,22.574,22.574,0,0,0,45.433,63.47a19.887,19.887,0,0,0-4.293,14.9A15.672,15.672,0,0,0,47.58,89.6,18.147,18.147,0,0,0,61.3,93a21.267,21.267,0,0,0,14.713-8.624,22.617,22.617,0,0,0,2.147-3.606,15.677,15.677,0,0,0,5.236,8.1,19.286,19.286,0,0,0,12.461,4.494,12.457,12.457,0,0,0,4.084-.47,23.628,23.628,0,0,0,12.2-6.533A19.422,19.422,0,0,0,117.9,69.219a15.674,15.674,0,0,0-7.382-11.341ZM101.2,82.6a9.492,9.492,0,0,1-8.325.314A8.411,8.411,0,0,1,88.158,73.3a11.09,11.09,0,0,1,8.8-8.833A8.321,8.321,0,0,1,107.427,71.2a15.438,15.438,0,0,1,0,1.672A11.027,11.027,0,0,1,101.2,82.6Z" transform="translate(-12.732 -53.861)" fill="#00acd7" stroke="rgba(0,0,0,0)" stroke-width="1"/>
</svg>
