<svg width="54" height="53" viewBox="0 0 54 53" fill="none" xmlns="http://www.w3.org/2000/svg">
<circle cx="20" cy="15" r="7" fill="white"/>
<circle cx="20" cy="15" r="7" fill="white"/>
<circle cx="20" cy="15" r="7" fill="white"/>
<circle cx="20" cy="15" r="7" fill="white"/>
<circle cx="20" cy="15" r="7" fill="white"/>
<circle cx="20" cy="15" r="7" fill="white"/>
<circle cx="36" cy="15" r="7" fill="white"/>
<circle cx="36" cy="15" r="7" fill="white"/>
<circle cx="36" cy="15" r="7" fill="white"/>
<circle cx="36" cy="15" r="7" fill="white"/>
<circle cx="36" cy="15" r="7" fill="white"/>
<circle cx="36" cy="15" r="7" fill="white"/>
<path d="M45.0413 12.1421L45.0413 12.1423L44.8874 22.4688L44.8376 22.4643C44.8376 22.4643 44.8376 22.4643 44.8376 22.4643C44.6894 24.0767 44.8767 26.244 45.0873 28.6808L45.0931 28.747C45.3062 31.213 45.5406 33.9549 45.4781 36.6885C45.3532 42.1571 44.0407 47.5775 39.0091 50.6841L39.0089 50.6842C38.0659 51.2728 36.4677 51.732 34.5425 52.0565C32.6193 52.3806 30.376 52.5692 28.1476 52.62H28.107C25.8784 52.5692 23.4815 52.3806 21.4046 52.0564C19.3248 51.7317 17.5741 51.2723 16.6318 50.6842L16.6316 50.6841C11.61 47.5775 10.3018 42.1572 10.1818 36.6886C10.1219 33.9549 10.3589 31.2131 10.5755 28.7471L10.5842 28.6481C10.7972 26.2247 10.9865 24.0695 10.845 22.4644L10.845 22.464C10.476 18.635 10.1701 14.7536 10.639 12.1427L10.6391 12.1421C10.7058 11.7469 10.4273 11.4373 10.0377 11.1512C9.84084 11.0067 9.61005 10.8642 9.36953 10.7168L9.33665 10.6966C9.10558 10.555 8.86604 10.4081 8.63607 10.2485C8.15355 9.9136 7.72015 9.5269 7.50256 9.02613C7.28628 8.52836 7.27974 7.90929 7.66907 7.10064L7.66908 7.10063C8.00102 6.41066 8.45263 6.04949 8.95467 5.87826C9.45912 5.7062 10.0195 5.72419 10.5706 5.80317C10.8458 5.84262 11.1174 5.89705 11.3775 5.94992C11.3906 5.95257 11.4036 5.95522 11.4166 5.95786C11.6621 6.00779 11.8975 6.05567 12.1137 6.08656C12.341 6.11906 12.5505 6.13334 12.7311 6.11045C12.9121 6.0875 13.0681 6.02664 13.1832 5.90559C17.4485 1.48175 22.6322 0.294056 26.7157 0.192578H28.9663C33.0293 0.397777 38.2126 1.49996 42.4973 5.90565C42.6126 6.02663 42.7684 6.08752 42.9491 6.11054C43.1294 6.13349 43.3383 6.11929 43.5649 6.08687C43.7804 6.05606 44.015 6.00828 44.2597 5.95845L44.2987 5.9505C44.5581 5.89772 44.8289 5.84338 45.1035 5.804C45.6533 5.72516 46.2131 5.70723 46.7186 5.8792C47.2218 6.05038 47.6763 6.41139 48.0137 7.10093C48.4023 7.90442 48.3954 8.52089 48.1788 9.0177C47.9609 9.51758 47.5273 9.90492 47.0446 10.2411C46.8155 10.4006 46.577 10.5476 46.3468 10.6894L46.3109 10.7116C46.0703 10.8599 45.8395 11.0032 45.6427 11.1485C45.253 11.4361 44.9746 11.747 45.0413 12.1421ZM28.9289 26.4012C29.0192 26.381 29.0975 26.3536 29.1558 26.3159C29.5724 26.0489 29.7572 25.5969 29.781 25.176C29.7929 24.9654 29.7648 24.7604 29.7039 24.5874C29.6432 24.415 29.5485 24.2701 29.4241 24.1853L29.4231 24.1847C29.2238 24.0557 28.9137 23.9782 28.5647 23.9339C28.2139 23.8893 27.8167 23.8774 27.438 23.8841C27.0591 23.8907 26.6975 23.9159 26.4175 23.9459C26.2775 23.9609 26.1575 23.9771 26.0656 23.9928C26.0197 24.0007 25.9804 24.0086 25.9488 24.0162C25.9478 24.0164 25.9468 24.0167 25.9458 24.0169V24.0052L25.875 24.0377C25.8497 24.0492 25.8313 24.0726 25.8179 24.0939C25.8035 24.117 25.7899 24.1461 25.7772 24.1793C25.7518 24.2459 25.7277 24.3345 25.7075 24.4368C25.6669 24.6417 25.6404 24.9072 25.6495 25.1735C25.6586 25.4391 25.7033 25.71 25.8084 25.9226C25.9144 26.137 26.0842 26.2958 26.3409 26.3235L26.3414 26.3236C26.3935 26.3286 26.4532 26.3346 26.5189 26.3413C26.8534 26.3751 27.347 26.425 27.8206 26.4463C28.1039 26.459 28.3816 26.4616 28.6148 26.4441C28.7314 26.4354 28.8379 26.4216 28.9289 26.4012ZM20.7076 9.01679L20.7075 9.01679C19.6368 8.89233 18.2115 9.32815 16.9885 10.3167C15.764 11.3064 14.7389 12.8525 14.4711 14.954C14.1812 17.1435 15.3275 19.3211 17.165 20.4101C19.0065 21.5013 21.5369 21.497 24.0074 19.3353L23.9745 19.2977L24.0075 19.3353C25.3419 18.1671 26.2372 15.7913 25.9412 13.6072C25.793 12.5136 25.3457 11.4655 24.503 10.6405C23.6601 9.81548 22.4251 9.21712 20.7076 9.01679ZM34.9376 9.01704C33.2206 9.21761 31.9859 9.81581 31.1431 10.6405C30.3 11.4655 29.8526 12.5136 29.7042 13.6072C29.4079 15.7913 30.3032 18.1671 31.6376 19.3353C34.107 21.497 36.6369 21.5013 38.4781 20.4101C40.3154 19.3211 41.4616 17.1436 41.1718 14.9542C40.9151 12.8537 39.8955 11.3076 38.6712 10.3175C37.4484 9.32864 36.0182 8.89235 34.9376 9.01678L34.9376 9.01704Z" fill="#6AD7E5" stroke="black" stroke-width="0.1"/>
<path d="M9.74189 35.9182C9.91504 36.0398 10.1335 36.1105 10.4053 36.1082C10.699 36.0978 10.9467 35.8982 11.1235 35.6287C11.3003 35.3594 11.3988 35.0309 11.3988 34.7847C11.3988 34.3269 11.3685 33.8311 11.2552 33.3924C11.1418 32.9533 10.9471 32.578 10.6232 32.3525L9.74189 35.9182ZM9.74189 35.9182C9.56822 35.7963 9.43722 35.621 9.34432 35.41M9.74189 35.9182L9.34432 35.41M9.34432 35.41C9.15803 34.9868 9.12776 34.4256 9.21122 33.8889M9.34432 35.41L9.21122 33.8889M9.21122 33.8889C9.29472 33.352 9.49057 32.8488 9.7471 32.541M9.21122 33.8889L9.7471 32.541M9.7471 32.541C9.8752 32.3873 10.0154 32.2859 10.1608 32.2495M9.7471 32.541L10.1608 32.2495M10.1608 32.2495C10.3041 32.2136 10.4592 32.2392 10.623 32.3524L10.1608 32.2495ZM40.9372 51.0218L40.9375 51.0222C41.1409 51.3179 41.238 51.5551 41.2147 51.7503C41.1921 51.9398 41.0526 52.1076 40.7324 52.258C39.4978 52.825 38.3304 52.7281 37.5775 52.4386C37.1997 52.2933 36.9321 52.1018 36.8101 51.9272C36.7492 51.8401 36.7284 51.763 36.7397 51.7002C36.7506 51.6392 36.794 51.5795 36.8895 51.5308C37.2812 51.3323 37.6406 51.1089 37.9739 50.9018C38.0207 50.8727 38.067 50.8439 38.1128 50.8155C38.4863 50.5845 38.8254 50.383 39.1461 50.2659C39.4655 50.1493 39.7617 50.1182 40.0512 50.2225C40.3416 50.3272 40.6335 50.5711 40.9372 51.0218ZM14.723 51.2276L14.7233 51.2271C15.027 50.7765 15.3189 50.5324 15.6093 50.4275C15.8988 50.323 16.1952 50.3538 16.5147 50.4702C16.8355 50.587 17.1749 50.7882 17.5486 51.0191C17.5947 51.0475 17.6413 51.0764 17.6884 51.1057C18.0218 51.3125 18.3813 51.5356 18.7732 51.734C18.8686 51.783 18.9121 51.8429 18.923 51.9041C18.9343 51.9671 18.9134 52.0445 18.8526 52.1317C18.7306 52.3065 18.463 52.4981 18.0851 52.6434C17.3323 52.9329 16.165 53.0293 14.9303 52.4612C14.609 52.3119 14.4689 52.1441 14.446 51.9545C14.4225 51.7594 14.5196 51.5222 14.723 51.2276ZM27.8485 19.897C28.1607 19.8526 28.5876 19.9083 29.0521 20.0468C29.5157 20.185 30.0123 20.4045 30.4625 20.6836C30.9129 20.9628 31.3147 21.3004 31.5907 21.6737C31.8666 22.0469 32.0148 22.4527 31.9654 22.8715C31.9367 23.108 31.7986 23.323 31.5697 23.5141C31.3406 23.7054 31.0234 23.8701 30.6446 24.0049C29.887 24.2747 28.8926 24.4219 27.8911 24.4308C26.8895 24.4398 25.8854 24.3103 25.108 24.0299C24.3278 23.7485 23.7922 23.3214 23.6948 22.7454C23.6347 22.3846 23.6615 22.0594 23.7833 21.7666C23.905 21.4738 24.1233 21.2097 24.4525 20.9735C25.1126 20.4999 26.2129 20.1429 27.8485 19.897ZM45.2551 36.1082C44.9616 36.0978 44.7139 35.8977 44.5369 35.6281C44.3602 35.3588 44.2617 35.0309 44.2617 34.7869C44.2617 34.328 44.292 33.8316 44.4053 33.3927C44.5187 32.9533 44.7134 32.5779 45.0373 32.3524C45.201 32.2392 45.3558 32.2136 45.499 32.2495C45.6441 32.2859 45.7841 32.3873 45.9121 32.541C46.1684 32.8488 46.3641 33.3519 46.4476 33.8889C46.5311 34.4256 46.5009 34.9868 46.3149 35.41C46.2221 35.621 46.0913 35.7963 45.9178 35.9183C45.7449 36.0398 45.5267 36.1105 45.2551 36.1082Z" fill="#F6D2A2" stroke="black" stroke-width="0.1"/>
<path d="M44.2333 7.57174C44.3349 7.14111 45.3993 6.93574 45.9934 7.67332C46.7089 8.55224 44.9488 9.7602 44.8671 9.26995C44.6639 7.93832 44.1119 8.00015 44.2333 7.56953V7.57174ZM11.4307 7.57174C11.5544 8.00015 11.0001 7.93832 10.7969 9.26995C10.7152 9.7602 8.9552 8.55224 9.6707 7.67332C10.2449 6.93574 11.3071 7.14111 11.4307 7.57174ZM35.4132 17.5357C34.7948 17.5357 34.2016 17.29 33.7643 16.8527C33.3269 16.4154 33.0812 15.8222 33.0812 15.2037C33.0812 14.5853 33.3269 13.9921 33.7643 13.5548C34.2016 13.1174 34.7948 12.8717 35.4132 12.8717C36.0317 12.8717 36.6249 13.1174 37.0622 13.5548C37.4995 13.9921 37.7452 14.5853 37.7452 15.2037C37.7452 15.8222 37.4995 16.4154 37.0622 16.8527C36.6249 17.29 36.0317 17.5357 35.4132 17.5357ZM34.7993 14.9365C34.8994 14.942 34.9996 14.927 35.0937 14.8925C35.1879 14.858 35.2739 14.8046 35.3468 14.7357C35.4196 14.6667 35.4775 14.5837 35.5172 14.4916C35.5568 14.3995 35.5772 14.3003 35.5772 14.2C35.5772 14.0998 35.5568 14.0006 35.5172 13.9085C35.4775 13.8164 35.4196 13.7334 35.3468 13.6644C35.2739 13.5955 35.1879 13.5421 35.0937 13.5076C34.9996 13.4731 34.8994 13.4581 34.7993 13.4636C34.611 13.4739 34.4337 13.556 34.304 13.693C34.1744 13.8299 34.1021 14.0114 34.1021 14.2C34.1021 14.3887 34.1744 14.5702 34.304 14.7071C34.4337 14.8441 34.611 14.9262 34.7993 14.9365ZM25.7341 20.8328C25.9792 19.8898 26.8383 19.5829 27.5361 19.563C29.316 19.521 29.9918 20.4839 30.0536 21.2413C30.1751 22.5288 25.182 22.8357 25.7341 20.8306V20.8328ZM20.2508 17.5335C19.6323 17.5335 19.0392 17.2878 18.6018 16.8505C18.1645 16.4132 17.9188 15.82 17.9188 15.2015C17.9188 14.583 18.1645 13.9899 18.6018 13.5526C19.0392 13.1152 19.6323 12.8695 20.2508 12.8695C20.8693 12.8695 21.4625 13.1152 21.8998 13.5526C22.3371 13.9899 22.5828 14.583 22.5828 15.2015C22.5828 15.82 22.3371 16.4132 21.8998 16.8505C21.4625 17.2878 20.8693 17.5335 20.2508 17.5335ZM20.8647 14.9343C20.9648 14.9398 21.065 14.9248 21.1591 14.8903C21.2533 14.8558 21.3394 14.8024 21.4122 14.7335C21.485 14.6645 21.543 14.5815 21.5826 14.4894C21.6222 14.3973 21.6427 14.2981 21.6427 14.1978C21.6427 14.0976 21.6222 13.9984 21.5826 13.9063C21.543 13.8142 21.485 13.7311 21.4122 13.6622C21.3394 13.5933 21.2533 13.5399 21.1591 13.5054C21.065 13.4709 20.9648 13.4559 20.8647 13.4614C20.6764 13.4717 20.4991 13.5538 20.3695 13.6908C20.2398 13.8277 20.1675 14.0092 20.1675 14.1978C20.1675 14.3865 20.2398 14.5679 20.3695 14.7049C20.4991 14.8419 20.6764 14.924 20.8647 14.9343Z" fill="black"/>
</svg>
