<svg xmlns="http://www.w3.org/2000/svg" width="80" height="80" viewBox="0 0 80 80">
  <g id="Group_39460" data-name="Group 39460" transform="translate(-3066 -2501)">
    <g id="Group_39454" data-name="Group 39454" transform="translate(21218 13669)">
      <rect id="Rectangle_11156" data-name="Rectangle 11156" width="80" height="80" transform="translate(-18152 -11168)" fill="none"/>
      <path id="Path_34291" data-name="Path 34291" d="M67.824,44.384A17.684,17.684,0,0,0,78.561,60.571a43.778,43.778,0,0,1-5.536,11.378c-3.334,4.873-6.8,9.729-12.246,9.83-5.356.1-7.079-3.177-13.2-3.177s-8.036,3.075-13.107,3.275c-5.262.2-9.27-5.271-12.632-10.125-6.87-9.932-12.12-28.066-5.07-40.307A19.585,19.585,0,0,1,33.32,21.418c5.167-.1,10.044,3.476,13.2,3.476s9.083-4.3,15.314-3.668a18.688,18.688,0,0,1,14.632,7.936c-.378.235-8.736,5.1-8.645,15.222M57.757,14.656A17.624,17.624,0,0,0,61.918,1.883c-4.027.162-8.9,2.683-11.785,6.063-2.589,2.992-4.855,7.783-4.244,12.374,4.489.348,9.074-2.281,11.868-5.664" transform="translate(-18158.422 -11169.883)"/>
    </g>
  </g>
</svg>
