<svg width="54" height="53" viewBox="0 0 54 53" fill="none" xmlns="http://www.w3.org/2000/svg">
<g clip-path="url(#clip0_2162_1026)">
<path d="M41.446 28.1569C41.4558 30.4436 42.1345 32.6774 43.3985 34.5829C44.6625 36.4885 46.4565 37.9825 48.5593 38.8808C47.7082 41.5578 46.4728 44.0969 44.8917 46.4187C42.6829 49.6471 40.3867 52.8642 36.7787 52.9311C33.2304 52.9973 32.0889 50.8263 28.0337 50.8263C23.9786 50.8263 22.7099 52.8635 19.3503 52.996C15.8643 53.1285 13.209 49.504 10.9816 46.2882C6.43026 39.7083 2.95213 27.6945 7.62276 19.5848C8.7186 17.6229 10.3052 15.9792 12.2272 14.8147C14.1493 13.6502 16.3408 13.0049 18.5871 12.9419C22.0103 12.8757 25.2413 15.2448 27.3321 15.2448C29.423 15.2448 33.3496 12.396 37.4777 12.8147C39.3898 12.8825 41.2603 13.3924 42.9422 14.3047C44.6241 15.2169 46.0717 16.5065 47.1714 18.0723C46.9209 18.228 41.3838 21.4511 41.444 28.1569M34.7766 8.46211C36.7767 6.11597 37.7676 3.07402 37.5333 0C34.8654 0.107325 31.6371 1.77749 29.7257 4.01674C28.0105 5.99894 26.5093 9.17298 26.9141 12.2145C29.8881 12.4451 32.9256 10.7034 34.7766 8.46211Z" fill="white"/>
</g>
<defs>
<clipPath id="clip0_2162_1026">
<rect width="53" height="53" fill="white" transform="translate(0.765625)"/>
</clipPath>
</defs>
</svg>
