<svg width="62" height="62" viewBox="0 0 62 62" fill="none" xmlns="http://www.w3.org/2000/svg">
<path d="M19.8788 60.0049C18.4388 60.0049 17.0789 59.3576 16.1588 58.1842L2.1592 40.5836C1.23913 39.4101 0.879234 37.9133 1.23913 36.4564L6.23909 14.4861C6.55902 13.0295 7.51905 11.856 8.83921 11.2088L29.0791 1.41695C29.7192 1.09357 30.4392 0.931641 31.1592 0.931641C31.8792 0.931641 32.599 1.09333 33.2391 1.41719L53.4792 11.1684C54.7991 11.8156 55.7592 12.9891 56.0791 14.4457L61.0791 36.416C61.3992 37.8727 61.0791 39.3697 60.1592 40.5432L46.1591 58.1438C45.239 59.2766 43.8791 59.9645 42.4391 59.9645L19.8793 60.0049H19.8788Z" fill="#326DE6"/>
<path d="M51.4011 34.9175C51.3611 34.9175 51.3611 34.9175 51.4011 34.9175H51.3611C51.3211 34.9175 51.2812 34.9175 51.2812 34.8771C51.2013 34.8771 51.1213 34.8367 51.0412 34.8367C50.7612 34.7963 50.5212 34.7559 50.2812 34.7559C50.1611 34.7559 50.0412 34.7559 49.8811 34.7152H49.8411C49.0012 34.6343 48.3212 34.5535 47.6811 34.3512C47.4011 34.2296 47.3212 34.068 47.241 33.906C47.241 33.8656 47.201 33.8656 47.201 33.8252L46.6811 33.6635C46.9267 31.7601 46.8319 29.8276 46.4011 27.9582C45.9643 26.0732 45.2064 24.2796 44.1611 22.6578L44.5612 22.2937V22.2129C44.5612 22.0105 44.6012 21.8082 44.761 21.6058C45.241 21.1607 45.8412 20.7967 46.5612 20.3515C46.6811 20.2707 46.8009 20.2303 46.9211 20.1492C47.1611 20.0279 47.3611 19.9066 47.6011 19.7447C47.6411 19.7043 47.721 19.6639 47.8012 19.583C47.8411 19.5424 47.8811 19.5424 47.8811 19.5019C48.441 19.0164 48.5612 18.2072 48.1611 17.681C47.961 17.3978 47.6011 17.2361 47.241 17.2361C46.9213 17.2361 46.6411 17.3574 46.3611 17.5597L46.2812 17.6406C46.2013 17.681 46.1611 17.7621 46.0812 17.8025C45.8811 18.0049 45.721 18.1666 45.5612 18.3689C45.4813 18.4498 45.4013 18.5713 45.2812 18.6521C44.721 19.2592 44.2011 19.7447 43.6811 20.1088C43.5612 20.1896 43.4413 20.2303 43.3212 20.2303C43.2413 20.2303 43.1611 20.2303 43.0812 20.1896H43.0013L42.521 20.5135C42.001 19.9471 41.4411 19.4615 40.8812 18.976C38.47 17.0696 35.5683 15.9039 32.5211 15.6175L32.4811 15.0916L32.4012 15.0107C32.2811 14.8892 32.1212 14.7679 32.081 14.4847C32.0411 13.8373 32.1212 13.1089 32.2012 12.2998V12.2594C32.2012 12.1378 32.2411 11.9762 32.2811 11.8546C32.321 11.6121 32.361 11.3691 32.4012 11.0859V10.7219C32.4012 9.99353 31.841 9.38672 31.1612 9.38672C30.841 9.38672 30.5211 9.54841 30.2811 9.79118C30.0413 10.034 29.9212 10.3576 29.9212 10.7219V11.0455C29.9212 11.3287 29.9612 11.5714 30.0411 11.8142C30.0811 11.9357 30.0811 12.057 30.121 12.2189V12.2594C30.2009 13.0685 30.3211 13.7968 30.2411 14.4443C30.2012 14.7275 30.0411 14.8488 29.9212 14.9703L29.8413 15.0511L29.8011 15.5771C29.0811 15.658 28.361 15.7388 27.641 15.9007C24.5611 16.5886 21.8411 18.1668 19.7212 20.4324L19.3211 20.1492H19.2412C19.1613 20.1492 19.0811 20.1896 19.0012 20.1896C18.8811 20.1896 18.7612 20.1492 18.6411 20.0683C18.1211 19.7043 17.6011 19.1781 17.0412 18.5713C16.9613 18.4904 16.8814 18.3689 16.7612 18.2881C16.6011 18.0857 16.4411 17.9238 16.241 17.7217C16.201 17.681 16.1211 17.6408 16.0412 17.5597C16.0012 17.5193 15.9613 17.5193 15.9613 17.4789C15.7135 17.2718 15.4026 17.1574 15.0812 17.155C14.721 17.155 14.3611 17.317 14.1611 17.6002C13.761 18.1261 13.8811 18.9353 14.4411 19.4209C14.481 19.4209 14.481 19.4615 14.521 19.4615C14.6009 19.5019 14.6411 19.5828 14.721 19.6232C14.961 19.7849 15.1611 19.9064 15.4011 20.0279C15.5212 20.0683 15.6411 20.1492 15.7612 20.2303C16.481 20.6751 17.0812 21.0394 17.5612 21.4846C17.7612 21.6867 17.7612 21.889 17.7612 22.0914V22.1722L18.1611 22.5365C18.0811 22.6578 18.0012 22.7389 17.961 22.8601C15.961 26.0566 15.2011 29.8195 15.721 33.542L15.2011 33.7037C15.2011 33.7443 15.1611 33.7443 15.1611 33.7845C15.0812 33.9464 14.961 34.1084 14.721 34.2296C14.1211 34.432 13.4011 34.5131 12.5612 34.5939H12.521C12.4011 34.5939 12.241 34.5939 12.1212 34.6343C11.8811 34.6343 11.6411 34.6748 11.3612 34.7152C11.2812 34.7152 11.2013 34.7559 11.1212 34.7559C11.0812 34.7559 11.0412 34.7559 11.001 34.7963C10.281 34.958 9.84096 35.6459 9.96109 36.2931C10.0812 36.8597 10.6012 37.224 11.241 37.224C11.3612 37.224 11.4411 37.224 11.5612 37.1834C11.6012 37.1834 11.6411 37.1834 11.6411 37.1429C11.7211 37.1429 11.801 37.1025 11.8809 37.1025C12.1611 37.0217 12.3612 36.9408 12.6012 36.8193C12.7211 36.7789 12.8409 36.6978 12.9611 36.6576H13.001C13.761 36.3742 14.4411 36.1314 15.0812 36.0506H15.1611C15.4011 36.0506 15.5612 36.1718 15.6811 36.2529C15.721 36.2529 15.721 36.2934 15.761 36.2934L16.3212 36.2125C17.2812 39.2064 19.1211 41.8769 21.5611 43.8191C22.1211 44.264 22.681 44.6283 23.2812 44.9926L23.0411 45.5183C23.0411 45.559 23.0811 45.559 23.0811 45.5992C23.161 45.7611 23.241 45.9634 23.161 46.2466C22.9213 46.8537 22.5611 47.4605 22.1211 48.1484V48.1888C22.0412 48.3104 21.9612 48.3912 21.8813 48.5125C21.7212 48.7148 21.6011 48.9172 21.441 49.1599C21.4011 49.2004 21.3611 49.2812 21.3211 49.3623C21.3211 49.4027 21.2812 49.4431 21.2812 49.4431C20.9612 50.131 21.2012 50.8998 21.8011 51.183C21.961 51.2638 22.1211 51.3045 22.2812 51.3045C22.7612 51.3045 23.2412 50.9806 23.4812 50.5355C23.4812 50.4951 23.5212 50.4547 23.5212 50.4547C23.5611 50.3738 23.6011 50.293 23.641 50.2523C23.7612 49.9691 23.8011 49.7668 23.8811 49.524L24.0012 49.1599C24.2811 48.3508 24.4812 47.7033 24.8411 47.1369C25.0009 46.8941 25.2012 46.8537 25.3611 46.7726C25.401 46.7726 25.401 46.7726 25.441 46.7322L25.7212 46.2062C27.4812 46.8941 29.4012 47.2582 31.3211 47.2582C32.4811 47.2582 33.6812 47.1369 34.8013 46.8537C35.5061 46.6943 36.2007 46.4915 36.8812 46.2466L37.121 46.6918C37.1612 46.6918 37.1612 46.6918 37.2011 46.7322C37.4012 46.7726 37.561 46.8537 37.7211 47.0965C38.041 47.6629 38.281 48.3508 38.561 49.1195V49.1599L38.6811 49.524C38.7611 49.7668 38.801 50.0095 38.9209 50.2523C38.9611 50.3332 39.0011 50.3738 39.041 50.4547C39.041 50.4951 39.0812 50.5355 39.0812 50.5355C39.321 51.021 39.801 51.3045 40.281 51.3045C40.4411 51.3045 40.6012 51.2638 40.761 51.183C41.041 51.0213 41.281 50.7783 41.3612 50.4547C41.4411 50.131 41.4411 49.7668 41.2813 49.4431C41.2813 49.4027 41.2411 49.4027 41.2411 49.3623C41.2011 49.2814 41.1611 49.2006 41.1212 49.1599C41.001 48.9172 40.8412 48.7148 40.6811 48.5125C40.6012 48.3912 40.5213 48.3103 40.4414 48.1891V48.1484C40.0011 47.4605 39.601 46.8537 39.4012 46.2466C39.3212 45.9634 39.4012 45.8018 39.4411 45.5994C39.4411 45.559 39.4811 45.559 39.4811 45.5186L39.281 45.033C41.4011 43.7787 43.2011 41.9982 44.5612 39.8135C45.2812 38.6804 45.8412 37.4261 46.241 36.1718L46.721 36.2527C46.7612 36.2527 46.7612 36.2123 46.801 36.2123C46.961 36.1314 47.0812 36.0102 47.3212 36.0102H47.4011C48.0412 36.091 48.721 36.3335 49.4812 36.617H49.5212C49.6411 36.6574 49.761 36.7382 49.8811 36.7787C50.1211 36.9002 50.3211 36.981 50.6011 37.0621C50.681 37.0621 50.761 37.1025 50.8411 37.1025C50.8811 37.1025 50.921 37.1025 50.961 37.1429C51.0811 37.1834 51.1611 37.1834 51.2812 37.1834C51.8811 37.1834 52.4011 36.7789 52.5611 36.2529C52.5611 35.7674 52.1211 35.1199 51.4011 34.9178V34.9175ZM32.881 32.9349L31.121 33.7848L29.361 32.9349L28.9212 31.0334L30.121 29.4959H32.081L33.2811 31.0334L32.8812 32.9349H32.881ZM43.3212 28.7271C43.6315 30.0651 43.726 31.445 43.6012 32.8134L37.4811 31.0334C36.9212 30.8717 36.6012 30.3051 36.7211 29.7387C36.7611 29.5767 36.8412 29.4148 36.9611 29.2935L41.8012 24.8832C42.481 26.0162 43.001 27.3112 43.3212 28.7271ZM39.8812 22.4557L34.6412 26.2186C34.2011 26.5017 33.601 26.4207 33.2411 25.9758C33.1212 25.8543 33.0813 25.6923 33.0411 25.5306L32.6812 18.9353C35.4053 19.2526 37.9431 20.4934 39.8812 22.4557ZM28.2811 19.1374C28.7212 19.0566 29.121 18.9757 29.5611 18.8949L29.2012 25.3685C29.1612 25.9349 28.7212 26.4204 28.121 26.4204C27.9612 26.4204 27.7611 26.38 27.641 26.2992L22.3211 22.4557C23.9612 20.7967 26.0012 19.6634 28.2811 19.1374ZM20.4011 24.8829L25.161 29.1718C25.6011 29.5361 25.641 30.2237 25.2811 30.6689C25.161 30.8305 25.0012 30.9521 24.8011 30.9927L18.6011 32.8134C18.3611 30.062 18.961 27.2703 20.4011 24.8829ZM19.3209 35.848L25.6812 34.7554C26.2012 34.7149 26.6812 35.0792 26.8011 35.6052C26.8411 35.8477 26.8411 36.0503 26.7611 36.2527L24.3211 42.2003C22.0811 40.7437 20.2809 38.5183 19.3209 35.848ZM33.9212 43.8997C33.0011 44.1021 32.081 44.2234 31.121 44.2234C29.7212 44.2234 28.361 43.9808 27.0813 43.5761L30.2411 37.7902C30.5611 37.4259 31.081 37.2642 31.5211 37.507C31.7079 37.6227 31.8708 37.7738 32.0011 37.9519L35.081 43.5761C34.7211 43.6974 34.321 43.7785 33.9209 43.8997H33.9212ZM41.7211 38.2757C40.7211 39.8941 39.4009 41.1888 37.8812 42.2003L35.3612 36.0905C35.2411 35.6052 35.4411 35.0792 35.9212 34.8362C36.081 34.7554 36.2811 34.7149 36.4811 34.7149L42.8811 35.8076C42.6411 36.6976 42.241 37.507 41.7211 38.2757Z" fill="white"/>
</svg>
