<svg xmlns="http://www.w3.org/2000/svg" width="72.887" height="52.677" viewBox="0 0 72.887 52.677">
  <g id="Group_39473" data-name="Group 39473" transform="matrix(1, 0.017, -0.017, 1, 0.898, 0)">
    <g id="bot">
      <path id="Path_106180" data-name="Path 106180" d="M49.571,31.714H26.429a6.429,6.429,0,1,0,0,12.857H49.571a6.429,6.429,0,0,0,0-12.857ZM29,42a3.857,3.857,0,1,1,3.857-3.857A3.861,3.861,0,0,1,29,42Zm18,0a3.857,3.857,0,1,1,3.857-3.857A3.861,3.861,0,0,1,47,42Zm24.429-7.477V13.477a3.857,3.857,0,1,0-2.571,0V34.523a3.856,3.856,0,0,0-1.4.859,30.86,30.86,0,0,0-58.918,0,3.855,3.855,0,0,0-1.4-.859V13.477a3.857,3.857,0,1,0-2.571,0V34.523A3.851,3.851,0,0,0,2,38.143V48.429a3.841,3.841,0,0,0,6.844,2.41A12.815,12.815,0,0,0,20,57.429H56a12.815,12.815,0,0,0,11.156-6.59A3.841,3.841,0,0,0,74,48.429V38.143a3.851,3.851,0,0,0-2.571-3.62ZM49.571,47.143H26.429a9,9,0,1,1,0-18H49.571a9,9,0,0,1,0,18Z" transform="translate(-2 -6)" fill="#9136ff"/>
    </g>
  </g>
</svg>
