<svg width="53" height="53" viewBox="0 0 53 53" fill="none" xmlns="http://www.w3.org/2000/svg">
<path fill-rule="evenodd" clip-rule="evenodd" d="M27.7566 0.336012C26.9808 -0.112004 26.0242 -0.112004 25.2483 0.336012L4.47388 12.3244C3.69699 12.7724 3.21875 13.6004 3.21875 14.4976V38.4927C3.21875 39.389 3.69699 40.217 4.47305 40.6659L25.2474 52.6638C26.0241 53.112 26.9807 53.112 27.7573 52.6638L48.5269 40.6658C49.3028 40.2169 49.781 39.3889 49.781 38.4926V14.4966C49.781 13.6003 49.3028 12.7724 48.5261 12.3243L27.7566 0.336012Z" fill="url(#paint0_linear_2159_1625)"/>
<path d="M48.567 12.324L27.7345 0.335686C27.529 0.216953 27.3088 0.131967 27.0824 0.0761719L3.73438 40.0164C3.93468 40.313 4.1296 40.5136 4.39222 40.6656L25.2601 52.6636C25.8512 53.0047 26.5537 53.0846 27.1983 52.9064L49.1257 12.7538C48.9591 12.5884 48.7719 12.4423 48.567 12.324Z" fill="url(#paint1_linear_2159_1625)"/>
<path d="M48.5825 40.6658C49.1879 40.3155 49.6166 39.7018 49.7365 38.9821L27.0863 0.0763558C26.4899 -0.0423767 25.7448 0.0260472 25.2082 0.335869L4.51562 12.2521L26.8695 52.9755C27.1885 52.9321 27.501 52.8288 27.787 52.6637L48.5825 40.6658Z" fill="url(#paint2_linear_2159_1625)"/>
<defs>
<linearGradient id="paint0_linear_2159_1625" x1="34.9465" y1="9.26403" x2="16.1783" y2="47.551" gradientUnits="userSpaceOnUse">
<stop stop-color="#3F873F"/>
<stop offset="0.3296" stop-color="#3F8B3D"/>
<stop offset="0.6367" stop-color="#3E9638"/>
<stop offset="0.9341" stop-color="#3DA92E"/>
<stop offset="1" stop-color="#3DAE2B"/>
</linearGradient>
<linearGradient id="paint1_linear_2159_1625" x1="23.372" y1="29.2754" x2="75.9602" y2="-9.57956" gradientUnits="userSpaceOnUse">
<stop offset="0.1376" stop-color="#3F873F"/>
<stop offset="0.4016" stop-color="#52A044"/>
<stop offset="0.7129" stop-color="#64B749"/>
<stop offset="0.9081" stop-color="#6ABF4B"/>
</linearGradient>
<linearGradient id="paint2_linear_2159_1625" x1="2.49065" y1="26.4985" x2="50.444" y2="26.4985" gradientUnits="userSpaceOnUse">
<stop offset="0.0919" stop-color="#6ABF4B"/>
<stop offset="0.2871" stop-color="#64B749"/>
<stop offset="0.5984" stop-color="#52A044"/>
<stop offset="0.8624" stop-color="#3F873F"/>
</linearGradient>
</defs>
</svg>
