<svg xmlns="http://www.w3.org/2000/svg" xmlns:xlink="http://www.w3.org/1999/xlink" width="80" height="80" viewBox="0 0 80 80">
  <defs>
    <clipPath id="clip-path">
      <rect id="Rectangle_12955" data-name="Rectangle 12955" width="69.7" height="79.082" fill="#689f63"/>
    </clipPath>
  </defs>
  <g id="Group_39451" data-name="Group 39451" transform="translate(-3190 -2371)">
    <rect id="Rectangle_12957" data-name="Rectangle 12957" width="80" height="80" transform="translate(3190 2371)" fill="none"/>
    <g id="fa-brands_node-js" transform="translate(3195 2371)" clip-path="url(#clip-path)">
      <path id="Path_106181" data-name="Path 106181" d="M34.85,78.464a6.128,6.128,0,0,1-3.018-.8l-9.6-5.638c-1.431-.8-.731-1.081-.264-1.236a18.98,18.98,0,0,0,4.341-1.962.706.706,0,0,1,.716.062l7.375,4.34a.906.906,0,0,0,.887,0L64.021,56.763a.913.913,0,0,0,.436-.772V23.06a.919.919,0,0,0-.451-.788L35.285,5.822a.907.907,0,0,0-.887,0L5.694,22.288a.9.9,0,0,0-.451.788V55.99a.851.851,0,0,0,.451.757l7.872,4.51c4.278,2.116,6.892-.371,6.892-2.888v-32.5a.821.821,0,0,1,.84-.819h3.641a.831.831,0,0,1,.84.819V58.384c0,5.653-3.112,8.9-8.51,8.9-1.665,0-2.972,0-6.612-1.792L3.127,61.18A6,6,0,0,1,.109,55.975V23.06a6.017,6.017,0,0,1,3.018-5.205L31.831,1.39a6.34,6.34,0,0,1,6.037,0L66.6,17.87a6,6,0,0,1,3.018,5.205V55.99A6.036,6.036,0,0,1,66.6,61.2L37.868,77.661A6.084,6.084,0,0,1,34.85,78.464Zm23.2-32.451c0-6.163-4.2-7.8-13.022-8.958-8.93-1.174-9.833-1.776-9.833-3.846,0-1.715.762-4,7.375-4,5.9,0,8.075,1.267,8.977,5.221a.832.832,0,0,0,.809.649h3.734a.815.815,0,0,0,.607-.262.856.856,0,0,0,.218-.633c-.576-6.812-5.134-9.978-14.344-9.978-8.2,0-13.084,3.429-13.084,9.19,0,6.24,4.87,7.97,12.726,8.742,9.413.911,10.144,2.286,10.144,4.124,0,3.182-2.583,4.541-8.635,4.541-7.608,0-9.272-1.9-9.833-5.653a.822.822,0,0,0-.825-.7H29.342a.817.817,0,0,0-.825.819c0,4.8,2.629,10.534,15.216,10.534,9.086-.015,14.313-3.583,14.313-9.793Z" fill="#689f63"/>
    </g>
  </g>
</svg>
