<svg width="56" height="53" viewBox="0 0 56 53" fill="none" xmlns="http://www.w3.org/2000/svg">
<path d="M38.4929 49.5405C35.8872 49.5405 32.6085 47.9902 29.2622 45.1759C28.7925 44.7784 28.3102 44.3505 27.8293 43.8986C27.4536 44.2551 27.0773 44.5876 26.7235 44.8924C23.2825 47.8326 19.7309 49.518 16.9795 49.518C16.098 49.5379 15.2264 49.3286 14.4501 48.9104C13.7125 48.4215 13.0877 47.7807 12.6176 47.0309C12.1521 46.2854 11.8542 45.4477 11.7444 44.5757C11.3281 42.101 11.3933 39.5692 11.9365 37.1193C12.0518 36.523 12.1929 35.8963 12.3532 35.2696C11.8517 35.1291 11.3708 34.9821 10.9189 34.831C8.35999 34.0452 5.97199 32.7843 3.87988 31.1144C2.14479 29.6244 1.22656 28.0119 1.22656 26.4484C1.29358 25.5731 1.55016 24.7229 1.9785 23.9567C2.41175 23.1837 3.00566 22.5125 3.72021 21.9884C5.71462 20.3956 7.9882 19.188 10.4247 18.4275C11.0408 18.2175 11.7014 18.0148 12.3864 17.8246C12.2333 17.2284 12.0975 16.648 11.9948 16.1074C11.427 13.6144 11.3371 11.0364 11.7298 8.50988C12.1426 6.37928 13.0707 4.85221 14.4123 4.10028C15.1759 3.68538 16.0345 3.47668 16.9033 3.49475C18.5408 3.5585 20.1428 3.99104 21.5898 4.76013C23.5001 5.73197 25.2773 6.94595 26.8772 8.37208C27.1588 8.61588 27.445 8.87359 27.7544 9.16708C28.2029 8.74507 28.6481 8.3469 29.0741 7.98319C32.5171 5.05626 35.8674 3.4444 38.5081 3.4444C39.3523 3.42693 40.1865 3.6292 40.9289 4.03138C42.3307 4.82306 43.296 6.43161 43.7167 8.68875C44.1131 11.3643 43.9952 14.0909 43.3695 16.7222C43.294 17.084 43.2046 17.4669 43.1045 17.8597C43.7061 18.03 44.2805 18.2069 44.8111 18.3858C47.2973 19.1521 49.6223 20.3668 51.6713 21.9699C53.3501 23.3863 54.2405 24.9359 54.2405 26.4484C54.2405 28.0298 53.2944 29.6443 51.5044 31.1323C49.3219 32.809 46.8493 34.0696 44.2102 34.8509C43.9048 34.9503 43.5835 35.0496 43.2231 35.1517C43.3437 35.622 43.4503 36.0917 43.5411 36.5363C44.1265 39.1022 44.2053 41.7577 43.773 44.3538C43.3258 46.5679 42.3572 48.1519 40.9726 48.9356C40.2128 49.3497 39.358 49.5582 38.4929 49.5405ZM41.0302 35.7135C38.664 36.2341 36.2654 36.5951 33.8507 36.794C32.496 38.7304 31.0115 40.5726 29.4073 42.308C29.8532 42.728 30.3017 43.1275 30.7403 43.5005C33.595 45.9007 36.4888 47.3337 38.4809 47.3337C38.9521 47.3492 39.4193 47.2427 39.8371 47.0243C40.6519 46.5645 41.2661 45.425 41.5695 43.8079C41.9157 41.5323 41.8294 39.2118 41.3151 36.9682C41.2323 36.5628 41.1362 36.1408 41.0263 35.7148L41.0302 35.7135ZM14.5488 35.8075C14.3997 36.3945 14.2699 36.9729 14.1639 37.53C13.2569 42.2 13.8267 46.0021 15.5836 46.9912C16.0141 47.2135 16.4946 47.3214 16.9788 47.3046C17.771 47.2832 18.5544 47.1319 19.2976 46.8567C21.4805 46.0166 23.4918 44.7849 25.2323 43.2222C25.5635 42.94 25.906 42.6333 26.2419 42.3139C24.6056 40.5846 23.0854 38.749 21.6912 36.8192C19.2906 36.6433 16.9044 36.3085 14.5481 35.8168L14.5488 35.8075ZM24.6307 36.9901C25.6755 38.3343 26.7507 39.5891 27.8193 40.7206C28.9204 39.5275 29.9597 38.2789 30.9331 36.9795C29.8678 37.0259 28.7886 37.0457 27.7325 37.0457C26.6765 37.0457 25.6463 37.0259 24.6314 36.9874L24.6307 36.9901ZM27.7312 18.1426C26.1227 18.1426 24.4989 18.2023 22.9062 18.3195C22.0092 19.6048 21.144 20.951 20.337 22.3184C19.5301 23.6858 18.7709 25.0823 18.0845 26.4921C18.7735 27.8933 19.5361 29.2971 20.3463 30.6659C21.1565 32.0346 22.0284 33.3868 22.9374 34.6819C24.4889 34.776 26.1041 34.8297 27.7365 34.8297C29.3689 34.8297 31.0093 34.7734 32.5913 34.6627C33.4572 33.3974 34.3092 32.0485 35.1333 30.6526C35.9575 29.2567 36.7187 27.8542 37.4117 26.459C36.7154 25.0876 35.9462 23.6884 35.128 22.3038C34.3131 20.9337 33.4572 19.5922 32.5747 18.3182C30.9847 18.2089 29.3543 18.1493 27.7385 18.1493L27.7312 18.1426ZM16.8781 29.1057C16.229 30.5996 15.6556 32.1253 15.1603 33.6769C16.7755 34.0145 18.4066 34.2708 20.0475 34.4448C19.4698 33.5676 18.9107 32.6752 18.3833 31.7842C17.856 30.8931 17.3531 30.0007 16.8781 29.1057ZM38.6333 29.0255C38.1464 29.9437 37.6309 30.8666 37.093 31.7709C36.555 32.6752 36.0125 33.5597 35.4639 34.4024C37.1253 34.2136 38.776 33.9398 40.4095 33.5822C39.8955 32.0338 39.3 30.5136 38.6254 29.0282L38.6333 29.0255ZM12.9945 19.9599C12.3528 20.1365 11.7431 20.3245 11.1654 20.5237C6.57228 22.0905 3.48768 24.4748 3.48768 26.4497C3.48768 27.3686 4.18993 28.4617 5.4659 29.5297C7.31493 30.9664 9.41015 32.0543 11.649 32.7402C12.0591 32.8773 12.499 33.0118 12.9574 33.1377C13.6801 30.8689 14.5546 28.6514 15.575 26.5001C14.5678 24.3794 13.7046 22.1933 12.9912 19.9566L12.9945 19.9599ZM42.501 19.993C41.7889 22.2049 40.927 24.3656 39.9212 26.4603C40.9664 28.5835 41.8634 30.7766 42.6057 33.0237C42.9011 32.9376 43.2019 32.8468 43.4961 32.7514C45.7171 32.0844 47.8141 31.0583 49.7037 29.7139C51.1685 28.5995 51.9747 27.4402 51.9747 26.4491C51.9747 25.5216 51.2228 24.4284 49.866 23.379C48.1056 22.1072 46.1512 21.1282 44.0784 20.4799C43.5809 20.3123 43.0502 20.1487 42.5023 19.9937L42.501 19.993ZM35.4738 18.6143C36.029 19.461 36.5709 20.3368 37.0857 21.2054C37.6157 22.1024 38.1311 23.01 38.6095 23.8997C39.2502 22.4417 39.8159 20.9518 40.3041 19.4358C38.7804 19.0986 37.1566 18.8217 35.4679 18.6123L35.4738 18.6143ZM20.0018 18.6143C18.3217 18.819 16.7052 19.0907 15.1947 19.4206C15.6545 20.8708 16.2216 22.378 16.8788 23.9037C17.3598 22.9974 17.8606 22.0964 18.3747 21.2246C18.8888 20.3527 19.44 19.4703 20.0005 18.6143H20.0018ZM38.4988 5.65318C36.4775 5.65318 33.5082 7.14844 30.5627 9.65203C30.1606 9.9952 29.7479 10.3629 29.3437 10.7452C30.9592 12.4635 32.4561 14.2896 33.8242 16.2108C36.2083 16.422 38.5761 16.7874 40.913 17.3046C41.0097 16.9389 41.0819 16.6017 41.1501 16.2744C41.669 14.056 41.8075 11.7657 41.5596 9.50098C41.3052 7.70428 40.6804 6.44221 39.8013 5.94998C39.3999 5.74066 38.9513 5.63843 38.4988 5.65318ZM16.9152 5.69955C16.4383 5.6839 15.9654 5.79185 15.5425 6.01291C14.7184 6.48329 14.1281 7.65923 13.8797 9.33403C13.6344 11.4541 13.7464 13.6004 14.2109 15.6834C14.3149 16.1995 14.4368 16.7375 14.5753 17.2827C16.9087 16.7764 19.272 16.4189 21.6508 16.2121C23.0341 14.2928 24.544 12.468 26.1704 10.7498C25.8815 10.4848 25.6258 10.2483 25.3754 10.0316C23.9497 8.76866 22.3749 7.68472 20.6862 6.80394C19.5274 6.15897 18.2389 5.78161 16.9152 5.69955ZM27.7305 15.9352C28.7614 15.9352 29.8187 15.9597 30.8754 16.0081C29.8984 14.729 28.8571 13.5002 27.7557 12.3265C26.6904 13.4488 25.6357 14.687 24.6102 16.0061C25.6635 15.9597 26.7149 15.9358 27.7312 15.9358L27.7305 15.9352Z" fill="#00D8FF" stroke="#00D8FF" stroke-width="0.5"/>
<path d="M27.7331 21.821C28.6674 21.82 29.5817 22.0909 30.3646 22.6008C31.1399 23.104 31.7476 23.8269 32.1103 24.6771C32.4685 25.5203 32.5625 26.4524 32.3799 27.3502C32.195 28.2519 31.7436 29.0773 31.0841 29.7193C30.4171 30.3688 29.5747 30.8089 28.6606 30.9854C27.7415 31.164 26.7903 31.0719 25.9225 30.7204C25.062 30.3739 24.3229 29.7812 23.7979 29.0164C23.1897 28.1302 22.9151 27.0571 23.0229 25.9877C23.1308 24.9182 23.614 23.9215 24.3868 23.1745C25.2833 22.3026 26.4852 21.8159 27.7358 21.8184L27.7331 21.821Z" fill="#00D8FF"/>
</svg>
