<svg xmlns="http://www.w3.org/2000/svg" xmlns:xlink="http://www.w3.org/1999/xlink" width="84" height="80" viewBox="0 0 84 80">
  <defs>
    <clipPath id="clip-path">
      <rect id="Rectangle_12956" data-name="Rectangle 12956" width="84" height="73.841" transform="translate(-2 -2)" fill="#00d8ff"/>
    </clipPath>
  </defs>
  <g id="Group_39453" data-name="Group 39453" transform="translate(-3430 -2369)">
    <rect id="Rectangle_12959" data-name="Rectangle 12959" width="80" height="80" transform="translate(3432 2369)" fill="none"/>
    <g id="react_2" data-name="react 2" transform="translate(3432 2374)" clip-path="url(#clip-path)">
      <path id="Path_106182" data-name="Path 106182" d="M56.1,69.788c-3.933,0-8.882-2.34-13.933-6.588-.709-.6-1.437-1.246-2.163-1.928-.567.538-1.135,1.04-1.669,1.5-5.194,4.438-10.555,6.982-14.708,6.982a7.684,7.684,0,0,1-3.818-.917A9.386,9.386,0,0,1,17.043,66a9.156,9.156,0,0,1-1.318-3.706,29.433,29.433,0,0,1,.29-11.255c.174-.9.387-1.846.629-2.792-.757-.212-1.483-.434-2.165-.662a32.168,32.168,0,0,1-10.625-5.61C1.235,39.726-.151,37.292-.151,34.932A9.137,9.137,0,0,1,.984,31.171,9.359,9.359,0,0,1,3.613,28.2a31.032,31.032,0,0,1,10.12-5.375c.93-.317,1.927-.623,2.961-.91-.231-.9-.436-1.776-.591-2.592a30.524,30.524,0,0,1-.4-11.468c.623-3.216,2.024-5.521,4.049-6.656A7.547,7.547,0,0,1,23.512.285a16.435,16.435,0,0,1,7.074,1.91,37.655,37.655,0,0,1,7.981,5.452c.425.368.857.757,1.324,1.2.677-.637,1.349-1.238,1.992-1.787C47.08,2.642,52.137.209,56.123.209a7.352,7.352,0,0,1,3.654.886c2.116,1.195,3.573,3.623,4.208,7.03a32.088,32.088,0,0,1-.524,12.126c-.114.546-.249,1.124-.4,1.717.908.257,1.775.524,2.576.794a32.193,32.193,0,0,1,10.355,5.41c2.534,2.138,3.878,4.477,3.878,6.76,0,2.387-1.428,4.824-4.13,7.07A33.838,33.838,0,0,1,64.73,47.615c-.461.15-.946.3-1.49.454.182.71.343,1.419.48,2.09a30.515,30.515,0,0,1,.35,11.8c-.675,3.342-2.137,5.733-4.227,6.916A7.5,7.5,0,0,1,56.1,69.788ZM59.93,48.917a81.619,81.619,0,0,1-10.837,1.631,78.849,78.849,0,0,1-6.707,8.323c.673.634,1.35,1.237,2.012,1.8,4.309,3.623,8.677,5.786,11.684,5.786a4.126,4.126,0,0,0,2.047-.467c1.23-.694,2.157-2.414,2.615-4.855a27.615,27.615,0,0,0-.384-10.324c-.125-.612-.27-1.249-.436-1.892Zm-39.972.142c-.225.886-.421,1.759-.581,2.6-1.369,7.049-.509,12.788,2.143,14.281a4.267,4.267,0,0,0,2.106.473,10.929,10.929,0,0,0,3.5-.676,29,29,0,0,0,8.958-5.486c.5-.426,1.017-.889,1.524-1.371a81.566,81.566,0,0,1-6.869-8.294,82.169,82.169,0,0,1-10.782-1.513Zm15.218,1.785c1.577,2.029,3.2,3.923,4.813,5.631a71.8,71.8,0,0,0,4.7-5.647c-1.608.07-3.237.1-4.831.1s-3.149-.03-4.681-.088Zm4.68-28.449c-2.428,0-4.879.09-7.283.267-1.354,1.94-2.66,3.972-3.878,6.036s-2.364,4.172-3.4,6.3c1.04,2.115,2.191,4.234,3.414,6.3s2.539,4.107,3.911,6.062c2.342.142,4.78.223,7.244.223s4.94-.085,7.328-.252c1.307-1.91,2.593-3.946,3.837-6.053s2.393-4.224,3.439-6.33c-1.051-2.07-2.212-4.182-3.447-6.272-1.23-2.068-2.522-4.093-3.854-6.016-2.4-.165-4.861-.255-7.3-.255ZM23.474,38.943a73.1,73.1,0,0,0-2.593,6.9,74.4,74.4,0,0,0,7.377,1.159c-.872-1.324-1.716-2.671-2.512-4.016S24.191,40.294,23.474,38.943Zm32.838-.121c-.735,1.386-1.513,2.779-2.325,4.144s-1.631,2.7-2.459,3.972A73.937,73.937,0,0,0,58.993,45.7,69.786,69.786,0,0,0,56.3,38.826Zm-38.7-13.684q-1.453.4-2.761.851C7.918,28.354,3.262,31.953,3.262,34.934c0,1.387,1.06,3.037,2.986,4.649a29.108,29.108,0,0,0,9.333,4.846c.619.207,1.283.41,1.975.6a80.113,80.113,0,0,1,3.951-10.019,78.909,78.909,0,0,1-3.9-9.877Zm44.538.05a77.211,77.211,0,0,1-3.894,9.762,77.381,77.381,0,0,1,4.052,9.907c.446-.13.9-.267,1.344-.411a32.08,32.08,0,0,0,9.37-4.585c2.211-1.682,3.428-3.432,3.428-4.928,0-1.4-1.135-3.05-3.183-4.634a30.428,30.428,0,0,0-8.736-4.376c-.751-.253-1.552-.5-2.379-.734ZM51.543,23.107c.838,1.278,1.656,2.6,2.433,3.911.8,1.354,1.578,2.724,2.3,4.067a70.345,70.345,0,0,0,2.558-6.738c-2.3-.509-4.751-.927-7.3-1.243Zm-23.354,0c-2.536.309-4.976.719-7.256,1.217.694,2.189,1.55,4.464,2.542,6.767.726-1.368,1.482-2.728,2.258-4.044s1.608-2.648,2.454-3.94ZM56.109,3.543c-3.051,0-7.533,2.257-11.979,6.036-.607.518-1.23,1.073-1.84,1.65a78.666,78.666,0,0,1,6.763,8.25,83.7,83.7,0,0,1,10.7,1.651c.146-.552.255-1.061.358-1.555a30.377,30.377,0,0,0,.618-10.224c-.384-2.712-1.327-4.617-2.654-5.36A3.972,3.972,0,0,0,56.109,3.543ZM23.53,3.613a4.177,4.177,0,0,0-2.072.473c-1.244.71-2.135,2.485-2.51,5.013a28.817,28.817,0,0,0,.5,9.584c.157.779.341,1.591.55,2.414a85.148,85.148,0,0,1,10.68-1.616A80.247,80.247,0,0,1,37.5,11.236c-.436-.4-.822-.757-1.2-1.084A35.273,35.273,0,0,0,29.222,5.28,13.41,13.41,0,0,0,23.53,3.613Zm16.325,15.45c1.556,0,3.152.037,4.747.11a71.911,71.911,0,0,0-4.709-5.557c-1.608,1.694-3.2,3.563-4.748,5.554C36.735,19.1,38.322,19.064,39.856,19.064Z" transform="translate(0.008 -0.01)" fill="#00d8ff" stroke="#00d8ff" stroke-width="1"/>
      <path id="Path_106183" data-name="Path 106183" d="M41.593,29.413a7.264,7.264,0,0,1,3.972,1.177A7.02,7.02,0,0,1,48.2,33.724a6.835,6.835,0,0,1,.407,4.035,6.935,6.935,0,0,1-1.956,3.576,7.2,7.2,0,0,1-3.658,1.911,7.3,7.3,0,0,1-4.133-.4,7.112,7.112,0,0,1-3.207-2.572,6.863,6.863,0,0,1,.889-8.818,7.23,7.23,0,0,1,5.055-2.047Z" transform="translate(-1.727 -1.475)" fill="#00d8ff"/>
    </g>
  </g>
</svg>
