<svg width="60" height="60" viewBox="0 0 60 60" fill="none" xmlns="http://www.w3.org/2000/svg">
<path d="M60 30.0064C60 25.9891 55.0225 22.1816 47.39 19.8218C49.1525 11.9617 48.37 5.70594 44.92 3.70238C44.0841 3.22921 43.1379 2.99104 42.18 3.01263V5.76658C42.7425 5.76658 43.195 5.88027 43.575 6.08998C45.2375 7.05512 45.96 10.7237 45.3975 15.4458C45.2625 16.608 45.0425 17.8308 44.7725 19.079C42.2166 18.4565 39.6225 18.0067 37.0075 17.7323C35.4496 15.5602 33.75 13.4957 31.92 11.5524C35.9075 7.80803 39.65 5.75647 42.195 5.75647V3C38.83 3 34.4275 5.42297 29.975 9.62463C25.525 5.45076 21.12 3.05053 17.7575 3.05053V5.80448C20.29 5.80448 24.045 7.84593 28.0325 11.565C26.32 13.3841 24.6075 15.4458 22.98 17.7323C20.3595 18.0036 17.7609 18.4578 15.2025 19.0916C14.9321 17.9087 14.7194 16.713 14.565 15.5089C13.99 10.7843 14.7 7.11576 16.3525 6.1405C16.7175 5.91817 17.195 5.81711 17.7575 5.81711V3.06316C16.7325 3.06316 15.8 3.2855 14.995 3.75291C11.5575 5.75647 10.7875 11.9971 12.56 19.8345C4.9525 22.2094 0 26.0018 0 30.0064C0 34.0236 4.9775 37.8311 12.61 40.1883C10.8475 48.051 11.63 54.3068 15.08 56.3078C15.875 56.7777 16.805 57 17.83 57C21.195 57 25.5975 54.577 30.05 50.3754C34.5 54.5518 38.9025 56.9495 42.2675 56.9495C43.2327 56.9701 44.1861 56.7312 45.03 56.2572C48.4675 54.2562 49.2375 48.0156 47.465 40.1783C55.0475 37.8184 60 34.0109 60 30.0064ZM44.075 21.7622C43.5999 23.4142 43.0494 25.043 42.425 26.6435C41.4029 24.6342 40.2807 22.6787 39.0625 20.7844C40.8 21.0446 42.475 21.3655 44.0775 21.7622H44.075ZM38.475 34.9255C37.5593 36.5412 36.5759 38.1167 35.5275 39.6477C31.8581 39.9745 28.1676 39.9788 24.4975 39.6603C22.3923 36.6213 20.5514 33.404 18.995 30.0442C20.549 26.6766 22.3821 23.4479 24.475 20.3928C28.1435 20.0653 31.8332 20.0602 35.5025 20.3776C36.5175 21.848 37.51 23.4196 38.4625 25.077C39.3925 26.694 40.2375 28.3363 41.0075 29.9937C40.229 31.6712 39.3841 33.3165 38.475 34.9255ZM42.425 33.3186C43.085 34.9735 43.65 36.631 44.1125 38.2379C42.5125 38.6345 40.8225 38.968 39.075 39.2257C40.2881 37.3142 41.4062 35.3427 42.425 33.3186ZM30.025 46.5072C28.8875 45.3198 27.75 43.9984 26.625 42.5507C27.725 42.6012 28.85 42.6391 29.9875 42.6391C31.1375 42.6391 32.275 42.6138 33.3875 42.5507C32.2875 43.9984 31.15 45.3198 30.025 46.5072ZM20.925 39.2257C19.2393 38.9789 17.5659 38.6535 15.91 38.2504C16.3625 36.6562 16.925 35.0114 17.56 33.3691C18.0625 34.3546 18.59 35.345 19.165 36.3353C19.74 37.3232 20.325 38.2884 20.925 39.2257ZM29.9625 13.5054C31.1 14.6928 32.2375 16.0143 33.3625 17.462C32.2625 17.4115 31.1375 17.3735 30 17.3735C28.85 17.3735 27.7125 17.3988 26.6 17.462C27.7 16.0143 28.8375 14.6928 29.9625 13.5054ZM20.9125 20.787C19.6997 22.6943 18.5817 24.6615 17.5625 26.6814C16.9205 25.0706 16.3574 23.4289 15.875 21.7622C17.475 21.3781 19.165 21.0446 20.9125 20.787ZM9.84497 36.2595C5.515 34.3949 2.715 31.9468 2.715 30.0064C2.715 28.066 5.515 25.605 9.84497 23.7531C10.895 23.2958 12.045 22.8865 13.2325 22.505C13.93 24.9255 14.8475 27.4469 15.9825 30.0316C14.9109 32.4626 14.0047 34.9647 13.27 37.5203C12.1086 37.1569 10.9656 36.7361 9.84497 36.2595ZM16.425 53.9201C14.7625 52.9601 14.04 49.2864 14.6025 44.5668C14.7375 43.4046 14.9575 42.1793 15.2275 40.9311C17.6225 41.5249 20.24 41.9822 22.9925 42.2803C24.5505 44.4524 26.2501 46.5169 28.08 48.4603C24.0925 52.2046 20.35 54.2562 17.805 54.2562C17.3248 54.2614 16.8508 54.1469 16.425 53.9227V53.9201ZM45.435 44.5037C46.01 49.2259 45.3 52.8969 43.6475 53.8722C43.2825 54.0945 42.805 54.193 42.2425 54.193C39.71 54.193 35.955 52.1541 31.9675 48.4325C33.7899 46.4973 35.478 44.4375 37.02 42.2677C39.6405 41.9964 42.2391 41.5423 44.7975 40.9084C45.08 42.1565 45.2975 43.3541 45.435 44.5037ZM50.1425 36.2595C49.0925 36.7168 47.9425 37.1261 46.755 37.5077C46.0074 34.9389 45.0886 32.4243 44.005 29.9811C45.13 27.4115 46.0325 24.9027 46.7175 22.4924C47.8826 22.857 49.0297 23.2777 50.155 23.7531C54.485 25.6177 57.285 28.066 57.285 30.0064C57.2725 31.9468 54.4725 34.4076 50.1425 36.2595Z" fill="white"/>
<path d="M30 35C31.3261 35 32.5979 34.4732 33.5355 33.5356C34.4732 32.5978 35 31.3261 35 30C35 28.6739 34.4732 27.4022 33.5355 26.4645C32.5979 25.5268 31.3261 25 30 25C28.674 25 27.4021 25.5268 26.4645 26.4645C25.5268 27.4022 25 28.6739 25 30C25 31.3261 25.5268 32.5978 26.4645 33.5356C27.4021 34.4732 28.674 35 30 35Z" fill="white"/>
</svg>
