<svg width="62" height="62" viewBox="0 0 62 62" fill="none" xmlns="http://www.w3.org/2000/svg">
<path d="M3.10156 14.975C3.10156 11.1228 6.22438 8 10.0766 8H51.9266C55.7787 8 58.9016 11.1228 58.9016 14.975V39.775C58.9016 43.6272 55.7787 46.75 51.9266 46.75H10.0766C6.22438 46.75 3.10156 43.6272 3.10156 39.775V14.975Z" fill="#6028FF"/>
<path fill-rule="evenodd" clip-rule="evenodd" d="M35.102 22.9516C35.4046 22.6489 35.8954 22.6489 36.198 22.9516L40.848 27.6016C41.1507 27.9043 41.1507 28.395 40.848 28.6976L36.198 33.3476C35.8954 33.6503 35.4046 33.6503 35.102 33.3476C34.7993 33.045 34.7993 32.5543 35.102 32.2516L39.204 28.1496L35.102 24.0476C34.7993 23.745 34.7993 23.2543 35.102 22.9516Z" fill="white"/>
<path fill-rule="evenodd" clip-rule="evenodd" d="M26.898 22.9516C26.5954 22.6489 26.1046 22.6489 25.802 22.9516L21.152 27.6016C20.8493 27.9043 20.8493 28.395 21.152 28.6976L25.802 33.3476C26.1046 33.6503 26.5954 33.6503 26.898 33.3476C27.2007 33.045 27.2007 32.5543 26.898 32.2516L22.796 28.1496L26.898 24.0476C27.2007 23.745 27.2007 23.2543 26.898 22.9516Z" fill="white"/>
<path opacity="0.5" fill-rule="evenodd" clip-rule="evenodd" d="M32.7507 21.2021C33.1642 21.3124 33.4101 21.7371 33.2998 22.1507L30.1998 33.7757C30.0895 34.1892 29.6649 34.4351 29.2513 34.3248C28.8377 34.2145 28.5919 33.7899 28.7021 33.3763L31.8021 21.7513C31.9124 21.3377 32.3371 21.0919 32.7507 21.2021Z" fill="white"/>
<rect x="28.9336" y="10.2969" width="4.13333" height="1.37778" rx="0.688889" fill="white"/>
<path d="M0 49.0084C0 48.6802 0.266093 48.4141 0.594335 48.4141H61.4057C61.7339 48.4141 62 48.6802 62 49.0084V49.0084C62 51.4702 60.0043 53.4659 57.5425 53.4659H4.45752C1.9957 53.4659 0 51.4702 0 49.0084V49.0084Z" fill="white"/>
</svg>
