<svg width="60" height="60" viewBox="0 0 60 60" fill="none" xmlns="http://www.w3.org/2000/svg">
<path d="M37.5092 25.2759C36.4873 25.5375 35.6436 25.6776 34.7811 25.9858C34.0967 26.1633 33.403 26.3501 32.6061 26.5557L32.5499 26.565C32.1561 26.6771 32.1186 26.6864 31.753 26.266C31.3124 25.771 30.9936 25.4534 30.3842 25.1545C28.5374 24.2578 26.7561 24.5193 25.0968 25.5935C23.1093 26.8732 22.0874 28.7694 22.1155 31.1234C22.1437 33.4586 23.7468 35.3735 25.978 35.6911C28.0405 35.9527 29.7092 35.2614 31.0218 33.7762C31.2186 33.5334 31.3968 33.2811 31.5936 33.0009C31.6686 32.9075 31.7342 32.8048 31.8092 32.6927H26.1749C25.5655 32.6927 25.4155 32.319 25.6218 31.8239C25.9968 30.9179 26.6999 29.4046 27.1124 28.648C27.1968 28.4799 27.403 28.1063 27.7593 28.1063H37.2373C37.6592 26.8546 38.3436 25.5935 39.2623 24.3979C41.3905 21.6049 43.8842 20.1477 47.4372 19.5406C50.4185 19.0175 53.2215 19.307 55.7715 21.0258C58.078 22.5951 59.5028 24.7248 59.8872 27.5177C60.3841 31.4503 59.2402 34.6449 56.4467 37.3818C54.5998 39.3341 52.2372 40.5578 49.5185 41.1089C48.9937 41.2023 48.4781 41.249 47.9716 41.2957C47.6998 41.3144 47.4372 41.3424 47.1746 41.3705C44.5216 41.3144 42.0936 40.5578 40.0498 38.811C38.6155 37.5687 37.6217 36.0461 37.1342 34.2806C36.7873 34.9625 36.3842 35.6257 35.8217 36.2516C33.7967 39.0165 31.0499 40.7352 27.5811 41.193C24.7124 41.5759 22.0593 41.0249 19.7155 39.2781C17.5593 37.6434 16.3312 35.495 16.0124 32.8141C15.628 29.6382 16.5656 26.7051 18.4874 24.2858C20.5687 21.5769 23.3155 19.8581 26.6718 19.251C29.4186 18.6718 32.0436 19.0735 34.4155 20.6802C35.9623 21.6983 37.0686 23.0901 37.7999 24.7808C37.9779 25.0424 37.8561 25.1918 37.5092 25.2759ZM4.52809 25.799C4.41092 25.799 4.38188 25.743 4.44001 25.6496L5.05405 24.8649C5.11218 24.7808 5.25844 24.7248 5.37561 24.7248H15.8062C15.9187 24.7248 15.9468 24.8089 15.8906 24.8929L15.3937 25.6496C15.3374 25.743 15.1874 25.827 15.103 25.827L4.52809 25.799ZM0.116819 28.4799C6.94521e-06 28.4799 -0.0292429 28.4145 0.0292568 28.3304L0.642659 27.5458C0.701159 27.4617 0.847224 27.3963 0.963754 27.3963H14.2874C14.4 27.3963 14.4562 27.4897 14.4281 27.5738L14.1937 28.2744C14.1656 28.3865 14.0531 28.4519 13.9312 28.4519L0.116819 28.4799ZM7.09873 30.9832C7.0406 31.0673 7.06965 31.1514 7.18591 31.1514L13.5562 31.1794C13.6406 31.1794 13.7624 31.0954 13.7624 30.9832L13.8187 30.2827C13.8187 30.1612 13.7624 30.0772 13.6406 30.0772H7.79999C7.68278 30.0772 7.56652 30.1612 7.50747 30.2547L7.09873 30.9832ZM54.1124 29.3019C54.0937 29.059 54.0841 28.8535 54.0467 28.648C53.5215 25.771 50.8594 24.1363 48.0842 24.7808C45.3655 25.388 43.6124 27.1067 42.9748 29.8437C42.4498 32.1135 43.5559 34.4114 45.6559 35.3455C47.2685 36.0461 48.8716 35.962 50.4185 35.168C52.7246 33.8977 53.9811 32.1135 54.1311 29.6101C54.1215 29.498 54.1215 29.3953 54.1124 29.3019Z" fill="white"/>
</svg>
