<svg id="Group_13676" data-name="Group 13676" xmlns="http://www.w3.org/2000/svg" width="80" height="80" viewBox="0 0 80 80">
  <g id="xd.d791e344">
    <path id="Path_34312" data-name="Path 34312" d="M65.834,80H14.166A14.339,14.339,0,0,1,0,65.47V14.53A14.339,14.339,0,0,1,14.166,0H65.834A14.339,14.339,0,0,1,80,14.53V65.47A14.339,14.339,0,0,1,65.834,80Z" fill="#ff26be"/>
    <path id="Path_34313" data-name="Path 34313" d="M63.241,75.309H14.171A12.276,12.276,0,0,1,2.088,62.891V14.514A12.276,12.276,0,0,1,14.171,2.095H63.209A12.253,12.253,0,0,1,75.292,14.514V62.858A12.237,12.237,0,0,1,63.241,75.309Z" transform="translate(1.294 1.298)" fill="#2e001f"/>
    <path id="Path_34314" data-name="Path 34314" d="M26.284,29.754,35.75,48c.169.27.068.544-.2.544H29.662a.663.663,0,0,1-.711-.44c-2.165-4.477-4.362-8.954-6.627-13.77h-.068C20.228,38.881,18,43.664,15.834,48.141a.652.652,0,0,1-.61.374H9.652c-.338,0-.373-.27-.2-.475l9.262-17.707L9.756,12.425a.274.274,0,0,1,.2-.475h5.816a.53.53,0,0,1,.607.374c2.129,4.477,4.293,9.091,6.322,13.6h.068c1.96-4.477,4.125-9.124,6.221-13.568.169-.27.269-.44.61-.44h5.442c.269,0,.373.205.2.475Zm11.125,5.529c0-7.9,5.241-14.076,13.555-14.076a14.857,14.857,0,0,1,1.759.068V12.288a.337.337,0,0,1,.338-.339H58.4c.269,0,.337.1.337.27V43.358a24.3,24.3,0,0,0,.169,3.324c0,.205-.068.27-.269.374a20.068,20.068,0,0,1-8.655,1.967C42.646,49.053,37.405,44.511,37.409,35.283ZM52.72,26.6a5.067,5.067,0,0,0-1.96-.339c-4.261,0-7.234,3.289-7.234,8.753,0,6.242,3.044,8.753,6.864,8.753a6.317,6.317,0,0,0,2.333-.374V26.6Z" transform="translate(5.252 7.674)" fill="#ffd9f2"/>
  </g>
</svg>
