<svg width="53" height="53" viewBox="0 0 53 53" fill="none" xmlns="http://www.w3.org/2000/svg">
<path d="M43.6069 53.0078H9.37625C8.14148 53.0067 6.91905 52.7567 5.7789 52.2721C4.63875 51.7875 3.60326 51.0779 2.73166 50.1839C1.86007 49.2898 1.16949 48.2288 0.699423 47.0617C0.229359 45.8945 -0.0109594 44.644 -0.00778139 43.3818V9.6338C-0.0109595 8.37148 0.229402 7.12091 0.699548 5.95366C1.16969 4.7864 1.8604 3.72537 2.73213 2.83129C3.60386 1.93721 4.63951 1.22762 5.77981 0.743133C6.92011 0.258647 8.14268 0.00877407 9.37755 0.0078125L43.6082 0.0078125C44.843 0.00894956 46.0654 0.258952 47.2055 0.743517C48.3457 1.22808 49.3812 1.9377 50.2528 2.83176C51.1244 3.72583 51.8149 4.7868 52.285 5.95396C52.7551 7.12113 52.9954 8.37159 52.9922 9.6338V43.3818C52.9954 44.6441 52.755 45.8947 52.2849 47.062C51.8147 48.2292 51.124 49.2903 50.2523 50.1843C49.3806 51.0784 48.3449 51.788 47.2046 52.2725C46.0643 52.757 44.8418 53.0069 43.6069 53.0078Z" fill="#FF26BE"/>
<path d="M42.9282 51.0191H10.0682C7.91982 51.0115 5.86193 50.132 4.3453 48.5735C2.82866 47.0149 1.9769 44.9042 1.97656 42.7038V10.3095C1.9769 8.10904 2.82866 5.99839 4.3453 4.43982C5.86193 2.88126 7.91982 2.00183 10.0682 1.99414H42.9097C43.9741 1.99591 45.0278 2.21241 46.0105 2.63126C46.9932 3.05012 47.8857 3.66313 48.6371 4.43529C49.3885 5.20746 49.9841 6.12365 50.3897 7.13155C50.7954 8.13946 51.0032 9.21933 51.0014 10.3095V42.6815C51.0078 43.7724 50.8038 44.8539 50.4011 45.8639C49.9985 46.8739 49.4051 47.7926 48.6551 48.5672C47.905 49.3418 47.013 49.9571 46.0303 50.3779C45.0476 50.7987 43.9934 51.0166 42.9282 51.0191Z" fill="#2E001F"/>
<path d="M20.945 24.8102L27.1287 36.9945C27.2391 37.1748 27.1731 37.3577 26.9981 37.3577H23.1517C23.053 37.3707 22.953 37.3486 22.8684 37.2951C22.7839 37.2416 22.7199 37.1599 22.6872 37.0639C21.2729 34.0743 19.8377 31.0846 18.3581 27.8686H18.3137C16.9889 30.905 15.5334 34.099 14.1185 37.0886C14.0831 37.1654 14.0265 37.23 13.9557 37.2744C13.8849 37.3187 13.803 37.341 13.72 37.3384H10.08C9.85923 37.3384 9.83637 37.1581 9.94938 37.0212L15.9998 25.1969L10.148 13.2383C10.1209 13.2128 10.1022 13.1794 10.0944 13.1426C10.0866 13.1059 10.0901 13.0675 10.1044 13.0329C10.1187 12.9982 10.1431 12.9689 10.1742 12.9489C10.2054 12.9289 10.2419 12.9192 10.2786 12.9211H14.078C14.1626 12.9049 14.2501 12.9215 14.3234 12.9677C14.3968 13.0139 14.4506 13.0863 14.4745 13.1709C15.8653 16.1605 17.2789 19.2416 18.6044 22.2526H18.6488C19.9292 19.263 21.3435 16.1599 22.7127 13.1923C22.8231 13.012 22.8884 12.8984 23.1112 12.8984H26.6662C26.8419 12.8984 26.9099 13.0353 26.7969 13.2156L20.945 24.8102ZM28.2125 28.5023C28.2125 23.2269 31.6362 19.1027 37.0674 19.1027C37.4509 19.0946 37.8346 19.1098 38.2164 19.1481V13.1468C38.2163 13.1171 38.2219 13.0877 38.2329 13.0602C38.2439 13.0327 38.2602 13.0077 38.2807 12.9866C38.3012 12.9656 38.3256 12.9489 38.3525 12.9375C38.3794 12.9262 38.4082 12.9204 38.4372 12.9205H41.925C42.1007 12.9205 42.1451 12.9873 42.1451 13.1008V33.8946C42.1323 34.6362 42.1691 35.3779 42.2555 36.1143C42.2555 36.2512 42.2111 36.2946 42.0798 36.3641C40.3147 37.2278 38.3828 37.6766 36.4259 37.6776C31.6336 37.6976 28.2099 34.6646 28.2125 28.5023ZM38.2145 22.7041C37.8065 22.5429 37.3713 22.4659 36.9341 22.4777C34.1506 22.4777 32.2084 24.674 32.2084 28.3227C32.2084 32.491 34.197 34.1678 36.6924 34.1678C37.2113 34.1832 37.7283 34.0985 38.2164 33.918V22.7041H38.2145Z" fill="#FFD9F2"/>
</svg>
