<svg xmlns="http://www.w3.org/2000/svg" width="97.258" height="97.258" viewBox="0 0 97.258 97.258"><g transform="translate(-50.756 2.869)"><circle cx="39.887" cy="39.887" r="39.887" transform="translate(53.623 78.743) rotate(-80.783)" fill="#ae3fd5" stroke="#fff" stroke-width="5"/><g transform="translate(80.613 27.992)"><path d="M36.875,18.09a1.709,1.709,0,0,0-1.709,1.71A15.412,15.412,0,1,1,29.432,7.836H26.62a1.709,1.709,0,0,0,0,3.418h6.836a1.709,1.709,0,0,0,1.709-1.709V2.709a1.709,1.709,0,1,0-3.418,0V5.326A18.781,18.781,0,1,0,38.584,19.8a1.709,1.709,0,0,0-1.709-1.709Z" transform="translate(-1.021 -1)" fill="#fff"/><path d="M12.709,5A1.709,1.709,0,0,0,11,6.709V16.963a1.709,1.709,0,0,0,.5,1.208L16.628,23.3a1.709,1.709,0,0,0,2.417-2.417l-4.627-4.626V6.709A1.709,1.709,0,0,0,12.709,5Z" transform="translate(6.054 1.836)" fill="#fff"/></g></g></svg>