<svg xmlns="http://www.w3.org/2000/svg" width="97.258" height="97.258" viewBox="0 0 97.258 97.258"><g transform="translate(-50.756 2.869)"><circle cx="39.887" cy="39.887" r="39.887" transform="translate(53.623 78.743) rotate(-80.783)" fill="#654de2" stroke="#fff" stroke-width="5"/><g transform="translate(85.188 26.833)"><path d="M27.209,2.366H1.183A1.183,1.183,0,0,1,1.183,0H27.209a1.183,1.183,0,1,1,0,2.366Zm0,0" fill="#fff"/><path d="M27.209,482.366H1.183a1.183,1.183,0,1,1,0-2.366H27.209a1.183,1.183,0,0,1,0,2.366Zm0,0" transform="translate(0 -444.51)" fill="#fff"/><path d="M118.1,368.775a1.183,1.183,0,0,1-1.183-1.183v-2.637a1.99,1.99,0,0,0-.577-1.394l-3.366-3.365-3.366,3.366a1.984,1.984,0,0,0-.577,1.393v2.637a1.183,1.183,0,1,1-2.366,0v-2.637a4.3,4.3,0,0,1,1.271-3.066l4.2-4.2a1.184,1.184,0,0,1,1.674,0l4.2,4.2a4.307,4.307,0,0,1,1.271,3.066v2.637a1.186,1.186,0,0,1-1.181,1.183Zm0,0" transform="translate(-98.781 -330.919)" fill="#fff"/><path d="M112.977,94.8a1.174,1.174,0,0,1-.836-.347l-3.732-3.732a5.9,5.9,0,0,1-1.741-4.2,1.183,1.183,0,0,1,1.183-1.183H118.1a1.183,1.183,0,0,1,1.183,1.183,5.9,5.9,0,0,1-1.741,4.2l-3.732,3.732a1.174,1.174,0,0,1-.836.347Zm-3.74-7.1a3.612,3.612,0,0,0,.844,1.347l2.9,2.895,2.9-2.9a3.589,3.589,0,0,0,.844-1.347h-7.48Zm0,0" transform="translate(-98.781 -79.023)" fill="#fff"/><path d="M43.851,37.856a1.183,1.183,0,0,1-1.183-1.183V29.539a9.075,9.075,0,0,1,3-6.739l2.672-2.4a1.971,1.971,0,0,0,0-2.931l-2.67-2.406a9.081,9.081,0,0,1-3-6.741V1.183a1.183,1.183,0,1,1,2.366,0V8.317A6.711,6.711,0,0,0,47.253,13.3l2.67,2.4a4.339,4.339,0,0,1,0,6.448l-2.67,2.4a6.719,6.719,0,0,0-2.219,4.984v7.134a1.183,1.183,0,0,1-1.183,1.183Zm0,0" transform="translate(-39.513)" fill="#fff"/><path d="M231.293,37.856a1.183,1.183,0,0,1-1.183-1.183V29.539a6.711,6.711,0,0,0-2.219-4.981l-2.67-2.4a4.338,4.338,0,0,1,0-6.448l2.67-2.4a6.719,6.719,0,0,0,2.219-4.984V1.183a1.183,1.183,0,1,1,2.366,0V8.317a9.075,9.075,0,0,1-3,6.739l-2.672,2.4a1.971,1.971,0,0,0,0,2.931l2.67,2.4a9.088,9.088,0,0,1,3,6.743v7.134a1.183,1.183,0,0,1-1.183,1.183Zm0,0" transform="translate(-207.239)" fill="#fff"/></g></g></svg>