<svg xmlns="http://www.w3.org/2000/svg" width="97.258" height="97.258" viewBox="0 0 97.258 97.258"><g transform="translate(-50.756 2.869)"><circle cx="39.887" cy="39.887" r="39.887" transform="translate(53.623 78.743) rotate(-80.783)" fill="#0b76fc" stroke="#fff" stroke-width="5"/><path d="M19.222,33.667a1.629,1.629,0,1,0,3.258,0V25.4a4.832,4.832,0,0,0,0-9.1V8.037a1.629,1.629,0,0,0-3.258,0V16.3a4.832,4.832,0,0,0,0,9.1Zm1.629-14.389a1.575,1.575,0,1,1-1.575,1.575A1.575,1.575,0,0,1,20.851,19.278ZM14.145,2.76a1.629,1.629,0,0,1-.78,2.168,17.62,17.62,0,0,0-2.559,1.48A1.629,1.629,0,1,1,8.944,3.735,20.886,20.886,0,0,1,11.978,1.98a1.629,1.629,0,0,1,2.168.78Zm0,36.185a1.629,1.629,0,0,1-2.168.78A20.879,20.879,0,0,1,8.944,37.97a1.629,1.629,0,0,1,1.863-2.67,17.613,17.613,0,0,0,2.558,1.48,1.629,1.629,0,0,1,.78,2.165ZM6.407,30.9a1.629,1.629,0,1,1-2.673,1.863A20.9,20.9,0,0,1,1.979,29.73a1.629,1.629,0,1,1,2.948-1.388A17.613,17.613,0,0,0,6.407,30.9ZM1.7,24.1A1.629,1.629,0,0,1,.074,22.6a20.829,20.829,0,0,1,0-3.5,1.629,1.629,0,0,1,3.247.27,17.576,17.576,0,0,0,0,2.959A1.629,1.629,0,0,1,1.7,24.1Zm40-3.248A20.843,20.843,0,0,1,19.1,41.63a1.629,1.629,0,0,1,.27-3.247,17.593,17.593,0,1,0,0-35.062A1.629,1.629,0,1,1,19.1.075,20.841,20.841,0,0,1,41.7,20.852ZM1.979,11.978A20.889,20.889,0,0,1,3.734,8.945a1.629,1.629,0,1,1,2.673,1.863,17.629,17.629,0,0,0-1.48,2.559A1.629,1.629,0,1,1,1.98,11.979Z" transform="translate(78.532 24.908)" fill="#fff"/></g></svg>