<svg xmlns="http://www.w3.org/2000/svg" width="32" height="31.965" viewBox="0 0 32 31.965">
  <g id="Group_37993" data-name="Group 37993" transform="translate(0)">
    <path id="Path_105939" data-name="Path 105939" d="M34.612,28.762A1.339,1.339,0,1,0,35.951,30.1,1.34,1.34,0,0,0,34.612,28.762Zm0,1.765a.426.426,0,1,1,.426-.426A.427.427,0,0,1,34.612,30.527Zm0,0" transform="translate(-31.248 -27.011)"/>
    <path id="Path_105940" data-name="Path 105940" d="M90.6,28.762A1.339,1.339,0,1,0,91.935,30.1,1.34,1.34,0,0,0,90.6,28.762Zm0,1.765a.426.426,0,1,1,.426-.426A.427.427,0,0,1,90.6,30.527Zm0,0" transform="translate(-83.666 -27.011)"/>
    <path id="Path_105941" data-name="Path 105941" d="M146.584,28.762a1.339,1.339,0,1,0,1.339,1.339A1.34,1.34,0,0,0,146.584,28.762Zm0,1.765a.426.426,0,1,1,.426-.426A.427.427,0,0,1,146.584,30.527Zm0,0" transform="translate(-136.146 -27.011)"/>
    <path id="Path_105942" data-name="Path 105942" d="M29.938,0H2.061A2.064,2.064,0,0,0,0,2.061v22.66a2.059,2.059,0,0,0,2.061,2.061h9.113v1.68H9.76a1.713,1.713,0,0,0-1.711,1.711v1.012a.781.781,0,0,0,.781.781h7.888a.468.468,0,0,0,0-.937H8.986v-.855A.775.775,0,0,1,9.76,29.4H22.2a.775.775,0,0,1,.774.774v.855H19.621a.468.468,0,0,0,0,.937h3.513a.782.782,0,0,0,.781-.781V30.173A1.713,1.713,0,0,0,22.2,28.463H20.79v-1.68H29.9a2.059,2.059,0,0,0,2.061-2.061V22.477L32,2.061A2.063,2.063,0,0,0,29.938,0ZM19.853,28.463H12.11v-1.68h7.743Zm11.174-3.741a1.126,1.126,0,0,1-1.01,1.119c-.038,0-.076.006-.115.006H2.061c-.039,0-.077,0-.115-.006a1.126,1.126,0,0,1-1.01-1.119V22.945H31.027Zm0-2.713H.936V6.37H31.027Zm0-16.575H.971V2.061A1.126,1.126,0,0,1,2.1.937H29.9a1.126,1.126,0,0,1,1.125,1.125Zm0,0" transform="translate(0 0)"/>
    <path id="Path_105943" data-name="Path 105943" d="M33.874,122.717h1.213a.456.456,0,1,0,0-.912H33.874a.456.456,0,1,0,0,.912Zm0,0" transform="translate(-31.384 -114.186)"/>
    <path id="Path_105944" data-name="Path 105944" d="M79.12,122.717h7.4a.456.456,0,1,0,0-.912h-7.4a.456.456,0,1,0,0,.912Zm0,0" transform="translate(-73.701 -114.186)"/>
    <path id="Path_105945" data-name="Path 105945" d="M145.774,155.686a.456.456,0,0,0,0-.912h-3a.456.456,0,0,0,0,.912Zm0,0" transform="translate(-133.392 -145.093)"/>
    <path id="Path_105946" data-name="Path 105946" d="M103.3,155.23a.456.456,0,0,0-.456-.456h-1.031a.456.456,0,0,0,0,.912h1.031A.456.456,0,0,0,103.3,155.23Zm0,0" transform="translate(-95.01 -145.093)"/>
    <path id="Path_105947" data-name="Path 105947" d="M33.874,155.686H36.4a.456.456,0,1,0,0-.912H33.874a.456.456,0,0,0,0,.912Zm0,0" transform="translate(-31.384 -145.093)"/>
    <path id="Path_105948" data-name="Path 105948" d="M128.794,133.211h-.622v-3.942a.8.8,0,0,0-.8-.8h-3.237a.8.8,0,0,0-.8.8v4.4a.456.456,0,0,0,.456.456H144.1a.456.456,0,0,0,.456-.456v-6.831a.8.8,0,0,0-.8-.8h-3.237a.8.8,0,0,0-.8.8v6.375H139.1v-7.234a.456.456,0,1,0-.912,0v7.234h-3.015V121.717h3.015v1.462a.456.456,0,0,0,.912,0v-1.573a.8.8,0,0,0-.8-.8h-3.237a.8.8,0,0,0-.8.8v11.605h-.622v-8.017a.8.8,0,0,0-.8-.8H129.6a.8.8,0,0,0-.8.8v8.017Zm-1.534,0h-3.016V129.38h3.016Zm13.37-6.264h3.015v6.264H140.63Zm-10.924-1.642h3.015v7.906h-3.015Zm0,0" transform="translate(-114.992 -113.108)"/>
  </g>
</svg>
