<svg xmlns="http://www.w3.org/2000/svg" width="32.5" height="32.499" viewBox="0 0 32.5 32.499">
  <g id="Group_37839" data-name="Group 37839" transform="translate(0.25 -0.251)">
    <path id="Path_105630" data-name="Path 105630" d="M53.062,45.75h.006a.628.628,0,1,0-.006,0Zm0,0" transform="translate(-49.16 -41.249)" stroke="#fff" stroke-width="0.5"/>
    <path id="Path_105631" data-name="Path 105631" d="M98.563,45.75h.006a.628.628,0,1,0-.006,0Zm0,0" transform="translate(-91.817 -41.249)" stroke="#fff" stroke-width="0.5"/>
    <path id="Path_105632" data-name="Path 105632" d="M144.066,45.75h.006a.628.628,0,1,0-.006,0Zm0,0" transform="translate(-134.476 -41.249)" stroke="#fff" stroke-width="0.5"/>
    <path id="Path_105633" data-name="Path 105633" d="M222.371,45.75h8.7a.625.625,0,1,0,0-1.25h-8.7a.625.625,0,1,0,0,1.25Zm0,0" transform="translate(-207.886 -41.249)" stroke="#fff" stroke-width="0.5"/>
    <path id="Path_105634" data-name="Path 105634" d="M414.609,268.492a.626.626,0,1,0,.442.183A.629.629,0,0,0,414.609,268.492Zm0,0" transform="translate(-388.109 -251.242)" stroke="#fff" stroke-width="0.5"/>
    <path id="Path_105635" data-name="Path 105635" d="M193.6,176.492h-.778a.625.625,0,0,0-.625.625v4.5a.625.625,0,0,0,.625.625h.778a2.875,2.875,0,0,0,0-5.75Zm0,4.5h-.153v-3.25h.153a1.625,1.625,0,0,1,0,3.25Zm0,0" transform="translate(-180.18 -164.992)" stroke="#fff" stroke-width="0.5"/>
    <path id="Path_105636" data-name="Path 105636" d="M106.073,176.918a.625.625,0,0,0-1.185,0l-1.514,4.5a.625.625,0,1,0,1.185.4l.046-.137h1.751l.046.137a.625.625,0,1,0,1.185-.4Zm-1.048,3.512.455-1.353.455,1.353Zm0,0" transform="translate(-96.883 -164.992)" stroke="#fff" stroke-width="0.5"/>
    <path id="Path_105637" data-name="Path 105637" d="M31.818,27.2l-4.25-4.25,1.5-1.5a.625.625,0,0,0-.269-1.042L19.75,17.805V9.625A.625.625,0,0,0,19.125,9H3.625A.625.625,0,0,0,3,9.625v9.5a.625.625,0,0,0,.625.625H17.162l1.08,3.75H1.875a.626.626,0,0,1-.625-.625V7.251H25.875v8.125a.625.625,0,0,0,1.25,0v-13A1.877,1.877,0,0,0,25.25.5H1.875A1.877,1.877,0,0,0,0,2.376v20.5A1.877,1.877,0,0,0,1.875,24.75H18.6L19.911,29.3a.625.625,0,0,0,1.042.269l1.5-1.5,4.25,4.25a.625.625,0,0,0,.884,0l4.233-4.233a.625.625,0,0,0,0-.884ZM1.875,1.751H25.25a.626.626,0,0,1,.625.625V6H1.25V2.376A.626.626,0,0,1,1.875,1.751ZM4.25,18.5V10.25H18.5v7.195l-1.1-.316a.625.625,0,0,0-.774.774l.172.6ZM27.143,30.991l-4.249-4.25a.625.625,0,0,0-.884,0l-1.19,1.19-2.675-9.288,9.288,2.675-1.19,1.19a.625.625,0,0,0,0,.884l4.25,4.249Zm0,0" stroke="#fff" stroke-width="0.5"/>
    <path id="Path_105638" data-name="Path 105638" d="M54.323,329.738a.625.625,0,1,0,0-1.25H50.051a.625.625,0,1,0,0,1.25Zm0,0" transform="translate(-46.337 -307.488)" stroke="#fff" stroke-width="0.5"/>
    <path id="Path_105639" data-name="Path 105639" d="M158.332,329.556a.624.624,0,1,0-.442.183A.63.63,0,0,0,158.332,329.556Zm0,0" transform="translate(-147.436 -307.488)" stroke="#fff" stroke-width="0.5"/>
  </g>
</svg>
