<svg id="Group_37983" data-name="Group 37983" xmlns="http://www.w3.org/2000/svg" width="60" height="60" viewBox="0 0 60 60">
  <path id="Path_105858" data-name="Path 105858" d="M219.12,41.36a1.041,1.041,0,0,1-1.04-1.04H216a3.116,3.116,0,0,0,2.08,2.929V44.48h2.08V43.249a3.116,3.116,0,0,0,2.08-2.929c0-2.2-1.76-2.747-2.811-3.075-1.172-.365-1.349-.506-1.349-1.085a1.04,1.04,0,1,1,2.08,0h2.08a3.116,3.116,0,0,0-2.08-2.929V32h-2.08v1.231A3.116,3.116,0,0,0,216,36.16c0,2.2,1.759,2.744,2.809,3.071,1.174.366,1.351.508,1.351,1.089a1.041,1.041,0,0,1-1.04,1.04Zm0,0" transform="translate(-189.12 -27.84)"/>
  <path id="Path_105859" data-name="Path 105859" d="M92.64,48.881c11.381,0,20.64-9.8,20.64-21.84a21.865,21.865,0,0,0-11.172-19.4,9.685,9.685,0,0,0-18.935,0A21.865,21.865,0,0,0,72,27.041C72,39.084,81.259,48.881,92.64,48.881Zm1.966-2.191a17.428,17.428,0,0,1-3.931,0V41.6h3.931Zm4.914-1.3a17.76,17.76,0,0,1-2.949.958V40.561a1.012,1.012,0,0,0-.983-1.04h-5.9a1.012,1.012,0,0,0-.983,1.04v5.791a17.76,17.76,0,0,1-2.949-.958V24.961H99.52Zm1.966-.957V29.121h9.723A19.853,19.853,0,0,1,101.485,44.437ZM92.64,2.08A8.11,8.11,0,0,1,100.5,10.4a7.875,7.875,0,1,1-15.726,0A8.11,8.11,0,0,1,92.64,2.08Zm-9.821,8.164c0,.052-.008.1-.008.156,0,5.735,4.409,10.4,9.828,10.4s9.828-4.665,9.828-10.4c0-.053-.007-.1-.008-.156a19.876,19.876,0,0,1,8.853,16.8h-9.829v-3.12a1.012,1.012,0,0,0-.983-1.04H84.777a1.012,1.012,0,0,0-.983,1.04v3.12H73.966A19.875,19.875,0,0,1,82.819,10.245Zm.975,18.876V44.437a19.853,19.853,0,0,1-9.723-15.316Zm0,0" transform="translate(-62.64 0)"/>
  <path id="Path_105860" data-name="Path 105860" d="M264,208h2.08v2.08H264Zm0,0" transform="translate(-231.046 -182.036)"/>
  <path id="Path_105861" data-name="Path 105861" d="M232,208h2.08v2.08H232Zm0,0" transform="translate(-203.04 -182.036)"/>
  <path id="Path_105862" data-name="Path 105862" d="M200,208h2.08v2.08H200Zm0,0" transform="translate(-175.035 -182.036)"/>
  <path id="Path_105863" data-name="Path 105863" d="M264,240h2.08v2.08H264Zm0,0" transform="translate(-231.046 -210.041)"/>
  <path id="Path_105864" data-name="Path 105864" d="M232,240h2.08v2.08H232Zm0,0" transform="translate(-203.04 -210.041)"/>
  <path id="Path_105865" data-name="Path 105865" d="M200,240h2.08v2.08H200Zm0,0" transform="translate(-175.035 -210.041)"/>
  <path id="Path_105866" data-name="Path 105866" d="M264,272h2.08v2.08H264Zm0,0" transform="translate(-231.046 -238.047)"/>
  <path id="Path_105867" data-name="Path 105867" d="M232,272h2.08v2.08H232Zm0,0" transform="translate(-203.04 -238.047)"/>
  <path id="Path_105868" data-name="Path 105868" d="M200,272h2.08v2.08H200Zm0,0" transform="translate(-175.035 -238.047)"/>
  <path id="Path_105869" data-name="Path 105869" d="M136,240h2.08v2.08H136Zm0,0" transform="translate(-119.023 -210.041)"/>
  <path id="Path_105870" data-name="Path 105870" d="M104,240h2.08v2.08H104Zm0,0" transform="translate(-91.018 -210.041)"/>
  <path id="Path_105871" data-name="Path 105871" d="M136,272h2.08v2.08H136Zm0,0" transform="translate(-119.023 -238.047)"/>
  <path id="Path_105872" data-name="Path 105872" d="M328,240h2.08v2.08H328Zm0,0" transform="translate(-287.057 -210.041)"/>
  <path id="Path_105873" data-name="Path 105873" d="M360,240h2.08v2.08H360Zm0,0" transform="translate(-315.062 -210.041)"/>
  <path id="Path_105874" data-name="Path 105874" d="M328,272h2.08v2.08H328Zm0,0" transform="translate(-287.057 -238.047)"/>
  <path id="Path_105875" data-name="Path 105875" d="M1.04,361.691h10.4a1.04,1.04,0,0,0,1.04-1.04v-7.51a3.934,3.934,0,0,0-2.32-3.585,4.152,4.152,0,0,0-3.2-5.483,4.163,4.163,0,0,0-4.885,4.1,4.112,4.112,0,0,0,.241,1.384A3.937,3.937,0,0,0,0,353.141v7.51a1.04,1.04,0,0,0,1.04,1.04Zm1.04-8.55a1.852,1.852,0,0,1,1.849-1.85,1.04,1.04,0,0,0,.773-1.736,2.054,2.054,0,0,1-.542-1.384,2.08,2.08,0,0,1,4.111-.45,2.048,2.048,0,0,1-.494,1.835,1.039,1.039,0,0,0,.774,1.736,1.852,1.852,0,0,1,1.849,1.85v6.47H2.08Zm0,0" transform="translate(0 -301.691)"/>
  <path id="Path_105876" data-name="Path 105876" d="M256,393.133v2.311a1.04,1.04,0,0,0,1.04,1.04h10.4a1.04,1.04,0,0,0,1.04-1.04v-2.311a3.934,3.934,0,0,0-2.32-3.585,4.152,4.152,0,0,0-3.2-5.483,4.163,4.163,0,0,0-4.885,4.1,4.112,4.112,0,0,0,.241,1.384A3.935,3.935,0,0,0,256,393.133Zm2.08,0a1.851,1.851,0,0,1,1.849-1.849,1.04,1.04,0,0,0,.773-1.736,2.054,2.054,0,0,1-.542-1.384,2.08,2.08,0,0,1,4.111-.45,2.047,2.047,0,0,1-.494,1.835,1.039,1.039,0,0,0,.774,1.736,1.851,1.851,0,0,1,1.849,1.849V394.4h-8.32Zm0,0" transform="translate(-224.32 -336.484)"/>
  <path id="Path_105877" data-name="Path 105877" d="M128,393.133v2.311a1.04,1.04,0,0,0,1.04,1.04h10.4a1.04,1.04,0,0,0,1.04-1.04v-2.311a3.934,3.934,0,0,0-2.32-3.585,4.152,4.152,0,0,0-3.2-5.483,4.163,4.163,0,0,0-4.885,4.1,4.112,4.112,0,0,0,.241,1.384A3.935,3.935,0,0,0,128,393.133Zm2.08,0a1.851,1.851,0,0,1,1.849-1.849,1.04,1.04,0,0,0,.773-1.736,2.054,2.054,0,0,1-.542-1.384,2.08,2.08,0,0,1,4.111-.45,2.048,2.048,0,0,1-.494,1.835,1.039,1.039,0,0,0,.774,1.736,1.851,1.851,0,0,1,1.849,1.849V394.4h-8.32Zm0,0" transform="translate(-112.16 -336.484)"/>
  <path id="Path_105878" data-name="Path 105878" d="M386.321,349.548A3.935,3.935,0,0,0,384,353.133v7.511a1.04,1.04,0,0,0,1.04,1.04h10.4a1.04,1.04,0,0,0,1.04-1.04v-7.511a3.934,3.934,0,0,0-2.32-3.585,4.152,4.152,0,0,0-3.2-5.483,4.163,4.163,0,0,0-4.885,4.1,4.112,4.112,0,0,0,.241,1.384Zm1.608,1.736a1.04,1.04,0,0,0,.773-1.736,2.054,2.054,0,0,1-.542-1.384,2.08,2.08,0,0,1,4.111-.45,2.048,2.048,0,0,1-.494,1.835,1.039,1.039,0,0,0,.774,1.736,1.851,1.851,0,0,1,1.849,1.849V359.6h-8.32v-6.471a1.852,1.852,0,0,1,1.849-1.849Zm0,0" transform="translate(-336.48 -301.684)"/>
  <path id="Path_105879" data-name="Path 105879" d="M32,410.08h1.04v4.16h2.08v-4.16h1.04V408H32Zm0,0" transform="translate(-27.84 -357.36)"/>
  <path id="Path_105880" data-name="Path 105880" d="M417.04,414.24h2.08v-4.16h1.04V408H416v2.08h1.04Zm0,0" transform="translate(-364.32 -357.36)"/>
  <path id="Path_105881" data-name="Path 105881" d="M448,0h2.08V2.08H448Zm0,0" transform="translate(-392.16)"/>
  <path id="Path_105882" data-name="Path 105882" d="M448,32h2.08v2.08H448Zm0,0" transform="translate(-392.16 -27.84)"/>
  <path id="Path_105883" data-name="Path 105883" d="M464,16h2.08v2.08H464Zm0,0" transform="translate(-406.08 -13.92)"/>
  <path id="Path_105884" data-name="Path 105884" d="M432,16h2.08v2.08H432Zm0,0" transform="translate(-378.24 -13.92)"/>
  <path id="Path_105885" data-name="Path 105885" d="M16,0h2.08V2.08H16Zm0,0" transform="translate(-13.92)"/>
  <path id="Path_105886" data-name="Path 105886" d="M16,32h2.08v2.08H16Zm0,0" transform="translate(-13.92 -27.84)"/>
  <path id="Path_105887" data-name="Path 105887" d="M32,16h2.08v2.08H32Zm0,0" transform="translate(-27.84 -13.92)"/>
  <path id="Path_105888" data-name="Path 105888" d="M0,16H2.08v2.08H0Zm0,0" transform="translate(0 -13.92)"/>
</svg>
