<svg xmlns="http://www.w3.org/2000/svg" width="32.3" height="28.742" viewBox="0 0 32.3 28.742">
  <g id="Group_37955" data-name="Group 37955" transform="translate(0.15 1.15)">
    <path id="Path_105773" data-name="Path 105773" d="M3.114,58.281a3.112,3.112,0,0,0,3-3.949l1.994-1.151q.143.214.3.421a9.845,9.845,0,0,0,4.9,3.483.625.625,0,1,0,.374-1.193,8.51,8.51,0,1,1,5.06.012.625.625,0,1,0,.368,1.2,9.81,9.81,0,0,0,5.243-3.914l1.58.912a3.121,3.121,0,1,0,.629-1.081L24.982,52.1a9.767,9.767,0,0,0-8.126-14.073l0-1.828a3.114,3.114,0,1,0-1.251,0l0,1.829A9.767,9.767,0,0,0,7.48,52.1l-1.939,1.12a3.113,3.113,0,1,0-2.427,5.062Zm25.772-5.056a1.863,1.863,0,1,1-1.863,1.863A1.866,1.866,0,0,1,28.886,53.226ZM14.367,33.152a1.863,1.863,0,1,1,1.864,1.864A1.866,1.866,0,0,1,14.367,33.152ZM3.114,53.3a1.864,1.864,0,1,1-1.864,1.864A1.883,1.883,0,0,1,3.114,53.3Z" transform="translate(0 -31.038)" stroke="#fff" stroke-width="0.3"/>
    <path id="Path_105774" data-name="Path 105774" d="M177.838,232.457a.669.669,0,0,0,.375.6l4.8,2.348a.677.677,0,0,0,.588,0l4.8-2.348a.669.669,0,0,0,.375-.6v-5.444a.68.68,0,0,0-.379-.6l-4.8-2.31a.669.669,0,0,0-.58,0l-4.8,2.31a.68.68,0,0,0-.379.6v5.444Zm1.338-4.371,3.463,1.694v3.954l-3.463-1.694Zm4.8,5.648v-3.954l3.463-1.694v3.954Zm-.669-8.287,3.268,1.572-3.268,1.6-3.268-1.6Z" transform="translate(-167.084 -213.421)" stroke="#fff" stroke-width="0.3"/>
    <path id="Path_105775" data-name="Path 105775" d="M249.659,450.672a.669.669,0,1,0,.362-.873A.675.675,0,0,0,249.659,450.672Z" transform="translate(-234.045 -423.645)" stroke="#fff" stroke-width="0.3"/>
  </g>
</svg>
