<svg width="32" height="32" viewBox="0 0 32 32" fill="none" xmlns="http://www.w3.org/2000/svg">
<g clip-path="url(#clip0_23_791)">
<path d="M27.7913 23.825C30.112 23.825 32 21.9395 32 19.6219C32 17.3029 31.0957 15.1231 29.4537 13.4839C27.9728 12.0054 26.052 11.1264 23.9862 10.968V10.175C23.9862 9.64078 23.5517 9.20622 23.0175 9.20622H19.5843V8.35422H19.8396C20.2297 8.35422 20.5476 8.04159 20.5574 7.65371H29.8281C30.2244 7.65371 30.5468 7.33127 30.5468 6.93496V5.38745C30.5468 4.99114 30.2244 4.6687 29.8281 4.6687H20.5574C20.5475 4.28089 20.2297 3.96826 19.8396 3.96826H16.3695C15.9794 3.96826 15.6616 4.28089 15.6517 4.6687H6.38118C5.98486 4.6687 5.66242 4.99114 5.66242 5.38745V6.93496C5.66242 7.33127 5.98486 7.65371 6.38118 7.65371H15.6517C15.6615 8.04153 15.9794 8.35422 16.3695 8.35422H16.625V9.20622H13.1918C12.6576 9.20622 12.2231 9.64078 12.2231 10.175V11.0415C11.7678 11.1917 11.3739 11.5049 11.129 11.9317L10.0884 13.7447C10.0832 13.7537 10.073 13.7594 10.0618 13.7594H4.74273L3.4791 11.1359C3.33854 10.8464 3.0401 10.6594 2.71866 10.6594H0.84428C0.603841 10.6594 0.374215 10.7623 0.214152 10.9418C0.0540266 11.1214 -0.0219737 11.3614 0.00552639 11.6012L0.606716 16.7601C0.655966 17.1862 1.01653 17.5075 1.44547 17.5075H2.6236C2.88248 17.5075 3.09235 17.2976 3.09235 17.0387C3.09235 16.7799 2.88248 16.57 2.6236 16.57H1.52847L0.948905 11.5969H2.66054L3.92485 14.2217C4.06561 14.5104 4.36373 14.6969 4.68429 14.6969H10.0618C10.4089 14.6969 10.7312 14.51 10.9021 14.2102L11.9421 12.3983C12.1258 12.0782 12.4691 11.8794 12.8381 11.8794H20.2975C20.5564 11.8794 20.7662 11.6695 20.7662 11.4106C20.7662 11.1517 20.5564 10.9419 20.2975 10.9419H13.1606V10.175C13.1606 10.1577 13.1746 10.1437 13.1918 10.1437H23.0175C23.0347 10.1437 23.0487 10.1577 23.0487 10.175V10.9419H22.4849C22.226 10.9419 22.0162 11.1517 22.0162 11.4106C22.0162 11.6695 22.226 11.8794 22.4849 11.8794H23.3074C24.9924 11.8794 26.5955 12.4124 27.9235 13.3986H24.4606C23.8576 13.3986 23.3669 13.8893 23.3669 14.4924V20.0961C23.3669 20.6992 23.8576 21.1899 24.4606 21.1899H30.6598C30.1031 22.2008 29.0261 22.8876 27.7912 22.8876H13.3305C13.0508 22.8876 12.8016 22.71 12.7106 22.4455L10.969 17.3926C10.8006 16.9006 10.3375 16.5701 9.81675 16.5701H4.81111C4.55223 16.5701 4.34236 16.7799 4.34236 17.0388C4.34236 17.2977 4.55223 17.5076 4.81111 17.5076H9.81675C9.93682 17.5076 10.0434 17.5834 10.0824 17.6972L11.8242 22.7508C12.0454 23.3934 12.6508 23.8251 13.3306 23.8251H15.2231V25.274H11.8126C11.4163 25.274 11.0938 25.5965 11.0938 25.9928V27.313C11.0938 27.7093 11.4163 28.0317 11.8126 28.0317H29.8425C30.2388 28.0317 30.5612 27.7093 30.5612 27.313V25.9928C30.5612 25.5965 30.2388 25.274 29.8425 25.274H26.4319V23.8251H27.7913V23.825ZM29.6094 6.71621H20.5584V5.60621H29.6094V6.71621ZM6.59993 5.60621H15.6508V6.71621H6.59993V5.60621ZM16.5883 4.90583H19.6209V7.41671H16.5883V4.90583ZM17.5625 8.35422H18.6468V9.20622H17.5625V8.35422ZM24.4607 20.2524C24.3745 20.2524 24.3044 20.1823 24.3044 20.0961V14.4924C24.3044 14.4062 24.3745 14.3361 24.4607 14.3361H28.9735C30.3224 15.7747 31.0625 17.6413 31.0625 19.6219C31.0625 19.8376 31.0408 20.0483 31.0007 20.2523H24.4607V20.2524ZM17.9943 25.274V23.825H23.6606V25.274H17.9943ZM16.1607 23.825H17.0569V25.274H16.1607V23.825ZM29.6237 27.0942H12.0313V26.2115H29.6237V27.0942ZM25.4944 25.274H24.5981V23.825H25.4944V25.274Z" fill="black"/>
<path d="M15.11 19.5451H20.9932C21.3895 19.5451 21.7119 19.2226 21.7119 18.8263V14.1172C21.7119 13.7209 21.3895 13.3984 20.9932 13.3984H15.11C14.7137 13.3984 14.3913 13.7209 14.3913 14.1172V18.8263C14.3913 19.2227 14.7137 19.5451 15.11 19.5451V19.5451ZM15.3288 18.6076V17.8278H20.7744V18.6076H15.3288ZM20.7745 14.3359V16.8903H15.3289V14.3359H20.7745Z" fill="black"/>
<path d="M14.86 21.1919H16.254C16.513 21.1919 16.7228 20.982 16.7228 20.7231C16.7228 20.4643 16.513 20.2544 16.254 20.2544H14.86C14.6012 20.2544 14.3913 20.4643 14.3913 20.7231C14.3913 20.982 14.6012 21.1919 14.86 21.1919Z" fill="black"/>
</g>
<defs>
<clipPath id="clip0_23_791">
<rect width="32" height="32" fill="white"/>
</clipPath>
</defs>
</svg>
