<svg id="Group_38020" data-name="Group 38020" xmlns="http://www.w3.org/2000/svg" width="32" height="32" viewBox="0 0 32 32">
  <path id="Path_106014" data-name="Path 106014" d="M2.344,1.875a.469.469,0,1,0,.469.469A.469.469,0,0,0,2.344,1.875Zm3.75,0a.469.469,0,1,0,.469.469A.469.469,0,0,0,6.094,1.875Zm-1.875,0a.469.469,0,1,0,.469.469A.469.469,0,0,0,4.219,1.875Zm23.1,16.438H24.239a.782.782,0,0,0-.781.781v1.25a.782.782,0,0,0,.781.781h3.083a.782.782,0,0,0,.781-.781v-1.25A.782.782,0,0,0,27.322,18.312Zm-.156,1.875H24.4V19.25h2.77ZM24.377,7.422a1.786,1.786,0,0,0,.239.894l-5.291,5.291a1.79,1.79,0,0,0-1.789,0L13.5,9.575a1.8,1.8,0,1,0-3.115,0L6.72,13.249a1.8,1.8,0,1,0,.663.663l3.67-3.67a1.791,1.791,0,0,0,1.79,0l4.031,4.032a1.8,1.8,0,1,0,3.115,0L25.279,8.98a1.8,1.8,0,1,0-.9-1.557ZM5.826,15.666a.86.86,0,1,1,.86-.86A.861.861,0,0,1,5.826,15.666Zm6.12-6.124a.86.86,0,1,1,.86-.86A.861.861,0,0,1,11.946,9.542Zm6.486,6.482a.86.86,0,1,1,.86-.86A.861.861,0,0,1,18.431,16.025Zm8.6-8.6a.86.86,0,1,1-.86-.86A.861.861,0,0,1,27.034,7.422ZM29.656,0H2.344A2.346,2.346,0,0,0,0,2.344V23.906A2.346,2.346,0,0,0,2.344,26.25H12.1a3.4,3.4,0,0,1-.37,2.289l-1.026,1.833A1.1,1.1,0,0,0,11.66,32h8.68a1.106,1.106,0,0,0,.954-1.628l-1.026-1.833a3.4,3.4,0,0,1-.37-2.289h9.758A2.346,2.346,0,0,0,32,23.906V2.344A2.346,2.346,0,0,0,29.656,0ZM.938,2.344A1.408,1.408,0,0,1,2.344.937h9.682a1.584,1.584,0,0,0-.142.656v1.5a.657.657,0,0,1-.656.656H.938ZM20.477,30.83a.151.151,0,0,1-.136.233H11.66a.151.151,0,0,1-.136-.233L12.549,29a4.345,4.345,0,0,0,.5-2.747h5.9a4.345,4.345,0,0,0,.5,2.747ZM31.063,3.75H27.11a.469.469,0,0,0,0,.938h3.952V22.062H9.166a.469.469,0,0,0,0,.938h21.9v.906a1.408,1.408,0,0,1-1.406,1.406H2.344A1.408,1.408,0,0,1,.938,23.906V23H6.979a.469.469,0,0,0,0-.937H.938V4.687h10.29a1.6,1.6,0,0,0,1.594-1.594v-1.5a.657.657,0,0,1,.656-.656h5.046a.657.657,0,0,1,.656.656v1.5a1.6,1.6,0,0,0,1.594,1.594h4.15a.469.469,0,0,0,0-.938h-4.15a.657.657,0,0,1-.656-.656v-1.5a1.584,1.584,0,0,0-.142-.656h9.682a1.408,1.408,0,0,1,1.406,1.406ZM7.761,18.312H4.678a.782.782,0,0,0-.781.781v1.25a.782.782,0,0,0,.781.781H7.761a.782.782,0,0,0,.781-.781v-1.25A.782.782,0,0,0,7.761,18.312ZM7.6,20.187H4.834V19.25H7.6Zm6.677-1.875H11.2a.782.782,0,0,0-.781.781v1.25a.782.782,0,0,0,.781.781h3.083a.782.782,0,0,0,.781-.781v-1.25A.782.782,0,0,0,14.281,18.312Zm-.156,1.875h-2.77V19.25h2.77ZM20.8,18.312H17.719a.782.782,0,0,0-.781.781v1.25a.782.782,0,0,0,.781.781H20.8a.782.782,0,0,0,.781-.781v-1.25A.782.782,0,0,0,20.8,18.312Zm-.156,1.875h-2.77V19.25h2.77v.938Z" transform="translate(0 0)"/>
</svg>
