<svg id="Group_37663" data-name="Group 37663" xmlns="http://www.w3.org/2000/svg" xmlns:xlink="http://www.w3.org/1999/xlink" width="21.615" height="32" viewBox="0 0 21.615 32">
  <defs>
    <clipPath id="clip-path">
      <rect id="Rectangle_12540" data-name="Rectangle 12540" width="21.615" height="32"/>
    </clipPath>
  </defs>
  <g id="Group_37663-2" data-name="Group 37663" clip-path="url(#clip-path)">
    <path id="Path_105378" data-name="Path 105378" d="M26.777,0c.451.112.914.191,1.352.341a8.557,8.557,0,0,1,3.955,2.943,14.758,14.758,0,0,1,3.428,9.966,9.955,9.955,0,0,1-4.449,8.059l-.247.174c.255.1.469.193.689.269.844.295,1.691.583,2.535.876A4.156,4.156,0,0,1,36.956,26.7c0,1.531,0,3.062,0,4.594a1.1,1.1,0,0,1-.039.338.522.522,0,0,1-1.017-.1,2.609,2.609,0,0,1-.008-.312q0-2.234,0-4.469A3.093,3.093,0,0,0,33.7,23.639c-.911-.323-1.841-.6-2.737-.96a6.805,6.805,0,0,1-1.417-.828.518.518,0,0,1,.107-.949,9.174,9.174,0,0,0,4.765-9.384,14.5,14.5,0,0,0-3.333-7.774,7.522,7.522,0,0,0-3-2.285,5.256,5.256,0,0,0-5.446.927,12.4,12.4,0,0,0-3.673,5.046,14.182,14.182,0,0,0-.937,3.087c.363-.467.684-.936,1.06-1.354a9.044,9.044,0,0,1,5.827-2.956,9.568,9.568,0,0,1,6.873,1.678A10.266,10.266,0,0,1,33.052,9a.858.858,0,0,1,.22.548q.028,1.859.006,3.718A7.129,7.129,0,0,1,19.2,14.715c-.09-.4.052-.689.378-.763.306-.07.551.126.653.512a6.056,6.056,0,0,0,11.913-.525c.142-1.382.062-2.787.068-4.182a.52.52,0,0,0-.186-.3,7.938,7.938,0,0,0-4.606-2.171,8.589,8.589,0,0,0-6.059,1.305,7.69,7.69,0,0,0-3.375,5.294,2.614,2.614,0,0,0,.114,1.071,8.666,8.666,0,0,0,5.61,6.372,6.928,6.928,0,0,0,3.044.375c.093-.009.187-.016.281-.016a.531.531,0,1,1,.06,1.06,8.235,8.235,0,0,1-4.075-.538A9.72,9.72,0,0,1,16.971,14.8a12.776,12.776,0,0,1,.912-7.513,13.949,13.949,0,0,1,3.467-5.206,7.366,7.366,0,0,1,4.1-2.035A.26.26,0,0,0,25.527,0Z" transform="translate(-15.343)"/>
    <path id="Path_105379" data-name="Path 105379" d="M.047,271.075a27.04,27.04,0,0,1,.018-2.808,3.9,3.9,0,0,1,2.512-3.31c.61-.263,1.252-.451,1.882-.662a.53.53,0,1,1,.36,1c-.507.188-1.021.356-1.532.531a3.1,3.1,0,0,0-2.216,3.091c0,1.479,0,2.958,0,4.437,0,.094,0,.188,0,.281a.53.53,0,0,1-.509.56.536.536,0,0,1-.551-.555c-.013-.416,0-.833,0-1.25q0-.656,0-1.312H.047" transform="translate(0 -242.193)"/>
    <path id="Path_105380" data-name="Path 105380" d="M106.922,118.131a1.973,1.973,0,0,1-.629,1.51,7.021,7.021,0,0,1-.591.509,1.128,1.128,0,0,0-.5.921.534.534,0,1,1-1.065-.01,1.964,1.964,0,0,1,.661-1.527c.215-.2.446-.375.664-.568a1.166,1.166,0,0,0,.264-1.447,1.21,1.21,0,0,0-1.308-.578,1.094,1.094,0,0,0-.939,1.051,1.687,1.687,0,0,1-.013.187.524.524,0,0,1-.582.446.511.511,0,0,1-.471-.526,2.222,2.222,0,0,1,2.659-2.209,2.161,2.161,0,0,1,1.851,2.241" transform="translate(-93.858 -106.176)"/>
    <path id="Path_105381" data-name="Path 105381" d="M139.978,286.538a.472.472,0,0,1,.453.42,5.21,5.21,0,0,0,.924,2.222.526.526,0,0,1-.851.616,5.463,5.463,0,0,1-1.115-2.7.525.525,0,0,1,.589-.555" transform="translate(-127.746 -262.612)"/>
    <path id="Path_105382" data-name="Path 105382" d="M97.6,287.085a5.509,5.509,0,0,1-1.153,2.733.523.523,0,0,1-.825-.638,5.318,5.318,0,0,0,.935-2.252.492.492,0,0,1,.58-.4.535.535,0,0,1,.463.557" transform="translate(-87.555 -262.598)"/>
    <path id="Path_105383" data-name="Path 105383" d="M123.639,196.655a.524.524,0,0,1-.518-.545.529.529,0,0,1,1.057.02.529.529,0,0,1-.54.525" transform="translate(-112.84 -179.261)"/>
  </g>
</svg>
