<svg xmlns="http://www.w3.org/2000/svg" xmlns:xlink="http://www.w3.org/1999/xlink" width="32" height="32" viewBox="0 0 32 32">
  <defs>
    <clipPath id="clip-path">
      <rect id="Rectangle_12587" data-name="Rectangle 12587" width="27.065" height="28"/>
    </clipPath>
  </defs>
  <g id="Group_37673" data-name="Group 37673" transform="translate(10187 1859)">
    <g id="Rectangle_12544" data-name="Rectangle 12544" transform="translate(-10187 -1859)" stroke="#707070" stroke-width="1" opacity="0">
      <rect width="32" height="32" stroke="none"/>
      <rect x="0.5" y="0.5" width="31" height="31" fill="none"/>
    </g>
    <g id="Group_37703" data-name="Group 37703" transform="translate(-10185 -1857)">
      <g id="Group_37703-2" data-name="Group 37703" clip-path="url(#clip-path)">
        <path id="Path_105533" data-name="Path 105533" d="M15.238,0a4.755,4.755,0,0,1,.72.31A1.808,1.808,0,0,1,16.811,1.9c.009.564,0,1.129.008,1.694a.317.317,0,0,0,.135.241,1.853,1.853,0,0,1,1.131,2.422.409.409,0,0,0-.009.075,11.872,11.872,0,0,1,1.095.6,5.019,5.019,0,0,1,2.3,4.293c.018,1.612,0,3.223,0,4.835v.313c.111.046.22.085.324.137a1.85,1.85,0,0,1,1.079,1.7c.014.428.007.856,0,1.284-.005.393-.179.56-.577.561-.984,0-1.967.006-2.951,0-.19,0-.254.052-.308.239a2.742,2.742,0,0,1-2.059,2.015,1.065,1.065,0,0,0-.1.032.428.428,0,0,0-.065.044v2.06c0,.528,0,1.056,0,1.584a1.871,1.871,0,0,1-1.962,1.956q-4.741,0-9.481,0c-1.038,0-2.079-.048-3.114.012A2.033,2.033,0,0,1,0,25.732C.039,19.04.017,12.347.017,5.654c0-1.12.03-2.241-.009-3.36A2.016,2.016,0,0,1,1.572,0ZM13.573,20.056h-.311c-.966,0-1.931,0-2.9,0-.3,0-.526-.13-.529-.364a11.972,11.972,0,0,1,.049-1.932,1.746,1.746,0,0,1,1.322-1.38v-.325c0-1.585-.014-3.169,0-4.754A5.071,5.071,0,0,1,13.817,6.74c.254-.152.533-.263.8-.392a1.879,1.879,0,0,1,1.135-2.52.269.269,0,0,0,.124-.2c.01-.583.017-1.166,0-1.748a.929.929,0,0,0-.983-.949c-.464,0-.93-.013-1.393.007a.607.607,0,0,0-.368.163c-.356.352-.69.726-1.035,1.089a1.863,1.863,0,0,1-1.413.6q-2.268,0-4.536,0a1.893,1.893,0,0,1-1.435-.619c-.276-.291-.57-.567-.817-.881a.894.894,0,0,0-.866-.37c-.316.03-.637.006-.956.006C1.295.932.952,1.269.952,2.04q0,10.778,0,21.557c0,.055,0,.109,0,.164a.91.91,0,0,0,.971.951q6.49,0,12.98,0a.92.92,0,0,0,.972-.955c.012-.41.011-.82-.005-1.229a.293.293,0,0,0-.168-.215,2.85,2.85,0,0,1-2.132-2.257m6.947-3.743a.781.781,0,0,0,.019-.116c0-1.748.037-3.5-.013-5.245a4.195,4.195,0,0,0-8.383.289c-.012,1.6,0,3.206,0,4.808,0,.087.011.174.017.264ZM.952,25.39c0,.209,0,.369,0,.53,0,.8.335,1.132,1.126,1.132H14.65c.109,0,.219.006.328,0a.847.847,0,0,0,.825-.607A5.024,5.024,0,0,0,15.9,25.5c-.481.051-.909.135-1.336.136-4.054.01-8.108.005-12.162.007A2.625,2.625,0,0,1,.952,25.39m20.991-6.276c0-.259,0-.494,0-.729,0-.79-.338-1.125-1.133-1.125H11.88c-.091,0-.182,0-.273,0a.867.867,0,0,0-.828.708,9.4,9.4,0,0,0-.01,1.142ZM4.836.941c.171.184.315.321.438.474A1.2,1.2,0,0,0,6.3,1.868c1.375-.016,2.753-.045,4.126.01.758.03,1.113-.433,1.539-.937ZM14.57,20.065a1.818,1.818,0,0,0,1.844,1.384A1.764,1.764,0,0,0,18.1,20.065Zm2.7-14.4a.934.934,0,0,0-.565-.921.894.894,0,0,0-.988.17.919.919,0,0,0-.252,1,.262.262,0,0,0,.318.206,8.212,8.212,0,0,1,1.112,0c.176.011.281-.019.321-.194.024-.105.046-.211.055-.253" transform="translate(0)"/>
        <path id="Path_105534" data-name="Path 105534" d="M281.962,288.311a6.55,6.55,0,0,1-6.4,6.206.527.527,0,0,1-.536-.248.465.465,0,0,1,.462-.683,5.391,5.391,0,0,0,2.42-.586,5.5,5.5,0,0,0,3.113-4.825c0-.045,0-.091.005-.136.027-.327.211-.523.484-.516s.447.212.448.542c0,.082,0,.164,0,.246" transform="translate(-254.897 -266.534)"/>
        <path id="Path_105535" data-name="Path 105535" d="M280.164,288.232a4.683,4.683,0,0,1-4.533,4.418c-.362.005-.582-.168-.585-.462s.195-.453.549-.469a3.724,3.724,0,0,0,3.637-3.634c.017-.36.205-.575.492-.563s.446.224.439.6c0,.036,0,.073,0,.109" transform="translate(-254.968 -266.532)"/>
        <path id="Path_105536" data-name="Path 105536" d="M278.31,288.106a2.809,2.809,0,0,1-2.723,2.675.472.472,0,0,1-.527-.437.459.459,0,0,1,.468-.492,1.857,1.857,0,0,0,1.856-1.869.476.476,0,0,1,.5-.465c.282.021.433.23.424.588" transform="translate(-254.979 -266.528)"/>
        <path id="Path_105537" data-name="Path 105537" d="M51.245,115.07c.028,0,.119,0,.21,0a.462.462,0,0,1,.038.923c-.253.029-.51.021-.761.059a5.581,5.581,0,0,0-4.856,5.356c-.024.453-.18.66-.486.648s-.468-.254-.446-.71a6.541,6.541,0,0,1,5.829-6.247c.135-.017.273-.017.473-.029" transform="translate(-41.661 -106.669)"/>
        <path id="Path_105538" data-name="Path 105538" d="M75.051,140.632c.055,0,.109,0,.164,0a.452.452,0,0,1,.505.451c0,.272-.181.444-.486.482a6.625,6.625,0,0,0-1.072.169,3.685,3.685,0,0,0-2.615,3.26c-.008.109-.011.218-.025.326a.46.46,0,0,1-.473.433.442.442,0,0,1-.444-.46,6.191,6.191,0,0,1,.138-1.133,4.651,4.651,0,0,1,4.308-3.528" transform="translate(-65.45 -130.366)"/>
        <path id="Path_105539" data-name="Path 105539" d="M96.107,168.829a2.783,2.783,0,0,1,2.695-2.637c.337,0,.535.153.55.433s-.177.476-.522.5a1.842,1.842,0,0,0-1.79,1.752c-.018.229-.064.439-.3.537a.475.475,0,0,1-.632-.582" transform="translate(-89.082 -154.06)"/>
      </g>
    </g>
  </g>
</svg>
