<svg xmlns="http://www.w3.org/2000/svg" width="32" height="32.002" viewBox="0 0 32 32.002">
  <g id="Group_37960" data-name="Group 37960" transform="translate(-0.017)">
    <g id="Group_37960-2" data-name="Group 37960" transform="translate(0.017)">
      <path id="Path_105809" data-name="Path 105809" d="M213.772,462.546a.48.48,0,0,0,0,.959h4.312a.48.48,0,0,0,0-.959Z" transform="translate(-200.024 -433.706)"/>
      <path id="Path_105810" data-name="Path 105810" d="M77.374,268.659a1.424,1.424,0,1,0,1.424,1.424A1.425,1.425,0,0,0,77.374,268.659Zm0,1.888a.464.464,0,1,1,.464-.464A.465.465,0,0,1,77.374,270.547Z" transform="translate(-71.094 -251.903)"/>
      <path id="Path_105811" data-name="Path 105811" d="M132.838,270.083a1.424,1.424,0,1,0-1.424,1.424A1.425,1.425,0,0,0,132.838,270.083Zm-1.888,0a.464.464,0,1,1,.464.464A.465.465,0,0,1,130.95,270.083Z" transform="translate(-121.892 -251.904)"/>
      <path id="Path_105812" data-name="Path 105812" d="M185.241,271.614a1.424,1.424,0,1,0-1.424-1.424A1.425,1.425,0,0,0,185.241,271.614Zm0-1.888a.464.464,0,1,1-.464.464A.465.465,0,0,1,185.241,269.726Z" transform="translate(-172.354 -252.011)"/>
      <path id="Path_105813" data-name="Path 105813" d="M58.217,5.221H56.31V2.4A2.4,2.4,0,0,0,53.92,0H39.813a2.4,2.4,0,0,0-2.39,2.4V5.69a.467.467,0,0,0,.934,0V3.842H55.376V5.221H47.829A2.466,2.466,0,0,0,45.37,7.689V12.43a7.451,7.451,0,0,0-7.013-1.512V8.126a.467.467,0,0,0-.934,0v3.145a7.49,7.49,0,0,0,0,13.594V29.6a2.4,2.4,0,0,0,2.39,2.4H51.32a.469.469,0,0,0,0-.938H39.813A1.46,1.46,0,0,1,38.357,29.6V27.772H55.376V29.6a1.469,1.469,0,0,1-1.565,1.461.469.469,0,0,0,0,.938h.109a2.4,2.4,0,0,0,2.39-2.4V18.34h1.907a2.466,2.466,0,0,0,2.459-2.468V7.689A2.466,2.466,0,0,0,58.217,5.221ZM38.357,2.9V2.4A1.46,1.46,0,0,1,39.813.938H53.92A1.46,1.46,0,0,1,55.376,2.4V2.9ZM33.991,18.067A6.516,6.516,0,0,1,45.37,13.748v2.124A2.472,2.472,0,0,0,47,18.194a6.556,6.556,0,0,1-2.1,4.677.47.47,0,0,0-.151.345v1.137l-1.013-.43a.466.466,0,0,0-.387.011,6.531,6.531,0,0,1-9.355-5.867Zm21.385,8.767H38.357V25.217a7.444,7.444,0,0,0,5.2-.348l1.47.623a.467.467,0,0,0,.649-.432V23.418a7.5,7.5,0,0,0,2.248-5.078h1.147v1.38a.47.47,0,0,0,.776.352l1.955-1.732h3.57Zm4.366-10.963a1.529,1.529,0,0,1-1.525,1.53H51.629a.466.466,0,0,0-.309.117l-1.312,1.162v-.81a.468.468,0,0,0-.467-.469H47.829a1.529,1.529,0,0,1-1.525-1.53V13.593q0-.018,0-.037V7.689a1.529,1.529,0,0,1,1.525-1.53H58.217a1.529,1.529,0,0,1,1.525,1.53v8.183Z" transform="translate(-30.965)"/>
      <path id="Path_105814" data-name="Path 105814" d="M392.487,141.735a1.679,1.679,0,0,0-1.935-.187v-1.476a.48.48,0,0,0-.959,0v5.194a.48.48,0,0,0,.959,0v-1.783c0-.7.341-1.2.83-1.2.651,0,.663.692.66,1.2l.007,1.783a.48.48,0,0,0,.959,0L393,143.485A2.353,2.353,0,0,0,392.487,141.735Z" transform="translate(-365.418 -130.917)"/>
      <path id="Path_105815" data-name="Path 105815" d="M322.146,142.3h-.2c.008-1.307.013-2.75,0-2.942a.859.859,0,0,0-.565-.777.8.8,0,0,0-.886.33c-.3.373-1.81,3.094-2.109,3.636a.486.486,0,0,0,.42.711h2.178c0,.385-.006.756-.009,1.087a.48.48,0,1,0,.959.008c0-.2.005-.6.009-1.095h.2A.48.48,0,0,0,322.146,142.3Zm-1.157,0h-1.37c.538-.964,1.07-1.9,1.377-2.406C321,140.428,320.994,141.348,320.989,142.3Z" transform="translate(-298.499 -129.937)"/>
      <path id="Path_105816" data-name="Path 105816" d="M267.019,142.464c-.637.008-1.318.013-1.829.012.3-.4.754-1.01,1.411-1.948a3.074,3.074,0,0,0,.679-1.636,1.842,1.842,0,0,0-3.648-.356.48.48,0,0,0,.941.185.883.883,0,0,1,1.747.144,2.691,2.691,0,0,1-.5,1.113c-.844,1.206-1.348,1.866-1.619,2.221-.325.426-.447.585-.363.859a.555.555,0,0,0,.329.365s2.042.01,2.869,0A.48.48,0,0,0,267.019,142.464Z" transform="translate(-247.197 -128.541)"/>
      <path id="Path_105817" data-name="Path 105817" d="M29.39,153.248a.48.48,0,0,0,.822-.494l-.7-1.173a.48.48,0,0,0-.822.494Z" transform="translate(-26.785 -141.907)"/>
      <path id="Path_105818" data-name="Path 105818" d="M1.9,181.275l-1.146-.731a.48.48,0,0,0-.516.809l1.146.731C1.885,182.4,2.433,181.616,1.9,181.275Z" transform="translate(-0.017 -169.199)"/>
      <path id="Path_105819" data-name="Path 105819" d="M456.8,311.323a.48.48,0,0,0-.939.2l.281,1.34a.48.48,0,0,0,.939-.2Z" transform="translate(-427.44 -291.552)"/>
      <path id="Path_105820" data-name="Path 105820" d="M485.421,298.126l-.844-1.069a.48.48,0,0,0-.753.594l.844,1.069A.48.48,0,0,0,485.421,298.126Z" transform="translate(-453.526 -278.349)"/>
    </g>
  </g>
</svg>
