<svg width="32" height="32" viewBox="0 0 32 32" fill="none" xmlns="http://www.w3.org/2000/svg">
<path d="M27.3137 4.68631C24.2917 1.66425 20.2737 0 16 0C11.7263 0 7.70831 1.66425 4.68631 4.68631C1.66425 7.70831 0 11.7263 0 16C0 20.1642 1.59137 24.1079 4.48106 27.1046C4.66431 27.2946 4.96694 27.3002 5.15706 27.1169C5.34713 26.9336 5.35262 26.6309 5.16931 26.4409C2.45244 23.6234 0.956187 19.9153 0.956187 16C0.956187 11.9816 2.521 8.20381 5.36244 5.36244C8.20381 2.521 11.9816 0.956187 16 0.956187C20.0184 0.956187 23.7962 2.521 26.6376 5.36244C29.479 8.20381 31.0438 11.9816 31.0438 16C31.0438 20.0184 29.479 23.7961 26.6376 26.6376C23.7962 29.4789 20.0184 31.0438 16 31.0438C13.2449 31.0438 10.5506 30.2925 8.20794 28.8712C7.84931 28.6536 7.49506 28.4177 7.155 28.1702C6.94163 28.0149 6.6425 28.0619 6.48712 28.2754C6.33175 28.4888 6.37881 28.7879 6.59225 28.9433C6.95381 29.2064 7.33056 29.4573 7.71194 29.6886C10.2041 31.2008 13.0701 32 16 32C20.2737 32 24.2917 30.3358 27.3137 27.3137C30.3358 24.2917 32 20.2737 32 16C32 11.7263 30.3358 7.70831 27.3137 4.68631Z" fill="black"/>
<path d="M18.8943 3.19594C16.8756 2.76263 14.7753 2.80663 12.7761 3.32757C12.5206 3.39419 12.3674 3.65525 12.434 3.91075C12.5006 4.16632 12.7615 4.31932 13.0172 4.25288C13.6059 4.09944 14.2074 3.99163 14.8152 3.92744L11.4781 9.41888H5.84962C7.05406 7.57638 8.72662 6.09038 10.6986 5.11707C10.9354 5.00013 11.0326 4.71338 10.9157 4.47669C10.7988 4.23994 10.5123 4.14275 10.2754 4.25957C8.17162 5.29794 6.36231 6.89819 5.07225 8.8575C3.66162 10.9998 2.90118 13.5438 2.90118 16.1177C2.90118 17.6809 3.17862 19.2414 3.72306 20.707C3.85531 21.0631 4.0355 21.4019 4.16612 21.757C4.295 22.1073 4.44318 22.3463 4.63831 22.6604C4.9705 23.1951 5.29725 23.723 5.68462 24.2209C7.24162 26.2224 9.37106 27.7601 11.7653 28.5976C13.1615 29.086 14.6385 29.3339 16.1174 29.3339C23.4049 29.3339 29.3337 23.4051 29.3337 16.1177C29.3337 9.97257 24.9051 4.48613 18.8943 3.19594ZM26.8899 10.4293C26.9038 10.454 26.9147 10.4928 26.888 10.5368L24.0955 15.1258L21.2085 10.375H26.7971C26.8486 10.3749 26.8759 10.4044 26.8899 10.4293ZM26.3805 9.41875H20.6274L17.2817 3.91313C21.0862 4.27325 24.3896 6.379 26.3805 9.41875ZM15.9618 3.88169C15.9673 3.87269 15.9735 3.86594 15.9799 3.85969C16.0257 3.85919 16.0716 3.8575 16.1174 3.8575C16.1196 3.8575 16.1218 3.85757 16.124 3.85757C16.1311 3.86413 16.1378 3.87182 16.1437 3.88163L19.5086 9.41875H12.597L15.9618 3.88169ZM12.0159 10.375H20.0897L23.5357 16.0458L20.0459 21.8106H12.0779L8.56987 16.0458L12.0159 10.375ZM5.28118 10.3789C5.28962 10.3768 5.29831 10.3749 5.30862 10.3749H10.8971L8.01006 15.1257L5.21762 10.5368C5.21337 10.5298 5.2115 10.5231 5.209 10.5164C5.23268 10.4704 5.25687 10.4246 5.28118 10.3789ZM3.85737 16.1176C3.85737 14.5488 4.15525 13.0089 4.7285 11.5724L7.45081 16.046L4.69718 20.5773C4.15531 19.1944 3.85737 17.6902 3.85737 16.1176ZM5.26206 21.8105C5.23168 21.7529 5.20156 21.6951 5.17212 21.637L8.01062 16.966L10.9586 21.8105H5.26206ZM5.82168 22.7667H11.5404L14.9192 28.3191C11.1082 27.9477 7.80312 25.8243 5.82168 22.7667ZM17.1791 28.3313L19.6052 24.3443C19.7425 24.1187 19.6709 23.8246 19.4453 23.6873C19.2198 23.5502 18.9257 23.6217 18.7884 23.8473L16.1437 28.1933C16.1181 28.2355 16.0801 28.2444 16.0528 28.2444C16.0256 28.2444 15.9876 28.2356 15.9619 28.1933L12.6598 22.7667H26.4134C24.4082 25.8608 21.0476 27.9979 17.1791 28.3313ZM26.9424 21.7563C26.9286 21.781 26.9011 21.8106 26.8497 21.8106H21.147L24.095 16.9661L26.9406 21.6489C26.9673 21.6928 26.9564 21.7315 26.9424 21.7563ZM24.6547 16.0461L27.4527 11.4481C28.0482 12.8882 28.3776 14.4651 28.3776 16.1177C28.3776 17.7391 28.0605 19.2876 27.4862 20.7055L24.6547 16.0461Z" fill="black"/>
<path d="M20.3783 15.2369L16.7632 11.6217C16.3423 11.201 15.6577 11.201 15.2369 11.6217L11.6217 15.2369C11.201 15.6577 11.201 16.3424 11.6217 16.7632L15.2369 20.3784C15.4473 20.5887 15.7237 20.6939 16 20.6939C16.2763 20.6939 16.5528 20.5887 16.7632 20.3784L20.3783 16.7632C20.7991 16.3424 20.7991 15.6577 20.3783 15.2369ZM19.7022 16.087L16.087 19.7022C16.039 19.7503 15.961 19.7503 15.913 19.7022L12.2978 16.087C12.2498 16.0391 12.2498 15.961 12.2978 15.913L15.913 12.2979C15.937 12.2738 15.9685 12.2619 16 12.2619C16.0315 12.2619 16.063 12.2738 16.087 12.2979L19.7022 15.913C19.7502 15.961 19.7502 16.0391 19.7022 16.087Z" fill="black"/>
<path d="M16 14.3042C15.0651 14.3042 14.3044 15.0648 14.3044 15.9998C14.3044 16.9348 15.0651 17.6954 16 17.6954C16.9349 17.6954 17.6956 16.9348 17.6956 15.9998C17.6956 15.0648 16.9349 14.3042 16 14.3042ZM16 16.7393C15.5923 16.7393 15.2606 16.4076 15.2606 15.9998C15.2606 15.5921 15.5923 15.2603 16 15.2603C16.4078 15.2603 16.7394 15.5921 16.7394 15.9998C16.7394 16.4076 16.4078 16.7393 16 16.7393Z" fill="black"/>
</svg>
