<svg width="32" height="32" viewBox="0 0 32 32" fill="none" xmlns="http://www.w3.org/2000/svg">
<path d="M24.8981 3.85241H22.1447C21.9042 3.45485 21.4674 3.18491 20.9718 3.18491H19.3423L18.2086 1.48185C17.1632 -0.0985261 14.8417 -0.103401 13.7914 1.48185L12.6576 3.18491H11.0282C10.5325 3.18491 10.0957 3.45485 9.85519 3.85241H7.10181C6.238 3.85241 5.53125 4.55422 5.53125 5.42297V30.1347C5.53125 30.9985 6.238 31.7052 7.10181 31.7052H24.8981C25.7619 31.7052 26.4687 30.9985 26.4687 30.1347V5.42297C26.4687 4.55429 25.7619 3.85241 24.8981 3.85241V3.85241ZM14.6061 2.02172C15.2687 1.03035 16.7312 1.02541 17.3938 2.02172L18.1643 3.18491H13.8356L14.6061 2.02172ZM25.4871 30.1347C25.4871 30.4586 25.222 30.7236 24.8981 30.7236H7.10175C6.77781 30.7236 6.51281 30.4585 6.51281 30.1347V5.42297C6.51281 5.09904 6.77787 4.83404 7.10175 4.83404H9.649V5.13341C9.649 6.43891 10.7091 7.49904 12.0146 7.49904H19.9852C21.2908 7.49904 22.3508 6.43891 22.3508 5.13341V4.83404H24.8981C25.222 4.83404 25.487 5.09904 25.487 5.42297V30.1347H25.4871Z" fill="black"/>
<path d="M13.0207 14.1248C13.0207 14.3113 12.9127 14.4831 12.7409 14.5665C11.3961 15.2095 10.0366 15.2095 8.69674 14.5665C8.52499 14.4831 8.41699 14.3113 8.41699 14.1248C8.41699 12.8536 9.44768 11.823 10.7188 11.823C11.9851 11.823 13.0207 12.8537 13.0207 14.1248Z" fill="black"/>
<path d="M11.9507 10.169C11.9507 10.9052 11.3961 11.4991 10.7188 11.4991C10.0366 11.4991 9.48682 10.9052 9.48682 10.169C9.48682 9.43768 10.0365 8.83893 10.7188 8.83893C11.3961 8.83893 11.9507 9.43774 11.9507 10.169V10.169Z" fill="black"/>
<path d="M23.092 10.3833H14.2706C13.9993 10.3833 13.7798 10.6031 13.7798 10.8741C13.7798 11.1452 13.9993 11.3649 14.2706 11.3649H23.092C23.3633 11.3649 23.5828 11.1452 23.5828 10.8741C23.5828 10.6031 23.3633 10.3833 23.092 10.3833Z" fill="black"/>
<path d="M14.2706 13.5073H19.4667C19.7379 13.5073 19.9575 13.2876 19.9575 13.0165C19.9575 12.7454 19.738 12.5257 19.4667 12.5257H14.2706C13.9993 12.5257 13.7798 12.7454 13.7798 13.0165C13.7798 13.2876 13.9993 13.5073 14.2706 13.5073V13.5073Z" fill="black"/>
<path d="M13.0207 21.158C13.0207 21.3445 12.9127 21.5162 12.7409 21.5996C11.3961 22.2426 10.0366 22.2426 8.69674 21.5996C8.52499 21.5162 8.41699 21.3445 8.41699 21.158C8.41699 19.8868 9.44768 18.8561 10.7188 18.8561C11.9851 18.8561 13.0207 19.8868 13.0207 21.158Z" fill="black"/>
<path d="M11.9507 17.2021C11.9507 17.9383 11.3961 18.5321 10.7188 18.5321C10.0366 18.5321 9.48682 17.9383 9.48682 17.2021C9.48682 16.4708 10.0365 15.872 10.7188 15.872C11.3961 15.872 11.9507 16.4708 11.9507 17.2021V17.2021Z" fill="black"/>
<path d="M23.092 17.4165H14.2706C13.9993 17.4165 13.7798 17.6363 13.7798 17.9073C13.7798 18.1784 13.9993 18.3981 14.2706 18.3981H23.092C23.3633 18.3981 23.5828 18.1784 23.5828 17.9073C23.5828 17.6363 23.3633 17.4165 23.092 17.4165Z" fill="black"/>
<path d="M14.2706 20.5403H19.4667C19.7379 20.5403 19.9575 20.3205 19.9575 20.0495C19.9575 19.7784 19.738 19.5587 19.4667 19.5587H14.2706C13.9993 19.5587 13.7798 19.7784 13.7798 20.0495C13.7798 20.3205 13.9993 20.5403 14.2706 20.5403V20.5403Z" fill="black"/>
<path d="M13.0207 28.1911C13.0207 28.3776 12.9127 28.5494 12.7409 28.6328C11.3961 29.2807 10.0366 29.2758 8.69674 28.6328C8.52499 28.5494 8.41699 28.3776 8.41699 28.1911C8.41699 26.92 9.44768 25.8893 10.7188 25.8893C11.9851 25.8892 13.0207 26.9199 13.0207 28.1911Z" fill="black"/>
<path d="M11.9507 24.2352C11.9507 24.9714 11.3961 25.5653 10.7188 25.5653C10.0366 25.5653 9.48682 24.9714 9.48682 24.2352C9.48682 23.5039 10.0365 22.9052 10.7188 22.9052C11.3961 22.9052 11.9507 23.504 11.9507 24.2352V24.2352Z" fill="black"/>
<path d="M23.092 24.4496H14.2706C13.9993 24.4496 13.7798 24.6694 13.7798 24.9405C13.7798 25.2115 13.9993 25.4313 14.2706 25.4313H23.092C23.3633 25.4313 23.5828 25.2115 23.5828 24.9405C23.5828 24.6694 23.3633 24.4496 23.092 24.4496Z" fill="black"/>
<path d="M19.4667 26.5919H14.2706C13.9993 26.5919 13.7798 26.8116 13.7798 27.0827C13.7798 27.3537 13.9993 27.5735 14.2706 27.5735H19.4667C19.7379 27.5735 19.9575 27.3537 19.9575 27.0827C19.9575 26.8116 19.7379 26.5919 19.4667 26.5919Z" fill="black"/>
</svg>
