<svg width="32" height="32" viewBox="0 0 32 32" fill="none" xmlns="http://www.w3.org/2000/svg">
<path d="M23.9085 26.7828C23.6104 26.9451 23.3083 27.1127 23.0023 27.2823C20.4131 28.7179 17.4784 30.345 14.6579 30.0931L4.66932 29.2015C4.65631 29.2003 4.64324 29.1997 4.63018 29.1997H1.88061V24.2566H4.63012C4.73424 24.2566 4.83502 24.2196 4.91447 24.1524C4.92227 24.1459 5.70912 23.4848 6.90701 22.8625C7.12281 22.7504 7.20684 22.4846 7.0948 22.2688C6.98266 22.053 6.71693 21.9689 6.50107 22.081C5.49104 22.6057 4.75832 23.1521 4.47438 23.376H1.44033C1.19717 23.376 1 23.5731 1 23.8163V29.64C1 29.8832 1.19711 30.0804 1.44033 30.0804H4.61049L14.5796 30.9704C14.8047 30.9904 15.0294 31.0001 15.2541 31.0001C18.113 31.0001 20.9262 29.4404 23.4293 28.0526C23.7334 27.884 24.0337 27.7175 24.3298 27.5561C24.5433 27.4397 24.6221 27.1723 24.5058 26.9588C24.3895 26.7452 24.1221 26.6664 23.9085 26.7828Z" fill="black"/>
<path d="M30.6601 21.9055C30.1919 21.2849 29.3763 21.0706 28.6722 21.3653C28.6543 21.0837 28.5589 20.8094 28.3919 20.5756C27.9517 19.9592 27.1146 19.7607 26.445 20.1136L25.3978 20.6655C25.3844 20.4196 25.3118 20.1776 25.1825 19.9639C24.7647 19.2733 23.8819 19.0335 23.1726 19.4179L22.3899 19.8422C22.3758 19.5379 22.2728 19.2413 22.0888 18.991C21.6299 18.3664 20.7989 18.1743 20.1129 18.5341L14.4623 21.4978C13.8268 21.2538 11.8011 20.594 9.43434 21.0346C9.02605 21.1107 8.60541 21.2206 8.184 21.3615C7.95338 21.4386 7.82893 21.688 7.90598 21.9187C7.98314 22.1493 8.2327 22.2737 8.4632 22.1967C8.84617 22.0687 9.22709 21.969 9.59547 21.9004C12.122 21.4299 14.2842 22.3751 14.3051 22.3844C14.3619 22.4099 14.4234 22.423 14.4856 22.423H20.3672C20.7851 22.423 21.1251 22.764 21.1251 23.1831C21.1251 23.565 20.8401 23.8892 20.4622 23.9371L13.0076 24.8812C12.7871 24.9092 12.622 25.0971 12.6227 25.3193C12.6233 25.5416 12.7896 25.7286 13.0103 25.7552L16.1763 26.1368C19.2431 26.5063 22.2916 25.9081 24.9924 24.4067L28.9488 22.2074C29.2968 22.0261 29.7202 22.1218 29.957 22.4358C30.2529 22.8093 30.1243 23.4082 29.7006 23.6264L25.4556 25.9397C24.9481 26.2064 25.3831 26.9941 25.877 26.7129L30.122 24.3996C30.5522 24.1653 30.8583 23.7559 30.9619 23.2766C31.0655 22.7969 30.9555 22.2971 30.6601 21.9055ZM20.522 19.3139C20.8195 19.1579 21.18 19.2413 21.3793 19.5125C21.6241 19.8282 21.5129 20.329 21.157 20.5107L19.2539 21.5424H16.2732L20.522 19.3139ZM20.9225 21.6395L23.5923 20.192C23.8876 20.032 24.255 20.1321 24.4291 20.4198C24.6187 20.7177 24.5 21.1478 24.1839 21.3053L21.8682 22.5258C21.6883 22.1156 21.3457 21.7926 20.9225 21.6395ZM24.5646 23.6371C22.1427 24.9834 19.4232 25.5569 16.6755 25.3043L20.5729 24.8106C21.2959 24.7191 21.8613 24.1602 21.9817 23.4614L26.8555 20.8926C27.1374 20.7441 27.4898 20.8278 27.6753 21.0874C27.8999 21.3858 27.7956 21.8515 27.4647 22.0248L24.5646 23.6371Z" fill="black"/>
<path d="M11.2534 12.9639C11.7507 12.9639 12.2291 12.8563 12.6752 12.6442C12.8948 12.5397 12.9882 12.277 12.8837 12.0574C12.7793 11.8379 12.5168 11.7444 12.297 11.8489C11.97 12.0044 11.6188 12.0832 11.2534 12.0832C9.91152 12.0832 8.8198 10.9915 8.8198 9.64967C8.8198 8.30781 9.91152 7.21615 11.2534 7.21615C12.5952 7.21615 13.687 8.30781 13.687 9.64967C13.687 10.0605 13.5828 10.4664 13.3857 10.8235C13.2682 11.0364 13.3455 11.3042 13.5585 11.4217C13.7714 11.5392 14.0393 11.4619 14.1567 11.249C14.4255 10.762 14.5676 10.2089 14.5676 9.64961C14.5676 7.82213 13.0808 6.33543 11.2534 6.33543C9.42596 6.33543 7.9392 7.82213 7.9392 9.64961C7.9392 11.4771 9.42596 12.9639 11.2534 12.9639Z" fill="black"/>
<path d="M4.37775 10.9588L5.29035 11.096C5.43936 11.7142 5.68199 12.2998 6.01445 12.8432L5.46584 13.5859C5.20662 13.9369 5.24242 14.4154 5.55098 14.7239L6.17922 15.3522C6.48771 15.6607 6.96637 15.6965 7.31729 15.4373L8.0599 14.8887C8.6033 15.2212 9.18883 15.4639 9.80711 15.6129L9.94434 16.5255C10.0092 16.9569 10.3729 17.27 10.8092 17.27H11.6976C12.1339 17.27 12.4977 16.9569 12.5625 16.5254L12.6996 15.6129C13.3179 15.4639 13.9035 15.2212 14.4469 14.8887L15.1895 15.4373C15.5404 15.6965 16.0191 15.6607 16.3275 15.3522L16.9558 14.724C17.2643 14.4156 17.3001 13.9369 17.0409 13.5859L16.4924 12.8433C16.8248 12.2999 17.0675 11.7144 17.2165 11.0961L18.129 10.9589C18.5604 10.8941 18.8736 10.5304 18.8736 10.094V10.0901H21.4867V15.7023C21.4867 16.2685 21.9473 16.7291 22.5135 16.7291H24.3946C24.596 17.6267 25.3987 18.2995 26.3562 18.2995C27.4649 18.2995 28.3669 17.3975 28.3669 16.2888C28.3669 15.18 27.4649 14.278 26.3562 14.278C25.3987 14.278 24.5959 14.9509 24.3946 15.8485H22.5135C22.4328 15.8485 22.3673 15.7829 22.3673 15.7023V10.0901H24.3946C24.5959 10.9877 25.3987 11.6605 26.3562 11.6605C27.4649 11.6605 28.3669 10.7586 28.3669 9.64979C28.3669 8.54102 27.4649 7.63902 26.3562 7.63902C25.3987 7.63902 24.596 8.31186 24.3946 9.20939H22.3674V3.59729C22.3674 3.51666 22.4329 3.45109 22.5136 3.45109H24.3947C24.5961 4.34869 25.3988 5.02152 26.3563 5.02152C27.465 5.02152 28.367 4.11953 28.367 3.01076C28.367 1.90199 27.4649 1 26.3562 1C25.3988 1 24.5961 1.67283 24.3946 2.57043H22.5135C21.9473 2.57043 21.4867 3.03104 21.4867 3.59723V9.20934H18.8736V9.20547C18.8736 8.76924 18.5605 8.40549 18.1291 8.34063L17.2165 8.20346C17.0675 7.58518 16.8248 6.99965 16.4924 6.45625L17.0409 5.71363C17.3001 5.36266 17.2644 4.884 16.9558 4.57557L16.3276 3.94727C16.0192 3.63877 15.5405 3.60303 15.1895 3.86219L14.4469 4.41074C13.9035 4.07828 13.3179 3.83559 12.6997 3.68664L12.5625 2.77404C12.4977 2.34262 12.134 2.02943 11.6977 2.02943H10.8092C10.3729 2.02943 10.0092 2.34256 9.94434 2.77404L9.80711 3.68664C9.18889 3.83564 8.60336 4.07828 8.0599 4.41074L7.31729 3.86219C6.96643 3.60297 6.48771 3.63871 6.17922 3.94727L5.55098 4.57545C5.24242 4.88395 5.20662 5.3626 5.46584 5.71352L6.01439 6.45613C5.68193 6.99953 5.43924 7.58512 5.29029 8.20334L4.3777 8.34051C3.94627 8.40537 3.63314 8.76912 3.63314 9.20535V10.0938C3.63314 10.5303 3.94633 10.894 4.37775 10.9588ZM26.3562 15.1585C26.9794 15.1585 27.4863 15.6655 27.4863 16.2886C27.4863 16.9118 26.9794 17.4187 26.3562 17.4187C25.7331 17.4187 25.2261 16.9118 25.2261 16.2886C25.2261 15.6655 25.7331 15.1585 26.3562 15.1585ZM26.3562 8.51957C26.9794 8.51957 27.4863 9.02652 27.4863 9.64967C27.4863 10.2728 26.9794 10.7798 26.3562 10.7798C25.7331 10.7798 25.2261 10.2728 25.2261 9.64967C25.2261 9.02652 25.7331 8.51957 26.3562 8.51957ZM26.3562 1.88061C26.9794 1.88061 27.4863 2.38756 27.4863 3.0107C27.4863 3.63385 26.9794 4.1408 26.3562 4.1408C25.7331 4.1408 25.2261 3.63385 25.2261 3.0107C25.2261 2.38762 25.7331 1.88061 26.3562 1.88061ZM4.51375 9.21063L5.72236 9.02893C5.90775 9.00109 6.05518 8.85889 6.08969 8.67467C6.22387 7.95906 6.5009 7.29068 6.91293 6.68805C7.01869 6.53336 7.015 6.32863 6.90361 6.17787L6.17729 5.19449L6.7982 4.57363L7.78158 5.30002C7.93229 5.41135 8.13695 5.4151 8.2917 5.30934C8.89439 4.89725 9.56277 4.62027 10.2783 4.48604C10.4625 4.45152 10.6047 4.3041 10.6326 4.11871L10.8143 2.9101H11.6924L11.8741 4.11871C11.902 4.3041 12.0441 4.45152 12.2283 4.48604C12.9439 4.62022 13.6123 4.89725 14.2149 5.30934C14.3697 5.41516 14.5744 5.41135 14.7251 5.30002L15.7085 4.57363L16.3294 5.19449L15.6031 6.17793C15.4918 6.32863 15.488 6.53336 15.5938 6.68811C16.0059 7.29074 16.2828 7.95912 16.4171 8.67479C16.4516 8.859 16.5991 9.00115 16.7844 9.02904L17.993 9.21074V10.0888L16.7844 10.2705C16.5991 10.2984 16.4516 10.4406 16.4171 10.6248C16.2828 11.3404 16.0059 12.0088 15.5938 12.6115C15.488 12.7662 15.4917 12.9709 15.6031 13.1216L16.3295 14.105L15.7086 14.7259L14.7252 13.9995C14.5745 13.8882 14.3697 13.8844 14.215 13.9902C13.6124 14.4023 12.944 14.6793 12.2283 14.8135C12.0441 14.8481 11.902 14.9955 11.8741 15.1809L11.6924 16.3895H10.8143L10.6326 15.1809C10.6047 14.9955 10.4625 14.8481 10.2783 14.8135C9.56266 14.6793 8.89428 14.4023 8.29164 13.9902C8.13695 13.8845 7.93228 13.8882 7.78152 13.9995L6.79814 14.7259L6.17723 14.105L6.90361 13.1216C7.01494 12.9709 7.01869 12.7661 6.91293 12.6115C6.50084 12.0088 6.22387 11.3405 6.08969 10.6248C6.05512 10.4406 5.90775 10.2984 5.72236 10.2706L4.51375 10.0889V9.21063Z" fill="black"/>
</svg>
