<svg width="32" height="32" viewBox="0 0 32 32" fill="none" xmlns="http://www.w3.org/2000/svg">
<g clip-path="url(#clip0_16_366)">
<path d="M7.2082 22.3721C6.9492 22.3721 6.73926 22.582 6.73926 22.841V23.8261C6.73926 24.0851 6.9492 24.295 7.2082 24.295C7.4672 24.295 7.67713 24.0851 7.67713 23.8261V22.841C7.67707 22.582 7.4672 22.3721 7.2082 22.3721Z" fill="black"/>
<path d="M11.7801 6.21676C11.7788 6.2132 11.7775 6.2097 11.776 6.2062C11.6918 5.99851 11.4928 5.86426 11.2689 5.86426C11.045 5.86426 10.8459 5.99845 10.7617 6.2062C10.7604 6.2092 10.7593 6.21232 10.7581 6.21538L9.46301 9.61351C9.37076 9.85551 9.49214 10.1264 9.7342 10.2186C9.97608 10.311 10.2471 10.1895 10.3393 9.94745L10.5464 9.40426H11.981L12.1856 9.94601C12.2565 10.1338 12.4349 10.2494 12.6243 10.2494C12.6793 10.2494 12.7353 10.2397 12.7898 10.2191C13.0321 10.1276 13.1544 9.85707 13.063 9.61476L11.7801 6.21676ZM10.9038 8.46638L11.2671 7.51301L11.627 8.46638H10.9038Z" fill="black"/>
<path d="M23.8935 10.2547C24.1525 10.2547 24.3624 10.0448 24.3624 9.78581V7.8395L25.8408 9.98137C25.8423 9.9835 25.8438 9.98562 25.8453 9.98781C25.9839 10.1815 26.212 10.2622 26.4265 10.1934C26.6449 10.1233 26.786 9.91812 26.786 9.66619L26.7541 6.32481C26.7516 6.06581 26.5393 5.85794 26.2807 5.86037C26.0217 5.86287 25.8138 6.07481 25.8163 6.33375L25.8353 8.32237L24.2794 6.06819C24.1629 5.89944 23.9501 5.82587 23.754 5.88694C23.5581 5.948 23.4246 6.12937 23.4246 6.33462V9.78587C23.4246 10.0448 23.6345 10.2547 23.8935 10.2547V10.2547Z" fill="black"/>
<path d="M16.203 9.30971C16.202 9.30971 16.201 9.30971 16.2 9.30971C15.9478 9.31121 15.6812 9.31233 15.4653 9.31271V6.33271C15.4653 6.07371 15.2554 5.86377 14.9964 5.86377C14.7374 5.86377 14.5275 6.07371 14.5275 6.33271V9.77865C14.5275 10.0038 14.6875 10.1971 14.9087 10.2393C14.9457 10.2463 14.9702 10.251 15.359 10.251C15.5445 10.251 15.8132 10.25 16.2058 10.2476C16.4647 10.246 16.6734 10.0348 16.6718 9.77577C16.6702 9.51777 16.4606 9.30971 16.203 9.30971V9.30971Z" fill="black"/>
<path d="M7.34585 7.64489C6.92785 7.49058 6.53911 7.32264 6.41404 7.26777C6.33886 7.20477 6.34148 7.11833 6.34661 7.08196C6.35429 7.02827 6.39373 6.89696 6.59398 6.83658C7.05992 6.69658 7.49498 7.03958 7.50761 7.04964C7.70573 7.21408 7.99967 7.18796 8.16567 6.99083C8.33248 6.79277 8.30723 6.49696 8.10911 6.33008C8.07592 6.30214 7.28529 5.64914 6.32336 5.93858C5.83279 6.08652 5.48598 6.47396 5.41811 6.94958C5.35442 7.39646 5.54873 7.82602 5.92511 8.07052C5.94542 8.08377 5.96679 8.09539 5.98892 8.10527C6.00886 8.11427 6.48436 8.32658 7.02129 8.52483C7.13217 8.5657 7.49086 8.71708 7.44911 8.95083C7.41754 9.12808 7.19748 9.31139 6.88392 9.31139C6.55179 9.31139 6.23254 9.17814 6.03011 8.95502C5.85611 8.76321 5.55942 8.74883 5.36773 8.92277C5.17592 9.09677 5.16148 9.39333 5.33548 9.58514C5.71835 10.0072 6.28279 10.2493 6.88392 10.2493C7.62929 10.2493 8.25536 9.77239 8.37242 9.11552C8.46086 8.61983 8.23742 7.97327 7.34585 7.64489V7.64489Z" fill="black"/>
<path d="M19.8736 10.2493C21.0827 10.2493 22.0663 9.26558 22.0663 8.05652C22.0663 6.84746 21.0827 5.86377 19.8736 5.86377C18.6645 5.86377 17.6809 6.84746 17.6809 8.05652C17.6809 9.26558 18.6645 10.2493 19.8736 10.2493V10.2493ZM19.8736 6.80158C20.5655 6.80158 21.1285 7.36452 21.1285 8.05652C21.1285 8.74852 20.5656 9.31146 19.8736 9.31146C19.1817 9.31146 18.6187 8.74852 18.6187 8.05652C18.6187 7.36452 19.1817 6.80158 19.8736 6.80158V6.80158Z" fill="black"/>
<path d="M30.3488 16.5942V12.8057H30.9322C31.521 12.8057 32 12.3267 32 11.738V4.3766C32 3.78791 31.521 3.30891 30.9322 3.30891H29.0018L27.8764 0.79966C27.7993 0.62541 27.619 0.217285 27.1445 0.217285H4.8555C4.38094 0.217285 4.20069 0.62541 4.12469 0.797285L2.99819 3.30891H1.06769C0.479 3.30891 0 3.78791 0 4.3766V11.738C0 12.3267 0.479 12.8057 1.06769 12.8057H1.65112V28.0497C0.740312 28.1774 0.037125 28.9613 0.037125 29.9067V30.9945C0.037125 31.4289 0.3905 31.7823 0.824938 31.7823H31.1749C31.6083 31.7823 31.9609 31.4289 31.9609 30.9945V29.9067C31.9609 28.9613 31.2586 28.1775 30.3487 28.0497V23.8263V16.5942H30.3488ZM4.98144 1.17872C4.98444 1.17197 4.98806 1.16385 4.99188 1.15516H27.0081C27.0122 1.16454 27.0162 1.17347 27.0196 1.1811L27.9739 3.30891H4.026L4.98144 1.17872ZM16.9806 12.8057H29.411V16.1252H17.8062C17.3406 16.1252 16.9617 16.4635 16.9617 16.8794V23.5409C16.9617 23.9638 17.3326 24.2951 17.8062 24.2951H29.411V28.031H22.8873C22.6283 28.031 22.4183 28.241 22.4183 28.5C22.4183 28.759 22.6283 28.9689 22.8873 28.9689H30.0872C30.6033 28.9689 31.0232 29.3896 31.0232 29.9067V30.8445H0.975V29.9067C0.975 29.3895 1.39569 28.9688 1.91281 28.9688H5.02913H13.5365H20.7222C20.9812 28.9688 21.1912 28.7589 21.1912 28.4999C21.1912 28.2409 20.9812 28.031 20.7222 28.031H14.0054V17.2515C14.0054 16.6305 13.5002 16.1253 12.8792 16.1253H5.68463C5.06456 16.1253 4.56019 16.6305 4.56019 17.2515V28.031H2.589V12.8057H14.8174C15.0764 12.8057 15.2863 12.5958 15.2863 12.3368C15.2863 12.0778 15.0764 11.8678 14.8174 11.8678H1.06769C0.997313 11.8678 0.937813 11.8083 0.937813 11.738V10.6655H1.86137C2.12037 10.6655 2.33031 10.4555 2.33031 10.1965C2.33031 9.93754 2.12037 9.7276 1.86137 9.7276H0.937875V8.52522H1.86144C2.12044 8.52522 2.33037 8.31529 2.33037 8.05629C2.33037 7.79729 2.12044 7.58735 1.86144 7.58735H0.937875V6.38679H1.86144C2.12044 6.38679 2.33037 6.17685 2.33037 5.91785C2.33037 5.65885 2.12044 5.44891 1.86144 5.44891H0.937875V4.37641C0.937875 4.30604 0.997375 4.24653 1.06775 4.24653H30.9322C31.0026 4.24653 31.0622 4.30604 31.0622 4.37641V5.44891H30.1368C29.8778 5.44891 29.6679 5.65885 29.6679 5.91785C29.6679 6.17685 29.8778 6.38679 30.1368 6.38679H31.0622V7.58735H30.1368C29.8778 7.58735 29.6679 7.79729 29.6679 8.05629C29.6679 8.31529 29.8778 8.52522 30.1368 8.52522H31.0622V9.7276H30.1368C29.8778 9.7276 29.6679 9.93754 29.6679 10.1965C29.6679 10.4555 29.8778 10.6655 30.1368 10.6655H31.0622V11.738C31.0622 11.8083 31.0027 11.8678 30.9322 11.8678H16.9806C16.7216 11.8678 16.5117 12.0778 16.5117 12.3368C16.5117 12.5958 16.7216 12.8057 16.9806 12.8057V12.8057ZM29.411 17.0631V23.3573L17.8996 23.357V17.0631H29.411ZM5.49806 28.031V17.2515C5.49806 17.1494 5.5835 17.0631 5.68463 17.0631H12.8792C12.9813 17.0631 13.0676 17.1493 13.0676 17.2515V28.031H5.49806Z" fill="black"/>
</g>
<defs>
<clipPath id="clip0_16_366">
<rect width="32" height="32" fill="white"/>
</clipPath>
</defs>
</svg>
