<svg width="32" height="32" viewBox="0 0 32 32" fill="none" xmlns="http://www.w3.org/2000/svg">
<g clip-path="url(#clip0_15_280)">
<path d="M23.6464 23.1605C23.4183 23.0383 23.1341 23.1241 23.0119 23.3523C22.8133 23.7228 22.5836 24.0756 22.3273 24.4073C21.7394 23.6642 20.911 23.114 19.9376 22.8736L17.6152 22.2997V20.3661C18.341 19.9398 19.0313 19.3825 19.6426 18.7155C19.8175 18.5246 19.8046 18.2281 19.6137 18.0532C19.4229 17.8783 19.1265 17.8912 18.9514 18.0821C17.6464 19.5059 15.8876 20.3905 14.3613 20.3905C13.5002 20.3905 12.6712 20.1567 11.906 19.7567C11.8449 19.696 11.7671 19.6524 11.6802 19.6327C9.96968 18.6495 8.60588 16.8414 7.96338 15.0018C10.6062 14.4788 12.7662 12.9785 14.146 11.7713C15.3302 10.7351 16.3796 9.51875 17.1064 8.36776C17.5212 10.8525 18.6792 13.226 20.9998 14.1776C20.7938 15.0397 20.4713 15.8528 20.0387 16.5996C19.9089 16.8236 19.9853 17.1104 20.2092 17.2401C20.4333 17.3699 20.72 17.2935 20.8498 17.0696C21.318 16.2614 21.6688 15.3843 21.8964 14.4561C22.1205 14.5064 22.3508 14.545 22.5879 14.5705C22.8458 14.5987 23.0764 14.412 23.1041 14.1546C23.1318 13.8972 22.9455 13.6661 22.6881 13.6384C22.2584 13.5922 21.8556 13.4988 21.4801 13.3587C21.4798 13.3585 21.4795 13.3584 21.4792 13.3583C21.4258 13.3384 21.3732 13.3176 21.321 13.2958C21.3206 13.2957 21.3203 13.2955 21.3199 13.2953C19.8225 12.6696 18.9288 11.3284 18.4157 9.782C18.4131 9.77412 18.4104 9.76625 18.4078 9.75831C17.8972 8.20526 17.8883 6.76865 17.8883 6.75377C17.8883 6.52852 17.7279 6.33477 17.5064 6.2929C17.2844 6.25096 17.0651 6.37259 16.9829 6.5824C15.8919 9.36425 11.7727 13.5276 7.28989 14.166C7.28639 14.1665 7.28302 14.1675 7.27958 14.1681C6.89039 14.2225 6.49196 14.2531 6.08477 14.2531C5.8259 14.2531 5.61603 14.4629 5.61603 14.7218C5.61603 14.9808 5.8259 15.1906 6.08477 15.1906C6.39915 15.1906 6.71114 15.174 7.02039 15.1428C7.73176 17.3687 9.02219 18.7856 10.0066 19.5945C10.3589 19.884 10.7282 20.1407 11.1072 20.3624V22.2931L8.75582 22.874C8.47144 22.9443 8.19801 23.0415 7.93707 23.1644V20.2768C7.93707 19.4653 6.94839 18.6066 6.10184 18.1179C5.5144 17.7787 4.90191 17.5501 4.37723 17.4741C3.47373 17.3434 3.11855 17.7042 2.98655 17.9325C2.91011 18.0656 2.87136 18.2149 2.87136 18.3762V24.3952C2.50637 24.5696 2.25293 24.9413 2.25293 25.3721V27.5658C2.25293 27.8247 2.4628 28.0345 2.72168 28.0345C2.98055 28.0345 3.19042 27.8247 3.19042 27.5658V27.0798H7.61789V30.917C7.61789 30.9973 7.55258 31.0626 7.47226 31.0626H3.33605C3.25573 31.0626 3.19042 30.9973 3.19042 30.917V29.4408C3.19042 29.1818 2.98055 28.972 2.72168 28.972C2.4628 28.972 2.25293 29.1818 2.25293 29.4408V30.917C2.25293 31.5143 2.7388 32.0001 3.33605 32.0001H7.47226C8.06951 32.0001 8.55538 31.5143 8.55538 30.917V29.6524H22.9396C23.0691 29.6524 23.1928 29.5989 23.2814 29.5045C23.37 29.4102 23.4156 29.2833 23.4075 29.1542L23.2625 26.8549C23.2266 26.285 23.0829 25.7438 22.8508 25.2517C23.2286 24.8024 23.5605 24.314 23.8385 23.7951C23.9605 23.5668 23.8746 23.2827 23.6464 23.1605ZM6.99589 20.247C6.80933 20.3151 6.10627 20.2618 5.17447 19.7237C4.2696 19.2014 3.8521 18.6266 3.81204 18.4064C4.61754 18.1126 6.88433 19.592 6.99589 20.247ZM3.80873 19.9002C4.09248 20.1457 4.40779 20.3637 4.70566 20.5356C5.34797 20.9065 6.2694 21.2762 6.99945 21.1958V24.2887H3.80867L3.80873 19.9002ZM7.61776 26.142H3.19023V25.3718C3.19023 25.2915 3.25555 25.2262 3.33586 25.2262C7.15502 25.2263 7.44976 25.2263 7.46733 25.2263C7.46776 25.2263 7.46801 25.2263 7.4682 25.2263C7.46901 25.2263 7.46983 25.2262 7.47064 25.2262H7.47214C7.55245 25.2262 7.61776 25.2915 7.61776 25.3718V26.142ZM8.55519 28.7148V26.6132C8.55519 26.6124 8.55532 26.6116 8.55532 26.6107C8.55532 26.6099 8.55519 26.6092 8.55519 26.6083V25.3718C8.55519 24.9411 8.30188 24.5694 7.93688 24.395V24.2353C8.25657 24.0285 8.6065 23.8763 8.98069 23.7837L11.4782 23.1668C11.8117 23.0845 12.0445 22.787 12.0445 22.4436V20.8303C12.8218 21.1541 13.6136 21.3279 14.3613 21.3279C15.1198 21.3279 15.9077 21.1553 16.6776 20.8348V22.4505C16.6776 22.7933 16.9101 23.0906 17.2439 23.1737L19.7127 23.7837C20.6397 24.0127 21.3997 24.5986 21.8583 25.3792C21.8704 25.4059 21.8851 25.4317 21.9023 25.4561C22.1443 25.8935 22.2935 26.3883 22.3266 26.9137L22.4401 28.7148H8.55519V28.7148Z" fill="black"/>
<path d="M25.3842 4.22947C24.2864 3.93153 23.9455 3.59072 23.6477 2.49273C23.5598 2.16917 23.2754 1.95186 22.94 1.95186C22.6046 1.95186 22.3202 2.16923 22.2323 2.49286C22.1469 2.8076 22.0569 3.05448 21.9529 3.25391C21.8942 3.19229 21.835 3.13116 21.7749 3.07104C19.7944 1.09062 17.1616 0 14.3615 0C8.58041 0 3.8772 4.70321 3.8772 10.4843V16.128C3.8772 16.3869 4.08707 16.5967 4.34594 16.5967C4.60482 16.5967 4.81469 16.3869 4.81469 16.128V10.4843C4.81469 5.22015 9.09734 0.937493 14.3615 0.937493C16.9112 0.937493 19.3085 1.93067 21.1118 3.73397C21.1753 3.79741 21.2376 3.86216 21.2993 3.92741C21.0933 4.04078 20.8339 4.13759 20.4955 4.22947C20.1719 4.31734 19.9546 4.60178 19.9546 4.93715C19.9546 5.27252 20.172 5.55696 20.4956 5.64483C21.5934 5.9427 21.9343 6.28351 22.2323 7.38188C22.3202 7.70494 22.6046 7.922 22.9399 7.922C23.1577 7.922 23.3535 7.83 23.4885 7.67707C23.767 8.58087 23.9083 9.5208 23.9083 10.4843V14.6593C23.9083 14.9182 24.1181 15.128 24.377 15.128C24.636 15.128 24.8458 14.9182 24.8458 14.6593V10.4843C24.8458 9.07955 24.573 7.71969 24.0355 6.43795C24.2936 6.05608 24.6745 5.83752 25.3843 5.64483C25.3843 5.64477 25.3845 5.64477 25.3845 5.64471C25.7077 5.55677 25.9247 5.2724 25.9247 4.93715C25.9247 4.6019 25.7077 4.31753 25.3842 4.22947ZM23.0949 6.18883C23.0939 6.19083 23.0929 6.19289 23.0918 6.19489C23.0913 6.19583 23.0908 6.19676 23.0904 6.19776C23.0372 6.30083 22.9869 6.41195 22.9393 6.53257C22.6188 5.72633 22.1501 5.25783 21.3439 4.93746C21.7572 4.77403 22.0697 4.57734 22.3209 4.32709C22.3226 4.32547 22.3241 4.32365 22.3257 4.32197C22.3279 4.31965 22.3301 4.3174 22.3322 4.31509C22.5814 4.06359 22.7775 3.75197 22.9401 3.3411C23.2602 4.14691 23.7284 4.61546 24.5332 4.9359C23.9223 5.17552 23.4378 5.52971 23.0949 6.18883Z" fill="black"/>
<path d="M29.6343 26.51L27.8199 21.5249C27.7678 21.3817 27.6831 21.2565 27.5737 21.1565L28.078 17.1949C28.1495 16.6341 27.9285 16.0885 27.4868 15.7356C27.0452 15.3826 26.4643 15.2873 25.9329 15.4807L24.7689 15.9044C24.7677 15.9048 24.7664 15.905 24.7653 15.9054L23.0706 16.5223C23.0695 16.5226 23.0685 16.5233 23.0674 16.5236L21.9031 16.9474C21.3719 17.1408 20.9882 17.5871 20.8767 18.1414C20.7652 18.6957 20.9465 19.2557 21.3618 19.6394L24.2946 22.3499C24.275 22.4968 24.2906 22.6471 24.3428 22.7904L24.8944 24.3059C24.8944 24.3061 24.8945 24.3063 24.8946 24.3066C24.8946 24.3067 24.8947 24.3068 24.8947 24.3069L26.1572 27.7754C26.716 29.3113 28.8745 29.4218 29.5726 27.9246C29.7815 27.4769 29.8034 26.9744 29.6343 26.51ZM24.8733 21.6084L21.998 18.9511C21.8222 18.7887 21.7486 18.5611 21.7958 18.3264C21.843 18.0918 21.999 17.9104 22.2238 17.8285L22.571 17.7021C22.6161 18.1029 22.7669 18.5457 23.0026 18.9194L23.5313 19.7577C23.6204 19.899 23.7726 19.9764 23.9282 19.9764C24.0136 19.9764 24.1002 19.953 24.1778 19.9041C24.3968 19.766 24.4624 19.4765 24.3243 19.2575L23.7956 18.4192C23.5364 18.0084 23.4751 17.5471 23.4976 17.3649L24.98 16.8253C25.1143 16.9504 25.3639 17.3433 25.4294 17.8246L25.5633 18.8065C25.5984 19.063 25.8357 19.2427 26.0911 19.2077C26.3475 19.1727 26.5272 18.9364 26.4922 18.68L26.3584 17.698C26.2987 17.2602 26.1295 16.8241 25.9065 16.4881C26.0842 16.4641 26.4858 16.1356 26.9016 16.468C27.0885 16.6174 27.1784 16.8391 27.1481 17.0765L26.6536 20.9604C26.6447 20.9633 26.6358 20.9655 26.627 20.9687L24.8991 21.5976C24.8902 21.6008 24.8819 21.605 24.8733 21.6084ZM25.3026 22.6868L27.0179 22.0625L27.3304 22.9212L25.6151 23.5455L25.3026 22.6868ZM27.51 27.97C27.289 27.867 27.1214 27.684 27.038 27.4549L25.9358 24.4265L27.6511 23.8022L28.7534 26.8307C29.0331 27.5989 28.2392 28.3099 27.51 27.97Z" fill="black"/>
</g>
<defs>
<clipPath id="clip0_15_280">
<rect width="32" height="32" fill="white"/>
</clipPath>
</defs>
</svg>
