<svg id="_3335665" data-name="3335665" xmlns="http://www.w3.org/2000/svg" xmlns:xlink="http://www.w3.org/1999/xlink" width="28" height="27.881" viewBox="0 0 28 27.881">
  <defs>
    <clipPath id="clip-path">
      <rect id="Rectangle_12546" data-name="Rectangle 12546" width="28" height="27.881"/>
    </clipPath>
  </defs>
  <g id="Group_37675" data-name="Group 37675" clip-path="url(#clip-path)">
    <path id="Path_105409" data-name="Path 105409" d="M228.985,191.517c-.027.065-.058.129-.08.2a1.664,1.664,0,0,1-1.587,1.164q-5,.008-10,0c-.337,0-.487-.146-.488-.482q-.006-1.749,0-3.5c0-.328.14-.462.468-.473.237-.008.474,0,.71-.012a1.6,1.6,0,0,0,1.525-1.671,1.644,1.644,0,0,0-1.59-1.568c-.218-.007-.437,0-.656,0a.41.41,0,0,1-.456-.458q-.008-1.763,0-3.525c0-.343.148-.47.526-.471.911,0,1.822,0,2.733,0h.36a2.522,2.522,0,0,1,1.066-2.273,2.409,2.409,0,0,1,1.63-.428c1.275.1,2.054,1.029,2.234,2.687.091,0,.187.013.283.013.9,0,1.8.006,2.706,0a.689.689,0,0,1,.62.253Zm-.82-9.983h-.328c-.929,0-1.859,0-2.788,0-.38,0-.506-.132-.515-.51-.006-.255,0-.511-.023-.764a1.616,1.616,0,0,0-3.185-.161,5.217,5.217,0,0,0-.049.9c-.009.4-.134.537-.543.538-.92,0-1.84,0-2.761,0h-.3v2.8c1.642.175,2.614,1.015,2.68,2.291a2.419,2.419,0,0,1-.5,1.662,2.505,2.505,0,0,1-2.178.967v2.809h9.48c.691,0,1.013-.326,1.013-1.025q0-4.592,0-9.184Z" transform="translate(-200.985 -165)"/>
    <path id="Path_105410" data-name="Path 105410" d="M12.161.835c0,.378,0,.732,0,1.086,0,.665,0,1.33,0,2,0,.411-.128.532-.543.539-.219,0-.438,0-.656.011a1.622,1.622,0,0,0,.1,3.24c.2,0,.4,0,.6,0,.353.006.5.145.5.5,0,.929,0,1.859,0,2.788v.324h2.813A2.538,2.538,0,0,1,15.9,9.179a2.321,2.321,0,0,1,1.537-.546,2.385,2.385,0,0,1,1.811.818,2.517,2.517,0,0,1,.621,1.877h2.8c0-.1.013-.2.013-.294q0-1.873,0-3.745c0-.073,0-.146,0-.219a.411.411,0,0,1,.392-.439.416.416,0,0,1,.424.439c.01.392,0,.784,0,1.176q0,1.681,0,3.363c0,.419-.136.556-.559.557q-1.668,0-3.335,0c-.441,0-.563-.129-.567-.577,0-.2,0-.4-.007-.6a1.607,1.607,0,0,0-1.611-1.533,1.642,1.642,0,0,0-1.625,1.532c-.01.173-.005.346-.005.519,0,.565-.1.661-.675.661-.884,0-1.768.009-2.652-.006-.251,0-.325.066-.32.319.016.818.006,1.637.006,2.491a2.519,2.519,0,0,1,2.252,1.009,2.354,2.354,0,0,1,.464,1.645,2.387,2.387,0,0,1-.868,1.676,2.551,2.551,0,0,1-1.831.57c-.006.115-.016.211-.016.307,0,.92,0,1.841,0,2.761,0,.442-.128.567-.569.568H7.19a1,1,0,0,1-.218-.01.39.39,0,0,1-.338-.4.383.383,0,0,1,.37-.4,3.368,3.368,0,0,1,.382-.005h3.938c.006-.109.016-.2.016-.3,0-.92,0-1.841,0-2.761,0-.449.123-.57.567-.577.228,0,.456.006.683-.012a1.622,1.622,0,0,0-.081-3.236c-.218-.008-.437,0-.656,0-.365,0-.511-.145-.512-.518,0-.929,0-1.859,0-2.789,0-.1,0-.195,0-.308h-2.8a2.516,2.516,0,0,1-.907,2.135,2.369,2.369,0,0,1-1.589.557c-1.351-.019-2.178-.925-2.438-2.708H.822v.308q0,4.607,0,9.213a.884.884,0,0,0,1.01,1c1.066,0,2.132,0,3.2,0a.452.452,0,0,1,.458.231c.149.291-.067.588-.44.59q-1.49.007-2.98,0a3.954,3.954,0,0,1-.707-.039A1.645,1.645,0,0,1,0,21.847c-.008-.665,0-1.33,0-2Q0,10.871,0,1.89A1.7,1.7,0,0,1,1.892,0H21.631A1.7,1.7,0,0,1,23.51,1.878c0,1.039.006,2.078-.007,3.116a.67.67,0,0,1-.162.434.418.418,0,0,1-.394.058A.542.542,0,0,1,22.7,5.11c-.028-.527-.012-1.056-.012-1.585,0-.6.005-1.2,0-1.8a.856.856,0,0,0-.893-.9q-4.729,0-9.459,0c-.045,0-.09.007-.175.015M11.329.82h-9.5a.883.883,0,0,0-1,1.008q0,4.605,0,9.211c0,.1.008.192.014.307H3.7c.7,0,.75.048.753.739a4.49,4.49,0,0,0,.027.545,1.642,1.642,0,0,0,1.5,1.421,1.6,1.6,0,0,0,1.684-1.293,5.154,5.154,0,0,0,.045-.87c.008-.407.132-.54.54-.541.92,0,1.84,0,2.76,0h.31V8.552c-1.662-.2-2.58-.965-2.678-2.223A2.424,2.424,0,0,1,9.063,4.7a2.519,2.519,0,0,1,2.266-1.07Z" transform="translate(0 0.001)"/>
  </g>
</svg>
