<svg xmlns="http://www.w3.org/2000/svg" xmlns:xlink="http://www.w3.org/1999/xlink" width="32" height="32" viewBox="0 0 32 32">
  <defs>
    <clipPath id="clip-path">
      <rect id="Rectangle_12586" data-name="Rectangle 12586" width="28" height="25.383"/>
    </clipPath>
  </defs>
  <g id="Group_37673" data-name="Group 37673" transform="translate(10187 1859)">
    <g id="Rectangle_12544" data-name="Rectangle 12544" transform="translate(-10187 -1859)" stroke="#707070" stroke-width="1" opacity="0">
      <rect width="32" height="32" stroke="none"/>
      <rect x="0.5" y="0.5" width="31" height="31" fill="none"/>
    </g>
    <g id="Group_37705" data-name="Group 37705" transform="translate(-10185 -1856)">
      <g id="Group_37705-2" data-name="Group 37705" clip-path="url(#clip-path)">
        <path id="Path_105556" data-name="Path 105556" d="M0,3.314C.022,3.256.047,3.2.065,3.14A1.782,1.782,0,0,1,1.744,1.846c.565-.015,1.13-.009,1.695,0a.555.555,0,0,1,.608.559c-.006.328-.242.53-.629.532-.51,0-1.021,0-1.531,0a.707.707,0,0,0-.793.792c0,.746,0,1.492,0,2.255H24.176c0-.485,0-.965,0-1.445,0-.3.005-.6,0-.9a.654.654,0,0,0-.608-.687c-.406-.028-.815-.006-1.252-.006,0,.235,0,.452,0,.668a1.13,1.13,0,0,1-1.129,1.132c-.328.008-.657.011-.984,0a1.131,1.131,0,0,1-1.057-1,.558.558,0,0,1,.43-.662.545.545,0,0,1,.648.441c.01.035.016.071.028.122H21.2V1.15h-.946a.605.605,0,0,0-.027.068c-.11.39-.372.577-.687.491A.6.6,0,0,1,19.16.941,1.149,1.149,0,0,1,20.254.036c.319-.009.638-.011.957,0a1.138,1.138,0,0,1,1.1,1.107c.008.218,0,.436,0,.7.4,0,.789-.007,1.176,0a1.758,1.758,0,0,1,1.68,1.21,2.032,2.032,0,0,1,.1.616q.008,5.551,0,11.1c0,.409-.2.641-.545.641s-.547-.239-.548-.642q0-3.637,0-7.274V7.152H1.094v.291q0,6.563,0,13.125c0,.624.234.86.855.86q7.4,0,14.791,0a1.678,1.678,0,0,1,.432.041.528.528,0,0,1,.375.566.536.536,0,0,1-.484.479c-.108.011-.218.006-.328.006-4.857,0-9.715-.017-14.572.013A1.951,1.951,0,0,1,0,21.036V3.314" transform="translate(0 -0.027)"/>
        <path id="Path_105557" data-name="Path 105557" d="M257.8,217.017a4.946,4.946,0,1,1-4.917-4.967,4.957,4.957,0,0,1,4.917,4.967M256.7,217a3.852,3.852,0,1,0-3.842,3.847A3.863,3.863,0,0,0,256.7,217" transform="translate(-229.795 -196.56)"/>
        <path id="Path_105558" data-name="Path 105558" d="M191.379,2.943c0,.22,0,.417,0,.615a1.135,1.135,0,0,1-1.205,1.195c-.3,0-.6.008-.9-.005a1.122,1.122,0,0,1-1.034-.866c-.1-.416.053-.719.4-.8s.574.117.68.558h.953v-2.5c-.289,0-.561-.008-.831.007-.054,0-.128.082-.149.142a.56.56,0,0,1-.653.438A.575.575,0,0,1,188.221,1a1.133,1.133,0,0,1,1.1-.956q.464-.012.929,0a1.128,1.128,0,0,1,1.119,1.086c.014.226,0,.453,0,.705.123.006.219.014.315.014.793,0,1.586,0,2.379,0a.551.551,0,0,1,.548.811.57.57,0,0,1-.552.283c-.784-.005-1.567,0-2.351,0h-.334" transform="translate(-174.458 -0.035)"/>
        <path id="Path_105559" data-name="Path 105559" d="M43.694,1.833H45.61c.273,0,.547-.007.82,0a.556.556,0,0,1,.576.566.548.548,0,0,1-.584.524c-.892,0-1.785,0-2.725,0,0,.208,0,.4,0,.6a1.136,1.136,0,0,1-1.214,1.212c-.291,0-.583.007-.874,0a1.122,1.122,0,0,1-1.041-.823c-.122-.424.019-.747.366-.839s.593.106.7.557h.954V1.142h-.939c-.006.006-.016.011-.018.019-.123.436-.376.63-.7.539-.349-.1-.488-.441-.354-.872a1.141,1.141,0,0,1,1.037-.8c.328-.012.656-.012.984,0a1.132,1.132,0,0,1,1.1,1.107c.007.217,0,.435,0,.7" transform="translate(-37.563 -0.019)"/>
        <path id="Path_105560" data-name="Path 105560" d="M115.518,3.614h.945v-2.5h-.943c-.02.061-.04.129-.063.2a.539.539,0,0,1-1.055-.176A1.131,1.131,0,0,1,115.479.011c.336-.015.675-.015,1.011,0a1.143,1.143,0,0,1,1.086,1.126c.009.216,0,.433,0,.677h1.251c.492,0,.984-.007,1.476,0a.536.536,0,0,1,.569.565.529.529,0,0,1-.577.524c-.892,0-1.784,0-2.717,0,0,.213,0,.409,0,.606a1.146,1.146,0,0,1-1.2,1.2c-.31,0-.62.01-.929-.007a1.119,1.119,0,0,1-1.045-1.1.54.54,0,0,1,1.064-.167c.017.051.032.1.052.168" transform="translate(-106.045 0)"/>
        <path id="Path_105561" data-name="Path 105561" d="M42.068,243.113c-.337,0-.674.006-1.01,0a.544.544,0,0,1-.578-.529.552.552,0,0,1,.58-.559q1.01-.013,2.021,0a.537.537,0,0,1,.572.561.531.531,0,0,1-.575.527c-.337.007-.674,0-1.01,0" transform="translate(-37.523 -224.338)"/>
        <path id="Path_105562" data-name="Path 105562" d="M263.573,188.563c-.328,0-.655.007-.983,0a.544.544,0,1,1,0-1.086q1.01-.014,2.02,0a.543.543,0,0,1,.578.558.537.537,0,0,1-.576.529c-.346.01-.692,0-1.038,0" transform="translate(-242.874 -173.773)"/>
        <path id="Path_105563" data-name="Path 105563" d="M115.984,243.11c-.337,0-.674.006-1.01,0a.544.544,0,1,1,0-1.087q1.024-.016,2.048,0a.545.545,0,1,1-.024,1.088c-.337.006-.673,0-1.01,0" transform="translate(-106.055 -224.335)"/>
        <path id="Path_105564" data-name="Path 105564" d="M116.023,187.492c.318,0,.637-.006.955,0a.56.56,0,0,1,.605.535.551.551,0,0,1-.609.554q-.983.01-1.965,0a.535.535,0,0,1-.6-.531.543.543,0,0,1,.6-.558c.337-.007.673,0,1.01,0" transform="translate(-106.053 -173.794)"/>
        <path id="Path_105565" data-name="Path 105565" d="M189.7,188.56c-.337,0-.674.008-1.01,0a.543.543,0,1,1-.011-1.085q1.023-.017,2.047,0a.53.53,0,0,1,.565.539.539.539,0,0,1-.581.55H189.7Z" transform="translate(-174.376 -173.771)"/>
        <path id="Path_105566" data-name="Path 105566" d="M189.708,243.107c-.337,0-.673.006-1.01,0a.544.544,0,1,1-.022-1.087q1.037-.017,2.075,0a.543.543,0,1,1-.032,1.086c-.337.007-.673,0-1.01,0" transform="translate(-174.378 -224.332)"/>
        <path id="Path_105567" data-name="Path 105567" d="M189.718,133.99c-.337,0-.673.007-1.01,0a.544.544,0,1,1-.015-1.085q1.023-.018,2.047,0a.525.525,0,0,1,.555.548.53.53,0,0,1-.566.536c-.336.01-.673,0-1.01,0" transform="translate(-174.378 -123.187)"/>
        <path id="Path_105568" data-name="Path 105568" d="M42.06,188.563c-.337,0-.674.008-1.01,0a.543.543,0,1,1-.013-1.085q1.037-.017,2.075,0a.541.541,0,1,1-.015,1.082c-.346.012-.692,0-1.037,0" transform="translate(-37.522 -173.773)"/>
        <path id="Path_105569" data-name="Path 105569" d="M263.6,133.982c-.337,0-.674.007-1.01,0a.544.544,0,1,1-.008-1.085q1.01-.018,2.02,0a.539.539,0,0,1,.581.554.55.55,0,0,1-.6.534H263.6Z" transform="translate(-242.875 -123.178)"/>
        <path id="Path_105570" data-name="Path 105570" d="M42.054,133.984c-.328,0-.655.006-.983,0a.546.546,0,1,1,0-1.087q1-.016,1.993,0a.538.538,0,0,1,.59.543c0,.328-.23.538-.614.545-.327.006-.655,0-.983,0" transform="translate(-37.52 -123.18)"/>
        <path id="Path_105571" data-name="Path 105571" d="M115.985,133.982c-.328,0-.655.006-.983,0a.545.545,0,1,1-.01-1.087q1-.017,1.993,0a.547.547,0,1,1-.017,1.088c-.327.006-.655,0-.983,0" transform="translate(-106.052 -123.178)"/>
        <path id="Path_105572" data-name="Path 105572" d="M280.757,245.494a1.728,1.728,0,0,1-.393-.226q-1.075-1.051-2.129-2.124a.548.548,0,1,1,.786-.757c.571.564,1.144,1.125,1.7,1.7a.458.458,0,0,0,.548.141,7.973,7.973,0,0,1,.817-.22.542.542,0,1,1,.272,1.048c-.515.149-1.035.282-1.6.434" transform="translate(-257.727 -224.484)"/>
      </g>
    </g>
  </g>
</svg>
