<svg width="32" height="32" viewBox="0 0 32 32" fill="none" xmlns="http://www.w3.org/2000/svg">
<path d="M30.5 26H29V11.5C29 10.1215 27.8785 9 26.5 9H19.613C19.337 9 19.113 9.224 19.113 9.5C19.113 9.776 19.337 10 19.613 10H26.5C27.327 10 28 10.673 28 11.5V26H19C18.724 26 18.5 26.224 18.5 26.5V27H13.5V26.5C13.5 26.224 13.276 26 13 26H4V11.5C4 11.224 3.776 11 3.5 11C3.224 11 3 11.224 3 11.5V26H1.5C1.224 26 1 26.224 1 26.5V27.5C1 29.43 2.57 31 4.5 31H19C19.276 31 19.5 30.776 19.5 30.5C19.5 30.224 19.276 30 19 30H4.5C3.1215 30 2 28.8785 2 27.5V27H12.5V27.5C12.5 27.776 12.724 28 13 28H19C19.276 28 19.5 27.776 19.5 27.5V27H30V27.5C30 28.8785 28.8785 30 27.5 30H21C20.724 30 20.5 30.224 20.5 30.5C20.5 30.776 20.724 31 21 31H27.5C29.43 31 31 29.43 31 27.5V26.5C31 26.224 30.776 26 30.5 26Z" fill="black"/>
<path d="M4.5 29C4.77614 29 5 28.7761 5 28.5C5 28.2239 4.77614 28 4.5 28C4.22386 28 4 28.2239 4 28.5C4 28.7761 4.22386 29 4.5 29Z" fill="black"/>
<path d="M6.5 29C6.77614 29 7 28.7761 7 28.5C7 28.2239 6.77614 28 6.5 28C6.22386 28 6 28.2239 6 28.5C6 28.7761 6.22386 29 6.5 29Z" fill="black"/>
<path d="M26 29C26.2761 29 26.5 28.7761 26.5 28.5C26.5 28.2239 26.2761 28 26 28C25.7239 28 25.5 28.2239 25.5 28.5C25.5 28.7761 25.7239 29 26 29Z" fill="black"/>
<path d="M28 29C28.2761 29 28.5 28.7761 28.5 28.5C28.5 28.2239 28.2761 28 28 28C27.7239 28 27.5 28.2239 27.5 28.5C27.5 28.7761 27.7239 29 28 29Z" fill="black"/>
<path d="M4.55244 10.7235C4.67044 10.96 4.95244 11.0635 5.19694 10.9595L7.20594 10.0985L7.30694 10.2215C8.01644 11.088 8.28344 12.25 8.02494 13.338C7.37944 14.801 6.95144 16.353 6.75244 17.951C6.71844 18.225 6.91294 18.475 7.18694 18.509C7.45794 18.541 7.71044 18.349 7.74494 18.0745C7.92044 16.6655 8.29344 15.2985 8.83844 13.9995H10.4784C10.4339 14.186 10.3209 14.3515 10.1534 14.4635C9.41394 14.9565 9.15594 15.928 9.55344 16.7235C9.67694 16.9705 9.97644 17.0705 10.2244 16.947C10.4714 16.8235 10.5714 16.523 10.4479 16.276C10.2754 15.931 10.3874 15.5095 10.7139 15.2915C10.9609 15.127 11.1579 14.9065 11.2929 14.6535C11.3289 14.795 11.3244 14.9465 11.2759 15.0915C11.0614 15.735 11.2259 16.4325 11.7059 16.9125C11.8034 17.01 11.9314 17.059 12.0594 17.059C12.1874 17.059 12.3154 17.01 12.4129 16.9125C12.6084 16.717 12.6084 16.401 12.4129 16.2055C12.2029 15.9955 12.1309 15.69 12.2249 15.408C12.3839 14.9315 12.3334 14.4255 12.1024 14H13.1404L13.5709 15.2915C13.8404 16.0995 13.8849 16.966 13.7004 17.7975C13.2629 19.766 13.8869 21.787 15.3334 23.162L14.2689 23.314C13.4839 23.425 12.6844 23.32 11.9554 23.008L11.7534 22.9215C10.5139 22.39 9.13494 22.351 7.88144 22.796L7.87394 22.7555C7.71644 21.89 7.63594 20.966 7.63494 20.009C7.63494 19.733 7.41094 19.5095 7.13494 19.5095H7.13444C6.85844 19.5095 6.63494 19.734 6.63494 20.01C6.63594 21.026 6.72194 22.01 6.88994 22.9335L7.00894 23.5885C7.03694 23.7435 7.13644 23.876 7.27744 23.9465C7.41844 24.017 7.58394 24.017 7.72494 23.9465C8.86444 23.377 10.1894 23.3385 11.3594 23.8395L11.5619 23.9265C12.2269 24.211 12.9399 24.3565 13.6579 24.3565C13.9089 24.3565 14.1604 24.339 14.4104 24.303L16.5719 23.994C16.7674 23.966 16.9279 23.8255 16.9819 23.6355C17.0359 23.4455 16.9729 23.2415 16.8209 23.115L16.2559 22.644C14.8984 21.513 14.2934 19.7385 14.6764 18.0135C14.9004 17.005 14.8464 15.9545 14.5199 14.974L13.9864 13.3775C13.7114 12.278 13.9759 11.098 14.6944 10.221L14.7954 10.0975L16.8044 10.9585C17.0479 11.063 17.3304 10.959 17.4489 10.7225L18.4489 8.7225C18.5674 8.485 18.4799 8.1965 18.2499 8.065L15.5569 6.526C14.9514 6.182 14.2654 6 13.5704 6H8.42944C7.73444 6 7.04844 6.182 6.44494 6.527L3.75194 8.066C3.52144 8.1975 3.43394 8.4865 3.55294 8.7235L4.55244 10.7235ZM12.4634 7C12.3309 7.908 11.8419 8.7435 11.0994 9.3L10.9999 9.375L10.8999 9.3C10.1579 8.7435 9.66894 7.908 9.53594 7H12.4634ZM6.94094 7.3955C7.39344 7.1365 7.90844 7 8.42944 7H8.52944C8.66794 8.2225 9.30694 9.3555 10.2999 10.1L10.6999 10.4C10.7889 10.4665 10.8944 10.5 10.9999 10.5C11.1054 10.5 11.2109 10.4665 11.2999 10.4L11.6999 10.1C12.6929 9.3555 13.3319 8.2225 13.4704 7H13.5704C14.0914 7 14.6064 7.1365 15.0589 7.3955L17.3409 8.6995L16.7634 9.855L14.8424 9.032C14.6369 8.9435 14.3999 9.0025 14.2589 9.1745L13.9194 9.589C13.1409 10.54 12.7849 11.7695 12.9144 13.0005H9.09094C9.22094 11.7845 8.86394 10.5455 8.08044 9.5885L7.74094 9.1745C7.60044 9.0025 7.36244 8.9435 7.15744 9.032L5.23644 9.855L4.65894 8.6995L6.94094 7.3955Z" fill="black"/>
<path d="M18 18V19C18 19.4415 18.1955 19.835 18.5 20.11V24.5C18.5 24.776 18.724 25 19 25H26C26.276 25 26.5 24.776 26.5 24.5V21.7805C26.5 21.5045 26.276 21.2805 26 21.2805C25.724 21.2805 25.5 21.5045 25.5 21.7805V24H24.25V22C24.25 21.724 24.026 21.5 23.75 21.5H21.25C20.974 21.5 20.75 21.724 20.75 22V24H19.5V20.5C19.8855 20.5 20.234 20.3495 20.5 20.11C20.766 20.35 21.1145 20.5 21.5 20.5C21.8855 20.5 22.234 20.3495 22.5 20.11C22.766 20.35 23.1145 20.5 23.5 20.5C23.8855 20.5 24.234 20.3495 24.5 20.11C24.766 20.35 25.1145 20.5 25.5 20.5C26.327 20.5 27 19.827 27 19V18C27 17.6315 26.7975 17.3125 26.5 17.139V17C26.5 15.897 25.603 15 24.5 15H20.5C19.397 15 18.5 15.897 18.5 17V17.139C18.2025 17.3125 18 17.6315 18 18ZM21.75 22.5H23.25V24H21.75V22.5ZM19.5 19.5C19.2245 19.5 19 19.2755 19 19V18H20V19C20 19.2755 19.7755 19.5 19.5 19.5ZM21.5 19.5C21.2245 19.5 21 19.2755 21 19V18H22V19C22 19.2755 21.7755 19.5 21.5 19.5ZM23.5 19.5C23.2245 19.5 23 19.2755 23 19V18H24V19C24 19.2755 23.7755 19.5 23.5 19.5ZM26 19C26 19.2755 25.7755 19.5 25.5 19.5C25.2245 19.5 25 19.2755 25 19V18H26V19ZM20.5 16H24.5C25.0515 16 25.5 16.4485 25.5 17H19.5C19.5 16.4485 19.9485 16 20.5 16Z" fill="black"/>
<path d="M19.5 14H25.5C25.776 14 26 13.776 26 13.5V11.5C26 11.224 25.776 11 25.5 11H19.5C19.224 11 19 11.224 19 11.5V13.5C19 13.776 19.224 14 19.5 14ZM20 12H25V13H20V12Z" fill="black"/>
</svg>
