<svg xmlns="http://www.w3.org/2000/svg" xmlns:xlink="http://www.w3.org/1999/xlink" width="60" height="60" viewBox="0 0 60 60">
  <defs>
    <clipPath id="clip-path">
      <rect id="Rectangle_12534" data-name="Rectangle 12534" width="53.745" height="54" fill="#fe5c58"/>
    </clipPath>
  </defs>
  <g id="Group_37649" data-name="Group 37649" transform="translate(-423 -1990)">
    <g id="Rectangle_12523" data-name="Rectangle 12523" transform="translate(423 1990)" fill="#fe5c58" stroke="#707070" stroke-width="1" opacity="0">
      <rect width="60" height="60" stroke="none"/>
      <rect x="0.5" y="0.5" width="59" height="59" fill="none"/>
    </g>
    <g id="Group_37653" data-name="Group 37653" transform="translate(426 1993)">
      <g id="Group_37652" data-name="Group 37652" clip-path="url(#clip-path)">
        <path id="Path_105347" data-name="Path 105347" d="M10.636,222.72c0,.442.006.817,0,1.191a1.094,1.094,0,0,1-1.188,1.219q-2.662.017-5.324,0a1.066,1.066,0,1,1,.016-2.123C5.569,223,7,223,8.463,223V207.6H7.884q-3.2,0-6.4,0a3.07,3.07,0,0,1-.641-.044A1.046,1.046,0,0,1,0,206.516a1.068,1.068,0,0,1,.919-1.033,2.772,2.772,0,0,1,.429-.016q3.953,0,7.905,0c1.026,0,1.38.361,1.383,1.4,0,.731,0,1.462,0,2.218a2.54,2.54,0,0,0,2.286-.584c1.432-1.379,2.972-2.644,4.456-3.969a1.714,1.714,0,0,1,1.217-.455q7.1.014,14.2.006c.933,0,1.3.326,1.378,1.269a5.615,5.615,0,0,1-.715,3.2c-.092.17-.188.339-.293.527a.7.7,0,0,0,.946-.344q1.855-2.928,3.758-5.824a6.29,6.29,0,0,1,4.157-2.982,6.442,6.442,0,0,1,3.833.766c.471.207.554.662.394,1.4.591-.149,1.158-.332,1.74-.43a4.826,4.826,0,0,1,4.564,1.424c.235.246.48.483.718.727a1.12,1.12,0,0,1-.172,1.928q-3.112,2.161-6.237,4.3c-1.947,1.342-3.9,2.67-5.836,4.033a10.714,10.714,0,0,1-2.511,1.3c-6.4,2.355-12.785,4.738-19.181,7.1a3.791,3.791,0,0,1-1.253.222c-2.259.021-4.517.01-6.776.01h-.671m40.4-18.107a2.374,2.374,0,0,0-1.662-.883,4.573,4.573,0,0,0-2.825.675c-3.781,2.19-7.556,4.388-11.345,6.562a2.291,2.291,0,0,1-1.064.277c-1.792.028-3.585.013-5.378.013H21.558c-.125,0-.251,0-.376,0a1.069,1.069,0,1,1,.029-2.126c2.6-.006,5.2,0,7.8,0a3.019,3.019,0,0,0,2.976-2.913c-.086-.009-.174-.025-.261-.025-4.23,0-8.461-.006-12.691.01a1.114,1.114,0,0,0-.654.274q-2.464,2.124-4.9,4.283a1.648,1.648,0,0,1-1.215.457c-.531-.018-1.064,0-1.6,0v9.406h.611c2.133,0,4.266.013,6.4-.011a3.972,3.972,0,0,0,1.3-.237c5.408-1.987,10.792-4.036,16.218-5.972a23.265,23.265,0,0,0,6.813-3.547c.6-.478,1.265-.878,1.9-1.316l7.128-4.921m-7.306-2.432a1.752,1.752,0,0,0-.223-.106,2.232,2.232,0,0,0-.313-.07,2.959,2.959,0,0,0-2.843,1.174c-.937,1.173-1.722,2.467-2.649,3.82a2.164,2.164,0,0,0,.3-.086q2.2-1.274,4.4-2.554a.737.737,0,0,0,.276-.241c.356-.637.7-1.283,1.049-1.937" transform="translate(0 -171.139)" fill="#fe5c58"/>
        <path id="Path_105348" data-name="Path 105348" d="M153.644,22.045a12.949,12.949,0,0,1-13.413,13.047A13,13,0,0,1,138.013,9.3a13.36,13.36,0,0,1,5.646.233,3.427,3.427,0,0,1,.56.184,1.038,1.038,0,0,1,.6,1.191,1.018,1.018,0,0,1-1.12.8c-.514-.061-1.019-.2-1.532-.274a10.823,10.823,0,1,0,6.6,3.5c-.558-.645-.579-1.254-.062-1.7s1.1-.333,1.672.321a12.867,12.867,0,0,1,3.259,8.484" transform="translate(-109.044 -7.796)" fill="#fe5c58"/>
        <path id="Path_105349" data-name="Path 105349" d="M186.379,54.058c0-1.131.009-2.273-.015-3.415,0-.11-.193-.279-.324-.312-.537-.137-1.085-.23-1.628-.343a3.352,3.352,0,0,1-2.815-2.622,3.4,3.4,0,0,1,1.31-3.579,4.417,4.417,0,0,1,2.719-1.01c.229-.008.458,0,.56,0a9.218,9.218,0,0,1,.59-1.365c.1-.162.438-.234.672-.243.663-.025.91.342,1.1,1.527a12.167,12.167,0,0,1,1.564.328,3.862,3.862,0,0,1,2.786,3.11,1.873,1.873,0,0,1-.054.841.966.966,0,0,1-1.1.656,1.027,1.027,0,0,1-.913-.919,2.053,2.053,0,0,0-2.332-1.8v2.719c0,.993,0,.994.961,1.226q.365.088.732.172a3.44,3.44,0,0,1,1.851,5.692,4.49,4.49,0,0,1-3.053,1.511c-.14.015-.28.022-.471.036-.022.812-.007,1.725-1.132,1.694-1.06-.029-1.013-.909-1.024-1.658-.556-.062-1.076-.08-1.578-.184a3.948,3.948,0,0,1-3.277-3.674,1.05,1.05,0,0,1,2.084-.214,2.181,2.181,0,0,0,2.787,1.826m-.022-9.128a2.6,2.6,0,0,0-2.393.758,1.256,1.256,0,0,0,.32,2.01,13.469,13.469,0,0,0,2.073.55Zm2.176,9.166a1.984,1.984,0,0,0,2.292-1.684c-.008-1.055-.711-1.4-2.292-1.5Z" transform="translate(-155.411 -35.25)" fill="#fe5c58"/>
        <path id="Path_105350" data-name="Path 105350" d="M96.692,5.473c0,1.415,0,2.83,0,4.244,0,.756-.407,1.237-1.034,1.25a1.083,1.083,0,0,1-1.075-1.214q-.014-4.271,0-8.542c0-.761.426-1.217,1.068-1.212s1.039.46,1.042,1.229c0,1.415,0,2.83,0,4.244" transform="translate(-80.982 0)" fill="#fe5c58"/>
        <path id="Path_105351" data-name="Path 105351" d="M60.01,78.16c0,1.4,0,2.791,0,4.187,0,.773-.388,1.224-1.036,1.232s-1.071-.443-1.074-1.2q-.014-4.214,0-8.428c0-.759.42-1.233,1.045-1.242.649-.01,1.063.476,1.066,1.266,0,1.4,0,2.791,0,4.187" transform="translate(-49.572 -62.258)" fill="#fe5c58"/>
        <path id="Path_105352" data-name="Path 105352" d="M332.955,54.6c0-1.343,0-2.686,0-4.029,0-.776.385-1.227,1.032-1.236s1.069.436,1.071,1.2q.014,4.056,0,8.112c0,.758-.435,1.231-1.063,1.224s-1.037-.495-1.04-1.244c-.005-1.343,0-2.686,0-4.029" transform="translate(-285.103 -42.247)" fill="#fe5c58"/>
        <path id="Path_105353" data-name="Path 105353" d="M96.682,99.1c0,.948.007,1.9,0,2.844a1.056,1.056,0,1,1-2.1.03q-.026-2.924,0-5.848a1.052,1.052,0,1,1,2.1.023c.011.984,0,1.967,0,2.951" transform="translate(-80.973 -81.372)" fill="#fe5c58"/>
        <path id="Path_105354" data-name="Path 105354" d="M332.967,146.308a1.059,1.059,0,1,1,2.106-.049,1.092,1.092,0,0,1-1.059,1.23,1.078,1.078,0,0,1-1.047-1.182" transform="translate(-285.115 -124.264)" fill="#fe5c58"/>
        <path id="Path_105355" data-name="Path 105355" d="M60.049,161.218a1.072,1.072,0,0,1-1.03,1.14,1.085,1.085,0,0,1-1.079-1.152,1.05,1.05,0,0,1,1.064-1.1,1.038,1.038,0,0,1,1.045,1.109" transform="translate(-49.613 -137.099)" fill="#fe5c58"/>
        <path id="Path_105356" data-name="Path 105356" d="M21.458,274.931A1.059,1.059,0,1,1,20.411,276a1.073,1.073,0,0,1,1.047-1.072" transform="translate(-17.478 -235.419)" fill="#fe5c58"/>
      </g>
    </g>
  </g>
</svg>
