<svg xmlns="http://www.w3.org/2000/svg" xmlns:xlink="http://www.w3.org/1999/xlink" width="60" height="60" viewBox="0 0 60 60">
  <defs>
    <clipPath id="clip-path">
      <rect id="Rectangle_12561" data-name="Rectangle 12561" width="54.034" height="54" fill="#fe5c58"/>
    </clipPath>
  </defs>
  <g id="Group_37646" data-name="Group 37646" transform="translate(-423 -1990)">
    <g id="Rectangle_12523" data-name="Rectangle 12523" transform="translate(423 1990)" fill="#fe5c58" stroke="#707070" stroke-width="1" opacity="0">
      <rect width="60" height="60" stroke="none"/>
      <rect x="0.5" y="0.5" width="59" height="59" fill="none"/>
    </g>
    <g id="Group_37681" data-name="Group 37681" transform="translate(426 1993)">
      <g id="Group_37680" data-name="Group 37680" clip-path="url(#clip-path)">
        <path id="Path_105427" data-name="Path 105427" d="M0,28.587V25.422c.033-.188.072-.375.1-.564.165-1.127.266-2.267.5-3.379A26.38,26.38,0,0,1,6.918,9.113,26.794,26.794,0,0,1,22.41.422c1-.18,2.008-.283,3.013-.422h3.165c.17.033.339.072.51.1,1.129.161,2.276.239,3.384.492A26.871,26.871,0,0,1,50.574,14.013a25.55,25.55,0,0,1,2.843,18.475A26.519,26.519,0,0,1,43.329,48.38a26.145,26.145,0,0,1-18.958,5.491,25.536,25.536,0,0,1-12.026-4.3A26.946,26.946,0,0,1,.415,31.552C.232,30.572.136,29.576,0,28.587m35.718-1.78a4.449,4.449,0,0,0,3.366-1.183c.633-.584,1.221-1.215,1.842-1.812a1.581,1.581,0,1,1,2.25,2.218c-.41.435-.852.839-1.264,1.272A8,8,0,0,1,35.1,29.964a.636.636,0,0,0-.441.076c-.4.385-.767.8-1.073,1.131L44.942,42.524a23.433,23.433,0,0,0-1.129-32.267A23.4,23.4,0,0,0,11.462,9.1l10.89,10.89c.291-.277.6-.61.956-.9a.7.7,0,0,0,.288-.719,7.329,7.329,0,0,1,.447-3.517c.719-2.008,2.264-3.365,3.786-4.713a1.517,1.517,0,0,1,2.334.757,1.584,1.584,0,0,1-.435,1.735c-.707.734-1.458,1.431-2.1,2.216a4.233,4.233,0,0,0-.894,3,10.423,10.423,0,0,1,1.29.331.642.642,0,0,0,.821-.172,13.475,13.475,0,0,1,1.579-1.469,4.629,4.629,0,0,1,4-.735,1.12,1.12,0,0,0,.071-.178,7.887,7.887,0,0,0-.771-5.317,1.608,1.608,0,1,1,2.854-1.386,10.873,10.873,0,0,1,1.211,4.7c.014.763,0,1.527,0,2.31-.025-.008.007.012.04.011.228-.007.456-.018.684-.029A12.254,12.254,0,0,1,44.921,17.3c.078.041.159.075.235.12A1.577,1.577,0,0,1,45.84,19.5a1.607,1.607,0,0,1-2.11.737,24.917,24.917,0,0,0-2.659-.971,7.982,7.982,0,0,0-3.294-.1,2.26,2.26,0,0,0,.014.258,4.61,4.61,0,0,1-1.1,4.114c-.4.447-.839.852-1.244,1.29a.546.546,0,0,0-.167.392c.122.524.287,1.038.444,1.582M23.628,39.323a7.949,7.949,0,0,1-9.4-9.415,6.08,6.08,0,0,0-2.969,1.319c-.581.481-1.1,1.033-1.674,1.526A1.573,1.573,0,0,1,7.434,32.7a1.537,1.537,0,0,1-.076-2.145,10.561,10.561,0,0,1,8.074-3.937.856.856,0,0,0,.551-.21c1.136-1.125,2.254-2.269,3.377-3.409.119-.12.231-.247.349-.373a.979.979,0,0,0-.116-.086.882.882,0,0,0-.147-.057,4.79,4.79,0,0,0-4.774,1.179,1.55,1.55,0,0,1-2.262-.076,1.516,1.516,0,0,1,.166-2.247,16.11,16.11,0,0,1,2.456-1.592,10.081,10.081,0,0,1,1.744-.582L9.085,11.469A23.452,23.452,0,0,0,11.1,44.612a23.339,23.339,0,0,0,31.4.3L34.817,37.23a1.331,1.331,0,0,0-.043.136c-.03.119-.053.24-.081.359a7.816,7.816,0,0,1-2.031,3.748,1.575,1.575,0,1,1-2.358-2.09c.154-.192.321-.373.473-.566a4.56,4.56,0,0,0,.312-5.136,1.719,1.719,0,0,0-.159.124c-1.289,1.271-2.581,2.539-3.858,3.823a.927.927,0,0,0-.179.511c-.115.886-.141,1.789-.331,2.658a10.515,10.515,0,0,1-2.916,5.217,1.556,1.556,0,0,1-2.19.05,1.584,1.584,0,0,1-.147-2.149c.182-.236.384-.458.576-.686a7.678,7.678,0,0,0,1.742-3.906m3.153-10.16-6.734,6.743a4.379,4.379,0,0,0,4.678-.514c1.522-1.251,2.863-2.721,4.23-4.044l-2.173-2.185m-9.153,4.3,6.751-6.759-2.146-2.145c-1.347,1.387-2.807,2.717-4.054,4.223a4.378,4.378,0,0,0-.551,4.681m13.667-4.482c.257-.265.524-.519.766-.8A1.526,1.526,0,0,0,32.045,26q-2.225-2.277-4.5-4.5a1.5,1.5,0,0,0-1.933-.2,11.442,11.442,0,0,0-1.047.952l6.73,6.727m-.3-8.692,2.226,2.255c.344-.341.732-.7,1.084-1.085a1.571,1.571,0,0,0-2.209-2.231c-.393.347-.756.726-1.1,1.061" fill="#fe5c58"/>
      </g>
    </g>
  </g>
</svg>
