<svg width="32" height="32" viewBox="0 0 32 32" fill="none" xmlns="http://www.w3.org/2000/svg">
<g clip-path="url(#clip0_25_982)">
<path d="M18.791 24.1784C18.0494 24.3236 17.3582 24.6587 16.7848 25.151C16.2115 25.6432 15.7757 26.2758 15.52 26.9869C15.133 28.0833 14.9346 29.2375 14.9333 30.4002C14.9333 30.8246 15.1019 31.2315 15.402 31.5316C15.702 31.8317 16.109 32.0002 16.5333 32.0002H30.4C30.8244 32.0002 31.2313 31.8317 31.5314 31.5316C31.8314 31.2315 32 30.8246 32 30.4002C31.9985 29.2375 31.8001 28.0834 31.4134 26.9869C31.1593 26.2782 30.7262 25.6473 30.1561 25.1556C29.586 24.6639 28.8983 24.3282 28.16 24.181L25.6 23.5778V23.3144C26.4312 22.9259 27.1464 22.3269 27.6747 21.5768C27.9758 20.9739 28.1665 20.322 28.2379 19.652C28.5568 19.546 28.8343 19.3423 29.0309 19.0697C29.2275 18.7972 29.3334 18.4696 29.3334 18.1336V14.9336C29.3334 13.3776 28.7153 11.8854 27.615 10.7852C26.5148 9.68499 25.0226 9.06689 23.4667 9.06689C21.9107 9.06689 20.4185 9.68499 19.3183 10.7852C18.2181 11.8854 17.6 13.3776 17.6 14.9336V18.1336C17.6 18.4696 17.7058 18.7972 17.9025 19.0697C18.0991 19.3423 18.3766 19.546 18.6955 19.652C18.7669 20.3224 18.9579 20.9747 19.2592 21.5778C19.7875 22.3276 20.5025 22.9264 21.3333 23.3149V23.5778L18.791 24.1784ZM26.2576 24.829L25.0011 26.2077C24.9811 26.2305 24.9565 26.2487 24.9289 26.2612C24.9013 26.2737 24.8714 26.2802 24.8411 26.2802C24.7803 26.2757 24.7234 26.2489 24.6811 26.205L24.1936 25.6301L25.2336 24.5869L26.2576 24.829ZM25.8667 30.9336H25.4507L24.5755 28.308L25.0667 27.3229C25.3451 27.2736 25.5994 27.1335 25.7899 26.9245L27.1766 25.404C27.2646 26.9714 27.1136 29.2392 25.8667 30.9336ZM19.7557 25.404L21.1424 26.9229C21.3331 27.1365 21.5897 27.2803 21.8715 27.3314L22.36 28.308L21.4827 30.9336H21.0667C19.8197 29.2392 19.6688 26.9714 19.7557 25.404ZM23.4667 26.4248L23.8645 26.8946C23.9114 26.947 23.9624 26.9955 24.0171 27.0397L23.6704 27.733H23.263L22.9163 27.0397C22.9708 26.9955 23.0216 26.947 23.0683 26.8946L23.4667 26.4248ZM23.3174 28.8002H23.616L24.3269 30.9336H22.6064L23.3174 28.8002ZM23.4667 24.8461L22.408 23.7869C22.7475 23.9133 23.1048 23.9853 23.4667 24.0002C23.8286 23.9853 24.1859 23.9133 24.5254 23.7869L23.4667 24.8461ZM22.7424 25.6301L22.2544 26.205C22.2344 26.2284 22.2095 26.2473 22.1815 26.2601C22.1535 26.273 22.1231 26.2797 22.0923 26.2797C22.0615 26.2797 22.031 26.273 22.003 26.2601C21.975 26.2473 21.9502 26.2284 21.9301 26.205L20.6757 24.8285L21.6998 24.5869L22.7424 25.6301ZM16 30.4002C16.0012 29.3578 16.1788 28.3231 16.5254 27.34C16.7015 26.8547 16.9895 26.4177 17.3661 26.0646C17.7427 25.7114 18.1972 25.452 18.6928 25.3074C18.6037 26.8616 18.7275 29.0765 19.7931 30.9336H16.5333C16.3919 30.9336 16.2562 30.8774 16.1562 30.7774C16.0562 30.6773 16 30.5417 16 30.4002ZM30.4085 27.34C30.7547 28.3232 30.9321 29.3579 30.9334 30.4002C30.9334 30.5417 30.8772 30.6773 30.7771 30.7774C30.6771 30.8774 30.5415 30.9336 30.4 30.9336H27.1403C28.0297 29.1989 28.4111 27.2483 28.2406 25.3064C28.7363 25.4511 29.191 25.7106 29.5677 26.0639C29.9444 26.4173 30.2325 26.8544 30.4085 27.34V27.34ZM18.6667 14.9336C18.6667 13.6605 19.1724 12.4396 20.0726 11.5394C20.9727 10.6393 22.1936 10.1336 23.4667 10.1336C24.7397 10.1336 25.9606 10.6393 26.8608 11.5394C27.761 12.4396 28.2667 13.6605 28.2667 14.9336V16.4376C28.266 16.0557 28.1287 15.6866 27.8797 15.3971C27.6307 15.1076 27.2863 14.9167 26.9088 14.8589C25.9377 14.7386 25.0116 14.3794 24.2134 13.8136C23.9986 13.6499 23.7359 13.5617 23.4659 13.5625C23.1959 13.5634 22.9337 13.6533 22.72 13.8184C21.9203 14.378 20.9969 14.7356 20.0288 14.8605C19.6508 14.9173 19.3057 15.1076 19.0558 15.3969C18.806 15.6862 18.6679 16.0553 18.6667 16.4376V14.9336ZM20.208 21.0904C19.9177 20.5029 19.7559 19.8604 19.7333 19.2056C19.7341 19.1351 19.7208 19.0651 19.6943 18.9998C19.6678 18.9345 19.6286 18.8751 19.579 18.825C19.5294 18.7749 19.4704 18.7351 19.4054 18.708C19.3403 18.6809 19.2705 18.6669 19.2 18.6669C19.0586 18.6669 18.9229 18.6107 18.8229 18.5107C18.7229 18.4107 18.6667 18.275 18.6667 18.1336C18.6667 17.9921 18.7229 17.8565 18.8229 17.7564C18.9229 17.6564 19.0586 17.6002 19.2 17.6002C19.3415 17.6002 19.4771 17.544 19.5771 17.444C19.6772 17.344 19.7333 17.2083 19.7333 17.0669V16.4376C19.7328 16.3115 19.7775 16.1895 19.8591 16.0935C19.9408 15.9975 20.0542 15.934 20.1787 15.9144C21.3282 15.7687 22.4233 15.3386 23.3648 14.6632C23.3952 14.6393 23.4328 14.6266 23.4715 14.6269C23.5054 14.6267 23.5384 14.6378 23.5654 14.6584C24.5079 15.3365 25.6049 15.7682 26.7568 15.9144C26.8809 15.9344 26.9938 15.9982 27.075 16.0941C27.1563 16.19 27.2006 16.3118 27.2 16.4376V17.0669C27.2 17.2083 27.2562 17.344 27.3562 17.444C27.4562 17.544 27.5919 17.6002 27.7334 17.6002C27.8748 17.6002 28.0105 17.6564 28.1105 17.7564C28.2105 17.8565 28.2667 17.9921 28.2667 18.1336C28.2667 18.275 28.2105 18.4107 28.1105 18.5107C28.0105 18.6107 27.8748 18.6669 27.7334 18.6669C27.663 18.6669 27.5933 18.6808 27.5284 18.7078C27.4634 18.7349 27.4045 18.7745 27.3549 18.8244C27.3053 18.8743 27.2661 18.9336 27.2395 18.9987C27.213 19.0639 27.1995 19.1336 27.2 19.204C27.1778 19.859 27.0161 20.5017 26.7259 21.0893C26.3707 21.7789 24.3296 22.9336 23.4667 22.9336C22.6037 22.9336 20.5627 21.7789 20.208 21.0904Z" fill="black"/>
<path d="M1.06667 30.4002H8.53333V30.9282C8.53115 31.1309 8.58672 31.3299 8.69354 31.5021C8.80036 31.6743 8.95402 31.8125 9.13653 31.9005C9.31189 31.9847 9.50767 32.0169 9.70074 31.9933C9.89381 31.9698 10.0761 31.8915 10.2261 31.7677L13.4795 29.101C13.601 28.9979 13.6986 28.8695 13.7654 28.7247C13.8322 28.58 13.8665 28.4224 13.8661 28.263C13.8657 28.1036 13.8305 27.9462 13.763 27.8018C13.6955 27.6574 13.5973 27.5294 13.4752 27.4269L10.2219 24.764C10.0721 24.6407 9.89017 24.5628 9.69757 24.5396C9.50497 24.5163 9.30974 24.5487 9.13493 24.6328C8.95256 24.7211 8.79912 24.8596 8.69258 25.032C8.58603 25.2043 8.5308 25.4035 8.53333 25.6061V26.1336H1.06667C0.783769 26.1336 0.512458 26.246 0.312419 26.446C0.112381 26.646 0 26.9174 0 27.2002L0 29.3336C0 29.6165 0.112381 29.8878 0.312419 30.0878C0.512458 30.2879 0.783769 30.4002 1.06667 30.4002ZM1.06667 27.2002H9.06667C9.20812 27.2002 9.34377 27.1441 9.44379 27.044C9.54381 26.944 9.6 26.8084 9.6 26.6669L9.54987 25.5912L12.8 28.2808L9.6 30.9277V29.8669C9.6 29.7255 9.54381 29.5898 9.44379 29.4898C9.34377 29.3898 9.20812 29.3336 9.06667 29.3336H1.06667V27.2002Z" fill="black"/>
<path d="M32 2.66679C32 2.38389 31.8876 2.11258 31.6876 1.91254C31.4875 1.7125 31.2162 1.60012 30.9333 1.60012H23.4667V1.07266C23.4689 0.870037 23.4133 0.670987 23.3065 0.498802C23.1996 0.326617 23.046 0.188421 22.8635 0.10039C22.6881 0.016128 22.4923 -0.0160964 22.2991 0.00753499C22.106 0.0311664 21.9237 0.109663 21.7739 0.233723L18.5205 2.90039C18.399 3.00353 18.3014 3.13196 18.2346 3.27671C18.1678 3.42146 18.1334 3.57904 18.1339 3.73845C18.1343 3.89786 18.1695 4.05526 18.237 4.19967C18.3045 4.34407 18.4027 4.472 18.5248 4.57452L21.7781 7.23746C21.928 7.36059 22.1099 7.43835 22.3025 7.46159C22.495 7.48483 22.6902 7.45259 22.8651 7.36866C23.0476 7.28024 23.2012 7.14162 23.3077 6.96903C23.4143 6.79645 23.4694 6.59707 23.4667 6.39426V5.86679H30.9333C31.2162 5.86679 31.4875 5.75441 31.6876 5.55437C31.8876 5.35433 32 5.08302 32 4.80012V2.66679ZM30.9333 4.80012H22.9333C22.7919 4.80012 22.6562 4.85631 22.5562 4.95633C22.4562 5.05635 22.4 5.19201 22.4 5.33346L22.4501 6.40919L19.2 3.71959L22.4 1.07266V2.13346C22.4 2.27491 22.4562 2.41056 22.5562 2.51058C22.6562 2.6106 22.7919 2.66679 22.9333 2.66679H30.9333V4.80012Z" fill="black"/>
<path d="M0.533333 3.05173V20.8C0.533333 21.0829 0.645714 21.3542 0.845753 21.5542C1.04579 21.7543 1.3171 21.8667 1.6 21.8667H15.4667C15.7496 21.8667 16.0209 21.7543 16.2209 21.5542C16.421 21.3542 16.5333 21.0829 16.5333 20.8V3.05173C16.695 2.95886 16.8293 2.82511 16.9229 2.66392C17.0165 2.50272 17.0661 2.31974 17.0667 2.13333V1.06667C17.0667 0.783769 16.9543 0.512458 16.7542 0.312419C16.5542 0.112381 16.2829 0 16 0L1.06667 0C0.783769 0 0.512458 0.112381 0.312419 0.312419C0.112381 0.512458 0 0.783769 0 1.06667L0 2.13333C0.000562104 2.31974 0.0501351 2.50272 0.143745 2.66392C0.237356 2.82511 0.371712 2.95886 0.533333 3.05173V3.05173ZM10.1333 20.8H6.93333V17.6H10.1333V20.8ZM11.2 20.8V17.6C11.2 17.3171 11.0876 17.0458 10.8876 16.8458C10.6875 16.6457 10.4162 16.5333 10.1333 16.5333H6.93333C6.65044 16.5333 6.37913 16.6457 6.17909 16.8458C5.97905 17.0458 5.86667 17.3171 5.86667 17.6V20.8H1.6V3.2H15.4667V20.8H11.2ZM1.06667 1.06667H16V2.13333H1.06667V1.06667Z" fill="black"/>
<path d="M6.93335 10.667H3.73335C3.45046 10.667 3.17915 10.7794 2.97911 10.9794C2.77907 11.1795 2.66669 11.4508 2.66669 11.7337V13.867C2.66669 14.1499 2.77907 14.4212 2.97911 14.6212C3.17915 14.8213 3.45046 14.9337 3.73335 14.9337H6.93335C7.21625 14.9337 7.48756 14.8213 7.6876 14.6212C7.88764 14.4212 8.00002 14.1499 8.00002 13.867V11.7337C8.00002 11.4508 7.88764 11.1795 7.6876 10.9794C7.48756 10.7794 7.21625 10.667 6.93335 10.667ZM3.73335 13.867V11.7337H6.93335V13.867H3.73335Z" fill="black"/>
<path d="M13.3333 10.667H10.1333C9.85042 10.667 9.57911 10.7794 9.37907 10.9794C9.17903 11.1795 9.06665 11.4508 9.06665 11.7337V13.867C9.06665 14.1499 9.17903 14.4212 9.37907 14.6212C9.57911 14.8213 9.85042 14.9337 10.1333 14.9337H13.3333C13.6162 14.9337 13.8875 14.8213 14.0876 14.6212C14.2876 14.4212 14.4 14.1499 14.4 13.867V11.7337C14.4 11.4508 14.2876 11.1795 14.0876 10.9794C13.8875 10.7794 13.6162 10.667 13.3333 10.667ZM10.1333 13.867V11.7337H13.3333V13.867H10.1333Z" fill="black"/>
<path d="M6.93335 4.80029H3.73335C3.45046 4.80029 3.17915 4.91267 2.97911 5.11271C2.77907 5.31275 2.66669 5.58406 2.66669 5.86696V8.00029C2.66669 8.28319 2.77907 8.5545 2.97911 8.75454C3.17915 8.95458 3.45046 9.06696 3.73335 9.06696H6.93335C7.21625 9.06696 7.48756 8.95458 7.6876 8.75454C7.88764 8.5545 8.00002 8.28319 8.00002 8.00029V5.86696C8.00002 5.58406 7.88764 5.31275 7.6876 5.11271C7.48756 4.91267 7.21625 4.80029 6.93335 4.80029ZM3.73335 8.00029V5.86696H6.93335V8.00029H3.73335Z" fill="black"/>
<path d="M13.3333 4.80029H10.1333C9.85042 4.80029 9.57911 4.91267 9.37907 5.11271C9.17903 5.31275 9.06665 5.58406 9.06665 5.86696V8.00029C9.06665 8.28319 9.17903 8.5545 9.37907 8.75454C9.57911 8.95458 9.85042 9.06696 10.1333 9.06696H13.3333C13.6162 9.06696 13.8875 8.95458 14.0876 8.75454C14.2876 8.5545 14.4 8.28319 14.4 8.00029V5.86696C14.4 5.58406 14.2876 5.31275 14.0876 5.11271C13.8875 4.91267 13.6162 4.80029 13.3333 4.80029ZM10.1333 8.00029V5.86696H13.3333V8.00029H10.1333Z" fill="black"/>
</g>
<defs>
<clipPath id="clip0_25_982">
<rect width="32" height="32" fill="white"/>
</clipPath>
</defs>
</svg>
