<svg width="32" height="32" viewBox="0 0 32 32" fill="none" xmlns="http://www.w3.org/2000/svg">
<path d="M1.71144 19.6299C1.816 19.9134 1.98075 20.1685 2.19156 20.3776C2.56537 20.7514 3.07925 20.9834 3.64613 20.9834C4.21131 20.9834 4.72688 20.7514 5.10063 20.3776C5.47444 20.0038 5.7065 19.4883 5.7065 18.9231V17.7768C5.2725 17.814 4.89156 17.7201 4.59394 17.5961C4.56731 17.7254 4.53725 17.8512 4.49825 17.9752C4.35119 18.4535 4.10494 18.8894 3.71519 19.2029C3.32013 19.5219 2.79575 19.7061 2.10119 19.6706C1.97719 19.6653 1.84781 19.6512 1.71144 19.6299V19.6299ZM13.8546 16.5597H17.9754V15.2646H14.8024C14.5419 15.2646 14.3045 15.3727 14.1327 15.5445C13.9608 15.7164 13.8546 15.952 13.8546 16.2124V16.5597ZM17.9754 17.4969H13.8545V18.923C13.8545 19.4882 14.0866 20.0038 14.4604 20.3775C14.8341 20.7513 15.3497 20.9834 15.9149 20.9834C16.4818 20.9834 16.9973 20.7513 17.3694 20.3775C17.7432 20.0038 17.9753 19.4882 17.9753 18.923V17.4969H17.9754ZM30.8201 20.6256C31.0716 20.7585 31.2931 20.9393 31.4756 21.1536C31.8033 21.5398 32 22.0376 32 22.5779V25.7386C32 25.9973 31.7909 26.2063 31.5323 26.2063C31.2737 26.2063 31.0628 25.9972 31.0628 25.7386V22.5779C31.0628 22.2662 30.9494 21.9791 30.7616 21.7577C30.5951 21.561 30.3701 21.4158 30.1132 21.3467C29.6189 21.7081 29.0111 21.9207 28.3557 21.9207C27.6772 21.9207 27.0499 21.6939 26.545 21.3095C26.4494 21.3201 26.3572 21.3468 26.2686 21.3875C26.1481 21.4441 26.0383 21.531 25.9497 21.6479L23.4321 24.9822C23.3436 25.0991 23.2054 25.17 23.0584 25.17H19.8322C19.593 25.17 19.3769 25.2656 19.221 25.4215C19.0651 25.5792 18.9676 25.7953 18.9676 26.0328C18.9676 26.2719 19.0651 26.4881 19.221 26.6439C19.3769 26.7998 19.593 26.8973 19.8322 26.8973H23.6855C23.8397 26.8973 23.9584 26.8814 24.1055 26.8069C24.3783 26.6705 24.6334 26.256 24.8194 26.0079L26.4866 23.8023C26.6425 23.595 26.9348 23.5542 27.1421 23.7101C27.3476 23.866 27.3883 24.1601 27.2324 24.3656L25.6468 26.4668V30.5522H31.0628V27.861C31.0628 27.6023 31.2736 27.3933 31.5323 27.3933C31.791 27.3933 32 27.6024 32 27.861V31.0216C32 31.2803 31.7909 31.4893 31.5323 31.4893C21.1768 31.4893 10.8232 31.4893 0.4695 31.4893C0.210875 31.4893 0 31.2803 0 31.0216V27.861C0 27.6023 0.210875 27.3933 0.4695 27.3933C0.728188 27.3933 0.937187 27.6024 0.937187 27.861V30.5522H6.355V26.4668L4.76762 24.3656C4.61175 24.1601 4.6525 23.866 4.85981 23.7101C5.06531 23.5542 5.35938 23.5949 5.51531 23.8023L7.14519 25.9601C7.294 26.1568 7.44288 26.3551 7.59163 26.5536C7.67663 26.6652 7.78119 26.7503 7.89638 26.8069C8.02569 26.8725 8.14619 26.8973 8.28794 26.8973H12.1696C12.4071 26.8973 12.6232 26.7998 12.7808 26.6439C12.9367 26.4881 13.0324 26.2719 13.0324 26.0328C13.0324 25.7953 12.9367 25.5792 12.7808 25.4215C12.6232 25.2656 12.4071 25.17 12.1696 25.17H8.94169C8.79994 25.17 8.66 25.1044 8.56794 24.9822L6.05037 21.6479C5.90681 21.4583 5.69244 21.3361 5.45512 21.3095C4.95194 21.6922 4.32481 21.9207 3.64625 21.9207C2.99075 21.9207 2.38125 21.7081 1.887 21.3485C1.63544 21.4141 1.41219 21.5576 1.24563 21.7489C1.05425 21.9721 0.937312 22.2609 0.937312 22.578V25.7386C0.937312 25.9973 0.72825 26.2063 0.469625 26.2063C0.211 26.2063 0.000125 25.9973 0.000125 25.7386V22.578C0.000125 22.0306 0.203875 21.5257 0.538688 21.1377C0.719438 20.9304 0.937313 20.755 1.18181 20.6257C0.832813 20.1243 0.648562 19.5326 0.648562 18.9231V16.2125C0.648562 15.6934 0.859375 15.2221 1.20131 14.8803C1.54331 14.5401 2.01275 14.3275 2.53181 14.3275H4.75875C5.27787 14.3275 5.74913 14.5401 6.091 14.8803C6.433 15.2222 6.64381 15.6934 6.64381 16.2125V18.9231C6.64381 19.5237 6.46487 20.0854 6.15831 20.5548C6.41169 20.6824 6.626 20.8578 6.79787 21.0846L9.17375 24.231H11.0499V22.3301C11.0499 21.7915 11.3351 21.3043 11.7975 20.8914C12.1554 20.5726 12.6267 20.2944 13.1476 20.0748C12.9987 19.7186 12.9173 19.3306 12.9173 18.9231V17.0292V16.2124C12.9173 15.6933 13.1299 15.2221 13.4701 14.8802C13.8121 14.5401 14.2833 14.3274 14.8024 14.3274H18.4449C18.7036 14.3274 18.9144 14.5383 18.9144 14.7969V17.0293V18.9231C18.9144 19.3076 18.8401 19.6761 18.7072 20.0163C19.267 20.2359 19.7737 20.5194 20.1564 20.8489C20.6471 21.2706 20.9501 21.7737 20.9501 22.33V24.2309H22.8263L25.2021 21.0845C25.3776 20.8541 25.5972 20.677 25.8435 20.5566C25.5352 20.0853 25.3563 19.5237 25.3563 18.9231V16.2124C25.3563 15.6933 25.5689 15.2221 25.9091 14.8802C26.251 14.5401 26.7222 14.3274 27.2413 14.3274H29.4684C29.9874 14.3274 30.4587 14.54 30.8006 14.8802C31.1407 15.2221 31.3534 15.6934 31.3534 16.2124V18.9231C31.3533 19.5324 31.1673 20.1242 30.8201 20.6256ZM30.2886 19.6299C30.1539 19.6512 30.0228 19.6653 29.8988 19.6706C29.2061 19.7061 28.6816 19.5218 28.2866 19.2029C27.895 18.8894 27.6488 18.4536 27.5017 17.9752C27.4644 17.8512 27.4326 17.7254 27.4077 17.5961C27.1084 17.7201 26.7293 17.8139 26.2934 17.7768V18.9231C26.2934 19.4883 26.5255 20.0038 26.8993 20.3776C27.2731 20.7514 27.7887 20.9834 28.3556 20.9834C28.9208 20.9834 29.4364 20.7514 29.8102 20.3776C30.0193 20.1685 30.184 19.9134 30.2886 19.6299V19.6299ZM26.2934 16.8378C26.9188 16.9264 27.3759 16.5632 27.4574 16.4923C27.5496 16.4144 27.6363 16.3666 27.7621 16.3612C28.0208 16.3488 28.2387 16.5473 28.2511 16.8059C28.2671 17.1106 28.3095 17.4189 28.3963 17.7006C28.492 18.0141 28.6426 18.2905 28.8712 18.4748C29.0962 18.6555 29.4134 18.7583 29.8545 18.7369C30.0246 18.7281 30.2106 18.7016 30.4161 18.6554V16.2123C30.4161 15.9519 30.308 15.7163 30.1361 15.5444C29.9643 15.3726 29.7286 15.2644 29.4683 15.2644H27.2412C26.9808 15.2644 26.7451 15.3726 26.5733 15.5444C26.4014 15.7163 26.2934 15.9519 26.2934 16.2123V16.8378ZM5.70656 16.8378V16.2124C5.70656 15.9519 5.60031 15.7163 5.42844 15.5444C5.25663 15.3726 5.01919 15.2645 4.75875 15.2645H2.53169C2.27306 15.2645 2.03562 15.3726 1.86375 15.5444C1.69194 15.7163 1.58563 15.9519 1.58563 16.2124V18.6555C1.78938 18.7016 1.97537 18.7281 2.1455 18.737C2.58669 18.7583 2.90381 18.6555 3.12875 18.4748C3.35731 18.2906 3.50788 18.0142 3.60538 17.7006C3.69219 17.4189 3.73469 17.1107 3.74887 16.8059C3.76125 16.5473 3.98094 16.3489 4.23781 16.3613C4.35831 16.3666 4.45038 16.4109 4.539 16.4888C4.60463 16.5473 5.06881 16.9281 5.70656 16.8378V16.8378ZM13.6491 20.8808C13.16 21.0703 12.7277 21.3113 12.4194 21.5877C12.1519 21.8251 11.9871 22.0802 11.9871 22.33V24.2309H12.1696C12.6658 24.2309 13.1175 24.4329 13.4435 24.7589C13.7695 25.0849 13.9714 25.5349 13.9714 26.0328C13.9714 26.3463 13.8899 26.6404 13.75 26.8973H18.25C18.1101 26.6404 18.0303 26.3463 18.0303 26.0328C18.0303 25.5349 18.2323 25.0849 18.5583 24.7589C18.8843 24.4329 19.3342 24.2309 19.8321 24.2309H20.0129V22.33C20.0129 22.0713 19.8357 21.8056 19.5487 21.5593C19.2121 21.2706 18.7443 21.0208 18.2234 20.8312C18.1632 20.9038 18.0994 20.9747 18.0339 21.0403C17.49 21.5841 16.7406 21.9208 15.915 21.9208C15.0911 21.9208 14.34 21.5841 13.7979 21.0403C13.7464 20.9888 13.6968 20.9357 13.6491 20.8808V20.8808ZM3.90656 3.98088C3.64788 3.98088 3.43887 3.77007 3.43887 3.51138C3.43887 3.25269 3.64794 3.04369 3.90656 3.04369H12.5842C12.8429 3.04369 13.0519 3.25275 13.0519 3.51138C13.0519 3.77007 12.8428 3.98088 12.5842 3.98088H3.90656ZM3.90656 8.91319C3.64788 8.91319 3.43887 8.70238 3.43887 8.44369C3.43887 8.185 3.64794 7.97419 3.90656 7.97419H8.24544C8.50413 7.97419 8.71494 8.185 8.71494 8.44369C8.71494 8.70238 8.50413 8.91319 8.24544 8.91319H3.90656ZM3.90656 6.44707C3.64788 6.44707 3.43887 6.23619 3.43887 5.97757C3.43887 5.71888 3.64794 5.50988 3.90656 5.50988H12.5842C12.8429 5.50988 13.0519 5.71894 13.0519 5.97757C13.0519 6.23619 12.8428 6.44707 12.5842 6.44707H3.90656ZM13.0643 11.4449C13.1299 11.6274 13.2344 11.7903 13.3673 11.9232C13.6047 12.1624 13.9343 12.3112 14.3009 12.3112H17.0559C17.3146 12.3112 17.5236 12.5203 17.5236 12.7807C17.5236 13.0394 17.3145 13.2484 17.0559 13.2484H14.3009C13.6756 13.2484 13.1121 12.9933 12.7046 12.5823C12.3999 12.2758 12.1838 11.8825 12.0916 11.4449H5.556L3.43356 13.5673C3.34856 13.6524 3.23163 13.7055 3.1005 13.7055C2.84181 13.7055 2.631 13.4964 2.631 13.2378V11.4059C2.03569 11.3067 1.50237 11.0215 1.09319 10.6104C0.577625 10.0966 0.25875 9.38619 0.25875 8.60313V3.352C0.25875 2.57069 0.577687 1.86025 1.09319 1.34475C1.60694 0.830941 2.31738 0.510254 3.1005 0.510254H13.3904C14.1734 0.510254 14.8839 0.830941 15.3977 1.34475C15.9133 1.86025 16.2321 2.57069 16.2321 3.352V4.22013H24.1941C24.8159 4.22013 25.3794 4.4735 25.7886 4.88275C26.1979 5.292 26.4513 5.85538 26.4513 6.47725V10.9914C26.4513 11.6133 26.1979 12.1767 25.7886 12.5859C25.4856 12.8889 25.0959 13.1068 24.6619 13.199V15.0415C24.6619 15.1602 24.6176 15.2806 24.5254 15.3728C24.3429 15.5553 24.0453 15.5553 23.8627 15.3728L21.7386 13.2486H19.1785C18.9198 13.2486 18.709 13.0395 18.709 12.7809C18.709 12.5204 18.9198 12.3114 19.1785 12.3114H21.9334C22.0646 12.3114 22.1814 12.3646 22.2665 12.4513L23.7246 13.9094V12.7808C23.7246 12.5204 23.9354 12.3113 24.1941 12.3113C24.5555 12.3113 24.8868 12.1625 25.126 11.9233C25.3652 11.6842 25.514 11.3546 25.514 10.9914V6.47725C25.514 6.11407 25.3652 5.78457 25.126 5.54538C24.8868 5.30619 24.5555 5.15738 24.1941 5.15738H16.2321V8.60325C16.2321 9.38632 15.9132 10.0968 15.3976 10.6106C14.8838 11.1261 14.1734 11.445 13.3904 11.445H13.0643V11.4449ZM5.36106 10.5077H13.3904C13.9148 10.5077 14.3896 10.2933 14.7351 9.94788C15.0805 9.60238 15.2949 9.12582 15.2949 8.60313V3.352C15.2949 2.82938 15.0805 2.35282 14.7351 2.00732C14.3896 1.66182 13.9148 1.44744 13.3904 1.44744H3.10044C2.576 1.44744 2.10119 1.66182 1.75569 2.00732C1.41025 2.35275 1.19581 2.82932 1.19581 3.352V8.60319C1.19581 9.12582 1.41025 9.60238 1.75569 9.94794C2.10112 10.2934 2.576 10.5078 3.10044 10.5078C3.35912 10.5078 3.56813 10.7186 3.56813 10.9773V12.1058L5.02975 10.646C5.12194 10.5538 5.24063 10.5077 5.36106 10.5077V10.5077ZM24.7096 27.8344H7.29225V30.5521H24.7096V27.8344H24.7096Z" fill="black"/>
</svg>
