<svg xmlns="http://www.w3.org/2000/svg" width="60" height="60" viewBox="0 0 60 60">
  <g id="Group_37714" data-name="Group 37714" transform="translate(-1 -1)">
    <path id="Path_105373" data-name="Path 105373" d="M13,48a3,3,0,1,0,3,3A3,3,0,0,0,13,48Zm0,4a1,1,0,1,1,1-1A1,1,0,0,1,13,52Z" transform="translate(0 -2)"/>
    <path id="Path_105374" data-name="Path 105374" d="M13,43a8,8,0,1,0,8,8A8.009,8.009,0,0,0,13,43Zm0,14a6,6,0,1,1,6-6A6.006,6.006,0,0,1,13,57Z" transform="translate(0 -2)"/>
    <path id="Path_105375" data-name="Path 105375" d="M61,31.968a2.907,2.907,0,0,0-2.9-2.9h-.968V5.839a4.824,4.824,0,0,0-8.71-2.873,4.795,4.795,0,0,0-7.742,0,4.795,4.795,0,0,0-7.742,0,4.795,4.795,0,0,0-7.742,0,4.824,4.824,0,0,0-8.71,2.873V29.065a8.72,8.72,0,0,0-8.71-8.71H7.4a3.872,3.872,0,1,0-.066,5.861,3.855,3.855,0,0,1,3.318,3.621,2.88,2.88,0,0,0,.988,4.856v3.131A11.609,11.609,0,1,0,24.226,49.387h27.1V51.42a4.839,4.839,0,1,0,1.935,0V49.387h5.806V34.693A2.9,2.9,0,0,0,61,31.968ZM55.194,56.161a2.9,2.9,0,1,1-3.871-2.725v2.725h1.935V53.436A2.9,2.9,0,0,1,55.194,56.161Zm-1.935-27.1V10.677h1.935V29.065Zm-20.436,0L32.1,23.258h5.549l-.726,5.806Zm9.677,0-.726-5.806h5.549L46.6,29.065Zm2.842-7.742-.968-4.839h-3.7v1.935h2.11l.581,2.9h-7.7L34.7,16.484H31v1.935h2.11l.581,2.9H29.9l.968,7.742H22.29V10.677H51.323V29.065H48.548l.968-7.742Zm-4.793,7.742H38.87l.84-6.714ZM52.29,2.935a2.907,2.907,0,0,1,2.9,2.9v2.9H49.387v-2.9A2.907,2.907,0,0,1,52.29,2.935Zm-7.742,0a2.907,2.907,0,0,1,2.9,2.9v2.9H41.645v-2.9A2.907,2.907,0,0,1,44.548,2.935Zm-7.742,0a2.907,2.907,0,0,1,2.9,2.9v2.9H33.9v-2.9A2.907,2.907,0,0,1,36.806,2.935Zm-7.742,0a2.907,2.907,0,0,1,2.9,2.9v2.9H26.161v-2.9A2.907,2.907,0,0,1,29.065,2.935Zm-7.742,0a2.907,2.907,0,0,1,2.9,2.9v2.9H18.419v-2.9A2.907,2.907,0,0,1,21.323,2.935Zm-2.9,7.742h1.935V29.065H18.419ZM4.871,25.194a1.935,1.935,0,1,1,1.935-1.935A1.937,1.937,0,0,1,4.871,25.194Zm3.653-.708a3.55,3.55,0,0,0,.1-2.136,6.78,6.78,0,0,1,5.925,6.715H12.613c-.029,0-.057.008-.086.009a5.82,5.82,0,0,0-4-4.588Zm4.089,34.579a9.677,9.677,0,1,1,9.677-9.677A9.688,9.688,0,0,1,12.613,59.065ZM24.051,47.452a11.62,11.62,0,0,0-10.47-9.628V34.871H57.129V47.452ZM58.1,32.935H12.613a.968.968,0,1,1,0-1.935H58.1a.968.968,0,1,1,0,1.935Z"/>
  </g>
</svg>
