<svg xmlns="http://www.w3.org/2000/svg" width="60" height="59.578" viewBox="0 0 60 59.578">
  <g id="Group_37713" data-name="Group 37713" transform="translate(-9 -4.801)">
    <g id="Group_37712" data-name="Group 37712" transform="translate(0 1.801)">
      <path id="Path_105372" data-name="Path 105372" d="M41.912,14.341a2.1,2.1,0,0,0,2.1-2.1V8.661h-4.2v3.581a2.11,2.11,0,0,0,2.1,2.1ZM14.1,21.659a.88.88,0,1,1,0,1.761H6.567V33.973a.879.879,0,0,1-1.757,0V22.539a.88.88,0,0,1,.88-.88ZM55.19,33.973a.879.879,0,0,1-1.757,0V23.42H45.9a.88.88,0,1,1,0-1.761h8.418a.879.879,0,0,1,.877.88ZM14.231,7.784a.874.874,0,0,1,.1-.4l2.086-5.036A.89.89,0,0,1,17.26,1.8H42.779a.878.878,0,0,1,.837.611l2.056,4.97a.857.857,0,0,1,.1.4v4.458A3.868,3.868,0,0,1,42.793,16v4.923a.879.879,0,1,1-1.757,0V16a3.878,3.878,0,0,1-2.1-1.309,3.847,3.847,0,0,1-5.956,0,3.847,3.847,0,0,1-5.956,0,3.847,3.847,0,0,1-5.956,0A3.878,3.878,0,0,1,18.968,16V29.721H31.262V19.792a.876.876,0,0,1,.877-.877h5.494a.879.879,0,0,1,.88.877v9.929h2.521V24.9a.879.879,0,1,1,1.757,0v5.7a.877.877,0,0,1-.88.877H18.088a.879.879,0,0,1-.88-.877V16a3.87,3.87,0,0,1-2.976-3.754V7.784ZM43.58,6.9,42.195,3.558H17.805L16.42,6.9ZM34.2,42.075a.874.874,0,0,1,.1-.4l1.678-4.053a.89.89,0,0,1,.844-.545h20.6a.878.878,0,0,1,.837.611L59.9,41.673a.855.855,0,0,1,.1.4v3.6a3.291,3.291,0,0,1-2.408,3.166V52.3a.875.875,0,1,1-1.751,0V48.839a3.292,3.292,0,0,1-1.528-.933,3.273,3.273,0,0,1-4.81,0,3.273,3.273,0,0,1-4.81,0,3.273,3.273,0,0,1-4.81,0,3.292,3.292,0,0,1-1.528.933V59.622h9.594v-7.85a.876.876,0,0,1,.877-.877H53.26a.877.877,0,0,1,.88.877v7.85h1.7V56.28a.875.875,0,1,1,1.751,0V60.5a.878.878,0,0,1-.874.88H37.478a.905.905,0,0,1-.874-.957V48.839A3.291,3.291,0,0,1,34.2,45.673v-3.6Zm23.615-.88-.98-2.362H37.365l-.98,2.362Zm.432,4.478V42.952H55.19v2.721a1.526,1.526,0,0,0,3.053,0Zm-4.81,0V42.952h-3.05v2.721a1.525,1.525,0,0,0,3.05,0Zm-4.81,0V42.952H45.573v2.721a1.525,1.525,0,0,0,3.049,0Zm-4.81,0V42.952H40.763v2.721a1.525,1.525,0,0,0,3.049,0Zm-4.807,0V42.952H35.953v2.721a1.526,1.526,0,0,0,3.053,0Zm1.93,5.222H45.37a.876.876,0,0,1,.877.877v4.435a.879.879,0,0,1-.877.88H40.935a.882.882,0,0,1-.88-.88V51.772A.879.879,0,0,1,40.935,50.895Zm3.554,1.757H41.812V55.33H44.49Zm7.893,6.969V52.652H49.705v6.969ZM0,42.075a.874.874,0,0,1,.1-.4l1.677-4.053a.886.886,0,0,1,.851-.545h20.6a.879.879,0,0,1,.84.611l1.648,3.986a.857.857,0,0,1,.1.4v3.6A3.291,3.291,0,0,1,23.4,48.839V52.3a.875.875,0,1,1-1.751,0V48.839a3.3,3.3,0,0,1-1.531-.933,3.273,3.273,0,0,1-4.81,0,3.273,3.273,0,0,1-4.81,0,3.269,3.269,0,0,1-4.807,0,3.319,3.319,0,0,1-1.531.933V59.622h9.594v-7.85a.877.877,0,0,1,.88-.877h4.435a.876.876,0,0,1,.877.877v7.85h1.7V56.28a.875.875,0,1,1,1.751,0V60.5a.888.888,0,0,1-.89.88H3.286a.906.906,0,0,1-.877-.957V48.839A3.291,3.291,0,0,1,0,45.673Zm23.615-.88-.977-2.362H3.169L2.192,41.2Zm.435,4.478V42.952H21v2.721a1.526,1.526,0,0,0,3.053,0Zm-4.81,0V42.952H16.188v2.721a1.526,1.526,0,0,0,3.053,0Zm-4.81,0V42.952H11.377v2.721a1.526,1.526,0,0,0,3.053,0Zm-4.81,0V42.952H6.567v2.721a1.526,1.526,0,0,0,3.053,0Zm-4.81,0V42.952H1.757v2.721a1.526,1.526,0,0,0,3.053,0Zm1.93,5.222h4.435a.879.879,0,0,1,.88.877v4.435a.882.882,0,0,1-.88.88H6.74a.882.882,0,0,1-.88-.88V51.772A.879.879,0,0,1,6.74,50.895ZM10.3,52.652H7.62V55.33H10.3Zm7.89,6.969V52.652H15.51v6.969Zm19.868-47.38V8.661h-4.2v3.581a2.1,2.1,0,0,0,4.2,0Zm-5.956,0V8.661H27.9v3.581a2.1,2.1,0,0,0,4.2,0Zm-5.956,0V8.661h-4.2v3.581a2.1,2.1,0,0,0,4.2,0Zm-5.956,0V8.661h-4.2v3.581a2.1,2.1,0,0,0,4.2,0Zm2.179,6.674h5.494a.879.879,0,0,1,.88.877v5.494a.879.879,0,0,1-.88.877H22.366a.876.876,0,0,1-.877-.877V19.792A.876.876,0,0,1,22.366,18.915Zm4.614,1.757H23.247v3.734H26.98Zm9.773,9.049V20.672H33.019v9.049Z" transform="translate(9 1.199)"/>
    </g>
  </g>
</svg>
