<svg xmlns="http://www.w3.org/2000/svg" xmlns:xlink="http://www.w3.org/1999/xlink" width="32" height="32" viewBox="0 0 32 32">
  <defs>
    <clipPath id="clip-path">
      <rect id="Rectangle_12600" data-name="Rectangle 12600" width="28" height="27.995"/>
    </clipPath>
  </defs>
  <g id="Group_37667" data-name="Group 37667" transform="translate(10187 1859)">
    <rect id="Rectangle_12544" data-name="Rectangle 12544" width="32" height="32" transform="translate(-10187 -1859)" opacity="0"/>
    <g id="Group_37720" data-name="Group 37720" transform="translate(-10185 -1857)">
      <g id="Group_37720-2" data-name="Group 37720" clip-path="url(#clip-path)">
        <path id="Path_105651" data-name="Path 105651" d="M28,11.756v6.616a.665.665,0,0,0-.128.035q-3.919,1.956-7.834,3.922a.408.408,0,0,0-.171.289,1.363,1.363,0,0,1-1.145,1.278.237.237,0,0,0-.235.235,1.312,1.312,0,0,1-1.135,1.126c-.152.022-.2.084-.216.219a.938.938,0,0,1-.048.212,1.384,1.384,0,0,1-1.259.959c-.205.946-.746,1.4-1.571,1.344a1.582,1.582,0,0,1-1.021-.525.3.3,0,0,0-.4-.062,1.378,1.378,0,0,1-1.951-1,.268.268,0,0,0-.251-.255,1.359,1.359,0,0,1-1.1-1.021,2.746,2.746,0,0,1-.055-.289,1.45,1.45,0,0,1-1.356-1.347,1.443,1.443,0,0,1-1.338-1.28.23.23,0,0,0-.073-.133c-.421-.26-.846-.513-1.231-.744-.116.134-.2.317-.29.319a3.242,3.242,0,0,1-1.022-.082c-1.31-.409-2.607-.861-3.912-1.287A.316.316,0,0,1,0,19.922q.012-4.4.006-8.8c0-.088.008-.177.013-.281a3.033,3.033,0,0,1,2.2.416c.192.162.458.235.652.395a1.643,1.643,0,0,0,1.838.254c.092-.041.178-.1.266-.144a1.13,1.13,0,0,0-.179-.275A3.258,3.258,0,0,1,3.76,9.944a5.371,5.371,0,0,1-.135-1.9,3.018,3.018,0,0,1,1.892-2.8,8.594,8.594,0,0,1,1.376-.359c-.114-.273-.253-.587-.373-.908a.3.3,0,0,1,.027-.257C7.3,2.956,8.059,2.2,8.828,1.426c.426.277.833.55,1.251.805a.4.4,0,0,0,.309.031c.466-.178.926-.373,1.385-.57.068-.029.16-.085.173-.144.111-.514.206-1.032.306-1.549h3.5c.1.516.194,1.034.308,1.548.014.062.123.117.2.15.442.19.892.363,1.329.563a.3.3,0,0,0,.343-.022c.406-.273.82-.536,1.245-.813.769.772,1.53,1.53,2.281,2.3a.3.3,0,0,1,.029.256c-.123.326-.266.644-.408.979A3.185,3.185,0,0,1,24.1,6.9a4.562,4.562,0,0,1,.283,2.2,3.151,3.151,0,0,1-1.182,2.4,1.1,1.1,0,0,0-.171.252,1.133,1.133,0,0,0,.253.153q1.058.309,2.123.6a.357.357,0,0,0,.225-.048c.389-.2.772-.407,1.162-.6a.763.763,0,0,1,.306-.094c.3-.01.6,0,.9.006m-.906.955c-.138.069-.233.116-.327.165Q22.9,14.91,19.042,16.95a1.458,1.458,0,0,1-.935.2,4.47,4.47,0,0,1-.532-.112q-1.168-.329-2.334-.669a2.1,2.1,0,0,0-1.569.108q-1.224.6-2.439,1.223a.673.673,0,0,0-.308.945.621.621,0,0,0,.92.184c.486-.286.968-.579,1.453-.869a1.836,1.836,0,0,1,2.421.229q1.79,1.606,3.573,3.22a.33.33,0,0,0,.444.062q3.546-1.787,7.1-3.552a.392.392,0,0,0,.262-.411c-.011-1.494-.006-2.988-.006-4.482ZM13.008,15.793a4.788,4.788,0,0,0-2.533-.4c-1.147.193-2.28.469-3.417.72a.313.313,0,0,0-.2.174q-.576,1.978-1.129,3.962a.229.229,0,0,0,.051.2c.421.266.851.519,1.291.783.34-.347.643-.7.993-1a1.38,1.38,0,0,1,2.286.79.271.271,0,0,0,.258.249A1.339,1.339,0,0,1,11.7,22.346a.273.273,0,0,0,.26.272,1.364,1.364,0,0,1,1.09,1.027,2.872,2.872,0,0,1,.055.284,1.79,1.79,0,0,1,1.165.706,9.032,9.032,0,0,0,1.205,1.016.516.516,0,0,0,.232.068.436.436,0,0,0,.483-.229.428.428,0,0,0-.06-.53,2.452,2.452,0,0,0-.261-.24c-.712-.6-1.424-1.189-2.155-1.8l.574-.688c.093.074.171.134.247.2.721.6,1.439,1.2,2.165,1.8a.555.555,0,0,0,.805-.036c.181-.231.126-.486-.164-.731-.334-.282-.672-.56-1.007-.84l-1.264-1.059.577-.69c.708.59,1.393,1.162,2.079,1.732a3.987,3.987,0,0,0,.453.35.539.539,0,0,0,.672-.111.487.487,0,0,0-.049-.668,1.8,1.8,0,0,0-.14-.131q-1.757-1.581-3.515-3.163a1.008,1.008,0,0,0-1.405-.141c-.508.3-1.011.616-1.525.908a1.509,1.509,0,0,1-2.041-.491,1.578,1.578,0,0,1,.631-2.263c.709-.368,1.428-.718,2.2-1.1m-3.5-1.2a.236.236,0,0,0,.074.015c.072-.008.144-.022.216-.035a5.608,5.608,0,0,1,2.543.069c1.058.294,2.118.578,3.176.871.806.224,1.61.457,2.415.682a2.225,2.225,0,0,0,.348.054c.174.02.244-.058.241-.236-.008-.492.011-.984-.007-1.476a1.346,1.346,0,0,0-1.111-1.365c-.722-.186-1.443-.377-2.171-.537-.27-.059-.353-.176-.332-.438a6.267,6.267,0,0,0,0-.819.37.37,0,0,1,.213-.391,2.059,2.059,0,0,0,1.061-1.392,4.4,4.4,0,0,0-.054-2.136,2.29,2.29,0,0,0-2.078-1.587,2.172,2.172,0,0,0-2.167,1.587,7.278,7.278,0,0,0-.116,1.65,1.806,1.806,0,0,0,.783,1.606,1.133,1.133,0,0,1,.554,1.264.846.846,0,0,0,0,.245c.043.247-.064.348-.3.4-.745.17-1.485.359-2.225.55a1.311,1.311,0,0,0-1.059,1.414m14.872-1.484c-.732-.183-1.374-.351-2.019-.5-.172-.04-.242-.105-.234-.289.015-.318.013-.638,0-.956a.352.352,0,0,1,.2-.37,2.051,2.051,0,0,0,1.044-1.309,4.233,4.233,0,0,0-.043-2.265,2.279,2.279,0,0,0-2.08-1.544,2.167,2.167,0,0,0-2.156,1.6A7.041,7.041,0,0,0,18.983,9.1a1.823,1.823,0,0,0,.8,1.627,1.131,1.131,0,0,1,.551,1.263,1.163,1.163,0,0,0,0,.3c.031.209-.068.284-.26.326-.421.092-.837.206-1.293.32a2.2,2.2,0,0,1,.615,1.323c.027.473.006.949.006,1.477l4.984-2.625M9.232,12.935c-.488-.125-.925-.243-1.366-.344a.2.2,0,0,1-.19-.24c.007-.318.013-.638,0-.956a.392.392,0,0,1,.224-.412A2.167,2.167,0,0,0,9,9.348a4.137,4.137,0,0,0,.014-1.116,4.049,4.049,0,0,0-.324-1.194A2.153,2.153,0,0,0,6.461,5.9a2.123,2.123,0,0,0-1.8,1.535,7.9,7.9,0,0,0-.119,1.7,1.782,1.782,0,0,0,.781,1.578,1.129,1.129,0,0,1,.55,1.264.554.554,0,0,0,0,.164c.055.307-.051.471-.381.5a4.01,4.01,0,0,0-.627.165c.764.447,1.469.862,2.178,1.269a.3.3,0,0,1,.186.319c-.015.243,0,.487,0,.745.406-.09.806-.172,1.2-.274a.261.261,0,0,0,.155-.192,2.422,2.422,0,0,1,.652-1.74m1.612-4.37c0-.181-.009-.382,0-.582a3.16,3.16,0,0,1,2.2-2.867,3.073,3.073,0,0,1,3.4,1.067,4.283,4.283,0,0,1,.575,3.727,2.856,2.856,0,0,1-1.072,1.607.516.516,0,0,0-.132.241c-.007.022.072.094.121.107.537.14,1.074.276,1.614.4a.542.542,0,0,0,.239-.024c.468-.114.936-.229,1.4-.354.082-.022.2-.089.211-.147.009-.073-.069-.169-.129-.238a6,6,0,0,1-.714-.815A4.538,4.538,0,0,1,18.3,6.97a.525.525,0,0,0-.054-.5,4.822,4.822,0,0,0-4.6-2.371A4.766,4.766,0,0,0,9.677,6.627a.463.463,0,0,0-.012.3,10.247,10.247,0,0,1,.252,1.11,3.6,3.6,0,0,1-1.252,3.527c-.155.118-.1.264.1.317.493.127.986.254,1.482.37a.721.721,0,0,0,.318,0q.7-.165,1.4-.352c.083-.022.222-.1.217-.139a.531.531,0,0,0-.149-.258c-.16-.174-.347-.323-.5-.505a3.366,3.366,0,0,1-.694-2.426M9.038,5.895a5.9,5.9,0,0,1,9.915-.026c.325-.207.639-.4.948-.607a.343.343,0,0,0,.118-.14c.14-.316.279-.632.406-.954a.251.251,0,0,0-.019-.217c-.444-.456-.9-.9-1.361-1.363-.376.245-.736.49-1.11.713a.358.358,0,0,1-.307.008,7.352,7.352,0,0,0-2.136-.878.268.268,0,0,1-.234-.249c-.066-.358-.152-.712-.218-1.069A.214.214,0,0,0,14.787.9c-.519.009-1.038.01-1.557,0-.175,0-.238.064-.267.226-.063.349-.152.693-.213,1.042a.284.284,0,0,1-.252.265,6.67,6.67,0,0,0-2.105.877.265.265,0,0,1-.341-.011c-.3-.207-.614-.392-.911-.6a.222.222,0,0,0-.344.039c-.373.387-.755.765-1.14,1.14a.251.251,0,0,0-.069.333c.134.288.244.588.374.878a.514.514,0,0,0,.169.2c.29.2.587.393.91.606M2.846,20.187l1.638-6.553c-1.057-.617-2.084-1.221-3.118-1.812a1.661,1.661,0,0,0-.456-.1V16.04q0,1.625,0,3.25c0,.138-.012.258.173.315.581.179,1.155.38,1.763.582m1.783.593c.217-.763.427-1.505.64-2.247.335-1.171.675-2.341,1-3.514.03-.107.038-.3-.021-.339-.294-.2-.614-.372-.954-.57L3.706,20.474l.924.306M13.6,25.3a1.993,1.993,0,0,0-.345-.4.431.431,0,0,0-.552.077c-.266.248-.527.5-.777.767a.506.506,0,1,0,.716.71c.252-.237.5-.481.73-.737a2.194,2.194,0,0,0,.228-.42M8.137,22.606c.141-.05.238-.056.291-.107.333-.32.677-.634.976-.984a.431.431,0,0,0-.076-.595.448.448,0,0,0-.621-.049,8.276,8.276,0,0,0-.918.929.572.572,0,0,0-.023.5c.064.139.257.218.371.306m4.115,1.345a1.894,1.894,0,0,0-.342-.4.435.435,0,0,0-.554.069c-.271.256-.538.517-.794.789a.5.5,0,0,0-.013.732.515.515,0,0,0,.734-.034c.251-.237.5-.48.731-.736a2.344,2.344,0,0,0,.237-.417M9.5,23.96a1.069,1.069,0,0,0,.306-.122c.322-.307.649-.612.941-.946a.435.435,0,0,0-.05-.6.455.455,0,0,0-.617-.08,8.616,8.616,0,0,0-.952.969.573.573,0,0,0,.006.5c.063.13.252.2.366.28m4.858,1.98-.631.743c.231.237.461.5.833.369a.57.57,0,0,0,.312-.358c.084-.409-.3-.524-.515-.754" transform="translate(0)"/>
      </g>
    </g>
  </g>
</svg>
