<svg xmlns="http://www.w3.org/2000/svg" width="62.346" height="53.47" viewBox="0 0 62.346 53.47">
  <g id="Group_37717" data-name="Group 37717" transform="translate(0.75 -27.023)">
    <g id="Group_37716" data-name="Group 37716" transform="translate(0 27.775)">
      <g id="Group_37715" data-name="Group 37715" transform="translate(0 0)">
        <path id="Path_105376" data-name="Path 105376" d="M62.976,52.492V65.43a1.91,1.91,0,0,0,1.911,1.909H90.152a1.908,1.908,0,0,0,1.909-1.909V51.509a11.945,11.945,0,0,0,5.4-4.926c2.382-4.482,2.568-8.823.525-12.223S91.971,29.03,87.069,29.03a15.424,15.424,0,0,0-9.213,3.485A15.665,15.665,0,0,0,66.4,27.78,12.875,12.875,0,0,0,55.7,33.941a9.808,9.808,0,0,0-1.548,8.007C55.425,47.172,60.743,51.059,62.976,52.492ZM58.883,36.06A9.128,9.128,0,0,1,66.494,31.6,11.962,11.962,0,0,1,75,35.041a32.1,32.1,0,0,0-4.311,5.408,1.909,1.909,0,0,0,3.264,1.981c.058-.095,5.925-9.578,13.12-9.578,3.528,0,6.313,1.268,7.643,3.476s1.1,5.208-.624,8.457c-3.168,5.956-16.674,6.2-21.614,5.787a1.912,1.912,0,0,0-.318,3.81c.213.018,1.655.129,3.763.129a45.888,45.888,0,0,0,12.32-1.533V63.516H66.8v-12.1a1.914,1.914,0,0,0-.983-1.671c-.067-.038-6.767-3.821-7.95-8.71A6.053,6.053,0,0,1,58.883,36.06Z" transform="translate(-45.261 -27.775)" stroke="#fff" stroke-width="1.5"/>
        <path id="Path_105377" data-name="Path 105377" d="M0,290.965v3.155s9.2-.176,11.245-.176,5.12,6.777,7.085,6.777H42.013c2.618,0,6.124-6.777,8.513-6.777h10.32v-3.159Z" transform="translate(0 -248.752)" stroke="#fff" stroke-width="1.5"/>
      </g>
    </g>
  </g>
</svg>
