<svg xmlns="http://www.w3.org/2000/svg" xmlns:xlink="http://www.w3.org/1999/xlink" width="60" height="60" viewBox="0 0 60 60">
  <defs>
    <clipPath id="clip-path">
      <rect id="Rectangle_12575" data-name="Rectangle 12575" width="53.883" height="54"/>
    </clipPath>
  </defs>
  <g id="Group_37659" data-name="Group 37659" transform="translate(-423 -1990)">
    <g id="Rectangle_12523" data-name="Rectangle 12523" transform="translate(423 1990)" stroke="#707070" stroke-width="1" opacity="0">
      <rect width="60" height="60" stroke="none"/>
      <rect x="0.5" y="0.5" width="59" height="59" fill="none"/>
    </g>
    <g id="Group_37692" data-name="Group 37692" transform="translate(426 1993)">
      <g id="Group_37692-2" data-name="Group 37692" clip-path="url(#clip-path)">
        <path id="Path_105466" data-name="Path 105466" d="M17.138,105.093a7.98,7.98,0,0,1-4.686-2.9c-.569-.622-1.189-1.2-1.786-1.793q-4.324-4.324-8.648-8.649A6.089,6.089,0,0,1,2,82.714c1.214-1.22,2.431-2.437,3.612-3.622l6.486,6.48c-.607.592-1.26,1.223-1.906,1.859-.488.481-.979.96-1.452,1.456a.84.84,0,0,0-.09,1.191c.975,1,1.984,1.972,3.021,2.995.134-.382.248-.727.376-1.067A5.973,5.973,0,0,1,16.8,88c1.759-.333,3.522-.641,5.283-.963.136-.025.269-.066.575-.142a2.691,2.691,0,0,0-.463-.593A8.891,8.891,0,0,1,18.4,80.978a.7.7,0,0,0-.369-.418,3.5,3.5,0,0,1-2.472-3.531c0-1.951-.008-3.9,0-5.852a11.306,11.306,0,0,1,22.559-1.16c.164,2.2.077,4.425.093,6.638.011,1.546,0,3.093,0,4.639a2.614,2.614,0,0,1-2.874,2.881,2.491,2.491,0,0,0-2.4.982,8.258,8.258,0,0,1-1.415,1.166,3.353,3.353,0,0,0-.419.587l3.022.565c1.087.2,2.185.36,3.258.619a5.745,5.745,0,0,1,4.251,3.731c.745,2.005,1.376,4.053,2.054,6.083a.865.865,0,0,1,0,.208H25.233l-.057.107,1.358,1.139c-1.817,1.629-3.471,3.148-5.169,4.619a6.191,6.191,0,0,1-2.75,1.113Zm2.818-12.108c1.033,1.037,2.032,2.024,3.009,3.032a1.1,1.1,0,0,0,.873.365q8.434-.016,16.868-.007h.64c-.435-1.311-.819-2.547-1.257-3.765A4.277,4.277,0,0,0,36.644,89.7c-1.414-.266-2.863-.4-4.239-.8a2.542,2.542,0,0,0-3.031.958,32.724,32.724,0,0,1-2.482,2.514c-.162-.153-.291-.27-.415-.393-1.032-1.03-2.055-2.07-3.1-3.083a.846.846,0,0,0-.631-.212c-1.9.322-3.8.656-5.7,1.027a4.275,4.275,0,0,0-3.36,2.869c-.19.509-.337,1.034-.525,1.544a.516.516,0,0,0,.149.645c.489.453.948.94,1.422,1.411.626.623.993.629,1.662.026,1.173-1.059,2.344-2.119,3.567-3.224M26.869,69a12.578,12.578,0,0,0,3.885,3.021,11.143,11.143,0,0,0,4.839.857v.967l.761.288a29.657,29.657,0,0,0-.035-4.392,9.044,9.044,0,0,0-6.684-7.757A9.161,9.161,0,0,0,19.8,64.7c-2.551,2.675-2.679,6-2.429,9.453l.8-.312c.015-.316.03-.625.047-.994A10.052,10.052,0,0,0,26.869,69m-6.954,5.591c0,1.562-.059,3.074.013,4.578a6.683,6.683,0,0,0,3.918,6.045,6.7,6.7,0,0,0,7.042-.565c.16-.107.3-.24.453-.362l-.058-.113H26.922V82.436h.618c1.634,0,3.268-.013,4.9.01a.671.671,0,0,0,.715-.454,7.217,7.217,0,0,0,.69-3.057c0-1.3-.01-2.6.009-3.9.005-.36-.117-.486-.471-.52a10.113,10.113,0,0,1-4.269-1.393c-.779-.466-1.5-1.028-2.293-1.577a11.449,11.449,0,0,1-6.91,3.043M3.48,83.74a4.35,4.35,0,0,0-.423,6.593c.293.3.6.6.893.9q5.386,5.384,10.774,10.767a4.363,4.363,0,0,0,6.6-.317l-3.967-3.983a2.622,2.622,0,0,1-3.855-.273c-1.964-1.961-3.939-3.913-5.877-5.9A3.649,3.649,0,0,1,6.816,90.2a2.487,2.487,0,0,1,.609-2.492L3.48,83.74m19.328,16.648,1-.944-3.965-4-1.043.947,4.01,4M4.811,82.4l3.9,3.926.849-.8L5.613,81.568l-.8.833m19.68,4.948,2.4,2.406,2.428-2.427a8.874,8.874,0,0,1-4.826.021m11.9-7.1c-.343.184-.808.278-.961.548a7.329,7.329,0,0,0-.492,1.586c1.387.188,1.756-.337,1.453-2.134m-18.232-4.4a1.272,1.272,0,0,0-.826,1.159,1.5,1.5,0,0,0,.826,1.6ZM35.614,78.7a1.691,1.691,0,0,0,.821-1.722,1.579,1.579,0,0,0-.821-1.214Z" transform="translate(0 -51.092)"/>
        <path id="Path_105467" data-name="Path 105467" d="M254.736,17.424l.89-5.224h-1.912a2.691,2.691,0,0,1-3.031-3.008q0-3.163,0-6.326A2.643,2.643,0,0,1,253.534,0q5.878,0,11.755,0A2.6,2.6,0,0,1,268.1,2.785q.016,3.321,0,6.642a2.525,2.525,0,0,1-2.774,2.743,6.3,6.3,0,0,0-4.156,1.223c-1.924,1.319-3.945,2.5-5.925,3.735-.132.082-.268.157-.509.3m2.392-3.627c.094-.007.135,0,.16-.013,1.044-.648,2.143-1.223,3.115-1.966a6.46,6.46,0,0,1,4.838-1.389c.831.092,1.129-.277,1.13-1.13q0-3.188,0-6.377c0-.891-.276-1.173-1.159-1.173q-5.823,0-11.647,0c-.859,0-1.123.274-1.124,1.143q0,3.188,0,6.377c0,.926.257,1.176,1.194,1.176h4.052l-.559,3.351" transform="translate(-214.226 0)"/>
        <path id="Path_105468" data-name="Path 105468" d="M5.075,36.792l2.3-1.372.892,1.485-5.1,3.062L.111,34.878l1.481-.9,1.634,2.7A24.37,24.37,0,0,1,34.187,19L33.7,20.577C20.144,16.292,7.438,25.738,5.075,36.792" transform="translate(-0.095 -15.257)"/>
        <path id="Path_105469" data-name="Path 105469" d="M309.918,115l-1.55,2.563-1.492-.886,3.058-5.1,5.092,3.055-.886,1.495-2.505-1.494a24.685,24.685,0,0,1-4.184,23.071c-.135-.092-.208-.135-.273-.187-.355-.285-.708-.574-1.092-.885A22.982,22.982,0,0,0,309.918,115" transform="translate(-261.573 -95.349)"/>
        <rect id="Rectangle_12572" data-name="Rectangle 12572" width="10.39" height="1.664" transform="translate(39.977 3.528)"/>
        <rect id="Rectangle_12573" data-name="Rectangle 12573" width="6.918" height="1.681" transform="translate(39.966 6.998)"/>
        <rect id="Rectangle_12574" data-name="Rectangle 12574" width="1.664" height="1.678" transform="translate(48.695 7.009)"/>
      </g>
    </g>
  </g>
</svg>
