<svg xmlns="http://www.w3.org/2000/svg" xmlns:xlink="http://www.w3.org/1999/xlink" width="60" height="60" viewBox="0 0 60 60">
  <defs>
    <clipPath id="clip-path">
      <rect id="Rectangle_12594" data-name="Rectangle 12594" width="54" height="48.804"/>
    </clipPath>
  </defs>
  <g id="Group_37659" data-name="Group 37659" transform="translate(-423 -1990)">
    <g id="Rectangle_12523" data-name="Rectangle 12523" transform="translate(423 1990)" stroke="#707070" stroke-width="1" opacity="0">
      <rect width="60" height="60" stroke="none"/>
      <rect x="0.5" y="0.5" width="59" height="59" fill="none"/>
    </g>
    <g id="Group_37714" data-name="Group 37714" transform="translate(426 1996)">
      <g id="Group_37714-2" data-name="Group 37714" clip-path="url(#clip-path)">
        <path id="Path_105624" data-name="Path 105624" d="M1.112,47.024,4.05,37.451c-.4,0-.741.01-1.082,0A3.022,3.022,0,0,1,.014,34.475C-.01,31.148,0,27.82.007,24.493c0-.613.3-.97.845-1a14.054,14.054,0,0,1,8.467,1.86A12.941,12.941,0,0,1,15.67,36.27c.042.885-.27,1.181-1.152,1.183-.941,0-1.882,0-2.884,0l1.42,4.619c.469,1.526.93,3.055,1.418,4.576.051.16.254.387.388.389,1.992.025,3.984.017,6.043.017,0-.5,0-.968,0-1.435,0-.9.277-1.179,1.159-1.183.725,0,1.451-.006,2.176-.011.032,0,.063-.026.121-.051V33.962h-.572q-3.047,0-6.095,0c-.853,0-1.139-.29-1.142-1.145,0-.709,0-1.418,0-2.127.005-.784.305-1.089,1.087-1.09q4.027-.005,8.054,0h.4v-19.2H4.922c-.163,0-.327,0-.49,0A.878.878,0,0,1,4.12,8.678C5.52,8.134,6.925,7.6,8.327,7.057Q17.377,3.57,26.432.1A1.729,1.729,0,0,1,27.565.093q11.063,4.228,22.109,8.5c.388.149.736.325.822.781a.871.871,0,0,1-.765,1.008,4.2,4.2,0,0,1-.544.01H27.9V29.6h.57q3.891,0,7.782,0c.927,0,1.2.271,1.2,1.2,0,.691,0,1.382,0,2.073-.005.783-.308,1.09-1.087,1.092q-3.047.006-6.095,0h-.621V44.436c.777,0,1.534,0,2.291,0,.881,0,1.156.285,1.159,1.184,0,.453,0,.905,0,1.4.182.013.338.032.494.032,1.8,0,3.592,0,5.387,0,.274,0,.456-.02.556-.352.906-3.006,1.834-6,2.754-9.006a2.135,2.135,0,0,0,.041-.247c-.983,0-1.943,0-2.9,0-.812,0-1.108-.31-1.1-1.127A13.079,13.079,0,0,1,49.885,23.593c1.044-.1,2.1-.089,3.151-.1a.854.854,0,0,1,.953.944c.007,3.364.024,6.728-.009,10.091a3.007,3.007,0,0,1-2.9,2.918c-.358.016-.718,0-1.137,0l2.938,9.573a2.717,2.717,0,0,1,.453.066.868.868,0,0,1-.112,1.7,2.849,2.849,0,0,1-.489.013H1.258a3.494,3.494,0,0,1-.435-.008.868.868,0,0,1-.11-1.718,3,3,0,0,1,.4-.051m8.2-38.474c0,.021,0,.042,0,.063H44.769c-.144-.077-.2-.117-.268-.142q-8.566-3.3-17.139-6.587a1.257,1.257,0,0,0-.819.031C23.869,2.928,21.2,3.966,18.534,5L9.315,8.549m4.538,27.158A11.216,11.216,0,0,0,1.746,25.31v.479q0,4.146,0,8.292c0,1.152.47,1.626,1.612,1.626q4.98,0,9.959,0Zm26.277-.055a.512.512,0,0,0,.149.048c3.573,0,7.147.013,10.72-.006a1.268,1.268,0,0,0,1.248-1.376c.008-2.964,0-5.928,0-8.892a.556.556,0,0,0-.039-.145,11.271,11.271,0,0,0-12.078,10.37M2.943,47.006h9.8c-.954-3.105-1.9-6.155-2.822-9.209-.088-.292-.235-.351-.5-.348-1.033.012-2.068.022-3.1,0-.363-.009-.491.126-.588.459-.4,1.376-.837,2.741-1.258,4.111q-.765,2.492-1.529,4.991m38.308.014h9.812l-2.934-9.552H44.184L41.251,47.02M26.165,44.393h1.678V33.988H26.165ZM35.683,31.38H18.315v.808H35.683ZM22.669,47.018h8.661V46.21H22.669Z" transform="translate(0 0)"/>
      </g>
    </g>
  </g>
</svg>
