<svg xmlns="http://www.w3.org/2000/svg" width="32" height="29.409" viewBox="0 0 32 29.409">
  <g id="Group_37832" data-name="Group 37832" transform="translate(-0.001 -19.435)">
    <path id="Path_105643" data-name="Path 105643" d="M16.8,39.58V38.79a2.632,2.632,0,0,1-2.115-2.577.533.533,0,0,1,1.066,0,1.562,1.562,0,1,0,1.562-1.562,2.628,2.628,0,0,1-.513-5.206v-.8a.533.533,0,0,1,1.066,0v.805a2.632,2.632,0,0,1,2.074,2.569.533.533,0,0,1-1.066,0,1.562,1.562,0,1,0-1.562,1.562,2.628,2.628,0,0,1,.554,5.2v.8a.533.533,0,0,1-1.066,0ZM27.681,23.755A14.686,14.686,0,0,0,2.695,32.788a.533.533,0,1,0,1.062.1A13.616,13.616,0,1,1,11.93,46.61,6.866,6.866,0,0,0,8.377,35.272a9.038,9.038,0,1,1,8.964,7.888.533.533,0,1,0,0,1.066A10.1,10.1,0,1,0,7.286,35.119a6.868,6.868,0,1,0-.408,13.725.533.533,0,1,0,0-1.066,5.8,5.8,0,1,1,.9-11.534.527.527,0,0,0,.068.011,5.811,5.811,0,0,1,4.831,5.721,5.973,5.973,0,0,1-2.074,4.438.532.532,0,0,0,.152.823C20.222,52.182,32,45.063,32,34.118a14.574,14.574,0,0,0-4.32-10.363ZM7.478,39.78h-1.1l.416-.438a.533.533,0,1,0-.773-.734L4.757,39.941a.533.533,0,0,0,0,.734l1.267,1.334a.533.533,0,0,0,.773-.734l-.407-.429H7.478a1.533,1.533,0,0,1,0,3.066h-2.6a.533.533,0,1,0,0,1.066h2.6a2.6,2.6,0,1,0,0-5.2Z" transform="translate(0)"/>
  </g>
</svg>
