<svg xmlns="http://www.w3.org/2000/svg" width="32" height="31.504" viewBox="0 0 32 31.504">
  <g id="Group_379551" data-name="Group 379551" transform="translate(0 -3.968)">
    <path id="Path_105772" data-name="Path 105772" d="M9,19.213H23a1.97,1.97,0,0,0,1.968-1.968V10.028A1.97,1.97,0,0,0,23,8.06h-6.09l-1.74-3.01a2.118,2.118,0,0,0-1.876-1.082H9A1.97,1.97,0,0,0,7.031,5.936v11.31A1.97,1.97,0,0,0,9,19.213ZM23,9.06a.969.969,0,0,1,.968.968v7.218a.969.969,0,0,1-.968.968H9a.969.969,0,0,1-.968-.968V9.06ZM9,4.968h4.3a1.127,1.127,0,0,1,1.011.583L15.756,8.06H8.031V5.936A.969.969,0,0,1,9,4.968ZM3.923,25.421V23.4a.5.5,0,0,1,.5-.5H15.5V21.5a.5.5,0,0,1,1,0v1.4H27.577a.5.5,0,0,1,.5.5v2.018a.5.5,0,0,1-1,0V23.9H16.5v1.518a.5.5,0,0,1-1,0V23.9H4.923v1.518a.5.5,0,1,1-1,0ZM30.8,29.651H28.063l-.75-1.3a1.279,1.279,0,0,0-1.118-.645h-2.04a1.2,1.2,0,0,0-1.2,1.2v5.37a1.2,1.2,0,0,0,1.2,1.2H30.8a1.2,1.2,0,0,0,1.2-1.2V30.848A1.2,1.2,0,0,0,30.8,29.651Zm-6.649-.943h2.04a.275.275,0,0,1,.253.146l.461.8h-2.95V28.9A.2.2,0,0,1,24.154,28.708ZM31,34.275a.2.2,0,0,1-.2.2H24.154a.2.2,0,0,1-.2-.2V30.651H30.8a.2.2,0,0,1,.2.2ZM19.324,29.651h-2.74l-.75-1.3a1.279,1.279,0,0,0-1.118-.645h-2.04a1.2,1.2,0,0,0-1.2,1.2v5.371a1.2,1.2,0,0,0,1.2,1.2h6.649a1.2,1.2,0,0,0,1.2-1.2V30.848A1.2,1.2,0,0,0,19.324,29.651Zm-6.649-.943h2.04a.275.275,0,0,1,.253.146l.461.8h-2.95V28.9A.2.2,0,0,1,12.675,28.708Zm6.846,5.567a.2.2,0,0,1-.2.2H12.675a.2.2,0,0,1-.2-.2V30.651h6.846a.2.2,0,0,1,.2.2ZM7.846,29.651H5.105l-.75-1.3a1.279,1.279,0,0,0-1.118-.645H1.2A1.2,1.2,0,0,0,0,28.9v5.371a1.2,1.2,0,0,0,1.2,1.2H7.846a1.2,1.2,0,0,0,1.2-1.2V30.848A1.2,1.2,0,0,0,7.846,29.651ZM1.2,28.708h2.04a.275.275,0,0,1,.253.146l.461.8H1V28.9A.2.2,0,0,1,1.2,28.708Zm6.846,5.567a.2.2,0,0,1-.2.2H1.2a.2.2,0,0,1-.2-.2V30.651H7.846a.2.2,0,0,1,.2.2v3.427Z"/>
  </g>
</svg>
