<svg xmlns="http://www.w3.org/2000/svg" width="32.2" height="32.2" viewBox="0 0 32.2 32.2">
  <g id="Group_37994" data-name="Group 37994" transform="translate(-0.9 -0.9)">
    <g id="Group_37994-2" data-name="Group 37994" transform="translate(1 1)">
      <path id="Path_105956" data-name="Path 105956" d="M31.528,25.244l-1.886-1.886-.628.294L28.777,23H26.11l-.237.652-.628-.294-1.886,1.886.294.628L23,26.11v2.667l.652.237-.294.628,1.886,1.886.628-.294.237.653h2.667l.237-.652.628.294,1.886-1.886-.294-.628.653-.237V26.11l-.652-.237Zm-.629,2.84-.406.148-.221.106-.208.5.277.593-.907.907-.593-.277-.533.221-.223.615H26.8l-.148-.406-.106-.221-.5-.208-.593.277-.907-.907.277-.593-.221-.533-.614-.223V26.8l.406-.148.221-.106.208-.5-.277-.593.907-.907.593.277.532-.221.224-.615h1.283l.148.406.1.221.5.209.593-.277.907.907-.277.593.221.533.615.224Z" transform="translate(-11.443 -11.443)" stroke="#fff" stroke-width="0.2"/>
      <path id="Path_105957" data-name="Path 105957" d="M29.469,27a2.469,2.469,0,1,0,2.469,2.469A2.471,2.471,0,0,0,29.469,27Zm0,3.95a1.481,1.481,0,1,1,1.481-1.481A1.483,1.483,0,0,1,29.469,30.95Z" transform="translate(-13.469 -13.469)" stroke="#fff" stroke-width="0.2"/>
      <path id="Path_105958" data-name="Path 105958" d="M45.962,9.887H44.686l.975-.975a4.455,4.455,0,1,0-.7-.7l-.975.975V7.912H43v2.962h2.962Zm.59-1.546a1.954,1.954,0,0,1,3.756,0,3.435,3.435,0,0,1-3.756,0Zm.891-3.391a.987.987,0,1,1,.987.987A.988.988,0,0,1,47.443,4.95Zm.987-2.962a3.454,3.454,0,0,1,2.661,5.659,2.978,2.978,0,0,0-1.24-1.331,1.975,1.975,0,1,0-2.841,0,2.978,2.978,0,0,0-1.24,1.331,3.454,3.454,0,0,1,2.66-5.659Z" transform="translate(-20.874 -1)" stroke="#fff" stroke-width="0.2"/>
      <path id="Path_105959" data-name="Path 105959" d="M7.912,43.987H9.189l-.975.975a4.455,4.455,0,1,0,.7.7l.975-.975v1.277h.987V43H7.912ZM3.565,51.328a1.954,1.954,0,0,1,3.756,0,3.435,3.435,0,0,1-3.756,0Zm.891-3.391a.987.987,0,1,1,.987.987A.988.988,0,0,1,4.456,47.937Zm3.648,2.7A2.978,2.978,0,0,0,6.864,49.3a1.975,1.975,0,1,0-2.841,0,2.978,2.978,0,0,0-1.24,1.331,3.456,3.456,0,1,1,5.321,0Z" transform="translate(-1 -20.874)" stroke="#fff" stroke-width="0.2"/>
      <path id="Path_105960" data-name="Path 105960" d="M48.431,43.987a4.418,4.418,0,0,0-2.77.975l-.975-.975h1.277V43H43v2.962h.987V44.686l.975.975a4.44,4.44,0,1,0,3.468-1.673Zm-1.878,7.341a1.954,1.954,0,0,1,3.756,0,3.435,3.435,0,0,1-3.756,0Zm.891-3.391a.987.987,0,1,1,.987.987A.988.988,0,0,1,47.443,47.937Zm3.648,2.7a2.978,2.978,0,0,0-1.24-1.331,1.975,1.975,0,1,0-2.841,0,2.978,2.978,0,0,0-1.24,1.331,3.456,3.456,0,1,1,5.321,0Z" transform="translate(-20.874 -20.874)" stroke="#fff" stroke-width="0.2"/>
      <path id="Path_105961" data-name="Path 105961" d="M5.443,9.887a4.418,4.418,0,0,0,2.77-.975l.975.975H7.912v.987h2.962V7.912H9.887V9.189l-.975-.975A4.44,4.44,0,1,0,5.443,9.887ZM3.565,8.341a1.954,1.954,0,0,1,3.756,0,3.435,3.435,0,0,1-3.756,0ZM4.456,4.95a.987.987,0,1,1,.987.987A.988.988,0,0,1,4.456,4.95Zm.987-2.962A3.454,3.454,0,0,1,8.1,7.646a2.978,2.978,0,0,0-1.24-1.331,1.975,1.975,0,1,0-2.841,0,2.978,2.978,0,0,0-1.24,1.331,3.454,3.454,0,0,1,2.66-5.659Z" transform="translate(-1 -1)" stroke="#fff" stroke-width="0.2"/>
      <path id="Path_105962" data-name="Path 105962" d="M30.469,54.058V53h-.987v1.058a1.975,1.975,0,1,0,.987,0Zm-.494,2.892a.987.987,0,1,1,.987-.987A.988.988,0,0,1,29.975,56.95Z" transform="translate(-13.975 -25.937)" stroke="#fff" stroke-width="0.2"/>
      <path id="Path_105963" data-name="Path 105963" d="M55.962,28a1.973,1.973,0,0,0-1.9,1.481H53v.987h1.058A1.972,1.972,0,1,0,55.962,28Zm0,2.962a.987.987,0,1,1,.987-.987A.988.988,0,0,1,55.962,30.962Z" transform="translate(-25.937 -13.975)" stroke="#fff" stroke-width="0.2"/>
      <path id="Path_105964" data-name="Path 105964" d="M33.151,23.606V22.545H31a7.953,7.953,0,0,0-7.4-7.4V13H22.545v2.148a7.953,7.953,0,0,0-7.4,7.4H13v1.061h2.148a7.953,7.953,0,0,0,7.4,7.4v2.148h1.061V31a7.953,7.953,0,0,0,7.4-7.4ZM23.075,29.969a6.894,6.894,0,1,1,6.894-6.894A6.9,6.9,0,0,1,23.075,29.969Z" transform="translate(-7.075 -7.075)" stroke="#fff" stroke-width="0.2"/>
      <path id="Path_105965" data-name="Path 105965" d="M29.481,4.88V5.937h.987V4.88a1.975,1.975,0,1,0-.987,0Zm.494-2.892a.987.987,0,1,1-.987.987A.988.988,0,0,1,29.975,1.987Z" transform="translate(-13.975 -1)" stroke="#fff" stroke-width="0.2"/>
      <path id="Path_105966" data-name="Path 105966" d="M2.975,31.95a1.973,1.973,0,0,0,1.9-1.481H5.937v-.987H4.88a1.972,1.972,0,1,0-1.9,2.469Zm0-2.962a.987.987,0,1,1-.987.987A.988.988,0,0,1,2.975,28.987Z" transform="translate(-1 -13.975)" stroke="#fff" stroke-width="0.2"/>
    </g>
  </g>
</svg>
