<svg width="32" height="32" viewBox="0 0 32 32" fill="none" xmlns="http://www.w3.org/2000/svg">
<path d="M9.81836 11.2727V12.7273C9.81836 12.8237 9.85667 12.9162 9.92487 12.9844C9.99306 13.0526 10.0856 13.0909 10.182 13.0909H21.8184C21.9148 13.0909 22.0073 13.0526 22.0755 12.9844C22.1437 12.9162 22.182 12.8237 22.182 12.7273V11.2727C22.1775 11.1699 22.1338 11.0727 22.0599 11.0011L18.9093 8.2003V0.727284C18.9093 0.630841 18.871 0.538349 18.8028 0.470154C18.7346 0.401959 18.6421 0.363647 18.5456 0.363647H13.4547C13.3583 0.363647 13.2658 0.401959 13.1976 0.470154C13.1294 0.538349 13.0911 0.630841 13.0911 0.727284V8.2003L9.9405 11.0011C9.90254 11.0355 9.8721 11.0774 9.85108 11.1242C9.83007 11.1709 9.81893 11.2215 9.81836 11.2727V11.2727ZM13.6962 8.63532C13.7346 8.60124 13.7654 8.55941 13.7864 8.51258C13.8075 8.46575 13.8184 8.41499 13.8184 8.36365V1.09092H18.182V8.36365C18.182 8.41499 18.1929 8.46575 18.2139 8.51258C18.235 8.55941 18.2657 8.60124 18.3041 8.63532L20.862 10.9091H15.2729C15.1765 10.9091 15.084 10.9474 15.0158 11.0156C14.9476 11.0838 14.9093 11.1763 14.9093 11.2727C14.9093 11.3692 14.9476 11.4617 15.0158 11.5299C15.084 11.5981 15.1765 11.6364 15.2729 11.6364H21.4547V12.3636H10.5456V11.6364H13.4547C13.5512 11.6364 13.6437 11.5981 13.7119 11.5299C13.78 11.4617 13.8184 11.3692 13.8184 11.2727C13.8184 11.1763 13.78 11.0838 13.7119 11.0156C13.6437 10.9474 13.5512 10.9091 13.4547 10.9091H11.1384L13.6962 8.63532Z" fill="black"/>
<path d="M31.273 0.363647H21.0912C20.9947 0.363647 20.9022 0.401959 20.834 0.470154C20.7659 0.538349 20.7275 0.630841 20.7275 0.727284V8.72728C20.7275 8.82373 20.7659 8.91622 20.834 8.98441C20.9022 9.05261 20.9947 9.09092 21.0912 9.09092H31.273C31.3694 9.09092 31.4619 9.05261 31.5301 8.98441C31.5983 8.91622 31.6366 8.82373 31.6366 8.72728V0.727284C31.6366 0.630841 31.5983 0.538349 31.5301 0.470154C31.4619 0.401959 31.3694 0.363647 31.273 0.363647ZM21.4548 1.09092H25.8184V8.36365H21.4548V1.09092ZM30.9094 8.36365H26.5457V1.09092H30.9094V8.36365Z" fill="black"/>
<path d="M25.0912 4C24.9947 4 24.9022 4.03831 24.834 4.10651C24.7659 4.1747 24.7275 4.26719 24.7275 4.36364V5.09091C24.7275 5.18735 24.7659 5.27984 24.834 5.34804C24.9022 5.41623 24.9947 5.45455 25.0912 5.45455C25.1876 5.45455 25.2801 5.41623 25.3483 5.34804C25.4165 5.27984 25.4548 5.18735 25.4548 5.09091V4.36364C25.4548 4.26719 25.4165 4.1747 25.3483 4.10651C25.2801 4.03831 25.1876 4 25.0912 4Z" fill="black"/>
<path d="M27.2728 5.45455C27.3693 5.45455 27.4618 5.41623 27.5299 5.34804C27.5981 5.27984 27.6365 5.18735 27.6365 5.09091V4.36364C27.6365 4.26719 27.5981 4.1747 27.5299 4.10651C27.4618 4.03831 27.3693 4 27.2728 4C27.1764 4 27.0839 4.03831 27.0157 4.10651C26.9475 4.1747 26.9092 4.26719 26.9092 4.36364V5.09091C26.9092 5.18735 26.9475 5.27984 27.0157 5.34804C27.0839 5.41623 27.1764 5.45455 27.2728 5.45455Z" fill="black"/>
<path d="M0.727406 9.09092H10.9092C11.0057 9.09092 11.0982 9.05261 11.1664 8.98441C11.2345 8.91622 11.2729 8.82373 11.2729 8.72728V0.727284C11.2729 0.630841 11.2345 0.538349 11.1664 0.470154C11.0982 0.401959 11.0057 0.363647 10.9092 0.363647H0.727406C0.630964 0.363647 0.538471 0.401959 0.470276 0.470154C0.402081 0.538349 0.36377 0.630841 0.36377 0.727284V8.72728C0.36377 8.82373 0.402081 8.91622 0.470276 8.98441C0.538471 9.05261 0.630964 9.09092 0.727406 9.09092ZM10.5456 8.36365H6.18195V1.09092H10.5456V8.36365ZM1.09104 1.09092H5.45468V8.36365H1.09104V1.09092Z" fill="black"/>
<path d="M4.72741 4C4.63096 4 4.53847 4.03831 4.47028 4.10651C4.40208 4.1747 4.36377 4.26719 4.36377 4.36364V5.09091C4.36377 5.18735 4.40208 5.27984 4.47028 5.34804C4.53847 5.41623 4.63096 5.45455 4.72741 5.45455C4.82385 5.45455 4.91634 5.41623 4.98454 5.34804C5.05273 5.27984 5.09104 5.18735 5.09104 5.09091V4.36364C5.09104 4.26719 5.05273 4.1747 4.98454 4.10651C4.91634 4.03831 4.82385 4 4.72741 4Z" fill="black"/>
<path d="M6.90905 5.45455C7.00549 5.45455 7.09798 5.41623 7.16618 5.34804C7.23437 5.27984 7.27268 5.18735 7.27268 5.09091V4.36364C7.27268 4.26719 7.23437 4.1747 7.16618 4.10651C7.09798 4.03831 7.00549 4 6.90905 4C6.8126 4 6.72011 4.03831 6.65192 4.10651C6.58372 4.1747 6.54541 4.26719 6.54541 4.36364V5.09091C6.54541 5.18735 6.58372 5.27984 6.65192 5.34804C6.72011 5.41623 6.8126 5.45455 6.90905 5.45455Z" fill="black"/>
<path d="M31.2729 19.2728H30.5456V16C30.5456 15.7107 30.4307 15.4332 30.2261 15.2286C30.0215 15.0241 29.744 14.9091 29.4547 14.9091C29.1654 14.9091 28.8879 15.0241 28.6833 15.2286C28.4787 15.4332 28.3638 15.7107 28.3638 16V16.7273C28.3638 16.8237 28.4021 16.9162 28.4703 16.9844C28.5385 17.0526 28.631 17.0909 28.7274 17.0909C28.8238 17.0909 28.9163 17.0526 28.9845 16.9844C29.0527 16.9162 29.091 16.8237 29.091 16.7273V16C29.091 15.9036 29.1294 15.8111 29.1975 15.7429C29.2657 15.6747 29.3582 15.6364 29.4547 15.6364C29.5511 15.6364 29.6436 15.6747 29.7118 15.7429C29.78 15.8111 29.8183 15.9036 29.8183 16V19.2728H21.3877C21.4308 19.1563 21.4535 19.0333 21.4547 18.9091V18.1818H22.5456C22.642 18.1818 22.7345 18.1435 22.8027 18.0753C22.8709 18.0071 22.9092 17.9147 22.9092 17.8182C22.9092 17.7218 22.8709 17.6293 22.8027 17.5611C22.7345 17.4929 22.642 17.4546 22.5456 17.4546H17.4547C17.3582 17.4546 17.2657 17.4929 17.1975 17.5611C17.1294 17.6293 17.091 17.7218 17.091 17.8182V18.9091C17.0923 19.0333 17.115 19.1563 17.1581 19.2728H14.7072C14.8381 19.0527 14.9078 18.8016 14.9092 18.5455V17.8182H15.2729C15.3693 17.8182 15.4618 17.7799 15.53 17.7117C15.5982 17.6435 15.6365 17.551 15.6365 17.4546C15.6365 17.3581 15.5982 17.2656 15.53 17.1974C15.4618 17.1292 15.3693 17.0909 15.2729 17.0909H14.9092V16.7273C14.9092 16.6309 14.8709 16.5384 14.8027 16.4702C14.7345 16.402 14.642 16.3637 14.5456 16.3637H10.9092C10.8128 16.3637 10.7203 16.402 10.6521 16.4702C10.5839 16.5384 10.5456 16.6309 10.5456 16.7273V17.0909H10.182C10.0855 17.0909 9.99302 17.1292 9.92482 17.1974C9.85663 17.2656 9.81832 17.3581 9.81832 17.4546C9.81832 17.551 9.85663 17.6435 9.92482 17.7117C9.99302 17.7799 10.0855 17.8182 10.182 17.8182H10.5456V18.5455C10.547 18.8016 10.6169 19.0527 10.7478 19.2728H6.34922C6.70954 18.874 6.90909 18.3557 6.90922 17.8182V16.7273C6.90922 16.6309 6.87091 16.5384 6.80272 16.4702C6.73452 16.402 6.64203 16.3637 6.54559 16.3637H5.24162L5.71177 15.8935C5.77801 15.8249 5.81466 15.733 5.81383 15.6377C5.813 15.5424 5.77476 15.4512 5.70734 15.3837C5.63992 15.3163 5.54871 15.2781 5.45337 15.2772C5.35803 15.2764 5.26617 15.3131 5.19759 15.3793L4.21319 16.3637H2.90922C2.81278 16.3637 2.72029 16.402 2.65209 16.4702C2.5839 16.5384 2.54559 16.6309 2.54559 16.7273V17.8182C2.54573 18.3557 2.74527 18.874 3.10559 19.2728H0.727406C0.630964 19.2728 0.538471 19.3111 0.470276 19.3793C0.402081 19.4475 0.36377 19.5399 0.36377 19.6364V31.2728C0.36377 31.3692 0.402081 31.4617 0.470276 31.5299C0.538471 31.5981 0.630964 31.6364 0.727406 31.6364H6.54559C6.64203 31.6364 6.73452 31.5981 6.80272 31.5299C6.87091 31.4617 6.90922 31.3692 6.90922 31.2728C6.90922 31.1763 6.87091 31.0838 6.80272 31.0156C6.73452 30.9474 6.64203 30.9091 6.54559 30.9091H1.09104V30.1818H30.9092V30.9091H8.72741C8.63096 30.9091 8.53847 30.9474 8.47028 31.0156C8.40208 31.0838 8.36377 31.1763 8.36377 31.2728C8.36377 31.3692 8.40208 31.4617 8.47028 31.5299C8.53847 31.5981 8.63096 31.6364 8.72741 31.6364H31.2729C31.3693 31.6364 31.4618 31.5981 31.53 31.5299C31.5982 31.4617 31.6365 31.3692 31.6365 31.2728V28.7273C31.6365 28.6309 31.5982 28.5384 31.53 28.4702C31.4618 28.402 31.3693 28.3637 31.2729 28.3637C31.1764 28.3637 31.0839 28.402 31.0157 28.4702C30.9475 28.5384 30.9092 28.6309 30.9092 28.7273V29.4546H27.2729V23.6364H30.9092V27.2728C30.9092 27.3692 30.9475 27.4617 31.0157 27.5299C31.0839 27.5981 31.1764 27.6364 31.2729 27.6364C31.3693 27.6364 31.4618 27.5981 31.53 27.5299C31.5982 27.4617 31.6365 27.3692 31.6365 27.2728V19.6364C31.6365 19.5399 31.5982 19.4475 31.53 19.3793C31.4618 19.3111 31.3693 19.2728 31.2729 19.2728ZM17.8183 18.9091V18.1818H20.7274V18.9091C20.7273 19.0055 20.689 19.098 20.6208 19.1662C20.5527 19.2344 20.4602 19.2727 20.3638 19.2728H18.182C18.0855 19.2727 17.9931 19.2344 17.9249 19.1662C17.8567 19.098 17.8184 19.0055 17.8183 18.9091V18.9091ZM11.2729 18.5455V17.0909H14.182V18.5455C14.1817 18.7383 14.105 18.9231 13.9687 19.0595C13.8323 19.1958 13.6475 19.2725 13.4547 19.2728H12.0001C11.8073 19.2725 11.6225 19.1958 11.4862 19.0595C11.3498 18.9231 11.2731 18.7383 11.2729 18.5455V18.5455ZM3.27286 17.8182V17.0909H6.18195V17.8182C6.18195 18.204 6.02871 18.5739 5.75593 18.8467C5.48314 19.1195 5.11318 19.2728 4.72741 19.2728C4.34164 19.2728 3.97167 19.1195 3.69889 18.8467C3.42611 18.5739 3.27286 18.204 3.27286 17.8182ZM1.09104 20H9.09104V24.3637H1.09104V20ZM1.09104 25.0909H9.09104V29.4546H1.09104V25.0909ZM9.81832 20H22.182V29.4546H20.7274V27.2728C20.7274 27.1763 20.6891 27.0838 20.6209 27.0156C20.5527 26.9474 20.4602 26.9091 20.3638 26.9091C20.2673 26.9091 20.1748 26.9474 20.1066 27.0156C20.0384 27.0838 20.0001 27.1763 20.0001 27.2728V28H12.0001V23.6364H20.0001V25.8182C20.0001 25.9147 20.0384 26.0071 20.1066 26.0753C20.1748 26.1435 20.2673 26.1818 20.3638 26.1818C20.4602 26.1818 20.5527 26.1435 20.6209 26.0753C20.6891 26.0071 20.7274 25.9147 20.7274 25.8182V23.2728C20.7274 23.1763 20.6891 23.0838 20.6209 23.0156C20.5527 22.9474 20.4602 22.9091 20.3638 22.9091H11.6365C11.5401 22.9091 11.4476 22.9474 11.3794 23.0156C11.3112 23.0838 11.2729 23.1763 11.2729 23.2728V29.4546H9.81832V20ZM12.0001 29.4546V28.7273H20.0001V29.4546H12.0001ZM26.5456 29.4546H22.9092V23.6364H26.5456V29.4546ZM22.9092 22.9091V20H30.9092V22.9091H22.9092Z" fill="black"/>
<path d="M5.81818 21.8182H4.36364C4.26719 21.8182 4.1747 21.8565 4.10651 21.9247C4.03831 21.9929 4 22.0854 4 22.1818C4 22.2783 4.03831 22.3707 4.10651 22.4389C4.1747 22.5071 4.26719 22.5454 4.36364 22.5454H5.81818C5.91462 22.5454 6.00712 22.5071 6.07531 22.4389C6.14351 22.3707 6.18182 22.2783 6.18182 22.1818C6.18182 22.0854 6.14351 21.9929 6.07531 21.9247C6.00712 21.8565 5.91462 21.8182 5.81818 21.8182Z" fill="black"/>
<path d="M27.273 21.0909H26.5458C26.4493 21.0909 26.3568 21.1293 26.2886 21.1974C26.2204 21.2656 26.1821 21.3581 26.1821 21.4546C26.1821 21.551 26.2204 21.6435 26.2886 21.7117C26.3568 21.7799 26.4493 21.8182 26.5458 21.8182H27.273C27.3695 21.8182 27.462 21.7799 27.5302 21.7117C27.5984 21.6435 27.6367 21.551 27.6367 21.4546C27.6367 21.3581 27.5984 21.2656 27.5302 21.1974C27.462 21.1293 27.3695 21.0909 27.273 21.0909Z" fill="black"/>
<path d="M5.81818 26.9091H4.36364C4.26719 26.9091 4.1747 26.9474 4.10651 27.0156C4.03831 27.0838 4 27.1763 4 27.2728C4 27.3692 4.03831 27.4617 4.10651 27.5299C4.1747 27.5981 4.26719 27.6364 4.36364 27.6364H5.81818C5.91462 27.6364 6.00712 27.5981 6.07531 27.5299C6.14351 27.4617 6.18182 27.3692 6.18182 27.2728C6.18182 27.1763 6.14351 27.0838 6.07531 27.0156C6.00712 26.9474 5.91462 26.9091 5.81818 26.9091Z" fill="black"/>
<path d="M27.6367 26.1818V26.9091C27.6367 27.0055 27.675 27.098 27.7432 27.1662C27.8114 27.2344 27.9039 27.2727 28.0004 27.2727C28.0968 27.2727 28.1893 27.2344 28.2575 27.1662C28.3257 27.098 28.364 27.0055 28.364 26.9091V26.1818C28.364 26.0854 28.3257 25.9929 28.2575 25.9247C28.1893 25.8565 28.0968 25.8182 28.0004 25.8182C27.9039 25.8182 27.8114 25.8565 27.7432 25.9247C27.675 25.9929 27.6367 26.0854 27.6367 26.1818Z" fill="black"/>
<path d="M25.8182 27.2727C25.9147 27.2727 26.0072 27.2344 26.0754 27.1662C26.1436 27.098 26.1819 27.0055 26.1819 26.9091V26.1818C26.1819 26.0854 26.1436 25.9929 26.0754 25.9247C26.0072 25.8565 25.9147 25.8182 25.8182 25.8182C25.7218 25.8182 25.6293 25.8565 25.5611 25.9247C25.4929 25.9929 25.4546 26.0854 25.4546 26.1818V26.9091C25.4546 27.0055 25.4929 27.098 25.5611 27.1662C25.6293 27.2344 25.7218 27.2727 25.8182 27.2727Z" fill="black"/>
<path d="M18.9093 22.5455C19.125 22.5455 19.3359 22.4815 19.5153 22.3616C19.6947 22.2417 19.8346 22.0714 19.9171 21.872C19.9997 21.6727 20.0213 21.4533 19.9792 21.2417C19.9371 21.0301 19.8332 20.8357 19.6807 20.6832C19.5281 20.5306 19.3337 20.4267 19.1221 20.3846C18.9105 20.3425 18.6911 20.3641 18.4918 20.4467C18.2925 20.5293 18.1221 20.6691 18.0022 20.8485C17.8823 21.0279 17.8184 21.2388 17.8184 21.4546C17.8187 21.7438 17.9337 22.0211 18.1382 22.2256C18.3427 22.4301 18.62 22.5451 18.9093 22.5455V22.5455ZM18.9093 21.0909C18.9812 21.0909 19.0515 21.1122 19.1113 21.1522C19.1711 21.1922 19.2177 21.249 19.2452 21.3154C19.2727 21.3818 19.2799 21.455 19.2659 21.5255C19.2519 21.596 19.2173 21.6608 19.1664 21.7117C19.1155 21.7625 19.0507 21.7972 18.9802 21.8112C18.9097 21.8252 18.8366 21.818 18.7701 21.7905C18.7037 21.763 18.6469 21.7164 18.6069 21.6566C18.567 21.5968 18.5456 21.5265 18.5456 21.4546C18.5457 21.3581 18.584 21.2657 18.6522 21.1975C18.7204 21.1293 18.8128 21.091 18.9093 21.0909Z" fill="black"/>
<path d="M16.0001 22.5455C16.2159 22.5455 16.4268 22.4815 16.6062 22.3616C16.7856 22.2417 16.9254 22.0714 17.008 21.872C17.0905 21.6727 17.1121 21.4533 17.07 21.2417C17.0279 21.0301 16.924 20.8357 16.7715 20.6832C16.6189 20.5306 16.4245 20.4267 16.2129 20.3846C16.0013 20.3425 15.782 20.3641 15.5826 20.4467C15.3833 20.5293 15.2129 20.6691 15.093 20.8485C14.9732 21.0279 14.9092 21.2388 14.9092 21.4546C14.9095 21.7438 15.0245 22.0211 15.229 22.2256C15.4336 22.4301 15.7109 22.5451 16.0001 22.5455V22.5455ZM16.0001 21.0909C16.072 21.0909 16.1423 21.1122 16.2021 21.1522C16.2619 21.1922 16.3085 21.249 16.336 21.3154C16.3636 21.3818 16.3708 21.455 16.3567 21.5255C16.3427 21.596 16.3081 21.6608 16.2572 21.7117C16.2064 21.7625 16.1416 21.7972 16.071 21.8112C16.0005 21.8252 15.9274 21.818 15.8609 21.7905C15.7945 21.763 15.7377 21.7164 15.6977 21.6566C15.6578 21.5968 15.6365 21.5265 15.6365 21.4546C15.6365 21.3581 15.6748 21.2657 15.743 21.1975C15.8112 21.1293 15.9037 21.091 16.0001 21.0909Z" fill="black"/>
<path d="M13.0909 22.5455C13.3067 22.5455 13.5176 22.4815 13.697 22.3616C13.8764 22.2417 14.0162 22.0714 14.0988 21.872C14.1813 21.6727 14.2029 21.4533 14.1609 21.2417C14.1188 21.0301 14.0149 20.8357 13.8623 20.6832C13.7097 20.5306 13.5154 20.4267 13.3037 20.3846C13.0921 20.3425 12.8728 20.3641 12.6734 20.4467C12.4741 20.5293 12.3037 20.6691 12.1839 20.8485C12.064 21.0279 12 21.2388 12 21.4546C12.0003 21.7438 12.1154 22.0211 12.3199 22.2256C12.5244 22.4301 12.8017 22.5451 13.0909 22.5455V22.5455ZM13.0909 21.0909C13.1628 21.0909 13.2331 21.1122 13.2929 21.1522C13.3527 21.1922 13.3993 21.249 13.4269 21.3154C13.4544 21.3818 13.4616 21.455 13.4476 21.5255C13.4335 21.596 13.3989 21.6608 13.348 21.7117C13.2972 21.7625 13.2324 21.7972 13.1619 21.8112C13.0913 21.8252 13.0182 21.818 12.9518 21.7905C12.8853 21.763 12.8285 21.7164 12.7886 21.6566C12.7486 21.5968 12.7273 21.5265 12.7273 21.4546C12.7273 21.3581 12.7657 21.2657 12.8338 21.1975C12.902 21.1293 12.9945 21.091 13.0909 21.0909V21.0909Z" fill="black"/>
<path d="M18.1819 24.3636H13.8182C13.7218 24.3636 13.6293 24.402 13.5611 24.4702C13.4929 24.5383 13.4546 24.6308 13.4546 24.7273C13.4546 24.8237 13.4929 24.9162 13.5611 24.9844C13.6293 25.0526 13.7218 25.0909 13.8182 25.0909H18.1819C18.2783 25.0909 18.3708 25.0526 18.439 24.9844C18.5072 24.9162 18.5455 24.8237 18.5455 24.7273C18.5455 24.6308 18.5072 24.5383 18.439 24.4702C18.3708 24.402 18.2783 24.3636 18.1819 24.3636Z" fill="black"/>
</svg>
