<svg width="32" height="32" viewBox="0 0 32 32" fill="none" xmlns="http://www.w3.org/2000/svg">
<g clip-path="url(#clip0_26_1225)">
<path d="M16 5.33301C13.8904 5.33301 11.8281 5.9586 10.074 7.13067C8.31984 8.30273 6.95267 9.96864 6.14533 11.9177C5.338 13.8668 5.12676 16.0115 5.53834 18.0806C5.94991 20.1498 6.96581 22.0504 8.45757 23.5421C9.94933 25.0339 11.85 26.0498 13.9191 26.4614C15.9882 26.873 18.1329 26.6617 20.082 25.8544C22.0311 25.0471 23.697 23.6799 24.8691 21.9258C26.0411 20.1716 26.6667 18.1093 26.6667 15.9997C26.6635 13.1717 25.5386 10.4605 23.5389 8.46079C21.5392 6.4611 18.828 5.33625 16 5.33301V5.33301ZM16 25.5997C14.1013 25.5997 12.2453 25.0366 10.6666 23.9818C9.08786 22.9269 7.8574 21.4276 7.1308 19.6734C6.4042 17.9193 6.21409 15.989 6.58451 14.1268C6.95493 12.2646 7.86924 10.554 9.21182 9.21145C10.5544 7.86887 12.265 6.95455 14.1272 6.58414C15.9894 6.21372 17.9196 6.40383 19.6738 7.13043C21.428 7.85703 22.9273 9.08749 23.9822 10.6662C25.037 12.2449 25.6 14.101 25.6 15.9997C25.5971 18.5448 24.5847 20.9849 22.785 22.7846C20.9853 24.5843 18.5452 25.5967 16 25.5997V25.5997Z" fill="black"/>
<path d="M31.9195 14.4894C31.8791 14.1688 31.7359 13.87 31.5112 13.6377C31.2866 13.4055 30.9927 13.2524 30.6736 13.2014L28.976 12.9235C28.6487 11.5373 28.099 10.2134 27.3483 9.00296L28.351 7.60243C28.5423 7.33987 28.6428 7.02208 28.6372 6.69724C28.6317 6.37241 28.5203 6.05826 28.32 5.80243C28.0036 5.41266 27.6653 5.04122 27.3067 4.6899C26.9509 4.3306 26.577 3.98954 26.1867 3.66803C25.9315 3.4708 25.6191 3.36208 25.2966 3.35833C24.9741 3.35458 24.6592 3.456 24.3995 3.64723L22.9968 4.6515C21.7864 3.90082 20.4625 3.35112 19.0763 3.02376L18.7984 1.3267C18.7474 1.00633 18.5934 0.711297 18.3598 0.486227C18.1261 0.261156 17.8256 0.118287 17.5035 0.0792293C16.5018 -0.0290139 15.4914 -0.0290139 14.4896 0.0792293C14.1691 0.119604 13.8702 0.262862 13.638 0.487502C13.4058 0.712141 13.2527 1.00604 13.2016 1.3251L12.9238 3.02376C11.5376 3.35112 10.2136 3.90082 9.00325 4.6515L7.60271 3.64883C7.34087 3.45631 7.02318 3.35484 6.69822 3.35995C6.37326 3.36505 6.05891 3.47645 5.80324 3.6771C5.41731 3.99371 5.04776 4.32979 4.69604 4.68403C4.33382 5.03889 3.99228 5.41426 3.67311 5.8083C3.47495 6.06375 3.36529 6.37675 3.36067 6.70002C3.35605 7.02329 3.45673 7.33928 3.64751 7.6003L4.65178 9.00296C3.9011 10.2134 3.35141 11.5373 3.02404 12.9235L1.32698 13.2014C1.00661 13.2524 0.711579 13.4064 0.486508 13.64C0.261438 13.8737 0.118569 14.1742 0.079511 14.4963C-0.0271547 15.4986 -0.0271547 16.5094 0.079511 17.5118C0.120208 17.832 0.263609 18.1305 0.488222 18.3624C0.712835 18.5944 1.00656 18.7472 1.32538 18.7982L3.02298 19.076C3.35034 20.4622 3.90003 21.7862 4.65071 22.9966L3.65391 24.3912C3.46048 24.6538 3.35832 24.9725 3.36304 25.2986C3.36776 25.6247 3.4791 25.9402 3.68004 26.1971C3.97924 26.5635 4.32004 26.9379 4.69338 27.3096C5.04727 27.671 5.42119 28.0121 5.81338 28.3315C6.06758 28.5309 6.3804 28.641 6.70345 28.6447C7.02651 28.6485 7.3418 28.5457 7.60058 28.3523L9.00271 27.348C10.2131 28.0987 11.5371 28.6484 12.9232 28.9758L13.2011 30.6728C13.2522 30.9932 13.4062 31.2882 13.6398 31.5133C13.8734 31.7384 14.174 31.8812 14.496 31.9203C15.4978 32.027 16.5081 32.027 17.5099 31.9203C17.8305 31.8799 18.1293 31.7367 18.3616 31.512C18.5938 31.2874 18.7469 30.9935 18.7979 30.6744L19.0758 28.9768C20.4619 28.6495 21.7859 28.0998 22.9963 27.3491L24.3968 28.3518C24.659 28.5473 24.9788 28.6501 25.3058 28.644C25.6328 28.6379 25.9485 28.5233 26.2032 28.3182C26.5903 28.0033 26.9596 27.6671 27.3094 27.3112C27.6816 26.939 28.0223 26.5642 28.3312 26.187C28.5278 25.9316 28.6361 25.6193 28.6398 25.2971C28.6436 24.9749 28.5426 24.6602 28.352 24.4003L27.3478 22.9976C28.0985 21.7872 28.6482 20.4632 28.9755 19.0771L30.6726 18.7992C30.9929 18.7482 31.288 18.5942 31.513 18.3606C31.7381 18.1269 31.881 17.8263 31.92 17.5043C32.026 16.5048 32.026 15.4969 31.92 14.4974L31.9195 14.4894ZM30.8598 17.3864C30.845 17.4762 30.8024 17.559 30.7378 17.623C30.6733 17.6871 30.5902 17.7292 30.5003 17.7432L28.447 18.0798C28.3405 18.0973 28.2419 18.1467 28.1641 18.2214C28.0863 18.2962 28.033 18.3928 28.0112 18.4984C27.6997 20.0038 27.1052 21.4362 26.2592 22.7198C26.2003 22.8097 26.1699 22.9154 26.1721 23.023C26.1743 23.1306 26.2089 23.2349 26.2715 23.3224L27.4912 25.0291C27.5439 25.1004 27.5728 25.1865 27.5737 25.2752C27.5747 25.3638 27.5477 25.4505 27.4966 25.523C27.2004 25.8831 26.8862 26.2281 26.5552 26.5566C26.2322 26.8855 25.8912 27.1964 25.5339 27.4878C25.4603 27.5446 25.3699 27.5754 25.2768 27.5754C25.1838 27.5754 25.0934 27.5446 25.0198 27.4878L23.3243 26.2744C23.2368 26.2118 23.1324 26.1772 23.0249 26.175C22.9173 26.1728 22.8116 26.2032 22.7216 26.2622C21.4381 27.1081 20.0056 27.7027 18.5003 28.0142C18.3946 28.0359 18.2981 28.0892 18.2233 28.167C18.1486 28.2448 18.0992 28.3434 18.0816 28.4499L17.7451 30.5038C17.7334 30.5931 17.6931 30.6762 17.6302 30.7407C17.5674 30.8052 17.4853 30.8476 17.3963 30.8616C16.4704 30.9608 15.5366 30.9608 14.6107 30.8616C14.5204 30.8486 14.4367 30.8065 14.3725 30.7416C14.3083 30.6767 14.2671 30.5926 14.255 30.5022L13.9184 28.4488C13.9009 28.3424 13.8515 28.2437 13.7768 28.1659C13.702 28.0882 13.6054 28.0349 13.4998 28.0131C11.9949 27.7007 10.5629 27.1055 9.28005 26.259C9.19007 26.2 9.08437 26.1696 8.97681 26.1718C8.86926 26.174 8.76488 26.2086 8.67738 26.2712L6.98031 27.4862C6.91023 27.5412 6.82437 27.5723 6.7353 27.575C6.64623 27.5777 6.55865 27.5518 6.48538 27.5011C6.12101 27.2059 5.77394 26.89 5.44591 26.555C5.11861 26.2303 4.80782 25.8894 4.51471 25.5336C4.45894 25.4596 4.42878 25.3695 4.42878 25.2768C4.42878 25.1842 4.45894 25.094 4.51471 25.02L5.72804 23.324C5.79063 23.2365 5.8253 23.1322 5.82749 23.0246C5.82968 22.917 5.79929 22.8113 5.74031 22.7214C4.89435 21.4378 4.29982 20.0054 3.98831 18.5C3.96655 18.3944 3.91325 18.2978 3.83546 18.223C3.75766 18.1483 3.65903 18.0989 3.55258 18.0814L1.49871 17.7448C1.41015 17.7312 1.32805 17.6903 1.26389 17.6278C1.19972 17.5652 1.1567 17.4842 1.14084 17.396C1.04199 16.4701 1.04199 15.5363 1.14084 14.6104C1.15386 14.5201 1.19601 14.4365 1.26089 14.3723C1.32577 14.308 1.40983 14.2668 1.50031 14.2547L3.55364 13.9182C3.6601 13.9006 3.75873 13.8512 3.83652 13.7765C3.91432 13.7017 3.96762 13.6052 3.98938 13.4995C4.30092 11.9948 4.89526 10.5628 5.74084 9.27976C5.79982 9.18979 5.83021 9.08409 5.82802 8.97653C5.82583 8.86897 5.79117 8.76459 5.72858 8.6771L4.51364 6.97736C4.45962 6.90571 4.42956 6.81885 4.42774 6.72914C4.42592 6.63942 4.45243 6.55141 4.50351 6.47763C4.79691 6.11507 5.11122 5.76995 5.44484 5.44403C5.76936 5.11659 6.11024 4.8058 6.46618 4.51283C6.54022 4.45693 6.63047 4.42669 6.72324 4.42669C6.81602 4.42669 6.90627 4.45693 6.98031 4.51283L8.67578 5.72616C8.76328 5.78875 8.86766 5.82342 8.97521 5.8256C9.08277 5.82779 9.18847 5.79741 9.27844 5.73843C10.562 4.89247 11.9944 4.29794 13.4998 3.98643C13.6054 3.96467 13.702 3.91137 13.7768 3.83358C13.8515 3.75578 13.9009 3.65715 13.9184 3.5507L14.255 1.49683C14.2667 1.40751 14.307 1.32438 14.3698 1.25987C14.4327 1.19536 14.5148 1.15295 14.6038 1.13896C15.5297 1.03976 16.4635 1.03976 17.3894 1.13896C17.4797 1.15198 17.5634 1.19413 17.6276 1.25901C17.6918 1.32389 17.733 1.40795 17.7451 1.49843L18.0816 3.55176C18.0992 3.65821 18.1486 3.75685 18.2233 3.83464C18.2981 3.91244 18.3946 3.96573 18.5003 3.9875C20.0052 4.29953 21.4371 4.89442 22.72 5.74056C22.81 5.79954 22.9157 5.82993 23.0233 5.82774C23.1308 5.82555 23.2352 5.79088 23.3227 5.7283L25.0198 4.51336C25.0914 4.45858 25.1787 4.42811 25.2689 4.42638C25.359 4.42466 25.4474 4.45177 25.5211 4.50376C25.8832 4.80136 26.23 5.11715 26.56 5.4499C26.8895 5.77233 27.2001 6.11352 27.4902 6.47176C27.5436 6.54597 27.5717 6.63536 27.5705 6.72677C27.5692 6.81818 27.5386 6.90677 27.4832 6.9795L26.2699 8.6755C26.2073 8.76299 26.1727 8.86738 26.1705 8.97493C26.1683 9.08249 26.1987 9.18819 26.2576 9.27816C27.1036 10.5617 27.6981 11.9942 28.0096 13.4995C28.0314 13.6052 28.0847 13.7017 28.1625 13.7765C28.2403 13.8512 28.3389 13.9006 28.4454 13.9182L30.4992 14.2547C30.5891 14.2668 30.6725 14.3077 30.7372 14.3713C30.8018 14.4348 30.844 14.5176 30.8576 14.6072C30.9561 15.5315 30.9561 16.4637 30.8576 17.388L30.8598 17.3864Z" fill="black"/>
<path d="M10.6667 13.3333C10.9496 13.3333 11.2209 13.4456 11.4209 13.6457C11.6209 13.8457 11.7333 14.117 11.7333 14.3999C11.7333 14.5414 11.7895 14.677 11.8895 14.7771C11.9896 14.8771 12.1252 14.9333 12.2667 14.9333C12.4081 14.9333 12.5438 14.8771 12.6438 14.7771C12.7438 14.677 12.8 14.5414 12.8 14.3999C12.8 13.8341 12.5752 13.2915 12.1752 12.8914C11.7751 12.4914 11.2325 12.2666 10.6667 12.2666C10.1009 12.2666 9.55824 12.4914 9.15816 12.8914C8.75809 13.2915 8.53333 13.8341 8.53333 14.3999V17.5999C8.53333 18.1657 8.75809 18.7084 9.15816 19.1084C9.55824 19.5085 10.1009 19.7333 10.6667 19.7333C11.2325 19.7333 11.7751 19.5085 12.1752 19.1084C12.5752 18.7084 12.8 18.1657 12.8 17.5999C12.8 17.4585 12.7438 17.3228 12.6438 17.2228C12.5438 17.1228 12.4081 17.0666 12.2667 17.0666C12.1252 17.0666 11.9896 17.1228 11.8895 17.2228C11.7895 17.3228 11.7333 17.4585 11.7333 17.5999C11.7333 17.8828 11.6209 18.1541 11.4209 18.3542C11.2209 18.5542 10.9496 18.6666 10.6667 18.6666C10.3838 18.6666 10.1125 18.5542 9.91241 18.3542C9.71237 18.1541 9.59999 17.8828 9.59999 17.5999V14.3999C9.59999 14.117 9.71237 13.8457 9.91241 13.6457C10.1125 13.4456 10.3838 13.3333 10.6667 13.3333V13.3333Z" fill="black"/>
<path d="M17.6955 12.2748C17.5725 12.2523 17.4455 12.2738 17.3367 12.3354C17.228 12.397 17.1443 12.4948 17.1003 12.6119L16 15.5473L14.8998 12.614C14.8561 12.4969 14.7727 12.3989 14.6642 12.337C14.5556 12.2751 14.4287 12.2533 14.3057 12.2754C14.1827 12.2975 14.0714 12.3621 13.9911 12.4579C13.9109 12.5537 13.8669 12.6746 13.8667 12.7996V19.1996C13.8667 19.3411 13.9229 19.4767 14.0229 19.5767C14.1229 19.6768 14.2586 19.7329 14.4 19.7329C14.5415 19.7329 14.6771 19.6768 14.7772 19.5767C14.8772 19.4767 14.9334 19.3411 14.9334 19.1996V15.7409L15.5003 17.254C15.5383 17.3559 15.6065 17.4437 15.6958 17.5058C15.7851 17.5678 15.8913 17.601 16 17.601C16.1088 17.601 16.2149 17.5678 16.3042 17.5058C16.3936 17.4437 16.4618 17.3559 16.4998 17.254L17.0667 15.7409V19.1996C17.0667 19.3411 17.1229 19.4767 17.2229 19.5767C17.3229 19.6768 17.4586 19.7329 17.6 19.7329C17.7415 19.7329 17.8771 19.6768 17.9772 19.5767C18.0772 19.4767 18.1334 19.3411 18.1334 19.1996V12.7996C18.1334 12.6747 18.0896 12.5538 18.0095 12.4579C17.9295 12.3619 17.8184 12.2972 17.6955 12.2748Z" fill="black"/>
<path d="M19.2001 14.3999C19.2001 14.9657 19.4248 15.5084 19.8249 15.9084C20.225 16.3085 20.7676 16.5333 21.3334 16.5333C21.5444 16.5333 21.7506 16.5958 21.926 16.713C22.1014 16.8302 22.2381 16.9968 22.3189 17.1917C22.3996 17.3866 22.4207 17.6011 22.3796 17.808C22.3384 18.0149 22.2368 18.205 22.0877 18.3542C21.9385 18.5034 21.7484 18.6049 21.5415 18.6461C21.3346 18.6873 21.1201 18.6661 20.9252 18.5854C20.7303 18.5047 20.5637 18.368 20.4465 18.1925C20.3293 18.0171 20.2667 17.8109 20.2667 17.5999C20.2667 17.4585 20.2106 17.3228 20.1105 17.2228C20.0105 17.1228 19.8749 17.0666 19.7334 17.0666C19.592 17.0666 19.4563 17.1228 19.3563 17.2228C19.2563 17.3228 19.2001 17.4585 19.2001 17.5999C19.2001 18.0219 19.3252 18.4343 19.5596 18.7852C19.794 19.136 20.1272 19.4094 20.517 19.5709C20.9068 19.7323 21.3358 19.7746 21.7496 19.6923C22.1634 19.61 22.5435 19.4068 22.8419 19.1084C23.1403 18.8101 23.3434 18.43 23.4257 18.0161C23.5081 17.6023 23.4658 17.1734 23.3043 16.7835C23.1429 16.3937 22.8694 16.0605 22.5186 15.8261C22.1678 15.5917 21.7553 15.4666 21.3334 15.4666C21.1224 15.4666 20.9162 15.404 20.7408 15.2868C20.5654 15.1696 20.4287 15.003 20.3479 14.8081C20.2672 14.6132 20.2461 14.3988 20.2872 14.1918C20.3284 13.9849 20.43 13.7949 20.5792 13.6457C20.7283 13.4965 20.9184 13.3949 21.1253 13.3538C21.3322 13.3126 21.5467 13.3337 21.7416 13.4145C21.9365 13.4952 22.1031 13.6319 22.2203 13.8073C22.3375 13.9827 22.4001 14.189 22.4001 14.3999C22.4001 14.5414 22.4563 14.677 22.5563 14.7771C22.6563 14.8771 22.792 14.9333 22.9334 14.9333C23.0749 14.9333 23.2105 14.8771 23.3105 14.7771C23.4106 14.677 23.4667 14.5414 23.4667 14.3999C23.4667 13.8341 23.242 13.2915 22.8419 12.8914C22.4418 12.4914 21.8992 12.2666 21.3334 12.2666C20.7676 12.2666 20.225 12.4914 19.8249 12.8914C19.4248 13.2915 19.2001 13.8341 19.2001 14.3999Z" fill="black"/>
</g>
<defs>
<clipPath id="clip0_26_1225">
<rect width="32" height="32" fill="white"/>
</clipPath>
</defs>
</svg>
