<svg width="32" height="32" viewBox="0 0 32 32" fill="none" xmlns="http://www.w3.org/2000/svg">
<g clip-path="url(#clip0_11_134)">
<path d="M21.6752 1.59729C21.7896 1.33354 22.0962 1.21241 22.3599 1.32679C22.9265 1.57248 23.485 1.85448 24.0199 2.16485C24.2686 2.30923 24.3531 2.62773 24.2088 2.87641C24.1122 3.04291 23.9376 3.13585 23.7581 3.13585C23.6694 3.13585 23.5795 3.1131 23.4972 3.06541C22.9973 2.77523 22.4753 2.51173 21.9458 2.2821C21.682 2.16766 21.5609 1.8611 21.6752 1.59729Z" fill="black"/>
<path d="M11.4365 0.672885C12.029 0.496885 12.6385 0.354073 13.248 0.248448C13.531 0.199385 13.8008 0.389135 13.8498 0.672448C13.899 0.955823 13.7092 1.22526 13.4259 1.27439C12.8563 1.37314 12.2868 1.50657 11.7331 1.67101C11.6836 1.6857 11.6337 1.6927 11.5846 1.6927C11.3601 1.6927 11.153 1.54632 11.0857 1.32014C11.0038 1.04457 11.161 0.75476 11.4365 0.672885Z" fill="black"/>
<path d="M15.0958 0.0378828C15.3947 0.0211953 15.699 0.0126953 15.9999 0.0126953C16.0005 0.0126953 16.001 0.0126953 16.0017 0.0126953C16.3185 0.0126953 16.6393 0.0220703 16.955 0.0407578C17.242 0.0576953 17.461 0.30407 17.4441 0.59107C17.4278 0.867758 17.1985 1.08107 16.925 1.08107C16.9146 1.08107 16.9043 1.08082 16.8938 1.08013C16.5983 1.0627 16.2981 1.05388 16.0016 1.05388C16.001 1.05388 16.0005 1.05388 16 1.05388C15.7182 1.05388 15.4335 1.06182 15.1538 1.07745C14.8653 1.09388 14.621 0.873758 14.605 0.586695C14.589 0.299633 14.8087 0.0539453 15.0958 0.0378828Z" fill="black"/>
<path d="M0.110671 14.1225C0.182984 13.5079 0.292232 12.8916 0.435357 12.2908C0.502045 12.011 0.782732 11.8382 1.06248 11.905C1.34217 11.9716 1.51486 12.2524 1.44823 12.5321C1.31442 13.0937 1.21236 13.6697 1.14467 14.2443C1.11348 14.5092 0.888608 14.7041 0.628358 14.7041C0.607983 14.7041 0.587482 14.7029 0.566795 14.7005C0.281357 14.6668 0.0770464 14.4081 0.110671 14.1225Z" fill="black"/>
<path d="M0.814559 19.075C1.094 19.0091 1.37481 19.1822 1.44087 19.4622C1.57375 20.0248 1.74131 20.5856 1.93906 21.129C2.03737 21.3992 1.89806 21.6979 1.62781 21.7962C1.56906 21.8177 1.509 21.8277 1.44981 21.8277C1.23712 21.8277 1.0375 21.6964 0.960559 21.485C0.748872 20.9035 0.569622 20.3034 0.427434 19.7012C0.361434 19.4215 0.534809 19.141 0.814559 19.075Z" fill="black"/>
<path d="M8.02237 2.14038C8.55874 1.83125 9.11855 1.55082 9.68637 1.30675C9.95068 1.19288 10.2567 1.31525 10.3702 1.57944C10.4837 1.84357 10.3616 2.14975 10.0974 2.26332C9.56674 2.49144 9.04356 2.75363 8.54218 3.0425C8.46018 3.08969 8.37093 3.11213 8.28268 3.11213C8.10262 3.11213 7.92749 3.01857 7.83118 2.85138C7.68762 2.60225 7.77318 2.28394 8.02237 2.14038Z" fill="black"/>
<path d="M30.0561 21.1431C30.2542 20.6004 30.4223 20.0402 30.5557 19.4777C30.622 19.198 30.902 19.025 31.1824 19.0913C31.4621 19.1577 31.6351 19.4382 31.5688 19.718C31.426 20.3199 31.2462 20.9195 31.0342 21.5002C30.9571 21.7114 30.7575 21.8424 30.5451 21.8424C30.4859 21.8424 30.4255 21.8322 30.3666 21.8107C30.0965 21.712 29.9575 21.4131 30.0561 21.1431Z" fill="black"/>
<path d="M18.1991 0.679642C18.2492 0.396454 18.519 0.207579 18.8024 0.257517C19.4117 0.365142 20.0207 0.509954 20.6126 0.687829C20.888 0.770642 21.0441 1.06095 20.9613 1.33627C20.8935 1.56164 20.6867 1.70714 20.4629 1.70714C20.4133 1.70714 20.3628 1.70002 20.3128 1.68495C19.7598 1.51877 19.1907 1.38345 18.6213 1.28283C18.3381 1.23289 18.1491 0.962767 18.1991 0.679642Z" fill="black"/>
<path d="M0.520669 15.459C0.808231 15.459 1.04123 15.692 1.04123 15.9795V16.0125C1.04123 16.5924 1.07479 17.1767 1.14092 17.7492C1.17392 18.0349 0.96917 18.2932 0.683608 18.3262C0.663233 18.3285 0.643169 18.3297 0.623107 18.3297C0.362357 18.3297 0.137294 18.1341 0.106606 17.8689C0.0358562 17.2568 -1.64509e-05 16.6322 -1.64509e-05 16.0125V15.9796C0.000108549 15.692 0.233169 15.459 0.520669 15.459Z" fill="black"/>
<path d="M12.7918 31.1679C12.8415 30.8848 13.1115 30.6954 13.3946 30.7453C13.9625 30.8449 14.5438 30.9125 15.1222 30.9459C15.4092 30.9626 15.6285 31.2087 15.6118 31.4957C15.5959 31.7725 15.3663 31.9862 15.0926 31.9862C15.0825 31.9862 15.0722 31.9859 15.062 31.9853C14.4437 31.9496 13.822 31.8774 13.2145 31.7706C12.9313 31.7209 12.742 31.4511 12.7918 31.1679Z" fill="black"/>
<path d="M16.8622 30.947C17.4407 30.9141 18.022 30.8472 18.5899 30.7481C18.8736 30.6986 19.1428 30.8882 19.1923 31.1714C19.2417 31.4547 19.0522 31.7243 18.769 31.7738C18.1615 31.8798 17.5399 31.9514 16.9212 31.9865C16.9112 31.9871 16.9012 31.9873 16.8912 31.9873C16.6172 31.9873 16.3876 31.7732 16.3719 31.4963C16.3557 31.2092 16.5752 30.9633 16.8622 30.947Z" fill="black"/>
<path d="M20.2823 30.3496C20.836 30.1845 21.3861 29.9846 21.9172 29.7555C22.1811 29.6418 22.4876 29.7634 22.6013 30.0275C22.7153 30.2915 22.5934 30.5978 22.3294 30.7117C21.7609 30.9567 21.1723 31.1705 20.5797 31.3473C20.5301 31.3621 20.48 31.3692 20.4307 31.3692C20.2064 31.3692 19.9994 31.223 19.9319 30.9972C19.8499 30.7217 20.0067 30.4318 20.2823 30.3496Z" fill="black"/>
<path d="M30.9507 11.9529C31.2306 11.887 31.5109 12.0608 31.5766 12.3408C31.7177 12.9419 31.8251 13.5586 31.8954 14.1734C31.9282 14.4591 31.7231 14.7171 31.4374 14.7498C31.4172 14.7521 31.3973 14.7533 31.3775 14.7533C31.1165 14.7533 30.8913 14.5574 30.861 14.2919C30.7952 13.7171 30.6949 13.1407 30.5629 12.5788C30.4972 12.2988 30.6707 12.0187 30.9507 11.9529Z" fill="black"/>
<path d="M9.38441 30.0211C9.49854 29.7572 9.80485 29.6358 10.0689 29.7499C10.5996 29.9794 11.1492 30.1797 11.7025 30.3454C11.9779 30.4279 12.1343 30.718 12.0519 30.9934C11.9844 31.2191 11.7773 31.3649 11.5533 31.3649C11.5038 31.3649 11.4536 31.3577 11.4037 31.3429C10.8116 31.1656 10.2235 30.9512 9.65554 30.7056C9.39179 30.5915 9.27029 30.285 9.38441 30.0211Z" fill="black"/>
<path d="M30.8573 17.765C30.9241 17.1926 30.9582 16.6083 30.9588 16.0284C30.959 15.741 31.1921 15.5083 31.4793 15.5083C31.4794 15.5083 31.4796 15.5083 31.4799 15.5083C31.7674 15.5086 32.0002 15.7419 31.9999 16.0294C31.9993 16.6491 31.9628 17.2737 31.8914 17.8857C31.8605 18.1508 31.6356 18.346 31.3751 18.346C31.3549 18.346 31.3346 18.3449 31.3141 18.3425C31.0285 18.3092 30.824 18.0507 30.8573 17.765Z" fill="black"/>
<path d="M23.6795 7.34574C23.7633 7.10024 24.0306 6.96918 24.2757 7.05293C24.5212 7.13674 24.6523 7.40361 24.5685 7.64918C24.4684 7.9423 24.4177 8.2498 24.4177 8.56293V9.81736C24.4177 9.90955 24.4927 9.98449 24.5849 9.98449H30.5997C30.6919 9.98449 30.7669 9.90955 30.7669 9.81736V8.56293C30.7669 7.75505 30.4199 6.98968 29.8252 6.4563C29.322 7.12455 28.5223 7.55755 27.6232 7.55755C26.1041 7.55755 24.8682 6.32161 24.8682 4.80249C24.8682 3.28336 26.1041 2.04736 27.6231 2.04736C29.1422 2.04736 30.3782 3.2833 30.3782 4.80243C30.3782 5.07874 30.3369 5.34543 30.2608 5.59724C31.1691 6.30924 31.7061 7.40293 31.7061 8.56293V9.81736C31.7061 10.4274 31.2098 10.9238 30.5996 10.9238H24.5847C23.9746 10.9238 23.4782 10.4275 23.4782 9.8173V8.56286C23.4784 8.1463 23.546 7.7368 23.6795 7.34574ZM27.6231 2.98668C26.6219 2.98668 25.8074 3.80118 25.8074 4.80243C25.8074 5.80368 26.6219 6.61818 27.6231 6.61818C28.6242 6.61818 29.4388 5.80368 29.4388 4.80243C29.4388 3.80118 28.6243 2.98668 27.6231 2.98668Z" fill="black"/>
<path d="M0.495104 7.34568C0.578916 7.10018 0.846104 6.96911 1.09129 7.05286C1.33685 7.13668 1.46792 7.40355 1.3841 7.64911C1.2841 7.94224 1.23335 8.24974 1.23335 8.56286V9.8173C1.23335 9.90949 1.30829 9.98443 1.40048 9.98443H7.41535C7.50754 9.98443 7.58248 9.90949 7.58248 9.8173V8.56286C7.58248 7.75499 7.23554 6.98961 6.64079 6.45624C6.13761 7.12449 5.33792 7.55749 4.43885 7.55749C2.91973 7.55749 1.68379 6.32155 1.68379 4.80243C1.68379 3.2833 2.91973 2.04736 4.43885 2.04736C5.95804 2.04736 7.19386 3.2833 7.19386 4.80243C7.19386 5.07874 7.15254 5.34543 7.07648 5.59724C7.98467 6.30924 8.52173 7.40286 8.52173 8.56286V9.8173C8.52173 10.4274 8.02542 10.9238 7.41523 10.9238H1.40035C0.790229 10.9238 0.293854 10.4275 0.293854 9.8173V8.56286C0.293979 8.14624 0.361604 7.73674 0.495104 7.34568ZM4.43885 2.98661C3.43767 2.98661 2.6231 3.80111 2.6231 4.80236C2.6231 5.80361 3.4376 6.61811 4.43885 6.61811C5.43998 6.61811 6.25454 5.80361 6.25454 4.80236C6.25454 3.80111 5.43998 2.98661 4.43885 2.98661Z" fill="black"/>
<path d="M0.495226 26.3999C0.578976 26.1543 0.846226 26.0232 1.09135 26.1071C1.33691 26.1909 1.46798 26.4577 1.38416 26.7033C1.28416 26.9964 1.23341 27.3039 1.23341 27.6171V28.8715C1.23341 28.9637 1.30835 29.0386 1.40054 29.0386H7.41541C7.5076 29.0386 7.58254 28.9637 7.58254 28.8715V27.6171C7.58254 26.8092 7.2356 26.0438 6.64085 25.5104C6.13766 26.1787 5.33798 26.6117 4.43891 26.6117C2.91979 26.6117 1.68385 25.3757 1.68385 23.8566C1.68385 22.3374 2.91979 21.1016 4.43891 21.1016C5.9581 21.1016 7.19391 22.3375 7.19391 23.8566C7.19391 24.1329 7.1526 24.3996 7.07654 24.6514C7.98479 25.3634 8.52185 26.4571 8.52185 27.6171V28.8716C8.52185 29.4817 8.02554 29.9781 7.41535 29.9781H1.40048C0.790351 29.9781 0.293976 29.4817 0.293976 28.8716V27.6171C0.294101 27.2005 0.361726 26.791 0.495226 26.3999ZM4.43891 22.0408C3.43773 22.0408 2.62316 22.8553 2.62316 23.8566C2.62316 24.8578 3.43766 25.6723 4.43891 25.6723C5.44004 25.6723 6.2546 24.8578 6.2546 23.8566C6.2546 22.8553 5.44004 22.0408 4.43891 22.0408Z" fill="black"/>
<path d="M23.6795 26.3999C23.7633 26.1543 24.0306 26.0232 24.2756 26.1071C24.5212 26.1909 24.6522 26.4577 24.5684 26.7033C24.4684 26.9964 24.4177 27.3039 24.4177 27.6171V28.8715C24.4177 28.9637 24.4926 29.0386 24.5848 29.0386H30.5997C30.6919 29.0386 30.7668 28.9637 30.7668 28.8715V27.6171C30.7668 26.8092 30.4199 26.0438 29.8251 25.5104C29.3219 26.1787 28.5222 26.6117 27.6232 26.6117C26.1041 26.6117 24.8681 25.3757 24.8681 23.8566C24.8681 22.3374 26.1041 21.1016 27.6232 21.1016C29.1423 21.1016 30.3782 22.3375 30.3782 23.8566C30.3782 24.1329 30.3369 24.3996 30.2608 24.6514C31.1691 25.3634 31.7061 26.4571 31.7061 27.6171V28.8716C31.7061 29.4817 31.2097 29.9781 30.5996 29.9781H24.5847C23.9746 29.9781 23.4782 29.4817 23.4782 28.8716V27.6171C23.4784 27.2005 23.546 26.791 23.6795 26.3999ZM27.6231 22.0408C26.6219 22.0408 25.8074 22.8553 25.8074 23.8566C25.8074 24.8578 26.6219 25.6723 27.6231 25.6723C28.6242 25.6723 29.4388 24.8578 29.4388 23.8566C29.4388 22.8553 28.6243 22.0408 27.6231 22.0408Z" fill="black"/>
<path d="M11.5576 10.8228H16.5555C18.7151 10.8228 20.5118 12.4025 20.853 14.467H21.0235C22.9716 14.467 24.5565 16.0968 24.5565 18.1001C24.5565 19.5114 23.775 20.7754 22.5483 21.3775C21.9454 22.838 20.0642 23.5385 19.9809 23.5689C19.9284 23.5881 19.874 23.5973 19.8201 23.5973C19.6917 23.5973 19.566 23.5445 19.4755 23.4468C19.347 23.308 19.3142 23.1057 19.3924 22.9335C19.5815 22.5171 19.6878 22.115 19.7103 21.7333H17.085C15.633 21.7333 14.3832 20.8274 13.8407 19.5366H13.0929C13.1061 20.0509 13.2456 20.5946 13.5099 21.1583C13.5903 21.3297 13.5598 21.5326 13.4328 21.6729C13.3421 21.773 13.2149 21.8273 13.0846 21.8273C13.0322 21.8273 12.9795 21.8186 12.9283 21.8005C12.824 21.7637 10.4531 20.9087 9.72546 19.1328C8.18471 18.4201 7.20065 16.8909 7.20065 15.1798C7.20065 12.7773 9.15514 10.8228 11.5576 10.8228ZM10.2734 18.3468C10.4006 18.3985 10.5001 18.5014 10.542 18.6321C10.8055 19.455 11.6078 20.0676 12.2698 20.4498C12.156 19.9602 12.1248 19.4813 12.177 19.0174C12.2038 18.7788 12.4038 18.5972 12.644 18.5972H16.5554C17.0051 18.5972 17.4345 18.5093 17.8281 18.3505C18.0023 18.2802 18.2014 18.3185 18.3343 18.4514L18.341 18.4581C18.5771 18.6943 18.4946 19.0941 18.185 19.2196C17.6814 19.4238 17.1314 19.5365 16.5555 19.5365H14.8927C15.3526 20.2913 16.1633 20.7938 17.0851 20.7938H20.1674C20.4055 20.7938 20.6076 20.9721 20.6339 21.2088C20.6695 21.5296 20.6586 21.8589 20.6016 22.1947C21.0576 21.8937 21.5443 21.4588 21.7231 20.9018C21.7665 20.7667 21.8623 20.6533 21.9931 20.5985C22.9798 20.1849 23.6172 19.2042 23.6172 18.1001C23.6172 16.6148 22.4538 15.4064 21.0236 15.4064H20.9063C20.881 15.8973 20.7738 16.3669 20.5984 16.8019C20.4731 17.1126 20.073 17.1967 19.8361 16.9598C19.8338 16.9575 19.8315 16.9552 19.8293 16.9529C19.697 16.8206 19.6579 16.6224 19.7277 16.4488C19.8945 16.0341 19.9826 15.5796 19.9721 15.1036C19.9311 13.2381 18.373 11.7622 16.5071 11.7622H11.615C9.72908 11.7622 8.13408 13.3049 8.14002 15.1908C8.14439 16.5841 8.98089 17.8221 10.2734 18.3468Z" fill="black"/>
</g>
<defs>
<clipPath id="clip0_11_134">
<rect width="32" height="32" fill="white" transform="matrix(-1 0 0 1 32 0)"/>
</clipPath>
</defs>
</svg>
