<svg xmlns="http://www.w3.org/2000/svg" width="32" height="32" viewBox="0 0 32 32">
  <g id="Group_37841" data-name="Group 37841" transform="translate(-1 -1)">
    <g id="Group_37841-2" data-name="Group 37841" transform="translate(1 1)">
      <path id="Path_105650" data-name="Path 105650" d="M22.686,46.573H15.33l.652-.652a.5.5,0,0,0,0-.713L9.93,39.156a.5.5,0,0,0-.357-.148H2.009V38H1v9.078H2.009V46.069H6.367l5.408,4.425a.5.5,0,0,0,.319.114H22.686a.5.5,0,0,0,.5-.5V47.078a.5.5,0,0,0-.5-.5Zm-.5,3.026H12.275L6.867,45.174a.5.5,0,0,0-.319-.114H2.009V40.017H9.365l5.547,5.547-1.3,1.3L10.939,44.2l-.713.713,3.026,3.026a.5.5,0,0,0,.713,0l.357-.357h7.86Z" transform="translate(-1 -18.608)"/>
      <path id="Path_105651" data-name="Path 105651" d="M46.129,34.2V29.06a7.06,7.06,0,0,0-14.121,0V34.2a1.509,1.509,0,0,0,.5,2.933H45.625a1.509,1.509,0,0,0,.5-2.933Zm-.5,1.924H32.513a.5.5,0,0,1,0-1.009h1.513V34.1H33.017V29.06a6.052,6.052,0,0,1,12.1,0V34.1H44.112v1.009h1.513a.5.5,0,1,1,0,1.009Z" transform="translate(-15.138 -10.929)"/>
      <path id="Path_105652" data-name="Path 105652" d="M45.017,30.017a1.01,1.01,0,0,1,1.009,1.009h1.009a2.015,2.015,0,0,0-1.513-1.946V28H44.513v1.08a2.013,2.013,0,0,0,.5,3.963,1.009,1.009,0,1,1-1.009,1.009H43A2.015,2.015,0,0,0,44.513,36v1.08h1.009V36a2.013,2.013,0,0,0-.5-3.963,1.009,1.009,0,1,1,0-2.017Z" transform="translate(-21.249 -13.934)"/>
      <path id="Path_105653" data-name="Path 105653" d="M47.052,16.035h-1.29l1.257-3.353a.5.5,0,0,0-.66-.646l-2.334.933-2.334-.934a.5.5,0,0,0-.66.646l1.257,3.353H41v1.009h6.052Zm-3.685,0L42.377,13.4l1.461.585a.5.5,0,0,0,.375,0l1.461-.585-.989,2.638Z" transform="translate(-20.241 -6.298)"/>
      <path id="Path_105654" data-name="Path 105654" d="M9.069,17.138a8.01,8.01,0,0,0,4.369-1.29l3,1.25a.5.5,0,0,0,.194.039.5.5,0,0,0,.465-.7l-1.25-3a8.067,8.067,0,1,0-6.78,3.7Zm0-15.129a7.055,7.055,0,0,1,5.8,11.085.506.506,0,0,0-.052.482L15.7,15.7l-2.121-.884a.5.5,0,0,0-.482.052A7.059,7.059,0,1,1,9.069,2.009Z" transform="translate(-1 -1)"/>
      <path id="Path_105655" data-name="Path 105655" d="M10.017,12.035A2.017,2.017,0,1,0,8,10.017,2.019,2.019,0,0,0,10.017,12.035Zm0-3.026a1.009,1.009,0,1,1-1.009,1.009A1.01,1.01,0,0,1,10.017,9.009Z" transform="translate(-4.47 -4.47)"/>
      <path id="Path_105656" data-name="Path 105656" d="M20.017,18a2.017,2.017,0,1,0,2.017,2.017A2.019,2.019,0,0,0,20.017,18Zm0,3.026a1.009,1.009,0,1,1,1.009-1.009A1.01,1.01,0,0,1,20.017,21.026Z" transform="translate(-9.196 -9.196)"/>
      <path id="Path_105657" data-name="Path 105657" d="M0,0H11.411V1.009H0Z" transform="translate(3.676 11.747) rotate(-45)"/>
    </g>
  </g>
</svg>
