<svg id="Group_37678" data-name="Group 37678" xmlns="http://www.w3.org/2000/svg" xmlns:xlink="http://www.w3.org/1999/xlink" width="23.828" height="28" viewBox="0 0 23.828 28">
  <defs>
    <clipPath id="clip-path">
      <rect id="Rectangle_12550" data-name="Rectangle 12550" width="23.828" height="28"/>
    </clipPath>
  </defs>
  <g id="Group_37677" data-name="Group 37677" clip-path="url(#clip-path)">
    <path id="Path_105417" data-name="Path 105417" d="M12.071,0A46.606,46.606,0,0,0,23.123,4.757c.615.174.7.285.7.917,0,2.114.034,4.229-.021,6.341a16.964,16.964,0,0,1-4.645,11.445,17.105,17.105,0,0,1-5.144,3.855A19.245,19.245,0,0,1,12.126,28h-.437C7.535,26.964,2.818,22.561,1.1,17.754A15.64,15.64,0,0,1,.075,12.969C0,10.466.017,7.96,0,5.455c0-.367.145-.538.538-.65a47.832,47.832,0,0,0,5.4-1.872A46.281,46.281,0,0,0,11.371.218L11.744,0ZM22.692,9.4h-.04c0-1.1-.005-2.205,0-3.307a.27.27,0,0,0-.24-.317c-.438-.119-.87-.258-1.3-.4A47.629,47.629,0,0,1,12.14,1.4a.389.389,0,0,0-.446-.013A45.64,45.64,0,0,1,1.421,5.769a.3.3,0,0,0-.263.355c.009,1.731,0,3.462.007,5.193A17.182,17.182,0,0,0,2.181,17.26a15.978,15.978,0,0,0,3.867,5.946,15.921,15.921,0,0,0,4.93,3.36,2.013,2.013,0,0,0,1.736.048c.254-.121.521-.216.771-.343a16.6,16.6,0,0,0,7.152-6.833,15.124,15.124,0,0,0,1.914-6.324c.092-1.234.1-2.474.142-3.712" transform="translate(0)"/>
    <path id="Path_105418" data-name="Path 105418" d="M73.233,130.258a3.676,3.676,0,0,1,.246-.327q2.785-2.8,5.575-5.587a1.909,1.909,0,0,1,2.953,2.418,3.447,3.447,0,0,1-.25.288q-3.529,3.539-7.06,7.077a1.874,1.874,0,0,1-2.088.526,2.087,2.087,0,0,1-.728-.459c-1.151-1.128-2.294-2.264-3.417-3.419a1.9,1.9,0,0,1,.487-3.1,1.716,1.716,0,0,1,1.992.222c.709.624,1.357,1.318,2.027,1.987a3,3,0,0,1,.263.373m-.125,3.342a.928.928,0,0,0,.769-.317q3.517-3.529,7.038-7.054a1.668,1.668,0,0,0,.165-.182A.727.727,0,0,0,80.7,124.9a.8.8,0,0,0-.845.3q-3.016,3.026-6.036,6.048c-.429.43-.7.431-1.129,0-.785-.785-1.566-1.574-2.355-2.355a.736.736,0,1,0-1.038,1.039q1.691,1.707,3.4,3.4a1.831,1.831,0,0,0,.418.259" transform="translate(-63.229 -115.237)"/>
    <path id="Path_105419" data-name="Path 105419" d="M33.83,82.161c0-.337-.005-.673,0-1.01a.627.627,0,0,1,.473-.681q1.537-.548,3.076-1.089a.6.6,0,0,1,.754.187.548.548,0,0,1-.029.7,1.081,1.081,0,0,1-.387.239c-.808.3-1.617.595-2.432.873-.2.069-.29.145-.279.375.023.463.01.928,0,1.392a1.362,1.362,0,0,1-.043.349.569.569,0,0,1-.549.409.528.528,0,0,1-.544-.441c-.033-.433-.009-.87-.009-1.306H33.83" transform="translate(-31.515 -73.902)"/>
    <path id="Path_105420" data-name="Path 105420" d="M216.774,277.274a1.865,1.865,0,0,1-.146.322,15.906,15.906,0,0,1-3.542,3.788.576.576,0,0,1-.832-.039.59.59,0,0,1,.079-.852c.316-.287.657-.546.974-.832a14.121,14.121,0,0,0,2.316-2.673.663.663,0,0,1,.618-.372.593.593,0,0,1,.533.658" transform="translate(-197.608 -257.705)"/>
    <path id="Path_105421" data-name="Path 105421" d="M190.833,346.284a.613.613,0,0,1,.6-.611.593.593,0,0,1,.588.563.643.643,0,0,1-.625.629.577.577,0,0,1-.566-.581" transform="translate(-177.788 -322.043)"/>
    <path id="Path_105422" data-name="Path 105422" d="M106.365,69.023a.606.606,0,0,1,.575.607.619.619,0,0,1-.618.569.6.6,0,0,1-.56-.594.612.612,0,0,1,.6-.582" transform="translate(-98.533 -64.304)"/>
  </g>
</svg>
