<svg xmlns="http://www.w3.org/2000/svg" width="32" height="32" viewBox="0 0 32 32">
  <g id="Group_37997" data-name="Group 37997" transform="translate(0)">
    <g id="Group_37997-2" data-name="Group 37997" transform="translate(0 0)">
      <path id="Path_105975" data-name="Path 105975" d="M207.325,203.347a3.756,3.756,0,0,0-3.526,5.044.536.536,0,1,0,1.006-.368,2.682,2.682,0,1,1,1.138,1.378.536.536,0,0,0-.553.918,3.754,3.754,0,1,0,1.935-6.971Z" transform="translate(-191.312 -191.101)"/>
      <path id="Path_105976" data-name="Path 105976" d="M152.225,142.781l-.994-.149a6.826,6.826,0,0,0-.794-1.916l.6-.809a1.016,1.016,0,0,0-.1-1.33l-.7-.7a1.016,1.016,0,0,0-1.33-.1l-.809.6a6.822,6.822,0,0,0-1.916-.794l-.149-.994a1.016,1.016,0,0,0-1.011-.87h-.995a1.016,1.016,0,0,0-1.011.87l-.149.994a6.822,6.822,0,0,0-1.916.794l-.809-.6a1.016,1.016,0,0,0-1.33.1l-.7.7a1.016,1.016,0,0,0-.1,1.33l.6.808a6.819,6.819,0,0,0-.794,1.916l-.993.149a1.016,1.016,0,0,0-.87,1.011v.995a1.016,1.016,0,0,0,.87,1.011l.994.149a6.824,6.824,0,0,0,.794,1.916l-.6.808a1.016,1.016,0,0,0,.1,1.33l.7.7a1.016,1.016,0,0,0,1.33.1l.808-.6a6.821,6.821,0,0,0,1.916.794l.149.994a1.016,1.016,0,0,0,1.011.87h.995a1.016,1.016,0,0,0,1.011-.87l.149-.993a6.823,6.823,0,0,0,1.916-.794l.809.6a1.016,1.016,0,0,0,1.33-.1l.7-.7a1.016,1.016,0,0,0,.1-1.33l-.6-.808a6.821,6.821,0,0,0,.794-1.916l.993-.149a1.016,1.016,0,0,0,.87-1.011v-.995a1.016,1.016,0,0,0-.87-1.011Zm-.2,1.963-1.317.2a.536.536,0,0,0-.447.431,5.776,5.776,0,0,1-.915,2.209.536.536,0,0,0,.011.621l.792,1.072-.643.643-1.072-.792a.536.536,0,0,0-.621-.011,5.777,5.777,0,0,1-2.208.915.536.536,0,0,0-.431.447l-.2,1.317h-.91l-.2-1.317a.536.536,0,0,0-.431-.447,5.777,5.777,0,0,1-2.208-.915.535.535,0,0,0-.621.011l-1.072.792-.643-.643.792-1.072a.536.536,0,0,0,.011-.621,5.776,5.776,0,0,1-.915-2.208.536.536,0,0,0-.447-.431l-1.317-.2v-.91l1.317-.2a.536.536,0,0,0,.447-.431,5.776,5.776,0,0,1,.915-2.208.536.536,0,0,0-.011-.621l-.792-1.072.643-.643,1.072.792a.536.536,0,0,0,.621.011,5.778,5.778,0,0,1,2.208-.915.536.536,0,0,0,.431-.447l.2-1.317h.91l.2,1.317a.536.536,0,0,0,.431.447,5.776,5.776,0,0,1,2.208.915.536.536,0,0,0,.621-.011l1.072-.792.643.643-.792,1.072a.536.536,0,0,0-.011.621,5.776,5.776,0,0,1,.915,2.209.536.536,0,0,0,.447.431l1.317.2Z" transform="translate(-128.507 -128.289)"/>
      <path id="Path_105977" data-name="Path 105977" d="M31.962,15.831a.47.47,0,0,0-.432-.286h-.807A14.717,14.717,0,0,0,17.629,1.372L16.34.13a.473.473,0,0,0-.8.338V1.29a14.612,14.612,0,0,0-8,2.674.47.47,0,1,0,.541.768,13.688,13.688,0,0,1,7.93-2.51.47.47,0,0,0,.47-.47V1.573L18.941,3.94,16.483,5.926V5.463a.47.47,0,0,0-.47-.47A11.01,11.01,0,0,0,5.342,13.3L4.336,12.054a.473.473,0,0,0-.7-.031l-1.1,1.146A13.76,13.76,0,0,1,6.671,5.874a.47.47,0,0,0-.637-.69A14.687,14.687,0,0,0,1.39,14.352L.13,15.66a.473.473,0,0,0,.338.8H1.3a14.717,14.717,0,0,0,13.062,14.17l1.293,1.245a.473.473,0,0,0,.8-.338v-.821a14.6,14.6,0,0,0,8.13-2.746.47.47,0,0,0-.548-.763,13.682,13.682,0,0,1-8.029,2.576h-.023a.47.47,0,0,0-.47.47v.18L13.057,28.06l2.458-1.986v.462a.47.47,0,0,0,.467.47h.032a11.01,11.01,0,0,0,10.664-8.279l.985,1.219a.473.473,0,0,0,.7.031l1.14-1.183a13.768,13.768,0,0,1-4.064,7.253.47.47,0,0,0,.643.685,14.7,14.7,0,0,0,4.557-9.117l1.227-1.274a.469.469,0,0,0,.094-.51ZM12.053,27.664a.473.473,0,0,0-.031.7l1.161,1.118A13.782,13.782,0,0,1,2.236,16v-.016a.47.47,0,0,0-.47-.47H1.573l2.367-2.458,1.986,2.458H5.477a.468.468,0,0,0-.47.468V16a11.01,11.01,0,0,0,8.282,10.665Zm10.529-4.035a10.062,10.062,0,0,1-6.127,2.428v-.967a.473.473,0,0,0-.765-.365l-1.464,1.183a10.07,10.07,0,0,1-8.269-9.453h.952a.473.473,0,0,0,.365-.765L6.1,14.238a10.07,10.07,0,0,1,9.443-8.295v.965a.473.473,0,0,0,.765.365l1.469-1.187a10.07,10.07,0,0,1,8.292,9.458H25.09a.473.473,0,0,0-.365.765l1.2,1.481a10.072,10.072,0,0,1-3.339,5.839Zm5.477-4.687-1.986-2.458h.477a.468.468,0,0,0,.47-.468V16a11.01,11.01,0,0,0-8.3-10.671l1.229-.993a.473.473,0,0,0,.031-.7L18.808,2.507A13.781,13.781,0,0,1,29.791,16v.016a.47.47,0,0,0,.47.47h.165Z" transform="translate(0 0)"/>
    </g>
  </g>
</svg>
