<svg width="33" height="33" viewBox="0 0 33 33" fill="none" xmlns="http://www.w3.org/2000/svg">
<path d="M10.3337 1.78797C10.2193 1.52401 9.91245 1.40279 9.64849 1.51725C9.08148 1.76313 8.52254 2.04536 7.98724 2.35598C7.73829 2.50047 7.65373 2.81922 7.79815 3.0681C7.89485 3.23473 8.06956 3.32774 8.2492 3.32774C8.33802 3.32774 8.42796 3.30498 8.51028 3.25725C9.01061 2.96683 9.53302 2.70313 10.0629 2.47332C10.327 2.35879 10.4482 2.05199 10.3337 1.78797Z" fill="black"/>
<path d="M20.5806 0.86268C19.9876 0.686541 19.3777 0.543615 18.7677 0.437907C18.4844 0.388806 18.2145 0.578705 18.1654 0.862242C18.1161 1.14584 18.3061 1.41549 18.5896 1.46465C19.1597 1.56348 19.7297 1.69703 20.2838 1.86159C20.3333 1.87629 20.3832 1.8833 20.4324 1.8833C20.6571 1.8833 20.8644 1.73681 20.9317 1.51044C21.0136 1.23466 20.8564 0.944619 20.5806 0.86268Z" fill="black"/>
<path d="M16.9185 0.227356C16.6193 0.210655 16.3148 0.202148 16.0136 0.202148C16.013 0.202148 16.0125 0.202148 16.0119 0.202148C15.6948 0.202148 15.3738 0.211531 15.0578 0.230233C14.7705 0.247184 14.5514 0.493754 14.5683 0.78098C14.5846 1.05789 14.8141 1.27137 15.0878 1.27137C15.0982 1.27137 15.1085 1.27112 15.119 1.27043C15.4147 1.25298 15.7151 1.24416 16.0119 1.24416C16.0125 1.24416 16.013 1.24416 16.0135 1.24416C16.2955 1.24416 16.5805 1.2521 16.8604 1.26774C17.1492 1.28419 17.3936 1.06389 17.4096 0.776602C17.4256 0.489313 17.2058 0.243431 16.9185 0.227356Z" fill="black"/>
<path d="M31.9155 14.323C31.8432 13.7079 31.7338 13.0911 31.5906 12.4898C31.5239 12.2099 31.243 12.0369 30.963 12.1037C30.6831 12.1704 30.5102 12.4514 30.5769 12.7313C30.7108 13.2933 30.813 13.8699 30.8807 14.4449C30.9119 14.71 31.137 14.9051 31.3974 14.9051C31.4178 14.9051 31.4384 14.9039 31.4591 14.9014C31.7447 14.8677 31.9492 14.6088 31.9155 14.323Z" fill="black"/>
<path d="M31.2109 19.2792C30.9312 19.2132 30.6502 19.3864 30.5841 19.6666C30.4511 20.2297 30.2834 20.7909 30.0855 21.3347C29.9871 21.6051 30.1265 21.9041 30.397 22.0025C30.4558 22.024 30.5159 22.034 30.5751 22.034C30.788 22.034 30.9878 21.9026 31.0648 21.691C31.2766 21.109 31.456 20.5084 31.5983 19.9058C31.6644 19.6259 31.4909 19.3452 31.2109 19.2792Z" fill="black"/>
<path d="M23.9974 2.33199C23.4606 2.02262 22.9004 1.74196 22.3321 1.49771C22.0676 1.38374 21.7613 1.50621 21.6477 1.77061C21.5341 2.03494 21.6563 2.34137 21.9207 2.45502C22.4518 2.68333 22.9754 2.94572 23.4772 3.23483C23.5592 3.28205 23.6486 3.30451 23.7369 3.30451C23.9171 3.30451 24.0924 3.21087 24.1887 3.04355C24.3324 2.79423 24.2468 2.47567 23.9974 2.33199Z" fill="black"/>
<path d="M1.94626 21.3493C1.74804 20.8062 1.57979 20.2455 1.4463 19.6826C1.37994 19.4027 1.09972 19.2295 0.819122 19.2959C0.539152 19.3623 0.366015 19.6431 0.43238 19.9231C0.575243 20.5254 0.755197 21.1255 0.967427 21.7067C1.04455 21.9181 1.24427 22.0492 1.45688 22.0492C1.51617 22.0492 1.5766 22.039 1.63552 22.0174C1.90579 21.9187 2.04496 21.6196 1.94626 21.3493Z" fill="black"/>
<path d="M13.8126 0.869923C13.7625 0.586512 13.4925 0.397488 13.2089 0.447465C12.5991 0.555175 11.9896 0.700102 11.3973 0.878117C11.1217 0.960995 10.9655 1.25154 11.0483 1.52707C11.1161 1.75262 11.3231 1.89823 11.5471 1.89823C11.5968 1.89823 11.6473 1.8911 11.6973 1.87603C12.2507 1.70971 12.8203 1.57429 13.3902 1.47359C13.6736 1.42361 13.8627 1.15327 13.8126 0.869923Z" fill="black"/>
<path d="M31.5051 15.6606C31.2173 15.6606 30.9841 15.8939 30.9841 16.1816V16.2146C30.9841 16.7949 30.9505 17.3797 30.8844 17.9527C30.8513 18.2386 31.0562 18.4971 31.342 18.5301C31.3624 18.5325 31.3825 18.5336 31.4026 18.5336C31.6635 18.5336 31.8888 18.3379 31.9195 18.0724C31.9903 17.4599 32.0262 16.8348 32.0262 16.2146V16.1817C32.0261 15.8939 31.7928 15.6606 31.5051 15.6606Z" fill="black"/>
<path d="M19.2242 31.3826C19.1745 31.0992 18.9043 30.9098 18.621 30.9596C18.0526 31.0594 17.4709 31.127 16.892 31.1605C16.6048 31.1771 16.3854 31.4234 16.402 31.7107C16.418 31.9877 16.6477 32.2015 16.9217 32.2015C16.9317 32.2015 16.9421 32.2013 16.9523 32.2007C17.5711 32.1649 18.1933 32.0926 18.8012 31.9858C19.0846 31.9361 19.2741 31.6661 19.2242 31.3826Z" fill="black"/>
<path d="M15.1507 31.161C14.5717 31.1281 13.99 31.0611 13.4217 30.962C13.1377 30.9124 12.8683 31.1022 12.8188 31.3856C12.7693 31.6691 12.959 31.939 13.2424 31.9885C13.8504 32.0945 14.4725 32.1662 15.0916 32.2014C15.1016 32.2019 15.1116 32.2022 15.1216 32.2022C15.3959 32.2022 15.6257 31.9879 15.6414 31.7107C15.6576 31.4234 15.4379 31.1773 15.1507 31.161Z" fill="black"/>
<path d="M11.7279 30.563C11.1737 30.3977 10.6232 30.1977 10.0917 29.9685C9.82753 29.8546 9.52086 29.9763 9.40702 30.2407C9.29299 30.5049 9.4149 30.8114 9.67917 30.9253C10.2481 31.1706 10.8371 31.3846 11.4302 31.5615C11.4799 31.5763 11.53 31.5834 11.5794 31.5834C11.8038 31.5834 12.011 31.4371 12.0785 31.2111C12.1606 30.9354 12.0037 30.6452 11.7279 30.563Z" fill="black"/>
<path d="M1.05111 12.1517C0.771011 12.0857 0.490477 12.2596 0.424676 12.5398C0.283439 13.1415 0.176042 13.7586 0.105611 14.3739C0.0728354 14.6598 0.27806 14.918 0.563973 14.9508C0.584176 14.9531 0.60413 14.9542 0.623958 14.9542C0.885164 14.9542 1.11053 14.7582 1.14087 14.4925C1.20673 13.9172 1.30706 13.3404 1.43916 12.778C1.50497 12.4978 1.33127 12.2175 1.05111 12.1517Z" fill="black"/>
<path d="M22.6343 30.2338C22.5201 29.9697 22.2135 29.8481 21.9493 29.9624C21.4182 30.192 20.8681 30.3925 20.3144 30.5583C20.0388 30.6408 19.8823 30.9312 19.9648 31.2068C20.0323 31.4327 20.2395 31.5786 20.4637 31.5786C20.5132 31.5786 20.5635 31.5714 20.6134 31.5566C21.206 31.3791 21.7946 31.1646 22.363 30.9188C22.6269 30.8046 22.7485 30.4978 22.6343 30.2338Z" fill="black"/>
<path d="M1.1445 17.969C1.0777 17.3961 1.04355 16.8113 1.04299 16.2309C1.04274 15.9433 0.80949 15.7104 0.522013 15.7104C0.521888 15.7104 0.5217 15.7104 0.52145 15.7104C0.233723 15.7108 0.000726566 15.9442 0.000976764 16.232C0.00160226 16.8522 0.0381311 17.4772 0.109562 18.0897C0.140524 18.355 0.365639 18.5504 0.626345 18.5504C0.646486 18.5504 0.666877 18.5493 0.687393 18.5469C0.973181 18.5135 1.17784 18.2548 1.1445 17.969Z" fill="black"/>
<path d="M8.32788 7.54133C8.24401 7.29563 7.97648 7.16447 7.73123 7.24828C7.48547 7.33216 7.3543 7.59925 7.43818 7.845C7.53832 8.13836 7.58905 8.4461 7.58905 8.75948V10.0149C7.58905 10.1072 7.51405 10.1822 7.42179 10.1822H1.40217C1.30991 10.1822 1.23491 10.1072 1.23491 10.0149V8.75948C1.23491 7.95096 1.58212 7.18498 2.17734 6.65119C2.68093 7.31997 3.48125 7.75331 4.38102 7.75331C5.90141 7.75331 7.13826 6.51639 7.13826 4.99607C7.13826 3.47575 5.90141 2.23877 4.38115 2.23877C2.86088 2.23877 1.62391 3.47568 1.62391 4.99601C1.62391 5.27254 1.66525 5.53944 1.74138 5.79145C0.832408 6.50401 0.294922 7.59856 0.294922 8.75948V10.0149C0.294922 10.6254 0.791626 11.1222 1.4023 11.1222H7.42192C8.03253 11.1222 8.52929 10.6255 8.52929 10.0148V8.75941C8.52917 8.34252 8.46149 7.9327 8.32788 7.54133ZM4.38115 3.17882C5.38312 3.17882 6.19833 3.99397 6.19833 4.99601C6.19833 5.99805 5.38319 6.81319 4.38115 6.81319C3.37923 6.81319 2.56402 5.99805 2.56402 4.99601C2.56402 3.99397 3.37917 3.17882 4.38115 3.17882Z" fill="black"/>
<path d="M31.5308 7.54126C31.4469 7.29557 31.1795 7.16441 30.9341 7.24822C30.6884 7.3321 30.5572 7.59919 30.6411 7.84494C30.7411 8.1383 30.7919 8.44604 30.7919 8.75941V10.0148C30.7919 10.1071 30.7169 10.1821 30.6247 10.1821H24.6051C24.5128 10.1821 24.4378 10.1071 24.4378 10.0148V8.75941C24.4378 7.9509 24.785 7.18492 25.3802 6.65113C25.8838 7.3199 26.6841 7.75325 27.5839 7.75325C29.1042 7.75325 30.3411 6.51633 30.3411 4.99601C30.3411 3.47568 29.1042 2.23877 27.5839 2.23877C26.0635 2.23877 24.8267 3.47568 24.8267 4.99601C24.8267 5.27254 24.8681 5.53944 24.9442 5.79145C24.0353 6.50401 23.4978 7.5985 23.4978 8.75941V10.0148C23.4978 10.6254 23.9945 11.1222 24.6052 11.1222H30.6248C31.2354 11.1222 31.7322 10.6255 31.7322 10.0148V8.75941C31.732 8.34246 31.6644 7.93264 31.5308 7.54126ZM27.5839 3.17876C28.5859 3.17876 29.4011 3.9939 29.4011 4.99594C29.4011 5.99799 28.5859 6.81313 27.5839 6.81313C26.582 6.81313 25.7668 5.99799 25.7668 4.99594C25.7668 3.9939 26.582 3.17876 27.5839 3.17876Z" fill="black"/>
<path d="M31.5305 26.6107C31.4467 26.3648 31.1792 26.2336 30.9339 26.3176C30.6882 26.4014 30.557 26.6685 30.6409 26.9143C30.741 27.2076 30.7918 27.5153 30.7918 27.8287V29.0842C30.7918 29.1764 30.7168 29.2514 30.6245 29.2514H24.6049C24.5126 29.2514 24.4376 29.1764 24.4376 29.0842V27.8287C24.4376 27.0202 24.7848 26.2543 25.38 25.7205C25.8836 26.3892 26.6839 26.8226 27.5837 26.8226C29.104 26.8226 30.341 25.5857 30.341 24.0653C30.341 22.545 29.104 21.3081 27.5837 21.3081C26.0633 21.3081 24.8265 22.545 24.8265 24.0653C24.8265 24.3419 24.8679 24.6088 24.944 24.8608C24.035 25.5733 23.4976 26.6679 23.4976 27.8288V29.0842C23.4976 29.6948 23.9943 30.1916 24.6049 30.1916H30.6246C31.2352 30.1916 31.7319 29.6949 31.7319 29.0842V27.8288C31.7318 27.4119 31.6641 27.002 31.5305 26.6107ZM27.5837 22.2481C28.5857 22.2481 29.4009 23.0632 29.4009 24.0653C29.4009 25.0673 28.5858 25.8825 27.5837 25.8825C26.5818 25.8825 25.7666 25.0673 25.7666 24.0653C25.7666 23.0632 26.5818 22.2481 27.5837 22.2481Z" fill="black"/>
<path d="M8.32788 26.6107C8.24401 26.3648 7.97648 26.2336 7.73129 26.3176C7.48553 26.4014 7.35437 26.6685 7.43824 26.9143C7.53839 27.2076 7.58911 27.5153 7.58911 27.8287V29.0842C7.58911 29.1764 7.51412 29.2514 7.42186 29.2514H1.40223C1.30997 29.2514 1.23498 29.1764 1.23498 29.0842V27.8287C1.23498 27.0202 1.58219 26.2543 2.17741 25.7205C2.68099 26.3892 3.48131 26.8226 4.38108 26.8226C5.90141 26.8226 7.13832 25.5857 7.13832 24.0653C7.13832 22.545 5.90141 21.3081 4.38108 21.3081C2.86076 21.3081 1.62391 22.545 1.62391 24.0653C1.62391 24.3419 1.66525 24.6088 1.74138 24.8608C0.832408 25.5733 0.294922 26.6679 0.294922 27.8288V29.0842C0.294922 29.6948 0.791689 30.1916 1.4023 30.1916H7.42192C8.03253 30.1916 8.52929 29.6949 8.52929 29.0842V27.8288C8.52917 27.4119 8.46149 27.002 8.32788 26.6107ZM4.38115 22.2481C5.38312 22.2481 6.19833 23.0632 6.19833 24.0653C6.19833 25.0673 5.38319 25.8825 4.38115 25.8825C3.37923 25.8825 2.56402 25.0673 2.56402 24.0653C2.56402 23.0632 3.37917 22.2481 4.38115 22.2481Z" fill="black"/>
<path d="M20.4595 11.021H15.4576C13.2962 11.021 11.4981 12.602 11.1567 14.6681H10.986C9.03644 14.6681 7.45032 16.2992 7.45032 18.3041C7.45032 19.7165 8.23237 20.9815 9.46003 21.5841C10.0634 23.0457 11.9461 23.7468 12.0295 23.7772C12.082 23.7964 12.1365 23.8056 12.1904 23.8056C12.3189 23.8056 12.4447 23.7528 12.5353 23.655C12.6639 23.5161 12.6967 23.3136 12.6185 23.1413C12.4292 22.7246 12.3228 22.3222 12.3003 21.9401H14.9277C16.3809 21.9401 17.6316 21.0336 18.1745 19.7418H18.9229C18.9097 20.2565 18.7701 20.8005 18.5056 21.3647C18.4252 21.5362 18.4556 21.7393 18.5827 21.8797C18.6735 21.9799 18.8008 22.0342 18.9313 22.0342C18.9837 22.0342 19.0365 22.0255 19.0876 22.0074C19.192 21.9706 21.5648 21.1149 22.293 19.3376C23.835 18.6244 24.8198 17.0939 24.8198 15.3814C24.8198 12.977 22.8638 11.021 20.4595 11.021ZM21.7447 18.551C21.6174 18.6027 21.5178 18.7057 21.4759 18.8365C21.2121 19.6601 20.4092 20.2731 19.7467 20.6557C19.8605 20.1656 19.8918 19.6863 19.8396 19.2222C19.8127 18.9833 19.6125 18.8016 19.3722 18.8016H15.4577C15.0076 18.8016 14.5779 18.7136 14.184 18.5547C14.0096 18.4843 13.8104 18.5227 13.6774 18.6556L13.6707 18.6623C13.4344 18.8987 13.517 19.2988 13.8268 19.4245C14.3308 19.6288 14.8812 19.7416 15.4576 19.7416H17.1217C16.6614 20.497 15.8501 20.9999 14.9276 20.9999H11.8428C11.6045 20.9999 11.4022 21.1783 11.376 21.4152C11.3404 21.7363 11.3513 22.0658 11.4083 22.4019C10.952 22.1007 10.4649 21.6654 10.2859 21.108C10.2425 20.9728 10.1466 20.8593 10.0157 20.8045C9.02825 20.3906 8.39031 19.4091 8.39031 18.3041C8.39031 16.8176 9.55467 15.6082 10.986 15.6082H11.1033C11.1287 16.0996 11.2359 16.5695 11.4115 17.0049C11.5369 17.3158 11.9373 17.4 12.1744 17.1629C12.1767 17.1606 12.179 17.1583 12.1812 17.156C12.3137 17.0236 12.3527 16.8252 12.2829 16.6514C12.116 16.2364 12.0278 15.7816 12.0382 15.3052C12.0793 13.4383 13.6387 11.9612 15.506 11.9612H20.402C22.2894 11.9612 23.8857 13.5051 23.8797 15.3925C23.8753 16.7869 23.0382 18.0259 21.7447 18.551Z" fill="black"/>
</svg>
