<svg width="32" height="32" viewBox="0 0 32 32" fill="none" xmlns="http://www.w3.org/2000/svg">
<path d="M7.5 9H8.5V10H7.5V9Z" fill="black"/>
<path d="M10.5 9H11.5V10H10.5V9Z" fill="black"/>
<path d="M31.3 17.245C31.3356 17.0302 31.3239 16.8102 31.2659 16.6004C31.2079 16.3905 31.1049 16.1958 30.9641 16.0298C30.8233 15.8637 30.648 15.7303 30.4504 15.6388C30.2528 15.5474 30.0377 15.5 29.82 15.5H21.77C21.2968 15.4992 20.8388 15.6668 20.4779 15.9727C20.117 16.2787 19.8767 16.7031 19.8 17.17L18.91 22.5H16.85L15.405 18.525C15.2422 18.0847 14.9935 17.6811 14.6733 17.3377C14.3532 16.9944 13.9679 16.7181 13.54 16.525L10.5 15.175V14.735C11.3765 14.4258 12.1356 13.8526 12.6729 13.0941C13.2101 12.3357 13.4991 11.4294 13.5 10.5V4C13.5 3.86739 13.4473 3.74021 13.3536 3.64645C13.2598 3.55268 13.1326 3.5 13 3.5H7C6.33696 3.5 5.70107 3.76339 5.23223 4.23223C4.76339 4.70107 4.5 5.33696 4.5 6V8.025C4.0749 8.08477 3.68688 8.29948 3.41044 8.62791C3.134 8.95633 2.98864 9.3753 3.00228 9.80436C3.01592 10.2334 3.1876 10.6423 3.48434 10.9525C3.78108 11.2627 4.18197 11.4524 4.61 11.485C4.86827 12.6096 5.54376 13.5942 6.5 14.24V15.15L3.965 16.075C3.09645 16.3891 2.34581 16.9632 1.81526 17.7192C1.28471 18.4753 1.00004 19.3764 1 20.3V23C1.00152 23.5431 1.18258 24.0705 1.515 24.5H1.5C1.36739 24.5 1.24021 24.5527 1.14645 24.6464C1.05268 24.7402 1 24.8674 1 25V27C1 27.1326 1.05268 27.2598 1.14645 27.3536C1.24021 27.4473 1.36739 27.5 1.5 27.5H2.5V30.5C2.5 30.6326 2.55268 30.7598 2.64645 30.8536C2.74021 30.9473 2.86739 31 3 31H29C29.1326 31 29.2598 30.9473 29.3536 30.8536C29.4473 30.7598 29.5 30.6326 29.5 30.5V27.5H30.5C30.6326 27.5 30.7598 27.4473 30.8536 27.3536C30.9473 27.2598 31 27.1326 31 27V25C31 24.8674 30.9473 24.7402 30.8536 24.6464C30.7598 24.5527 30.6326 24.5 30.5 24.5H30.065C30.0972 24.418 30.119 24.3324 30.13 24.245L31.3 17.245ZM4.5 10.455C4.35386 10.4038 4.22724 10.3085 4.13765 10.1822C4.04807 10.0559 3.99995 9.90485 3.99995 9.75C3.99995 9.59515 4.04807 9.44413 4.13765 9.31783C4.22724 9.19153 4.35386 9.09619 4.5 9.045V10.455ZM20.785 17.335C20.823 17.1014 20.943 16.8889 21.1235 16.7359C21.3041 16.5828 21.5333 16.4992 21.77 16.5H21.91L20.575 24.5H19.59L20.785 17.335ZM18.745 23.5L18.575 24.5H15C14.8674 24.5 14.7402 24.4473 14.6464 24.3536C14.5527 24.2598 14.5 24.1326 14.5 24V23.5H18.745ZM5.5 6C5.50119 5.60254 5.6596 5.2217 5.94065 4.94065C6.2217 4.6596 6.60254 4.50119 7 4.5H12.5V6.105C12.205 6.15 11.935 6.205 11.675 6.255C10.9608 6.41383 10.2317 6.49596 9.5 6.5C9.04752 6.52508 8.59509 6.44996 8.175 6.28C7.64227 6.07099 7.07174 5.97562 6.5 6C6.36739 6 6.24021 6.05268 6.14645 6.14645C6.05268 6.24021 6 6.36739 6 6.5V7.5C6 7.63261 5.94732 7.75979 5.85355 7.85355C5.75979 7.94732 5.63261 8 5.5 8V6ZM5.5 10.5V9C5.89746 8.99881 6.2783 8.8404 6.55935 8.55935C6.8404 8.2783 6.99881 7.89746 7 7.5V7.02C7.28407 7.04122 7.56275 7.10878 7.825 7.22C8.35773 7.42901 8.92826 7.52438 9.5 7.5C10.2955 7.49615 11.0884 7.40731 11.865 7.235C12.07 7.195 12.28 7.155 12.5 7.115V10.5C12.5 11.4283 12.1313 12.3185 11.4749 12.9749C10.8185 13.6313 9.92826 14 9 14C8.07174 14 7.1815 13.6313 6.52513 12.9749C5.86875 12.3185 5.5 11.4283 5.5 10.5V10.5ZM9.5 14.97V15.5C9.5 15.7652 9.39464 16.0196 9.20711 16.2071C9.01957 16.3946 8.76522 16.5 8.5 16.5C8.23478 16.5 7.98043 16.3946 7.79289 16.2071C7.60536 16.0196 7.5 15.7652 7.5 15.5V14.735C7.9808 14.9098 8.4884 14.9995 9 15C9.16712 15.0001 9.33409 14.9901 9.5 14.97V14.97ZM2 20.3C2.0001 19.5819 2.22142 18.8814 2.63386 18.2936C3.04629 17.7058 3.62981 17.2593 4.305 17.015L6.625 16.17C6.76052 16.5553 7.01132 16.8896 7.34335 17.1275C7.67538 17.3653 8.07257 17.4953 8.48099 17.4996C8.88942 17.504 9.28929 17.3826 9.62634 17.1519C9.96338 16.9212 10.2213 16.5923 10.365 16.21L13.13 17.44C13.4371 17.5765 13.7136 17.7735 13.943 18.0192C14.1724 18.2649 14.3499 18.5542 14.465 18.87L15.785 22.5H14.035L12.965 19.815C12.9258 19.7215 12.8598 19.6416 12.7752 19.5855C12.6907 19.5295 12.5914 19.4997 12.49 19.5C12.3574 19.5 12.2302 19.5527 12.1364 19.6464C12.0427 19.7402 11.99 19.8674 11.99 20V24.5H10C9.99867 24.0603 9.88092 23.6288 9.65872 23.2494C9.43653 22.87 9.11781 22.5563 8.735 22.34L8.495 20.44L7.505 20.56L7.685 22.02C7.625 22.015 7.565 22 7.5 22H4.5V19.5H3.5V22.5C3.5 22.6326 3.55268 22.7598 3.64645 22.8536C3.74021 22.9473 3.86739 23 4 23H6.5V24.5H3.5C3.10254 24.4988 2.7217 24.3404 2.44065 24.0593C2.1596 23.7783 2.00119 23.3975 2 23V20.3ZM13.59 24.5H12.99V22.575L13.5 23.855V24C13.5014 24.1706 13.5318 24.3397 13.59 24.5V24.5ZM9 24.5H7.5V23C7.89746 23.0012 8.2783 23.1596 8.55935 23.4407C8.8404 23.7217 8.99881 24.1025 9 24.5V24.5ZM28.5 30H3.5V27.5H28.5V30ZM30 26.5H2V25.5H30V26.5ZM29.145 24.08C29.1272 24.1971 29.0679 24.3039 28.978 24.381C28.888 24.458 28.7734 24.5003 28.655 24.5H21.59L22.925 16.5H29.82C29.8925 16.4998 29.9643 16.5154 30.0302 16.5457C30.0961 16.576 30.1547 16.6202 30.2018 16.6754C30.2489 16.7306 30.2834 16.7954 30.3029 16.8652C30.3225 16.9351 30.3266 17.0084 30.315 17.08L29.145 24.08Z" fill="black"/>
<path d="M26 19C25.7033 19 25.4133 19.088 25.1666 19.2528C24.92 19.4176 24.7277 19.6519 24.6142 19.926C24.5007 20.2001 24.4709 20.5017 24.5288 20.7926C24.5867 21.0836 24.7296 21.3509 24.9393 21.5607C25.1491 21.7704 25.4164 21.9133 25.7074 21.9712C25.9983 22.0291 26.2999 21.9993 26.574 21.8858C26.8481 21.7723 27.0824 21.58 27.2472 21.3334C27.412 21.0867 27.5 20.7967 27.5 20.5C27.5 20.1022 27.342 19.7206 27.0607 19.4393C26.7794 19.158 26.3978 19 26 19ZM26 21C25.9011 21 25.8044 20.9707 25.7222 20.9157C25.64 20.8608 25.5759 20.7827 25.5381 20.6913C25.5002 20.6 25.4903 20.4994 25.5096 20.4025C25.5289 20.3055 25.5765 20.2164 25.6464 20.1464C25.7164 20.0765 25.8055 20.0289 25.9025 20.0096C25.9994 19.9903 26.1 20.0002 26.1913 20.0381C26.2827 20.0759 26.3608 20.14 26.4157 20.2222C26.4707 20.3044 26.5 20.4011 26.5 20.5C26.5 20.6326 26.4473 20.7598 26.3536 20.8536C26.2598 20.9473 26.1326 21 26 21Z" fill="black"/>
<path d="M29.5 1H17.5C17.1025 1.00119 16.7217 1.1596 16.4407 1.44065C16.1596 1.7217 16.0012 2.10254 16 2.5V10.5C16.0012 10.8975 16.1596 11.2783 16.4407 11.5593C16.7217 11.8404 17.1025 11.9988 17.5 12H20.75L22.1 13.8C22.1466 13.8621 22.207 13.9125 22.2764 13.9472C22.3458 13.9819 22.4224 14 22.5 14C22.5776 14 22.6542 13.9819 22.7236 13.9472C22.793 13.9125 22.8534 13.8621 22.9 13.8L24.25 12H29.5C29.8975 11.9988 30.2783 11.8404 30.5593 11.5593C30.8404 11.2783 30.9988 10.8975 31 10.5V2.5C30.9988 2.10254 30.8404 1.7217 30.5593 1.44065C30.2783 1.1596 29.8975 1.00119 29.5 1V1ZM30 10.5C30 10.6326 29.9473 10.7598 29.8536 10.8536C29.7598 10.9473 29.6326 11 29.5 11H24C23.9225 11.0005 23.8461 11.0188 23.7768 11.0535C23.7074 11.0882 23.6469 11.1383 23.6 11.2L22.5 12.665L21.4 11.2C21.3531 11.1383 21.2926 11.0882 21.2232 11.0535C21.1539 11.0188 21.0775 11.0005 21 11H17.5C17.3674 11 17.2402 10.9473 17.1464 10.8536C17.0527 10.7598 17 10.6326 17 10.5V2.5C17 2.36739 17.0527 2.24021 17.1464 2.14645C17.2402 2.05268 17.3674 2 17.5 2H29.5C29.6326 2 29.7598 2.05268 29.8536 2.14645C29.9473 2.24021 30 2.36739 30 2.5V10.5Z" fill="black"/>
<path d="M19 4H28V5H19V4Z" fill="black"/>
<path d="M19 6H28V7H19V6Z" fill="black"/>
<path d="M19 8H28V9H19V8Z" fill="black"/>
</svg>
