<svg width="32" height="32" viewBox="0 0 32 32" fill="none" xmlns="http://www.w3.org/2000/svg">
<path d="M12.5 8C12.7651 7.9997 13.0193 7.89424 13.2068 7.70677C13.3942 7.5193 13.4997 7.26512 13.5 7V6C13.4997 5.73488 13.3942 5.4807 13.2068 5.29323C13.0193 5.10576 12.7651 5.0003 12.5 5H11.5C11.2349 5.0003 10.9807 5.10576 10.7932 5.29323C10.6058 5.4807 10.5003 5.73488 10.5 6V7C10.5003 7.26512 10.6058 7.5193 10.7932 7.70677C10.9807 7.89424 11.2349 7.9997 11.5 8H12.5ZM11.5 6H12.5L12.5006 6.99997L12.5 7H11.5V6Z" fill="black"/>
<path d="M23.5 9.3164V2.5C23.4995 2.10231 23.3413 1.72104 23.0601 1.43983C22.7789 1.15862 22.3977 1.00044 22 1H9.99997C9.60228 1.00044 9.22101 1.15862 8.9398 1.43983C8.65859 1.72104 8.50041 2.10231 8.49997 2.5V12.6519C8.33693 12.608 8.16882 12.5858 7.99997 12.5858C7.74849 12.5851 7.49937 12.6343 7.26704 12.7305C7.0347 12.8268 6.82376 12.9681 6.64642 13.1465L3.93933 15.8535C3.7996 15.9925 3.68882 16.1578 3.61341 16.3399C3.53799 16.5219 3.49943 16.7171 3.49997 16.9142V21.1716C3.5005 21.3686 3.46195 21.5638 3.38654 21.7459C3.31113 21.928 3.20036 22.0933 3.06064 22.2322L0.646423 24.6465L1.35352 25.3535L3.76773 22.9393C4.00061 22.7077 4.18524 22.4322 4.31093 22.1288C4.43662 21.8254 4.50087 21.5 4.49997 21.1716V16.9142C4.49979 16.8485 4.51264 16.7834 4.53778 16.7228C4.56292 16.6621 4.59985 16.607 4.64642 16.5606L7.35352 13.8535C7.4384 13.7686 7.53918 13.7012 7.65012 13.6552C7.76105 13.6092 7.87996 13.5855 8.00005 13.5855C8.12014 13.5855 8.23907 13.6091 8.35002 13.655C8.46098 13.701 8.56179 13.7683 8.64671 13.8533C8.73163 13.9382 8.79898 14.039 8.84493 14.1499C8.89087 14.2609 8.91451 14.3798 8.91448 14.4999C8.91445 14.62 8.89077 14.7389 8.84477 14.8499C8.79878 14.9608 8.73138 15.0616 8.64642 15.1465L6.93933 16.8535C6.7996 16.9925 6.68882 17.1578 6.61341 17.3399C6.53799 17.5219 6.49943 17.7171 6.49997 17.9142V19.0858C6.49943 19.2829 6.53799 19.4781 6.61341 19.6601C6.68882 19.8422 6.7996 20.0075 6.93933 20.1465L7.18195 20.3891C7.60112 20.806 7.93345 21.3019 8.15969 21.8481C8.38593 22.3942 8.50158 22.9799 8.49997 23.5711V24.5C8.50042 24.8977 8.65861 25.279 8.93981 25.5602C9.22102 25.8414 9.60228 25.9995 9.99997 26H11.7929L11.2322 26.5607C11.0932 26.7004 10.9279 26.8112 10.7459 26.8866C10.5638 26.962 10.3686 27.0005 10.1715 27H9.3284C8.99996 26.9991 8.67461 27.0634 8.37117 27.189C8.06773 27.3147 7.79224 27.4994 7.56064 27.7322L4.64642 30.6465L5.35352 31.3535L8.26773 28.4393C8.4067 28.2996 8.572 28.1888 8.75406 28.1134C8.93612 28.038 9.13134 27.9995 9.3284 28H10.1715C10.5 28.0009 10.8253 27.9366 11.1288 27.811C11.4322 27.6853 11.7077 27.5006 11.9393 27.2678L13.2071 26H13.4071C14.3443 27.0977 15.5085 27.9791 16.8194 28.5834C18.1302 29.1876 19.5566 29.5003 21 29.5C26.514 29.5 31 25.014 31 19.5V19C31 14.3489 27.8082 10.4293 23.5 9.3164ZM8.49997 20.4092C8.31743 20.1498 8.11304 19.9065 7.88904 19.682L7.64642 19.4394C7.59985 19.393 7.56292 19.3379 7.53778 19.2772C7.51264 19.2166 7.49979 19.1515 7.49997 19.0858V17.9142C7.49979 17.8485 7.51264 17.7834 7.53778 17.7228C7.56292 17.6621 7.59985 17.607 7.64642 17.5606L8.49997 16.7071V20.4092ZM19.3596 2L19.2043 2.62125C19.1773 2.72949 19.1149 2.8256 19.027 2.89424C18.9391 2.96289 18.8307 3.00012 18.7192 3H13.2807C13.1692 3.00012 13.0608 2.96289 12.9729 2.89424C12.885 2.8256 12.8226 2.72949 12.7957 2.62125L12.6404 2H19.3596ZM9.99997 25C9.86741 24.9998 9.74032 24.9471 9.64658 24.8534C9.55285 24.7597 9.50012 24.6326 9.49997 24.5V15.6886C9.7674 15.3502 9.91288 14.9314 9.91288 14.5C9.91288 14.0686 9.7674 13.6498 9.49997 13.3114V2.5C9.50012 2.36744 9.55285 2.24035 9.64658 2.14661C9.74032 2.05288 9.86741 2.00015 9.99997 2H11.6096L11.8255 2.8638C11.9063 3.18852 12.0935 3.47683 12.3573 3.68276C12.621 3.88869 12.9461 4.00037 13.2807 4H18.7192C19.0538 4.00037 19.3789 3.88869 19.6427 3.68276C19.9064 3.47683 20.0936 3.18852 20.1744 2.8638L20.3904 2H22C22.1325 2.00015 22.2596 2.05288 22.3534 2.14661C22.4471 2.24035 22.4998 2.36744 22.5 2.5V9.11251C22.0035 9.03754 21.5021 8.99993 21 9H11V19.5C10.9978 21.456 11.5727 23.3692 12.6527 25H9.99997ZM30 19.5C30 24.4626 25.9626 28.5 21 28.5C16.0374 28.5 12 24.4626 12 19.5V10H21C25.9626 10 30 14.0374 30 19V19.5Z" fill="black"/>
<path d="M15.5 8H16.5C16.7651 7.9997 17.0193 7.89424 17.2068 7.70677C17.3942 7.5193 17.4997 7.26512 17.5 7V6C17.4997 5.73488 17.3942 5.4807 17.2068 5.29323C17.0193 5.10576 16.7651 5.0003 16.5 5H15.5C15.2349 5.0003 14.9807 5.10576 14.7932 5.29323C14.6058 5.4807 14.5003 5.73488 14.5 6V7C14.5003 7.26512 14.6058 7.5193 14.7932 7.70677C14.9807 7.89424 15.2349 7.9997 15.5 8V8ZM15.5 6H16.5L16.5006 6.99997L16.5 7H15.5V6Z" fill="black"/>
<path d="M19.5 8H20.5C20.7651 7.9997 21.0193 7.89424 21.2068 7.70677C21.3942 7.5193 21.4997 7.26512 21.5 7V6C21.4997 5.73488 21.3942 5.4807 21.2068 5.29323C21.0193 5.10576 20.7651 5.0003 20.5 5H19.5C19.2349 5.0003 18.9807 5.10576 18.7932 5.29323C18.6058 5.4807 18.5003 5.73488 18.5 6V7C18.5003 7.26512 18.6058 7.5193 18.7932 7.70677C18.9807 7.89424 19.2349 7.9997 19.5 8ZM19.5 6H20.5L20.5006 6.99997L20.5 7H19.5V6Z" fill="black"/>
<path d="M21 17.5V14.5C20.9995 14.1023 20.8414 13.721 20.5602 13.4398C20.279 13.1586 19.8977 13.0005 19.5 13H18.5V12C18.4997 11.7349 18.3942 11.4807 18.2068 11.2932C18.0193 11.1058 17.7651 11.0003 17.5 11H16.5C16.2349 11.0003 15.9807 11.1058 15.7932 11.2932C15.6058 11.4807 15.5003 11.7349 15.5 12V13H14.5C14.1023 13.0005 13.721 13.1586 13.4398 13.4398C13.1586 13.721 13.0005 14.1023 13 14.5V17.5C13.0005 17.8977 13.1586 18.279 13.4398 18.5602C13.721 18.8414 14.1023 18.9995 14.5 19H19.5C19.8977 18.9995 20.279 18.8414 20.5602 18.5602C20.8414 18.279 20.9995 17.8977 21 17.5V17.5ZM16.5 12H17.5V13H16.5V12ZM14 14.5C14.0002 14.3674 14.0529 14.2403 14.1466 14.1466C14.2403 14.0529 14.3674 14.0002 14.5 14H19.5C19.6326 14.0002 19.7597 14.0529 19.8534 14.1466C19.9471 14.2403 19.9998 14.3674 20 14.5V15H14V14.5ZM14 17.5V16H20V17.5C19.9998 17.6326 19.9471 17.7597 19.8534 17.8534C19.7597 17.9471 19.6326 17.9998 19.5 18H14.5C14.3674 17.9998 14.2403 17.9471 14.1466 17.8534C14.0529 17.7597 14.0002 17.6326 14 17.5V17.5Z" fill="black"/>
<path d="M26 13H25V14.0425C24.3014 14.1614 23.6674 14.5235 23.2099 15.0647C22.7524 15.6059 22.501 16.2914 22.5 17H22V18H29V17H28.5C28.499 16.2914 28.2476 15.6059 27.7901 15.0647C27.3326 14.5235 26.6986 14.1614 26 14.0425V13ZM27.5 17H23.5C23.5 16.4696 23.7107 15.9609 24.0858 15.5858C24.4609 15.2107 24.9696 15 25.5 15C26.0304 15 26.5391 15.2107 26.9142 15.5858C27.2893 15.9609 27.5 16.4696 27.5 17V17Z" fill="black"/>
<path d="M24.1324 21.2534C24.075 20.9028 23.8945 20.584 23.6234 20.3544C23.3523 20.1247 23.0082 19.999 22.6529 20H21.5V19.5H20.5V20H19.3471C18.9918 19.999 18.6478 20.1247 18.3766 20.3543C18.1055 20.584 17.925 20.9027 17.8676 21.2534L17.6598 22.5H16.5V23.5H17.0249C16.9782 23.5805 16.943 23.6672 16.9202 23.7574L16.6702 24.7575C16.6334 24.9049 16.6306 25.0588 16.6621 25.2075C16.6937 25.3561 16.7586 25.4956 16.8522 25.6154C16.9457 25.7352 17.0653 25.8321 17.2019 25.8987C17.3384 25.9654 17.4884 26 17.6404 26H18V27H19V26H23V27H24V26H24.3596C24.5116 26 24.6616 25.9654 24.7981 25.8987C24.9347 25.8321 25.0543 25.7352 25.1478 25.6154C25.2414 25.4956 25.3064 25.3561 25.3379 25.2074C25.3694 25.0588 25.3666 24.9049 25.3298 24.7574L25.0797 23.7574C25.057 23.6672 25.0218 23.5805 24.9751 23.5H25.5V22.5H24.3402L24.1324 21.2534ZM18.8539 21.4178C18.8731 21.3009 18.9333 21.1947 19.0236 21.1181C19.114 21.0416 19.2287 20.9997 19.3471 21H22.6529C22.7713 20.9997 22.886 21.0416 22.9764 21.1181C23.0667 21.1947 23.1269 21.3009 23.1461 21.4178L23.4098 23H18.5902L18.8539 21.4178ZM17.6404 25L17.8901 24H24.1096L24.3596 25H17.6404Z" fill="black"/>
</svg>
