<svg xmlns="http://www.w3.org/2000/svg" width="60" height="60" viewBox="0 0 60 60">
  <g id="Group_37742" data-name="Group 37742" transform="translate(0)">
    <path id="Path_105452" data-name="Path 105452" d="M60,25.161H57.825l-3.241,1.705a4.811,4.811,0,0,0-1.153-.474l-4.077-1.02v-.464a6.8,6.8,0,0,0,2.9-5.554V17.663a6.953,6.953,0,0,0-6.566-7.015c-.184,0-.365,0-.547.011L46.2,8.184,41.077,3.061,38.056,5.027a16.369,16.369,0,0,0-3.622-1.5L33.688,0H26.313l-.746,3.526a16.35,16.35,0,0,0-3.622,1.5L18.923,3.062,13.8,8.182l1.039,2.477c-.04,0-.077-.009-.117-.01a6.777,6.777,0,0,0-6.983,6.77v1.935a6.793,6.793,0,0,0,2.9,5.553v.464l-2.659.665-4.82-2.811H0V43.279L9.52,46.452h1.854l.232-.811,2.918,1.752a3.013,3.013,0,0,0,2.906,2.919,3.013,3.013,0,0,0,2.9,2.9,3.013,3.013,0,0,0,2.9,2.9,3.01,3.01,0,0,0,4.706,2.39l.857.757A2.947,2.947,0,0,0,30.747,60h.179a2.946,2.946,0,0,0,2.941-2.907,2.944,2.944,0,0,0,2.9-2.9,2.944,2.944,0,0,0,2.9-2.906,2.976,2.976,0,0,0,2.907-2.969,2.833,2.833,0,0,0-.015-.29L60,39.308Zm-9.677-7.5v1.692A4.857,4.857,0,0,1,47.9,23.542l-.484.28,0,3.062,4.835,1.208-10.642,5.6V31.087a4.815,4.815,0,0,0-1.386-3.372l3.321-.83V23.82l-.483-.279a4.852,4.852,0,0,1-2.42-4.186V17.419a4.839,4.839,0,0,1,4.988-4.836,5,5,0,0,1,4.689,5.08ZM31.459,32.933l-4.381-1.4a11.951,11.951,0,0,0-6.2-.283l-.555.123v-.286a2.9,2.9,0,0,1,2.2-2.817l5.543-1.385V23.82l-.483-.279a4.852,4.852,0,0,1-2.42-4.186V17.419a4.839,4.839,0,0,1,4.988-4.836,5,5,0,0,1,4.689,5.08v1.692a4.857,4.857,0,0,1-2.422,4.188l-.484.28,0,3.062,5.542,1.385a2.9,2.9,0,0,1,2.2,2.817v3.626l-.239.126h-.593l-5.95-1.7a6.1,6.1,0,0,0-1.436-.206ZM20.539,14.484a10.638,10.638,0,0,1,18.881-.078,6.73,6.73,0,0,0-.711,3.013v1.935a6.793,6.793,0,0,0,2.9,5.553v.464l-3.871.969-3.872-.969v-.464a6.8,6.8,0,0,0,2.9-5.554V17.663a6.953,6.953,0,0,0-6.566-7.015,6.775,6.775,0,0,0-6.982,6.771v1.935a6.793,6.793,0,0,0,2.9,5.553v.464l-3.871.969-3.872-.969v-.464a6.8,6.8,0,0,0,2.9-5.554V17.663a7.133,7.133,0,0,0-.751-3.179ZM16.088,8.631,19.18,5.539,21.9,7.31l.521-.319a14.441,14.441,0,0,1,4.19-1.738l.6-.143.673-3.175h4.238l.671,3.174.6.142a14.455,14.455,0,0,1,4.19,1.738l.521.319,2.721-1.771,3.088,3.089-1.1,2.57a6.764,6.764,0,0,0-2.043,1.358c-.04.039-.074.08-.112.12a12.568,12.568,0,0,0-21.344.058,6.826,6.826,0,0,0-2.135-1.514ZM12.58,26.885V23.82L12.1,23.54a4.852,4.852,0,0,1-2.42-4.186V17.419a4.839,4.839,0,0,1,4.988-4.836,5,5,0,0,1,4.689,5.08v1.692a4.857,4.857,0,0,1-2.422,4.188l-.484.28,0,3.062,3.32.83a4.815,4.815,0,0,0-1.386,3.372V31.8l-3.019.671.078-.274.037-1.789-5.1-2.977ZM1.935,25.161h.705l6.96,4.06L6.089,43.268,1.935,41.883Zm7.9,19.355-1.9-.635,3.412-13.645,2.207,1.287V31.8L9.915,44.516ZM16.451,47.3a1.092,1.092,0,0,1,.318-.767l1.7-1.7A1.085,1.085,0,0,1,20,46.368l-1.7,1.7a1.085,1.085,0,0,1-1.852-.767Zm2.9,2.9a1.092,1.092,0,0,1,.318-.767l1.7-1.7a1.085,1.085,0,0,1,1.535,1.535l-1.7,1.7a1.085,1.085,0,0,1-1.852-.767Zm2.9,2.9a1.092,1.092,0,0,1,.318-.767l1.7-1.7a1.085,1.085,0,0,1,1.535,1.535l-1.7,1.7a1.085,1.085,0,0,1-1.852-.767ZM26.246,57.1a1.085,1.085,0,0,1-.767-1.852l1.7-1.7a1.085,1.085,0,0,1,1.535,1.535l-1.7,1.7A1.092,1.092,0,0,1,26.246,57.1Zm4.68.968h-.179a1,1,0,0,1-.667-.253l-.724-.638.727-.727a3.009,3.009,0,0,0,.61-.9l.88.732a1.01,1.01,0,0,1-.646,1.785Zm8.678-8.71h-.167a1.038,1.038,0,0,1-.666-.242L33.523,44.74l-1.24,1.488,5.1,4.246a1.01,1.01,0,0,1-.647,1.785h-.211a1.009,1.009,0,0,1-.645-.234l-5.256-4.38-1.24,1.488,5.1,4.247a1.009,1.009,0,0,1-.646,1.783,1.6,1.6,0,0,1-1.018-.369l-2.16-1.8a3.01,3.01,0,0,0-2.6-1.691,3.013,3.013,0,0,0-2.9-2.9,3.013,3.013,0,0,0-2.9-2.9,3.013,3.013,0,0,0-5.144-2.03l-1.7,1.7a2.982,2.982,0,0,0-.271.331l-2.973-1.784,2.606-9.121L21.3,33.14a9.969,9.969,0,0,1,5.192.235l1.426.456L23.08,36.248a3.226,3.226,0,0,0-1.79,2.9v.191a3.241,3.241,0,0,0,4.91,2.779l3.6-2.161a2,2,0,0,1,2.321.224L40.3,47.539a1.042,1.042,0,0,1-.7,1.815Zm18.46-11.243-16.3,8.153c-.053-.056-.108-.11-.166-.162l-8.175-7.359a3.894,3.894,0,0,0-4.612-.446l-3.6,2.162a1.305,1.305,0,0,1-1.976-1.121v-.191a1.3,1.3,0,0,1,.722-1.168l5.4-2.7A4.206,4.206,0,0,1,32.362,35l6.081,1.737,1.473.037,18.148-9.552Zm0,0"/>
  </g>
</svg>
