<svg width="32" height="32" viewBox="0 0 32 32" fill="none" xmlns="http://www.w3.org/2000/svg">
<path d="M7 22C6.724 22 6.5 22.224 6.5 22.5V29.5C6.5 29.776 6.724 30 7 30H10.5V30.5C10.5 30.776 10.724 31 11 31H21C21.276 31 21.5 30.776 21.5 30.5V30H25C25.276 30 25.5 29.776 25.5 29.5V22.5C25.5 22.224 25.276 22 25 22H21.5V15.5C21.5 15.224 21.276 15 21 15H20V13.5C20 12.9485 19.5515 12.5 19 12.5H16.5V11H15.5V12.5H13C12.4485 12.5 12 12.9485 12 13.5V15H11C10.724 15 10.5 15.224 10.5 15.5V22H7ZM24.5 23V29H21.5V23H24.5ZM17 30H15V28.5H17V30ZM13 13.5H19V15H13V13.5ZM11.5 16H20.5V30H18V28C18 27.724 17.776 27.5 17.5 27.5H14.5C14.224 27.5 14 27.724 14 28V30H11.5V16ZM7.5 29V23H10.5V29H7.5Z" fill="black"/>
<path d="M13 20H19V21H13V20Z" fill="black"/>
<path d="M13 17.5H19V18.5H13V17.5Z" fill="black"/>
<path d="M13 22.5H19V23.5H13V22.5Z" fill="black"/>
<path d="M13 25H19V26H13V25Z" fill="black"/>
<path d="M22.5 24H23.5V25H22.5V24Z" fill="black"/>
<path d="M22.5 26H23.5V27H22.5V26Z" fill="black"/>
<path d="M8.5 24H9.5V25H8.5V24Z" fill="black"/>
<path d="M8.5 26H9.5V27H8.5V26Z" fill="black"/>
<path d="M16 10C18.481 10 20.5 7.981 20.5 5.5C20.5 3.019 18.481 1 16 1C13.519 1 11.5 3.019 11.5 5.5C11.5 7.981 13.519 10 16 10ZM14.0125 8.3775C14.076 7.6085 14.715 7 15.5 7H16.5C17.285 7 17.924 7.6085 17.9875 8.3775C17.4225 8.769 16.738 9 16 9C15.262 9 14.5775 8.769 14.0125 8.3775ZM16 6C15.4485 6 15 5.5515 15 5C15 4.4485 15.4485 4 16 4C16.5515 4 17 4.4485 17 5C17 5.5515 16.5515 6 16 6ZM16 2C17.93 2 19.5 3.57 19.5 5.5C19.5 6.2745 19.244 6.989 18.816 7.5695C18.579 6.9825 18.1255 6.51 17.555 6.242C17.829 5.8995 18 5.4715 18 5C18 3.897 17.103 3 16 3C14.897 3 14 3.897 14 5C14 5.4715 14.171 5.8995 14.445 6.242C13.8745 6.51 13.421 6.9825 13.184 7.5695C12.756 6.989 12.5 6.2745 12.5 5.5C12.5 3.57 14.07 2 16 2Z" fill="black"/>
<path d="M26.5 5C24.019 5 22 7.019 22 9.5C22 11.981 24.019 14 26.5 14C28.981 14 31 11.981 31 9.5C31 7.019 28.981 5 26.5 5ZM24.5125 12.3775C24.576 11.6085 25.215 11 26 11H27C27.785 11 28.424 11.6085 28.4875 12.3775C27.9225 12.769 27.238 13 26.5 13C25.762 13 25.0775 12.769 24.5125 12.3775ZM26.5 10C25.9485 10 25.5 9.5515 25.5 9C25.5 8.4485 25.9485 8 26.5 8C27.0515 8 27.5 8.4485 27.5 9C27.5 9.5515 27.0515 10 26.5 10ZM29.316 11.5695C29.079 10.9825 28.6255 10.51 28.055 10.242C28.329 9.8995 28.5 9.4715 28.5 9C28.5 7.897 27.603 7 26.5 7C25.397 7 24.5 7.897 24.5 9C24.5 9.4715 24.671 9.8995 24.945 10.242C24.3745 10.51 23.921 10.9825 23.684 11.5695C23.256 10.989 23 10.2745 23 9.5C23 7.57 24.57 6 26.5 6C28.43 6 30 7.57 30 9.5C30 10.2745 29.744 10.989 29.316 11.5695Z" fill="black"/>
<path d="M5.5 14C7.981 14 10 11.981 10 9.5C10 7.019 7.981 5 5.5 5C3.019 5 1 7.019 1 9.5C1 11.981 3.019 14 5.5 14ZM3.5125 12.3775C3.576 11.6085 4.215 11 5 11H6C6.785 11 7.424 11.6085 7.4875 12.3775C6.9225 12.769 6.238 13 5.5 13C4.762 13 4.0775 12.769 3.5125 12.3775ZM5.5 10C4.9485 10 4.5 9.5515 4.5 9C4.5 8.4485 4.9485 8 5.5 8C6.0515 8 6.5 8.4485 6.5 9C6.5 9.5515 6.0515 10 5.5 10ZM5.5 6C7.43 6 9 7.57 9 9.5C9 10.2745 8.744 10.989 8.316 11.5695C8.079 10.9825 7.6255 10.51 7.055 10.242C7.329 9.8995 7.5 9.4715 7.5 9C7.5 7.897 6.603 7 5.5 7C4.397 7 3.5 7.897 3.5 9C3.5 9.4715 3.671 9.8995 3.945 10.242C3.3745 10.51 2.921 10.9825 2.684 11.5695C2.256 10.989 2 10.2745 2 9.5C2 7.57 3.57 6 5.5 6V6Z" fill="black"/>
<path d="M2.5 29.4785V31H3.5V29.4785C4.1715 29.405 5 29.067 5 27.5C5 26.104 4.313 23.5 3 23.5C1.687 23.5 1 26.104 1 27.5C1 29.067 1.8285 29.405 2.5 29.4785ZM2.999 24.5C3.3135 24.541 4 26.0705 4 27.5C4 28.4615 3.7115 28.5 3 28.5C2.2885 28.5 2 28.4615 2 27.5C2 26.0705 2.6865 24.541 2.999 24.5Z" fill="black"/>
<path d="M29 23.5C27.687 23.5 27 26.104 27 27.5C27 29.067 27.8285 29.405 28.5 29.4785V31H29.5V29.4785C30.1715 29.405 31 29.067 31 27.5C31 26.104 30.313 23.5 29 23.5ZM29 28.5C28.2885 28.5 28 28.4615 28 27.5C28 26.0705 28.6865 24.541 28.999 24.5C29.3135 24.541 30 26.0705 30 27.5C30 28.4615 29.7115 28.5 29 28.5Z" fill="black"/>
</svg>
