<svg width="32" height="32" viewBox="0 0 32 32" fill="none" xmlns="http://www.w3.org/2000/svg">
<g clip-path="url(#clip0_17_378)">
<path d="M24.0863 6.42651C24.3452 6.42651 24.5551 6.2167 24.5551 5.95776V5.32764C24.5551 5.0687 24.3452 4.85889 24.0863 4.85889C23.8274 4.85889 23.6176 5.0687 23.6176 5.32764V5.95776C23.6176 6.21664 23.8274 6.42651 24.0863 6.42651Z" fill="black"/>
<path d="M29.1863 10.5889C28.9273 10.5889 28.7175 10.7987 28.7175 11.0576C28.7175 11.3166 28.9273 11.5264 29.1863 11.5264H29.8163C30.0753 11.5264 30.2851 11.3166 30.2851 11.0576C30.2851 10.7987 30.0753 10.5889 29.8163 10.5889H29.1863Z" fill="black"/>
<path d="M18.3563 10.5889C18.0974 10.5889 17.8876 10.7987 17.8876 11.0576C17.8876 11.3166 18.0974 11.5264 18.3563 11.5264H18.9864C19.2454 11.5264 19.4552 11.3166 19.4552 11.0576C19.4552 10.7987 19.2454 10.5889 18.9864 10.5889H18.3563Z" fill="black"/>
<path d="M26.1421 25.562C25.3096 25.562 24.6323 26.2393 24.6323 27.0718C24.6323 27.9042 25.3096 28.5815 26.1421 28.5815C26.9746 28.5815 27.6519 27.9042 27.6519 27.0718C27.6519 26.2393 26.9746 25.562 26.1421 25.562ZM26.1421 27.644C25.8265 27.644 25.5698 27.3873 25.5698 27.0718C25.5698 26.7562 25.8265 26.4995 26.1421 26.4995C26.4577 26.4995 26.7144 26.7562 26.7144 27.0718C26.7144 27.3873 26.4577 27.644 26.1421 27.644Z" fill="black"/>
<path d="M9.02649 27.0718C9.02649 27.9042 9.7038 28.5815 10.5363 28.5815C11.3688 28.5815 12.0461 27.9042 12.0461 27.0718C12.0461 26.2393 11.3688 25.562 10.5363 25.562C9.7038 25.562 9.02649 26.2393 9.02649 27.0718ZM11.1086 27.0718C11.1086 27.3873 10.8519 27.644 10.5363 27.644C10.2207 27.644 9.96399 27.3873 9.96399 27.0718C9.96399 26.7562 10.2207 26.4995 10.5363 26.4995C10.8519 26.4995 11.1086 26.7562 11.1086 27.0718Z" fill="black"/>
<path d="M13.7188 19.8772C14.2479 19.3621 14.3089 18.4662 13.7078 17.8812L11.7594 15.9846C11.0566 15.3007 9.92825 15.3158 9.24419 16.0186L8.87932 16.3935C8.69875 16.579 8.70275 16.8758 8.88825 17.0563L10.7664 18.8844L8.88825 20.7125C8.79919 20.7992 8.74819 20.9177 8.7465 21.042C8.74482 21.1663 8.79263 21.2862 8.87932 21.3753L9.24419 21.7502C9.9305 22.4552 11.0564 22.4686 11.7594 21.7841L13.7188 19.8772ZM9.916 21.0963L9.87807 21.0574L11.7654 19.2203C11.856 19.1322 11.9072 19.011 11.9072 18.8845C11.9072 18.758 11.8561 18.6368 11.7654 18.5486L9.87807 16.7115L9.916 16.6725C10.2396 16.3401 10.7732 16.3329 11.1056 16.6564L13.0539 18.553C13.2619 18.7553 13.2341 19.0406 13.0649 19.2053L11.1056 21.1124C10.7748 21.4343 10.2423 21.4315 9.916 21.0963V21.0963Z" fill="black"/>
<path d="M23.6176 11.0573C23.6176 11.3162 23.8274 11.5261 24.0863 11.5261H25.6804C25.9394 11.5261 26.1492 11.3162 26.1492 11.0573C26.1492 10.7984 25.9394 10.5886 25.6804 10.5886H24.5551V7.66943C24.5551 7.4105 24.3452 7.20068 24.0863 7.20068C23.8274 7.20068 23.6176 7.4105 23.6176 7.66943V11.0573Z" fill="black"/>
<path d="M8.00757 7.05127H16.0789C16.3378 7.05127 16.5476 6.84146 16.5476 6.58252C16.5476 6.32358 16.3378 6.11377 16.0789 6.11377H8.00757C7.74869 6.11377 7.53882 6.32358 7.53882 6.58252C7.53882 6.84146 7.74869 7.05127 8.00757 7.05127Z" fill="black"/>
<path d="M6.05103 9.47314H14.4293C14.6882 9.47314 14.898 9.26333 14.898 9.00439C14.898 8.74546 14.6882 8.53564 14.4293 8.53564H6.05103C5.79215 8.53564 5.58228 8.74546 5.58228 9.00439C5.58228 9.26333 5.79215 9.47314 6.05103 9.47314V9.47314Z" fill="black"/>
<path d="M10.8442 10.6953C10.5854 10.6953 10.3755 10.9051 10.3755 11.1641C10.3755 11.423 10.5854 11.6328 10.8442 11.6328H15.0133C15.2722 11.6328 15.4821 11.423 15.4821 11.1641C15.4821 10.9051 15.2722 10.6953 15.0133 10.6953H10.8442Z" fill="black"/>
<path d="M6.89221 10.6953C6.63334 10.6953 6.42346 10.9051 6.42346 11.1641C6.42346 11.423 6.63334 11.6328 6.89221 11.6328H8.97296C9.23184 11.6328 9.44171 11.423 9.44171 11.1641C9.44171 10.9051 9.23184 10.6953 8.97296 10.6953H6.89221Z" fill="black"/>
<path d="M0.46875 18.0879H2.18313C2.442 18.0879 2.65188 17.8781 2.65188 17.6191C2.65188 17.3602 2.442 17.1504 2.18313 17.1504H0.46875C0.209875 17.1504 0 17.3602 0 17.6191C0 17.8781 0.209875 18.0879 0.46875 18.0879Z" fill="black"/>
<path d="M1.71875 22.2168H0.46875C0.209875 22.2168 0 22.4266 0 22.6855C0 22.9445 0.209875 23.1543 0.46875 23.1543H1.71875C1.97763 23.1543 2.1875 22.9445 2.1875 22.6855C2.1875 22.4266 1.97763 22.2168 1.71875 22.2168Z" fill="black"/>
<path d="M7.23327 18.2476H5.56152C5.30265 18.2476 5.09277 18.4574 5.09277 18.7163C5.09277 18.9752 5.30265 19.1851 5.56152 19.1851H7.23327C7.49215 19.1851 7.70202 18.9752 7.70202 18.7163C7.70202 18.4574 7.49215 18.2476 7.23327 18.2476Z" fill="black"/>
<path d="M28.5006 17.6254C30.6724 16.1622 32 13.6965 32 11.0575C32 9.80321 31.7147 8.60302 31.1519 7.49046C31.0351 7.25946 30.753 7.1669 30.5221 7.28371C30.2911 7.40052 30.1984 7.68259 30.3153 7.91352C30.8111 8.89377 31.0625 9.95159 31.0625 11.0575C31.0625 13.4308 29.8441 15.6451 27.8601 16.9245L25.1311 13.9382C24.8141 13.5912 24.3626 13.3923 23.8927 13.3923H17.5111C17.2451 12.6443 17.1101 11.8603 17.1101 11.0575C17.1101 7.21077 20.2396 4.08134 24.0863 4.08134C26.0817 4.08134 27.9857 4.93909 29.3102 6.43465C29.4817 6.6284 29.778 6.64652 29.9719 6.47477C30.1657 6.30315 30.1837 6.0069 30.0121 5.81309C29.3234 5.03546 28.4963 4.41046 27.5847 3.9609V2.37334C27.5847 1.79646 27.1154 1.32715 26.5385 1.32715H21.6342C21.0573 1.32715 20.588 1.79646 20.588 2.37334V3.96046C17.9743 5.25409 16.1726 7.94909 16.1726 11.0575C16.1726 11.8565 16.2909 12.639 16.5237 13.3923H4.5705C3.97256 13.3923 3.48138 13.8545 3.43344 14.4404H1.71875C1.45987 14.4404 1.25 14.6502 1.25 14.9091C1.25 15.1681 1.45987 15.3779 1.71875 15.3779H3.42869V19.9086H0.46875C0.209875 19.9086 0 20.1185 0 20.3774C0 20.6363 0.209875 20.8461 0.46875 20.8461H3.42869V22.2172C3.17188 22.2196 2.96431 22.4283 2.96431 22.6857C2.96431 22.9431 3.17181 23.1518 3.42869 23.1542V26.47C3.42869 26.9621 3.82906 27.3624 4.32113 27.3624H5.58231V27.6887H4.11981C3.86094 27.6887 3.65106 27.8985 3.65106 28.1575C3.65106 28.4164 3.86094 28.6262 4.11981 28.6262H6.05106C6.30994 28.6262 6.51981 28.4164 6.51981 28.1575V27.3624H6.9475C7.09625 29.2126 8.64844 30.673 10.5363 30.673C11.1593 30.673 11.7743 30.5105 12.3147 30.203C12.5397 30.0749 12.6183 29.7887 12.4903 29.5637C12.3623 29.3386 12.0762 29.2602 11.8511 29.3881C11.4517 29.6154 10.997 29.7355 10.5363 29.7355C9.06737 29.7355 7.87225 28.5405 7.87225 27.0715C7.87225 25.6025 9.06737 24.4074 10.5363 24.4074C12.0052 24.4074 13.2004 25.6025 13.2004 27.0715C13.2004 27.472 13.1136 27.8571 12.9423 28.2163C12.8309 28.45 12.9301 28.7298 13.1637 28.8411C13.3974 28.9525 13.6771 28.8534 13.7886 28.6198C13.9785 28.2214 14.0903 27.7995 14.125 27.3624H22.5534C22.7021 29.2126 24.2543 30.673 26.1422 30.673C28.0301 30.673 29.5822 29.2126 29.731 27.3624H30.6959C31.415 27.3624 32 26.7774 32 26.0583V22.104C32 21.6851 31.8444 21.2842 31.5619 20.9751L28.5006 17.6254ZM21.5255 2.37334C21.5255 2.3134 21.5743 2.26465 21.6342 2.26465H26.5385C26.5984 2.26465 26.6472 2.3134 26.6472 2.37334V3.57121C25.8309 3.29165 24.9666 3.1439 24.0863 3.1439C23.1905 3.1439 22.3291 3.29377 21.5254 3.56934V2.37334H21.5255ZM24.4391 14.5707L29.3172 19.9086H25.8205C25.5616 19.9086 25.3517 20.1185 25.3517 20.3774C25.3517 20.6363 25.5616 20.8461 25.8205 20.8461H30.1739L30.8699 21.6077C31.1536 21.9182 31.0344 22.2551 31.0625 22.6127H30.7011C30.4422 22.6127 30.2324 22.8225 30.2324 23.0815C30.2324 23.3404 30.4422 23.5502 30.7011 23.5502H31.0625V24.2438H28.3687C27.7554 23.7599 26.9823 23.47 26.1423 23.47C25.3023 23.47 24.5291 23.7599 23.9158 24.2438H18.8085V14.3298H20.8302V19.9028C20.8302 20.423 21.2534 20.8462 21.7736 20.8462H23.9465C24.2054 20.8462 24.4153 20.6364 24.4153 20.3775C24.4153 20.1185 24.2054 19.9087 23.9465 19.9087H21.7736C21.7703 19.9087 21.7677 19.906 21.7677 19.9028V14.3298H23.8928C24.1 14.3298 24.2992 14.4176 24.4391 14.5707ZM22.5999 26.425H18.8084V25.1813H23.0783C22.8463 25.556 22.6816 25.9761 22.5999 26.425ZM13.6002 25.1813H17.8709V26.425H14.0786C13.9968 25.9761 13.8322 25.556 13.6002 25.1813V25.1813ZM4.36619 25.1813H7.47231C7.24031 25.556 7.07569 25.9761 6.99394 26.425H4.36619V25.1813ZM8.30981 24.2438H4.36619V23.1545H6.39744C6.65631 23.1545 6.86619 22.9447 6.86619 22.6858C6.86619 22.4268 6.65631 22.217 6.39744 22.217H4.36619V20.8461H6.39744C6.65631 20.8461 6.86619 20.6363 6.86619 20.3774C6.86619 20.1185 6.65631 19.9086 6.39744 19.9086H4.36619V14.5341C4.36619 14.4215 4.45781 14.3298 4.5705 14.3298H17.8709V24.2438H12.7627C12.1495 23.7598 11.3763 23.47 10.5363 23.47C9.69631 23.47 8.92313 23.7599 8.30981 24.2438V24.2438ZM26.1422 29.7356C24.6732 29.7356 23.4781 28.5406 23.4781 27.0716C23.4781 25.6026 24.6732 24.4075 26.1422 24.4075C27.6112 24.4075 28.8062 25.6026 28.8062 27.0716C28.8062 28.5406 27.6112 29.7356 26.1422 29.7356ZM30.6959 26.425H29.6844C29.6027 25.9761 29.4381 25.556 29.2061 25.1813H31.0625V26.0585C31.0625 26.2606 30.8981 26.425 30.6959 26.425Z" fill="black"/>
</g>
<defs>
<clipPath id="clip0_17_378">
<rect width="32" height="32" fill="white"/>
</clipPath>
</defs>
</svg>
