<svg id="Group_37960" data-name="Group 37960" xmlns="http://www.w3.org/2000/svg" width="32" height="32" viewBox="0 0 32 32">
  <path id="Path_105798" data-name="Path 105798" d="M0,0V26.667H18a3.729,3.729,0,0,1,.136.982v.084H17.067V32H28.8V27.733H27.726l0-.427a1.6,1.6,0,0,1,.141-.64H32V0ZM27.733,30.933h-9.6V28.8h9.6Zm-8.533-3.2v-.084a4.813,4.813,0,0,0-.555-2.24l-.557-1.055L16.255,19.34a.54.54,0,0,0-.039-.083.533.533,0,0,1,.6-.781.526.526,0,0,1,.323.248L18.276,20.7a1.067,1.067,0,0,0,1.99-.533V12.8a.533.533,0,0,1,1.067,0v4.8a.533.533,0,0,0,.489.533l4.444.37A1.609,1.609,0,0,1,27.733,20.1v4.324a1.6,1.6,0,0,1-.267.888l-.355.533a2.66,2.66,0,0,0-.447,1.46l-.005.432ZM30.933,25.6H28.522a2.659,2.659,0,0,0,.278-1.179V20.1a2.683,2.683,0,0,0-2.445-2.657L22.4,17.109V12.8a1.6,1.6,0,0,0-3.2,0v7.364l-1.138-1.973a1.6,1.6,0,0,0-2.795,1.555L17.1,24.753a.526.526,0,0,0,.029.066l.412.782H1.067V5.333H30.933ZM1.067,4.267v-3.2H30.933v3.2Zm0,0"/>
  <path id="Path_105799" data-name="Path 105799" d="M32,32h1.062v1.062H32Zm0,0" transform="translate(-29.877 -29.877)"/>
  <path id="Path_105800" data-name="Path 105800" d="M64,32h1.062v1.062H64Zm0,0" transform="translate(-59.754 -29.877)"/>
  <path id="Path_105801" data-name="Path 105801" d="M96,32h1.062v1.062H96Zm0,0" transform="translate(-89.599 -29.877)"/>
  <path id="Path_105802" data-name="Path 105802" d="M54.369,114.189l1.428-1.221-.69-.807-.738.63V112H48v6.369h6.369Zm-5.308,3.119v-4.246h4.246v.637l-2.119,1.815L49.96,114.3l-.743.755,1.924,1.9,2.168-1.856v2.21Zm0,0" transform="translate(-44.815 -104.524)"/>
  <path id="Path_105803" data-name="Path 105803" d="M54.369,242.189l1.428-1.221-.69-.807-.738.63V240H48v6.369h6.369Zm-5.308,3.119v-4.246h4.246v.637l-2.119,1.815L49.96,242.3l-.743.755,1.924,1.9,2.168-1.856v2.21Zm0,0" transform="translate(-44.815 -223.981)"/>
  <path id="Path_105804" data-name="Path 105804" d="M240,112h2.123v1.062H240Zm0,0" transform="translate(-223.995 -104.532)"/>
  <path id="Path_105805" data-name="Path 105805" d="M288,112h9.554v1.062H288Zm0,0" transform="translate(-268.739 -104.532)"/>
  <path id="Path_105806" data-name="Path 105806" d="M240,144h12.739v1.062H240Zm0,0" transform="translate(-223.923 -134.398)"/>
  <path id="Path_105807" data-name="Path 105807" d="M240,184h2.123v1.062H240Zm0,0" transform="translate(-223.995 -171.731)"/>
  <path id="Path_105808" data-name="Path 105808" d="M352,184h5.308v1.062H352Zm0,0" transform="translate(-328.492 -171.731)"/>
  <path id="Path_105809" data-name="Path 105809" d="M352,216h5.308v1.062H352Zm0,0" transform="translate(-328.492 -201.598)"/>
  <path id="Path_105810" data-name="Path 105810" d="M240,216h2.123v1.062H240Zm0,0" transform="translate(-223.995 -201.598)"/>
</svg>
