<svg width="32" height="32" viewBox="0 0 32 32" fill="none" xmlns="http://www.w3.org/2000/svg">
<path d="M30.5 15H30V8.5C30 8.36739 29.9473 8.24021 29.8536 8.14645C29.7598 8.05268 29.6326 8 29.5 8H23.5V3.5C23.4992 2.8372 23.2356 2.20178 22.7669 1.73311C22.2982 1.26444 21.6628 1.00079 21 1H8C7.3372 1.00079 6.70178 1.26444 6.23311 1.73311C5.76444 2.20178 5.50079 2.8372 5.5 3.5V28.5C5.50079 29.1628 5.76444 29.7982 6.23311 30.2669C6.70178 30.7356 7.3372 30.9992 8 31H21C21.6628 30.9992 22.2982 30.7356 22.7669 30.2669C23.2356 29.7982 23.4992 29.1628 23.5 28.5V24H29.5C29.6326 24 29.7598 23.9473 29.8536 23.8536C29.9473 23.7598 30 23.6326 30 23.5V20H30.5C30.6326 20 30.7598 19.9473 30.8536 19.8536C30.9473 19.7598 31 19.6326 31 19.5V15.5C31 15.3674 30.9473 15.2402 30.8536 15.1464C30.7598 15.0527 30.6326 15 30.5 15ZM29 11H14C13.7348 11 13.4804 10.8946 13.2929 10.7071C13.1054 10.5196 13 10.2652 13 10C13 9.73478 13.1054 9.48043 13.2929 9.29289C13.4804 9.10536 13.7348 9 14 9H29V11ZM11.5 2H17.5V2.5C17.5 2.63261 17.4473 2.75979 17.3536 2.85355C17.2598 2.94732 17.1326 3 17 3H12C11.8674 3 11.7402 2.94732 11.6464 2.85355C11.5527 2.75979 11.5 2.63261 11.5 2.5V2ZM22.5 28.5C22.5 28.8978 22.342 29.2794 22.0607 29.5607C21.7794 29.842 21.3978 30 21 30H8C7.60218 30 7.22064 29.842 6.93934 29.5607C6.65804 29.2794 6.5 28.8978 6.5 28.5V3.5C6.5 3.10218 6.65804 2.72064 6.93934 2.43934C7.22064 2.15804 7.60218 2 8 2H10.5V2.5C10.5 2.89782 10.658 3.27936 10.9393 3.56066C11.2206 3.84196 11.6022 4 12 4H17C17.3978 4 17.7794 3.84196 18.0607 3.56066C18.342 3.27936 18.5 2.89782 18.5 2.5V2H21C21.3978 2 21.7794 2.15804 22.0607 2.43934C22.342 2.72064 22.5 3.10218 22.5 3.5V8H14C13.4696 8 12.9609 8.21071 12.5858 8.58579C12.2107 8.96086 12 9.46957 12 10V21.5C12.0008 22.1628 12.2644 22.7982 12.7331 23.2669C13.2018 23.7356 13.8372 23.9992 14.5 24H22.5V28.5ZM29 23H14.5C14.1022 23 13.7206 22.842 13.4393 22.5607C13.158 22.2794 13 21.8978 13 21.5V11.722C13.3027 11.902 13.6479 11.9979 14 12H29V15H26.5C26.1022 15 25.7206 15.158 25.4393 15.4393C25.158 15.7206 25 16.1022 25 16.5V18.5C25 18.8978 25.158 19.2794 25.4393 19.5607C25.7206 19.842 26.1022 20 26.5 20H29V23ZM30 19H26.5C26.3674 19 26.2402 18.9473 26.1464 18.8536C26.0527 18.7598 26 18.6326 26 18.5V16.5C26 16.3674 26.0527 16.2402 26.1464 16.1464C26.2402 16.0527 26.3674 16 26.5 16H30V19Z" fill="black"/>
<path d="M27 17H28V18H27V17Z" fill="black"/>
<path d="M19.5 16H20.5C20.6326 16 20.7598 16.0527 20.8536 16.1464C20.9473 16.2402 21 16.3674 21 16.5H22C22 16.1022 21.842 15.7206 21.5607 15.4393C21.2794 15.158 20.8978 15 20.5 15V14H19.5V15C19.1022 15 18.7206 15.158 18.4393 15.4393C18.158 15.7206 18 16.1022 18 16.5C18 16.8978 18.158 17.2794 18.4393 17.5607C18.7206 17.842 19.1022 18 19.5 18H20.5C20.6326 18 20.7598 18.0527 20.8536 18.1464C20.9473 18.2402 21 18.3674 21 18.5C21 18.6326 20.9473 18.7598 20.8536 18.8536C20.7598 18.9473 20.6326 19 20.5 19H19.5C19.3674 19 19.2402 18.9473 19.1464 18.8536C19.0527 18.7598 19 18.6326 19 18.5H18C18 18.8978 18.158 19.2794 18.4393 19.5607C18.7206 19.842 19.1022 20 19.5 20V21H20.5V20C20.8978 20 21.2794 19.842 21.5607 19.5607C21.842 19.2794 22 18.8978 22 18.5C22 18.1022 21.842 17.7206 21.5607 17.4393C21.2794 17.158 20.8978 17 20.5 17H19.5C19.3674 17 19.2402 16.9473 19.1464 16.8536C19.0527 16.7598 19 16.6326 19 16.5C19 16.3674 19.0527 16.2402 19.1464 16.1464C19.2402 16.0527 19.3674 16 19.5 16V16Z" fill="black"/>
</svg>
