<svg width="32" height="32" viewBox="0 0 32 32" fill="none" xmlns="http://www.w3.org/2000/svg">
<path d="M5.3511 10.0354C5.3511 10.0354 5.3511 10.0353 5.3511 10.0352L5.33666 9.89274C5.26147 9.14749 4.6186 8.58199 3.86729 8.60667L2.31266 8.6568C1.91791 8.66955 1.54229 8.8473 1.28222 9.14449C1.0221 9.44167 0.89566 9.83755 0.93541 10.2305L0.971223 10.5849C1.01091 10.9778 1.21391 11.3404 1.52822 11.5795C1.77841 11.7699 2.0851 11.8715 2.39616 11.8715C2.47591 11.8715 2.55604 11.8648 2.63541 11.8512L4.1686 11.5893C4.90697 11.4632 5.42641 10.7807 5.3511 10.0354V10.0354ZM4.01078 10.6652L2.4776 10.9272C2.34135 10.9504 2.20597 10.9172 2.09597 10.8335C1.98604 10.7499 1.91785 10.6281 1.90404 10.4906L1.86822 10.1362C1.85429 9.99874 1.89679 9.8658 1.98772 9.76186C2.07872 9.65792 2.20485 9.59824 2.34291 9.5938L3.89754 9.54367C3.90291 9.54349 3.90816 9.54342 3.91347 9.54342C4.16472 9.54342 4.3786 9.73536 4.40403 9.98711L4.41847 10.1295C4.44435 10.3865 4.26522 10.6217 4.01078 10.6652V10.6652Z" fill="black"/>
<path d="M2.66226 6.90714L4.12095 7.44689C4.28295 7.50683 4.44958 7.53533 4.61401 7.53533C5.16251 7.53533 5.68551 7.21789 5.92201 6.69233L5.98083 6.56158C6.28826 5.87852 6.0117 5.06658 5.35133 4.71314L3.97995 3.97927C3.6317 3.79289 3.21764 3.75914 2.84376 3.88633C2.46989 4.01364 2.16245 4.29321 2.00026 4.65346L1.85414 4.97833C1.69201 5.33852 1.68658 5.75396 1.8392 6.11827C1.99183 6.48258 2.29183 6.77008 2.66226 6.90714V6.90714ZM2.70908 5.36308L2.8552 5.03827C2.91189 4.91227 3.0152 4.81833 3.14595 4.77383C3.19845 4.75596 3.2522 4.74708 3.30576 4.74708C3.38551 4.74708 3.4647 4.76683 3.53758 4.80583L4.90889 5.53977C5.13658 5.66158 5.23189 5.94146 5.12595 6.17689L5.06714 6.30764C4.96114 6.54314 4.68826 6.65727 4.44626 6.56771L2.98758 6.02796C2.85808 5.98002 2.75726 5.88346 2.70389 5.75602C2.65051 5.62864 2.65239 5.48908 2.70908 5.36308V5.36308Z" fill="black"/>
<path d="M6.04629 3.74949C6.32716 4.08786 6.73629 4.26492 7.14935 4.26492C7.43985 4.26492 7.73235 4.17724 7.98329 3.99649L8.0996 3.91267C8.70735 3.47486 8.87385 2.63342 8.4786 1.99711L7.65791 0.675861C7.44954 0.340361 7.10779 0.103924 6.72035 0.0272989C6.33316 -0.0493886 5.92691 0.0391115 5.60648 0.269986L5.31741 0.478236C4.99692 0.709111 4.78448 1.06624 4.73454 1.45805C4.68454 1.8498 4.8006 2.2488 5.05279 2.55267L6.04629 3.74949ZM5.66448 1.57661C5.68198 1.43955 5.75335 1.31961 5.86541 1.23886L6.15448 1.03061C6.23966 0.969236 6.33885 0.937361 6.44104 0.937361C6.47335 0.937361 6.50591 0.940549 6.53848 0.946986C6.67398 0.973799 6.78873 1.05317 6.8616 1.17055L7.68229 2.4918C7.81854 2.71111 7.76116 3.00117 7.55166 3.15205L7.43535 3.23586C7.22579 3.38674 6.93266 3.34936 6.76766 3.15074L5.77416 1.95386C5.68598 1.84761 5.64704 1.71361 5.66448 1.57661Z" fill="black"/>
<path d="M31.0719 18.8969C31.0719 18.8968 31.0719 18.8967 31.0719 18.8966C31.0719 18.3338 30.8527 17.8046 30.4545 17.4065C30.0953 17.0472 29.6291 16.8343 29.128 16.7961V13.6294C29.128 11.8343 27.9643 10.2742 26.2957 9.73881C26.4831 9.0715 26.5818 8.37169 26.5818 7.65475C26.5818 3.43388 23.148 0 18.9271 0C14.7778 0 11.3893 3.31906 11.2762 7.44187C10.3492 7.95994 9.52834 8.67112 8.87684 9.54225H8.5639C7.65878 9.54225 6.8074 9.89475 6.16615 10.5351C5.5269 11.1751 5.17459 12.0252 5.17372 12.9291C5.17365 12.9302 5.17334 12.9314 5.17334 12.9325V28.6094C5.17334 29.5153 5.52603 30.3668 6.16628 31.0071C6.80665 31.6474 7.65815 32 8.56403 32H25.041C25.775 32 26.4948 31.8031 27.1227 31.4306C27.3453 31.2985 27.4187 31.0109 27.2866 30.7883C27.1545 30.5656 26.8668 30.4923 26.6443 30.6244C26.1612 30.911 25.6067 31.0625 25.041 31.0625H14.301V22.6954C15.0702 22.4884 15.6383 21.7852 15.6383 20.9515C15.6383 19.9557 14.8281 19.1455 13.8323 19.1455C12.8365 19.1455 12.0263 19.9557 12.0263 20.9515C12.0263 21.7852 12.5943 22.4884 13.3635 22.6954V31.0625H11.8959V26.9444C11.8959 26.8201 11.8465 26.7008 11.7587 26.6129L10.4048 25.2592C10.5584 24.9938 10.6468 24.6861 10.6468 24.358C10.6468 23.3622 9.83659 22.552 8.84078 22.552C7.8449 22.552 7.03478 23.3622 7.03478 24.358C7.03478 25.3538 7.84497 26.164 8.84078 26.164C9.16884 26.164 9.4764 26.0756 9.74184 25.9221L10.9584 27.1386V31.0625H8.56409C7.90865 31.0625 7.29253 30.8074 6.82934 30.3442C6.36609 29.8809 6.11097 29.2648 6.11097 28.6094V15.2727C6.58697 15.7725 7.21615 16.1294 7.93384 16.2635C8.13765 16.3028 8.34965 16.3228 8.56403 16.3228H25.0409C26.7777 16.3228 28.1906 17.7357 28.1906 19.4724C28.1906 19.4753 28.191 19.478 28.191 19.4808V20.0671H26.2795C26.2795 20.0671 26.2795 20.0671 26.2795 20.0671C25.2819 20.0671 24.3439 20.4556 23.6385 21.161C22.9329 21.8664 22.5443 22.8044 22.5443 23.8019C22.5443 25.8613 24.2198 27.5368 26.2792 27.5368H28.191V27.9131C28.191 28.4589 28.0495 28.996 27.7818 29.4661C27.6537 29.691 27.7322 29.9773 27.9572 30.1054C28.0304 30.1471 28.1101 30.1669 28.1887 30.1669C28.3517 30.1669 28.5101 30.0818 28.5965 29.93C28.9445 29.3188 29.1285 28.6214 29.1285 27.9131V27.5297C30.2142 27.4455 31.0721 26.5359 31.0721 25.429L31.0719 18.8969ZM12.9637 20.9515C12.9637 20.4726 13.3533 20.083 13.8322 20.083C14.3112 20.083 14.7007 20.4726 14.7007 20.9515C14.7007 21.4304 14.3112 21.82 13.8322 21.82C13.3533 21.82 12.9637 21.4304 12.9637 20.9515ZM7.97215 24.3579C7.97215 23.8791 8.36178 23.4894 8.84065 23.4894C9.31953 23.4894 9.70915 23.8791 9.70915 24.3579C9.70915 24.8368 9.31959 25.2264 8.84065 25.2264C8.36172 25.2264 7.97215 24.8368 7.97215 24.3579ZM29.7917 18.0694C30.0127 18.2904 30.1343 18.5842 30.1343 18.8966C30.1343 19.4863 29.6959 19.9741 29.1283 20.0543V19.4725C29.1283 19.4696 29.128 19.4669 29.1279 19.4641V17.7394C29.3783 17.7742 29.6097 17.8875 29.7917 18.0694ZM18.9271 0.9375C22.631 0.9375 25.6443 3.95081 25.6443 7.65469C25.6443 9.94287 24.5005 12.0335 22.6162 13.2691C22.5787 12.9321 22.5192 12.6016 22.4391 12.2791C23.8824 11.1832 24.7347 9.47894 24.7347 7.65494C24.7347 7.22144 24.6864 6.78894 24.5912 6.36931C24.5338 6.11681 24.2825 5.95869 24.0302 6.01594C23.7778 6.07325 23.6196 6.32437 23.6768 6.57681C23.7567 6.92844 23.7972 7.29119 23.7972 7.65494C23.7972 9.071 23.1844 10.4011 22.1328 11.3201C21.9234 10.7896 21.6561 10.288 21.3392 9.82288C21.5969 9.50731 21.7371 9.11581 21.7371 8.70244C21.7371 8.01894 21.349 7.42463 20.7817 7.12744C20.9196 6.89906 20.9991 6.63163 20.9991 6.346C20.9991 5.67344 20.5588 5.102 19.9514 4.90406V4.10719C19.9514 3.84831 19.7416 3.63844 19.4827 3.63844C19.2237 3.63844 19.0139 3.84831 19.0139 4.10719V4.82963H18.5715V4.10719C18.5715 3.84831 18.3617 3.63844 18.1028 3.63844C17.8438 3.63844 17.634 3.84831 17.634 4.10719V4.82963H17.5661H16.7523C16.4933 4.82963 16.2835 5.0395 16.2835 5.29838C16.2835 5.55725 16.4933 5.76713 16.7523 5.76713H17.0973V6.75756C16.4335 6.56913 15.7331 6.46812 15.0097 6.46812C14.7353 6.46812 14.463 6.48375 14.1933 6.51275C14.7096 4.34975 16.6459 2.785 18.9272 2.785C20.5815 2.785 22.1084 3.61394 23.0117 5.0025C23.1529 5.21956 23.4433 5.28094 23.6603 5.13981C23.8773 4.99862 23.9388 4.70825 23.7976 4.49131C22.7207 2.83588 20.8999 1.84756 18.9272 1.84756C16.0709 1.84756 13.6677 3.90475 13.2023 6.68544C12.8756 6.765 12.5555 6.86612 12.2437 6.98712C12.5798 3.5955 15.4489 0.9375 18.9271 0.9375ZM19.4827 5.76713C19.8019 5.76713 20.0617 6.02688 20.0617 6.34606C20.0617 6.66525 19.802 6.925 19.4827 6.925H18.0349V5.76713H19.4827ZM19.9598 7.86275C20.4229 7.86275 20.7997 8.23944 20.7997 8.7025C20.7997 8.821 20.7747 8.93537 20.7283 9.0405C20.3358 8.59937 19.8935 8.20375 19.4098 7.86275H19.9598ZM6.11122 12.9325C6.11122 12.2776 6.36634 11.6614 6.82909 11.1981C7.22178 10.8059 7.72384 10.5636 8.26609 10.4983C7.66809 11.6072 7.35528 12.8443 7.35528 14.1226C7.35528 14.4512 7.37684 14.7785 7.41828 15.102C6.63203 14.6871 6.11122 13.8616 6.11122 12.9325ZM8.41109 15.3799C8.33297 14.9684 8.29278 14.5469 8.29278 14.1224C8.29278 12.7385 8.71028 11.4097 9.50009 10.2797C10.7576 8.48 12.8172 7.40556 15.0097 7.40556C18.7133 7.40556 21.7265 10.4188 21.7265 14.1224C21.7265 14.5489 21.6862 14.9721 21.6073 15.3852H20.6775C20.7692 14.9726 20.8165 14.5502 20.8165 14.1224C20.8165 10.9205 18.2116 8.31556 15.0097 8.31556C11.8078 8.31556 9.20284 10.9205 9.20284 14.1224C9.20284 14.5501 9.25015 14.9726 9.34184 15.3852H8.56397C8.51265 15.3852 8.46178 15.3831 8.41109 15.3799V15.3799ZM14.1175 15.3853V14.3306H16.042C16.505 14.3306 16.8817 14.7073 16.8817 15.1703C16.8817 15.2434 16.8719 15.3156 16.8534 15.3853H14.1175ZM15.5649 12.2351C15.8842 12.2351 16.1439 12.4949 16.1439 12.8141C16.1439 13.1332 15.8842 13.393 15.5649 13.393H14.1172V12.2351H15.5649ZM16.8641 13.5954C17.002 13.367 17.0814 13.0997 17.0814 12.8141C17.0814 12.1414 16.6411 11.5701 16.0337 11.3721V10.5752C16.0337 10.3163 15.8238 10.1064 15.5649 10.1064C15.306 10.1064 15.0962 10.3163 15.0962 10.5752V11.2976H14.6538V10.5752C14.6538 10.3163 14.444 10.1064 14.185 10.1064C13.9261 10.1064 13.7163 10.3163 13.7163 10.5752V11.2976H13.6484H12.8346C12.5757 11.2976 12.3658 11.5075 12.3658 11.7664C12.3658 12.0252 12.5757 12.2351 12.8346 12.2351H13.1797V13.8617C13.1797 13.8638 13.1799 13.8657 13.18 13.8678V15.3853H10.3068C10.1968 14.9754 10.1403 14.5522 10.1403 14.1225C10.1403 11.4375 12.3247 9.25313 15.0097 9.25313C17.6946 9.25313 19.879 11.4375 19.879 14.1225C19.879 14.5523 19.8225 14.9755 19.7125 15.3853H17.8053C17.814 15.3142 17.8192 15.2425 17.8192 15.1703C17.8192 14.4869 17.4312 13.8926 16.8641 13.5954V13.5954ZM28.1905 16.8704C27.4402 15.9638 26.3068 15.3853 25.0408 15.3853H22.5592C22.6166 15.0405 22.651 14.6904 22.6608 14.3379C24.1817 13.4882 25.3359 12.1745 25.986 10.6244C27.2835 11.0301 28.1905 12.2379 28.1905 13.6293V16.8704ZM30.1345 25.4291C30.1345 26.0743 29.6095 26.5993 28.9642 26.5993H26.2791C24.7366 26.5993 23.4817 25.3444 23.4817 23.8019C23.4817 23.0547 23.7727 22.3523 24.3012 21.8239C24.8296 21.2956 25.5321 21.0046 26.2793 21.0046H28.9645C29.397 21.0046 29.7995 20.8736 30.1344 20.6491V25.4291H30.1345Z" fill="black"/>
<path d="M26.2787 21.9959C25.2828 21.9959 24.4727 22.8061 24.4727 23.8019C24.4727 24.7977 25.2828 25.6079 26.2787 25.6079C27.2745 25.6079 28.0847 24.7977 28.0847 23.8019C28.0847 22.8061 27.2745 21.9959 26.2787 21.9959ZM26.2787 24.6704C25.7998 24.6704 25.4102 24.2808 25.4102 23.8019C25.4102 23.323 25.7998 22.9334 26.2787 22.9334C26.7575 22.9334 27.1472 23.323 27.1472 23.8019C27.1472 24.2808 26.7575 24.6704 26.2787 24.6704Z" fill="black"/>
</svg>
