<svg xmlns="http://www.w3.org/2000/svg" width="32" height="32" viewBox="0 0 32 32">
  <g id="Group_38603" data-name="Group 38603" transform="translate(0)">
    <path id="Path_104957" data-name="Path 104957" d="M103.506,96.976a6.465,6.465,0,0,0-4.025,1.387.308.308,0,0,0,.38.485,5.854,5.854,0,0,1,3.645-1.256,5.911,5.911,0,0,1,4.124,10.148v-1.5a1.969,1.969,0,0,0-1.967-1.967h-1.019v-.936a.31.31,0,0,0,0-.052,1.966,1.966,0,0,0,.834-1.607v-1.659a1.554,1.554,0,0,0-1.552-1.552h-.83a1.554,1.554,0,0,0-1.552,1.552v1.659a1.966,1.966,0,0,0,.834,1.607.311.311,0,0,0,0,.052v.936h-1.019a1.969,1.969,0,0,0-1.967,1.967v1.5a5.909,5.909,0,0,1-.5-7.92.308.308,0,1,0-.481-.384,6.46,6.46,0,0,0-1.423,4.07,6.53,6.53,0,1,0,6.53-6.53Zm-1.351,3.045a.937.937,0,0,1,.936-.936h.83a.937.937,0,0,1,.936.936v.492a1.392,1.392,0,0,1-.6-.249.308.308,0,0,0-.284-.05,6.819,6.819,0,0,1-1.818.322Zm0,1.131a7.464,7.464,0,0,0,1.861-.307,2.169,2.169,0,0,0,.841.29v.544a1.351,1.351,0,0,1-2.7,0Zm.83,2.424a1.958,1.958,0,0,0,1.043,0v.7h-1.043Zm-1.327,5.546v-2.05a.308.308,0,0,0-.616,0v1.808a5.921,5.921,0,0,1-1.045-.618c0-.009,0-.019,0-.028v-1.991a1.353,1.353,0,0,1,1.351-1.351h4.314a1.353,1.353,0,0,1,1.351,1.351v1.991c0,.01,0,.019,0,.028a5.918,5.918,0,0,1-1.045.618v-1.808a.308.308,0,0,0-.616,0v2.05a5.916,5.916,0,0,1-3.7,0Z" transform="translate(-87.506 -87.506)"/>
    <path id="Path_104958" data-name="Path 104958" d="M27.53,7.615a2.362,2.362,0,0,0-3.092-3.078,12.446,12.446,0,0,0-3.624-3.221,9.462,9.462,0,0,0-9.628,0A12.445,12.445,0,0,0,7.562,4.537,2.362,2.362,0,0,0,4.47,7.615,10.674,10.674,0,0,0,0,16a9.57,9.57,0,0,0,1.316,4.814,12.445,12.445,0,0,0,3.221,3.624A2.362,2.362,0,0,0,7.615,27.53,10.674,10.674,0,0,0,16,32a10.675,10.675,0,0,0,8.385-4.47,2.362,2.362,0,0,0,3.078-3.092,12.444,12.444,0,0,0,3.221-3.624A9.571,9.571,0,0,0,32,16,10.674,10.674,0,0,0,27.53,7.615ZM25.281,22.981a2.361,2.361,0,0,0-2.3,2.9,19.813,19.813,0,0,1-13.959,0,2.362,2.362,0,0,0-2.87-2.827A19.8,19.8,0,0,1,6.122,9.02,2.362,2.362,0,0,0,8.949,6.15a19.8,19.8,0,0,1,14.1,0,2.361,2.361,0,0,0,2.827,2.87,19.8,19.8,0,0,1-.028,14.031,2.359,2.359,0,0,0-.569-.07ZM26.769,6.719a1.425,1.425,0,1,1-1.425-1.425A1.427,1.427,0,0,1,26.769,6.719ZM16,.937a9.762,9.762,0,0,1,7.66,4.127,2.379,2.379,0,0,0-.205.238,20.711,20.711,0,0,0-14.909,0,2.379,2.379,0,0,0-.205-.238A9.762,9.762,0,0,1,16,.937ZM6.656,5.294A1.425,1.425,0,1,1,5.231,6.719,1.427,1.427,0,0,1,6.656,5.294ZM.938,16A9.742,9.742,0,0,1,4.994,8.4a2.382,2.382,0,0,0,.275.234A20.721,20.721,0,0,0,5.3,23.454a2.393,2.393,0,0,0-.238.205A9.762,9.762,0,0,1,.938,16Zm4.356,9.344a1.425,1.425,0,1,1,1.425,1.425,1.427,1.427,0,0,1-1.425-1.425ZM16,31.062a9.742,9.742,0,0,1-7.6-4.056,2.38,2.38,0,0,0,.234-.275,20.731,20.731,0,0,0,14.74,0,2.386,2.386,0,0,0,.234.275A9.742,9.742,0,0,1,16,31.062Zm9.281-4.293a1.425,1.425,0,1,1,1.425-1.425A1.427,1.427,0,0,1,25.281,26.769Zm1.655-3.11a2.386,2.386,0,0,0-.238-.205A20.721,20.721,0,0,0,26.731,8.63a2.376,2.376,0,0,0,.275-.234A9.742,9.742,0,0,1,31.063,16,9.762,9.762,0,0,1,26.936,23.66Z"/>
  </g>
</svg>
