<svg width="32" height="32" viewBox="0 0 32 32" fill="none" xmlns="http://www.w3.org/2000/svg">
<g clip-path="url(#clip0_23_882)">
<path d="M31.9968 5.51899C31.9553 3.58599 30.3704 2.04541 28.4279 2.04541H9.08839C6.9127 2.04541 5.14266 3.77795 5.14266 5.95401L5.15249 25.1007H0.910077C0.407472 25.1007 0 25.5073 0 26.0099C0 28.1854 1.76992 29.9544 3.94537 29.9544H22.367C24.5427 29.9544 26.3127 28.2275 26.3127 26.0515L26.3029 6.53512H31.0876C31.0886 6.53512 31.0894 6.53512 31.09 6.53512C31.5928 6.53512 32.0001 6.11345 32.0001 5.61085C32 5.58476 31.9989 5.54447 31.9968 5.51899ZM22.367 28.1343H21.8768C21.0314 27.8916 20.405 26.9614 20.405 26.0099C20.405 25.5072 19.9977 25.1007 19.4949 25.1007H6.97277L6.96294 5.95352C6.96294 4.78171 7.91633 3.86556 9.08851 3.86556H25.1053C24.7113 4.47228 24.4825 5.19015 24.4825 5.97221L24.4926 26.0377C24.4926 27.2095 23.5391 28.1343 22.367 28.1343Z" fill="black"/>
<path d="M9.74882 8.84066H15.4557C15.9585 8.84066 16.3658 8.43331 16.3658 7.93059C16.3658 7.42786 15.9585 7.02051 15.4557 7.02051H9.74882C9.2461 7.02051 8.83875 7.42786 8.83875 7.93059C8.83875 8.43331 9.2461 8.84066 9.74882 8.84066Z" fill="black"/>
<path d="M9.74882 11.7528H15.4557C15.9585 11.7528 16.3658 11.3454 16.3658 10.8427C16.3658 10.34 15.9585 9.93262 15.4557 9.93262H9.74882C9.2461 9.93262 8.83875 10.34 8.83875 10.8427C8.83875 11.3454 9.2461 11.7528 9.74882 11.7528Z" fill="black"/>
<path d="M21.6967 12.8452H9.74882C9.2461 12.8452 8.83875 13.2526 8.83875 13.7553C8.83875 14.258 9.2461 14.6654 9.74882 14.6654H21.6967C22.1993 14.6654 22.6068 14.258 22.6068 13.7553C22.6068 13.2526 22.1993 12.8452 21.6967 12.8452Z" fill="black"/>
<path d="M21.6967 21.7031H15.9897C15.4869 21.7031 15.0796 22.1105 15.0796 22.6132C15.0796 23.1159 15.4869 23.5233 15.9897 23.5233H21.6967C22.1993 23.5233 22.6068 23.1159 22.6068 22.6132C22.6068 22.1105 22.1993 21.7031 21.6967 21.7031Z" fill="black"/>
<path d="M21.6967 18.791H9.74882C9.2461 18.791 8.83875 19.1984 8.83875 19.7011C8.83875 20.2038 9.2461 20.6112 9.74882 20.6112H21.6967C22.1993 20.6112 22.6068 20.2038 22.6068 19.7011C22.6068 19.1984 22.1993 18.791 21.6967 18.791Z" fill="black"/>
<path d="M21.6967 15.8784H9.74882C9.2461 15.8784 8.83875 16.2858 8.83875 16.7885C8.83875 17.2912 9.2461 17.6986 9.74882 17.6986H21.6967C22.1993 17.6986 22.6068 17.2912 22.6068 16.7885C22.6068 16.2858 22.1993 15.8784 21.6967 15.8784Z" fill="black"/>
</g>
<defs>
<clipPath id="clip0_23_882">
<rect width="32" height="32" fill="white"/>
</clipPath>
</defs>
</svg>
