<svg xmlns="http://www.w3.org/2000/svg" xmlns:xlink="http://www.w3.org/1999/xlink" width="32" height="32" viewBox="0 0 32 32">
  <defs>
    <clipPath id="clip-path">
      <rect id="Rectangle_12585" data-name="Rectangle 12585" width="27.939" height="28" fill="none"/>
    </clipPath>
  </defs>
  <g id="Group_37672" data-name="Group 37672" transform="translate(10187 1859)">
    <g id="Rectangle_12544" data-name="Rectangle 12544" transform="translate(-10187 -1859)" stroke="#707070" stroke-width="1" opacity="0">
      <rect width="32" height="32" stroke="none"/>
      <rect x="0.5" y="0.5" width="31" height="31" fill="none"/>
    </g>
    <g id="Group_37704" data-name="Group 37704" transform="translate(-10185 -1857)">
      <g id="Group_37704-2" data-name="Group 37704" clip-path="url(#clip-path)">
        <path id="Path_105536" data-name="Path 105536" d="M395.255,199.331c-.032.241-.06.483-.1.723a.445.445,0,0,1-.494.43.439.439,0,0,1-.4-.5c.015-.462.046-.924.068-1.387.012-.254.041-.5.334-.588s.439.081.584.278Z" transform="translate(-367.317 -184.456)"/>
        <path id="Path_105537" data-name="Path 105537" d="M187.849,0a2.541,2.541,0,0,1,.291.061.42.42,0,0,1,.314.454.385.385,0,0,1-.365.406c-.571.021-1.143.022-1.714,0A.391.391,0,0,1,186,.5a.416.416,0,0,1,.358-.446c.114-.026.231-.037.347-.054Z" transform="translate(-173.282)"/>
        <path id="Path_105538" data-name="Path 105538" d="M165.364,394.766c-.4-.055-.8-.109-1.2-.165a1.471,1.471,0,0,1-.292-.059.416.416,0,0,1-.3-.486.393.393,0,0,1,.425-.376c.558.044,1.115.112,1.67.189a.4.4,0,0,1,.351.4c.022.272-.157.4-.376.5Z" transform="translate(-152.38 -366.766)"/>
        <path id="Path_105539" data-name="Path 105539" d="M210.171,394.692c-.082-.054-.2-.09-.237-.165a.857.857,0,0,1-.089-.45c.035-.212.227-.288.429-.311l1.374-.16c.342-.039.56.091.6.357.046.286-.122.493-.468.547-.446.069-.893.123-1.34.183Z" transform="translate(-195.495 -366.691)"/>
        <path id="Path_105540" data-name="Path 105540" d="M105.041,145.788a2.112,2.112,0,0,1-.3,0c-.253-.04-.371.079-.5.3a3.041,3.041,0,0,1-2.8,1.624c-.708.005-1.416,0-2.193,0,.094.331.17.624.261.913.064.2.14.408-.042.586a.492.492,0,0,1-.608.028,4.034,4.034,0,0,1-2.025-1.75.682.682,0,0,0-.263-.222,3.223,3.223,0,0,1-1.472-3.336,3.018,3.018,0,0,1,2.462-2.5,1,1,0,0,0,.938-.8,3.579,3.579,0,0,1,3.411-2.456c1.526-.061,3.057-.047,4.584-.005a3.734,3.734,0,0,1,3.682,3.491,3.647,3.647,0,0,1-1.871,3.595,1.251,1.251,0,0,0-.46.471,4.829,4.829,0,0,1-2.3,1.893.8.8,0,0,1-.3.119.745.745,0,0,1-.465-.1.5.5,0,0,1-.071-.439,3.89,3.89,0,0,0,.326-1.409m.824.722a2.835,2.835,0,0,0,1.305-1.261,1.266,1.266,0,0,1,.666-.667,2.962,2.962,0,0,0,1.533-2.889,3.022,3.022,0,0,0-2.969-2.708q-2.182-.04-4.365,0a2.941,2.941,0,0,0-2.555,1.474,2.909,2.909,0,0,0-.226,2.6.406.406,0,1,1-.764.259,7.036,7.036,0,0,1-.216-.927c-.028-.177-.084-.221-.26-.209a2.3,2.3,0,0,0-2.085,1.822,2.365,2.365,0,0,0,1.138,2.587,1.169,1.169,0,0,1,.561.595,2.071,2.071,0,0,0,.849.888c0-.278-.008-.512,0-.746a.4.4,0,0,1,.445-.438c.318-.009.637,0,.955,0,.672-.009,1.348.017,2.016-.043a2.089,2.089,0,0,0,1.583-1.056c-.465,0-.875.031-1.279-.008a11.289,11.289,0,0,1-1.469-.244.4.4,0,0,1-.333-.552c.083-.227.283-.28.59-.225a10.416,10.416,0,0,0,1.476.2c.954.031,1.91.007,2.865.01.385,0,.516.117.533.494.016.352,0,.7,0,1.05" transform="translate(-88.557 -128.69)"/>
        <path id="Path_105541" data-name="Path 105541" d="M301.555,30a2.467,2.467,0,0,0-.776,1.639c-.023.354-.01.71-.011,1.066,0,.34.016.357.353.357h4.065c.282,0,.564,0,.846,0,.2,0,.286-.078.272-.278-.041-.579-.069-1.159-.124-1.736-.029-.307.055-.506.295-.556s.424.076.509.372a6.5,6.5,0,0,1,.115,2.226.938.938,0,0,1-1.023.791c-.773.006-1.546,0-2.319,0-.9,0-1.8,0-2.7,0a.984.984,0,0,1-1.105-1.114,12.876,12.876,0,0,1,.065-1.552,2.973,2.973,0,0,1,1.023-1.847.324.324,0,0,0,.129-.347,2.4,2.4,0,0,1,3.566-2.563,2.4,2.4,0,0,1-.891,4.438,2.351,2.351,0,0,1-2.151-.8c-.024-.027-.05-.052-.077-.077-.006-.006-.017-.006-.058-.019m1.946-3.058a1.585,1.585,0,0,0-1.575,1.581,1.582,1.582,0,1,0,1.575-1.581" transform="translate(-279.446 -24.318)"/>
        <path id="Path_105542" data-name="Path 105542" d="M5.4,30.125a2.4,2.4,0,0,0-.775,1.592c-.033.4-.008.8-.017,1.2,0,.185.072.266.256.266q2.51,0,5.02,0c.181,0,.274-.071.261-.26-.04-.588-.07-1.177-.123-1.763-.027-.292.053-.487.279-.544.247-.062.436.064.52.353a6.443,6.443,0,0,1,.119,2.253.941.941,0,0,1-1.032.781c-1.118,0-2.237,0-3.356,0-.564,0-1.128,0-1.691,0a.964.964,0,0,1-1.066-1.069,12.668,12.668,0,0,1,.135-1.9,2.714,2.714,0,0,1,.958-1.552.32.32,0,0,0,.118-.35A2.4,2.4,0,0,1,6.12,26.584a2.346,2.346,0,0,1,2.872.319A2.4,2.4,0,0,1,7.7,31.015a2.3,2.3,0,0,1-2.174-.8.828.828,0,0,0-.08-.073c-.006-.005-.017,0-.047-.012m1.939-3.062a1.586,1.586,0,1,0,1.594,1.563,1.589,1.589,0,0,0-1.594-1.563" transform="translate(-3.534 -24.444)"/>
        <path id="Path_105543" data-name="Path 105543" d="M5.4,273.987a2.447,2.447,0,0,0-.789,1.611c-.033.4-.007.8-.017,1.2,0,.189.078.264.259.264q2.51,0,5.02,0c.18,0,.272-.072.259-.261-.041-.588-.071-1.177-.124-1.763-.027-.293.052-.481.282-.542s.434.064.518.354a6.351,6.351,0,0,1,.116,2.253.838.838,0,0,1-.707.741,1.72,1.72,0,0,1-.406.039q-2.442,0-4.884,0c-.788,0-1.165-.365-1.147-1.153a11.852,11.852,0,0,1,.129-1.789,2.756,2.756,0,0,1,.966-1.578.321.321,0,0,0,.116-.351A2.415,2.415,0,0,1,6.4,270.307a2.382,2.382,0,0,1,2.887.825,2.268,2.268,0,0,1,.255,2.333A2.294,2.294,0,0,1,7.657,274.9a2.316,2.316,0,0,1-2.146-.813c-.029-.032-.065-.059-.111-.1m1.929-3.042a1.585,1.585,0,0,0-1.576,1.581,1.583,1.583,0,1,0,3.166-.016,1.582,1.582,0,0,0-1.59-1.565" transform="translate(-3.521 -251.65)"/>
        <path id="Path_105544" data-name="Path 105544" d="M301.593,274.138a2.463,2.463,0,0,0-.788,1.592c-.035.407-.008.82-.018,1.23,0,.192.085.259.263.259q2.51,0,5.021,0c.184,0,.267-.083.254-.268-.042-.588-.073-1.177-.125-1.764-.026-.292.056-.478.288-.536s.426.067.513.362a6.671,6.671,0,0,1,.122,2.226.881.881,0,0,1-.721.763,2.191,2.191,0,0,1-.433.038q-2.415,0-4.83,0c-.81,0-1.184-.358-1.166-1.161a11.86,11.86,0,0,1,.123-1.763,2.92,2.92,0,0,1,.97-1.611.411.411,0,0,0,.11-.317,2.406,2.406,0,0,1,3.155-2.774,2.408,2.408,0,1,1-2.738,3.724m1.935-3.039a1.582,1.582,0,0,0-1.582,1.574,1.583,1.583,0,1,0,1.582-1.574" transform="translate(-279.466 -251.804)"/>
        <path id="Path_105545" data-name="Path 105545" d="M1.007,154.8c.1-.526.188-1.055.3-1.577a.434.434,0,0,1,.5-.356.443.443,0,0,1,.371.519c-.078.53-.172,1.057-.276,1.582a.438.438,0,0,1-.486.345.5.5,0,0,1-.414-.513" transform="translate(-0.938 -142.406)"/>
        <path id="Path_105546" data-name="Path 105546" d="M141.239,4.571a.432.432,0,0,1-.47-.329.385.385,0,0,1,.239-.514c.565-.162,1.138-.3,1.715-.41.23-.044.394.133.441.361a.388.388,0,0,1-.261.483c-.558.157-1.125.279-1.663.409" transform="translate(-131.127 -3.085)"/>
        <path id="Path_105547" data-name="Path 105547" d="M278.074,17.306c.012.4-.3.643-.593.512-.5-.227-1-.482-1.485-.741a.435.435,0,0,1-.183-.568.416.416,0,0,1,.543-.232c.512.231,1.015.483,1.508.751.111.06.168.219.209.277" transform="translate(-256.921 -15.133)"/>
        <path id="Path_105548" data-name="Path 105548" d="M.983,200.432c0,.015,0,.061,0,.106a.45.45,0,0,1-.417.48.428.428,0,0,1-.466-.4c-.048-.533-.083-1.068-.1-1.6a.446.446,0,0,1,.889-.053c.029.242.019.489.033.734s.038.471.06.736" transform="translate(0 -184.973)"/>
        <path id="Path_105549" data-name="Path 105549" d="M5.947,244.305c.066.065.247.162.3.306.179.5.324,1.019.461,1.536a.427.427,0,0,1-.288.541.437.437,0,0,1-.565-.294c-.163-.49-.316-.985-.447-1.485-.088-.334.13-.612.542-.6" transform="translate(-5.017 -227.605)"/>
        <path id="Path_105550" data-name="Path 105550" d="M385.045,244.561c-.184.569-.35,1.144-.559,1.7a.384.384,0,0,1-.535.189.4.4,0,0,1-.272-.5c.089-.352.205-.7.309-1.044.054-.183.092-.371.162-.548a.419.419,0,0,1,.5-.272.526.526,0,0,1,.391.473" transform="translate(-357.436 -227.392)"/>
        <path id="Path_105551" data-name="Path 105551" d="M232.289,2.771c.544.138,1.092.265,1.631.42a.421.421,0,0,1,.285.521.44.44,0,0,1-.518.336q-.784-.168-1.56-.372a.428.428,0,0,1-.325-.521.5.5,0,0,1,.487-.385" transform="translate(-215.946 -2.582)"/>
        <path id="Path_105552" data-name="Path 105552" d="M391.389,154.193c.008.32-.136.511-.382.545a.437.437,0,0,1-.5-.387c-.1-.489-.185-.981-.263-1.473a.453.453,0,0,1,.358-.576.449.449,0,0,1,.522.4c.076.327.138.657.2.987.033.178.05.36.07.5" transform="translate(-363.556 -141.884)"/>
        <path id="Path_105553" data-name="Path 105553" d="M121.851,381.336c.009.4-.251.644-.536.553-.526-.167-1.045-.361-1.558-.566a.443.443,0,0,1,.314-.829c.507.168,1.012.347,1.5.553.134.056.221.228.276.288" transform="translate(-111.315 -354.46)"/>
        <path id="Path_105554" data-name="Path 105554" d="M98.967,18.212c-.119-.119-.28-.217-.348-.36a.4.4,0,0,1,.194-.538c.281-.165.571-.316.862-.464a5.179,5.179,0,0,1,.594-.27.442.442,0,0,1,.571.234.426.426,0,0,1-.2.579c-.471.252-.951.487-1.43.726a.872.872,0,0,1-.182.046l-.057.046" transform="translate(-91.84 -15.419)"/>
        <path id="Path_105555" data-name="Path 105555" d="M255,381.864a.449.449,0,0,1-.446-.333.413.413,0,0,1,.239-.522c.231-.1.478-.168.716-.256.263-.1.52-.213.787-.3a.443.443,0,0,1,.582.255.431.431,0,0,1-.241.567c-.512.206-1.036.384-1.555.572a.552.552,0,0,1-.082.016" transform="translate(-237.137 -354.419)"/>
      </g>
    </g>
  </g>
</svg>
