<svg width="32" height="32" viewBox="0 0 32 32" fill="none" xmlns="http://www.w3.org/2000/svg">
<path d="M30 9.5H29.4785L30.02 8.5795C30.0533 8.5229 30.0751 8.4603 30.0842 8.39527C30.0933 8.33023 30.0895 8.26405 30.073 8.20049C30.0565 8.13692 30.0277 8.07723 29.9881 8.02481C29.9486 7.9724 29.8991 7.92829 29.8425 7.895L23.808 4.345C23.6937 4.27792 23.5575 4.25894 23.4293 4.29222C23.301 4.3255 23.1912 4.40832 23.124 4.5225L21.2765 7.6645L19.5 4.645V3C19.4992 2.3372 19.2356 1.70178 18.7669 1.23311C18.2982 0.764441 17.6628 0.500794 17 0.5H3C2.3372 0.500794 1.70178 0.764441 1.23311 1.23311C0.764441 1.70178 0.500794 2.3372 0.5 3V29C0.500794 29.6628 0.764441 30.2982 1.23311 30.7669C1.70178 31.2356 2.3372 31.4992 3 31.5H17C17.6628 31.4992 18.2982 31.2356 18.7669 30.7669C19.2356 30.2982 19.4992 29.6628 19.5 29V27H30C30.3978 27 30.7794 26.842 31.0607 26.5607C31.342 26.2794 31.5 25.8978 31.5 25.5V11C31.5 10.6022 31.342 10.2206 31.0607 9.93934C30.7794 9.65804 30.3978 9.5 30 9.5ZM30 10.5C30.1326 10.5 30.2598 10.5527 30.3536 10.6464C30.4473 10.7402 30.5 10.8674 30.5 11V13.5H27.1265L28.8905 10.5H30ZM23.732 5.4625L28.9045 8.5035L25.967 13.5H24.8065L27.029 9.7205C27.0623 9.6639 27.0841 9.6013 27.0932 9.53627C27.1023 9.47124 27.0985 9.40506 27.082 9.3415L26.904 8.657C26.8706 8.52881 26.7877 8.41912 26.6735 8.352L24.95 7.338C24.8934 7.30471 24.8308 7.2829 24.7658 7.27381C24.7007 7.26471 24.6346 7.26852 24.571 7.285L23.8865 7.463C23.7583 7.4964 23.6486 7.5793 23.5815 7.6935L20.1665 13.5H19.0065L23.732 5.4625ZM21.3265 13.5L24.338 8.3785L24.6215 8.305L25.9885 9.109L26.062 9.3925L23.6465 13.5H21.3265ZM18.3765 12.6L16.491 9.3935L16.5645 9.1095L17.9315 8.306L18.215 8.3795L19.5365 10.627L18.3765 12.6ZM20.1165 9.6405L18.972 7.6945C18.9049 7.5803 18.7952 7.4974 18.667 7.464L17.9825 7.286C17.9189 7.26952 17.8528 7.26571 17.7877 7.27481C17.7227 7.2839 17.6601 7.30571 17.6035 7.339L15.879 8.35C15.7648 8.41712 15.6819 8.52681 15.6485 8.655L15.471 9.34C15.4378 9.46821 15.4569 9.60433 15.524 9.7185L17.7465 13.5H16.586L13.65 8.5035L18.7565 5.5H18.8425L20.6965 8.653L20.1165 9.6405ZM15.426 13.5H14C13.6307 13.4987 13.2748 13.3613 13.0005 13.1139C12.7262 12.8666 12.5529 12.5267 12.5136 12.1595C12.4743 11.7922 12.5719 11.4234 12.7877 11.1237C13.0035 10.8239 13.3223 10.6143 13.683 10.535L15.426 13.5ZM8 1.5H12V2C12 2.13261 11.9473 2.25979 11.8536 2.35355C11.7598 2.44732 11.6326 2.5 11.5 2.5H8.5C8.36739 2.5 8.24021 2.44732 8.14645 2.35355C8.05268 2.25979 8 2.13261 8 2V1.5ZM18.5 29C18.5 29.3978 18.342 29.7794 18.0607 30.0607C17.7794 30.342 17.3978 30.5 17 30.5H3C2.60218 30.5 2.22064 30.342 1.93934 30.0607C1.65804 29.7794 1.5 29.3978 1.5 29V3C1.5 2.60218 1.65804 2.22064 1.93934 1.93934C2.22064 1.65804 2.60218 1.5 3 1.5H7V2C7 2.39782 7.15804 2.77936 7.43934 3.06066C7.72064 3.34196 8.10218 3.5 8.5 3.5H11.5C11.8978 3.5 12.2794 3.34196 12.5607 3.06066C12.842 2.77936 13 2.39782 13 2V1.5H17C17.3978 1.5 17.7794 1.65804 18.0607 1.93934C18.342 2.22064 18.5 2.60218 18.5 3V4.491L12.7105 7.895C12.6539 7.92829 12.6044 7.9724 12.5649 8.02481C12.5253 8.07723 12.4965 8.13692 12.48 8.20049C12.4635 8.26405 12.4597 8.33023 12.4688 8.39527C12.4779 8.4603 12.4997 8.5229 12.533 8.5795L13.165 9.654C12.6794 9.8256 12.2588 10.1431 11.9607 10.5631C11.6626 10.9831 11.5017 11.485 11.5 12V24.5C11.5008 25.1628 11.7644 25.7982 12.2331 26.2669C12.7018 26.7356 13.3372 26.9992 14 27H18.5V29ZM30 26H14C13.6022 26 13.2206 25.842 12.9393 25.5607C12.658 25.2794 12.5 24.8978 12.5 24.5V13.987C12.9302 14.3179 13.4573 14.4982 14 14.5H30.5V17.5H27.5C26.9696 17.5 26.4609 17.7107 26.0858 18.0858C25.7107 18.4609 25.5 18.9696 25.5 19.5V20.5C25.5 21.0304 25.7107 21.5391 26.0858 21.9142C26.4609 22.2893 26.9696 22.5 27.5 22.5H30.5V25.5C30.5 25.6326 30.4473 25.7598 30.3536 25.8536C30.2598 25.9473 30.1326 26 30 26ZM30.5 18.5V21.5H27.5C27.2348 21.5 26.9804 21.3946 26.7929 21.2071C26.6054 21.0196 26.5 20.7652 26.5 20.5V19.5C26.5 19.2348 26.6054 18.9804 26.7929 18.7929C26.9804 18.6054 27.2348 18.5 27.5 18.5H30.5Z" fill="black"/>
<path d="M28.5 21C29.0523 21 29.5 20.5523 29.5 20C29.5 19.4477 29.0523 19 28.5 19C27.9477 19 27.5 19.4477 27.5 20C27.5 20.5523 27.9477 21 28.5 21Z" fill="black"/>
<path d="M12.5 28.5H7.5V29.5H12.5V28.5Z" fill="black"/>
</svg>
