<svg width="32" height="32" viewBox="0 0 32 32" fill="none" xmlns="http://www.w3.org/2000/svg">
<path d="M32 26.723V22.8248L30.5068 22.4433C30.4965 22.4181 30.4861 22.3929 30.4753 22.3679L31.2613 21.0431L29.9355 19.7167V0H4.12903V6.19355H0V29.9355H19.7167L21.0431 31.2613L22.3679 30.4758C22.3934 30.4866 22.4186 30.497 22.4433 30.5073L22.8248 32H26.7235L27.1046 30.5068C27.1298 30.4965 27.155 30.4861 27.1799 30.4753L28.5048 31.2608L31.2613 28.5048L30.4753 27.1799C30.4861 27.1545 30.4965 27.1293 30.5068 27.1046L32 26.723ZM28.9032 1.03226V4.12903H5.16129V1.03226H28.9032ZM5.16129 5.16129H28.9032V18.685L28.5053 18.287L27.1804 19.0726C27.155 19.0617 27.1298 19.0514 27.1051 19.0411L26.7235 17.5484H25.8065V6.19355H5.16129V5.16129ZM24.7742 7.22581V10.3226H1.03226V7.22581H24.7742ZM1.03226 28.9032V11.3548H24.7742V17.5484H22.8248L22.4438 19.0416C22.4186 19.0519 22.3934 19.0622 22.3684 19.0731L21.0436 18.2875L18.287 21.0436L19.0731 22.3684C19.0622 22.3939 19.0519 22.4191 19.0416 22.4438L17.5484 22.8254V26.7235L19.0416 27.1051C19.0519 27.1303 19.0622 27.1555 19.0731 27.1804L18.287 28.5053L18.6845 28.9032H1.03226ZM29.965 28.3422L28.3422 29.9655L27.2387 29.3105L26.9899 29.4292C26.8304 29.505 26.6668 29.5736 26.4985 29.6331L26.2384 29.7248L25.9216 30.9677H23.6268L23.31 29.7248L23.0499 29.6331C22.8816 29.5741 22.718 29.5055 22.5585 29.4292L22.3097 29.3105L21.2061 29.9655L19.5834 28.3422L20.2379 27.2392L20.1192 26.9909C20.0428 26.8304 19.9748 26.6663 19.9148 26.498L19.8231 26.2389L18.5806 25.9221V23.6268L19.8223 23.31L19.9143 23.0504C19.9743 22.8821 20.0423 22.718 20.1187 22.558L20.2374 22.3097L19.5829 21.2067L21.2056 19.5834L22.3092 20.2384L22.558 20.1197C22.7175 20.0439 22.881 19.9753 23.0494 19.9158L23.3095 19.8241L23.6268 18.5806H25.9216L26.2384 19.8236L26.4985 19.9153C26.6668 19.9743 26.8304 20.0428 26.9899 20.1192L27.2387 20.2379L28.3422 19.5829L29.965 21.2061L29.3105 22.3092L29.4292 22.5575C29.5055 22.718 29.5736 22.8816 29.6336 23.0499L29.7253 23.3095L30.9677 23.6263V25.9216L29.7261 26.2384L29.6341 26.4975C29.5736 26.6658 29.5055 26.8304 29.4297 26.9904L29.311 27.2387L29.965 28.3422Z" fill="black"/>
<path d="M24.7742 20.645C22.4975 20.645 20.6451 22.4973 20.6451 24.7741C20.6451 27.0508 22.4975 28.9031 24.7742 28.9031C27.0509 28.9031 28.9032 27.0508 28.9032 24.7741C28.9032 22.4973 27.0509 20.645 24.7742 20.645ZM24.7742 27.8708C23.0663 27.8708 21.6774 26.482 21.6774 24.7741C21.6774 23.0661 23.0663 21.6773 24.7742 21.6773C26.4821 21.6773 27.8709 23.0661 27.8709 24.7741C27.8709 26.482 26.4821 27.8708 24.7742 27.8708Z" fill="black"/>
<path d="M24.7742 22.7095C23.6356 22.7095 22.7097 23.6354 22.7097 24.774C22.7097 25.9126 23.6356 26.8385 24.7742 26.8385C25.9128 26.8385 26.8387 25.9126 26.8387 24.774C26.8387 23.6354 25.9128 22.7095 24.7742 22.7095ZM24.7742 25.8062C24.2049 25.8062 23.742 25.3433 23.742 24.774C23.742 24.2047 24.2049 23.7417 24.7742 23.7417C25.3435 23.7417 25.8065 24.2047 25.8065 24.774C25.8065 25.3433 25.3435 25.8062 24.7742 25.8062Z" fill="black"/>
<path d="M2.06458 8.2583H3.09683V9.29056H2.06458V8.2583Z" fill="black"/>
<path d="M4.12903 8.2583H5.16129V9.29056H4.12903V8.2583Z" fill="black"/>
<path d="M6.1936 8.2583H7.22586V9.29056H6.1936V8.2583Z" fill="black"/>
<path d="M6.1936 2.06445H7.22586V3.09671H6.1936V2.06445Z" fill="black"/>
<path d="M8.25806 2.06445H9.29031V3.09671H8.25806V2.06445Z" fill="black"/>
<path d="M10.3226 2.06445H11.3549V3.09671H10.3226V2.06445Z" fill="black"/>
<path d="M2.06458 21.6775H14.4517V12.3872H2.06458V21.6775ZM3.09683 13.4195H13.4194V20.6453H3.09683V13.4195Z" fill="black"/>
<path d="M2.06458 22.7095H14.4517V23.7417H2.06458V22.7095Z" fill="black"/>
<path d="M2.06458 24.7744H3.09683V25.8067H2.06458V24.7744Z" fill="black"/>
<path d="M4.12903 24.7744H14.4516V25.8067H4.12903V24.7744Z" fill="black"/>
<path d="M13.4193 26.8389H14.4516V27.8711H13.4193V26.8389Z" fill="black"/>
<path d="M2.06458 26.8389H12.3872V27.8711H2.06458V26.8389Z" fill="black"/>
</svg>
