<svg xmlns="http://www.w3.org/2000/svg" xmlns:xlink="http://www.w3.org/1999/xlink" width="32" height="32" viewBox="0 0 32 32">
  <defs>
    <clipPath id="clip-path">
      <rect id="Rectangle_12617" data-name="Rectangle 12617" width="28" height="27.974"/>
    </clipPath>
  </defs>
  <g id="Group_37672" data-name="Group 37672" transform="translate(10187 1859)">
    <rect id="Rectangle_12544" data-name="Rectangle 12544" width="32" height="32" transform="translate(-10187 -1859)" opacity="0"/>
    <g id="Group_37724" data-name="Group 37724" transform="translate(-10185 -1857)">
      <g id="Group_37724-2" data-name="Group 37724" clip-path="url(#clip-path)">
        <path id="Path_105673" data-name="Path 105673" d="M15.679,22.479a3.925,3.925,0,0,1,2.3,2.949,21.643,21.643,0,0,1,.123,2.545H9.9a23.309,23.309,0,0,1,.156-2.64,3.8,3.8,0,0,1,2.088-2.754l.149-.08c.007,0,.011-.013.034-.043a2.73,2.73,0,0,1,1.209-4.816V15.8h-.308c-2.361,0-4.722.03-7.082-.014a1.476,1.476,0,0,0-1.6,1.848,2.739,2.739,0,0,1,1.253,4.8,13.542,13.542,0,0,1,1.21.97A3.811,3.811,0,0,1,8.128,26.1c.015.619,0,1.239,0,1.877H0A10.806,10.806,0,0,1,.219,24.9,4.127,4.127,0,0,1,2.41,22.474a2.733,2.733,0,0,1,1.225-4.841,5.484,5.484,0,0,1,.005-.76A2.243,2.243,0,0,1,5.915,14.9q3.626-.008,7.251,0h.361V13.5a1.446,1.446,0,0,1-1.8-1.3,1.456,1.456,0,0,1-1.342-1.347A1.463,1.463,0,0,1,9.032,9.508a1.45,1.45,0,0,1-1.1-2.275A4.325,4.325,0,0,1,7.964,1.32a4.341,4.341,0,0,1,6.051-.167A4.248,4.248,0,0,1,17.348.021,4.179,4.179,0,0,1,20.01,1.3a4.292,4.292,0,0,1,.277,5.67A1.45,1.45,0,0,1,19.435,9.5a1.483,1.483,0,0,1-1.361,1.347A1.455,1.455,0,0,1,16.73,12.2a1.449,1.449,0,0,1-2.277,1.081V14.9H21.9a2.275,2.275,0,0,1,2.483,2.464c0,.084,0,.168,0,.271a2.69,2.69,0,0,1,2.165,2.017,2.637,2.637,0,0,1-.9,2.771,13.88,13.88,0,0,1,1.228.987A3.813,3.813,0,0,1,27.993,26.1c.015.619,0,1.238,0,1.874H19.864a10.939,10.939,0,0,1,.221-3.081,4.077,4.077,0,0,1,1.964-2.3c.064-.035.13-.068.224-.118a2.731,2.731,0,0,1,1.177-4.828,1.454,1.454,0,0,0-1.516-1.854c-2.379.036-4.759.012-7.138.012h-.324v1.835a2.745,2.745,0,0,1,1.208,4.843m-.458-12.406c.078.074.147.135.213.2.287.285.565.579.861.854a.488.488,0,0,0,.844-.254.732.732,0,0,0-.185-.5c-.316-.356-.668-.68-1.009-1.019l.633-.637c.073.069.142.13.207.195.287.285.566.578.861.854a.489.489,0,0,0,.846-.248.728.728,0,0,0-.182-.5c-.316-.357-.669-.681-.969-.98l.611-.683c.342.346.669.683,1,1.013a.508.508,0,1,0,.718-.707q-1.4-1.41-2.817-2.808a.418.418,0,0,0-.311-.071,5.791,5.791,0,0,1-.939.157,1.049,1.049,0,0,0-.918.415,1.447,1.447,0,0,1-1.229.51c-.479-.016-.959,0-1.439,0a1.094,1.094,0,0,1-1.1-.68,1.079,1.079,0,0,1,.29-1.235c.473-.471.943-.945,1.417-1.415.238-.236.482-.466.721-.7A3.35,3.35,0,0,0,8.608,6.57a1.444,1.444,0,0,1,2.254,1.1,1.45,1.45,0,0,1,1.345,1.351,1.452,1.452,0,0,1,1.349,1.336.306.306,0,0,0,.058.029,1.405,1.405,0,0,1,1.223,1.846.219.219,0,0,0,.009.152.528.528,0,0,0,.588.234.446.446,0,0,0,.361-.476.819.819,0,0,0-.216-.434c-.317-.342-.657-.662-.966-.968l.608-.666M19.634,6.3c.022-.026.048-.052.069-.082a3.358,3.358,0,0,0-.529-4.467,3.334,3.334,0,0,0-4.451,0c-.981.917-1.912,1.888-2.859,2.842-.06.06-.113.2-.083.259a.343.343,0,0,0,.257.112c.309.013.624-.027.929.012a1.407,1.407,0,0,0,1.438-.6.764.764,0,0,1,.754-.313,2.668,2.668,0,0,0,1.922-.577l.2-.164.64.616-.351.319L19.634,6.3M2.725,25.3v1.779h2.7V25.3h.916v1.769h.881c0-.371.015-.727,0-1.082A3.156,3.156,0,0,0,3.35,23.114,3.285,3.285,0,0,0,.944,27.068h.875V25.3Zm9.917,1.771h2.721V25.3h.906v1.774h.889c0-.34.008-.667,0-.993a3.152,3.152,0,0,0-4.751-2.613,3.354,3.354,0,0,0-1.534,3.6h.885V25.3h.886Zm9.94.006h2.711V25.3H26.2V27.07h.888c0-.373.016-.73,0-1.085a3.171,3.171,0,0,0-3.009-2.957,3.249,3.249,0,0,0-3.265,4.038h.876V25.3h.9ZM4.057,22.121A1.805,1.805,0,1,0,2.264,20.3a1.811,1.811,0,0,0,1.793,1.824M14,18.511a1.805,1.805,0,1,0,1.81,1.806A1.81,1.81,0,0,0,14,18.511m11.743,1.8a1.8,1.8,0,1,0-1.81,1.808,1.81,1.81,0,0,0,1.81-1.808M8.99,8.576c.4,0,.969-.537.935-.836a.612.612,0,0,0-.249-.427.63.63,0,0,0-.516.012,1.247,1.247,0,0,0-.471.469.662.662,0,0,0-.021.517c.058.135.252.212.322.265m1.352,1.368a1.191,1.191,0,0,0,.839-.561.468.468,0,0,0-.045-.66.481.481,0,0,0-.663-.028,1.582,1.582,0,0,0-.407.421.7.7,0,0,0-.058.514c.055.145.248.238.334.313m2.3.508A.49.49,0,0,0,11.92,10a1.95,1.95,0,0,0-.565.572.489.489,0,0,0,.468.714,1.23,1.23,0,0,0,.821-.833m.958.836c-.414,0-.982.545-.941.84a.642.642,0,0,0,.276.437.643.643,0,0,0,.513-.044,1.11,1.11,0,0,0,.431-.431.679.679,0,0,0,.045-.515c-.059-.144-.255-.231-.325-.288" transform="translate(0 0)"/>
        <rect id="Rectangle_12611" data-name="Rectangle 12611" width="0.871" height="0.866" transform="translate(6.796 16.72)"/>
        <rect id="Rectangle_12612" data-name="Rectangle 12612" width="0.862" height="0.877" transform="translate(8.607 16.725)"/>
        <rect id="Rectangle_12613" data-name="Rectangle 12613" width="0.878" height="0.864" transform="translate(10.404 16.726)"/>
        <rect id="Rectangle_12614" data-name="Rectangle 12614" width="0.873" height="0.868" transform="translate(16.728 16.72)"/>
        <rect id="Rectangle_12615" data-name="Rectangle 12615" width="0.869" height="0.868" transform="translate(18.531 16.727)"/>
        <rect id="Rectangle_12616" data-name="Rectangle 12616" width="0.878" height="0.864" transform="translate(20.333 16.721)"/>
      </g>
    </g>
  </g>
</svg>
