<svg xmlns="http://www.w3.org/2000/svg" xmlns:xlink="http://www.w3.org/1999/xlink" width="60" height="60" viewBox="0 0 60 60">
  <defs>
    <clipPath id="clip-path">
      <rect id="Rectangle_12587" data-name="Rectangle 12587" width="53.991" height="54" fill="#fe5c58" stroke="#fff" stroke-width="1"/>
    </clipPath>
  </defs>
  <g id="Group_37646" data-name="Group 37646" transform="translate(-423 -1990)">
    <g id="Rectangle_12523" data-name="Rectangle 12523" transform="translate(423 1990)" fill="#fe5c58" stroke="#707070" stroke-width="1" opacity="0">
      <rect width="60" height="60" stroke="none"/>
      <rect x="0.5" y="0.5" width="59" height="59" fill="none"/>
    </g>
    <g id="Group_37706" data-name="Group 37706" transform="translate(426 1993)">
      <g id="Group_37706-2" data-name="Group 37706" clip-path="url(#clip-path)">
        <path id="Path_105574" data-name="Path 105574" d="M3.483,119.617c-.166-.051-.331-.1-.5-.153a4.067,4.067,0,0,1-2.978-3.9c-.016-1.616,0-3.233,0-4.85q0-14.945,0-29.89a4.1,4.1,0,0,1,4.469-4.448H21.285c1.337,0,1.915.584,1.916,1.931q0,1.95,0,3.9v.518a5.353,5.353,0,1,1,.03,10.564v3.125h.545c1.581,0,3.162.013,4.743-.006a1.662,1.662,0,0,1,1.7.9,1.643,1.643,0,0,1-.317,1.853,2.072,2.072,0,0,0-.168,2.416,2.152,2.152,0,0,0,3.963-.625,2.029,2.029,0,0,0-.409-1.786,1.614,1.614,0,0,1-.3-1.9,1.706,1.706,0,0,1,1.725-.865c2.231.017,4.462,0,6.693.007a1.628,1.628,0,0,1,1.83,1.858q0,8.514,0,17.027a4.061,4.061,0,0,1-3.341,4.244.656.656,0,0,0-.138.073ZM23.2,116.453H38.829c.96,0,1.243-.288,1.243-1.266q0-7.513,0-15.026v-.54h-3.2a5.363,5.363,0,0,1-4.887,6.175,5.149,5.149,0,0,1-3.963-1.383,5.324,5.324,0,0,1-1.7-4.809H23.2v.59c0,1.652,0,3.3,0,4.956a1.516,1.516,0,0,1-.883,1.446,1.531,1.531,0,0,1-1.685-.18c-.113-.084-.218-.18-.337-.253a2.152,2.152,0,1,0-1.794,3.868,2.164,2.164,0,0,0,2.11-.477,1.49,1.49,0,0,1,1.723-.193,1.542,1.542,0,0,1,.868,1.456c0,.351,0,.7,0,1.054v4.58M6.369,96.393a5.383,5.383,0,0,1,4.99-6.2A5.181,5.181,0,0,1,15.3,91.642a5.318,5.318,0,0,1,1.615,4.731h3.125c0-1.8.011-3.555-.005-5.312a1.645,1.645,0,0,1,.884-1.661,1.607,1.607,0,0,1,1.854.3,2.018,2.018,0,0,0,1.677.452,2.156,2.156,0,0,0,.825-3.951,2.108,2.108,0,0,0-2.507.145,1.613,1.613,0,0,1-1.853.289,1.655,1.655,0,0,1-.879-1.664c.016-1.617.005-3.234.005-4.851V79.54H4.415c-.966,0-1.248.285-1.248,1.26q0,7.513,0,15.026v.566Zm13.646,3.186c-1.814,0-3.57-.011-5.326.005a1.649,1.649,0,0,1-1.663-.882,1.6,1.6,0,0,1,.295-1.854,2.027,2.027,0,0,0,.455-1.677,2.154,2.154,0,0,0-3.948-.831,2.1,2.1,0,0,0,.139,2.507,1.617,1.617,0,0,1,.293,1.853,1.652,1.652,0,0,1-1.661.883c-1.616-.016-3.233,0-4.849,0H3.167v.6q0,7.513,0,15.026c0,.968.285,1.253,1.256,1.253H20v-3.2a5.368,5.368,0,0,1-6.185-4.986,5.177,5.177,0,0,1,1.454-3.939,5.318,5.318,0,0,1,4.747-1.622Z" transform="translate(0 -65.617)" fill="#fe5c58" stroke="#fff" stroke-width="1"/>
        <path id="Path_105575" data-name="Path 105575" d="M241.769,22.044a1.986,1.986,0,0,1-2.124,1.174c-1.4-.054-2.8-.014-4.248-.014a5.375,5.375,0,0,1-1.7,4.847,5.133,5.133,0,0,1-3.967,1.369A5.372,5.372,0,0,1,224.87,23.2h-.929c-1.212,0-2.424,0-3.636,0a1.6,1.6,0,0,1-1.731-1.743c0-2.266.007-4.533-.006-6.8a1.612,1.612,0,0,1,2.716-1.354,2.1,2.1,0,0,0,2.459.2,2.133,2.133,0,0,0,1.033-2.2,2.086,2.086,0,0,0-1.618-1.75,2,2,0,0,0-1.834.4,1.612,1.612,0,0,1-1.9.3,1.675,1.675,0,0,1-.861-1.675c.015-2.249,0-4.5.006-6.746A1.618,1.618,0,0,1,220.379,0q8.563,0,17.126,0a4.049,4.049,0,0,1,4.181,3.287,1.256,1.256,0,0,0,.084.192Zm-3.163-2v-.553q0-7.539,0-15.079c0-.962-.287-1.243-1.266-1.243H221.779v3.2a5.372,5.372,0,0,1,6.173,4.893,5.161,5.161,0,0,1-1.414,4.006,5.323,5.323,0,0,1-4.777,1.648V20.04h.431c1.7,0,3.409-.011,5.113,0a1.542,1.542,0,0,1,1.577,1.85,2.7,2.7,0,0,1-.479.918,2.134,2.134,0,0,0-.109,2.427,2.1,2.1,0,0,0,2.161,1.009,2.127,2.127,0,0,0,1.776-1.657,2.208,2.208,0,0,0-.521-1.96,1.486,1.486,0,0,1-.193-1.723,1.54,1.54,0,0,1,1.456-.868c.316,0,.632,0,.949,0h4.685" transform="translate(-187.779 0)" fill="#fe5c58" stroke="#fff" stroke-width="1"/>
      </g>
    </g>
  </g>
</svg>
