<svg xmlns="http://www.w3.org/2000/svg" xmlns:xlink="http://www.w3.org/1999/xlink" width="60" height="60" viewBox="0 0 60 60">
  <defs>
    <clipPath id="clip-path">
      <rect id="Rectangle_12532" data-name="Rectangle 12532" width="54" height="53.176" fill="#fe5c58"/>
    </clipPath>
  </defs>
  <g id="Group_37647" data-name="Group 37647" transform="translate(-423 -1990)">
    <g id="Rectangle_12523" data-name="Rectangle 12523" transform="translate(423 1990)" fill="#fe5c58" stroke="#707070" stroke-width="1" opacity="0">
      <rect width="60" height="60" stroke="none"/>
      <rect x="0.5" y="0.5" width="59" height="59" fill="none"/>
    </g>
    <g id="Group_37648" data-name="Group 37648" transform="translate(426 1993.412)">
      <g id="Group_37648-2" data-name="Group 37648" clip-path="url(#clip-path)">
        <path id="Path_105338" data-name="Path 105338" d="M54,227.3a6.992,6.992,0,0,1-1.705,2.856c-2.573,3-5.156,5.993-7.673,9.04a7.628,7.628,0,0,1-5.824,2.842c-2.754.111-5.515.052-8.274.071-2.389.016-4.778.021-7.167.068-.8.016-1.594.15-2.391.229l-.172.221a2.047,2.047,0,0,1,.507.268,1.117,1.117,0,0,1,.019,1.821q-2.829,2.909-5.667,5.811c-.417.428-.831.858-1.251,1.284a1.115,1.115,0,0,1-1.857.032q-5.556-5.285-11.109-10.575c-.356-.339-.724-.667-1.067-1.02a1.021,1.021,0,0,1-.03-1.547q3.625-3.79,7.275-7.556a1.039,1.039,0,0,1,1.588.007,10,10,0,0,1,.716.7c.211.235.388.5.616.8.465-.559.8-.985,1.156-1.387a12.2,12.2,0,0,1,7.331-4.219,11.213,11.213,0,0,1,4.75.292,19.966,19.966,0,0,0,5.366.66q3.716-.009,7.432,0a4.03,4.03,0,0,1,3.83,1.891c.139-.128.278-.248.408-.377,1.85-1.827,3.689-3.666,5.551-5.481a4.588,4.588,0,0,1,6.926.615,9.483,9.483,0,0,1,.716,1.5Zm-41.794,6.72c.079.1.117.154.165.2,2.081,2.019,4.157,4.042,6.254,6.043a.946.946,0,0,0,.7.188,62.135,62.135,0,0,1,9.515-.479q4.691.036,9.382-.017a6.181,6.181,0,0,0,4.992-2.372c2.585-3.172,5.282-6.253,7.931-9.374a4.76,4.76,0,0,0,.474-.63,1.469,1.469,0,0,0-.2-1.886,2.482,2.482,0,0,0-3.577-.158q-3.331,3.265-6.626,6.568a1,1,0,0,0-.269.538,3.952,3.952,0,0,1-4.226,3.743c-1.915.01-3.83,0-5.745,0-.492,0-.985.014-1.475-.014a1.008,1.008,0,0,1-.96-.946,1.041,1.041,0,0,1,.823-1.126,2.77,2.77,0,0,1,.577-.032q3.452,0,6.905,0a1.762,1.762,0,0,0,1.628-.787,2.373,2.373,0,0,0,.1-2.414,1.8,1.8,0,0,0-1.845-.953c-2.583.016-5.166.006-7.748.006a20.814,20.814,0,0,1-5.575-.693,9.458,9.458,0,0,0-4.12-.283c-3.1.521-5.277,2.387-7.082,4.875M2.58,239.43l10.857,10.334,5.782-5.935L8.426,233.36,2.58,239.43" transform="translate(0.001 -199.153)" fill="#fe5c58"/>
        <path id="Path_105339" data-name="Path 105339" d="M69.61,9.972l1.871,1.606L73.37,9.949a6.076,6.076,0,0,1-1.177-5.16A5.863,5.863,0,0,1,74.36,1.335a6.113,6.113,0,0,1,7.771.12A6.2,6.2,0,0,1,82.955,10c.016.029.026.07.051.085a5.633,5.633,0,0,1,2.9,5.3c-.028,1.44,0,2.882-.007,4.322a2.5,2.5,0,0,1-2.569,2.682c-3.443.041-6.888.031-10.331-.008-.516-.006-1.028-.4-1.543-.4-.5,0-.993.394-1.493.4q-5.165.058-10.331,0c-.516-.006-1.028-.4-1.543-.4-.5,0-.993.4-1.492.4-3.443.039-6.888.049-10.331.009a2.494,2.494,0,0,1-2.574-2.674c-.01-1.493.008-2.987-.005-4.481a5.55,5.55,0,0,1,2.8-5.091c.056-.035.107-.079.161-.118a6.2,6.2,0,0,1,.921-8.663,6.14,6.14,0,0,1,8.66,8.6l1.881,1.612L60,9.955a6.08,6.08,0,0,1-1.108-5.432,5.938,5.938,0,0,1,2.318-3.355,6.124,6.124,0,0,1,7.64.365,6.189,6.189,0,0,1,.758,8.439m8.588,10.3c1.651,0,3.3-.006,4.953,0,.441,0,.641-.17.638-.623-.012-1.6.016-3.2-.015-4.795a3.359,3.359,0,0,0-2.492-3.164,1.071,1.071,0,0,0-.645.04,6.187,6.187,0,0,1-4.963-.006,1.063,1.063,0,0,0-.646-.03,3.418,3.418,0,0,0-2.488,3.39c-.019,1.493-.008,2.986,0,4.479,0,.6.107.7.709.705q2.476.005,4.953,0m-26.786,0c1.668,0,3.336-.006,5,0,.41,0,.632-.142.63-.575-.01-1.668.027-3.337-.035-5A3.276,3.276,0,0,0,54.594,11.7a1.139,1.139,0,0,0-.7.03,6.2,6.2,0,0,1-4.963-.01,1.06,1.06,0,0,0-.645-.028,3.354,3.354,0,0,0-2.468,3.179c-.023,1.562-.01,3.126-.008,4.688,0,.623.08.7.7.705q2.449.005,4.9,0m13.348,0c1.668,0,3.336-.006,5,0,.432,0,.652-.142.649-.608-.013-1.615.014-3.231-.017-4.846a3.342,3.342,0,0,0-2.515-3.14,1,1,0,0,0-.6.043,6.174,6.174,0,0,1-4.961.008,1.074,1.074,0,0,0-.645-.041,3.3,3.3,0,0,0-2.473,3.059c-.049,1.632-.013,3.265-.027,4.9,0,.446.18.63.631.626,1.65-.012,3.3,0,4.951,0m0-10.149A4,4,0,1,0,60.8,6.1a4.015,4.015,0,0,0,3.965,4.018m-9.34-3.984a4,4,0,1,0-4,3.984,4.01,4.01,0,0,0,4-3.984m18.75-.009a4,4,0,0,0,7.994.017,4,4,0,1,0-7.994-.017" transform="translate(-39.064 0)" fill="#fe5c58"/>
        <path id="Path_105340" data-name="Path 105340" d="M230.576,332.611a1.031,1.031,0,0,1-1.041,1.079,1.075,1.075,0,0,1-1.079-1.061,1.057,1.057,0,0,1,1.053-1.077,1.046,1.046,0,0,1,1.066,1.06" transform="translate(-204.273 -296.456)" fill="#fe5c58"/>
      </g>
    </g>
  </g>
</svg>
