<svg xmlns="http://www.w3.org/2000/svg" width="32" height="31.774" viewBox="0 0 32 31.774">
  <g id="Group_37961" data-name="Group 37961" transform="translate(-14.293 -16)">
    <g id="_OUTLINE" data-name="/ OUTLINE" transform="translate(14.293 16)">
      <path id="Path_105777" data-name="Path 105777" d="M44.069,30.45l2.224-1.177-1.5-4.571-2.493.34-1.71-2.328,1.11-2.267-3.924-2.821-1.834,1.741-2.774-.892L32.716,16H27.87l-.449,2.476-2.774.892-1.834-1.741-3.924,2.821L20,22.715l-1.71,2.328-2.493-.34-1.5,4.571,2.224,1.177v2.873L14.293,34.5l1.5,4.571,2.493-.34L20,41.059l-1.11,2.267,3.924,2.821,1.834-1.741,2.774.892.449,2.476h4.847l.449-2.476,2.774-.892,1.834,1.741L41.7,43.326l-1.11-2.267,1.71-2.328,2.493.34,1.5-4.571-2.224-1.177ZM44.06,37.9,41.818,37.6l-2.463,3.352,1,2.039-2.486,1.787-1.654-1.57-3.976,1.278-.4,2.231H28.754l-.4-2.231-3.976-1.278-1.654,1.57-2.486-1.787,1-2.039L18.768,37.6l-2.243.306-.948-2.884,2-1.057V29.813l-2-1.057.948-2.884,2.243.306,2.463-3.352-1-2.039L22.719,19l1.654,1.57,3.976-1.278.4-2.231h3.078l.4,2.231,3.976,1.278L37.867,19l2.486,1.787-1,2.039,2.463,3.352,2.243-.306.948,2.884-2,1.057v4.149l2,1.057Z" transform="translate(-14.293 -16)"/>
      <path id="Path_105778" data-name="Path 105778" d="M99.165,88a11.164,11.164,0,1,0,11.165,11.164A11.177,11.177,0,0,0,99.165,88Zm-10.1,11.164a10.1,10.1,0,0,1,.226-2.129l4.118,0a1.585,1.585,0,0,0,1.128-.467l.972-.972a.528.528,0,0,1,.376-.156h2L96.4,96.928a1.659,1.659,0,1,0,2.347,2.347l.357-.357a1.6,1.6,0,0,1,2.256,0l2.658,2.657a1.611,1.611,0,0,0-.219.183l-.908.908-2.814-2.814-.752.752,2.282,2.282H99.386l-1.439-1.439-.752.752.687.687h-2a.528.528,0,0,1-.376-.156l-.972-.972a1.585,1.585,0,0,0-1.128-.467H89.289a10.1,10.1,0,0,1-.226-2.127Zm10.1,10.1a10.12,10.12,0,0,1-9.585-6.911h3.828a.528.528,0,0,1,.376.156l.972.972a1.585,1.585,0,0,0,1.128.467h6.563a1.585,1.585,0,0,0,1.128-.467l.972-.972a.528.528,0,0,1,.376-.156h3.828A10.119,10.119,0,0,1,99.165,109.265Zm10.1-10.1a10.1,10.1,0,0,1-.226,2.129l-3.807,0-3.126-3.125a2.659,2.659,0,0,0-3.759,0l-.357.357a.6.6,0,1,1-.843-.843l2.237-2.237h3.061a.528.528,0,0,1,.376.156l.972.972a1.585,1.585,0,0,0,1.128.467h4.119A10.1,10.1,0,0,1,109.267,99.164Zm-4.345-3.19a.528.528,0,0,1-.376-.156l-.972-.972a1.585,1.585,0,0,0-1.128-.467H95.884a1.585,1.585,0,0,0-1.128.467l-.972.972a.528.528,0,0,1-.376.156H89.58a10.1,10.1,0,0,1,19.171,0Z" transform="translate(-83.165 -83.277)"/>
      <path id="Path_105779" data-name="Path 105779" d="M145.926,319.931a7.9,7.9,0,0,1-6.818-3.936l-.908.526a8.926,8.926,0,0,0,12.188,3.266l-.526-.908A7.868,7.868,0,0,1,145.926,319.931Z" transform="translate(-129.951 -296.102)"/>
      <path id="Path_105780" data-name="Path 105780" d="M331,339.233l.656.819a9,9,0,0,0,.9-.831l-.762-.722A7.939,7.939,0,0,1,331,339.233Z" transform="translate(-310.022 -317.141)"/>
      <path id="Path_105781" data-name="Path 105781" d="M200.4,120a8.836,8.836,0,0,0-3.9.9l.46.943a7.8,7.8,0,0,1,3.443-.791,7.9,7.9,0,0,1,6.818,3.936l.908-.526A8.954,8.954,0,0,0,200.4,120Z" transform="translate(-184.37 -113.103)"/>
      <path id="Path_105782" data-name="Path 105782" d="M162.5,144.443l.722.762a7.928,7.928,0,0,1,.984-.793l-.591-.867A8.976,8.976,0,0,0,162.5,144.443Z" transform="translate(-152.683 -135.097)"/>
    </g>
  </g>
</svg>
