<svg xmlns="http://www.w3.org/2000/svg" width="32" height="32" viewBox="0 0 32 32">
  <g id="Group_37994" data-name="Group 37994" transform="translate(-1 -1)">
    <g id="Group_37994-2" data-name="Group 37994" transform="translate(1 1)">
      <path id="Path_105949" data-name="Path 105949" d="M29.9,18.306V8.185a3.611,3.611,0,1,0-4.129-3.572H1V25.258H16.51A8.253,8.253,0,1,0,29.9,18.306ZM29.387,2.032a2.581,2.581,0,1,1-2.581,2.581A2.584,2.584,0,0,1,29.387,2.032ZM2.032,5.645H25.926A3.611,3.611,0,0,0,26.5,6.773L23.341,9.93a1.494,1.494,0,0,0-1.327,0l-1.04-1.04a1.534,1.534,0,0,0,.155-.664,1.548,1.548,0,1,0-3.1,0,1.523,1.523,0,0,0,.155.663L15.6,11.477a1.534,1.534,0,0,0-.664-.155,1.548,1.548,0,1,0,1.548,1.548,1.523,1.523,0,0,0-.155-.663l2.588-2.588a1.5,1.5,0,0,0,1.327,0l1.04,1.04a1.534,1.534,0,0,0-.155.664,1.548,1.548,0,0,0,3.1,0,1.523,1.523,0,0,0-.155-.663L27.228,7.5a3.591,3.591,0,0,0,1.643.682V17.6a8.208,8.208,0,0,0-10.323,1.7V17h-3.1v6.194h1.183a8.28,8.28,0,0,0-.124,1.032H2.032Zm20.645,5.161a.516.516,0,1,1-.516.516A.517.517,0,0,1,22.677,10.806ZM19.065,8.226a.516.516,0,1,1,.516.516A.517.517,0,0,1,19.065,8.226Zm-3.613,4.645a.516.516,0,1,1-.516-.516A.517.517,0,0,1,15.452,12.871Zm9.29,16a4.129,4.129,0,1,1,4.129-4.129A4.134,4.134,0,0,1,24.742,28.871Zm-7.226-8.118a8.2,8.2,0,0,0-.614,1.409h-.419V18.032h1.032Zm6.71-3.21v2.065a5.151,5.151,0,0,0-4.185,7.253l-1.79,1.034a7.2,7.2,0,0,1,5.976-10.351Zm.516,14.425a7.222,7.222,0,0,1-5.981-3.177l1.8-1.038a5.144,5.144,0,0,0,8.366,0l1.8,1.038A7.222,7.222,0,0,1,24.742,31.968Zm6.492-4.074-1.79-1.034a5.151,5.151,0,0,0-4.185-7.253V17.542a7.2,7.2,0,0,1,5.976,10.351Z" transform="translate(-1 -1)"/>
      <path id="Path_105950" data-name="Path 105950" d="M44.126,41a3.126,3.126,0,1,0,3.126,3.126A3.129,3.129,0,0,0,44.126,41Zm0,5.21a2.084,2.084,0,1,1,2.084-2.084A2.086,2.086,0,0,1,44.126,46.21Z" transform="translate(-20.402 -20.402)"/>
      <path id="Path_105951" data-name="Path 105951" d="M5,12H6.042v1.042H5Z" transform="translate(-2.916 -6.324)"/>
      <path id="Path_105952" data-name="Path 105952" d="M9,12h7.294v1.042H9Z" transform="translate(-4.832 -6.324)"/>
      <path id="Path_105953" data-name="Path 105953" d="M5,16H6.042v1.042H5Z" transform="translate(-2.916 -8.261)"/>
      <path id="Path_105954" data-name="Path 105954" d="M9,16h7.294v1.042H9Z" transform="translate(-4.832 -8.261)"/>
      <path id="Path_105955" data-name="Path 105955" d="M5,20H6.042v1.042H5Z" transform="translate(-2.916 -10.197)"/>
      <path id="Path_105956" data-name="Path 105956" d="M9,20h7.294v1.042H9Z" transform="translate(-4.832 -10.197)"/>
      <path id="Path_105957" data-name="Path 105957" d="M5,24H6.042v1.042H5Z" transform="translate(-2.916 -12.133)"/>
      <path id="Path_105958" data-name="Path 105958" d="M9,24h7.294v1.042H9Z" transform="translate(-4.832 -12.133)"/>
      <path id="Path_105959" data-name="Path 105959" d="M5,39.21H8.126V34H5Zm1.042-4.168H7.084v3.126H6.042Z" transform="translate(-2.916 -16.999)"/>
      <path id="Path_105960" data-name="Path 105960" d="M13,40.168h3.126V36H13Zm1.042-3.126h1.042v2.084H14.042Z" transform="translate(-6.813 -17.961)"/>
      <path id="Path_105961" data-name="Path 105961" d="M21,36.336h3.126V28H21Zm1.042-7.294h1.042v6.252H22.042Z" transform="translate(-10.688 -14.111)"/>
    </g>
  </g>
</svg>
