<svg id="Group_37668" data-name="Group 37668" xmlns="http://www.w3.org/2000/svg" xmlns:xlink="http://www.w3.org/1999/xlink" width="28" height="22.902" viewBox="0 0 28 22.902">
  <defs>
    <clipPath id="clip-path">
      <rect id="Rectangle_12543" data-name="Rectangle 12543" width="28" height="22.902" fill="none"/>
    </clipPath>
  </defs>
  <g id="Group_37666" data-name="Group 37666" clip-path="url(#clip-path)">
    <path id="Path_105396" data-name="Path 105396" d="M1.294,17.179h13.2c.489,0,.771.231.774.629a.607.607,0,0,1-.553.628,3.3,3.3,0,0,1-.357.009H1.259a5.434,5.434,0,0,0,.152.679A1.847,1.847,0,0,0,3.178,20.35c1.292.012,2.584,0,3.876,0h7.3a2.789,2.789,0,0,1,.3.006.636.636,0,0,1,0,1.27,2.118,2.118,0,0,1-.238.006q-5.53,0-11.061,0A3.187,3.187,0,0,1,.082,19.107,3.914,3.914,0,0,1,0,18.279Q0,10.81,0,3.341A3.19,3.19,0,0,1,3.337,0Q13.369,0,23.4,0a3.171,3.171,0,0,1,3.315,3.291c.005.775,0,1.55,0,2.326,0,.456-.253.739-.638.734s-.626-.291-.627-.749c0-.775,0-1.55,0-2.326A1.916,1.916,0,0,0,23.415,1.27q-3.891-.006-7.781,0-6.141,0-12.283,0A1.918,1.918,0,0,0,1.337,2.738a2.277,2.277,0,0,0-.052.531q0,6.828,0,13.656c0,.069.006.139.011.253" transform="translate(0 -0.001)"/>
    <path id="Path_105397" data-name="Path 105397" d="M212.134,88.952v-.311q0-3.861,0-7.723c0-.762.358-1.015,1.065-.753q2.679.992,5.358,1.985c.477.177.583.335.584.843q0,1.61,0,3.22c0,.7-.362.961-1.016.743l-2.484-.829c-.093-.031-.187-.057-.316-.1v.377c0,2.087.006,4.174,0,6.262a3.819,3.819,0,1,1-4.414-3.657c.388-.056.787-.042,1.225-.062m1.283-7.349V87.84c0,.636,0,1.272,0,1.908a.651.651,0,0,1-.953.671c-.056-.02-.111-.044-.167-.063a2.542,2.542,0,1,0,1.746,2.334c.006-2.445,0-4.89,0-7.335,0-.72.353-.979,1.027-.756q1.229.407,2.456.817c.1.033.2.059.332.1,0-.738.007-1.432-.01-2.126,0-.076-.126-.185-.217-.219-1.02-.387-2.045-.763-3.068-1.142l-1.147-.424" transform="translate(-191.142 -73.688)"/>
    <path id="Path_105398" data-name="Path 105398" d="M115.853,62.587c0-1.2,0-2.405,0-3.608a1.21,1.21,0,0,1,1.9-1.1q3.151,1.81,6.293,3.633a1.215,1.215,0,0,1,0,2.217q-3.143,1.823-6.293,3.632a1.207,1.207,0,0,1-1.9-1.1c0-1.222,0-2.445,0-3.667m7.571.03-6.282-3.626v7.254l6.282-3.628" transform="translate(-106.623 -53.073)"/>
  </g>
</svg>
