<svg xmlns="http://www.w3.org/2000/svg" xmlns:xlink="http://www.w3.org/1999/xlink" width="60" height="60" viewBox="0 0 60 60">
  <defs>
    <clipPath id="clip-path">
      <rect id="Rectangle_12537" data-name="Rectangle 12537" width="54" height="53.998" stroke="#fff" stroke-width="0.4"/>
    </clipPath>
  </defs>
  <g id="Group_37659" data-name="Group 37659" transform="translate(-423 -1990)">
    <g id="Rectangle_12523" data-name="Rectangle 12523" transform="translate(423 1990)" stroke="#707070" stroke-width="1" opacity="0">
      <rect width="60" height="60" stroke="none"/>
      <rect x="0.5" y="0.5" width="59" height="59" fill="none"/>
    </g>
    <g id="Group_37660" data-name="Group 37660" transform="translate(426 1993)">
      <g id="Group_37660-2" data-name="Group 37660" clip-path="url(#clip-path)">
        <path id="Path_105371" data-name="Path 105371" d="M27.007,0q7.058,0,14.117,0A2.717,2.717,0,0,1,44.1,2.963c0,2.606.01,5.212-.01,7.818a.573.573,0,0,0,.482.661,13.475,13.475,0,0,1,.124,25.67.732.732,0,0,0-.608.855c.022,4.331.014,8.661.013,12.992A2.731,2.731,0,0,1,41.085,54Q27,54,12.907,54A2.726,2.726,0,0,1,9.9,51q0-6.58.008-13.161a.608.608,0,0,0-.507-.7,13.471,13.471,0,0,1-.069-25.664.7.7,0,0,0,.577-.82C9.892,8.089,9.9,5.521,9.9,2.953A2.715,2.715,0,0,1,12.833,0Q19.92,0,27.007,0m15.27,37.689a13.581,13.581,0,0,1-14.326-8.377,3.054,3.054,0,0,1-.98.355,2.525,2.525,0,0,1-.865-.362q-4.313,9.068-14.359,8.444v9.018H42.276ZM10.423,26.464a11.881,11.881,0,0,1-.5-2.116c-.073-1.515-.037-3.036-.019-4.555a2.671,2.671,0,0,1,2.678-2.69c1.762-.019,3.525-.01,5.287,0A.907.907,0,0,1,18.9,18.1c.013.581.018,1.163,0,1.743a2.575,2.575,0,0,1-1.38,2.294.7.7,0,0,0-.422.738c.016,1.211.151,2.45-.677,3.525,3.134,1.31,4.466,3.7,4.286,7.025a1.111,1.111,0,0,0,.215-.09,11.357,11.357,0,0,0,3.63-5.241.737.737,0,0,0-.192-.6c-.867-.883-1.786-1.714-2.642-2.607a3.506,3.506,0,0,1,1.694-5.87c.142-.037.281-.081.427-.123A11.671,11.671,0,0,0,1.848,23.339c-.4,3.67,2.006,9.113,4.459,10.036-.185-3.29,1.151-5.657,4.117-6.911M47.748,33.4a11.543,11.543,0,0,0,4.079-12.049A11.772,11.772,0,0,0,41.132,12.6a11.528,11.528,0,0,0-10.94,6.295,1.523,1.523,0,0,0,.207.077,3.529,3.529,0,0,1,1.678,6.134c-.824.793-1.632,1.6-2.463,2.387a.546.546,0,0,0-.157.685,11.475,11.475,0,0,0,2.129,3.672c.5.563,1.052,1.074,1.581,1.608l.143-.06a6.538,6.538,0,0,1,3.579-6.71A3.754,3.754,0,0,1,36,24.381c-.008-.975-.02-1.95,0-2.924a4.407,4.407,0,0,1,3.648-4.25,14.834,14.834,0,0,1,2.408-.1A4.5,4.5,0,0,1,46.8,21.83c0,2.081.011,4.162-.005,6.242a3.681,3.681,0,0,0,.367,1.834,4.574,4.574,0,0,1,.428,1.443c.1.674.11,1.362.159,2.053M42.269,7.2c-1.971,0-3.888.089-5.792-.03a3.3,3.3,0,0,0-3.236,1.358,1.261,1.261,0,0,1-1.138.479c-2.943-.014-5.888-.087-8.827.027a3.657,3.657,0,0,1-3.493-1.479.945.945,0,0,0-.879-.361c-2.193.014-4.386.007-6.579.007h-.578v3.7c.138-.007.232-.007.324-.017a13.416,13.416,0,0,1,13.668,7.762,3.472,3.472,0,0,0,1.243,1.362,3.2,3.2,0,0,0,1.409-1.644,13.245,13.245,0,0,1,8.237-6.994,13.035,13.035,0,0,1,5.641-.457ZM42.3,5.4c0-.795,0-1.522,0-2.25,0-1.109-.241-1.35-1.35-1.35H13.057c-.187,0-.422-.064-.553.023-.289.193-.723.445-.748.707-.09.939-.035,1.892-.035,2.869,2.138,0,4.222.094,6.293-.031a3.8,3.8,0,0,1,3.666,1.5,1.068,1.068,0,0,0,.764.316c2.662.023,5.326-.049,7.984.043a2.907,2.907,0,0,0,2.748-1.173,1.716,1.716,0,0,1,1.569-.668c2.491.032,4.983.013,7.556.013M11.754,48.616a.829.829,0,0,0-.044.157q-.006,1.04-.007,2.079c0,1.1.242,1.345,1.354,1.345h27.88a3.753,3.753,0,0,0,.561-.012.815.815,0,0,0,.778-.763c.04-.928.012-1.858.012-2.805Zm1.771-20.743V27.9c-.281,0-.562,0-.843,0a4.463,4.463,0,0,0-4.53,3.933c-.1.793-.021,1.61-.056,2.414a.577.577,0,0,0,.409.631A11.724,11.724,0,0,0,18.255,35a.886.886,0,0,0,.658-1.043c-.055-.5-.007-1.011-.013-1.517a4.467,4.467,0,0,0-3.808-4.468,13.952,13.952,0,0,0-1.567-.094M41.4,27.9c-.681,0-1.3-.012-1.909,0a4.411,4.411,0,0,0-4.285,3.665c-.136.822-.045,1.68-.118,2.516a.767.767,0,0,0,.575.866,11.629,11.629,0,0,0,9.325.144c.913-.369.911-.373.911-1.36V31.5c-1.192,0-2.22,0-3.248,0-.983,0-1.25-.274-1.252-1.276,0-.747,0-1.494,0-2.32M27,27.542c1.335-1.3,2.625-2.552,3.9-3.816a1.677,1.677,0,0,0,.129-2.454,1.822,1.822,0,0,0-2.577-.081c-.238.211-.455.446-.688.663a.943.943,0,0,1-1.515.013c-.289-.267-.552-.565-.863-.8a1.815,1.815,0,0,0-2.443.238,1.632,1.632,0,0,0,.031,2.288c1.305,1.315,2.643,2.6,4.025,3.952m17.992,2.135c0-2.811.024-5.562-.014-8.313a2.442,2.442,0,0,0-1.229-2.036,6.042,6.042,0,0,0-4.713.016A2.42,2.42,0,0,0,37.989,20.7c1.381,0,2.672,0,3.964,0,.963,0,1.247.279,1.247,1.225q0,3.568,0,7.136v.617ZM11.7,22.522c0,.661-.02,1.26,0,1.857a1.8,1.8,0,0,0,1.633,1.712,1.754,1.754,0,0,0,1.91-1.455,16.943,16.943,0,0,0,.017-2.115Zm26.1,0c0,.677-.033,1.312.008,1.942a1.79,1.79,0,0,0,3.556.085c.064-.662.012-1.335.012-2.027ZM17.093,18.905c-1.551,0-3.06-.017-4.568.01a.811.811,0,0,0-.808.789,8.692,8.692,0,0,0-.007.987c1.55,0,3.059.017,4.567-.01a.814.814,0,0,0,.809-.79,8.578,8.578,0,0,0,.007-.987" transform="translate(0 0)" stroke="#fff" stroke-width="0.4"/>
        <path id="Path_105372" data-name="Path 105372" d="M149.143,256.881c-.881,0-1.761.008-2.641,0a2.7,2.7,0,1,1,.005-5.395q2.641-.016,5.283,0a2.7,2.7,0,1,1-.005,5.395c-.88.01-1.761,0-2.641,0m-.054-1.8c.862,0,1.725.005,2.587,0,.66-.005,1.065-.355,1.064-.9s-.4-.895-1.065-.9q-2.531-.008-5.061,0c-.664,0-1.064.35-1.064.9s.4.892,1.065.9c.825.007,1.65,0,2.474,0" transform="translate(-122.144 -213.683)" stroke="#fff" stroke-width="0.4"/>
        <path id="Path_105373" data-name="Path 105373" d="M176.348,25.724c-.562,0-1.125.012-1.687,0a.9.9,0,1,1,0-1.79q1.743-.022,3.486,0a.9.9,0,1,1,0,1.79c-.6.017-1.2,0-1.8,0" transform="translate(-147.602 -20.325)" stroke="#fff" stroke-width="0.4"/>
        <path id="Path_105374" data-name="Path 105374" d="M150.652,23.985a.9.9,0,1,1-.9.893.9.9,0,0,1,.9-.893" transform="translate(-127.249 -20.38)" stroke="#fff" stroke-width="0.4"/>
      </g>
    </g>
  </g>
</svg>
