<svg width="512" height="512" viewBox="0 0 512 512" fill="none" xmlns="http://www.w3.org/2000/svg">
<path d="M410 414.138C405.858 414.138 402.5 417.496 402.5 421.638V467C402.5 483.542 389.042 497 372.5 497H139.5C122.958 497 109.5 483.542 109.5 467V429.224H254.417C269.581 429.224 281.917 416.888 281.917 401.724V300.714C281.917 285.55 269.581 273.214 254.417 273.214H231.723C227.581 273.214 224.223 276.572 224.223 280.714C224.223 284.856 227.581 288.214 231.723 288.214H254.417C261.31 288.214 266.917 293.821 266.917 300.714V401.723C266.917 408.616 261.31 414.223 254.417 414.223H106.982C98.458 414.223 90.402 417.5 84.298 423.45L61.15 446.012C61.027 446.131 60.913 446.245 60.606 446.115C60.3 445.986 60.3 445.825 60.3 445.655V300.715C60.3 293.822 65.907 288.215 72.8 288.215H196.83C200.972 288.215 204.33 284.857 204.33 280.715C204.33 276.573 200.972 273.215 196.83 273.215H109.5V124.405C109.5 120.263 106.142 116.905 102 116.905C97.858 116.905 94.5 120.263 94.5 124.405V273.215H72.8C57.636 273.215 45.3 285.551 45.3 300.715V445.655C45.3 451.903 49.02 457.509 54.777 459.936C56.729 460.759 58.778 461.16 60.81 461.16C64.77 461.16 68.662 459.637 71.62 456.754L94.5 434.452V467C94.5 491.813 114.687 512 139.5 512H372.5C397.313 512 417.5 491.813 417.5 467V421.638C417.5 417.496 414.142 414.138 410 414.138V414.138Z" fill="black"/>
<path d="M269 45C273.142 45 276.5 41.642 276.5 37.5C276.5 33.358 273.142 30 269 30H219C214.858 30 211.5 33.358 211.5 37.5C211.5 41.642 214.858 45 219 45H269Z" fill="black"/>
<path d="M459.2 151.351C463.342 151.351 466.7 147.993 466.7 143.851V117.298C466.7 102.134 454.364 89.798 439.2 89.798H417.5V45C417.5 20.187 397.313 0 372.5 0H139.5C114.687 0 94.5 20.187 94.5 45V89.425C94.5 93.567 97.858 96.925 102 96.925C106.142 96.925 109.5 93.567 109.5 89.425V45C109.5 28.458 122.958 15 139.5 15H372.5C389.042 15 402.5 28.458 402.5 45V89.798H257.583C242.419 89.798 230.083 102.134 230.083 117.298V218.308C230.083 233.472 242.419 245.808 257.583 245.808H402.5V386.745C402.5 390.887 405.858 394.245 410 394.245C414.142 394.245 417.5 390.887 417.5 386.745V251.036L440.381 273.338C443.339 276.22 447.229 277.743 451.19 277.743C453.221 277.743 455.272 277.342 457.223 276.519C462.98 274.091 466.7 268.485 466.7 262.238V178.915C466.7 174.773 463.342 171.415 459.2 171.415C455.058 171.415 451.7 174.773 451.7 178.915V262.238C451.7 262.408 451.7 262.57 451.394 262.698C451.086 262.828 450.972 262.714 450.851 262.596L427.703 240.033C421.599 234.083 413.543 230.807 405.019 230.807H257.583C250.69 230.807 245.083 225.2 245.083 218.307V117.297C245.083 110.404 250.69 104.797 257.583 104.797H439.2C446.093 104.797 451.7 110.404 451.7 117.297V143.85C451.7 147.993 455.058 151.351 459.2 151.351V151.351Z" fill="black"/>
<path d="M351.708 128.035C345.711 122.774 337.979 119.799 329.753 119.799C311.3 119.799 296.286 134.812 296.286 153.266C296.286 161.961 299.398 169.646 305.271 175.473L341.192 211.342C344.091 214.237 347.899 215.684 351.707 215.684C355.515 215.684 359.323 214.237 362.222 211.343L398.097 175.521C398.238 175.38 398.367 175.244 398.52 175.072C401.111 172.143 407.136 164.209 407.128 153.806C407.115 135.055 392.104 119.8 373.666 119.8C365.439 119.798 357.706 122.773 351.708 128.035V128.035ZM392.13 153.815C392.134 159.108 388.591 163.635 387.387 165.018L351.709 200.643L315.854 164.84C312.823 161.833 311.287 157.939 311.287 153.265C311.287 143.082 319.572 134.798 329.754 134.798C336.116 134.798 341.947 138.043 345.353 143.479C346.725 145.667 349.125 146.997 351.708 146.997C354.291 146.997 356.692 145.668 358.063 143.479C361.469 138.043 367.302 134.798 373.667 134.798C383.668 134.798 392.123 143.507 392.13 153.815Z" fill="black"/>
<path d="M185.569 303.214C177.34 303.214 169.607 306.189 163.61 311.45C157.613 306.189 149.881 303.214 141.655 303.214C123.202 303.214 108.189 318.227 108.188 336.681C108.188 345.377 111.301 353.062 117.174 358.888L153.095 394.757C155.994 397.652 159.802 399.099 163.611 399.099C167.419 399.099 171.227 397.652 174.126 394.757L210.001 358.935C212.774 355.989 218.682 348.152 219.032 337.221C219.018 318.469 204.007 303.214 185.569 303.214V303.214ZM199.283 348.438L163.61 384.059L127.755 348.256C124.724 345.25 123.188 341.356 123.188 336.682C123.188 326.499 131.473 318.214 141.655 318.214C148.017 318.214 153.848 321.459 157.254 326.895C158.626 329.083 161.026 330.413 163.609 330.413C166.192 330.413 168.593 329.084 169.964 326.895C173.37 321.459 179.203 318.214 185.568 318.214C195.568 318.214 204.023 326.922 204.029 337.231C204.034 342.486 200.542 346.986 199.283 348.438V348.438Z" fill="black"/>
<path d="M294 45C298.142 45 301.5 41.6421 301.5 37.5C301.5 33.3579 298.142 30 294 30C289.858 30 286.5 33.3579 286.5 37.5C286.5 41.6421 289.858 45 294 45Z" fill="black"/>
</svg>
