<svg xmlns="http://www.w3.org/2000/svg" xmlns:xlink="http://www.w3.org/1999/xlink" width="60" height="60" viewBox="0 0 60 60">
  <defs>
    <clipPath id="clip-path">
      <rect id="Rectangle_12533" data-name="Rectangle 12533" width="54" height="41.298" fill="#fe5c58"/>
    </clipPath>
  </defs>
  <g id="Group_37651" data-name="Group 37651" transform="translate(-423 -1990)">
    <g id="Rectangle_12523" data-name="Rectangle 12523" transform="translate(423 1990)" fill="#fe5c58" stroke="#707070" stroke-width="1" opacity="0">
      <rect width="60" height="60" stroke="none"/>
      <rect x="0.5" y="0.5" width="59" height="59" fill="none"/>
    </g>
    <g id="Group_37650" data-name="Group 37650" transform="translate(426 1999)">
      <g id="Group_37650-2" data-name="Group 37650" clip-path="url(#clip-path)">
        <path id="Path_105341" data-name="Path 105341" d="M54,40.788c-.28.326-.565.642-1.063.445s-.522-.6-.521-1.045c.005-1.74-.016-3.481.009-5.22a1.982,1.982,0,0,0-1.249-2c-.669-.31-1.33-.639-1.975-.995-.3-.169-.472-.086-.723.116a7.53,7.53,0,0,1-1.833,1.279,3.159,3.159,0,0,1-3.442-.8c-.887-.819-.891-.816-1.972-.15a.931.931,0,0,0,.123.245,4.238,4.238,0,0,1,.814,2.568c.018,1.687.018,3.375-.008,5.062a1.194,1.194,0,0,1-.3.791.966.966,0,0,1-.764.132c-.394-.091-.5-.446-.5-.829,0-1.564-.044-3.13.012-4.693a2.994,2.994,0,0,0-2.1-3.207c-1.336-.523-2.633-1.146-3.973-1.736a8.449,8.449,0,0,1-15.061-.011c-1.6.721-3.205,1.389-4.758,2.157a2.445,2.445,0,0,0-1.3,2.368c0,1.617,0,3.234,0,4.851a3.226,3.226,0,0,1-.022.526.662.662,0,0,1-.719.628,1.43,1.43,0,0,1-.754-.52c-.113-.131-.083-.4-.084-.61-.006-1.547.011-3.094-.007-4.64A4.377,4.377,0,0,1,13.4,31.861a.772.772,0,0,0,.1-.157c-.431-.144-.837-.3-1.255-.408a.508.508,0,0,0-.4.136c-.546.522-1.089,1.05-1.6,1.606a.97.97,0,0,0-.21.6c-.015,2.162-.009,4.324-.01,6.486a2.8,2.8,0,0,1-.023.526.668.668,0,0,1-.732.615,1.437,1.437,0,0,1-.747-.532c-.111-.133-.077-.4-.078-.611,0-2.144.008-4.289-.017-6.433a1.3,1.3,0,0,0-.313-.77A17.717,17.717,0,0,0,6.707,31.5a.678.678,0,0,0-.532-.159c-1.051.277-2.095.585-3.137.9a1.809,1.809,0,0,0-1.452,1.931c-.007,1.986,0,3.972,0,5.959,0,.192.047.442-.052.564a1.522,1.522,0,0,1-.722.574A.669.669,0,0,1,.041,40.7,2.133,2.133,0,0,1,0,40.174q0-2.979,0-5.959a3.359,3.359,0,0,1,2.612-3.5c.908-.271,1.817-.54,2.734-.777a.661.661,0,0,0,.582-.723,1.538,1.538,0,0,0-.585-1.343,5.889,5.889,0,0,1-1.957-4.555,4.97,4.97,0,0,0-.45-2.173,4.879,4.879,0,0,1,4.037-6.706c2.42-.119,4.848-.064,7.272-.087.226,0,.453,0,.754,0,.063-.758.131-1.484.184-2.211a15.125,15.125,0,0,1,1.359-5.648A10.966,10.966,0,0,1,27.13,0a10.887,10.887,0,0,1,8.589,3.8A12.707,12.707,0,0,1,38.7,11.036c.252,2.428.445,4.863.671,7.365.091-.111.15-.18.2-.251.58-.741,1.165-1.478,1.735-2.227a.732.732,0,0,0,.194-.477,3.79,3.79,0,0,1,3.332-4.39,4.223,4.223,0,0,1,4.472,1.988,3.13,3.13,0,0,1,.4,2.23.657.657,0,0,0,.25.723,6.625,6.625,0,0,1,1.66,7.995,4.049,4.049,0,0,0-.283.841,5.6,5.6,0,0,1-1.956,3.226,1.273,1.273,0,0,0-.464,1.022,1.188,1.188,0,0,0,.891,1.455c.576.2,1.091.565,1.657.8A3.92,3.92,0,0,1,54,34.144ZM32.027,26.107c0,.316,0,.633,0,.949.009.835,1.274,1.864,2.064,1.574,1.477-.542,2.916-1.188,4.371-1.791.285-.118.335-.3.3-.62-.389-3.1-.769-6.2-1.112-9.309C37.4,14.729,37.3,12.53,37,10.358a10.546,10.546,0,0,0-3.1-6.2C29.691.017,19.749.228,17.354,8.9a37.1,37.1,0,0,0-.779,5.567c-.458,3.923-.881,7.851-1.337,11.775-.034.3.007.465.275.581,1.171.511,2.35,1,3.506,1.548a2.308,2.308,0,0,0,2.238-.13,1.131,1.131,0,0,0,.72-1.1c-.017-.72.018-1.442-.018-2.161a.887.887,0,0,0-.3-.6A9.36,9.36,0,0,1,17.742,16.8a2.928,2.928,0,0,1,1.452-2.881,4.568,4.568,0,0,0,1.94-2.288c.227-.572.657-.773,1.111-.576.433.188.554.6.346,1.169a5.5,5.5,0,0,1-2.355,2.884,1.645,1.645,0,0,0-.9,1.825c.029.191.032.385.047.578a7.654,7.654,0,0,0,14.071,3.457,8.813,8.813,0,0,0,1.155-5.823,2.1,2.1,0,0,0-.714-1.219,13.345,13.345,0,0,0-5.1-2.761c-1.7-.484-3.451-.773-5.18-1.147-.567-.123-.834-.461-.743-.948.083-.445.458-.671,1.009-.6.366.046.731.1,1.1.15a21.164,21.164,0,0,1,8.513,3.026c.413.264.8.573,1.2.858a3.822,3.822,0,0,1,1.584,3.266c.088,3.151-.756,5.933-3.226,8a2.15,2.15,0,0,0-1.014,2.333M14.447,15.934c-1.037,0-1.913-.007-2.789,0-1.528.015-3.061-.034-4.582.076a3.266,3.266,0,0,0-2.7,4.429,7.3,7.3,0,0,1,.609,2.937,4.287,4.287,0,0,0,2.7,4.161,4.179,4.179,0,0,0,5.8-3.727,15.037,15.037,0,0,1,.641-3.571,20.981,20.981,0,0,0,.322-4.307m30.091,5.28c-.28.392-.507.745-.77,1.069a.809.809,0,0,1-1.191.231c-.37-.3-.365-.733-.04-1.216a4.411,4.411,0,0,0,.565-1.052c.225-.685.519-.926,1.191-.741a15.545,15.545,0,0,1,4.679,1.988c.5.341.976.726,1.485,1.107a4.735,4.735,0,0,0-.162-3.563,5.117,5.117,0,1,0-9.237,4.389,4.511,4.511,0,0,1,.375,1.087,4.278,4.278,0,0,0,4.115,3.368,4.226,4.226,0,0,0,4.151-3.17.835.835,0,0,0-.139-.646c-1.333-1.569-3.185-2.218-5.021-2.852M20.985,30.084a6.769,6.769,0,0,0,12.045.072c-.059-.064-.077-.1-.1-.112-.207-.1-.411-.2-.624-.281a2.662,2.662,0,0,1-1.861-2.852c.021-.465,0-.932,0-1.482a9.53,9.53,0,0,1-6.756.051,19.783,19.783,0,0,1-.429,2.917c-.31,1.041-1.405,1.273-2.274,1.686m15.182-.349a14.956,14.956,0,0,1,1.9.857,2.876,2.876,0,0,0,3.378-.054c.613-.384.988-.7.839-1.434-.053-.262-.024-.6-.176-.773-.542-.629-1.146-1.205-1.7-1.776a1.879,1.879,0,0,1-1.27,1.709c-.974.472-1.941.961-2.965,1.47M13.752,27.41c-.318.279-.651.562-.972.857a1.052,1.052,0,0,0,.294,1.626c.716.233,1.443.432,2.166.641.167.048.37.154.5.1.706-.276,1.4-.594,2.173-.933a12.855,12.855,0,0,1-4.165-2.292m30.169,1.947a3.252,3.252,0,0,0-.176,1.373,2.371,2.371,0,0,0,1,1.01,1.7,1.7,0,0,0,1.841-.045c1.1-.579.814-1.525.732-2.338Zm-.862-14.5a6.843,6.843,0,0,1,5.074-.013,2.3,2.3,0,0,0-2.488-2.287,2.352,2.352,0,0,0-2.586,2.3M7.473,29.349c.03.192-.023.569.141.768.484.588,1.054,1.106,1.644,1.706.484-.5.892-.984,1.364-1.393a.907.907,0,0,0,.338-1.081Z" transform="translate(0.001 0)" fill="#fe5c58"/>
        <path id="Path_105342" data-name="Path 105342" d="M27.144,265.788c0,.788.008,1.577,0,2.365-.008.568-.332.925-.8.915a.81.81,0,0,1-.774-.892q-.018-2.418,0-4.836c0-.573.327-.913.8-.9s.765.351.771.934c.009.806,0,1.612,0,2.418" transform="translate(-22.183 -227.771)" fill="#fe5c58"/>
        <path id="Path_105343" data-name="Path 105343" d="M372.82,273.138c0,.631.01,1.263,0,1.894-.012.57-.338.927-.8.918s-.77-.365-.773-.943q-.011-1.841,0-3.683c0-.618.3-.966.8-.959s.772.357.78.983c.007.6,0,1.193,0,1.789" transform="translate(-322.199 -234.653)" fill="#fe5c58"/>
        <path id="Path_105344" data-name="Path 105344" d="M135.945,277.718c0,.545.013,1.09,0,1.634a.771.771,0,0,1-.764.834.743.743,0,0,1-.787-.76c-.029-1.141-.03-2.284,0-3.424a.725.725,0,0,1,.789-.749.758.758,0,0,1,.761.831c.018.544,0,1.089,0,1.634" transform="translate(-116.619 -238.895)" fill="#fe5c58"/>
        <path id="Path_105345" data-name="Path 105345" d="M262.472,277.708c0-.545-.013-1.09,0-1.634a.768.768,0,0,1,.754-.84.758.758,0,0,1,.8.8c.03,1.106.028,2.214,0,3.32a.785.785,0,1,1-1.562-.06c-.014-.527,0-1.054,0-1.581" transform="translate(-227.798 -238.878)" fill="#fe5c58"/>
        <path id="Path_105346" data-name="Path 105346" d="M46.555,140.725a14.217,14.217,0,0,1,4.166.786,2.257,2.257,0,0,1,.337.145.753.753,0,0,1,.374.982.685.685,0,0,1-.936.447,15.617,15.617,0,0,0-4.8-.793.8.8,0,0,1-.844-.814.821.821,0,0,1,.91-.751c.262-.007.525,0,.787,0" transform="translate(-38.932 -122.135)" fill="#fe5c58"/>
      </g>
    </g>
  </g>
</svg>
