<svg xmlns="http://www.w3.org/2000/svg" width="32" height="32.78" viewBox="0 0 32 32.78">
  <g id="Group_37727" data-name="Group 37727" transform="translate(-24 -18.343)">
    <g id="Outline" transform="translate(24 18.343)">
      <path id="Path_105384" data-name="Path 105384" d="M45.149,45.947v4.234a.555.555,0,0,0,.558.552h5.313a.558.558,0,0,0,.509-.327.547.547,0,0,0-.094-.593,2.738,2.738,0,0,1,.143-3.826,2.809,2.809,0,0,1,3.869,0,2.738,2.738,0,0,1,.143,3.826.547.547,0,0,0-.094.593.558.558,0,0,0,.509.327h5.313a.555.555,0,0,0,.558-.552V48.755l2.393,2.368.788-.78-3.9-3.862a2.55,2.55,0,0,1,0-3.634.548.548,0,0,0,0-.78L59.2,40.136a.614.614,0,0,1,0-.875.63.63,0,0,1,.884,0l1.951,1.931.788-.78-.952-.942V38.043h1.673a1.111,1.111,0,0,1,1.115,1.1v4.965a.549.549,0,0,0,.163.39l3.066,3.034.788-.78-2.9-2.873V39.147a2.221,2.221,0,0,0-2.23-2.207H61.874V30.5A3.929,3.929,0,0,0,66.6,29.411a3.831,3.831,0,0,0,0-4.8,3.929,3.929,0,0,0-4.728-1.088V19.285a.555.555,0,0,0-.558-.552H56a.558.558,0,0,0-.509.327.547.547,0,0,0,.094.593,2.738,2.738,0,0,1-.143,3.826,2.809,2.809,0,0,1-3.869,0,2.738,2.738,0,0,1-.143-3.826.547.547,0,0,0,.094-.593.558.558,0,0,0-.509-.327H45.706a.555.555,0,0,0-.558.552v1.427l-2.393-2.368-.788.78,3.9,3.862a2.554,2.554,0,0,1,0,3.634.548.548,0,0,0,0,.78l2.509,2.483a.614.614,0,0,1,0,.875.63.63,0,0,1-.884,0l-2.509-2.483-.788.78.952.942v1.427H43.476a1.111,1.111,0,0,1-1.115-1.1V25.354a.549.549,0,0,0-.163-.39l-3.066-3.034-.788.78,2.9,2.873v4.737a2.221,2.221,0,0,0,2.23,2.207h1.673v6.441a3.929,3.929,0,0,0-4.728,1.088,3.831,3.831,0,0,0,0,4.8,3.929,3.929,0,0,0,4.728,1.088Zm1.557-14.41a1.753,1.753,0,0,0,2.461,0,1.71,1.71,0,0,0,0-2.435L47.023,26.98a3.65,3.65,0,0,0-.365-4.775l-.394-.39V19.837h3.721a3.836,3.836,0,0,0,1.1,4.679,3.935,3.935,0,0,0,4.854,0,3.836,3.836,0,0,0,1.1-4.679h3.721v4.706a.551.551,0,0,0,.33.5.562.562,0,0,0,.6-.093,2.809,2.809,0,0,1,3.866.141,2.738,2.738,0,0,1,0,3.829,2.809,2.809,0,0,1-3.866.141.562.562,0,0,0-.6-.093.552.552,0,0,0-.33.5v4.706H56a.558.558,0,0,0-.509.327.547.547,0,0,0,.094.593,2.738,2.738,0,0,1-.143,3.826,2.809,2.809,0,0,1-3.869,0,2.738,2.738,0,0,1-.143-3.826.547.547,0,0,0,.094-.593.558.558,0,0,0-.509-.327H46.264V31.1Zm-6.017,10.92a2.757,2.757,0,0,1,1.65-2.519,2.81,2.81,0,0,1,3,.463.562.562,0,0,0,.6.093.551.551,0,0,0,.33-.5V35.285h3.721a3.836,3.836,0,0,0,1.1,4.679,3.935,3.935,0,0,0,4.854,0,3.836,3.836,0,0,0,1.1-4.679h3.721v3.092a1.753,1.753,0,0,0-2.4.16,1.709,1.709,0,0,0,.055,2.38L60,42.486a3.646,3.646,0,0,0,.365,4.775l.394.39V49.63H57.038a3.836,3.836,0,0,0-1.1-4.679,3.935,3.935,0,0,0-4.854,0,3.836,3.836,0,0,0-1.1,4.679H46.264V44.924a.551.551,0,0,0-.33-.5.562.562,0,0,0-.6.093,2.81,2.81,0,0,1-3,.463,2.757,2.757,0,0,1-1.649-2.518Z" transform="translate(-37.511 -18.343)"/>
      <path id="Path_105385" data-name="Path 105385" d="M24.927,254.958a4.161,4.161,0,0,1,3.471-4.116,1.393,1.393,0,0,0,1.167-1.373V248h-.928v1.469a.468.468,0,0,1-.395.458,5.1,5.1,0,0,0-3.4,7.84l.774-.512a4.156,4.156,0,0,1-.689-2.3Z" transform="translate(-24 -230.777)"/>
      <path id="Path_105386" data-name="Path 105386" d="M48.164,416.963l-.68.631a5.156,5.156,0,0,0,.678.611l.558-.742A4.216,4.216,0,0,1,48.164,416.963Z" transform="translate(-46.122 -388.63)"/>
      <path id="Path_105387" data-name="Path 105387" d="M417.747,62.761a4.143,4.143,0,0,1-1.67,3.34l.557.742a5.063,5.063,0,0,0,2.04-4.082,5.116,5.116,0,0,0-4.082-5l-.185.909A4.186,4.186,0,0,1,417.747,62.761Z" transform="translate(-386.675 -55.475)"/>
    </g>
  </g>
</svg>
