<svg width="32" height="32" viewBox="0 0 32 32" fill="none" xmlns="http://www.w3.org/2000/svg">
<g clip-path="url(#clip0_21_653)">
<path d="M30.3017 9.87337H24.8751C23.9387 9.87337 23.1768 10.6356 23.1768 11.5726V17.8185H21.1471C21.2599 17.4084 21.3017 16.9248 21.2743 16.3619V16.3618C21.2302 13.9831 20.7986 11.9784 19.9912 10.4032C19.3644 9.18031 18.6328 8.44713 18.0051 8.00881C18.7419 7.25125 19.1679 6.17356 19.1679 4.93062C19.1679 2.69431 17.3839 0.875 15.1913 0.875C12.9986 0.875 11.2146 2.69431 11.2146 4.93062C11.2146 5.18956 11.4245 5.39937 11.6834 5.39937H12.0019C11.9726 5.57625 11.9569 5.7565 11.9569 5.93956C11.9569 7.51556 13.0831 8.83275 14.5719 9.12794C14.4159 9.70744 14.3383 10.3907 14.3386 11.167L13.1695 12.1726L10.3248 12.4026L7.04338 11.3179C6.74263 11.2179 6.40175 11.1049 6.106 11.3181C5.81456 11.5284 5.81456 11.8966 5.81456 12.0176V14.4572C5.81456 14.7162 6.02444 14.926 6.28331 14.926H6.84138L5.98544 17.8838C5.9135 18.1324 6.05675 18.3924 6.30544 18.4643C6.55425 18.5366 6.81406 18.393 6.88606 18.1444L7.81744 14.926H9.15006C7.49256 19.9805 8.43831 23.3544 9.892 26.7688H9.04938L5.53981 22.8447L6.28194 20.2809C6.35394 20.0322 6.21069 19.7723 5.962 19.7004C5.71331 19.6284 5.45338 19.7717 5.38138 20.0203L4.67156 22.4726C2.47619 22.436 0.512438 23.9496 0.0120007 26.1273C-0.0459368 26.3796 0.111501 26.6311 0.363688 26.6891L1.02913 26.8422C0.859126 28.6079 2.02194 30.2739 3.79531 30.6821C4.06463 30.7441 4.33625 30.7747 4.606 30.7747C5.27125 30.7747 5.92481 30.5882 6.50288 30.2259C7.18131 29.8008 7.68681 29.1758 7.96038 28.4372L8.48544 28.558C8.64188 28.5942 8.79025 28.6125 8.9385 28.5327C9.07644 28.4584 9.16813 28.3244 9.2025 28.1731C9.2355 28.0196 9.26063 27.8637 9.27806 27.7063H19.0817C19.3952 29.6555 21.0536 31.1248 23.0343 31.1248C25.015 31.1248 26.6735 29.6555 26.987 27.7063H27.3447C27.3447 27.7063 27.4158 27.7071 27.4319 27.7071C27.566 27.7071 27.7596 27.6923 27.9186 27.5305C27.9982 27.4496 28.0916 27.3048 28.0844 27.0747C28.0712 26.6345 28.0051 26.2092 27.8924 25.8049C28.2658 23.5382 27.9065 22.1576 27.3739 21.0772C27.7106 20.8565 27.9339 20.4763 27.9339 20.0443V18.7559H30.3016C31.238 18.7559 31.9999 17.9937 31.9999 17.0567V11.5726C32 10.6356 31.2382 9.87337 30.3017 9.87337V9.87337ZM6.00506 29.4317C5.405 29.8078 4.695 29.9273 4.00575 29.7686H4.00569C2.73706 29.4766 1.89069 28.3133 1.95238 27.0554L7.03694 28.2257C6.82656 28.721 6.47063 29.1399 6.00506 29.4317V29.4317ZM8.35056 27.5651L1.059 25.8872C1.62169 24.3463 3.13594 23.3263 4.79113 23.4141L8.36306 27.4079C8.35994 27.4606 8.35581 27.5129 8.35056 27.5651ZM15.4309 19.3966C15.2948 19.7555 15.2948 20.1979 15.2948 20.8104V22.5793H13.5784V20.1525C13.5784 17.4089 15.0758 16.9199 15.7478 16.8393H20.3433C20.3248 17.4619 20.1843 17.9046 19.9176 18.1855C19.6067 18.5129 19.0748 18.6724 18.2913 18.6731L16.6087 18.6749C16.0087 18.6749 15.6124 18.9177 15.4309 19.3966V19.3966ZM15.2948 23.5167V24.6359C15.2906 24.6359 15.2862 24.6359 15.2817 24.6359H11.9521C11.9896 24.2888 12.0977 24.0202 12.2753 23.8343C12.5394 23.5579 12.9114 23.5167 13.1096 23.5167H15.2948ZM20.3226 15.9018H16.0597C15.8885 15.3631 15.7359 14.7732 15.6104 14.167L16.9064 13.3258C17.6139 12.8663 17.982 12.2171 17.9163 11.5446C17.858 10.9484 17.4527 10.4158 16.8837 10.1879C16.3641 9.97975 15.8048 10.0451 15.3104 10.3612C15.3512 9.91281 15.4271 9.51256 15.5368 9.17281C15.7366 9.15219 15.9351 9.11313 16.1299 9.05581C16.5266 8.96369 16.8932 8.81688 17.2241 8.62219C18.1269 9.16156 20.1126 10.9111 20.3226 15.9018V15.9018ZM12.1864 4.46194C12.4075 2.96419 13.6708 1.81256 15.1913 1.81256C16.867 1.81256 18.2304 3.21137 18.2304 4.93069C18.2304 6.32906 17.5598 7.45613 16.4786 7.95213V5.48569C16.4786 5.05863 16.3151 4.53475 15.5368 4.46387C15.5226 4.46256 15.5084 4.46194 15.4943 4.46194H12.1864ZM12.8945 5.93962C12.8945 5.75462 12.9156 5.57394 12.957 5.39944H15.4713C15.5002 5.40256 15.5213 5.40594 15.5364 5.409C15.5389 5.42637 15.541 5.45138 15.541 5.48569V8.22794C15.4293 8.24438 15.3169 8.25269 15.2046 8.25275C15.2036 8.25275 15.2025 8.25275 15.2015 8.25275C13.9293 8.25156 12.8945 7.21437 12.8945 5.93962ZM12.2868 13.1846L13.3971 13.0948C13.496 13.0869 13.5898 13.0477 13.6651 12.983L15.6689 11.2596L15.6692 11.2592C15.8629 11.0923 16.0698 11.0067 16.2711 11.0067C16.3608 11.0067 16.4493 11.0237 16.5351 11.0581C16.7828 11.1573 16.9587 11.384 16.9833 11.6356C17.0143 11.9523 16.8056 12.2733 16.3961 12.5393L14.1633 13.9886H12.2869V13.1846H12.2868ZM10.3058 13.3449L11.3493 13.2605V13.9887H10.1368C9.97956 13.9887 9.94125 13.8581 9.93675 13.7485C9.93419 13.6864 9.94006 13.3749 10.3058 13.3449V13.3449ZM9.19638 13.0212C9.05519 13.2527 8.98925 13.5236 9.00006 13.7869C9.00288 13.8551 9.01156 13.9207 9.02369 13.9847C9.02369 13.9861 9.02294 13.9874 9.02319 13.9886H6.75219V12.2091L9.19819 13.0176C9.19744 13.0189 9.19706 13.0201 9.19638 13.0212V13.0212ZM10.1394 14.9261H14.3019C14.3925 14.9261 14.4812 14.8999 14.5571 14.8506L14.7693 14.7128C14.8714 15.1639 14.9876 15.6029 15.1143 16.0176C14.1583 16.2998 12.6408 17.2117 12.6408 20.1524V22.6262C12.3119 22.6926 11.9229 22.846 11.5974 23.1866C11.2544 23.5456 11.0584 24.032 11.0114 24.6359H10.0658C9.11294 21.8898 8.75056 18.9675 10.1394 14.9261V14.9261ZM10.912 26.7673C10.7388 26.3688 10.5718 25.9719 10.4145 25.5734H15.2816C15.9124 25.5734 16.2323 25.2863 16.2323 24.7199V23.0479V21.2791H19.9322C20.1911 21.2791 20.4009 21.0692 20.4009 20.8103C20.4009 20.5514 20.1911 20.3416 19.9322 20.3416H16.2356C16.2416 20.0753 16.2587 19.8576 16.3075 19.7289C16.3312 19.6664 16.3517 19.6124 16.6091 19.6124L18.2921 19.6106C19.3462 19.6096 20.1002 19.3546 20.5974 18.831C20.6204 18.8067 20.6422 18.7813 20.664 18.756H23.6456H26.9966V20.0443C26.9966 20.2054 26.8608 20.3416 26.7 20.3416H22.0334C21.7745 20.3416 21.5647 20.5514 21.5647 20.8103C21.5647 21.0692 21.7745 21.2791 22.0334 21.2791H26.4246C26.7951 21.9667 27.1283 22.8224 27.1085 24.1744C26.1811 22.8862 24.6798 22.0579 22.9759 22.0579C21.6076 22.0579 20.3236 22.5946 19.3604 23.5693C18.5057 24.4341 17.9924 25.5566 17.8867 26.7688L10.912 26.7673ZM23.0344 30.1874C21.569 30.1874 20.3331 29.1316 20.0341 27.7064H26.0346C25.7356 29.1315 24.4997 30.1874 23.0344 30.1874V30.1874ZM26.5671 26.7689H19.5018H18.8283C19.0584 24.6494 20.8307 22.9954 22.9759 22.9954C24.8594 22.9954 26.4411 24.2373 26.9649 25.9759C26.9666 25.9814 26.9683 25.9869 26.9701 25.9923C27.0442 26.2418 27.0965 26.5014 27.1248 26.7689H26.5671ZM31.0625 17.0567C31.0625 17.4768 30.7212 17.8185 30.3017 17.8185H24.1143V15.3978H31.0625V17.0567ZM31.0625 14.4603H24.1143V13.4634H31.0625V14.4603ZM31.0625 12.5259H24.1143V11.5726C24.1143 11.1526 24.4556 10.8109 24.8751 10.8109H30.3017C30.7212 10.8109 31.0625 11.1526 31.0625 11.5726V12.5259Z" fill="black"/>
</g>
<defs>
<clipPath id="clip0_21_653">
<rect width="32" height="32" fill="white"/>
</clipPath>
</defs>
</svg>
