<svg xmlns="http://www.w3.org/2000/svg" width="62.001" height="62" viewBox="0 0 62.001 62">
  <g id="Group_37980" data-name="Group 37980" transform="translate(-1 -1)">
    <g id="Group_37980-2" data-name="Group 37980">
      <path id="Path_105842" data-name="Path 105842" d="M32,17a8,8,0,1,0,8,8A8.009,8.009,0,0,0,32,17Zm0,14a6,6,0,1,1,6-6A6.006,6.006,0,0,1,32,31Z" fill="#fe5c58"/>
      <path id="Path_105843" data-name="Path 105843" d="M32,21a4,4,0,1,0,4,4A4,4,0,0,0,32,21Zm0,6a2,2,0,1,1,2-2A2,2,0,0,1,32,27Z" fill="#fe5c58"/>
      <path id="Path_105844" data-name="Path 105844" d="M58,20a5.009,5.009,0,0,0-4.9,4H50.953a18.95,18.95,0,0,0-4.83-11.71l1.857-1.857A3.954,3.954,0,0,0,50,11a4,4,0,1,0-4-4,3.947,3.947,0,0,0,.567,2.019L44.7,10.882a18.869,18.869,0,0,0-8.964-4.5A3.946,3.946,0,0,0,36,5a4,4,0,0,0-8,0,3.946,3.946,0,0,0,.26,1.378,18.87,18.87,0,0,0-8.963,4.5L17.434,9.019A3.956,3.956,0,0,0,18,7a4,4,0,1,0-4,4,3.947,3.947,0,0,0,2.019-.567l1.857,1.857A18.95,18.95,0,0,0,13.046,24H10.9a5,5,0,1,0,0,2h2.148a18.933,18.933,0,0,0,4.836,11.7L16.02,39.567A3.954,3.954,0,0,0,14,39a4,4,0,1,0,4,4,3.947,3.947,0,0,0-.567-2.019l1.8-1.8,2.331,2.542a9.252,9.252,0,0,1,2.382,5.279A2.983,2.983,0,0,0,21.78,52,2.987,2.987,0,0,0,24,57h.08A7,7,0,0,0,31,63h2a7,7,0,0,0,6.92-6H40a2.987,2.987,0,0,0,2.22-5,2.983,2.983,0,0,0-2.162-4.994,9.254,9.254,0,0,1,2.382-5.279l2.331-2.542,1.8,1.8A3.947,3.947,0,0,0,46,43a4,4,0,1,0,4-4,3.947,3.947,0,0,0-2.019.567L46.118,37.7A18.938,18.938,0,0,0,50.954,26H53.1A5,5,0,1,0,58,20ZM6,28a3,3,0,1,1,3-3A3,3,0,0,1,6,28Zm42.953-4H45V21.292l-1.826-.645q-.093-.235-.2-.471l.836-1.748L41.9,16.513,44.711,13.7A16.97,16.97,0,0,1,48.953,24Zm-7.5,4.242a9.84,9.84,0,0,1-.477,1.146l-.214.435.639,1.334L38.157,34.4l-1.335-.638-.436.214a9.742,9.742,0,0,1-1.146.477l-.458.157L34.292,36H29.708l-.491-1.392-.458-.157a9.742,9.742,0,0,1-1.146-.477l-.436-.214-1.335.638L22.6,31.156l.639-1.334-.214-.435a9.84,9.84,0,0,1-.477-1.146l-.156-.458L21,27.292V22.707l1.393-.491.156-.458a9.84,9.84,0,0,1,.477-1.146l.214-.435L22.6,18.843,25.843,15.6l1.335.638.436-.214a9.742,9.742,0,0,1,1.146-.477l.458-.157L29.708,14h4.584l.491,1.392.458.157a9.742,9.742,0,0,1,1.146.477l.436.214,1.335-.638L41.4,18.844l-.639,1.334.214.435a9.84,9.84,0,0,1,.477,1.146l.156.458L43,22.708v4.585l-1.393.491ZM32,51a2,2,0,1,1,2-2A2,2,0,0,1,32,51ZM50,5a2,2,0,1,1-2,2A2,2,0,0,1,50,5ZM40.485,15.1l-1.914-1.915-1.749.836c-.155-.069-.313-.134-.471-.2L35.708,12H33V8.858a3.991,3.991,0,0,0,1.4-.676A16.877,16.877,0,0,1,43.287,12.3ZM32,3a2,2,0,1,1-2,2A2,2,0,0,1,32,3ZM29.6,8.182a3.991,3.991,0,0,0,1.4.676V12H28.292l-.644,1.826q-.237.093-.471.2l-1.749-.836L23.514,15.1l-2.8-2.8A16.884,16.884,0,0,1,29.6,8.182ZM14,9a2,2,0,1,1,2-2A2,2,0,0,1,14,9Zm5.29,4.7L22.1,16.515,20.187,18.43l.836,1.748c-.069.157-.135.314-.2.471L19,21.292V24H15.047A16.954,16.954,0,0,1,19.29,13.7ZM15.047,26H19v2.708l1.826.645q.093.235.2.471l-.836,1.748L22.1,33.487l-2.8,2.8A16.947,16.947,0,0,1,15.047,26ZM14,45a2,2,0,1,1,2-2A2,2,0,0,1,14,45Zm6.645-7.231,2.87-2.87,1.914,1.915,1.749-.836c.155.069.313.134.471.2L28.292,38H31v7.142A4,4,0,0,0,28.556,47h-2.6a11.261,11.261,0,0,0-2.919-6.625ZM24,49h4a3.959,3.959,0,0,0,.556,2H24a1,1,0,1,1,0-2Zm9,12H31a5.009,5.009,0,0,1-4.9-4H37.9A5.009,5.009,0,0,1,33,61Zm7-6H24a1,1,0,0,1,0-2H40a1,1,0,0,1,0,2Zm1-5a1,1,0,0,1-1,1H35.444A3.959,3.959,0,0,0,36,49h4A1,1,0,0,1,41,50Zm-.034-9.625A11.255,11.255,0,0,0,38.047,47h-2.6A3.992,3.992,0,0,0,33,45.142V38h2.708l.644-1.826q.237-.093.471-.2l1.749.836L40.486,34.9l2.87,2.87ZM50,41a2,2,0,1,1-2,2A2,2,0,0,1,50,41Zm-5.3-4.715-2.8-2.8,1.914-1.915-.836-1.748c.069-.157.135-.314.2-.471L45,28.708V26h3.953A16.932,16.932,0,0,1,44.7,36.285ZM58,28a3,3,0,1,1,3-3A3,3,0,0,1,58,28Z" fill="#fe5c58"/>
    </g>
  </g>
</svg>
