<svg xmlns="http://www.w3.org/2000/svg" width="32" height="32.008" viewBox="0 0 32 32.008">
  <g id="Group_37960" data-name="Group 37960" transform="translate(-0.069 0)">
    <g id="Group_37960-2" data-name="Group 37960" transform="translate(0.069 0)">
      <g id="Page-1_30_" transform="translate(0 0)">
        <g id="_x30_31---Reduce-Digital-Footprint">
          <path id="Shape_148_" d="M2.887,6.536a.541.541,0,0,0,.541.541H5.589a.541.541,0,0,0,.541-.541V4.374a.541.541,0,1,0-1.081,0v.857L1.107,1.289a.541.541,0,0,0-.764.764L4.285,6H3.427a.54.54,0,0,0-.541.541Z" transform="translate(-0.184 -1.13)"/>
          <path id="Shape_147_" d="M.61,495.2a.541.541,0,0,0,.382-.158L4.934,491.1v.857a.541.541,0,0,0,1.081,0V489.8a.541.541,0,0,0-.541-.541H3.312a.541.541,0,0,0,0,1.081h.857L.228,494.278a.541.541,0,0,0,.382.923Z" transform="translate(-0.069 -463.193)"/>
          <path id="Shape_146_" d="M490.152,490.335h.857a.54.54,0,0,0,0-1.081h-2.162a.541.541,0,0,0-.541.54v2.162a.541.541,0,1,0,1.081,0V491.1l3.942,3.942a.541.541,0,0,0,.764-.764Z" transform="translate(-462.246 -463.192)"/>
          <path id="Shape_145_" d="M493.33,1.288,489.388,5.23V4.373a.541.541,0,0,0-1.081,0V6.535a.541.541,0,0,0,.541.541h2.162a.541.541,0,0,0,0-1.081h-.857l3.942-3.942a.541.541,0,0,0-.764-.764Z" transform="translate(-462.246 -1.129)"/>
          <path id="Shape_144_" d="M353.658,4.43c.117-1.807-.856-3.311-2.216-3.424-1.5-.118-2.53,1.459-2.63,3.052-.117,1.807.856,3.311,2.216,3.424,1.494.118,2.531-1.454,2.63-3.052Zm-3.767-.3c.058-.919.616-2.108,1.465-2.043.738.061,1.3,1.1,1.224,2.277-.06.954-.633,2.1-1.465,2.045C350.377,6.343,349.816,5.3,349.891,4.127Z" transform="translate(-330.176 -1)"/>
          <path id="Shape_143_" d="M262.9,23.509a2.223,2.223,0,0,0-1.726-2.569c-1.16-.089-1.966,1.077-2.044,2.287a2.223,2.223,0,0,0,1.726,2.569C262.026,25.885,262.826,24.711,262.9,23.509Zm-2.692-.212c.041-.621.419-1.313.88-1.279.388.031.784.623.732,1.422-.037.573-.381,1.307-.88,1.28C260.557,24.687,260.161,24.1,260.212,23.3Z" transform="translate(-245.281 -19.854)"/>
          <path id="Shape_142_" d="M192.621,63.075a1.976,1.976,0,0,0-1.478-2.281c-.994-.084-1.689.942-1.754,2.034a1.975,1.975,0,0,0,1.478,2.281C191.859,65.195,192.555,64.169,192.621,63.075Zm-2.153-.182a1.354,1.354,0,0,1,.375-.931.313.313,0,0,1,.2-.091h.014c.226.02.53.474.49,1.139-.028.453-.294,1.049-.585,1.023C190.731,64.013,190.428,63.56,190.468,62.894Z" transform="translate(-179.263 -57.546)"/>
          <path id="Shape_141_" d="M131.024,134.337a1.759,1.759,0,0,0,1.455-2.026,2.043,2.043,0,0,0-.7-1.392,1.466,1.466,0,0,0-1.081-.355,1.759,1.759,0,0,0-1.456,2.026,2.043,2.043,0,0,0,.7,1.392,1.493,1.493,0,0,0,.955.36A1.022,1.022,0,0,0,131.024,134.337Zm-.7-1.838c-.035-.432.184-.835.472-.859h.029a.422.422,0,0,1,.264.108.969.969,0,0,1,.309.653c.035.432-.184.835-.468.858h0a.414.414,0,0,1-.292-.108.97.97,0,0,1-.311-.652Z" transform="translate(-122.315 -123.635)"/>
          <path id="Shape_140_" d="M190.327,141.743v.011s0,.007.006.011a33.624,33.624,0,0,0,1.929,4.579,69.109,69.109,0,0,1,3,7.276,3.534,3.534,0,0,0,3.334,2.332,3.587,3.587,0,0,0,1.017-.148,3.5,3.5,0,0,0,2.108-1.706,3.433,3.433,0,0,0,.264-2.648l-.929-3.061a9.765,9.765,0,0,1,.973-7.954,8.387,8.387,0,0,0,1.405-4.342c0-3.316-2.711-5.544-6.745-5.544-3.962,0-7.309,2.919-7.309,6.378A16.081,16.081,0,0,0,190.327,141.743Zm1.2.162L196.933,140l3.4,1.415a10.764,10.764,0,0,0-.784,3.995l-2.6-.4c0-.031.007-.061.007-.092V144.5a1.622,1.622,0,1,0-1.081,0v.413a.54.54,0,0,1-.358.512l-2.131.75c-.054-.108-.1-.216-.157-.324a33.461,33.461,0,0,1-1.7-3.947Zm4.886,1.616a.541.541,0,1,1,.541-.541A.541.541,0,0,1,196.411,143.52Zm4.362,10.065a2.426,2.426,0,0,1-1.463,1.182,2.462,2.462,0,0,1-3.027-1.513c-.064-.177-.133-.369-.2-.558l.871-.3a1.621,1.621,0,0,0,1.081-1.532v-.413a1.622,1.622,0,1,0-1.081,0v.413a.54.54,0,0,1-.358.512l-.885.31c-.541-1.445-1.189-3.059-1.858-4.525l2.02-.71a1.6,1.6,0,0,0,.636-.414l3.085.475a11.093,11.093,0,0,0,.432,2.194l.932,3.064A2.36,2.36,0,0,1,200.773,153.586Zm-3.281-4.12a.541.541,0,1,1,.54-.541A.541.541,0,0,1,197.492,149.466Zm-.8-17.837c3.387,0,5.663,1.793,5.663,4.463a7.339,7.339,0,0,1-1.243,3.777c-.114.185-.22.375-.322.566l-2.334-.973.115-.042a1.621,1.621,0,0,0,1.081-1.532v-1.494a1.622,1.622,0,1,0-1.081,0v1.494a.541.541,0,0,1-.358.512l-1.459.515-.023.008-5.548,1.957c-.142-.462-.257-.9-.358-1.335l3.424-1.206a1.621,1.621,0,0,0,1.081-1.532v-.413a1.622,1.622,0,1,0-1.081,0v.413a.541.541,0,0,1-.358.512l-3.279,1.155a9.935,9.935,0,0,1-.146-1.548C190.465,134.055,193.317,131.629,196.693,131.629Zm2.42,3.784a.541.541,0,1,1,.54-.541A.541.541,0,0,1,199.113,135.413Zm-4.324,0a.541.541,0,1,1,.541-.541A.541.541,0,0,1,194.789,135.413Z" transform="translate(-179.351 -123.945)"/>
        </g>
      </g>
    </g>
  </g>
</svg>
