<svg xmlns="http://www.w3.org/2000/svg" width="27.904" height="32" viewBox="0 0 27.904 32">
  <g id="Group_37996" data-name="Group 37996" transform="translate(-70 -6)">
    <g id="_05-receipt" data-name="05-receipt" transform="translate(70 6)">
      <g id="linear_color" data-name="linear color" transform="translate(0 0)">
        <path id="Path_105975" data-name="Path 105975" d="M96.24,6H80.88a1.666,1.666,0,0,0-1.664,1.664v7.552H76.784A2.691,2.691,0,0,0,74.1,17.9v11.38l-1.408.7-1.762-.881A.64.64,0,0,0,70,29.68v2.048a2.691,2.691,0,0,0,2.688,2.688h6.528v1.92A1.666,1.666,0,0,0,80.88,38H96.24A1.666,1.666,0,0,0,97.9,36.336V7.664A1.666,1.666,0,0,0,96.24,6ZM80.88,7.28H96.24a.384.384,0,0,1,.384.384V9.581H80.5V7.664A.384.384,0,0,1,80.88,7.28ZM80.5,10.861H96.624V31.6H87.152V24.688h5.5c.043,0,.086,0,.129,0A2.691,2.691,0,0,0,95.344,22V12.784a.64.64,0,0,0-.64-.64H82.416a.64.64,0,0,0-.64.64v2.432H80.5ZM92.688,23.407A1.409,1.409,0,0,1,91.312,22V17.9a2.691,2.691,0,0,0-2.688-2.688l-.032,0-.032,0h-5.5V13.424H94.064V22A1.409,1.409,0,0,1,92.688,23.407ZM88.56,16.5l.032,0,.032,0A1.41,1.41,0,0,1,90.032,17.9V22a2.671,2.671,0,0,0,.4,1.408H87.152V17.9A1.41,1.41,0,0,1,88.56,16.5Zm-11.776,0h9.487a2.672,2.672,0,0,0-.4,1.408V31.728a1.408,1.408,0,0,1-2.816,0V29.68a.64.64,0,0,0-.926-.572l-1.762.881-1.762-.881a.64.64,0,0,0-.641.04l-1.227.818-1.362-.681V17.9A1.41,1.41,0,0,1,76.784,16.5Zm-5.5,15.232V30.716l1.122.561a.64.64,0,0,0,.572,0l1.762-.881,1.762.881a.64.64,0,0,0,.641-.04l1.227-.818,1.716.858a.64.64,0,0,0,.572,0l1.122-.561v1.012a2.691,2.691,0,0,0,.4,1.408H72.688A1.41,1.41,0,0,1,71.28,31.728ZM96.24,36.72H80.88a.384.384,0,0,1-.384-.384v-1.92h3.968a2.688,2.688,0,0,0,2.428-1.534h9.732v3.453a.384.384,0,0,1-.384.384Z" transform="translate(-70 -6)"/>
        <path id="Path_105976" data-name="Path 105976" d="M329.018,446.021h-3.286a.645.645,0,0,0,0,1.29h3.286a.645.645,0,0,0,0-1.29Z" transform="translate(-308.786 -417.889)"/>
        <path id="Path_105977" data-name="Path 105977" d="M196.73,203.417h1.1a.9.9,0,0,1,.9.9v.064a.9.9,0,0,1-.9.9H196.2a.355.355,0,0,1-.355-.361v-.067a.645.645,0,0,0-.633-.657H195.2a.645.645,0,0,0-.645.633v.067a1.645,1.645,0,0,0,1.645,1.675h.465v.387a.645.645,0,0,0,1.29,0v-.391a2.2,2.2,0,0,0,2.064-2.189v-.064a2.2,2.2,0,0,0-2.193-2.193h-1.1a.9.9,0,0,1,0-1.806h1.6a.355.355,0,0,1,.355.37.645.645,0,1,0,1.289.055,1.645,1.645,0,0,0-1.643-1.716h-.375v-.387a.645.645,0,0,0-1.29,0v.389a2.192,2.192,0,1,0,.065,4.384Z" transform="translate(-186.551 -185.752)"/>
      </g>
    </g>
  </g>
</svg>
