<svg xmlns="http://www.w3.org/2000/svg" width="32" height="32" viewBox="0 0 32 32">
  <g id="Group_37993" data-name="Group 37993" transform="translate(-1 -1)">
    <path id="Path_105939" data-name="Path 105939" d="M15,57h3.445v1.148H15Z" transform="translate(-6.861 -27.445)"/>
    <path id="Path_105940" data-name="Path 105940" d="M31.952,15.968h.016V13.9a2.584,2.584,0,0,0-2.581-2.581h-.032c.013-.172.032-.342.032-.516A6.7,6.7,0,0,0,18.548,5.529V3.581A2.584,2.584,0,0,0,15.968,1H3.581A2.584,2.584,0,0,0,1,3.581V30.419A2.584,2.584,0,0,0,3.581,33H15.968a2.584,2.584,0,0,0,2.581-2.581V29.9H30.419A2.584,2.584,0,0,0,33,27.323v-9.29A2.571,2.571,0,0,0,31.952,15.968Zm-2.565-3.613A1.55,1.55,0,0,1,30.935,13.9v1.6a2.578,2.578,0,0,0-.516-.052H27.5a6.679,6.679,0,0,0,1.7-3.1Zm-6.71-7.226a5.67,5.67,0,0,1,3.249,10.323H23.194V14.346a2.06,2.06,0,0,0-.516-4.056A1.032,1.032,0,1,1,23.71,9.258h1.032a2.063,2.063,0,0,0-1.548-1.991V6.161H22.161V7.267a2.06,2.06,0,0,0,.516,4.056,1.032,1.032,0,1,1-1.032,1.032H20.613a2.063,2.063,0,0,0,1.548,1.991v1.106H19.428A5.67,5.67,0,0,1,22.677,5.129Zm-10.27,22.71H2.032V5.129H17.516v1.4a6.678,6.678,0,0,0-1.548,4.281c0,.174.019.344.032.516H14.935A2.584,2.584,0,0,0,12.355,13.9V27.323A2.578,2.578,0,0,0,12.407,27.839Zm2.529-15.484h1.219a6.687,6.687,0,0,0,.338,1.032H14.935v1.032H17v-.06a6.658,6.658,0,0,0,.85,1.092H14.935a1.548,1.548,0,1,1,0-3.1ZM3.581,2.032H15.968a1.55,1.55,0,0,1,1.548,1.548V4.1H2.032V3.581A1.55,1.55,0,0,1,3.581,2.032ZM17.516,30.419a1.55,1.55,0,0,1-1.548,1.548H3.581a1.55,1.55,0,0,1-1.548-1.548V28.871H12.871v-.016A2.571,2.571,0,0,0,14.935,29.9h2.581Zm12.9-1.548H14.935a1.55,1.55,0,0,1-1.548-1.548V15.967a2.57,2.57,0,0,0,1.548.517H30.419a1.55,1.55,0,0,1,1.548,1.548v1.548H25.774a3.1,3.1,0,1,0,0,6.194h6.194v1.548A1.55,1.55,0,0,1,30.419,28.871Zm1.548-8.258v4.129H25.774a2.065,2.065,0,1,1,0-4.129Z"/>
    <path id="Path_105941" data-name="Path 105941" d="M47,42h1.148v1.148H47Z" transform="translate(-22.347 -19.918)"/>
    <path id="Path_105942" data-name="Path 105942" d="M50,19h1.148v1.148H50Z" transform="translate(-23.804 -8.745)"/>
    <path id="Path_105943" data-name="Path 105943" d="M34,19h1.148v1.148H34Z" transform="translate(-16.032 -8.745)"/>
    <path id="Path_105944" data-name="Path 105944" d="M59,11h1.148v1.148H59Z" transform="translate(-28.297 -4.258)"/>
    <path id="Path_105945" data-name="Path 105945" d="M59,15h1.148v1.148H59Z" transform="translate(-28.297 -6.801)"/>
    <path id="Path_105946" data-name="Path 105946" d="M61,13h1.148v1.148H61Z" transform="translate(-29.148 -5.83)"/>
    <path id="Path_105947" data-name="Path 105947" d="M57,13h1.148v1.148H57Z" transform="translate(-27.445 -5.83)"/>
    <path id="Path_105948" data-name="Path 105948" d="M25,13h1.148v1.148H25Z" transform="translate(-11.659 -5.83)"/>
    <path id="Path_105949" data-name="Path 105949" d="M25,17h1.148v1.148H25Z" transform="translate(-11.659 -7.773)"/>
    <path id="Path_105950" data-name="Path 105950" d="M27,15h1.148v1.148H27Z" transform="translate(-12.631 -6.801)"/>
    <path id="Path_105951" data-name="Path 105951" d="M23,15h1.148v1.148H23Z" transform="translate(-10.688 -6.801)"/>
    <path id="Path_105952" data-name="Path 105952" d="M51,1h1.148V2.148H51Z" transform="translate(-24.89)"/>
    <path id="Path_105953" data-name="Path 105953" d="M51,5h1.148V6.148H51Z" transform="translate(-24.89 -1.703)"/>
    <path id="Path_105954" data-name="Path 105954" d="M53,3h1.148V4.148H53Z" transform="translate(-25.742 -0.852)"/>
    <path id="Path_105955" data-name="Path 105955" d="M49,3h1.148V4.148H49Z" transform="translate(-23.319 -0.852)"/>
  </g>
</svg>
