<svg xmlns="http://www.w3.org/2000/svg" xmlns:xlink="http://www.w3.org/1999/xlink" width="32" height="32" viewBox="0 0 32 32">
  <defs>
    <clipPath id="clip-path">
      <rect id="Rectangle_12612" data-name="Rectangle 12612" width="28" height="28"/>
    </clipPath>
  </defs>
  <g id="Group_37672" data-name="Group 37672" transform="translate(10187 1859)">
    <g id="Rectangle_12544" data-name="Rectangle 12544" transform="translate(-10187 -1859)" stroke="#707070" stroke-width="1" opacity="0">
      <rect width="32" height="32" stroke="none"/>
      <rect x="0.5" y="0.5" width="31" height="31" fill="none"/>
    </g>
    <g id="Group_37724" data-name="Group 37724" transform="translate(-10185 -1857)">
      <g id="Group_37724-2" data-name="Group 37724" clip-path="url(#clip-path)">
        <path id="Path_105678" data-name="Path 105678" d="M7.217,0c.475.114.963.191,1.424.346a6.525,6.525,0,0,1,4.424,6.008c0,.071.009.142.014.23a7.459,7.459,0,0,1,8.338,8.28c.615.1,1.226.156,1.808.316a6.479,6.479,0,0,1,4.726,5.5.849.849,0,0,0,.048.151v1.2c-.069.346-.121.7-.209,1.037a6.525,6.525,0,0,1-12.818-.944c-.023-.234-.039-.468-.059-.7A7.467,7.467,0,0,1,6.577,13.11c-.474-.065-.955-.1-1.422-.2A6.531,6.531,0,0,1,5.7.048.973.973,0,0,0,5.85,0ZM14.008,7.47a6.529,6.529,0,1,0,6.521,6.545A6.524,6.524,0,0,0,14.008,7.47m-5.382.192A6.274,6.274,0,0,1,9.237,8a.253.253,0,0,0,.356-.01,6.894,6.894,0,0,1,2.285-1.136c.212-.06.261-.152.26-.357A5.586,5.586,0,0,0,5.9.981,5.323,5.323,0,0,0,1.365,4.411a5.384,5.384,0,0,0,.8,5.609c.052.068.115.128.2.223A3.347,3.347,0,0,1,4.431,7.677c-.964-1.236-1.151-1.641-1.16-2.49A3.159,3.159,0,0,1,4.366,2.693a3.26,3.26,0,0,1,4.481.134,3.306,3.306,0,0,1-.222,4.835m12.3,9.164A3.3,3.3,0,0,1,23.548,22.6a3.342,3.342,0,0,1,2.085,2.544.563.563,0,0,0,.073-.048.984.984,0,0,0,.072-.082,5.459,5.459,0,0,0,.864-5.674,5.541,5.541,0,0,0-5.191-3.477c-.088,0-.226.056-.253.121-.109.268-.184.55-.274.837m2.872,9.751c.327-.2.6-.363.873-.539.04-.026.053-.109.058-.168a2.324,2.324,0,0,0-2.285-2.529c-.665-.016-1.331-.018-2,0a2.326,2.326,0,0,0-2.24,2.544c0,.051.014.124.048.145.276.177.559.344.86.527.015-.087.02-.105.021-.123,0-.191,0-.383,0-.574,0-.073,0-.146,0-.219a.463.463,0,0,1,.925.033c.01.4,0,.8,0,1.2a5.265,5.265,0,0,0,2.8,0c0-.392-.005-.773,0-1.154a.465.465,0,0,1,.48-.512.455.455,0,0,1,.449.509c.005.261,0,.523,0,.863M4.2,5.119A2.329,2.329,0,1,0,6.538,2.8,2.327,2.327,0,0,0,4.2,5.119M23.793,20.271a2.375,2.375,0,0,0-2.064-2.52,1.7,1.7,0,0,0-1.4.311,10.894,10.894,0,0,0-1.122,1.417.069.069,0,0,0-.007.026,2.248,2.248,0,0,0,.8,2.371,2.342,2.342,0,0,0,3.793-1.606M8.619,8.719A1.862,1.862,0,0,0,7.6,8.412c-.692-.009-1.385-.022-2.077,0a2.321,2.321,0,0,0-2.247,2.534c0,.058.022.14.062.166.27.174.548.336.87.53a6.589,6.589,0,0,1,.012-.917.58.58,0,0,1,.263-.4.549.549,0,0,1,.469.06.624.624,0,0,1,.178.426c.024.378.008.758.008,1.175.489.05.94.094,1.391.145.185.021.258-.049.322-.231a8.163,8.163,0,0,1,.571-1.383c.356-.618.789-1.193,1.2-1.8M19.4,22.6a3.334,3.334,0,0,1-1.2-2.348L15.863,21.3a5.6,5.6,0,0,0,1.432,3.889,3.367,3.367,0,0,1,2.1-2.59" transform="translate(0 -0.001)"/>
        <path id="Path_105679" data-name="Path 105679" d="M17.921,197.951c-.786-.136-1.507-.2-2.2-.389a11.979,11.979,0,0,1-8.869-8.641,10.711,10.711,0,0,1-.414-3.05c0-.332.163-.537.439-.549s.487.185.491.532a10.375,10.375,0,0,0,.562,3.408,11.044,11.044,0,0,0,8.6,7.518c.346.074.7.106,1.054.154a2.434,2.434,0,0,0,.271,0c-.188-.191-.345-.348-.5-.509a.47.47,0,0,1-.038-.7.462.462,0,0,1,.7.048q.652.643,1.295,1.3a.48.48,0,0,1,0,.762q-.643.653-1.3,1.3a.47.47,0,1,1-.657-.658c.173-.173.359-.332.561-.518" transform="translate(-5.971 -171.785)"/>
        <path id="Path_105680" data-name="Path 105680" d="M199.712,8.894c.167.153.342.3.5.461a.461.461,0,0,1,.019.681.456.456,0,0,1-.681-.032q-.673-.66-1.333-1.334a.467.467,0,0,1,0-.722q.659-.674,1.334-1.333a.472.472,0,0,1,.684-.034.466.466,0,0,1-.038.7c-.179.176-.379.328-.57.491l.068.072c.492.069.991.109,1.477.212a11.977,11.977,0,0,1,9.31,8.087,11.014,11.014,0,0,1,.626,3.726c0,.416-.264.66-.606.546-.257-.086-.308-.3-.331-.541a20.624,20.624,0,0,0-.241-2.194,11.171,11.171,0,0,0-9.583-8.808c-.2-.023-.393-.041-.59-.061l-.043.084" transform="translate(-183.58 -5.979)"/>
        <path id="Path_105681" data-name="Path 105681" d="M154.786,163.374l3.106-3.106c.1-.1.19-.2.291-.289a.468.468,0,0,1,.663-.024.457.457,0,0,1-.007.68q-1.84,1.85-3.69,3.69a.452.452,0,0,1-.7,0q-.452-.437-.888-.889a.457.457,0,0,1-.024-.66.469.469,0,0,1,.683.008c.191.182.365.381.566.593" transform="translate(-142.202 -148.155)"/>
      </g>
    </g>
  </g>
</svg>
