<svg width="32" height="32" viewBox="0 0 32 32" fill="none" xmlns="http://www.w3.org/2000/svg">
<g clip-path="url(#clip0_18_462)">
<path d="M27.8302 11.2733C27.8302 10.9971 28.057 10.7773 28.3262 10.7773C28.6025 10.7773 28.8295 10.9971 28.8295 11.2733V26.3028C28.8295 26.5791 28.6027 26.8061 28.3262 26.8061H19.2977C19.0215 26.8061 18.8017 26.5793 18.8017 26.3028C18.8017 26.0263 19.0215 25.8068 19.2977 25.8068H27.8302V11.2733ZM9.36899 14.3063C9.36899 14.5826 9.14199 14.8023 8.86574 14.8023C8.58949 14.8023 8.36249 14.5828 8.36249 14.3063V11.2733C8.36249 10.9971 8.58924 10.7773 8.86574 10.7773C9.14224 10.7773 9.36899 10.9971 9.36899 11.2733V14.3063Z" fill="black"/>
<path d="M3.52223 26.0905C4.65623 24.8717 5.77598 24.808 7.33498 25.1905L10.2547 25.906C10.68 26.0125 11.013 26.31 11.2115 26.6785C11.3037 26.8557 11.3675 27.047 11.3957 27.2452C11.4027 27.309 11.41 27.38 11.41 27.4507L16.3142 25.9272C16.8952 25.7217 17.4197 25.8847 17.774 26.2177C17.93 26.3667 18.0502 26.544 18.1285 26.7422C18.2135 26.9407 18.2487 27.1535 18.2417 27.3657C18.2205 27.8617 17.9512 28.3577 17.3417 28.6412C15.0527 29.7327 12.6645 30.7457 10.3397 31.7875C10.1767 31.8657 10.0067 31.9152 9.83648 31.9435C9.66648 31.9717 9.49648 31.979 9.31923 31.9577L2.47323 31.3695C2.19698 31.3482 1.99123 31.1072 2.01973 30.831L2.04098 26.7992C2.04098 26.537 2.25348 26.3172 2.50873 26.3032C2.74973 26.282 3.35923 26.2677 3.52223 26.0905V26.0905ZM6.63348 28.613C6.36398 28.606 6.14448 28.372 6.15873 28.0957C6.16573 27.8195 6.39948 27.607 6.67623 27.6212L10.3117 27.77C10.3612 27.7205 10.3827 27.671 10.3967 27.6072C10.418 27.5432 10.418 27.4655 10.4037 27.3875C10.3967 27.3022 10.3682 27.2175 10.3257 27.1467C10.255 27.012 10.1487 26.9057 10.021 26.8775L7.10123 26.1617C5.42148 25.7507 4.99648 26.1192 4.28048 26.75L4.22373 26.7997C3.91898 27.1045 3.45123 27.2107 3.03298 27.26L3.01873 30.4135L9.39698 30.966C9.50323 30.973 9.58848 30.973 9.67323 30.959C9.75823 30.9447 9.85048 30.9165 9.93548 30.874L16.909 27.749C17.157 27.6215 17.3272 27.409 17.2065 27.1187C17.1002 26.8635 16.8735 26.7925 16.6182 26.8777L10.6085 28.7482H10.6015C10.552 28.7625 10.4952 28.7695 10.4455 28.7695L6.63348 28.613Z" fill="black"/>
<path d="M4.69877 23.7522C4.69877 24.0282 4.47202 24.2555 4.20277 24.2555C3.92652 24.2555 3.69952 24.0285 3.69952 23.7522V17.1762C3.69952 16.4677 4.28077 15.8867 4.98952 15.8867H15.8043C16.5128 15.8867 17.094 16.4677 17.094 17.1762V24.4962C17.094 24.7725 16.8673 24.9995 16.5908 24.9995C16.3143 24.9995 16.0948 24.7727 16.0948 24.4962V17.1762C16.0948 17.0205 15.9673 16.8927 15.8043 16.8927H4.98927C4.82627 16.8927 4.69877 17.0205 4.69877 17.1762V23.7522Z" fill="black"/>
<path d="M8.86575 15.8867H11.9275C12.2038 15.8867 12.4235 16.1135 12.4235 16.3897V20.1595C12.4235 20.457 12.2535 20.7265 11.977 20.8467C11.7075 20.967 11.3885 20.9175 11.169 20.7192L10.418 20.032L9.61025 20.7405C9.504 20.8325 9.36925 20.8962 9.2275 20.9175C8.77375 20.9885 8.36975 20.627 8.36975 20.1735V16.39C8.36975 16.1135 8.58925 15.8867 8.86575 15.8867V15.8867ZM11.424 16.8927H9.369V19.628L9.92175 19.1322C10.0705 19.0045 10.2478 18.948 10.425 18.948C10.6023 18.948 10.7865 19.0117 10.921 19.1395L11.424 19.6V16.8927Z" fill="black"/>
<path d="M12.7777 24.7939C12.5015 24.7939 12.2817 24.5672 12.2817 24.2907C12.2817 24.0142 12.5015 23.7944 12.7777 23.7944H14.1595C14.4357 23.7944 14.6627 24.0142 14.6627 24.2907C14.6627 24.5669 14.4357 24.7939 14.1595 24.7939H12.7777Z" fill="black"/>
<path d="M21.6152 16.9209H24.443C24.8542 16.9209 25.2295 17.0911 25.499 17.3604V17.3674C25.7752 17.6366 25.9385 18.0121 25.9385 18.4234V26.3031C25.9385 26.5794 25.7187 26.8064 25.4425 26.8064H20.616C20.3397 26.8064 20.1127 26.5796 20.1127 26.3031V18.4231C20.1127 18.0119 20.283 17.6366 20.5522 17.3671V17.3601H20.5592C20.8285 17.0909 21.204 16.9209 21.6152 16.9209V16.9209ZM24.4427 17.9201H21.6152C21.4735 17.9201 21.353 17.9769 21.2607 18.0691C21.1687 18.1611 21.112 18.2816 21.112 18.4234V25.8069H24.939V18.4231C24.939 18.2814 24.8822 18.1609 24.7975 18.0689C24.705 17.9766 24.5777 17.9201 24.4427 17.9201V17.9201Z" fill="black"/>
<path d="M18.596 8.19141C19.4468 8.19141 20.212 8.53866 20.772 9.09141C21.3248 9.65116 21.672 10.4164 21.672 11.2669C21.672 11.5432 21.4453 11.7629 21.1688 11.7629H16.0238C15.7473 11.7629 15.5275 11.5434 15.5275 11.2669C15.5275 10.4167 15.8678 9.65141 16.4275 9.09141C16.9803 8.53866 17.7528 8.19141 18.596 8.19141V8.19141ZM20.0633 9.79991C19.6875 9.42441 19.1703 9.19041 18.596 9.19041C18.022 9.19041 17.5048 9.42441 17.1293 9.79991C16.874 10.0622 16.6758 10.3949 16.5835 10.7634H20.609C20.5168 10.3952 20.3255 10.0622 20.0633 9.79991V9.79991Z" fill="black"/>
<path fill-rule="evenodd" clip-rule="evenodd" d="M23.7977 22.3628C24.074 22.3628 24.294 22.136 24.294 21.867C24.294 21.5908 24.074 21.3638 23.7977 21.3638C23.5215 21.3638 23.2945 21.5905 23.2945 21.867C23.2947 22.136 23.5215 22.3628 23.7977 22.3628Z" fill="black"/>
<path d="M24.5705 4.44964C24.5705 4.72589 24.3507 4.94564 24.0742 4.94564C23.798 4.94564 23.571 4.72589 23.571 4.44964V2.30989C23.571 2.03364 23.7977 1.80664 24.0742 1.80664H26.6682C26.9445 1.80664 27.1715 2.03339 27.1715 2.30989V6.44089C27.1715 6.71714 26.9447 6.94389 26.6682 6.94389C26.3917 6.94389 26.1722 6.71714 26.1722 6.44089V2.81289H24.5707V4.44964H24.5705Z" fill="black"/>
<path d="M18.596 4.4215L8.08627 12.4995C7.75327 12.7548 7.35652 12.8537 6.97377 12.8042C6.59827 12.7547 6.23652 12.5563 5.98152 12.2303L5.52802 11.6493C5.39327 11.4863 5.30127 11.302 5.25177 11.1035C5.19502 10.9053 5.18077 10.6995 5.20927 10.494C5.23052 10.2815 5.29427 10.083 5.40077 9.90575C5.50002 9.72875 5.63477 9.57275 5.80477 9.44525C5.81177 9.43825 5.82602 9.431 5.83302 9.424L17.682 0.31875C17.9583 0.106 18.277 0 18.596 0C18.9153 0 19.2343 0.106 19.5105 0.31875L31.3953 9.4455C31.5653 9.573 31.7 9.72875 31.799 9.906C31.8983 10.0833 31.962 10.2815 31.9905 10.4943C32.0118 10.6998 31.9975 10.9053 31.948 11.1038C31.8913 11.302 31.799 11.4862 31.6718 11.6495L31.2183 12.2305C30.963 12.5565 30.6018 12.755 30.219 12.8045C29.8365 12.8542 29.4393 12.755 29.1133 12.4998L18.596 4.4215ZM7.47677 11.713L18.284 3.40825C18.4613 3.2665 18.7163 3.2595 18.9008 3.40125L29.7155 11.713C29.829 11.798 29.9635 11.8335 30.0913 11.8123C30.2188 11.798 30.3393 11.7273 30.4313 11.6138L30.8848 11.04C30.9343 10.9762 30.9698 10.9125 30.9838 10.8415C31.005 10.7778 31.005 10.6997 30.998 10.6147C30.9838 10.5297 30.9625 10.4588 30.9343 10.402C30.8988 10.3385 30.8493 10.2888 30.7853 10.2393L18.908 1.10525C18.816 1.03425 18.7095 0.99875 18.596 0.99875C18.4898 0.99875 18.3835 1.03425 18.2913 1.10525L6.44227 10.2107C6.42802 10.2177 6.42102 10.232 6.40677 10.239C6.35002 10.2885 6.30052 10.3382 6.26502 10.4017C6.22952 10.4585 6.20827 10.5293 6.20127 10.6145C6.18702 10.6995 6.19427 10.7775 6.20827 10.8413C6.22952 10.9123 6.26502 10.976 6.31452 11.0398L6.76102 11.6135C6.85327 11.727 6.97377 11.7978 7.10827 11.812C7.23577 11.8333 7.37052 11.798 7.47677 11.713V11.713Z" fill="black"/>
<path d="M0.95675 25.2896H2.08375C2.346 25.2896 2.587 25.3958 2.757 25.5728C2.934 25.7431 3.0405 25.9838 3.0405 26.2458V31.0431C3.0405 31.3053 2.93425 31.5461 2.757 31.7161C2.58675 31.8936 2.34575 31.9998 2.0835 31.9998H0.95675C0.6945 31.9998 0.45375 31.8936 0.2835 31.7163C0.10625 31.5463 0 31.3056 0 31.0433V26.2461C0 25.9838 0.10625 25.7431 0.2835 25.5731C0.4535 25.3958 0.6945 25.2896 0.95675 25.2896ZM2.04125 26.2886H0.9995V31.0006H2.04125V26.2886Z" fill="black"/>
</g>
<defs>
<clipPath id="clip0_18_462">
<rect width="32" height="32" fill="white"/>
</clipPath>
</defs>
</svg>
