<svg xmlns="http://www.w3.org/2000/svg" xmlns:xlink="http://www.w3.org/1999/xlink" width="32" height="32" viewBox="0 0 32 32">
  <defs>
    <clipPath id="clip-path">
      <rect id="Rectangle_12585" data-name="Rectangle 12585" width="27.983" height="28"/>
    </clipPath>
  </defs>
  <g id="Group_37669" data-name="Group 37669" transform="translate(10187 1859)">
    <g id="Rectangle_12544" data-name="Rectangle 12544" transform="translate(-10187 -1859)" stroke="#707070" stroke-width="1" opacity="0">
      <rect width="32" height="32" stroke="none"/>
      <rect x="0.5" y="0.5" width="31" height="31" fill="none"/>
    </g>
    <g id="Group_37701" data-name="Group 37701" transform="translate(-10185 -1857)">
      <g id="Group_37701-2" data-name="Group 37701" clip-path="url(#clip-path)">
        <path id="Path_105530" data-name="Path 105530" d="M27.982,141.127H0v-.907H4.025v-7.214H3.167v-2.7H4.953c0-.577,0-1.12,0-1.664a1.638,1.638,0,0,1,.533-1.3,2.691,2.691,0,0,1,.838-.483c.5-.182,1.027-.312,1.546-.446.2-.05.247-.143.252-.339a1.073,1.073,0,0,0-.292-.858,2.146,2.146,0,0,1-.591-1.352,4.418,4.418,0,0,1,.352-2.634,2.708,2.708,0,0,1,5.029,1.469c-.01.436,0,.876-.053,1.308a2.422,2.422,0,0,1-.688,1.368,1.4,1.4,0,0,0-.134.925.341.341,0,0,0,.183.1c.419.122.84.239,1.26.358a1.956,1.956,0,0,1,1.714,1.735c.664,0,1.338-.021,2.009.009a1.008,1.008,0,0,0,.852-.356c.652-.688,1.333-1.347,2-2.018a.171.171,0,0,0,.024-.047,7.422,7.422,0,0,1-.725-.461,2.553,2.553,0,0,1-1-1.9,5.245,5.245,0,0,1,.126-1.95,2.716,2.716,0,0,1,2.293-1.846,2.648,2.648,0,0,1,2.612,1.355,2.519,2.519,0,0,1,.363,1.327c0,.292,0,.583,0,.875a2.741,2.741,0,0,1-.87,2.032,1.887,1.887,0,0,1,.862,2.056h1.8c.008.124.02.219.02.315,0,1.8,0,3.609,0,5.413a3.129,3.129,0,0,1-2.009,3.088,2.6,2.6,0,0,1-.31.1c-.1.028-.193.051-.331.088.021.263.039.531.066.8.088.888.186,1.776.264,2.665.019.215.145.191.281.191q2.078,0,4.156,0c.2,0,.4-.015.6-.023ZM4.968,134.8v5.419c.33,0,.647.01.962-.008.064,0,.144-.1.18-.168.247-.477.489-.956.72-1.44a.3.3,0,0,1,.315-.192q3.677.007,7.354,0a.3.3,0,0,1,.312.2c.227.476.465.948.708,1.416.041.078.126.183.2.188.315.02.632.009.956.009v-5.427H7.219v-.9h9.448v-.886H4.972v.9H6.289v.885Zm.9-4.523h6.379a1.383,1.383,0,0,1,.32-1.382,1.6,1.6,0,0,1,1.355-.41.794.794,0,0,0-.645-.764c-.539-.165-1.08-.324-1.625-.463a.479.479,0,0,0-.32.1,5.862,5.862,0,0,1-.726.517,1.794,1.794,0,0,1-2.083-.5.405.405,0,0,0-.312-.125c-.555.14-1.1.3-1.652.469a.861.861,0,0,0-.685.819c-.023.57-.006,1.142-.006,1.734M17.606,133.9h3.405a1.4,1.4,0,0,0,1.553-1.554q0-2.528,0-5.055v-.176a7.714,7.714,0,0,1-.6.784q-1.345,1.379-2.725,2.724a.856.856,0,0,0-.293.711c.024.542.007,1.087.007,1.658H17.606Zm1.356-10.814c0,.162-.013.373,0,.581a1.8,1.8,0,0,0,1.63,1.637,1.716,1.716,0,0,0,1.852-1.246,5.823,5.823,0,0,0,.078-1.675,1.715,1.715,0,0,0-1.352-1.53,1.812,1.812,0,0,0-1.879.7,2.188,2.188,0,0,0-.332,1.53m-10.836.017c0,.153-.01.345,0,.535a1.786,1.786,0,0,0,1.627,1.664,1.72,1.72,0,0,0,1.855-1.245,5.789,5.789,0,0,0,.07-1.7,1.622,1.622,0,0,0-1.243-1.465,1.72,1.72,0,0,0-1.861.516,2.081,2.081,0,0,0-.45,1.7M4.054,132.08H18.018v-.874H4.054ZM23.461,128.5c0,.136,0,.244,0,.352-.005,1.293.015,2.588-.024,3.88a2.157,2.157,0,0,1-2.047,2.045c-1.156.04-2.313.018-3.47.023h-.311v.9c.057,0,.1.012.145.012,1.439,0,2.879,0,4.318,0a2.306,2.306,0,0,0,.593-.08,2.251,2.251,0,0,0,1.705-2.286c0-1.54,0-3.079,0-4.619,0-.07-.009-.141-.015-.222Zm-7.574,1.793c.729,0,1.457.009,2.185-.008a.641.641,0,0,0,.4-.167c.981-.964,1.95-1.94,2.922-2.912a1.456,1.456,0,0,0,.145-.163.494.494,0,0,0-.686-.7,1.872,1.872,0,0,0-.223.2q-1.335,1.331-2.665,2.667a.546.546,0,0,1-.428.179c-1.266-.007-2.532,0-3.8,0-.117,0-.267-.016-.343.047-.127.1-.285.266-.286.4s.153.3.278.41c.075.063.226.048.343.048.719,0,1.439,0,2.158,0m4.01,6.332H17.611V140.2h2.642l-.356-3.575M7.052,140.2h7.538c-.132-.266-.239-.507-.371-.733a.314.314,0,0,0-.226-.136q-3.172-.011-6.344,0a.286.286,0,0,0-.214.11c-.135.235-.246.483-.383.76m15.012.023-.361-3.592h-.893c.022.239.042.455.063.671.091.915.18,1.83.279,2.744.007.064.092.165.146.169.242.019.487.008.765.008M9.04,126.074a.751.751,0,0,0,.421.911.832.832,0,0,0,.97-.033.711.711,0,0,0,.352-.873,2.847,2.847,0,0,1-1.743,0" transform="translate(0.001 -113.127)"/>
        <path id="Path_105531" data-name="Path 105531" d="M201.961,0q.008,1.653.016,3.306c0,.391,0,.781,0,1.214h-.339c-1.23,0-2.461.006-3.691-.005a.836.836,0,0,0-.588.219c-.995.841-2,1.671-3.042,2.541V4.527h-3.185V0ZM192.07.918v2.7h3.153V5.344c.666-.553,1.275-1.07,1.9-1.569a.762.762,0,0,1,.435-.157c1.075-.013,2.15-.007,3.225-.007h.282V.918Z" transform="translate(-180.322)"/>
        <rect id="Rectangle_12582" data-name="Rectangle 12582" width="3.581" height="0.863" transform="translate(14.448 1.829)"/>
        <rect id="Rectangle_12583" data-name="Rectangle 12583" width="0.876" height="0.871" transform="translate(12.644 1.819)"/>
        <rect id="Rectangle_12584" data-name="Rectangle 12584" width="0.868" height="0.866" transform="translate(18.966 1.825)"/>
      </g>
    </g>
  </g>
</svg>
