<svg width="32" height="32" viewBox="0 0 32 32" fill="none" xmlns="http://www.w3.org/2000/svg">
<path d="M16 25.269C16.2589 25.269 16.4688 25.0592 16.4688 24.8003C16.4688 24.5414 16.2589 24.3315 16 24.3315C15.7411 24.3315 15.5312 24.5414 15.5312 24.8003C15.5312 25.0592 15.7411 25.269 16 25.269Z" fill="black"/>
<path d="M10.9499 15.1118H2.87947C2.40097 15.1118 2.01172 15.5011 2.01172 15.9796V17.9502C2.01172 18.4287 2.40097 18.8179 2.87947 18.8179H6.82697L7.55272 19.4708C7.71816 19.6197 7.92559 19.6941 8.13309 19.6941C8.34053 19.6941 8.54803 19.6197 8.71347 19.4709L9.43922 18.8179H10.9499C11.4284 18.8179 11.8177 18.4287 11.8177 17.9502V15.9796C11.8177 15.5011 11.4284 15.1118 10.9499 15.1118V15.1118ZM10.8802 17.8804H9.41247C9.19778 17.8804 8.99172 17.9594 8.83209 18.103L8.13309 18.7318L7.43409 18.103C7.27447 17.9594 7.06834 17.8804 6.85372 17.8804H2.94922V16.0493H10.8802V17.8804Z" fill="black"/>
<path d="M30.6055 5.87847H26.7392C26.4612 5.64704 26.1357 5.47135 25.7798 5.36735C25.5942 2.63441 23.3131 0.467285 20.5339 0.467285H20.2161C17.4462 0.467285 15.1713 2.61985 14.9723 5.33972C14.5769 5.43854 14.2161 5.62535 13.9121 5.87847H6.05719C5.79831 5.87847 5.58844 6.08835 5.58844 6.34722C5.58844 6.6061 5.79831 6.81597 6.05719 6.81597H13.1923C13.035 7.15622 12.9466 7.5346 12.9466 7.93341C12.9466 9.4076 14.1459 10.6069 15.6201 10.6069C15.7066 10.6069 15.7927 10.6015 15.8785 10.5932C16.1698 11.9766 16.8558 13.0731 17.9247 13.8641C17.9247 13.8641 17.9186 15.5107 17.9132 15.517C17.9129 15.5173 17.9126 15.5177 17.9123 15.518C17.9072 15.5238 14.2771 16.9573 14.2771 16.9573C13.6511 17.2041 13.14 17.7003 12.8748 18.3188C12.3189 19.6147 12.0314 20.9851 12.0179 22.3934H0.9375V7.27297C0.9375 7.02097 1.1425 6.81597 1.3945 6.81597H4.29156C4.55044 6.81597 4.76031 6.6061 4.76031 6.34722C4.76031 6.08835 4.55044 5.87847 4.29156 5.87847H1.3945C0.625562 5.87847 0 6.50404 0 7.27297V25.8128C0 26.5818 0.625562 27.2073 1.3945 27.2073H12.3829L11.8933 30.5953H10.8356C10.5767 30.5953 10.3668 30.8052 10.3668 31.064C10.3668 31.3229 10.5767 31.5328 10.8356 31.5328H21.1644C21.4233 31.5328 21.6331 31.3229 21.6331 31.064C21.6331 30.8052 21.4233 30.5953 21.1644 30.5953H20.1066L19.6171 27.2073H24.192C24.4509 27.2073 24.6607 26.9975 24.6607 26.7386C24.6607 26.4797 24.4509 26.2698 24.192 26.2698H1.3945C1.1425 26.2698 0.9375 26.0648 0.9375 25.8128V23.331H31.0625V25.8128C31.0625 26.0648 30.8575 26.2698 30.6055 26.2698H26.0671C25.8083 26.2698 25.5984 26.4797 25.5984 26.7386C25.5984 26.9975 25.8083 27.2073 26.0671 27.2073H30.6055C31.3744 27.2073 32 26.5818 32 25.8128V7.27297C32 6.50404 31.3744 5.87847 30.6055 5.87847V5.87847ZM13.3301 27.2073H18.6699L19.1594 30.5953H12.8406L13.3301 27.2073ZM26.7671 7.93347C26.7671 8.89066 25.9884 9.66947 25.0311 9.66947C25.022 9.66947 25.0129 9.66891 25.0038 9.66879C25.1011 8.46766 24.9266 7.2586 24.6784 6.23335C24.7939 6.2096 24.912 6.19747 25.0311 6.19747C25.9884 6.19747 26.7671 6.97622 26.7671 7.93347V7.93347ZM17.1388 5.8646C17.4716 4.70966 18.4502 3.85529 19.6321 3.68797L19.6957 3.67916C20.1465 3.6181 20.6035 3.6181 21.054 3.67916L21.1181 3.68804C22.2985 3.85516 23.2756 4.7041 23.6072 5.85079C23.7192 6.23835 23.8085 6.60541 23.8792 6.95391C22.8441 6.78066 22.0483 6.17516 21.5098 5.14866C21.4331 5.00266 21.2851 4.90835 21.1204 4.8991C20.9561 4.88979 20.798 4.96847 20.7056 5.10497C20.6535 5.18185 19.4359 6.93716 16.8209 7.22979C16.9108 6.72154 17.0263 6.25522 17.1388 5.8646V5.8646ZM20.2161 1.40479H20.5339C22.7621 1.40479 24.6014 3.09972 24.8313 5.26791C24.6933 5.27816 24.5567 5.2991 24.4224 5.33022C23.9224 3.96235 22.7041 2.96572 21.2494 2.75979L21.1801 2.75016C20.6459 2.67772 20.1041 2.67779 19.5702 2.75016L19.5006 2.75979C18.0409 2.96647 16.8187 3.9726 16.32 5.35341C16.1881 5.31779 16.0539 5.29179 15.9176 5.27672C16.1434 3.10429 17.9849 1.40479 20.2161 1.40479V1.40479ZM13.8841 7.93347C13.8841 6.97629 14.6629 6.19747 15.6201 6.19747C15.7727 6.19747 15.922 6.2171 16.0666 6.25554C15.8353 7.22235 15.6493 8.44435 15.7467 9.66447C15.7046 9.66754 15.6624 9.66947 15.6201 9.66947C14.6629 9.66941 13.8841 8.89066 13.8841 7.93347V7.93347ZM16.7007 9.80266C16.6402 9.2611 16.6464 8.7116 16.6931 8.18341C18.9531 8.00172 20.3689 6.86441 21.0346 6.16804C21.9159 7.42054 23.0889 7.82529 24.0335 7.91947C24.3536 12.07 22.3684 13.0615 21.9792 13.3082C21.0129 13.9206 19.7663 13.9287 18.8031 13.3285C17.5845 12.5692 16.8771 11.383 16.7007 9.80266V9.80266ZM21.8928 15.5828C21.4138 15.7791 20.8963 15.882 20.375 15.882C19.8537 15.882 19.3362 15.7791 18.8572 15.5828C18.8604 15.5507 18.8624 14.4095 18.8624 14.4095C19.3427 14.6093 19.8562 14.7098 20.3706 14.7097C20.8867 14.7097 21.4035 14.6087 21.8877 14.4077C21.8877 14.4077 21.8896 15.5507 21.8928 15.5828V15.5828ZM24.8559 22.3935H21.7892V20.6808C21.7892 20.6339 21.8274 20.5958 21.8743 20.5958H24.7708C24.8177 20.5958 24.8558 20.6339 24.8558 20.6808V22.3935H24.8559ZM25.7934 22.3935V20.6808C25.7934 20.117 25.3347 19.6583 24.7709 19.6583H21.8743C21.3105 19.6583 20.8518 20.117 20.8518 20.6808V22.3935H12.9548C12.9683 21.1129 13.231 19.8669 13.7364 18.6883C13.9038 18.2982 14.2261 17.9852 14.621 17.8295C14.621 17.8295 18.2879 16.3807 18.3125 16.3685C18.9558 16.6642 19.6629 16.8195 20.375 16.8195C21.0871 16.8195 21.7942 16.6642 22.4375 16.3685C22.4621 16.3807 26.1289 17.8295 26.1289 17.8295C26.5238 17.9852 26.8463 18.2982 27.0135 18.6883C27.5189 19.8669 27.7816 21.1129 27.7951 22.3935H25.7934ZM31.0625 22.3935H28.7321C28.7185 20.9852 28.4309 19.6148 27.8752 18.3188C27.6099 17.7004 27.0988 17.2042 26.4728 16.9573C26.4728 16.9573 22.8428 15.5239 22.8376 15.5181C22.8373 15.5177 22.8369 15.5173 22.8366 15.517C22.8313 15.5106 22.8242 13.8743 22.8237 13.865C23.1527 13.6209 23.4479 13.3457 23.7041 13.0436C23.7044 13.0433 23.7046 13.0429 23.7049 13.0425C24.0117 12.6807 24.269 12.2727 24.4699 11.83C24.6497 11.4335 24.7794 11.0212 24.8689 10.6016C24.9229 10.6048 24.9771 10.607 25.0311 10.607C26.5053 10.607 27.7046 9.40766 27.7046 7.93347C27.7046 7.53466 27.6162 7.15629 27.4589 6.81604H30.6054C30.8574 6.81604 31.0624 7.02104 31.0624 7.27304V22.3935H31.0625Z" fill="black"/>
<path d="M11.8177 10.0885C11.8177 9.60995 11.4284 9.2207 10.9499 9.2207H2.87947C2.40097 9.2207 2.01172 9.60995 2.01172 10.0885V12.0591C2.01172 12.5376 2.40097 12.9268 2.87947 12.9268H4.39016L5.11591 13.5798C5.28134 13.7286 5.48884 13.803 5.69628 13.803C5.90378 13.803 6.11122 13.7286 6.27666 13.5798L7.00241 12.9268H10.9499C11.4284 12.9268 11.8177 12.5376 11.8177 12.0591V10.0885ZM10.8802 11.9893H6.97566C6.76097 11.9893 6.55491 12.0684 6.39528 12.212L5.69628 12.8408L4.99728 12.212C4.83766 12.0684 4.63159 11.9893 4.41691 11.9893H2.94922V10.1583H10.8802V11.9893Z" fill="black"/>
</svg>
