<svg id="Group_37824" data-name="Group 37824" xmlns="http://www.w3.org/2000/svg" width="32" height="32" viewBox="0 0 32 32">
  <path id="Path_105624" data-name="Path 105624" d="M44.92,43l-1.438-.379-.825-1.193a1.008,1.008,0,0,0-1.652,0l-.825,1.193L38.742,43a.988.988,0,0,0-.7.657.97.97,0,0,0,.182.922l.917,1.1-.066,1.405a.981.981,0,0,0,.4.833,1.01,1.01,0,0,0,.941.137l1.412-.506,1.411.506a1.006,1.006,0,0,0,.942-.137.981.981,0,0,0,.4-.835l-.066-1.4.916-1.1a.97.97,0,0,0,.183-.922A.988.988,0,0,0,44.92,43ZM43.54,45.14a.547.547,0,0,0-.126.377l.069,1.461-1.467-.525a.547.547,0,0,0-.369,0l-1.467.525.069-1.461a.547.547,0,0,0-.126-.377l-.937-1.122,1.471-.387a.547.547,0,0,0,.31-.219l.866-1.251.866,1.252a.547.547,0,0,0,.31.219l1.471.387Z" transform="translate(-18.04 -19.398)"/>
  <path id="Path_105625" data-name="Path 105625" d="M29.867,16h-.533v-.533a.533.533,0,0,0-1.067,0V16H19.733v-.533a.533.533,0,0,0-1.067,0V16h-.533A2.133,2.133,0,0,0,16,18.133v1.093c-.178-.016-.356-.027-.533-.027H15.2a3.36,3.36,0,0,0-1.333-.907v-.972a5.2,5.2,0,0,0,1.944-2.149A7.242,7.242,0,0,0,16.5,12.74a2.138,2.138,0,0,0,1.629-2.074V8.591h0V5.333a2.67,2.67,0,0,0-2.667-2.667h-.491l.8-.995A1.029,1.029,0,0,0,14.969,0H8.533A5.339,5.339,0,0,0,3.2,5.333V8.59h0v2.076a2.139,2.139,0,0,0,1.634,2.075,6.147,6.147,0,0,0,2.633,4.576v.976a3.36,3.36,0,0,0-1.333.907H5.867A5.874,5.874,0,0,0,0,25.067V28.8a1.6,1.6,0,0,0,1.6,1.6H16.076A2.133,2.133,0,0,0,18.133,32H29.867A2.133,2.133,0,0,0,32,29.867V18.133A2.133,2.133,0,0,0,29.867,16ZM18.133,17.067h.533V17.6a.533.533,0,0,0,1.067,0v-.533h8.533V17.6a.533.533,0,0,0,1.067,0v-.533h.533a1.067,1.067,0,0,1,1.067,1.067V19.2H17.067V18.133A1.067,1.067,0,0,1,18.133,17.067Zm-3.745,2.815c-.1.677-.9,1.123-1.374,1.333a3.692,3.692,0,0,0-.773-.725,3.012,3.012,0,0,0,1.333-1.162,2.231,2.231,0,0,1,.814.554ZM8.533,1.067H14.89l-1.28,1.6H11.733a.533.533,0,1,0,0,1.067h3.733a1.6,1.6,0,0,1,1.6,1.6V7.028a1.518,1.518,0,0,0-.274-.072,1.6,1.6,0,0,0-1.188.274,2.313,2.313,0,0,0-1.541-.994,6.205,6.205,0,0,1-2.738-1.2A1.047,1.047,0,0,0,10,5.04a6.2,6.2,0,0,1-2.726,1.2,2.315,2.315,0,0,0-1.387.792,2.434,2.434,0,0,0-.157.205,1.617,1.617,0,0,0-1.194-.277,1.539,1.539,0,0,0-.27.071V5.333A4.271,4.271,0,0,1,8.533,1.067Zm-2.667,11.2a.533.533,0,0,0-.533-.533,1.067,1.067,0,0,1-1.067-1.067V8.592a.58.58,0,0,1,.441-.582A.617.617,0,0,1,4.8,8a.53.53,0,0,1,.533.533.533.533,0,1,0,1.067,0,1.241,1.241,0,0,1,.3-.812,1.254,1.254,0,0,1,.751-.433,6.928,6.928,0,0,0,3.2-1.427,7.179,7.179,0,0,0,3.233,1.428,1.256,1.256,0,0,1,1.05,1.245.533.533,0,1,0,1.067,0,.533.533,0,0,1,.623-.524.579.579,0,0,1,.443.582v2.075A1.067,1.067,0,0,1,16,11.733a.533.533,0,0,0-.533.533,6.156,6.156,0,0,1-.611,2.429,4.3,4.3,0,0,1-4.189,2.371C5.942,17.067,5.867,12.461,5.867,12.267Zm4.8,5.867A6.7,6.7,0,0,0,12.8,17.81v.7a2.094,2.094,0,0,1-2.133,1.223A2.094,2.094,0,0,1,8.533,18.51v-.7a6.714,6.714,0,0,0,2.133.325ZM7.758,19.327a3.012,3.012,0,0,0,1.333,1.162,3.692,3.692,0,0,0-.773.725c-.48-.21-1.271-.655-1.374-1.333a2.231,2.231,0,0,1,.814-.554ZM1.067,28.8V25.067a4.805,4.805,0,0,1,4.8-4.8h.074c.395,1.493,2.351,2.085,2.443,2.112a.533.533,0,0,0,.627-.274,3.37,3.37,0,0,1,1.656-1.269,3.352,3.352,0,0,1,1.653,1.269.533.533,0,0,0,.627.274c.092-.027,2.049-.62,2.443-2.112h.077A4.866,4.866,0,0,1,16,20.3v9.035H1.6A.533.533,0,0,1,1.067,28.8Zm28.8,2.133H18.133a1.067,1.067,0,0,1-1.067-1.067v-9.6H30.933v9.6A1.067,1.067,0,0,1,29.867,30.933Z"/>
</svg>
