<svg width="32" height="32" viewBox="0 0 32 32" fill="none" xmlns="http://www.w3.org/2000/svg">
<g clip-path="url(#clip0_24_948)">
<path d="M17.2327 10.2457H21.1419V12.0002C21.1419 12.8823 21.8596 13.6 22.7417 13.6H23.1552C23.4497 13.6 23.6885 13.3612 23.6885 13.0667C23.6885 12.7722 23.4497 12.5334 23.1552 12.5334H22.7417C22.4477 12.5334 22.2084 12.2942 22.2084 12.0002V6.95994H24.4791V11.8347C24.4791 12.1292 24.7179 12.368 25.0124 12.368C25.3069 12.368 25.5456 12.1292 25.5456 11.8347V6.42674C25.5456 6.13224 25.3069 5.89347 25.0124 5.89347H20.1145C17.8478 5.89347 17.8361 2.48743 20.1145 2.48743H28.3285C30.5953 2.48743 30.607 5.89347 28.3285 5.89347H27.4637C27.1692 5.89347 26.9304 6.13224 26.9304 6.42674C26.9304 6.72124 27.1692 6.96001 27.4637 6.96001H28.3285C32.0071 6.96001 32.0092 1.4209 28.3285 1.4209H20.1146C16.4207 1.4209 16.4433 6.96001 20.1146 6.96001H21.1419V9.17919H17.2327C16.9382 9.17919 16.6995 9.41796 16.6995 9.71246C16.6995 10.007 16.9382 10.2457 17.2327 10.2457V10.2457Z" fill="black"/>
<path d="M31.998 23.0226C31.9955 22.9235 32.2141 23.7709 28.7553 10.7644C28.6214 10.261 28.3089 9.82489 27.8751 9.53632C27.6297 9.37314 27.2988 9.43974 27.1357 9.68491C26.9726 9.93008 27.0391 10.2612 27.2843 10.4243C27.5013 10.5686 27.6577 10.7868 27.7245 11.0384L30.7718 22.5016H3.62148C3.32698 22.5016 3.08821 22.7404 3.08821 23.0349C3.08821 23.3294 3.32698 23.5682 3.62148 23.5682H30.9321V28.805C30.9321 29.3931 30.4536 29.8715 29.8655 29.8715H2.13566C1.54761 29.8715 1.06913 29.3931 1.06913 28.805V23.1046L4.27666 11.0385C4.40071 10.5719 4.82466 10.2459 5.30747 10.2459H6.54071C6.54585 10.3626 6.55038 10.4793 6.55665 10.5959C6.57244 10.89 6.82288 11.1157 7.11784 11.0997C7.41187 11.0839 7.63744 10.8326 7.62165 10.5385C7.47086 7.73915 7.66464 4.92917 8.18218 2.37062L9.45715 2.83016C9.57767 2.87356 9.70958 2.87222 9.82917 2.8263L11.5499 2.16551L13.3217 2.82796C13.4369 2.87102 13.5635 2.87296 13.68 2.83336L14.7574 2.46714C14.1772 5.50756 14.0352 8.87381 14.3525 12.1036H6.53725C6.24275 12.1036 6.00398 12.3424 6.00398 12.6369C6.00398 12.9314 6.24275 13.1701 6.53725 13.1701H15.7748C16.0693 13.1701 16.3081 12.9314 16.3081 12.6369C16.3081 12.3424 16.0693 12.1036 15.7748 12.1036H15.4254C15.072 8.6229 15.2689 4.97563 15.9896 1.77923C16.0809 1.37414 15.6927 1.02279 15.2978 1.15704L13.5169 1.76236L11.7341 1.09578C11.6121 1.05019 11.4776 1.05079 11.3561 1.09745L9.63199 1.75956L7.9692 1.1603C7.66771 1.05165 7.33861 1.2319 7.26816 1.54466C6.73102 3.92669 6.47366 6.54056 6.50992 9.17937H5.3074C4.34179 9.17937 3.49403 9.83115 3.24586 10.7644C-0.211442 23.7689 0.00259823 22.9266 0.00259823 23.0348V28.8049C0.00259823 29.9811 0.959479 30.938 2.13566 30.938H29.8655C31.0417 30.938 31.9986 29.9811 31.9986 28.8049C31.9986 28.6522 31.9989 23.0632 31.998 23.0226V23.0226Z" fill="black"/>
<path d="M14.4648 14.8042H5.91934C5.67364 14.8042 5.45973 14.972 5.40134 15.2107L4.13223 20.395C4.04998 20.7309 4.30481 21.055 4.65024 21.055H15.7339C16.0797 21.055 16.334 20.7305 16.2519 20.395L14.9828 15.2107C14.9244 14.972 14.7104 14.8042 14.4648 14.8042V14.8042ZM5.32975 19.9885L6.33776 15.8707H14.0464L15.0544 19.9885H5.32975Z" fill="black"/>
<path d="M22.4286 27.5084C23.3437 27.5084 24.0881 26.7638 24.0881 25.8487C24.0881 25.5542 23.8494 25.3154 23.5549 25.3154C23.2604 25.3154 23.0216 25.5542 23.0216 25.8487C23.0216 26.1757 22.7556 26.4418 22.4286 26.4418H9.57256C9.24553 26.4418 8.9795 26.1757 8.9795 25.8487C8.9795 25.5542 8.74073 25.3154 8.44623 25.3154C8.15173 25.3154 7.91296 25.5542 7.91296 25.8487C7.91296 26.7638 8.65747 27.5084 9.57256 27.5084H22.4286Z" fill="black"/>
<path d="M23.0666 15.3375C23.0666 15.043 22.8278 14.8042 22.5333 14.8042H21.45C21.1555 14.8042 20.9167 15.043 20.9167 15.3375C20.9167 15.632 21.1555 15.8707 21.45 15.8707H22.5333C22.8278 15.8707 23.0666 15.632 23.0666 15.3375Z" fill="black"/>
<path d="M19.3352 15.3375C19.3352 15.043 19.0965 14.8042 18.802 14.8042H17.7187C17.4242 14.8042 17.1854 15.043 17.1854 15.3375C17.1854 15.632 17.4242 15.8707 17.7187 15.8707H18.802C19.0965 15.8707 19.3352 15.632 19.3352 15.3375Z" fill="black"/>
<path d="M26.7979 15.3375C26.7979 15.043 26.5592 14.8042 26.2647 14.8042H25.1813C24.8868 14.8042 24.6481 15.043 24.6481 15.3375C24.6481 15.632 24.8868 15.8707 25.1813 15.8707H26.2647C26.5592 15.8707 26.7979 15.632 26.7979 15.3375Z" fill="black"/>
<path d="M22.072 19.1803H23.1552C23.4497 19.1803 23.6885 18.9415 23.6885 18.647C23.6885 18.3525 23.4497 18.1138 23.1552 18.1138H22.072C21.7775 18.1138 21.5387 18.3525 21.5387 18.647C21.5387 18.9415 21.7775 19.1803 22.072 19.1803Z" fill="black"/>
<path d="M18.3405 19.1803H19.4238C19.7183 19.1803 19.9571 18.9415 19.9571 18.647C19.9571 18.3525 19.7183 18.1138 19.4238 18.1138H18.3405C18.046 18.1138 17.8073 18.3525 17.8073 18.647C17.8073 18.9415 18.0461 19.1803 18.3405 19.1803Z" fill="black"/>
<path d="M25.8033 19.1803H26.8866C27.181 19.1803 27.4198 18.9415 27.4198 18.647C27.4198 18.3525 27.181 18.1138 26.8866 18.1138H25.8033C25.5088 18.1138 25.27 18.3525 25.27 18.647C25.27 18.9415 25.5088 19.1803 25.8033 19.1803Z" fill="black"/>
</g>
<defs>
<clipPath id="clip0_24_948">
<rect width="32" height="32" fill="white"/>
</clipPath>
</defs>
</svg>
