<svg xmlns="http://www.w3.org/2000/svg" width="32" height="31.968" viewBox="0 0 32 31.968">
  <g id="Group_38019" data-name="Group 38019" transform="translate(0 -0.255)">
    <g id="Group_38020" data-name="Group 38020" transform="translate(0 0.255)">
      <g id="Group_38019-2" data-name="Group 38019" transform="translate(0 0)">
        <path id="Path_106005" data-name="Path 106005" d="M372.982,107.557a.477.477,0,0,0,.544-.4,1.613,1.613,0,0,0-1.731-1.85.478.478,0,0,0,.08.953.657.657,0,0,1,.705.754A.478.478,0,0,0,372.982,107.557Z" transform="translate(-348.183 -98.745)"/>
        <path id="Path_106006" data-name="Path 106006" d="M374.793,81.778a.477.477,0,0,0,.544-.4,3.187,3.187,0,0,0-3.419-3.656.478.478,0,1,0,.08.953,2.231,2.231,0,0,1,2.394,2.559A.478.478,0,0,0,374.793,81.778Z" transform="translate(-348.328 -72.884)"/>
        <path id="Path_106007" data-name="Path 106007" d="M377.182,55.142a.477.477,0,0,0,.544-.4,4.779,4.779,0,0,0-5.127-5.482.478.478,0,0,0,.08.953,3.823,3.823,0,0,1,4.1,4.386A.478.478,0,0,0,377.182,55.142Z" transform="translate(-349.083 -46.116)"/>
        <path id="Path_106008" data-name="Path 106008" d="M341.481,293.578a1.434,1.434,0,1,0,1.434-1.433A1.435,1.435,0,0,0,341.481,293.578Zm1.433-.477a.477.477,0,1,1-.477.477A.478.478,0,0,1,342.914,293.1Z" transform="translate(-320.181 -273.938)"/>
        <path id="Path_106009" data-name="Path 106009" d="M25.741.255a6.27,6.27,0,0,0-6.009,4.508H3.287A3.291,3.291,0,0,0,0,8.05V23.532a.468.468,0,0,0,.937,0V10.345a3.277,3.277,0,0,0,2.351.993H21.759a6.263,6.263,0,0,0,5.974,1.113v4.473h-5.16a2.98,2.98,0,0,0,0,5.96h5.16v6.881a1.526,1.526,0,0,1-1.524,1.524H2.46A1.526,1.526,0,0,1,.937,29.763v-4.1a.468.468,0,0,0-.937,0v4.1a2.463,2.463,0,0,0,2.46,2.46H26.209a2.463,2.463,0,0,0,2.46-2.46v-6.9a1.341,1.341,0,0,0,1.1-1.318v-3.28a1.341,1.341,0,0,0-1.1-1.318v-4.9a6.267,6.267,0,0,0,1.987-1.66.468.468,0,0,0-.735-.58,5.3,5.3,0,1,1,.92-1.769.468.468,0,0,0,.9.268,6.263,6.263,0,0,0-6-8.052Zm3.1,18.008v3.28a.4.4,0,0,1-.4.4H22.573a2.043,2.043,0,1,1,0-4.086h5.861a.4.4,0,0,1,.4.4Zm-8-7.862H3.287a2.351,2.351,0,1,1,0-4.7H19.535a6.281,6.281,0,0,0,.038,1.882H4.062a.468.468,0,1,0,0,.937H19.811A6.253,6.253,0,0,0,20.839,10.4Z" transform="translate(0 -0.255)"/>
      </g>
    </g>
  </g>
</svg>
