<svg xmlns="http://www.w3.org/2000/svg" width="60" height="49.367" viewBox="0 0 60 49.367">
  <g id="Group_37922" data-name="Group 37922" transform="translate(0 -0.41)">
    <path id="Path_105720" data-name="Path 105720" d="M150.506,50.561a6.331,6.331,0,1,0-4.479-1.852,6.331,6.331,0,0,0,4.479,1.852Zm-3.078-9.409a4.324,4.324,0,1,1-1.287,3.077A4.352,4.352,0,0,1,147.428,41.152Zm0,0" transform="translate(-125.903 -32.843)"/>
    <path id="Path_105721" data-name="Path 105721" d="M155.492,262.412a6.335,6.335,0,1,0-4.479,1.855A6.335,6.335,0,0,0,155.492,262.412Zm-7.557-7.557a4.339,4.339,0,1,1-1.281,3.078,4.353,4.353,0,0,1,1.281-3.078Zm0,0" transform="translate(-126.346 -219.204)"/>
    <path id="Path_105722" data-name="Path 105722" d="M257.62,157.7a6.329,6.329,0,1,0-4.479-1.852A6.33,6.33,0,0,0,257.62,157.7Zm-3.078-9.409a4.34,4.34,0,1,1-1.28,3.078,4.353,4.353,0,0,1,1.28-3.078Zm0,0" transform="translate(-219.446 -126.283)"/>
    <path id="Path_105723" data-name="Path 105723" d="M39.426,146.364a6.335,6.335,0,1,0,8.959,0A6.335,6.335,0,0,0,39.426,146.364Zm7.557,7.557a4.35,4.35,0,1,1,0-6.155,4.351,4.351,0,0,1,0,6.155Zm0,0" transform="translate(-32.916 -125.818)"/>
    <path id="Path_105724" data-name="Path 105724" d="M156.6,157.429a4.976,4.976,0,1,0,7.037,0A4.976,4.976,0,0,0,156.6,157.429Zm5.636,5.636a2.994,2.994,0,1,1,.877-2.117,2.994,2.994,0,0,1-.877,2.117Zm0,0" transform="translate(-135.509 -135.859)"/>
    <path id="Path_105725" data-name="Path 105725" d="M58.969,38.932h-13.9A24.664,24.664,0,1,0,24.123,49.739a1.036,1.036,0,0,0,.168.038H58.968A1.073,1.073,0,0,0,60,48.718V39.891a.986.986,0,0,0-1.031-.959ZM51.678,40.95v6.809H47.39V40.95Zm-6.3,0v6.809H41.085v-4.3a27.691,27.691,0,0,0,2.458-2.5Zm-6.3,6.809H34.406a31.256,31.256,0,0,0,4.662-2.684Zm-37.05-22.7A22.643,22.643,0,1,1,24.66,47.7,22.668,22.668,0,0,1,2.018,25.057Zm55.965,22.7H53.7V40.95h4.287Zm0,0" transform="translate(0 0)"/>
  </g>
</svg>
