<svg xmlns="http://www.w3.org/2000/svg" xmlns:xlink="http://www.w3.org/1999/xlink" width="32" height="32" viewBox="0 0 32 32">
  <defs>
    <clipPath id="clip-path">
      <rect id="Rectangle_12588" data-name="Rectangle 12588" width="27.994" height="28"/>
    </clipPath>
  </defs>
  <g id="Group_37672" data-name="Group 37672" transform="translate(10187 1859)">
    <g id="Rectangle_12544" data-name="Rectangle 12544" transform="translate(-10187 -1859)" stroke="#707070" stroke-width="1" opacity="0">
      <rect width="32" height="32" stroke="none"/>
      <rect x="0.5" y="0.5" width="31" height="31" fill="none"/>
    </g>
    <g id="Group_37704" data-name="Group 37704" transform="translate(-10185 -1857)">
      <g id="Group_37704-2" data-name="Group 37704" clip-path="url(#clip-path)">
        <path id="Path_105540" data-name="Path 105540" d="M1.153,288.549a1.461,1.461,0,0,1-1.114-1.115,2.005,2.005,0,0,1-.033-.407q0-2.214,0-4.428a1.4,1.4,0,0,1,1.515-1.518q3.142-.007,6.285,0a1.411,1.411,0,0,1,1.535,1.53c0,1.394-.021,2.788.009,4.181a1.579,1.579,0,0,1-1.143,1.755ZM7.58,287.6c-.078-.074-.126-.124-.178-.169-.663-.571-1.329-1.137-1.987-1.713-.216-.189-.411-.389-.737-.261-.052.02-.127-.026-.187-.016a.74.74,0,0,0-.338.094c-.754.632-1.5,1.277-2.243,1.919a1.917,1.917,0,0,0-.135.147Zm-5.832-5.57c.954.819,1.848,1.58,2.733,2.352a.237.237,0,0,0,.383,0c.85-.744,1.71-1.476,2.569-2.21a.486.486,0,0,1,.152-.057l-.069-.085Zm4.042,2.781,2.595,2.229v-4.459l-2.595,2.23M.955,282.584v4.464l2.6-2.233-2.6-2.231" transform="translate(-0.004 -260.549)"/>
        <path id="Path_105541" data-name="Path 105541" d="M223.477,168.337c-.034.092-.071.182-.1.275a1.825,1.825,0,0,1-1.715,1.256q-4.481.01-8.962,0a1.859,1.859,0,0,1,0-3.716q4.481-.015,8.962,0a1.826,1.826,0,0,1,1.714,1.256c.032.093.069.183.1.275Zm-6.3.6c1.476,0,2.952,0,4.428,0a.929.929,0,1,0,.008-1.857q-4.441-.007-8.883,0a.872.872,0,0,0-.745.389.889.889,0,0,0-.073.957.9.9,0,0,0,.865.515h4.4" transform="translate(-195.483 -154.008)"/>
        <path id="Path_105542" data-name="Path 105542" d="M223.408,27.666c-.041.118-.076.24-.125.355a1.768,1.768,0,0,1-1.625,1.18c-.873.034-1.748.013-2.622.014q-3.127,0-6.255,0a1.865,1.865,0,1,1-.088-3.728c1.748-.012,3.5,0,5.244,0h3.414a1.877,1.877,0,0,1,2.02,1.509.462.462,0,0,0,.037.073Zm-6.3.615c1.467,0,2.933,0,4.4,0a.921.921,0,0,0,.963-.909.946.946,0,0,0-.954-.954c-.064,0-.128,0-.191,0h-8.445c-.091,0-.183,0-.273.005a.932.932,0,0,0,.128,1.859c1.458,0,2.915,0,4.373,0" transform="translate(-195.414 -23.619)"/>
        <path id="Path_105543" data-name="Path 105543" d="M223.477,308.843a4.5,4.5,0,0,1-.223.583,1.784,1.784,0,0,1-1.643.994q-4.438.015-8.877,0a1.844,1.844,0,0,1-1.848-1.868,1.824,1.824,0,0,1,1.828-1.852c2.012-.019,4.024-.007,6.036-.008h2.677a1.861,1.861,0,0,1,2.017,1.508c0,.016.022.028.033.042Zm-6.288-1.217h-1.312c-1.039,0-2.077-.005-3.116,0a.9.9,0,0,0-.942.95.933.933,0,0,0,1.016.912q2.145,0,4.291,0h4.4a.937.937,0,0,0,.939-.576.919.919,0,0,0-.877-1.287c-1.467-.009-2.933,0-4.4,0" transform="translate(-195.483 -284.288)"/>
        <path id="Path_105544" data-name="Path 105544" d="M4.673,0Q6.259,0,7.844,0A1.4,1.4,0,0,1,9.338,1.489q.009,2.242,0,4.484A1.4,1.4,0,0,1,7.849,7.466q-3.171.01-6.341,0A1.4,1.4,0,0,1,0,5.937Q0,3.722,0,1.507A1.4,1.4,0,0,1,1.5,0Q3.088,0,4.673,0m2.92.951H1.747L4.673,3.462,7.593.951m0,5.563C6.832,5.861,6.128,5.26,5.429,4.652c-.219-.19-.415-.413-.754-.277-.053.021-.128-.017-.189-.007a.728.728,0,0,0-.331.088c-.65.542-1.289,1.1-1.93,1.65-.141.121-.28.244-.467.408Zm.787-.558V1.509L5.79,3.734,8.378,5.956M.953,1.5V5.967l2.6-2.234L.953,1.5" transform="translate(-0.003 0)"/>
        <path id="Path_105545" data-name="Path 105545" d="M4.676,148.072c-1.057,0-2.114,0-3.171,0a1.4,1.4,0,0,1-1.5-1.5q0-2.228,0-4.456a1.393,1.393,0,0,1,1.5-1.5q3.17,0,6.341,0A1.392,1.392,0,0,1,9.335,142.1q.009,2.241,0,4.483a1.4,1.4,0,0,1-1.489,1.489c-1.057,0-2.114,0-3.17,0m2.9-6.5H1.755l2.916,2.5,2.908-2.5m-5.821,5.544h5.82c-.724-.622-1.408-1.207-2.089-1.8a1.091,1.091,0,0,0-.844-.356,1.015,1.015,0,0,0-.728.294c-.059.057-.124.107-.186.16l-1.974,1.7m6.63-5.007-2.6,2.236,2.6,2.232Zm-4.839,2.235-2.6-2.229v4.46l2.6-2.231" transform="translate(0 -130.343)"/>
        <path id="Path_105546" data-name="Path 105546" d="M148.631,166.148c.319,0,.637-.007.955,0a.874.874,0,0,1,.892.824c.03.69.031,1.383,0,2.073a.876.876,0,0,1-.919.825q-.928.011-1.856,0a.91.91,0,0,1-.936-.906q-.029-.955,0-1.911a.916.916,0,0,1,.963-.907c.3,0,.6,0,.9,0Zm-.924,2.78h1.839V167.1h-1.839Z" transform="translate(-136.034 -154.01)"/>
        <path id="Path_105547" data-name="Path 105547" d="M148.634,29.192c-.309,0-.619.008-.928,0a.909.909,0,0,1-.937-.9q-.029-.955,0-1.911a.915.915,0,0,1,.934-.911q.928-.016,1.856,0a.9.9,0,0,1,.929.882c.025.654.024,1.311,0,1.965a.891.891,0,0,1-.928.88c-.309.01-.619,0-.928,0m-.924-.948h1.836v-1.83h-1.836Z" transform="translate(-136.035 -23.597)"/>
        <path id="Path_105548" data-name="Path 105548" d="M148.664,310.4c-.3,0-.6,0-.9,0a.935.935,0,0,1-.97-.963c-.011-.61-.013-1.22,0-1.829a.91.91,0,0,1,.934-.935q.928-.018,1.856,0a.893.893,0,0,1,.936.9c.021.636.021,1.275,0,1.911a.915.915,0,0,1-.955.916c-.3.007-.6,0-.9,0m.909-2.777h-1.827v1.829h1.827Z" transform="translate(-136.063 -284.268)"/>
      </g>
    </g>
  </g>
</svg>
