<svg id="Group_37958212" data-name="Group 37958212" xmlns="http://www.w3.org/2000/svg" width="32" height="32" viewBox="0 0 32 32">
  <path id="Path_105776" data-name="Path 105776" d="M32,14.184v3.632a1.67,1.67,0,0,1-1.668,1.668H27.877a12.31,12.31,0,0,1-1.016,2.449L28.6,23.67a1.67,1.67,0,0,1,0,2.359L26.029,28.6l-.046.044a.5.5,0,0,1-.68-.733l.018-.018,2.569-2.569a.669.669,0,0,0,0-.945l-2.006-2.006a.5.5,0,0,1-.077-.607,11.3,11.3,0,0,0,1.2-2.9.5.5,0,0,1,.484-.375h2.835A.669.669,0,0,0,31,17.816V14.184a.669.669,0,0,0-.668-.668H27.5a.5.5,0,0,1-.484-.375,11.312,11.312,0,0,0-1.2-2.9.5.5,0,0,1,.077-.607l2.006-2.006a.669.669,0,0,0,0-.945L25.322,4.109a.672.672,0,0,0-.945,0L22.371,6.115a.5.5,0,0,1-.607.077,11.3,11.3,0,0,0-2.9-1.2.5.5,0,0,1-.375-.484V1.668A.669.669,0,0,0,17.816,1H14.184a.669.669,0,0,0-.668.668V4.5a.5.5,0,0,1-.375.484,11.31,11.31,0,0,0-2.9,1.2.5.5,0,0,1-.607-.077L7.623,4.109a.672.672,0,0,0-.945,0L4.109,6.678a.669.669,0,0,0,0,.945L6.115,9.629a.5.5,0,0,1,.077.607,11.3,11.3,0,0,0-1.2,2.9.5.5,0,0,1-.484.375H1.668A.669.669,0,0,0,1,14.184v3.632a.669.669,0,0,0,.668.668H4.5a.5.5,0,0,1,.484.375,11.311,11.311,0,0,0,1.2,2.9.5.5,0,0,1-.077.607L4.109,24.377a.669.669,0,0,0,0,.945l2.569,2.569.018.018a.5.5,0,1,1-.68.733L5.97,28.6,3.4,26.029a1.67,1.67,0,0,1,0-2.36l1.737-1.737a12.31,12.31,0,0,1-1.016-2.449H1.668A1.67,1.67,0,0,1,0,17.816V14.184a1.67,1.67,0,0,1,1.668-1.668H4.123a12.306,12.306,0,0,1,1.016-2.449L3.4,8.33a1.671,1.671,0,0,1,0-2.36L5.971,3.4a1.672,1.672,0,0,1,2.359,0l1.737,1.737a12.31,12.31,0,0,1,2.449-1.016V1.668A1.67,1.67,0,0,1,14.184,0h3.633a1.67,1.67,0,0,1,1.668,1.668V4.123a12.306,12.306,0,0,1,2.449,1.016L23.67,3.4a1.672,1.672,0,0,1,2.36,0L28.6,5.97a1.67,1.67,0,0,1,0,2.36l-1.737,1.737a12.311,12.311,0,0,1,1.016,2.449h2.454A1.67,1.67,0,0,1,32,14.184Zm-9.912,7.03a.5.5,0,0,0,.7-.1,8.5,8.5,0,1,0-13.577,0,.5.5,0,1,0,.8-.6,7.5,7.5,0,1,1,11.981,0A.5.5,0,0,0,22.088,21.214Zm1.007,1.608a5.322,5.322,0,0,1,1.411,3.609V31.5a.5.5,0,0,1-.5.5H7.994a.5.5,0,0,1-.5-.5V26.431a5.359,5.359,0,0,1,4.859-5.32.5.5,0,0,1,.514.323l.91,2.429.677,1.777.354-1.877-1.049-1.935a.5.5,0,0,1,.44-.738H17.8a.5.5,0,0,1,.44.738l-1.049,1.935.354,1.877.678-1.78.909-2.426a.5.5,0,0,1,.514-.323,5.333,5.333,0,0,1,3.447,1.711ZM15.424,31,12.84,24.216l-.771-2.058a4.379,4.379,0,0,0-3.575,4.274V31ZM16,29.7l.867-2.277-.69-3.653a.5.5,0,0,1,.052-.331l.734-1.353H15.037l.734,1.353a.5.5,0,0,1,.052.331l-.69,3.653Zm7.506-3.272a4.379,4.379,0,0,0-3.575-4.274l-.77,2.056L16.576,31h6.93ZM16,11.457a4.608,4.608,0,1,1-4.608,4.608A4.613,4.613,0,0,1,16,11.457Zm0,1a3.608,3.608,0,1,0,3.608,3.608A3.612,3.612,0,0,0,16,12.457Z"/>
</svg>
