<svg xmlns="http://www.w3.org/2000/svg" xmlns:xlink="http://www.w3.org/1999/xlink" width="60" height="60" viewBox="0 0 60 60">
  <defs>
    <clipPath id="clip-path">
      <rect id="Rectangle_12591" data-name="Rectangle 12591" width="53.971" height="54" fill="#fe5c58"/>
    </clipPath>
  </defs>
  <g id="Group_37649" data-name="Group 37649" transform="translate(-423 -1990)">
    <g id="Rectangle_12523" data-name="Rectangle 12523" transform="translate(423 1990)" fill="#fe5c58" stroke="#707070" stroke-width="1" opacity="0">
      <rect width="60" height="60" stroke="none"/>
      <rect x="0.5" y="0.5" width="59" height="59" fill="none"/>
    </g>
    <g id="Group_37710" data-name="Group 37710" transform="translate(426 1993)">
      <g id="Group_37710-2" data-name="Group 37710" clip-path="url(#clip-path)">
        <path id="Path_105598" data-name="Path 105598" d="M20.685,378.577V366.063h1.752v14.4a28.42,28.42,0,0,1-3.775-.227,4.291,4.291,0,0,1-3.355-4.132q-.052-4.774.012-9.549a16.813,16.813,0,0,1,.357-2.33h-.7c-2.21,0-4.419,0-6.629,0a6.3,6.3,0,0,0-6.53,6.561,33.735,33.735,0,0,0,.13,4.257A4.141,4.141,0,0,0,5.4,378.463v-9.695H7.181v9.823h8.074v1.819h-.573q-4.1,0-8.2,0a6.272,6.272,0,0,1-6.466-6.5,36.816,36.816,0,0,1,.107-4.485,7.9,7.9,0,0,1,7.611-6.96c2.841-.085,5.688.034,8.533.043a.759.759,0,0,0,.534-.266,8.044,8.044,0,0,1,6.8-3.4q3.37-.007,6.741,0a8.1,8.1,0,0,1,6.813,3.393.9.9,0,0,0,.639.268c3.012.018,6.035-.154,9.032.055a7.84,7.84,0,0,1,7.091,7.476,31.852,31.852,0,0,1-.1,5.156,6.1,6.1,0,0,1-5.937,5.214c-2.958.036-5.917.01-8.875.01-.09,0-.181-.013-.3-.023v-1.75h8.054v-9.884h1.783v9.709a4.2,4.2,0,0,0,3.485-3.406,18.979,18.979,0,0,0,.119-3.077,14.32,14.32,0,0,0-.175-2.847,6.121,6.121,0,0,0-5.784-4.872c-2.543-.088-5.092-.021-7.639-.02a1.085,1.085,0,0,0-.22.037c.668,3.964.278,7.934.313,11.886a4.362,4.362,0,0,1-4.273,4.237c-.934.027-1.87,0-2.846,0V366.062h1.735v12.469a2.792,2.792,0,0,0,3.617-2.89q0-4.241,0-8.482a6.308,6.308,0,0,0-6.518-6.523q-3.37-.008-6.74,0a6.3,6.3,0,0,0-6.516,6.521c-.006,2.734.075,5.47-.027,8.2a2.927,2.927,0,0,0,3.621,3.219" transform="translate(0 -326.468)" fill="#fe5c58"/>
        <path id="Path_105599" data-name="Path 105599" d="M75.681,29.623V27.914c.709-.139.894-.629.882-1.31-.028-1.573-.007-3.146-.009-4.719,0-.905-.3-1.2-1.222-1.2-1.367,0-2.734.009-4.1-.014-.171,0-.459-.15-.491-.281a18.16,18.16,0,0,0-2.317-5.381c1.063-1.056,2.112-2.095,3.157-3.137.752-.75.75-1.108-.006-1.866q-1.647-1.651-3.3-3.3c-.624-.623-1.056-.628-1.672-.016-.97.963-1.943,1.924-2.9,2.9-.244.251-.423.331-.751.123a15.672,15.672,0,0,0-4.843-2.022c-.384-.09-.45-.269-.446-.616.018-1.386.011-2.771.006-4.157,0-.773-.324-1.109-1.083-1.113q-2.5-.013-5,0c-.791,0-1.1.334-1.105,1.147,0,1.386,0,2.771,0,4.157,0,.241.041.459-.314.542a17.133,17.133,0,0,0-5.336,2.274c-.153-.144-.3-.278-.442-.418-.968-.965-1.93-1.937-2.9-2.895a.94.94,0,0,0-1.513.007Q38.18,8.4,36.4,10.195a.915.915,0,0,0,.014,1.5c1.094,1.1,2.2,2.2,3.3,3.3-.344.631-.726,1.214-.992,1.846a28.882,28.882,0,0,0-1.14,3.1c-.163.558-.345.785-.964.756-1.271-.059-2.546-.02-3.819-.017-.885,0-1.192.3-1.193,1.173q0,2.416,0,4.831c0,.769.135.958.88,1.244V29.6a2.5,2.5,0,0,1-2.655-2.38c-.06-1.946-.056-3.9,0-5.842a2.653,2.653,0,0,1,2.7-2.486c1.011-.02,2.022-.01,3.034,0,.266,0,.434-.038.545-.336.4-1.084.848-2.153,1.312-3.317-.676-.67-1.421-1.4-2.16-2.143a2.734,2.734,0,0,1,0-4.313Q36.948,7.09,38.639,5.4a2.753,2.753,0,0,1,4.173-.013c.667.657,1.339,1.31,1.98,1.992a.524.524,0,0,0,.723.109c.918-.416,1.847-.811,2.79-1.167a.494.494,0,0,0,.389-.561c-.017-.992-.013-1.985,0-2.977A2.692,2.692,0,0,1,51.454.012q2.612-.027,5.225,0a2.7,2.7,0,0,1,2.794,2.8c.008.974.014,1.948-.005,2.921a.526.526,0,0,0,.415.6c.944.352,1.877.741,2.789,1.168a.523.523,0,0,0,.717-.14c.663-.687,1.341-1.36,2.022-2.029a2.726,2.726,0,0,1,4.01-.032q1.87,1.824,3.694,3.7a2.655,2.655,0,0,1,0,3.871q-1.05,1.094-2.147,2.143a.487.487,0,0,0-.112.67c.42.916.815,1.846,1.17,2.789a.528.528,0,0,0,.6.42c.955-.02,1.91-.013,2.865-.006a2.709,2.709,0,0,1,2.86,2.853c.006,1.76.018,3.521,0,5.281a2.587,2.587,0,0,1-2.665,2.6" transform="translate(-27.103 0)" fill="#fe5c58"/>
        <path id="Path_105600" data-name="Path 105600" d="M184.654,141.512h-1.8a10.786,10.786,0,0,0-4.486-8.691,10.393,10.393,0,0,0-6.911-2.044A10.841,10.841,0,0,0,161.22,141.5h-1.781a12.209,12.209,0,0,1,5.183-10.085,11.991,11.991,0,0,1,13.344-.929c4.328,2.292,6.429,6.091,6.688,11.027" transform="translate(-145.058 -117.262)" fill="#fe5c58"/>
        <path id="Path_105601" data-name="Path 105601" d="M244.713,240.121a5.39,5.39,0,1,1,5.388-5.389,5.387,5.387,0,0,1-5.388,5.389m-.053-1.8a3.593,3.593,0,1,0-3.546-3.647,3.583,3.583,0,0,0,3.546,3.647" transform="translate(-217.731 -208.654)" fill="#fe5c58"/>
        <path id="Path_105602" data-name="Path 105602" d="M75.261,279.984a5.391,5.391,0,1,1,5.418-5.359,5.387,5.387,0,0,1-5.418,5.359m-.02-1.8a3.593,3.593,0,1,0-3.548-3.645,3.583,3.583,0,0,0,3.548,3.645" transform="translate(-63.591 -244.922)" fill="#fe5c58"/>
        <path id="Path_105603" data-name="Path 105603" d="M414.134,279.985a5.39,5.39,0,1,1,5.391-5.386,5.386,5.386,0,0,1-5.391,5.386m-.017-1.8a3.593,3.593,0,1,0-3.578-3.615,3.582,3.582,0,0,0,3.578,3.615" transform="translate(-371.874 -244.923)" fill="#fe5c58"/>
        <rect id="Rectangle_12590" data-name="Rectangle 12590" width="7.117" height="1.732" transform="translate(23.428 52.183)" fill="#fe5c58"/>
      </g>
    </g>
  </g>
</svg>
