<svg xmlns="http://www.w3.org/2000/svg" xmlns:xlink="http://www.w3.org/1999/xlink" width="60" height="60" viewBox="0 0 60 60">
  <defs>
    <clipPath id="clip-path">
      <rect id="Rectangle_12531" data-name="Rectangle 12531" width="53.953" height="54" fill="#fe5c58"/>
    </clipPath>
  </defs>
  <g id="Group_37646" data-name="Group 37646" transform="translate(-423 -1990)">
    <g id="Rectangle_12523" data-name="Rectangle 12523" transform="translate(423 1990)" fill="#fe5c58" stroke="#707070" stroke-width="1" opacity="0">
      <rect width="60" height="60" stroke="none"/>
      <rect x="0.5" y="0.5" width="59" height="59" fill="none"/>
    </g>
    <g id="Group_37645" data-name="Group 37645" transform="translate(426 1993)">
      <g id="Group_37644" data-name="Group 37644" clip-path="url(#clip-path)">
        <path id="Path_105332" data-name="Path 105332" d="M120.1,380.325a5.286,5.286,0,0,1-2.326-1.148c-.321-.316-.6-.669-.963-1.071l1.6-.934c.809,1.314,2.087,1.369,3.429,1.365,6.151-.02,12.3-.007,18.452-.01a2.651,2.651,0,0,0,2.88-2.166,30.279,30.279,0,0,0,.023-3.215H127.086v-1.8h16.146v-3.573h1.789c.013.137.038.272.038.407,0,2.46.012,4.92,0,7.38a4.473,4.473,0,0,1-2.583,4.3,9.969,9.969,0,0,1-1.386.458Z" transform="translate(-103.641 -326.325)" fill="#fe5c58"/>
        <path id="Path_105333" data-name="Path 105333" d="M53.1,22.493v1.8c-.785,0-1.552.013-2.319-.006-.315-.008-.435.107-.465.413a11.609,11.609,0,0,1-10.5,10.331,1.194,1.194,0,0,0-.17.053v2.668H37.825c0-.663-.031-1.342.01-2.017.031-.514-.1-.694-.663-.767A11.6,11.6,0,0,1,27.107,24.727c-.015-.121-.033-.242-.058-.426h-2.7V22.5h2.695a12.327,12.327,0,0,1,1.2-4.285,11.5,11.5,0,0,1,5.5-5.389.7.7,0,0,0,.482-.746q-.029-3.638-.007-7.276A4.531,4.531,0,0,1,39.053,0Q44.274,0,49.5,0,53.9,0,58.3,0a4.392,4.392,0,0,1,3.171,1.151L60.3,2.478a3.553,3.553,0,0,0-2.549-.686q-9.387.014-18.775.006a2.679,2.679,0,0,0-2.848,2.018,10.22,10.22,0,0,0-.141,1.559H50.373V7.187H36.064v4.8c.494-.068.98-.106,1.449-.216a.557.557,0,0,0,.3-.424c.03-.753.014-1.508.014-2.308h1.8c0,.762.017,1.512-.007,2.261-.012.361.114.477.469.516A11.617,11.617,0,0,1,50.3,22.024c.04.345.144.49.513.477.75-.026,1.5-.008,2.282-.008M35.767,25.035c-1.957-2.477-2.023-4.811-.223-6.642a4.506,4.506,0,0,1,5.837-.439,4.4,4.4,0,0,1,1.73,2.686,4.558,4.558,0,0,1-1.466,4.382,6.505,6.505,0,0,1,3.393,6,9.959,9.959,0,0,0,3.521-6.731H46.847V22.482h1.684a9.727,9.727,0,0,0-8.905-8.856v1.639H37.813V13.623a9.644,9.644,0,0,0-8.867,8.883h1.619V24.32h-1.7a10.02,10.02,0,0,0,3.534,6.7,6.488,6.488,0,0,1,3.364-5.987m3.857,8.172a8.422,8.422,0,0,0,3.389-.907.5.5,0,0,0,.2-.364c0-.649,0-1.3-.073-1.946a4.466,4.466,0,0,0-3.575-3.806,4.584,4.584,0,0,0-4.73,2.153,6.758,6.758,0,0,0-.607,3.687.333.333,0,0,0,.14.251,8.781,8.781,0,0,0,3.463.952V31.553h1.791Zm-.9-8.922a2.7,2.7,0,0,0,2.694-2.679A2.743,2.743,0,0,0,38.736,18.9a2.7,2.7,0,0,0-2.7,2.723,2.665,2.665,0,0,0,2.692,2.664" transform="translate(-21.609 0)" fill="#fe5c58"/>
        <path id="Path_105334" data-name="Path 105334" d="M252.338,168.981v-9.124h1.729v7.578c.269-.227.435-.362.6-.5,2.386-2.1,4.766-4.213,7.16-6.307a2.85,2.85,0,0,1,4.449.588,3.109,3.109,0,0,1-.293,3.309c-1.434,1.664-2.9,3.3-4.352,4.948q-4.081,4.625-8.156,9.255a1.539,1.539,0,0,0-.344.732A6.291,6.291,0,0,1,246.788,185c-1.985.036-3.972.007-5.958.008-.512,0-.958-.124-1.113-.681-.148-.536.165-.86.581-1.116a2.406,2.406,0,0,0,1.171-2.267,8.483,8.483,0,0,1,.524-3.827,6.278,6.278,0,0,1,5.039-3.769,1.159,1.159,0,0,0,.568-.2c1.6-1.395,3.195-2.805,4.738-4.166m-.04,8.352c.051-.06.127-.152.206-.242q5.947-6.74,11.892-13.482a2.415,2.415,0,0,0,.384-.561.943.943,0,0,0-.223-1.113.961.961,0,0,0-1.114-.236,2.3,2.3,0,0,0-.6.421q-5.2,4.58-10.4,9.168c-1.105.975-2.209,1.952-3.28,2.9l3.137,3.146m-9.516,5.827c1.549,0,3.018.061,4.481-.015a4.331,4.331,0,0,0,4.031-3.779.669.669,0,0,0-.144-.5q-1.749-1.786-3.535-3.536a.631.631,0,0,0-.45-.164,4.507,4.507,0,0,0-3.832,3.839c-.178,1.376.211,2.816-.551,4.153" transform="translate(-212.665 -141.804)" fill="#fe5c58"/>
        <path id="Path_105335" data-name="Path 105335" d="M282.342,31.885q4.744,0,9.488,0c.991,0,1.277.292,1.278,1.3q0,5.007,0,10.013c0,1.008-.282,1.3-1.271,1.3q-9.541,0-19.082,0c-.956,0-1.258-.31-1.259-1.269q0-5.033,0-10.066c0-.98.3-1.276,1.305-1.276h9.541m-9.014,10.769h17.951V33.713H273.328Z" transform="translate(-240.894 -28.291)" fill="#fe5c58"/>
        <path id="Path_105336" data-name="Path 105336" d="M12.607,324.107v-4.474H14.4v4.474h.627c1.81,0,3.621,0,5.431,0,.825,0,1.158.327,1.16,1.148q.009,3.348,0,6.7c0,.823-.324,1.145-1.155,1.145q-9.65.005-19.3,0c-.836,0-1.153-.318-1.155-1.143q-.007-3.348,0-6.7c0-.826.329-1.15,1.156-1.15q5.4,0,10.81,0Zm-10.78,7.162H19.785v-5.338H1.827Z" transform="translate(0 -283.606)" fill="#fe5c58"/>
        <path id="Path_105337" data-name="Path 105337" d="M5.435,31.878c1.389,0,2.778,0,4.166,0,.893,0,1.2.308,1.206,1.206q.009,3.3,0,6.591c0,.914-.288,1.2-1.2,1.2q-4.193.008-8.386,0c-.905,0-1.211-.309-1.213-1.2q0-3.3,0-6.591c0-.891.318-1.209,1.208-1.212,1.406,0,2.813,0,4.219,0m-3.6,7.168H8.971V33.707H1.832Z" transform="translate(-0.005 -28.284)" fill="#fe5c58"/>
        <rect id="Rectangle_12524" data-name="Rectangle 12524" width="1.732" height="1.727" transform="translate(26.151 48.654)" fill="#fe5c58"/>
        <rect id="Rectangle_12525" data-name="Rectangle 12525" width="14.361" height="1.72" transform="translate(34.237 10.836)" fill="#fe5c58"/>
        <rect id="Rectangle_12526" data-name="Rectangle 12526" width="8.936" height="1.731" transform="translate(39.647 7.232)" fill="#fe5c58"/>
        <rect id="Rectangle_12527" data-name="Rectangle 12527" width="3.526" height="1.727" transform="translate(34.242 7.221)" fill="#fe5c58"/>
        <rect id="Rectangle_12528" data-name="Rectangle 12528" width="8.041" height="1.738" transform="translate(9.936 44.123)" fill="#fe5c58"/>
        <rect id="Rectangle_12529" data-name="Rectangle 12529" width="4.471" height="1.712" transform="translate(3.613 44.136)" fill="#fe5c58"/>
        <rect id="Rectangle_12530" data-name="Rectangle 12530" width="3.532" height="1.746" transform="translate(3.627 7.217)" fill="#fe5c58"/>
      </g>
    </g>
  </g>
</svg>
