<svg id="Group_37674" data-name="Group 37674" xmlns="http://www.w3.org/2000/svg" xmlns:xlink="http://www.w3.org/1999/xlink" width="28" height="27.115" viewBox="0 0 28 27.115">
  <defs>
    <clipPath id="clip-path">
      <rect id="Rectangle_12548" data-name="Rectangle 12548" width="28" height="27.115"/>
    </clipPath>
  </defs>
  <g id="Group_37674-2" data-name="Group 37674" clip-path="url(#clip-path)">
    <path id="Path_105408" data-name="Path 105408" d="M28,180.185a.617.617,0,0,1-.581.27q-13.407-.007-26.815,0c-.479,0-.6-.119-.6-.6q0-1.23,0-2.46c0-.338.156-.534.414-.531s.4.2.4.54c0,.729,0,1.457,0,2.207H5.557c0-.089.012-.185.012-.281,0-1.011.006-2.023-.006-3.034a.778.778,0,0,0-.14-.419c-.383-.532-.786-1.05-1.18-1.575-.195-.26-.189-.494.009-.651s.445-.1.648.164c.561.741,1.123,1.48,1.677,2.226a.877.877,0,0,0,.766.386c1.1-.01,2.2,0,3.307-.007a.736.736,0,0,0,.72-.524.722.722,0,0,0-.278-.822,1.151,1.151,0,0,0-.539-.144c-.847-.015-1.695-.014-2.542,0a.7.7,0,0,1-.622-.312c-.662-.893-1.334-1.777-2.007-2.662a1.451,1.451,0,0,0-.284-.291.391.391,0,0,0-.495-.012,2.518,2.518,0,0,1-2.764.038.384.384,0,0,0-.449,0,1.1,1.1,0,0,0-.566.994q0,1.258,0,2.515c0,.073,0,.146,0,.219a.4.4,0,0,1-.4.4.391.391,0,0,1-.417-.408c-.005-.975-.023-1.951.011-2.925A1.776,1.776,0,0,1,.8,171.1c.072-.053.145-.105.237-.172a3.207,3.207,0,0,1-.466-2.041c.012-.565,0-1.13,0-1.695a1.664,1.664,0,0,1,1.767-1.763c.592,0,1.185,0,1.777,0a1.641,1.641,0,0,1,1.7,1.686c.008.774,0,1.549,0,2.324a2.686,2.686,0,0,1-.37,1.368c.3.348.589.659.849.993q.8,1.025,1.563,2.073a.5.5,0,0,0,.477.232c.435-.015.871,0,1.344,0a11.991,11.991,0,0,0-.007-1.217,2.074,2.074,0,0,1,1.239-2.119c.187-.108.382-.2.561-.3a14.051,14.051,0,0,1-.134-3.6,1.566,1.566,0,0,1,1.573-1.427c1.056-.021,2.114-.009,3.171,0a.419.419,0,0,1,.474.475c0,1.2.008,2.406-.008,3.608a6.473,6.473,0,0,1-.131.886c.288.158.59.3.873.483a1.944,1.944,0,0,1,1.048,1.9c-.035.424-.006.853-.006,1.319.537,0,1.053.008,1.568-.008.075,0,.161-.106.218-.181.6-.783,1.181-1.574,1.783-2.352.192-.249.426-.465.669-.728a.7.7,0,0,1-.075-.158,5.834,5.834,0,0,1-.284-1.153c-.044-.818-.024-1.64-.011-2.46a1.626,1.626,0,0,1,1.617-1.625q1-.025,2,0a1.6,1.6,0,0,1,1.607,1.517,24.353,24.353,0,0,1-.011,2.731,6.173,6.173,0,0,1-.335,1.248h-.086c.1.075.2.149.3.224A2.274,2.274,0,0,1,28,172.311v3.226a.434.434,0,0,1-.537.263c-.251-.081-.287-.293-.286-.53.006-.865,0-1.731,0-2.6a1.1,1.1,0,0,0-.594-1,.352.352,0,0,0-.4.009,2.525,2.525,0,0,1-2.786-.028.375.375,0,0,0-.471,0,1.545,1.545,0,0,0-.305.306c-.673.884-1.345,1.768-2.006,2.66a.7.7,0,0,1-.622.312q-1.311-.016-2.623,0a.749.749,0,1,0,.038,1.5c1.056,0,2.113-.011,3.169.008a1.008,1.008,0,0,0,.9-.45c.529-.719,1.07-1.428,1.607-2.14.219-.29.454-.357.664-.193s.2.4-.019.7c-.383.509-.774,1.013-1.146,1.53a.778.778,0,0,0-.142.418c-.012,1.02-.007,2.04-.006,3.06,0,.088.008.176.012.261h4.73c0-.738,0-1.456,0-2.175,0-.23.016-.442.268-.542s.408.055.554.225Zm-6.395-2.92H6.412v2.351H21.605Zm-4.1-3.183c0-.527.025-1.037-.012-1.543a.975.975,0,0,0-.258-.623,8.907,8.907,0,0,0-1.062-.7c-.157-.1-.264-.051-.4.081a2.6,2.6,0,0,1-3.458.225c-.475-.37-.48-.378-1.006-.049a3.844,3.844,0,0,0-.595.473.591.591,0,0,0-.2.346c-.02.6-.009,1.192-.009,1.788a1.632,1.632,0,0,1,1.566,2.329h3.846a1.636,1.636,0,0,1,1.584-2.328m-5.376-5.86c0,.44-.011.866,0,1.291a1.793,1.793,0,0,0,1.647,1.739,1.762,1.762,0,0,0,1.881-1.371,12.184,12.184,0,0,0,.093-1.659Zm10.887-.6a1.408,1.408,0,0,0,1.021-.3.406.406,0,0,1,.681.321c.017.163.031.327.062.487a1.238,1.238,0,0,0,1.651,1.114.282.282,0,0,0,.176-.2c.013-.656.02-1.312,0-1.967a.817.817,0,0,0-.821-.822q-.983-.02-1.967,0a.812.812,0,0,0-.8.719c-.019.206,0,.416,0,.651m-18.028-.007c0-.183,0-.353,0-.523a.826.826,0,0,0-.852-.842q-.942-.013-1.885,0a.82.82,0,0,0-.858.811c-.021.664-.009,1.33,0,1.995,0,.062.063.166.112.177a1.213,1.213,0,0,0,1.613-.755,3.653,3.653,0,0,0,.156-.745c.059-.521.34-.658.77-.359a1.268,1.268,0,0,0,.947.242m-.97.714a2.054,2.054,0,0,1-2.512,1.753c.055.114.088.2.132.273a1.809,1.809,0,0,0,1.723.89,1.735,1.735,0,0,0,1.548-1.3A10.149,10.149,0,0,0,5.02,168.5l-1-.168m18.994.161c0,.339-.01.693,0,1.046a1.794,1.794,0,0,0,3.4.727,1.148,1.148,0,0,0,.054-.18,2.048,2.048,0,0,1-2.488-1.753l-.963.16m-7.295-2.239c-.966,0-1.9-.024-2.838.009a.817.817,0,0,0-.71,1.1h3.548Z" transform="translate(0 -153.341)"/>
    <path id="Path_105409" data-name="Path 105409" d="M17.067,4.1v.3c0,.875.007,1.75,0,2.624a2.489,2.489,0,0,1-2.537,2.551c-.063,0-.126.005-.19.008a1.028,1.028,0,0,0,1.043.751c.784.007,1.567,0,2.351,0a.411.411,0,1,1,.01.818c-.829,0-1.659.015-2.487-.009a1.909,1.909,0,0,1-1.736-1.325.313.313,0,0,0-.365-.252c-1.731.009-3.462,0-5.193.012a.638.638,0,0,0-.4.166c-.539.517-1.064,1.049-1.588,1.582-.157.159-.323.282-.553.19s-.265-.3-.262-.521c.006-.481,0-.962,0-1.446A2.466,2.466,0,0,1,3.243,7.911,2.879,2.879,0,0,1,3.092,7c-.015-1.476-.011-2.952-.006-4.428A2.5,2.5,0,0,1,5.658,0q4.414,0,8.829,0A2.5,2.5,0,0,1,17.066,2.57c0,.217,0,.434,0,.683h.349q3.253,0,6.505,0a1.963,1.963,0,0,1,2.037,1.583A2.569,2.569,0,0,1,26,5.353q0,1.845,0,3.69a1.979,1.979,0,0,1-1.4,2.025.309.309,0,0,0-.153.229c-.015.437-.009.875-.007,1.312a.451.451,0,0,1-.27.489.457.457,0,0,1-.511-.165c-.539-.544-1.077-1.089-1.628-1.619a.61.61,0,0,0-.374-.156c-.61-.016-1.221-.007-1.831-.007-.394,0-.592-.135-.6-.4s.2-.415.583-.416c.328,0,.656,0,.984,0a4.022,4.022,0,0,1,1.4.071,3.927,3.927,0,0,1,1.038.947,3.342,3.342,0,0,1,.281.365l.1-.063c0-.277,0-.555,0-.832.006-.333.127-.46.452-.491a1.144,1.144,0,0,0,1.1-1.193q.008-1.941,0-3.882a1.109,1.109,0,0,0-1.113-1.173c-2.287-.014-4.574-.006-6.861-.005a.977.977,0,0,0-.135.023M5.981,10.072l.067.031c.358-.363.723-.719,1.07-1.093a.811.811,0,0,1,.652-.266q3.376.012,6.752,0a1.658,1.658,0,0,0,1.721-1.7q.017-2.256,0-4.511A1.665,1.665,0,0,0,14.53.823q-4.456-.011-8.912,0A1.666,1.666,0,0,0,3.907,2.537q-.009,2.242,0,4.484A1.665,1.665,0,0,0,5.519,8.747c.323.025.457.162.461.486,0,.28,0,.56,0,.839" transform="translate(-2.856 -0.001)"/>
    <path id="Path_105410" data-name="Path 105410" d="M45.432,60.7c-1.221,0-2.442,0-3.663,0a.687.687,0,0,1-.381-.1.387.387,0,0,1,.117-.678.981.981,0,0,1,.322-.037q3.608,0,7.216,0c.046,0,.091,0,.137,0,.287.014.476.187.465.428a.417.417,0,0,1-.469.39c-.811,0-1.622,0-2.433,0H45.432" transform="translate(-38.222 -55.503)"/>
    <path id="Path_105411" data-name="Path 105411" d="M45.639,31.295q-1.8,0-3.607,0c-.108,0-.251.016-.315-.044a.746.746,0,0,1-.253-.4.341.341,0,0,1,.334-.362,1.774,1.774,0,0,1,.246-.007h7.214a1.95,1.95,0,0,1,.246.007.374.374,0,0,1,.348.362.37.37,0,0,1-.281.415,1.166,1.166,0,0,1-.323.032q-1.8,0-3.607,0" transform="translate(-38.433 -28.252)"/>
    <path id="Path_105412" data-name="Path 105412" d="M43.584,89.517c.6,0,1.2,0,1.8,0,.332,0,.5.14.509.4s-.177.42-.52.42q-1.786,0-3.572,0c-.322,0-.507-.153-.513-.4s.185-.413.524-.414c.591,0,1.182,0,1.772,0" transform="translate(-38.272 -82.978)"/>
  </g>
</svg>
