<svg width="32" height="32" viewBox="0 0 32 32" fill="none" xmlns="http://www.w3.org/2000/svg">
<path d="M23 1H9C8.3372 1.00079 7.70178 1.26444 7.23311 1.73311C6.76444 2.20178 6.50079 2.8372 6.5 3.5V28.5C6.50079 29.1628 6.76444 29.7982 7.23311 30.2669C7.70178 30.7356 8.3372 30.9992 9 31H23C23.6628 30.9992 24.2982 30.7356 24.7669 30.2669C25.2356 29.7982 25.4992 29.1628 25.5 28.5V3.5C25.4992 2.8372 25.2356 2.20178 24.7669 1.73311C24.2982 1.26444 23.6628 1.00079 23 1V1ZM9 2H23C23.3978 2 23.7794 2.15804 24.0607 2.43934C24.342 2.72064 24.5 3.10218 24.5 3.5V4H7.5V3.5C7.5 3.10218 7.65804 2.72064 7.93934 2.43934C8.22064 2.15804 8.60218 2 9 2V2ZM13.92 25.4785C13.6456 25.068 13.4994 24.5853 13.5 24.0915V20C13.5 19.8674 13.5527 19.7402 13.6464 19.6464C13.7402 19.5527 13.8674 19.5 14 19.5H14.5V23C14.5 23.1326 14.5527 23.2598 14.6464 23.3536C14.7402 23.4473 14.8674 23.5 15 23.5C15.1326 23.5 15.2598 23.4473 15.3536 23.3536C15.4473 23.2598 15.5 23.1326 15.5 23V12.556C15.4947 12.4239 15.5379 12.2945 15.6214 12.1921C15.705 12.0897 15.8231 12.0214 15.9535 12C16.0228 11.9944 16.0925 12.0031 16.1583 12.0256C16.224 12.0481 16.2844 12.084 16.3357 12.1309C16.387 12.1778 16.4281 12.2348 16.4564 12.2983C16.4846 12.3618 16.4995 12.4305 16.5 12.5V20.5C16.5 20.6326 16.5527 20.7598 16.6464 20.8536C16.7402 20.9473 16.8674 21 17 21C17.1326 21 17.2598 20.9473 17.3536 20.8536C17.4473 20.7598 17.5 20.6326 17.5 20.5V17.5C17.5 17.3674 17.5527 17.2402 17.6464 17.1464C17.7402 17.0527 17.8674 17 18 17C18.0667 16.9998 18.1328 17.0132 18.1941 17.0396C18.2554 17.0659 18.3107 17.1045 18.3565 17.153C18.4024 17.1983 18.4387 17.2524 18.4634 17.312C18.488 17.3716 18.5005 17.4355 18.5 17.5V20.5C18.5 20.6326 18.5527 20.7598 18.6464 20.8536C18.7402 20.9473 18.8674 21 19 21C19.1326 21 19.2598 20.9473 19.3536 20.8536C19.4473 20.7598 19.5 20.6326 19.5 20.5V18C19.5 17.8674 19.5527 17.7402 19.6464 17.6464C19.7402 17.5527 19.8674 17.5 20 17.5C20.0667 17.4998 20.1328 17.5132 20.1941 17.5396C20.2554 17.5659 20.3107 17.6045 20.3565 17.653C20.4024 17.6983 20.4387 17.7524 20.4634 17.812C20.488 17.8716 20.5005 17.9355 20.5 18V20.5C20.5 20.6326 20.5527 20.7598 20.6464 20.8536C20.7402 20.9473 20.8674 21 21 21C21.1326 21 21.2598 20.9473 21.3536 20.8536C21.4473 20.7598 21.5 20.6326 21.5 20.5V19C21.5 18.8674 21.5527 18.7402 21.6464 18.6464C21.7402 18.5527 21.8674 18.5 22 18.5C22.0667 18.4998 22.1328 18.5132 22.1941 18.5396C22.2554 18.5659 22.3107 18.6045 22.3565 18.653C22.4024 18.6983 22.4387 18.7524 22.4634 18.812C22.488 18.8716 22.5005 18.9355 22.5 19V24.0915C22.5006 24.5853 22.3544 25.068 22.08 25.4785L21.7325 26H14.2675L13.92 25.4785ZM13.5 30V27H22.5V30H13.5ZM23.5 29.908V26.5C23.5 26.3674 23.4473 26.2402 23.3536 26.1464C23.2598 26.0527 23.1326 26 23 26H22.931C23.3022 25.4327 23.4999 24.7695 23.5 24.0915V19C23.5016 18.804 23.4637 18.6097 23.3888 18.4287C23.3138 18.2476 23.2032 18.0835 23.0635 17.946C22.8551 17.7412 22.5924 17.6003 22.3065 17.5399C22.0207 17.4794 21.7235 17.502 21.45 17.605C21.3836 17.3547 21.2507 17.127 21.0655 16.946C20.8311 16.7184 20.5304 16.5713 20.2068 16.5257C19.8833 16.4801 19.5537 16.5385 19.2655 16.6925C19.2081 16.6032 19.1411 16.5205 19.0655 16.446C18.8636 16.2467 18.6103 16.1074 18.3339 16.0438C18.0574 15.9801 17.7687 15.9945 17.5 16.0855V12.5C17.5016 12.304 17.4637 12.1097 17.3888 11.9287C17.3138 11.7476 17.2032 11.5835 17.0635 11.446C16.9096 11.2885 16.7225 11.1672 16.5159 11.091C16.3093 11.0149 16.0883 10.9856 15.869 11.0055C15.489 11.0478 15.1384 11.23 14.8853 11.5166C14.6323 11.8032 14.4949 12.1737 14.5 12.556V18.5H14C13.6022 18.5 13.2206 18.658 12.9393 18.9393C12.658 19.2206 12.5 19.6022 12.5 20V24.0915C12.5001 24.7695 12.6978 25.4327 13.069 26H13C12.8674 26 12.7402 26.0527 12.6464 26.1464C12.5527 26.2402 12.5 26.3674 12.5 26.5V30H9C8.60218 30 8.22064 29.842 7.93934 29.5607C7.65804 29.2794 7.5 28.8978 7.5 28.5V27.5H11C11.1326 27.5 11.2598 27.4473 11.3536 27.3536C11.4473 27.2598 11.5 27.1326 11.5 27C11.5 26.8674 11.4473 26.7402 11.3536 26.6464C11.2598 26.5527 11.1326 26.5 11 26.5H7.5V5H24.5V28.5C24.4987 28.8091 24.402 29.1103 24.223 29.3624C24.044 29.6144 23.7915 29.805 23.5 29.908V29.908Z" fill="black"/>
<path d="M20 7H18C17.8674 7 17.7402 7.05268 17.6464 7.14645C17.5527 7.24022 17.5 7.36739 17.5 7.5C17.5 7.89783 17.342 8.27936 17.0607 8.56066C16.7794 8.84197 16.3978 9 16 9C15.6022 9 15.2206 8.84197 14.9393 8.56066C14.658 8.27936 14.5 7.89783 14.5 7.5C14.5 7.36739 14.4473 7.24022 14.3536 7.14645C14.2598 7.05268 14.1326 7 14 7H12C11.6716 6.99967 11.3464 7.06411 11.0429 7.18963C10.7394 7.31515 10.4637 7.49929 10.2315 7.7315C9.99929 7.96371 9.81515 8.23944 9.68963 8.5429C9.56411 8.84637 9.49967 9.1716 9.5 9.5V11.5C9.5 11.6326 9.55268 11.7598 9.64645 11.8536C9.74022 11.9473 9.86739 12 10 12H11.5V17.5C11.5 17.6326 11.5527 17.7598 11.6464 17.8536C11.7402 17.9473 11.8674 18 12 18H13.5C13.6326 18 13.7598 17.9473 13.8536 17.8536C13.9473 17.7598 14 17.6326 14 17.5C14 17.3674 13.9473 17.2402 13.8536 17.1464C13.7598 17.0527 13.6326 17 13.5 17H12.5V10.5C12.5 10.3674 12.4473 10.2402 12.3536 10.1464C12.2598 10.0527 12.1326 10 12 10C11.8674 10 11.7402 10.0527 11.6464 10.1464C11.5527 10.2402 11.5 10.3674 11.5 10.5V11H10.5V9.5C10.4996 9.30291 10.5381 9.10768 10.6134 8.92551C10.6886 8.74334 10.7991 8.57783 10.9385 8.43846C11.0778 8.29909 11.2433 8.18862 11.4255 8.11338C11.6077 8.03813 11.8029 7.99961 12 8H13.55C13.6648 8.56515 13.9714 9.07324 14.4179 9.43819C14.8644 9.80314 15.4233 10.0025 16 10.0025C16.5767 10.0025 17.1356 9.80314 17.5821 9.43819C18.0286 9.07324 18.3352 8.56515 18.45 8H20C20.1971 7.99961 20.3923 8.03813 20.5745 8.11338C20.7567 8.18862 20.9222 8.29909 21.0615 8.43846C21.2009 8.57783 21.3114 8.74334 21.3866 8.92551C21.4619 9.10768 21.5004 9.30291 21.5 9.5V11H20.5V10.5C20.5 10.3674 20.4473 10.2402 20.3536 10.1464C20.2598 10.0527 20.1326 10 20 10C19.8674 10 19.7402 10.0527 19.6464 10.1464C19.5527 10.2402 19.5 10.3674 19.5 10.5V15.5C19.5 15.6326 19.5527 15.7598 19.6464 15.8536C19.7402 15.9473 19.8674 16 20 16C20.1326 16 20.2598 15.9473 20.3536 15.8536C20.4473 15.7598 20.5 15.6326 20.5 15.5V12H22C22.1326 12 22.2598 11.9473 22.3536 11.8536C22.4473 11.7598 22.5 11.6326 22.5 11.5V9.5C22.5003 9.1716 22.4359 8.84637 22.3104 8.5429C22.1849 8.23944 22.0007 7.96371 21.7685 7.7315C21.5363 7.49929 21.2606 7.31515 20.9571 7.18963C20.6536 7.06411 20.3284 6.99967 20 7V7Z" fill="black"/>
<path d="M15.5 3.5H16.5C16.6326 3.5 16.7598 3.44732 16.8536 3.35355C16.9473 3.25979 17 3.13261 17 3C17 2.86739 16.9473 2.74021 16.8536 2.64645C16.7598 2.55268 16.6326 2.5 16.5 2.5H15.5C15.3674 2.5 15.2402 2.55268 15.1464 2.64645C15.0527 2.74021 15 2.86739 15 3C15 3.13261 15.0527 3.25979 15.1464 3.35355C15.2402 3.44732 15.3674 3.5 15.5 3.5Z" fill="black"/>
</svg>
