<svg width="32" height="32" viewBox="0 0 32 32" fill="none" xmlns="http://www.w3.org/2000/svg">
<g clip-path="url(#clip0_131_370)">
<path d="M19.1259 20.1655C19.522 20.1655 19.8924 20.0094 20.169 19.7259L22.6259 17.2069C23.1867 16.6319 23.175 15.7079 22.6 15.147C22.0249 14.5864 21.1007 14.598 20.54 15.1729L19.0987 16.6505L18.8462 16.405C18.2703 15.8453 17.3462 15.8581 16.7861 16.4339C16.2262 17.0097 16.2392 17.9337 16.815 18.4937L18.1104 19.7532C18.3838 20.019 18.7445 20.1655 19.1259 20.1655ZM17.4597 17.0888C17.6587 16.8842 17.987 16.8799 18.1913 17.0786L18.78 17.651C18.9658 17.8317 19.2628 17.8277 19.4438 17.6422L21.2125 15.8289C21.4118 15.6245 21.74 15.6206 21.9441 15.8196C22.1483 16.0188 22.1524 16.3469 21.9533 16.5511L19.4964 19.07C19.3065 19.2731 18.9607 19.2774 18.7653 19.0798L17.47 17.8203C17.2655 17.6214 17.2608 17.2932 17.4597 17.0888V17.0888Z" fill="black"/>
<path d="M15.4947 20.4852C15.3384 20.2782 15.044 20.2369 14.8367 20.3932C14.6296 20.5494 14.5885 20.8439 14.7447 21.051C14.9157 21.2777 15.105 21.495 15.307 21.697C16.4619 22.8518 17.9975 23.4878 19.6308 23.4878C21.2641 23.4878 22.7996 22.8518 23.9546 21.697C25.1096 20.5423 25.7456 19.0069 25.7456 17.3738C25.7456 15.7407 25.1095 14.2054 23.9546 13.0507C21.5704 10.6668 17.6912 10.6669 15.307 13.0507C13.6816 14.6758 13.1064 17.0467 13.8059 19.2379C13.8848 19.485 14.1493 19.6213 14.3962 19.5425C14.6434 19.4637 14.7798 19.1993 14.7009 18.9523C14.1087 17.0974 14.5955 15.0905 15.9714 13.7149C17.9891 11.6973 21.2725 11.6973 23.2902 13.7149C24.2677 14.6923 24.8061 15.9917 24.8061 17.3739C24.8061 18.7561 24.2677 20.0555 23.2902 21.0329C22.3128 22.0102 21.0132 22.5485 19.6308 22.5485C18.2485 22.5485 16.9488 22.0103 15.9713 21.0329C15.7999 20.8614 15.6396 20.6772 15.4947 20.4852V20.4852Z" fill="black"/>
<path d="M31.3538 25.9544L28.3904 22.9914C28.2069 22.808 27.9095 22.8079 27.726 22.9914L27.7079 23.0095L26.5674 21.8692C27.3341 20.6874 27.7908 19.3218 27.8807 17.8966C27.897 17.6378 27.7003 17.4147 27.4414 17.3983C27.1828 17.3826 26.9595 17.5787 26.9431 17.8375C26.8309 19.6168 26.0739 21.2918 24.8117 22.5539C23.3852 23.9803 21.5119 24.6942 19.638 24.6961C19.6356 24.696 19.6333 24.6957 19.6309 24.6957H19.5936C17.7298 24.6863 15.8689 23.9726 14.4501 22.5539C13.0662 21.1702 12.3041 19.3306 12.3041 17.3738C12.3041 15.4169 13.0662 13.5773 14.4501 12.1936C17.3068 9.33725 21.955 9.33725 24.8117 12.1936C25.8757 13.2575 26.5778 14.5994 26.8423 16.0745C26.8881 16.3298 27.1323 16.4994 27.3875 16.4539C27.6429 16.4082 27.8128 16.1641 27.767 15.9087C27.4685 14.2439 26.6763 12.7296 25.476 11.5294C24.8812 10.9347 24.2175 10.4501 23.5104 10.0749V6.28956C23.5101 6.16594 23.4601 6.04494 23.3729 5.95744L17.5522 0.137562C17.4647 0.0504375 17.3438 0.0003125 17.22 0H1.40925C0.63225 0 6.25e-05 0.632063 6.25e-05 1.409V5.35669C6.25e-05 5.61606 0.210312 5.82638 0.469812 5.82638C0.72925 5.82638 0.939562 5.61613 0.939562 5.35669V1.409C0.939562 1.15 1.15025 0.939313 1.40931 0.939313H16.7504V5.35025C16.7504 6.12719 17.3826 6.75925 18.1596 6.75925H22.5711V9.64956C21.6546 9.30231 20.6884 9.12394 19.7206 9.1135C19.7159 9.11287 19.7114 9.11194 19.7066 9.11194H9.21913C8.95969 9.11194 8.74938 9.32225 8.74938 9.58162C8.74938 9.841 8.95969 10.0513 9.21913 10.0513H15.7958C15.1257 10.4017 14.4941 10.8502 13.9221 11.3966H9.21913C8.95969 11.3966 8.74938 11.6069 8.74938 11.8663C8.74938 12.1257 8.95969 12.336 9.21913 12.336H13.0766C12.3099 13.3292 11.7859 14.4731 11.5351 15.6941H9.21919C8.95975 15.6941 8.74944 15.9044 8.74944 16.1638C8.74944 16.4232 8.95975 16.6335 9.21919 16.6335H11.3979C11.3763 16.8783 11.3648 17.1252 11.3648 17.3739C11.3648 17.5779 11.3723 17.7807 11.3868 17.9822H9.21925C8.95981 17.9822 8.7495 18.1925 8.7495 18.4519C8.7495 18.7113 8.95981 18.9216 9.21925 18.9216H11.5093C11.7488 20.1929 12.2829 21.3841 13.0781 22.4134H9.21925C8.95981 22.4134 8.7495 22.6237 8.7495 22.8831C8.7495 23.1426 8.95981 23.3528 9.21925 23.3528H13.9239C14.4951 23.8982 15.1258 24.346 15.7946 24.6959H9.219C8.95956 24.6959 8.74925 24.9062 8.74925 25.1656C8.74925 25.425 8.95956 25.6353 9.219 25.6353H19.6309C20.6285 25.6352 21.6262 25.456 22.571 25.0981V30.5912C22.571 30.8502 22.3603 31.0609 22.1012 31.0609H1.40925C1.15025 31.0609 0.9395 30.8502 0.9395 30.5912V7.23562C0.9395 6.97625 0.729187 6.76594 0.46975 6.76594C0.210312 6.76594 0 6.97619 0 7.23562V30.5912C6.25e-05 31.3679 0.63225 32 1.40925 32H22.1013C22.8783 32 23.5105 31.3679 23.5105 30.591V24.6724C23.7201 24.5612 23.9259 24.4402 24.1272 24.3097L25.2674 25.4497C25.0701 25.6219 25.0595 25.9502 25.2492 26.1321L28.2127 29.0952C29.0394 29.9568 30.5271 29.9567 31.3538 29.0952C32.2155 28.2686 32.2154 26.781 31.3538 25.9544V25.9544ZM18.1596 5.81994C17.9006 5.81994 17.6898 5.60925 17.6898 5.35025V1.60356L21.9067 5.81994H18.1596ZM24.8934 23.7474C25.0939 23.5817 25.2885 23.4056 25.476 23.2181C25.6624 23.0317 25.8388 22.8372 26.0053 22.6356L27.0435 23.6737L25.9316 24.7854L24.8934 23.7474ZM30.6895 28.4309C30.2125 28.9281 29.3541 28.928 28.877 28.4309L26.2456 25.7999L28.0582 23.9876L30.6896 26.6186C31.1867 27.0957 31.1868 27.9539 30.6895 28.4309Z" fill="black"/>
<path d="M4.2626 12.8002H6.3176C6.89698 12.8002 7.36835 12.3289 7.36835 11.7497V9.69491C7.36835 9.1156 6.89704 8.64435 6.3176 8.64435H4.2626C3.68329 8.64435 3.21191 9.1156 3.21191 9.69491V11.7497C3.21191 12.3289 3.68329 12.8002 4.2626 12.8002V12.8002ZM4.15141 9.69491C4.15141 9.6336 4.20135 9.58372 4.2626 9.58372H6.3176C6.37898 9.58372 6.42885 9.6336 6.42885 9.69491V11.7497C6.42885 11.811 6.37891 11.8608 6.3176 11.8608H4.2626C4.20129 11.8608 4.15141 11.811 4.15141 11.7497V9.69491Z" fill="black"/>
<path d="M3.21191 18.3351C3.21191 18.9144 3.68323 19.3856 4.2626 19.3856H6.3176C6.89698 19.3856 7.36835 18.9144 7.36835 18.3351V16.2804C7.36835 15.7011 6.89704 15.2299 6.3176 15.2299H4.2626C3.68329 15.2299 3.21191 15.7011 3.21191 16.2804V18.3351ZM4.15141 16.2804C4.15141 16.219 4.20135 16.1692 4.2626 16.1692H6.3176C6.37898 16.1692 6.42885 16.219 6.42885 16.2804V18.3351C6.42885 18.3964 6.37891 18.4463 6.3176 18.4463H4.2626C4.20129 18.4463 4.15141 18.3964 4.15141 18.3351V16.2804Z" fill="black"/>
<path d="M3.21191 25.0543C3.21191 25.6336 3.68323 26.1048 4.2626 26.1048H6.3176C6.89698 26.1048 7.36835 25.6336 7.36835 25.0543V22.9996C7.36835 22.4203 6.89704 21.949 6.3176 21.949H4.2626C3.68329 21.949 3.21191 22.4203 3.21191 22.9996V25.0543ZM4.15141 22.9996C4.15141 22.9383 4.20135 22.8884 4.2626 22.8884H6.3176C6.37898 22.8884 6.42885 22.9383 6.42885 22.9996V25.0543C6.42885 25.1157 6.37891 25.1655 6.3176 25.1655H4.2626C4.20129 25.1655 4.15141 25.1157 4.15141 25.0543V22.9996Z" fill="black"/>
</g>
<defs>
<clipPath id="clip0_131_370">
<rect width="32" height="32" fill="white"/>
</clipPath>
</defs>
</svg>
