<svg xmlns="http://www.w3.org/2000/svg" width="16.31" height="32" viewBox="0 0 16.31 32">
  <g id="Group_37989" data-name="Group 37989" transform="translate(-125.516)">
    <path id="Path_105916" data-name="Path 105916" d="M138.077,13.567h-1.546V11.944a1.393,1.393,0,0,0-1.391-1.391H130.2a1.946,1.946,0,0,0-1.944,1.944v7.94a1.011,1.011,0,0,0,1.01,1.01h8.812a1.011,1.011,0,0,0,1.01-1.01V14.576a1.011,1.011,0,0,0-1.01-1.01Zm.135,4.593h-.584a.653.653,0,1,1,0-1.306h.585ZM130.2,11.428h4.94a.517.517,0,0,1,.516.516v1.622H130.2a1.069,1.069,0,1,1,0-2.138Zm7.877,9.144h-8.812a.136.136,0,0,1-.135-.135V14.121a1.933,1.933,0,0,0,1.069.321h7.877a.137.137,0,0,1,.135.135v1.4h-.584a1.528,1.528,0,1,0,0,3.056h.585v1.4a.137.137,0,0,1-.135.135Zm-5.654-1.438a.438.438,0,0,1-.437.438h-1.428a.438.438,0,0,1,0-.875h1.428A.438.438,0,0,1,132.423,19.134ZM139.47,0h-11.6a2.359,2.359,0,0,0-2.357,2.357V29.643A2.359,2.359,0,0,0,127.873,32h11.6a2.359,2.359,0,0,0,2.357-2.357V2.357A2.359,2.359,0,0,0,139.47,0Zm-9.175.875h6.753v.3a.511.511,0,0,1-.511.511h-5.731a.511.511,0,0,1-.511-.511Zm10.656,28.768a1.483,1.483,0,0,1-1.481,1.482h-11.6a1.483,1.483,0,0,1-1.482-1.482V2.357A1.483,1.483,0,0,1,127.873.875h1.547v.3a1.387,1.387,0,0,0,1.386,1.386h5.731a1.387,1.387,0,0,0,1.386-1.386v-.3h1.547a1.483,1.483,0,0,1,1.482,1.482Z"/>
  </g>
</svg>
