<svg id="Group_37958" data-name="Group 37958" xmlns="http://www.w3.org/2000/svg" width="32" height="32" viewBox="0 0 32 32">
  <path id="Path_105788" data-name="Path 105788" d="M154.069,197.724A1.9,1.9,0,0,0,156.137,196h-1.379c0,.122-.262.345-.69.345s-.69-.223-.69-.345H152A1.9,1.9,0,0,0,154.069,197.724Z" transform="translate(-143.228 -184.153)"/>
  <path id="Path_105789" data-name="Path 105789" d="M46.8,32H40.971l-.3-1.5a3.733,3.733,0,1,0-3.476,0L36.9,32h-.94A4.294,4.294,0,0,0,34.4,30.074a3.207,3.207,0,0,0-.486-3.335,1.855,1.855,0,0,0,.217-.872V24.8a1.869,1.869,0,0,0-1.067-1.687v-2.58A4.538,4.538,0,0,0,28.533,16H26.667v1.067h1.867A3.471,3.471,0,0,1,32,20.533v2.4h-.533a.533.533,0,0,0-.533-.533h-.01a1.34,1.34,0,0,1-1.143-.647l-1.056-1.76a.533.533,0,0,0-.915,0l-.047.077a4.824,4.824,0,0,1-4.116,2.33H22.4a.533.533,0,0,0-.533.533h-.533v-2.4A3.471,3.471,0,0,1,24.8,17.067h.8V16h-.8a4.538,4.538,0,0,0-4.533,4.533v2.58A1.869,1.869,0,0,0,19.2,24.8v1.067a1.856,1.856,0,0,0,.217.872,3.207,3.207,0,0,0-.487,3.334,4.277,4.277,0,0,0-1.7,4.709l-.047.018-.012,0a1.867,1.867,0,0,0-.832,2.81L19.829,42.9a3.183,3.183,0,0,0-.629,1.9H18.141a18.61,18.61,0,0,1,.343-3.1L17.437,41.5a19.678,19.678,0,0,0-.364,3.3h-.54a.533.533,0,0,0-.533.533v2.133a.533.533,0,0,0,.533.533H26.667V46.933h-9.6V45.867H46.933v1.067h-19.2V48H47.467A.533.533,0,0,0,48,47.467V45.333a.533.533,0,0,0-.533-.533H42.133V43.733H46.8a1.2,1.2,0,0,0,1.2-1.2V36.8H46.933v5.733a.133.133,0,0,1-.133.133H41.948l-.89-4.9a.533.533,0,0,0-.525-.438h-3.2a.533.533,0,0,0-.525.438l-.89,4.9H31.067a.133.133,0,0,1-.133-.133V33.2a.133.133,0,0,1,.133-.133H46.8a.133.133,0,0,1,.133.133v2.533H48V33.2A1.2,1.2,0,0,0,46.8,32Zm-7.887-2.133a1.6,1.6,0,1,1,.042,0h-.042Zm.021-5.333a2.668,2.668,0,0,1,2.613,3.2,2.667,2.667,0,0,0-5.226,0,2.668,2.668,0,0,1,2.613-3.2ZM32.267,24a.8.8,0,0,1,.8.8v1.067a.8.8,0,0,1-.8.8h-.8V24Zm-8.62-.533a5.9,5.9,0,0,0,4.59-2.213l.629,1.048A2.414,2.414,0,0,0,30.4,23.408v3.544a2.784,2.784,0,0,1-1.316,2.374l-1.294.809a2.12,2.12,0,0,1-2.253.005l-1.277-.79a2.782,2.782,0,0,1-1.327-2.381v-3.5Zm5.118,8.945-2.1,2.938-2.1-2.938.288-1.438.12.074a3.18,3.18,0,0,0,3.379-.008l.12-.075Zm-8.5-7.611a.8.8,0,0,1,.8-.8h.8v2.667h-.8a.8.8,0,0,1-.8-.8Zm-.383,5.946a.533.533,0,0,0,.2-.77,2.138,2.138,0,0,1,.084-2.473,1.855,1.855,0,0,0,.9.23h.875A3.838,3.838,0,0,0,23.7,30.258l.189.117-.37,1.85a10.038,10.038,0,0,0-3.88,3.647l-.128-.245-.01-.018a1.867,1.867,0,0,0-1.163-.881,3.206,3.206,0,0,1,1.547-3.98ZM17.216,37a.8.8,0,0,1,.355-1.208l.012,0a.8.8,0,0,1,.987.338l2.918,5.6a3.188,3.188,0,0,0-.874.414L17.227,37.02,17.216,37Zm3.051,7.8a2.133,2.133,0,1,1,4.267,0ZM36.8,43.781l.978-5.381h2.31l.978,5.381V44.8H36.8Zm-5.733-.048h4.667V44.8H25.6a3.2,3.2,0,0,0-2.975-3.192l-2.411-4.632a9.4,9.4,0,0,1,3.643-3.727l2.376,3.327a.533.533,0,0,0,.868,0l2.376-3.327q.2.1.39.221v9.062A1.2,1.2,0,0,0,31.067,43.733Zm-.9-11.324q-.173-.1-.349-.185l-.373-1.864.207-.129a3.842,3.842,0,0,0,1.739-2.5h.878a1.855,1.855,0,0,0,.9-.229,2.137,2.137,0,0,1,.084,2.472.533.533,0,0,0,.2.77A3.22,3.22,0,0,1,34.772,32h-3.7A1.2,1.2,0,0,0,30.164,32.41Zm7.82-.41.227-1.137a3.756,3.756,0,0,0,1.444,0L39.883,32Z" transform="translate(-16 -16)"/>
  <path id="Path_105790" data-name="Path 105790" d="M352,192h1.379v1.379H352Z" transform="translate(-329.826 -180.385)"/>
  <path id="Path_105791" data-name="Path 105791" d="M352,296h4.827v1.379H352Z" transform="translate(-330.466 -277.522)"/>
  <path id="Path_105792" data-name="Path 105792" d="M312,296h2.069v1.379H312Z" transform="translate(-292.571 -277.522)"/>
  <path id="Path_105793" data-name="Path 105793" d="M136,144h1.379v1.379H136Z" transform="translate(-128.081 -135.553)"/>
  <path id="Path_105794" data-name="Path 105794" d="M200,144h1.379v1.379H200Z" transform="translate(-187.857 -135.553)"/>
</svg>
