<svg xmlns="http://www.w3.org/2000/svg" xmlns:xlink="http://www.w3.org/1999/xlink" width="60" height="60" viewBox="0 0 60 60">
  <defs>
    <clipPath id="clip-path">
      <rect id="Rectangle_12589" data-name="Rectangle 12589" width="54" height="49.558" fill="#fe5c58"/>
    </clipPath>
  </defs>
  <g id="Group_37647" data-name="Group 37647" transform="translate(-423 -1990)">
    <g id="Rectangle_12523" data-name="Rectangle 12523" transform="translate(423 1990)" fill="#fe5c58" stroke="#707070" stroke-width="1" opacity="0">
      <rect width="60" height="60" stroke="none"/>
      <rect x="0.5" y="0.5" width="59" height="59" fill="none"/>
    </g>
    <g id="Group_37709" data-name="Group 37709" transform="translate(426 1995.221)">
      <g id="Group_37708" data-name="Group 37708" clip-path="url(#clip-path)">
        <path id="Path_105591" data-name="Path 105591" d="M108.5,206.1c.242-1.415.393-2.922.776-4.369a2.8,2.8,0,0,0-1.046-3.331,39.728,39.728,0,0,1-3.088-2.96,1,1,0,0,1-.378-1.125,1.052,1.052,0,0,1,.979-.677c1.889-.262,3.777-.53,5.659-.838a1.065,1.065,0,0,0,.666-.5c.837-1.626,1.637-3.272,2.441-4.915.226-.462.441-.918,1.062-.91s.822.476,1.047.934c.8,1.625,1.616,3.24,2.394,4.874a.894.894,0,0,0,.787.551c1.87.26,3.736.543,5.606.8.46.064.895.237.93.707a1.52,1.52,0,0,1-.357,1.061c-1.319,1.353-2.682,2.663-4.05,3.966a.934.934,0,0,0-.311.961c.343,1.856.651,3.719.973,5.579A.991.991,0,0,1,121.05,207c-1.666-.885-3.344-1.75-5-2.647a.885.885,0,0,0-.957-.005q-2.541,1.373-5.11,2.695a.961.961,0,0,1-1.478-.944m14.646-10.852c-1.394-.207-2.894-.45-4.4-.644a1.324,1.324,0,0,1-1.133-.84c-.4-.855-.828-1.694-1.246-2.539-.252-.509-.507-1.017-.8-1.609-.147.271-.25.447-.341.63-.587,1.19-1.178,2.379-1.754,3.576a1.218,1.218,0,0,1-1.055.773c-.536.049-1.067.147-1.6.227-.993.149-1.985.3-2.889.438a28.231,28.231,0,0,0,2.473,2.593,2.613,2.613,0,0,1,.953,3.032c-.306,1.137-.416,2.327-.629,3.587.268-.13.439-.207.6-.293,1.194-.624,2.393-1.237,3.576-1.88a1.2,1.2,0,0,1,1.3,0c.263.159.545.286.818.428l3.32,1.737c-.014-.192-.014-.3-.032-.412-.222-1.309-.422-2.623-.681-3.925a1.722,1.722,0,0,1,.557-1.748c1.034-1,1.984-2.09,2.956-3.129" transform="translate(-88.525 -157.654)" fill="#fe5c58"/>
        <path id="Path_105592" data-name="Path 105592" d="M99.278,89.275c1.662.148,3.565.18,5.415.51,3.617.644,5.733,3,6.588,6.467a38.242,38.242,0,0,1,.575,4.4q.437,3.5.878,7c.088.7-.206,1.189-.765,1.275-.584.09-1.032-.32-1.118-1.041-.423-3.538-.828-7.079-1.268-10.615a6.338,6.338,0,0,0-5.861-5.722,42.781,42.781,0,0,0-9.86.034,6.188,6.188,0,0,0-5.431,5.02,40.35,40.35,0,0,0-.485,4.009c-.282,2.45-.556,4.9-.852,7.348-.086.71-.512,1.059-1.106.982-.574-.074-.871-.551-.795-1.254.378-3.466.747-6.934,1.132-10.4a8.211,8.211,0,0,1,7.88-7.663c1.614-.119,3.228-.224,5.073-.352" transform="translate(-72.018 -75.479)" fill="#fe5c58"/>
        <path id="Path_105593" data-name="Path 105593" d="M2.854,231.759c.208-1.207.4-2.5.664-3.784a1.29,1.29,0,0,0-.446-1.4c-.91-.8-1.748-1.684-2.621-2.527a1.029,1.029,0,0,1-.4-1.12,1.057,1.057,0,0,1,1.017-.706c1.335-.178,2.67-.367,4-.594a.937.937,0,0,0,.571-.453c.605-1.16,1.177-2.337,1.748-3.515.213-.44.466-.813,1.016-.8.518.009.765.357.969.782.567,1.179,1.164,2.344,1.729,3.524a.786.786,0,0,0,.692.5c1.355.171,2.712.349,4.054.6a.957.957,0,0,1,.561,1.67c-.951,1.009-1.981,1.942-2.95,2.934a1,1,0,0,0-.23.74c.2,1.352.477,2.692.653,4.046a1.483,1.483,0,0,1-.338,1.015c-.288.345-.73.259-1.118.054-1.191-.63-2.389-1.246-3.57-1.893a.837.837,0,0,0-.906,0q-1.8.98-3.626,1.91a.962.962,0,0,1-1.465-.977m5.527-11.791c-.418.847-.832,1.569-1.137,2.334a1.763,1.763,0,0,1-1.7,1.212c-.811.055-1.614.223-2.435.343.711.733,1.367,1.432,2.05,2.1a1.293,1.293,0,0,1,.4,1.3c-.191.93-.321,1.872-.5,2.924.91-.476,1.726-.86,2.5-1.319a1.426,1.426,0,0,1,1.666.017,12.029,12.029,0,0,0,1.07.568c.429.222.86.441,1.392.712a17.38,17.38,0,0,0-.349-2,2.317,2.317,0,0,1,.883-2.826,13.7,13.7,0,0,0,1.476-1.48c-1-.143-1.911-.295-2.828-.4a1.4,1.4,0,0,1-1.22-.9c-.377-.839-.81-1.652-1.275-2.59" transform="translate(0 -183.342)" fill="#fe5c58"/>
        <path id="Path_105594" data-name="Path 105594" d="M245.038,227.244a3.17,3.17,0,0,0-.315-.412c-.946-.934-1.893-1.867-2.854-2.785a1,1,0,0,1,.612-1.832c1.335-.177,2.67-.366,4-.593a.94.94,0,0,0,.576-.45c.6-1.143,1.156-2.3,1.718-3.465.219-.451.459-.867,1.041-.857s.8.434,1.022.885c.552,1.143,1.135,2.272,1.68,3.419a.778.778,0,0,0,.687.5c1.355.173,2.712.349,4.053.6a1.235,1.235,0,0,1,.827.653,1.214,1.214,0,0,1-.267,1.015c-.937,1-1.934,1.934-2.925,2.877a.775.775,0,0,0-.276.8c.241,1.266.438,2.541.663,3.811.084.474.13.931-.3,1.267-.46.356-.9.173-1.344-.065-1.119-.6-2.251-1.177-3.364-1.788a.831.831,0,0,0-.9,0c-1.164.638-2.35,1.236-3.521,1.861a1.024,1.024,0,0,1-1.189.015,1.035,1.035,0,0,1-.349-1.136c.257-1.4.482-2.807.738-4.316m4.761-7.279c-.429.868-.854,1.622-1.18,2.417a1.678,1.678,0,0,1-1.579,1.118c-.837.073-1.668.228-2.475.343.63.667,1.215,1.356,1.873,1.964a1.582,1.582,0,0,1,.512,1.653c-.183.858-.3,1.73-.468,2.713.841-.44,1.594-.782,2.293-1.213a1.75,1.75,0,0,1,2.037-.011c.709.439,1.474.785,2.3,1.219-.169-1-.272-1.9-.481-2.778a1.5,1.5,0,0,1,.533-1.582c.651-.614,1.248-1.287,1.888-1.955-.978-.146-1.943-.3-2.914-.429a1.2,1.2,0,0,1-1.006-.749c-.412-.869-.85-1.725-1.339-2.71" transform="translate(-204.113 -183.338)" fill="#fe5c58"/>
        <path id="Path_105595" data-name="Path 105595" d="M138.324,0a6.3,6.3,0,0,1,6.383,4.754c.879,3.569-1.695,7.956-5.174,8.821a4.993,4.993,0,0,1-4.1-.69,7.774,7.774,0,0,1-3.695-6.98c.076-3.415,2.933-5.914,6.581-5.905m4.655,6.216a8.886,8.886,0,0,0-.121-.983,4.455,4.455,0,0,0-4.839-3.323,4.373,4.373,0,0,0-4.331,3.532,6.2,6.2,0,0,0,2.869,5.9,3.262,3.262,0,0,0,3.457-.022,5.978,5.978,0,0,0,2.964-5.1" transform="translate(-111.381 0)" fill="#fe5c58"/>
        <path id="Path_105596" data-name="Path 105596" d="M122.064,143.433c-.229,3.328-.427,6.213-.627,9.1a4.326,4.326,0,0,1-.07.574.939.939,0,0,1-1.863-.151,2.655,2.655,0,0,1,.006-.347c.208-2.981.411-5.962.631-8.942.064-.868.451-1.292,1.051-1.236a.909.909,0,0,1,.873,1" transform="translate(-101.033 -120.413)" fill="#fe5c58"/>
        <path id="Path_105597" data-name="Path 105597" d="M212.207,143.972c-.008-.154-.022-.308-.025-.462a.97.97,0,0,1,.9-1.116.98.98,0,0,1,.982,1q.173,2.275.333,4.551.161,2.247.316,4.494a2.458,2.458,0,0,1,.014.576.9.9,0,0,1-.881.837.842.842,0,0,1-.966-.72c-.1-.6-.129-1.223-.172-1.837q-.258-3.659-.5-7.319" transform="translate(-179.391 -120.389)" fill="#fe5c58"/>
      </g>
    </g>
  </g>
</svg>
