<svg xmlns="http://www.w3.org/2000/svg" width="54.16" height="61.5" viewBox="0 0 54.16 61.5">
  <g id="Group_37864" data-name="Group 37864" transform="translate(-30.568 0.75)">
    <g id="Group_37857" data-name="Group 37857" transform="translate(49.968)">
      <g id="Group_37856" data-name="Group 37856" transform="translate(0)">
        <path id="Path_105687" data-name="Path 105687" d="M198.147,0a7.68,7.68,0,1,0,7.68,7.68A7.688,7.688,0,0,0,198.147,0Zm0,11.844a4.164,4.164,0,1,1,4.164-4.164A4.169,4.169,0,0,1,198.147,11.844Z" transform="translate(-190.467)" fill="#fe5c58" stroke="#fff" stroke-width="1.5"/>
      </g>
    </g>
    <g id="Group_37859" data-name="Group 37859" transform="translate(35.784 6.497)">
      <g id="Group_37858" data-name="Group 37858" transform="translate(0)">
        <path id="Path_105688" data-name="Path 105688" d="M75.9,55.44a6.474,6.474,0,1,0,6.474,6.474A6.481,6.481,0,0,0,75.9,55.44Zm0,9.432a2.958,2.958,0,1,1,2.958-2.958A2.962,2.962,0,0,1,75.9,64.872Z" transform="translate(-69.426 -55.44)" fill="#fe5c58" stroke="#fff" stroke-width="1.5"/>
      </g>
    </g>
    <g id="Group_37861" data-name="Group 37861" transform="translate(31.318 18.023)">
      <g id="Group_37860" data-name="Group 37860" transform="translate(0)">
        <path id="Path_105689" data-name="Path 105689" d="M78.8,156.622H70a6.046,6.046,0,0,0-5.115-2.828H50.407a6.046,6.046,0,0,0-5.115,2.828h-8.8a5.179,5.179,0,0,0-5.173,5.173v12.762l7.46.79a19.618,19.618,0,0,0,1.352,3.261l-4.717,5.834,7.235,7.235,5.834-4.717a19.624,19.624,0,0,0,3.261,1.352l.79,7.46H62.764l.79-7.46a19.618,19.618,0,0,0,3.261-1.352l5.834,4.717,7.235-7.235-4.717-5.834a19.611,19.611,0,0,0,1.352-3.261l7.46-.79V161.795A5.179,5.179,0,0,0,78.8,156.622ZM47.877,159.84a2.533,2.533,0,0,1,2.531-2.531H64.889a2.533,2.533,0,0,1,2.531,2.531v7.843H47.877ZM63.928,171.2a6.521,6.521,0,0,1-12.559,0Zm-29.094-9.4a1.659,1.659,0,0,1,1.657-1.658h7.87v7.546H34.834Zm38.9,10.312-.293,1.2a16.135,16.135,0,0,1-1.892,4.563l-.642,1.057,4.257,5.265L72.4,186.954,67.134,182.7l-1.057.642a16.14,16.14,0,0,1-4.563,1.892l-1.2.293-.713,6.731H55.7l-.713-6.731-1.2-.293a16.126,16.126,0,0,1-4.563-1.892l-1.057-.642L42.9,186.954l-2.761-2.761,4.257-5.265-.642-1.057a16.135,16.135,0,0,1-1.892-4.563l-.293-1.2-6.731-.713V171.2H47.767a10.035,10.035,0,0,0,19.761,0H80.462v.195h0Zm6.731-4.423H70.935v-7.546H78.8a1.659,1.659,0,0,1,1.658,1.658Z" transform="translate(-31.318 -153.794)" fill="#fe5c58" stroke="#fff" stroke-width="1.5"/>
      </g>
    </g>
    <g id="Group_37863" data-name="Group 37863" transform="translate(66.564 6.497)">
      <g id="Group_37862" data-name="Group 37862">
        <path id="Path_105690" data-name="Path 105690" d="M338.56,55.44a6.474,6.474,0,1,0,6.474,6.474A6.481,6.481,0,0,0,338.56,55.44Zm0,9.432a2.958,2.958,0,1,1,2.958-2.959A2.962,2.962,0,0,1,338.56,64.872Z" transform="translate(-332.086 -55.44)" fill="#fe5c58" stroke="#fff" stroke-width="1.5"/>
      </g>
    </g>
  </g>
</svg>
