<svg xmlns="http://www.w3.org/2000/svg" xmlns:xlink="http://www.w3.org/1999/xlink" width="32" height="32" viewBox="0 0 32 32">
  <defs>
    <clipPath id="clip-path">
      <rect id="Rectangle_12559" data-name="Rectangle 12559" width="27.999" height="28"/>
    </clipPath>
  </defs>
  <g id="Group_3767244" data-name="Group 3767244" transform="translate(10187 1859)">
    <g id="Rectangle_12544" data-name="Rectangle 12544" transform="translate(-10187 -1859)" stroke="#707070" stroke-width="1" opacity="0">
      <rect width="32" height="32" stroke="none"/>
      <rect x="0.5" y="0.5" width="31" height="31" fill="none"/>
    </g>
    <g id="Group_37678" data-name="Group 37678" transform="translate(-10185 -1857)">
      <g id="Group_37678-2" data-name="Group 37678" clip-path="url(#clip-path)">
        <path id="Path_105415" data-name="Path 105415" d="M14.274,0a1.431,1.431,0,0,1,1.107,1.213,1.244,1.244,0,0,1-.613,1.331c-.346.193-.315.425-.282.7.664.087,1.317.145,1.958.263a6.294,6.294,0,0,1,3.324,1.6,5.691,5.691,0,0,1,1.666,3.87,9.69,9.69,0,0,1-.155,2.584.353.353,0,0,0,.138.4,1.486,1.486,0,0,1,.511,1.135c.007.135,0,.27,0,.425.087.007.165.02.244.02.957,0,1.913,0,2.87,0a.323.323,0,0,0,.338-.2,1.385,1.385,0,0,1,1.576-.694,1.4,1.4,0,0,1,.011,2.7,1.373,1.373,0,0,1-1.582-.677.343.343,0,0,0-.362-.2c-1.066.006-2.132.009-3.2,0-.2,0-.311.062-.361.243a6,6,0,0,0-.288,1.127,1.513,1.513,0,0,1-1.22,1.614c-.107.511-.2,1.009-.316,1.5a3.288,3.288,0,0,1-1.371,1.909c-.1.07-.194.136-.293.2a8.776,8.776,0,0,0-1.8,1.349,3.011,3.011,0,0,1-1.492.818c-.162.044-.223.109-.22.278q.014.779,0,1.558a.3.3,0,0,0,.191.314A1.391,1.391,0,0,1,13.993,28a1.391,1.391,0,0,1-.66-2.617.321.321,0,0,0,.2-.334q-.016-.751,0-1.5a.27.27,0,0,0-.234-.323,3.928,3.928,0,0,1-1.923-1.239,1.992,1.992,0,0,0-.419-.34c-.41-.27-.834-.52-1.242-.793A3.768,3.768,0,0,1,8.15,18.033c-.026-.189-.045-.378-.069-.575A1.473,1.473,0,0,1,6.87,16.307a1.838,1.838,0,0,1-.032-.407,2.771,2.771,0,0,0-.362-1.3.311.311,0,0,0-.234-.124q-1.667-.012-3.335,0a.339.339,0,0,0-.25.141,1.365,1.365,0,0,1-1.365.774A1.344,1.344,0,0,1,.046,14.37a.786.786,0,0,0-.045-.1v-.547c.02-.05.041-.1.059-.15a1.353,1.353,0,0,1,1.261-.967,1.31,1.31,0,0,1,1.313.76c.081.158.189.164.33.164.947,0,1.895,0,2.842,0,.087,0,.174-.011.266-.017,0-.172-.008-.318,0-.461a1.467,1.467,0,0,1,.514-1.106.351.351,0,0,0,.133-.4,9.7,9.7,0,0,1-.1-3.072A5.425,5.425,0,0,1,8.542,4.828a6.506,6.506,0,0,1,3.017-1.323c.642-.117,1.294-.176,1.945-.262.075-.44.065-.444-.279-.687a1.341,1.341,0,0,1-.605-1.344A1.431,1.431,0,0,1,13.728,0ZM10.312,7.946a2.79,2.79,0,0,0-.956,1.207,9.594,9.594,0,0,0-.826,2.9c-.063.459-.287.628-.7.514C7.3,12.423,7,12.657,7,13.2c0,.228.06.338.328.334,1.066-.016,2.132-.007,3.2-.006a1.58,1.58,0,0,1,.3.019.456.456,0,0,1,.01.893,1.59,1.59,0,0,1-.326.023c-.911,0-1.822,0-2.734,0-.094,0-.187.011-.227.014.078.54.149,1.05.225,1.558a.481.481,0,0,0,.356.438,2.773,2.773,0,0,0,.4.076.469.469,0,0,1,.477.464c.011.1.009.2.012.3a3.332,3.332,0,0,0,1.79,3.147,3.5,3.5,0,0,1,.489.3,7.268,7.268,0,0,1,.822.658,3.385,3.385,0,0,0,1.412.9v-.359q0-2.242,0-4.483c0-.45.149-.672.454-.682s.482.223.482.682q0,2.255,0,4.511c0,.1.009.206.019.409a5.389,5.389,0,0,0,1.079-.709,7.532,7.532,0,0,1,1.759-1.317,5.188,5.188,0,0,0,.492-.345,2.244,2.244,0,0,0,.926-1.341c.1-.5.184-1,.233-1.506.046-.466.127-.581.6-.629s.641-.231.656-.7a2.792,2.792,0,0,1,.048-.488c.062-.29.144-.577.226-.9H17.494c-.465,0-.695-.157-.693-.471s.227-.465.7-.466h3.2c.126,0,.263.027.289-.16.073-.518-.16-1.009-.815-.807a.478.478,0,0,1-.686-.432c-.045-.26-.074-.523-.128-.781a7.688,7.688,0,0,0-1-2.724,6.954,6.954,0,0,0-.58-.683,10.358,10.358,0,0,1-.8.663,4.49,4.49,0,0,1-2.246.686c-.2.014-.267.076-.259.276.015.346.007.692,0,1.039,0,.372-.176.588-.462.592s-.467-.213-.472-.581c0-.346-.014-.693,0-1.039.011-.219-.075-.269-.279-.287a3.957,3.957,0,0,1-2.949-1.348M20.355,11.36a.422.422,0,0,0,.038-.112c.039-.762.135-1.527.1-2.286a4.65,4.65,0,0,0-1.138-2.947A4.927,4.927,0,0,0,17.026,4.6a9.587,9.587,0,0,0-2.539-.384V8.391a3.314,3.314,0,0,0,2.457-1.02.917.917,0,0,1,1.291-.194,2.942,2.942,0,0,1,.477.405A4.7,4.7,0,0,1,19.74,9.335c.229.664.41,1.345.615,2.025M7.6,11.36l.035-.01c.247-.768.465-1.547.748-2.3A3.948,3.948,0,0,1,9.6,7.3a.981.981,0,0,1,1.54.164,3.28,3.28,0,0,0,2.372.92V4.151c-.8.135-1.583.213-2.335.4A4.508,4.508,0,0,0,7.953,7.1a5.824,5.824,0,0,0-.471,2.583c.017.559.076,1.118.117,1.676m6.864-9.951a.461.461,0,0,0-.922-.033.461.461,0,1,0,.922.033M1.394,13.538a.462.462,0,1,0,.026.923.462.462,0,0,0-.026-.923m25.218.924a.461.461,0,1,0-.035-.922.461.461,0,0,0,.035.922M14.463,26.606a.461.461,0,0,0-.923-.026.462.462,0,1,0,.923.026" transform="translate(-0.001)"/>
        <path id="Path_105416" data-name="Path 105416" d="M252.105,246.112c0,.875,0,1.749,0,2.624a3.275,3.275,0,0,1-3.311,3.313c-1.8.005-3.608,0-5.412,0a.917.917,0,0,1-.32-.045.421.421,0,0,1-.283-.477.436.436,0,0,1,.388-.4,1.688,1.688,0,0,1,.273-.008h5.221a2.355,2.355,0,0,0,2.513-2.512q0-2.569,0-5.139c0-.073,0-.146,0-.219a.469.469,0,1,1,.93-.007c0,.957,0,1.913,0,2.87" transform="translate(-225.037 -224.981)"/>
        <path id="Path_105417" data-name="Path 105417" d="M18.679,252.046c-.866,0-1.731,0-2.6,0a3.276,3.276,0,0,1-3.344-3.335q0-2.733,0-5.467a.469.469,0,1,1,.93-.005c0,.073,0,.146,0,.219q0,2.569,0,5.139a3.168,3.168,0,0,0,.023.463,2.327,2.327,0,0,0,2.374,2.053c1.777.006,3.553,0,5.33,0,.447,0,.67.151.675.456s-.229.475-.688.476H18.679" transform="translate(-11.806 -224.978)"/>
        <path id="Path_105418" data-name="Path 105418" d="M246.087,12.728c.884,0,1.768,0,2.651,0a3.272,3.272,0,0,1,3.307,3.289q.011,2.72-.006,5.439a.711.711,0,0,1-.178.481.589.589,0,0,1-.471.069.415.415,0,0,1-.276-.454c0-.756,0-1.512,0-2.269,0-1.057,0-2.114,0-3.171a2.344,2.344,0,0,0-2.462-2.452q-2.61,0-5.221,0c-.082,0-.164,0-.246,0a.464.464,0,1,1,0-.927c.5-.01,1,0,1.5,0h1.394" transform="translate(-224.979 -11.796)"/>
        <path id="Path_105419" data-name="Path 105419" d="M12.741,18.673c0-.875,0-1.749,0-2.624a3.272,3.272,0,0,1,3.309-3.314c1.8-.005,3.608,0,5.412,0h.082a.487.487,0,0,1,.532.467.477.477,0,0,1-.531.464c-1.795,0-3.59,0-5.385,0a3.07,3.07,0,0,0-.7.073,2.315,2.315,0,0,0-1.782,2.3c-.007,1.786,0,3.572,0,5.358q0,.668-.459.673c-.307,0-.473-.228-.473-.663q0-1.367,0-2.733" transform="translate(-11.809 -11.802)"/>
        <path id="Path_105420" data-name="Path 105420" d="M168,166.134a1.862,1.862,0,1,1-1.861,1.856A1.854,1.854,0,0,1,168,166.134m0,2.793a.931.931,0,1,0-.933-.935.929.929,0,0,0,.933.935" transform="translate(-153.996 -153.996)"/>
      </g>
    </g>
  </g>
</svg>
