<svg xmlns="http://www.w3.org/2000/svg" xmlns:xlink="http://www.w3.org/1999/xlink" width="32" height="32" viewBox="0 0 32 32">
  <defs>
    <clipPath id="clip-path">
      <rect id="Rectangle_12585" data-name="Rectangle 12585" width="27.999" height="28"/>
    </clipPath>
  </defs>
  <g id="Group_37675" data-name="Group 37675" transform="translate(10187 1859)">
    <g id="Rectangle_12544" data-name="Rectangle 12544" transform="translate(-10187 -1859)" stroke="#707070" stroke-width="1" opacity="0">
      <rect width="32" height="32" stroke="none"/>
      <rect x="0.5" y="0.5" width="31" height="31" fill="none"/>
    </g>
    <g id="Group_37704" data-name="Group 37704" transform="translate(-10185 -1857)">
      <g id="Group_37704-2" data-name="Group 37704" clip-path="url(#clip-path)">
        <path id="Path_105562" data-name="Path 105562" d="M289.532,279.888c-.136.156-.264.319-.41.465q-4.436,4.441-8.877,8.878c-.14.139-.3.261-.446.391H277.12a.746.746,0,0,1-.429-.776c.017-.664.009-1.329,0-1.994a.855.855,0,0,1,.269-.656q4.573-4.563,9.137-9.134a.616.616,0,0,1,1.026,0q1.073,1.071,2.143,2.145c.094.094.176.2.264.3Zm-5.273.676c-.025.022-.06.05-.092.082q-3.081,3.08-6.16,6.161c-.05.05-.123.112-.124.17-.01.487-.006.974-.006,1.482.419,0,.8-.012,1.18,0a.642.642,0,0,0,.526-.213q3-3.011,6-6.01c.063-.063.121-.13.168-.18l-1.5-1.5m.894-.869,1.447,1.45,1.414-1.433-1.422-1.453-1.44,1.437" transform="translate(-261.533 -261.622)"/>
        <path id="Path_105563" data-name="Path 105563" d="M19.824,1.176H8.164v.331q0,2.953,0,5.906c0,.569-.181.748-.754.749H1.187V24.5h11.5c.055,0,.11,0,.164,0a.573.573,0,0,1,.561.586.551.551,0,0,1-.57.57c-.784.01-1.567.005-2.351.005H.7c-.492,0-.7-.206-.7-.7Q0,16.311,0,7.656a.757.757,0,0,1,.252-.574Q3.678,3.665,7.1.246A.859.859,0,0,1,7.646.01Q13.975-.01,20.3,0c.474,0,.7.212.7.676q0,8.08,0,16.159a.6.6,0,0,1-.463.652.561.561,0,0,1-.634-.313,1.07,1.07,0,0,1-.062-.4q-.006-3.582,0-7.164,0-4.074,0-8.148c0-.089-.008-.178-.013-.289M6.977,6.993V2.162L2.147,6.993Z" transform="translate(0 0)"/>
        <path id="Path_105564" data-name="Path 105564" d="M216.517,66.334c0,.536-.006,1.072.008,1.608,0,.06.111.142.187.171a10.182,10.182,0,0,1,1.2.447,1.612,1.612,0,0,1,.242,2.812,2.9,2.9,0,0,1-1.382.613c-.22.036-.271.127-.254.321a2.388,2.388,0,0,1,0,.382.582.582,0,0,1-.569.553c-.3.006-.619-.24-.574-.536.083-.558-.156-.743-.666-.833a2.23,2.23,0,0,1-1.188-.69,1.68,1.68,0,0,1-.488-.985.584.584,0,0,1,.437-.64.55.55,0,0,1,.678.362c.143.654.664.775,1.2.934V69.118c-.456-.171-.907-.311-1.331-.509a1.615,1.615,0,0,1-.445-2.7,3,3,0,0,1,1.493-.75l.295-.064c0-.2,0-.4,0-.594a.583.583,0,0,1,.578-.6.572.572,0,0,1,.58.594c.007.19,0,.381,0,.591.186.045.362.081.534.13a2.865,2.865,0,0,1,1.315.744,1.686,1.686,0,0,1,.482.96.584.584,0,0,1-1.14.243,1.227,1.227,0,0,0-1.189-.835m.01,4.509a1.815,1.815,0,0,0,1.014-.5.394.394,0,0,0,.014-.6,1.9,1.9,0,0,0-1.027-.455ZM215.341,66.3a1.844,1.844,0,0,0-.975.462c-.247.247-.247.528.043.712a8.077,8.077,0,0,0,.932.439Z" transform="translate(-201.353 -60.406)"/>
        <path id="Path_105565" data-name="Path 105565" d="M49.745,298.212q3.17,0,6.339,0c.491,0,.778.364.627.779a.6.6,0,0,1-.629.382H51.3q-3.935,0-7.87,0c-.411,0-.659-.209-.672-.556-.014-.369.23-.6.647-.6,1.257,0,2.514,0,3.771,0h2.569Z" transform="translate(-40.416 -281.874)"/>
        <path id="Path_105566" data-name="Path 105566" d="M46.208,212.865h2.731c.055,0,.109,0,.164,0a.6.6,0,0,1,.615.6.585.585,0,0,1-.609.573c-.573.012-1.147,0-1.72,0q-1.98,0-3.96,0c-.4,0-.644-.172-.7-.476-.068-.4.2-.7.662-.7.938,0,1.875,0,2.813,0" transform="translate(-40.382 -201.203)"/>
        <path id="Path_105567" data-name="Path 105567" d="M45.662,384.491c-.773,0-1.546.005-2.319,0a.556.556,0,0,1-.588-.58.574.574,0,0,1,.593-.579h.082q2.237,0,4.474,0c.418,0,.672.226.67.585s-.245.574-.676.576c-.746,0-1.491,0-2.237,0" transform="translate(-40.412 -362.329)"/>
      </g>
    </g>
  </g>
</svg>
