<svg width="32" height="32" viewBox="0 0 32 32" fill="none" xmlns="http://www.w3.org/2000/svg">
<path d="M29.8736 15.2005L29.5978 13.546C29.947 13.3908 30.2236 13.1078 30.3709 12.7552C30.5182 12.4026 30.525 12.0071 30.39 11.6496L29.6852 9.77788C29.5507 9.42219 29.2863 9.13076 28.9453 8.96241C28.6044 8.79406 28.2123 8.76133 27.8481 8.87082L26.9259 7.48757C27.1517 7.18689 27.2565 6.8124 27.2195 6.43818C27.1824 6.06396 27.0063 5.71728 26.7259 5.46669L25.2328 4.13607C24.959 3.89203 24.6052 3.7568 24.2385 3.75595C23.8717 3.7551 23.5173 3.88868 23.2424 4.13144L21.1843 3.24938L21.9468 1.72369C21.9768 1.66491 21.9949 1.60076 21.9999 1.53497C22.005 1.46918 21.997 1.40303 21.9764 1.34035C21.9557 1.27766 21.9229 1.21968 21.8798 1.16974C21.8367 1.1198 21.7841 1.0789 21.725 1.04938C21.666 1.01987 21.6017 1.00233 21.5359 0.997774C21.4701 0.99322 21.404 1.00174 21.3415 1.02285C21.2789 1.04396 21.2212 1.07723 21.1716 1.12076C21.122 1.16428 21.0815 1.2172 21.0525 1.27644L19.0525 5.27644C19.0225 5.33523 19.0045 5.39937 18.9994 5.46517C18.9943 5.53096 19.0023 5.59711 19.023 5.65979C19.0436 5.72248 19.0764 5.78046 19.1195 5.8304C19.1627 5.88034 19.2153 5.92124 19.2743 5.95076C19.3333 5.98027 19.3976 5.99781 19.4634 6.00236C19.5292 6.00692 19.5953 5.99839 19.6579 5.97729C19.7204 5.95618 19.7781 5.9229 19.8277 5.87938C19.8773 5.83586 19.9178 5.78294 19.9468 5.72369L20.736 4.14532L22.7548 5.01051C22.7368 5.12011 22.7309 5.23136 22.7372 5.34226C22.7479 5.53902 22.7976 5.73169 22.8834 5.90911C22.9691 6.08654 23.0892 6.24519 23.2367 6.37588L24.7299 7.70651C25.0042 7.95142 25.3593 8.08652 25.727 8.08594C25.8503 8.08582 25.973 8.07065 26.0925 8.04076L27.0413 9.46388C26.906 9.66255 26.8205 9.89084 26.792 10.1295C26.7634 10.3681 26.7927 10.6102 26.8773 10.8351L27.5822 12.7068C27.6662 12.9295 27.8022 13.129 27.9787 13.2887C28.1553 13.4483 28.3673 13.5637 28.5973 13.6251L28.8772 15.3043C28.6492 15.4126 28.4522 15.5767 28.3046 15.7813C28.1569 15.986 28.0632 16.2246 28.0322 16.4751V16.4751L27.7875 18.4598C27.7583 18.6974 27.7865 18.9386 27.8697 19.1631C27.9529 19.3875 28.0887 19.5888 28.2656 19.7501L27.8042 21.3652C27.6698 21.3533 27.5344 21.3595 27.4017 21.3836C27.2077 21.4185 27.0225 21.4914 26.8569 21.5983C26.6913 21.7052 26.5485 21.8439 26.4368 22.0063L25.2988 23.6507C25.159 23.8529 25.0711 24.0863 25.0427 24.3304C25.0143 24.5745 25.0463 24.8219 25.136 25.0507L23.7832 26.1332C23.5744 26.0361 23.3461 25.9884 23.116 25.9938C22.8859 25.9993 22.6601 26.0576 22.4562 26.1644L20.6848 27.0929C20.51 27.1838 20.355 27.3086 20.2287 27.4598C20.1025 27.6111 20.0075 27.7859 19.9492 27.9741C19.9164 28.0794 19.8952 28.188 19.886 28.2979L18.2991 28.7513C18.1676 28.5231 17.9782 28.3335 17.7502 28.2016C17.5222 28.0697 17.2634 28.0002 17 28.0001H15C14.7365 28.0003 14.4777 28.0698 14.2497 28.2018C14.0216 28.3337 13.8323 28.5234 13.7008 28.7517L12.1139 28.2983C12.1047 28.1884 12.0835 28.0798 12.0507 27.9745C11.9925 27.7863 11.8975 27.6115 11.7712 27.4602C11.6449 27.3089 11.4899 27.1842 11.3152 27.0933L9.54372 26.1646C9.3398 26.0578 9.11401 25.9994 8.88387 25.994C8.65374 25.9886 8.42545 26.0362 8.21672 26.1333L6.86391 25.0511C6.95354 24.8222 6.98557 24.5749 6.95718 24.3308C6.92879 24.0866 6.84085 23.8532 6.7011 23.6511L5.5631 22.0063C5.45141 21.844 5.30862 21.7054 5.14302 21.5986C4.97741 21.4918 4.79226 21.4188 4.59829 21.3841C4.46556 21.3598 4.33019 21.3535 4.19579 21.3653L3.73435 19.7501C3.91129 19.5888 4.04704 19.3875 4.13022 19.1631C4.21341 18.9386 4.24161 18.6974 4.21247 18.4598L3.96772 16.4751C3.93673 16.2246 3.84305 15.9861 3.69535 15.7815C3.54766 15.5769 3.35072 15.4129 3.12279 15.3046L3.40235 13.6275C3.48117 13.6062 3.55815 13.5786 3.63254 13.5449C3.81223 13.4641 3.97413 13.3485 4.10886 13.2047C4.24359 13.061 4.34849 12.8919 4.41747 12.7074L5.12235 10.8357C5.20695 10.6107 5.23622 10.3687 5.20768 10.1301C5.17913 9.8914 5.09362 9.66312 4.95835 9.46444L5.9071 8.04132C6.02664 8.07121 6.14938 8.08638 6.2726 8.08651C6.64034 8.08705 6.99537 7.95195 7.26972 7.70707L8.76291 6.37644C8.91046 6.24568 9.03059 6.08694 9.11634 5.90942C9.2021 5.73189 9.25176 5.53912 9.26247 5.34226C9.26878 5.23136 9.26287 5.12011 9.24485 5.01051L9.91829 4.72194C10.2151 5.10395 10.641 5.36467 11.1162 5.45528C11.5914 5.54589 12.0833 5.46017 12.4998 5.21419C12.9164 4.9682 13.229 4.57881 13.3791 4.11894C13.5292 3.65906 13.5065 3.16023 13.3153 2.71586C13.1241 2.2715 12.7775 1.91206 12.3404 1.70486C11.9032 1.49766 11.4056 1.45691 10.9405 1.59024C10.4755 1.72357 10.0751 2.02183 9.81411 2.42918C9.55317 2.83653 9.44967 3.32502 9.52297 3.80319L8.75735 4.13132C8.48242 3.88856 8.12805 3.75497 7.76128 3.75582C7.39451 3.75668 7.04077 3.89191 6.76697 4.13594L5.27385 5.46657C4.99346 5.71715 4.81732 6.06384 4.78029 6.43806C4.74325 6.81227 4.84801 7.18676 5.07385 7.48744L4.15185 8.87088C3.7877 8.76139 3.39558 8.79411 3.05462 8.96245C2.71366 9.13079 2.44926 9.4222 2.31479 9.77788L1.60991 11.6496C1.47493 12.0071 1.48179 12.4026 1.62908 12.7552C1.77636 13.1078 2.05293 13.3908 2.4021 13.546L2.12635 15.2005C1.76857 15.2869 1.45509 15.502 1.24559 15.8046C1.0361 16.1072 0.945228 16.4763 0.990286 16.8416L1.23479 18.8267C1.27996 19.1896 1.45598 19.5236 1.72984 19.766C2.00369 20.0084 2.35657 20.1425 2.72229 20.1433C2.74991 20.1433 2.77779 20.1423 2.80566 20.1408L3.27741 21.7918C3.0255 22.0392 2.86916 22.3678 2.83599 22.7194C2.80283 23.0709 2.89498 23.4229 3.09616 23.7131L4.23422 25.3578C4.3459 25.5201 4.48868 25.6587 4.65429 25.7655C4.81991 25.8723 5.00506 25.9452 5.19904 25.98C5.28872 25.9963 5.37969 26.0046 5.47085 26.0046C5.7299 26.0045 5.98441 25.9366 6.2091 25.8077L7.49816 26.8389C7.32856 27.1896 7.30185 27.5924 7.42368 27.9624C7.54551 28.3323 7.80634 28.6405 8.1511 28.8218L9.9226 29.7501C10.2485 29.921 10.6259 29.9661 10.9828 29.8766C11.3398 29.7872 11.6514 29.5696 11.8582 29.2652L13.5194 29.7398C13.5768 30.0913 13.7571 30.4109 14.0283 30.6418C14.2995 30.8726 14.6439 30.9996 15 31.0001H17C17.3561 30.9996 17.7004 30.8726 17.9716 30.6418C18.2428 30.411 18.4231 30.0914 18.4805 29.7399L20.1417 29.2653C20.3487 29.5695 20.6603 29.787 21.0172 29.8764C21.3741 29.9658 21.7514 29.9208 22.0773 29.7501L23.8488 28.8216C24.1936 28.6404 24.4544 28.3322 24.5763 27.9623C24.6981 27.5923 24.6714 27.1895 24.5018 26.8388L25.7908 25.8076C26.0155 25.9365 26.27 26.0044 26.5291 26.0045C26.6203 26.0045 26.7112 25.9962 26.8009 25.9799C26.9949 25.9451 27.18 25.8722 27.3457 25.7654C27.5113 25.6586 27.654 25.52 27.7657 25.3576L28.9038 23.713C29.105 23.4228 29.1971 23.0708 29.164 22.7192C29.1308 22.3677 28.9744 22.0391 28.7225 21.7916L29.1943 20.1406C29.2222 20.1422 29.25 20.1432 29.2777 20.1432C29.6434 20.1424 29.9962 20.0082 30.2701 19.7658C30.5439 19.5234 30.72 19.1895 30.7652 18.8266L31.0097 16.8416C31.0547 16.4763 30.9639 16.1071 30.7544 15.8045C30.5449 15.5018 30.2314 15.2868 29.8736 15.2004V15.2005ZM11.5 2.50007C11.6978 2.50007 11.8911 2.55872 12.0555 2.6686C12.22 2.77848 12.3482 2.93466 12.4239 3.11739C12.4995 3.30011 12.5193 3.50118 12.4808 3.69516C12.4422 3.88914 12.3469 4.06732 12.2071 4.20718C12.0672 4.34703 11.889 4.44227 11.6951 4.48085C11.5011 4.51944 11.3 4.49964 11.1173 4.42395C10.9346 4.34826 10.7784 4.22009 10.6685 4.05564C10.5586 3.89119 10.5 3.69785 10.5 3.50007C10.5003 3.23495 10.6057 2.98078 10.7932 2.79331C10.9807 2.60584 11.2349 2.50038 11.5 2.50007V2.50007ZM23.9023 5.62932C23.8461 5.57913 23.8021 5.51678 23.7735 5.44701L23.803 5.45951C23.8942 5.49851 23.9949 5.50955 24.0923 5.49121C24.1897 5.47287 24.2795 5.42598 24.3502 5.3565C24.4209 5.28703 24.4694 5.1981 24.4894 5.10101C24.5095 5.00393 24.5002 4.90307 24.4628 4.81126C24.5007 4.83052 24.5359 4.85451 24.5677 4.88263L26.0608 6.21326C26.159 6.30068 26.2186 6.42336 26.2267 6.55457C26.1481 6.51448 26.0604 6.49592 25.9723 6.50077C25.8842 6.50562 25.799 6.53371 25.7253 6.58219C25.6516 6.63066 25.592 6.69779 25.5527 6.77675C25.5134 6.8557 25.4957 6.94367 25.5013 7.03169C25.4631 7.01233 25.4275 6.98816 25.3955 6.95976L23.9023 5.62932ZM27.8135 10.4828C27.8107 10.4753 27.8087 10.4678 27.8063 10.4603C27.8944 10.4975 27.9914 10.5087 28.0857 10.4924C28.18 10.4761 28.2676 10.4331 28.3381 10.3684C28.4086 10.3037 28.4591 10.2201 28.4834 10.1276C28.5078 10.035 28.505 9.93745 28.4754 9.84644C28.538 9.87261 28.5946 9.91128 28.6417 9.9601C28.6888 10.0089 28.7254 10.0668 28.7493 10.1303L29.4542 12.002C29.493 12.105 29.4968 12.2181 29.4647 12.3234C29.4327 12.4288 29.3667 12.5206 29.277 12.5846C29.1928 12.5279 29.0932 12.4985 28.9917 12.5001C28.8902 12.5018 28.7916 12.5345 28.7092 12.5939C28.6219 12.5362 28.5551 12.4524 28.5183 12.3544L27.8135 10.4828ZM5.93916 6.21338L7.43229 4.88276C7.46409 4.85447 7.49937 4.83036 7.53729 4.81101C7.49981 4.90282 7.49049 5.0037 7.5105 5.10082C7.5305 5.19795 7.57894 5.28693 7.64964 5.35646C7.72035 5.42599 7.81014 5.47292 7.90758 5.49129C8.00503 5.50966 8.10574 5.49864 8.19691 5.45963L8.22641 5.44713C8.19789 5.5169 8.15384 5.57926 8.0976 5.62944L6.60447 6.96001C6.57238 6.98841 6.5368 7.0126 6.4986 7.03201C6.50431 6.94397 6.48659 6.856 6.44726 6.77704C6.40794 6.69807 6.34839 6.63093 6.27469 6.58245C6.20099 6.53397 6.11577 6.50587 6.02768 6.50102C5.9396 6.49616 5.8518 6.51473 5.77322 6.55482C5.78128 6.42356 5.84093 6.30082 5.93916 6.21338V6.21338ZM2.54579 12.002L3.2506 10.1303C3.27456 10.067 3.31119 10.0093 3.35824 9.96064C3.40529 9.91199 3.46177 9.87345 3.52422 9.84738C3.49459 9.9384 3.4918 10.036 3.51617 10.1286C3.54053 10.2212 3.59104 10.3048 3.66164 10.3694C3.73225 10.434 3.81996 10.477 3.91432 10.4931C4.00867 10.5092 4.10567 10.4978 4.19372 10.4603C4.19129 10.4678 4.18935 10.4753 4.18654 10.4828L3.4816 12.3544C3.44486 12.4524 3.37804 12.5362 3.29072 12.5939C3.20839 12.5345 3.10987 12.5018 3.00839 12.5001C2.90691 12.4984 2.80735 12.5279 2.7231 12.5844C2.63362 12.5204 2.56775 12.4286 2.5357 12.3233C2.50364 12.218 2.50719 12.1051 2.54579 12.002V12.002ZM2.22704 18.7044L1.98254 16.7194C1.97431 16.6542 1.9791 16.5881 1.99661 16.5248C2.01413 16.4615 2.04404 16.4023 2.0846 16.3506C2.09379 16.3389 2.10335 16.3278 2.1136 16.3171C2.19011 16.4108 2.29816 16.4735 2.41754 16.4933C2.49885 16.507 2.58227 16.5002 2.66034 16.4737C2.7384 16.4471 2.80865 16.4016 2.86479 16.3413C2.92521 16.4143 2.96345 16.5031 2.97497 16.5972L3.21554 18.5498C3.13216 18.5097 3.03929 18.4936 2.94729 18.5032C2.8553 18.5129 2.76779 18.5479 2.69454 18.6044C2.62128 18.6609 2.56517 18.7366 2.53246 18.8231C2.49975 18.9096 2.49172 19.0036 2.50929 19.0944C2.43324 19.0584 2.36752 19.0038 2.31822 18.9356C2.26892 18.8675 2.23764 18.7879 2.22729 18.7044H2.22704ZM5.3781 24.9961C5.31345 24.9846 5.25174 24.9603 5.19654 24.9247C5.14134 24.8891 5.09375 24.8429 5.05654 24.7888L3.91872 23.1438C3.88337 23.0926 3.85793 23.0351 3.84372 22.9745C3.92812 23.0024 4.01845 23.0073 4.10538 22.9887C4.1923 22.97 4.27267 22.9285 4.33819 22.8684C4.40371 22.8083 4.45199 22.7318 4.47806 22.6468C4.50413 22.5619 4.50703 22.4714 4.48647 22.3849C4.58995 22.4186 4.67949 22.4853 4.74129 22.5748L5.87935 24.2194C5.93685 24.3023 5.96778 24.4006 5.96804 24.5014C5.84068 24.5093 5.72117 24.5656 5.6341 24.6589C5.54703 24.7521 5.49903 24.8752 5.49997 25.0028C5.45923 25.0056 5.4183 25.0033 5.3781 24.9961V24.9961ZM10.3868 28.8644L8.61535 27.9361C8.53191 27.8925 8.46252 27.8262 8.41522 27.7448C8.36792 27.6634 8.34465 27.5703 8.3481 27.4763C8.4216 27.4998 8.49957 27.506 8.57587 27.4944C8.65218 27.4827 8.72473 27.4535 8.78783 27.409C8.85093 27.3646 8.90285 27.3061 8.93951 27.2382C8.97617 27.1702 8.99657 27.0947 8.9991 27.0176C9.02681 27.0261 9.05373 27.0371 9.07954 27.0503L10.851 27.9788C10.8687 27.9881 10.8858 27.9986 10.9023 28.01C10.8059 28.0291 10.7172 28.0762 10.6475 28.1455C10.5777 28.2147 10.53 28.303 10.5102 28.3993C10.4904 28.4956 10.4994 28.5956 10.5362 28.6867C10.573 28.7779 10.6358 28.8562 10.7168 28.9118C10.6047 28.9345 10.4881 28.9178 10.3868 28.8644V28.8644ZM15 30.0001C14.9119 30 14.8254 29.9765 14.7493 29.932C14.8255 29.8885 14.8888 29.8256 14.9328 29.7497C14.9768 29.6739 15.0001 29.5877 15.0001 29.5C15.0002 29.4123 14.9771 29.3262 14.9332 29.2502C14.8892 29.1743 14.826 29.1114 14.75 29.0677C14.8259 29.0234 14.9121 29.0001 15 29.0001H17C17.0878 29.0001 17.1741 29.0234 17.25 29.0677C17.1739 29.1114 17.1107 29.1743 17.0668 29.2503C17.0229 29.3262 16.9998 29.4123 16.9999 29.5C16.9999 29.5878 17.0232 29.6739 17.0672 29.7497C17.1112 29.8256 17.1745 29.8885 17.2507 29.932C17.1746 29.9766 17.0881 30.0001 17 30.0001H15ZM23.6298 27.6422C23.6103 27.7049 23.5787 27.7632 23.5366 27.8136C23.4945 27.864 23.4428 27.9056 23.3846 27.9359L21.6132 28.8644C21.5119 28.9178 21.3953 28.9345 21.2831 28.9118C21.3641 28.8562 21.427 28.7779 21.4638 28.6868C21.5005 28.5956 21.5096 28.4957 21.4898 28.3994C21.47 28.3031 21.4222 28.2148 21.3525 28.1456C21.2827 28.0763 21.1941 28.0292 21.0977 28.0101C21.1141 27.9986 21.1313 27.9882 21.149 27.9788L22.9204 27.0501C22.9462 27.0368 22.9731 27.0259 23.0008 27.0173C23.0034 27.0945 23.0238 27.17 23.0604 27.2379C23.0971 27.3058 23.149 27.3643 23.2121 27.4088C23.2752 27.4532 23.3478 27.4824 23.4241 27.4941C23.5004 27.5057 23.5784 27.4995 23.6518 27.4759C23.6539 27.5322 23.6464 27.5884 23.6298 27.6422ZM26.9437 24.7888C26.8947 24.8599 26.828 24.9171 26.7502 24.9546C26.6724 24.9921 26.5862 25.0087 26.5 25.0028C26.5009 24.8754 26.4529 24.7524 26.366 24.6593C26.2791 24.5661 26.1598 24.5097 26.0326 24.5017C26.0329 24.4009 26.0638 24.3025 26.1213 24.2197L27.2592 22.5751C27.321 22.4855 27.4105 22.4188 27.514 22.3852C27.4933 22.4717 27.4961 22.5622 27.5222 22.6472C27.5482 22.7323 27.5965 22.8088 27.662 22.8689C27.7276 22.929 27.808 22.9706 27.895 22.9892C27.982 23.0078 28.0723 23.0028 28.1567 22.9748C28.1425 23.0354 28.1171 23.0928 28.0817 23.1441L26.9437 24.7888ZM30.0175 16.7194L29.773 18.7044C29.7625 18.7878 29.7312 18.8672 29.682 18.9353C29.6327 19.0033 29.5671 19.0579 29.4912 19.0939C29.5087 19.0031 29.5006 18.9092 29.4679 18.8226C29.4351 18.7361 29.3789 18.6604 29.3056 18.6039C29.2323 18.5475 29.1448 18.5125 29.0527 18.5029C28.9607 18.4933 28.8678 18.5095 28.7845 18.5497L29.025 16.5971C29.0366 16.5031 29.0749 16.4143 29.1353 16.3413C29.182 16.3912 29.2383 16.4311 29.3009 16.4584C29.3635 16.4857 29.431 16.4999 29.4993 16.5001C29.5271 16.5001 29.5548 16.4978 29.5822 16.4932C29.7015 16.4734 29.8096 16.4107 29.8861 16.3169C29.8962 16.3277 29.9059 16.3388 29.9151 16.3505C29.9557 16.4022 29.9856 16.4614 30.0031 16.5247C30.0206 16.588 30.0254 16.6542 30.0172 16.7194H30.0175Z" fill="black"/>
</svg>
