<svg width="32" height="32" viewBox="0 0 32 32" fill="none" xmlns="http://www.w3.org/2000/svg">
<path d="M14.3246 31.2209H1.92635C1.05808 31.2209 0.352661 30.5147 0.352661 29.6465V20.9474C0.352661 20.0799 1.05879 19.373 1.92635 19.373H14.3246C15.1928 19.373 15.8983 20.0792 15.8983 20.9474V29.6465C15.899 30.5147 15.1928 31.2209 14.3246 31.2209ZM1.92635 20.0849C1.45062 20.0849 1.06377 20.4717 1.06377 20.9482V29.6472C1.06377 30.1229 1.45062 30.5105 1.92635 30.5105H14.3246C14.8003 30.5105 15.1872 30.1236 15.1872 29.6472V20.9474C15.1872 20.4717 14.8003 20.0842 14.3246 20.0842H1.92635V20.0849Z" fill="black"/>
<path d="M2.48317 31.2212C2.41206 31.2212 2.34024 31.1998 2.27766 31.155C2.11766 31.0413 2.07997 30.8194 2.19375 30.6594C2.39784 30.3728 2.50593 30.0343 2.50593 29.6802C2.50593 28.7479 1.74717 27.9892 0.814904 27.9892C0.785748 27.9892 0.756593 27.9899 0.727437 27.9913C0.53117 28.002 0.364059 27.8505 0.354104 27.6542C0.344148 27.458 0.494904 27.2909 0.69117 27.2809C0.732415 27.2788 0.773659 27.2773 0.815615 27.2773C2.14041 27.2773 3.21775 28.3547 3.21775 29.6795C3.21775 30.1815 3.06415 30.6629 2.77401 31.0704C2.70361 31.1693 2.5941 31.2212 2.48317 31.2212Z" fill="black"/>
<path d="M13.7685 31.2212C13.6576 31.2212 13.5481 31.1693 13.4784 31.0719C13.1883 30.6644 13.0347 30.183 13.0347 29.6809C13.0347 28.3561 14.112 27.2788 15.4368 27.2788C15.4788 27.2788 15.52 27.2802 15.5612 27.2824C15.7575 27.2923 15.9083 27.4594 15.8983 27.6557C15.8884 27.852 15.7205 28.0034 15.525 27.9928C15.4958 27.9913 15.4667 27.9906 15.4375 27.9906C14.5052 27.9906 13.7465 28.7494 13.7465 29.6817C13.7465 30.0351 13.8546 30.3736 14.058 30.6609C14.1717 30.8209 14.134 31.0427 13.974 31.1565C13.9122 31.1999 13.8404 31.2212 13.7685 31.2212V31.2212Z" fill="black"/>
<path d="M15.5434 24.5246H9.19248C8.99622 24.5246 8.83693 24.3653 8.83693 24.169C8.83693 23.9728 8.99622 23.8135 9.19248 23.8135H15.5434C15.7397 23.8135 15.899 23.9728 15.899 24.169C15.899 24.3653 15.7397 24.5246 15.5434 24.5246ZM7.05915 24.5246H0.708217C0.51195 24.5246 0.352661 24.3653 0.352661 24.169C0.352661 23.9728 0.51195 23.8135 0.708217 23.8135H7.05915C7.25542 23.8135 7.41471 23.9728 7.41471 24.169C7.41471 24.3653 7.25542 24.5246 7.05915 24.5246Z" fill="black"/>
<path d="M10.6702 20.0851H5.58151C5.38524 20.0851 5.22595 19.9258 5.22595 19.7295V18.4993C5.22595 17.9112 5.70453 17.4326 6.29262 17.4326H9.95911C10.5472 17.4326 11.0258 17.9112 11.0258 18.4993V19.7295C11.0258 19.9258 10.8665 20.0851 10.6702 20.0851ZM5.93706 19.374H10.3147V18.4993C10.3147 18.303 10.1554 18.1437 9.95911 18.1437H6.29262C6.09635 18.1437 5.93706 18.303 5.93706 18.4993V19.374Z" fill="black"/>
<path d="M9.1925 25.6767H7.05917C6.8629 25.6767 6.70361 25.5174 6.70361 25.3212V23.0172C6.70361 22.8209 6.8629 22.6616 7.05917 22.6616H9.1925C9.38877 22.6616 9.54806 22.8209 9.54806 23.0172V25.3212C9.54806 25.5174 9.38877 25.6767 9.1925 25.6767ZM7.41472 24.9656H8.83695V23.3727H7.41472V24.9656Z" fill="black"/>
<path d="M30.0736 15.278H17.6754C16.8078 15.278 16.1017 14.5719 16.1017 13.7044V5.00533C16.1017 4.13706 16.8078 3.43164 17.6754 3.43164H30.0736C30.9412 3.43164 31.6473 4.13777 31.6473 5.00533V13.7044C31.6473 14.5719 30.9412 15.278 30.0736 15.278ZM17.6754 4.14204C17.1996 4.14204 16.8128 4.52889 16.8128 5.00462V13.7036C16.8128 14.1794 17.1996 14.5662 17.6754 14.5662H30.0736C30.5493 14.5662 30.9362 14.1794 30.9362 13.7036V5.00533C30.9362 4.5296 30.5493 4.14275 30.0736 4.14275H17.6754V4.14204Z" fill="black"/>
<path d="M18.2315 15.2781C18.1604 15.2781 18.0878 15.2567 18.026 15.2119C17.866 15.0982 17.8283 14.8763 17.942 14.7163C18.1461 14.4297 18.2542 14.0912 18.2542 13.7371C18.2542 12.8048 17.4955 12.0461 16.5632 12.0461C16.534 12.0461 16.5049 12.0468 16.4757 12.0482C16.2788 12.0596 16.1124 11.9074 16.1024 11.7111C16.0924 11.5149 16.2432 11.3478 16.4395 11.3378C16.4807 11.3357 16.5219 11.335 16.5639 11.335C17.8887 11.335 18.966 12.4123 18.966 13.7371C18.966 14.2391 18.8124 14.7206 18.5223 15.128C18.4519 15.2262 18.3424 15.2781 18.2315 15.2781V15.2781Z" fill="black"/>
<path d="M29.5168 15.2778C29.4059 15.2778 29.2964 15.2259 29.2267 15.1285C28.9366 14.7203 28.783 14.2396 28.783 13.7376C28.783 12.4128 29.8603 11.3354 31.1851 11.3354C31.227 11.3354 31.2683 11.3362 31.3095 11.3383C31.5058 11.3482 31.6566 11.5154 31.6466 11.7116C31.6366 11.9079 31.4702 12.0601 31.2733 12.0487C31.2441 12.0473 31.215 12.0466 31.1858 12.0466C30.2535 12.0466 29.4948 12.8053 29.4948 13.7376C29.4948 14.091 29.6029 14.4295 29.807 14.7168C29.9207 14.8768 29.883 15.0986 29.723 15.2124C29.6605 15.2565 29.5886 15.2778 29.5168 15.2778Z" fill="black"/>
<path d="M31.2917 8.58172H24.9408C24.7445 8.58172 24.5852 8.42243 24.5852 8.22616C24.5852 8.02989 24.7445 7.87061 24.9408 7.87061H31.2917C31.488 7.87061 31.6473 8.02989 31.6473 8.22616C31.6473 8.42243 31.488 8.58172 31.2917 8.58172ZM22.8074 8.58172H16.4565C16.2602 8.58172 16.101 8.42243 16.101 8.22616C16.101 8.02989 16.2602 7.87061 16.4565 7.87061H22.8074C23.0037 7.87061 23.163 8.02989 23.163 8.22616C23.163 8.42243 23.0037 8.58172 22.8074 8.58172Z" fill="black"/>
<path d="M26.4185 4.14219H21.3298C21.1335 4.14219 20.9742 3.9829 20.9742 3.78663V2.55641C20.9742 1.96832 21.4528 1.48975 22.0409 1.48975H25.7074C26.2955 1.48975 26.7741 1.96832 26.7741 2.55641V3.78663C26.7741 3.9829 26.6148 4.14219 26.4185 4.14219ZM21.6854 3.43108H26.063V2.55641C26.063 2.36015 25.9037 2.20086 25.7074 2.20086H22.0409C21.8446 2.20086 21.6854 2.36015 21.6854 2.55641V3.43108Z" fill="black"/>
<path d="M24.9408 9.73386H22.8075C22.6112 9.73386 22.4519 9.57457 22.4519 9.37831V7.07431C22.4519 6.87804 22.6112 6.71875 22.8075 6.71875H24.9408C25.1371 6.71875 25.2963 6.87804 25.2963 7.07431V9.37831C25.2963 9.57457 25.1371 9.73386 24.9408 9.73386ZM23.163 9.02275H24.5852V7.42986H23.163V9.02275Z" fill="black"/>
<path d="M6.55856 13.3562C6.44834 13.3562 6.34452 13.305 6.27696 13.2183L3.4702 9.58876C3.387 9.48139 3.37278 9.33632 3.43252 9.21472C3.49225 9.09312 3.61598 9.01561 3.7518 9.01561H5.20745V2.12992C5.20745 1.38468 5.81332 0.778809 6.55856 0.778809H11.9033C12.6485 0.778809 13.2544 1.38468 13.2544 2.12992C13.2544 2.87516 12.6485 3.48103 11.9033 3.48103H7.90967V9.01561H9.36532C9.50114 9.01561 9.62487 9.09312 9.6846 9.21472C9.74434 9.33632 9.7294 9.48139 9.64692 9.58876L6.84016 13.2183C6.77189 13.305 6.66807 13.3562 6.55856 13.3562V13.3562ZM4.47643 9.72672L6.55856 12.419L8.64069 9.72672H7.55412C7.35785 9.72672 7.19856 9.56743 7.19856 9.37116V3.12548C7.19856 2.92921 7.35785 2.76992 7.55412 2.76992H11.9033C12.256 2.76992 12.5433 2.48263 12.5433 2.12992C12.5433 1.77721 12.256 1.48992 11.9033 1.48992H6.55856C6.20585 1.48992 5.91856 1.77721 5.91856 2.12992V9.37116C5.91856 9.56743 5.75927 9.72672 5.563 9.72672H4.47643Z" fill="black"/>
<path d="M25.4414 31.2215H20.0967C19.3515 31.2215 18.7456 30.6156 18.7456 29.8704C18.7456 29.1251 19.3515 28.5192 20.0967 28.5192H24.0903V22.9847H22.6347C22.4989 22.9847 22.3751 22.9079 22.3154 22.7856C22.2557 22.664 22.2706 22.5189 22.3531 22.4115L25.1598 18.782C25.2274 18.6945 25.3312 18.644 25.4407 18.644C25.5502 18.644 25.6548 18.6952 25.7216 18.782L28.5284 22.4115C28.6116 22.5189 28.6258 22.664 28.5661 22.7856C28.5063 22.9072 28.3826 22.9847 28.2468 22.9847H26.7911V29.8704C26.7925 30.6156 26.1867 31.2215 25.4414 31.2215V31.2215ZM20.0974 29.2304C19.7447 29.2304 19.4574 29.5176 19.4574 29.8704C19.4574 30.2231 19.7447 30.5104 20.0974 30.5104H25.4421C25.7949 30.5104 26.0821 30.2231 26.0821 29.8704V22.6291C26.0821 22.4328 26.2414 22.2736 26.4377 22.2736H27.5243L25.4421 19.5813L23.36 22.2736H24.4466C24.6429 22.2736 24.8021 22.4328 24.8021 22.6291V28.8748C24.8021 29.0711 24.6429 29.2304 24.4466 29.2304H20.0974Z" fill="black"/>
</svg>
