<svg xmlns="http://www.w3.org/2000/svg" xmlns:xlink="http://www.w3.org/1999/xlink" width="32" height="32" viewBox="0 0 32 32">
  <defs>
    <clipPath id="clip-path">
      <rect id="Rectangle_12586" data-name="Rectangle 12586" width="28" height="27.809"/>
    </clipPath>
  </defs>
  <g id="Group_37670" data-name="Group 37670" transform="translate(10187 1859)">
    <g id="Rectangle_12544" data-name="Rectangle 12544" transform="translate(-10187 -1859)" stroke="#707070" stroke-width="1" opacity="0">
      <rect width="32" height="32" stroke="none"/>
      <rect x="0.5" y="0.5" width="31" height="31" fill="none"/>
    </g>
    <g id="Group_37702" data-name="Group 37702" transform="translate(-10185 -1857)">
      <g id="Group_37702-2" data-name="Group 37702" clip-path="url(#clip-path)">
        <path id="Path_105532" data-name="Path 105532" d="M28,11.241a1.058,1.058,0,0,1-.591.71,6.959,6.959,0,0,1-.95.167c.088.139.177.283.27.424a5.658,5.658,0,0,1,.95,3.252c-.015,1.2,0,2.406-.008,3.609a.975.975,0,0,1-1.045,1.067c-.219,0-.438.009-.656,0A.966.966,0,0,1,25,19.458c-.007-.428,0-.856,0-1.305H19.6a.969.969,0,0,1-.417,1.013,5.344,5.344,0,0,1-1.083.32c.052.086.141.228.225.373.146.252.3.5.429.76s.08.467-.141.584-.437.044-.587-.211c-.281-.478-.564-.956-.867-1.421a.447.447,0,0,0-.323-.169q-5.687-.013-11.374,0c-.09,0-.223.022-.263.083a6.486,6.486,0,0,0-1.251,2.493,17.093,17.093,0,0,0-.117,1.8c-.013.28,0,.561,0,.856h.391c0-.144.009-.3,0-.445a1.531,1.531,0,0,1,2.111-1.647A3.171,3.171,0,0,1,8.577,24.4a.353.353,0,0,0,.382.249q2.16-.015,4.32,0a.426.426,0,0,0,.467-.289,3.115,3.115,0,0,1,2.838-1.9,1.378,1.378,0,0,1,1.477,1.357c.014.262,0,.526,0,.806h.41c0-.553-.016-1.1.011-1.642a.49.49,0,0,1,.246-.364.541.541,0,0,1,.439.09.523.523,0,0,1,.119.369c.011.547,0,1.094,0,1.64,0,.674,0,1.349-.007,2.023a.977.977,0,0,1-1.056,1.06c-.219,0-.438.009-.656,0a.953.953,0,0,1-.953-.988c-.005-.436,0-.872,0-1.328H5.7a1.728,1.728,0,0,0-.021.193c0,.383.006.766,0,1.148a.949.949,0,0,1-.891.967,5.272,5.272,0,0,1-.874,0,.946.946,0,0,1-.9-.981c0-1.321-.012-2.643,0-3.965a5.4,5.4,0,0,1,.92-2.93c.1-.157.2-.317.33-.521-.217,0-.378,0-.538,0a1.046,1.046,0,0,1-1.036-.967,1.056,1.056,0,0,1,.837-1.1,2.761,2.761,0,0,1,1.518.189c.158-.494.316-.984.47-1.475A1.657,1.657,0,0,1,7.324,14.71c1.294,0,2.588-.005,3.883,0,.215,0,.294-.063.338-.275a6.555,6.555,0,0,1,.93-2.083c.051-.083.1-.167.118-.2a5.4,5.4,0,0,1-1.093-.321.929.929,0,0,1-.4-1.016H2.951c0,.427,0,.844,0,1.261a.967.967,0,0,1-1.03,1.051c-.246,0-.493.011-.738-.007a.919.919,0,0,1-.9-.9C.281,10.739.272,9.253.326,7.769a5.7,5.7,0,0,1,1-2.687c.06-.1.121-.2.213-.349-.212,0-.379,0-.546,0A.983.983,0,0,1,0,3.686.97.97,0,0,1,1,2.654a2,2,0,0,1,1.315.217c.162-.51.318-.992.47-1.474A1.83,1.83,0,0,1,5.042.049a.371.371,0,0,1,.331.428.361.361,0,0,1-.379.382c-.191.007-.383,0-.574.007a.809.809,0,0,0-.746.467,1.783,1.783,0,0,0-.091.257C3.342,2.351,3.1,3.114,2.855,3.9h11.1a.318.318,0,0,0,0-.093c-.247-.79-.488-1.582-.746-2.369a.817.817,0,0,0-.893-.572q-2.187,0-4.375,0c-.091,0-.183,0-.273-.006a.346.346,0,0,1-.35-.348.38.38,0,0,1,.3-.451A1.162,1.162,0,0,1,7.892.04q2.2,0,4.4,0a1.659,1.659,0,0,1,1.745,1.28c.16.5.316,1.005.486,1.546a2.1,2.1,0,0,1,1.35-.211.964.964,0,0,1,.967,1.007A.984.984,0,0,1,15.9,4.73c-.18.01-.361,0-.593,0a7.442,7.442,0,0,1,1.168,2.644h6.91a1.653,1.653,0,0,1,1.775,1.307c.159.5.32,1,.484,1.516a2.16,2.16,0,0,1,1.53-.185A1.048,1.048,0,0,1,28,10.8ZM1.508,9.969c0-.3-.017-.574,0-.845A1.368,1.368,0,0,1,2.96,7.8,3.122,3.122,0,0,1,5.85,9.74a.356.356,0,0,0,.384.246q2.159-.015,4.318,0a.429.429,0,0,0,.464-.294A3.089,3.089,0,0,1,13.99,7.806a1.28,1.28,0,0,0,.694-.175,5.186,5.186,0,0,1,.942-.329c0-.009-.008-.044-.016-.079a7.939,7.939,0,0,0-1.158-2.306.361.361,0,0,0-.353-.186q-5.685.006-11.37,0a.326.326,0,0,0-.33.177c-.2.356-.418.7-.633,1.053a6.773,6.773,0,0,0-.649,4.008ZM26.856,17.3c0-.529-.006-1.046,0-1.563a4.726,4.726,0,0,0-.794-2.71c-.2-.312-.342-.748-.63-.9a2.6,2.6,0,0,0-1.126-.056q-5.208,0-10.416,0a.431.431,0,0,0-.322.117c-.349.574-.688,1.156-1,1.75a5.145,5.145,0,0,0-.263.772h.357c.811,0,1.622,0,2.433,0a1.616,1.616,0,0,1,1.65,1.213c.148.458.293.916.444,1.388h.281c1.413,0,2.825-.006,4.237.006a.393.393,0,0,0,.421-.274,3.119,3.119,0,0,1,2.8-1.911A1.4,1.4,0,0,1,26.464,16.6c0,.233,0,.467,0,.7Zm-1.747-6.064c-.253-.806-.493-1.577-.738-2.348a.847.847,0,0,0-.946-.69q-3.894,0-7.789,0a.84.84,0,0,0-.922.684q-.33,1.04-.656,2.081c-.026.084-.044.171-.07.272ZM5.58,18.559H16.714c-.238-.759-.469-1.5-.7-2.232-.2-.643-.411-.8-1.086-.8H7.36a2.661,2.661,0,0,0-.354.019.691.691,0,0,0-.6.455c-.286.842-.548,1.692-.825,2.554M5.02,9.966a2.267,2.267,0,0,0-2.208-1.34.5.5,0,0,0-.461.437c-.039.293-.034.591-.049.9ZM7.747,24.629a2.274,2.274,0,0,0-2.187-1.342.5.5,0,0,0-.476.424c-.044.3-.039.608-.055.918Zm17.9-7.329c0-.227,0-.434,0-.641-.008-.517-.26-.749-.772-.707a2.137,2.137,0,0,0-.323.05,2.375,2.375,0,0,0-1.64,1.3Zm-8.4,7.329c0-.274.01-.519,0-.763a.575.575,0,0,0-.642-.587,2.258,2.258,0,0,0-1.531.623,8.379,8.379,0,0,0-.6.728ZM13.51,9.968l.419-1.335a2.232,2.232,0,0,0-2.1,1.335ZM25.821,18.14c0,.272,0,.515,0,.759.018.869-.173.736.8.745.027,0,.062.006.08-.008.051-.042.135-.092.136-.141.01-.45.006-.9.006-1.355ZM3.83,25.471c0,.278,0,.531,0,.784.014.834-.142.713.744.723.036,0,.084.013.107-.005.064-.049.167-.11.169-.169.014-.441.008-.883.008-1.332Zm13.609,0c0,.27-.005.522,0,.773.021.855-.18.717.783.729.027,0,.064.008.08-.006.056-.049.148-.1.149-.16.012-.442.007-.884.007-1.337ZM2.128,10.8H1.1c0,.283,0,.526,0,.77.018.855-.165.729.78.739.027,0,.064.009.08-.005.06-.054.159-.114.161-.174.014-.433.007-.866.007-1.329m23.974.442c.293,0,.567.017.837-.01.085-.008.158-.134.236-.207-.076-.075-.142-.194-.23-.214a2.169,2.169,0,0,0-.49-.011c-.339,0-.381.052-.353.442m-13.111,0c.016-.22.03-.411-.213-.434a2.933,2.933,0,0,0-.653.006c-.078.01-.207.142-.2.2a.32.32,0,0,0,.2.222c.277.027.559.011.859.011m4.714,7.332c.29,0,.563.016.831-.009.086-.008.161-.129.242-.2-.082-.078-.152-.2-.247-.225a1.969,1.969,0,0,0-.488-.011c-.3,0-.36.082-.338.443m-13.123,0c.033-.39-.009-.441-.347-.443a1.854,1.854,0,0,0-.461.01c-.1.025-.173.14-.259.215.087.073.167.2.261.208a7.394,7.394,0,0,0,.806.01M1.857,3.911c.023-.4-.014-.439-.361-.441a1.815,1.815,0,0,0-.46.011c-.1.025-.165.144-.247.222.081.07.156.191.242.2.268.026.541.01.826.01m13.128,0c.292,0,.572.016.848-.011.076-.007.179-.14.192-.226.008-.056-.116-.176-.2-.192a2.434,2.434,0,0,0-.486-.011c-.345,0-.381.042-.358.439" transform="translate(0 0)"/>
      </g>
    </g>
  </g>
</svg>
