<svg width="32" height="32" viewBox="0 0 32 32" fill="none" xmlns="http://www.w3.org/2000/svg">
<path d="M22.3041 13.1201H22.2428C21.5872 13.1201 21.0538 12.5891 21.0538 11.9365C21.0538 11.2838 21.5872 10.7529 22.2428 10.7529C22.8984 10.7529 23.4317 11.2838 23.4317 11.9365C23.4317 12.1132 23.575 12.2565 23.7517 12.2565C23.9284 12.2565 24.0717 12.1132 24.0717 11.9365C24.0717 11.0506 23.4346 10.311 22.5934 10.1473V9.77898C22.5934 9.60227 22.4502 9.45898 22.2734 9.45898C22.0967 9.45898 21.9534 9.60227 21.9534 9.77898V10.138C21.0822 10.277 20.4138 11.0294 20.4138 11.9365C20.4138 12.942 21.2342 13.7601 22.2428 13.7601H22.3041C22.9597 13.7601 23.4931 14.291 23.4931 14.9437C23.4931 15.5963 22.9597 16.1273 22.3041 16.1273C21.6484 16.1273 21.1152 15.5963 21.1152 14.9437C21.1152 14.767 20.9719 14.6237 20.7952 14.6237C20.6184 14.6237 20.4752 14.767 20.4752 14.9437C20.4752 15.8295 21.1123 16.5692 21.9534 16.7328V17.1012C21.9534 17.2779 22.0967 17.4212 22.2734 17.4212C22.4502 17.4212 22.5934 17.2779 22.5934 17.1012V16.7422C23.4647 16.6032 24.1331 15.8507 24.1331 14.9437C24.1331 13.9382 23.3127 13.1201 22.3041 13.1201Z" fill="black"/>
<path d="M26.3574 3.2002H18.1895C16.8427 3.2002 15.7469 4.29598 15.7469 5.64285V7.57004H4.98939C4.83376 7.57004 4.70064 7.68207 4.67407 7.83535L4.19089 10.6214H3.63829C3.46642 10.6214 3.32532 10.7572 3.3186 10.9289L3.20032 13.9521C3.19689 14.0391 3.22907 14.1236 3.28939 14.1864C3.3497 14.2491 3.43298 14.2846 3.52001 14.2846H4.37901L4.47849 17.0771H4.17501C4.08782 17.0771 4.00454 17.1125 3.94423 17.1755C3.88392 17.2383 3.85173 17.323 3.85532 17.41L4.11501 23.795C4.12189 23.9666 4.26298 24.1021 4.4347 24.1021H4.72763L4.86579 28.4902C4.87126 28.663 5.01282 28.8002 5.18564 28.8002H16.4639C16.6367 28.8002 16.7783 28.663 16.7838 28.4902L16.8284 27.0741C17.2278 27.3424 17.7003 27.4925 18.1895 27.4925H26.3574C27.7042 27.4925 28.8 26.3968 28.8 25.0499V5.64285C28.8 4.29598 27.7042 3.2002 26.3574 3.2002ZM5.2586 8.21004H16.3903L16.8084 10.6214H4.84048L5.2586 8.21004ZM3.94595 11.2614H17.703L17.7963 13.6446H3.85282L3.94595 11.2614ZM5.0195 14.2846H16.6296L16.5301 17.0771H5.11899L5.0195 14.2846ZM17.1408 17.7171L16.9072 23.4621H4.74189L4.50829 17.7171H17.1408ZM5.49579 28.1602L5.36794 24.1021H16.2817L16.1538 28.1602H5.49579ZM26.3574 26.8525H18.1895C17.6813 26.8525 17.1955 26.6364 16.854 26.2599L16.922 24.1021H17.2144C17.3861 24.1021 17.5272 23.9666 17.5341 23.795L17.6159 21.7832H28.16V25.0499C28.16 26.0439 27.3514 26.8525 26.3574 26.8525V26.8525ZM28.16 21.1432H17.6419L17.7938 17.41C17.7974 17.323 17.7652 17.2383 17.7049 17.1755C17.6445 17.1125 17.5613 17.0771 17.4741 17.0771H17.1706L17.2701 14.2846H18.1291C18.2161 14.2846 18.2994 14.2491 18.3597 14.1864C18.42 14.1236 18.4522 14.0389 18.4488 13.9521L18.3303 10.9289C18.3236 10.7572 18.1825 10.6214 18.0106 10.6214H17.458L16.9749 7.83535C16.9483 7.68207 16.8152 7.57004 16.6595 7.57004H16.3869V5.64285C16.3869 4.64879 17.1955 3.8402 18.1895 3.8402H26.3574C27.3514 3.8402 28.16 4.64879 28.16 5.64285V21.1432Z" fill="black"/>
<path d="M22.2735 22.4893C21.2908 22.4893 20.4913 23.2888 20.4913 24.2714C20.4913 25.2541 21.2908 26.0535 22.2735 26.0535C23.2561 26.0535 24.0556 25.2541 24.0556 24.2714C24.0556 23.2888 23.2561 22.4893 22.2735 22.4893ZM22.2735 25.4135C21.6436 25.4135 21.1313 24.9011 21.1313 24.2714C21.1313 23.6416 21.6436 23.1293 22.2735 23.1293C22.9033 23.1293 23.4156 23.6416 23.4156 24.2714C23.4156 24.9011 22.9033 25.4135 22.2735 25.4135Z" fill="black"/>
<path d="M21.265 5.80113H23.2819C23.4586 5.80113 23.6019 5.65785 23.6019 5.48113C23.6019 5.30441 23.4586 5.16113 23.2819 5.16113H21.265C21.0883 5.16113 20.945 5.30441 20.945 5.48113C20.945 5.65785 21.0883 5.80113 21.265 5.80113Z" fill="black"/>
</svg>
