<svg width="32" height="32" viewBox="0 0 32 32" fill="none" xmlns="http://www.w3.org/2000/svg">
<path d="M8 30.5H26C26.1326 30.5 26.2598 30.4473 26.3536 30.3536C26.4473 30.2598 26.5 30.1326 26.5 30V18C26.4997 17.5897 26.3987 17.1857 26.2059 16.8236L22.5 9.875V3C22.4993 2.33719 22.2356 1.70173 21.7669 1.23306C21.2983 0.764376 20.6628 0.500744 20 0.5H8C7.33719 0.500744 6.70173 0.764376 6.23306 1.23306C5.76438 1.70173 5.50074 2.33719 5.5 3V28C5.50074 28.6628 5.76438 29.2983 6.23306 29.7669C6.70173 30.2356 7.33719 30.4993 8 30.5V30.5ZM22 22.5C22.1326 22.5 22.2598 22.4473 22.3536 22.3536C22.4473 22.2598 22.5 22.1326 22.5 22V12L25.3236 17.2941C25.4392 17.5115 25.4998 17.7538 25.5 18V29.5H22.5C21.3233 29.4986 20.1939 29.037 19.3532 28.2138C18.5124 27.3905 18.0271 26.2711 18.001 25.0947C18.0261 24.9646 17.9985 24.8298 17.9243 24.7201L14.6809 19.9201C14.5695 19.7569 14.4914 19.5733 14.4511 19.3798C14.4109 19.1864 14.4092 18.9869 14.4463 18.7928C14.4833 18.5987 14.5584 18.4138 14.6671 18.2488C14.7758 18.0838 14.9161 17.9419 15.0798 17.8313C15.2436 17.7206 15.4275 17.6435 15.6212 17.6041C15.8148 17.5648 16.0144 17.5641 16.2083 17.6022C16.4022 17.6402 16.5867 17.7161 16.7511 17.8257C16.9156 17.9352 17.0568 18.0762 17.1666 18.2404C17.1696 18.2448 17.1729 18.2491 17.1757 18.2534L20.0947 22.2931C20.1411 22.3572 20.202 22.4094 20.2725 22.4453C20.3429 22.4813 20.4209 22.5 20.5 22.5H22ZM14.5417 21.5H12C11.7348 21.5 11.4804 21.3946 11.2929 21.2071C11.1054 21.0196 11 20.7652 11 20.5C11 20.2348 11.1054 19.9804 11.2929 19.7929C11.4804 19.6054 11.7348 19.5 12 19.5H13.4602C13.5192 19.8509 13.653 20.1849 13.8523 20.4796L14.5417 21.5ZM19 11.4994V11.5C19 12.0514 18.5194 12.5 17.9286 12.5C17.753 12.5019 17.5795 12.4614 17.423 12.3819C17.2664 12.3024 17.1314 12.1862 17.0294 12.0433C16.9833 11.9772 16.9219 11.9231 16.8505 11.8858C16.7791 11.8485 16.6996 11.829 16.619 11.829C16.5384 11.829 16.459 11.8485 16.3876 11.8858C16.3161 11.9231 16.2547 11.9772 16.2087 12.0433C16.1053 12.1848 15.97 12.2999 15.8137 12.3793C15.6575 12.4586 15.4847 12.5 15.3095 12.5C15.1343 12.5 14.9615 12.4586 14.8053 12.3793C14.649 12.2999 14.5137 12.1848 14.4103 12.0433C14.3643 11.9772 14.3029 11.9231 14.2314 11.8858C14.16 11.8485 14.0806 11.829 14 11.829C13.9194 11.829 13.84 11.8485 13.7686 11.8858C13.6971 11.9231 13.6357 11.9772 13.5897 12.0433C13.4863 12.1848 13.351 12.2999 13.1947 12.3793C13.0385 12.4586 12.8657 12.5 12.6905 12.5C12.5153 12.5 12.3425 12.4586 12.1863 12.3793C12.03 12.2999 11.8947 12.1848 11.7913 12.0433C11.7453 11.9772 11.6839 11.9231 11.6124 11.8858C11.541 11.8485 11.4616 11.829 11.381 11.829C11.3004 11.829 11.2209 11.8485 11.1495 11.8858C11.0781 11.9231 11.0167 11.9772 10.9706 12.0433C10.8686 12.1862 10.7336 12.3024 10.577 12.3819C10.4205 12.4614 10.247 12.5019 10.0714 12.5C9.48063 12.5 9 12.0514 9 11.5L19 11.4994ZM10.0503 10.5C10.1663 9.93574 10.4733 9.42873 10.9195 9.06442C11.3658 8.7001 11.9239 8.50076 12.5 8.5H15.5C16.0761 8.50069 16.6344 8.7 17.0807 9.06432C17.527 9.42864 17.834 9.93569 17.95 10.5H10.0503ZM9.90913 13.5V13.4932C9.96275 13.4973 10.0167 13.5 10.0716 13.5C10.5463 13.5012 11.0075 13.3427 11.3812 13.05C11.7553 13.3417 12.2162 13.5001 12.6906 13.5001C13.165 13.5001 13.6258 13.3417 13.9999 13.05C14.3741 13.3417 14.8349 13.5001 15.3093 13.5001C15.7837 13.5001 16.2445 13.3417 16.6187 13.05C16.9923 13.3427 17.4536 13.5012 17.9282 13.5C17.9829 13.5 18.0369 13.4973 18.0907 13.4932V13.5C18.3163 13.5 18.4999 13.7243 18.4999 14C18.4999 14.2757 18.3163 14.5 18.0907 14.5H9.90913C9.68356 14.5 9.5 14.2757 9.5 14C9.5 13.7243 9.68356 13.5 9.90913 13.5V13.5ZM10 15.5H18V16C17.9999 16.1326 17.9471 16.2597 17.8534 16.3534C17.7597 16.4471 17.6326 16.4999 17.5 16.5H10.5C10.3674 16.4999 10.2403 16.4471 10.1466 16.3534C10.0529 16.2597 10.0001 16.1326 10 16V15.5ZM6.5 3C6.50046 2.60232 6.65865 2.22106 6.93985 1.93985C7.22106 1.65865 7.60232 1.50046 8 1.5H20C20.3977 1.50046 20.7789 1.65865 21.0601 1.93985C21.3414 2.22106 21.4995 2.60232 21.5 3V4.5H6.5V3ZM6.5 5.5H21.5V21.5H20.7556L17.9906 17.6734C17.9408 17.6005 17.8873 17.5302 17.8302 17.4629C18.1621 17.3876 18.4585 17.2018 18.671 16.9361C18.8835 16.6703 18.9995 16.3403 19 16V15.1447C19.1588 14.9996 19.2854 14.8226 19.3715 14.6254C19.4576 14.4283 19.5014 14.2152 19.5 14C19.5012 13.6682 19.3962 13.3448 19.2004 13.0769C19.4471 12.8944 19.6478 12.6568 19.7866 12.383C19.9254 12.1093 19.9985 11.8069 20 11.5C19.9997 11.2349 19.8942 10.9807 19.7068 10.7932C19.5193 10.6058 19.2651 10.5003 19 10.5H18.9637C18.8425 9.6675 18.4259 8.90635 17.79 8.35557C17.1541 7.80479 16.3413 7.50111 15.5 7.5H12.5C11.6587 7.50111 10.8459 7.80479 10.21 8.35557C9.57408 8.90635 9.1575 9.6675 9.03631 10.5H9C8.73488 10.5003 8.48071 10.6058 8.29324 10.7932C8.10577 10.9807 8.00031 11.2349 8 11.5C8.0015 11.8069 8.07456 12.1093 8.21337 12.383C8.35218 12.6568 8.55291 12.8944 8.79963 13.0769C8.60379 13.3448 8.49879 13.6682 8.5 14C8.49859 14.2152 8.54237 14.4283 8.6285 14.6254C8.71463 14.8226 8.84119 14.9996 9 15.1447V16C9.00046 16.3977 9.15865 16.7789 9.43985 17.0601C9.72106 17.3414 10.1023 17.4995 10.5 17.5H13.9866C13.7491 17.792 13.5805 18.1338 13.4935 18.5H12C11.4696 18.5 10.9609 18.7107 10.5858 19.0858C10.2107 19.4609 10 19.9696 10 20.5C10 21.0304 10.2107 21.5391 10.5858 21.9142C10.9609 22.2893 11.4696 22.5 12 22.5H15.2174L16.5688 24.5H6.5V5.5ZM6.5 25.5H17.0239C17.097 26.2951 17.3424 27.0648 17.7429 27.7556C18.1434 28.4463 18.6896 29.0416 19.3434 29.5H8C7.60232 29.4995 7.22106 29.3414 6.93985 29.0601C6.65865 28.7789 6.50046 28.3977 6.5 28V25.5Z" fill="black"/>
<path d="M11 3.5C11.2761 3.5 11.5 3.27614 11.5 3C11.5 2.72386 11.2761 2.5 11 2.5C10.7239 2.5 10.5 2.72386 10.5 3C10.5 3.27614 10.7239 3.5 11 3.5Z" fill="black"/>
<path d="M17 2.5H13.5C13.3674 2.5 13.2402 2.55268 13.1464 2.64645C13.0527 2.74021 13 2.86739 13 3C13 3.13261 13.0527 3.25979 13.1464 3.35355C13.2402 3.44732 13.3674 3.5 13.5 3.5H17C17.1326 3.5 17.2598 3.44732 17.3536 3.35355C17.4473 3.25979 17.5 3.13261 17.5 3C17.5 2.86739 17.4473 2.74021 17.3536 2.64645C17.2598 2.55268 17.1326 2.5 17 2.5Z" fill="black"/>
<path d="M14 29C14.2967 29 14.5867 28.912 14.8334 28.7472C15.08 28.5824 15.2723 28.3481 15.3858 28.074C15.4994 27.7999 15.5291 27.4983 15.4712 27.2074C15.4133 26.9164 15.2704 26.6491 15.0607 26.4393C14.8509 26.2296 14.5836 26.0867 14.2926 26.0288C14.0017 25.9709 13.7001 26.0007 13.426 26.1142C13.1519 26.2277 12.9176 26.42 12.7528 26.6666C12.588 26.9133 12.5 27.2033 12.5 27.5C12.5005 27.8977 12.6586 28.2789 12.9399 28.5601C13.2211 28.8414 13.6023 28.9995 14 29V29ZM14 27C14.0989 27 14.1956 27.0293 14.2778 27.0843C14.36 27.1392 14.4241 27.2173 14.4619 27.3087C14.4998 27.4 14.5097 27.5006 14.4904 27.5975C14.4711 27.6945 14.4235 27.7836 14.3536 27.8536C14.2836 27.9235 14.1945 27.9711 14.0975 27.9904C14.0006 28.0097 13.9 27.9998 13.8087 27.9619C13.7173 27.9241 13.6392 27.86 13.5843 27.7778C13.5293 27.6956 13.5 27.5989 13.5 27.5C13.5001 27.3674 13.5529 27.2403 13.6466 27.1466C13.7403 27.0529 13.8674 27.0001 14 27V27Z" fill="black"/>
</svg>
