<svg xmlns="http://www.w3.org/2000/svg" width="32.317" height="32.3" viewBox="0 0 32.317 32.3">
  <g id="Group_38000" data-name="Group 38000" transform="translate(0.159 0.15)">
    <path id="Path_105986" data-name="Path 105986" d="M31.99,23.346,31,13.357a1.973,1.973,0,0,0-.719-1.341,1.951,1.951,0,0,0-1.441-.436l-1.725.174h0a1.98,1.98,0,0,0-1.728,1.54l-.958.1L21.8,11.819a6.007,6.007,0,0,0-.677-.363,6.875,6.875,0,1,0-10.242,0,6,6,0,0,0-.677.363L7.572,13.39l-.958-.1a1.98,1.98,0,0,0-1.728-1.54L3.16,11.58a1.951,1.951,0,0,0-1.441.436A1.973,1.973,0,0,0,1,13.357L.647,16.921a.625.625,0,0,0,1.244.123l.354-3.565a.731.731,0,0,1,.267-.5.711.711,0,0,1,.524-.16L4.76,13a.732.732,0,0,1,.648.8l-.991,9.989a.731.731,0,0,1-.267.5.71.71,0,0,1-.524.16L1.9,24.273a.732.732,0,0,1-.648-.8l.082-.827a.625.625,0,0,0-1.244-.123l-.082.827a1.983,1.983,0,0,0,1.766,2.171l1.725.174a1.989,1.989,0,0,0,.2.01,1.953,1.953,0,0,0,1.242-.446,1.978,1.978,0,0,0,.557-.728l.376.038a2,2,0,0,0,.225,2.53,1.953,1.953,0,0,0,1.4.581,1.989,1.989,0,0,0,.471-.056,1.973,1.973,0,0,0,.515.916,1.953,1.953,0,0,0,1.4.581h0a1.986,1.986,0,0,0,.471-.056,1.974,1.974,0,0,0,.515.916,1.953,1.953,0,0,0,1.4.581,1.989,1.989,0,0,0,.471-.056,1.974,1.974,0,0,0,.515.916,1.969,1.969,0,0,0,2.794,0l.819-.826a2.3,2.3,0,0,0,1.236.367,2.266,2.266,0,0,0,2.053-1.324,1.962,1.962,0,0,0,1.736-.2,2.208,2.208,0,0,0,.921-1.243,2.406,2.406,0,0,0,2.128-.909,1.952,1.952,0,0,0-.115-2.592l1.681-.169a1.978,1.978,0,0,0,.557.728A1.953,1.953,0,0,0,28.3,25.7a1.987,1.987,0,0,0,.2-.01l1.725-.174a1.984,1.984,0,0,0,1.766-2.171Zm-8.026-8.777a.625.625,0,0,0,.321.089c.021,0,.042,0,.063,0l1.062-.107.867,8.745-2.579.26-3.8-3.867q.24-.046.474-.115a.625.625,0,1,0-.357-1.2,4,4,0,0,1-3.844-.941.625.625,0,0,0-.922.037l-.874,1.037c-.671.8-1.008,1.2-3.156,1.2a.3.3,0,0,1-.277-.117.333.333,0,0,1,.037-.321c.55-.961,1.05-1.788,1.533-2.589.535-.886,1.087-1.8,1.709-2.9.049-.086.095-.161.139-.228a6.868,6.868,0,0,0,5.5-.99,1.472,1.472,0,0,1,1.3.331ZM16,1.25a5.625,5.625,0,1,1-5.625,5.625A5.631,5.631,0,0,1,16,1.25ZM7.5,26.426a.712.712,0,0,1-.509-.211.742.742,0,0,1,0-1.042l.953-.961a.719.719,0,0,1,1.019,0,.742.742,0,0,1,0,1.042l-.477.48h0l0,0-.474.478a.712.712,0,0,1-.509.211Zm2.383,1.441a.712.712,0,0,1-.509-.212.742.742,0,0,1,0-1.041h0l.477-.48h0l.476-.48a.719.719,0,0,1,1.019,0,.742.742,0,0,1,0,1.042l-.477.48h0l-.476.48A.712.712,0,0,1,9.879,27.867Zm2.383,1.441a.712.712,0,0,1-.509-.212.742.742,0,0,1,0-1.041h0l.477-.48h0l.476-.48a.719.719,0,0,1,1.019,0,.742.742,0,0,1,0,1.041h0l-.477.48h0l-.476.48a.712.712,0,0,1-.509.212Zm2.892,1.23a.719.719,0,0,1-1.019,0,.742.742,0,0,1,0-1.04h0l.477-.48h0l.476-.48a.719.719,0,0,1,1.019,0,.742.742,0,0,1,0,1.042Zm8.789-4.013a1.078,1.078,0,0,1-1.4.29.625.625,0,0,0-.92.7.887.887,0,0,1-.408.877.931.931,0,0,1-1.1-.192.625.625,0,0,0-1.019.507.971.971,0,0,1-.6.926,1.011,1.011,0,0,1-.976-.1,1.993,1.993,0,0,0-.519-1.873,1.953,1.953,0,0,0-1.4-.581,1.988,1.988,0,0,0-.47.056,1.974,1.974,0,0,0-.515-.916,1.953,1.953,0,0,0-1.4-.581h0a1.988,1.988,0,0,0-.47.056,1.975,1.975,0,0,0-.515-.916,1.953,1.953,0,0,0-1.4-.581,1.988,1.988,0,0,0-.47.056,1.974,1.974,0,0,0-.515-.916h0a1.969,1.969,0,0,0-2.794,0l-.086.087-1.244-.125.867-8.745,1.062.107a.626.626,0,0,0,.383-.085l2.807-1.677a1.472,1.472,0,0,1,1.3-.331,6.874,6.874,0,0,0,1.01.569l-.019.032c-.613,1.081-1.161,1.99-1.691,2.868-.487.806-.99,1.64-1.547,2.613a1.559,1.559,0,0,0-.034,1.569,1.537,1.537,0,0,0,1.359.74c2.46,0,3.172-.526,4.112-1.641l.466-.554a5.219,5.219,0,0,0,2.386.966l5.68,5.779a.713.713,0,0,1,.082,1.022ZM30.1,24.273l-1.725.174a.71.71,0,0,1-.524-.16.731.731,0,0,1-.267-.5L26.591,13.8a.732.732,0,0,1,.648-.8h0l1.725-.174a.71.71,0,0,1,.524.16.731.731,0,0,1,.267.5l.991,9.989a.732.732,0,0,1-.648.8Z" transform="translate(0.001)" stroke="#fff" stroke-width="0.3"/>
    <path id="Path_105987" data-name="Path 105987" d="M190.936,62.2a1.98,1.98,0,0,0,2.8,0l3.222-3.222a1.98,1.98,0,0,0-2.8-2.8L192.336,58l-.31-.31a1.98,1.98,0,1,0-2.8,2.8Zm-.776-3.577a.66.66,0,0,1,.933,0l.776.776a.66.66,0,0,0,.934,0l2.289-2.289a.66.66,0,1,1,.933.933L192.8,61.265a.66.66,0,0,1-.933,0l-1.71-1.71A.661.661,0,0,1,190.16,58.622Z" transform="translate(-177.092 -51.926)" stroke="#fff" stroke-width="0.3"/>
    <path id="Path_105988" data-name="Path 105988" d="M6.52,307.834a.66.66,0,0,0,0-1.32h0a.66.66,0,0,0,0,1.32Z" transform="translate(-5.473 -287.401)" stroke="#fff" stroke-width="0.3"/>
    <path id="Path_105989" data-name="Path 105989" d="M349.024,266.946a.66.66,0,1,0,0-1.32h0a.66.66,0,0,0,0,1.32Z" transform="translate(-326.641 -249.062)" stroke="#fff" stroke-width="0.3"/>
  </g>
</svg>
