<svg id="Group_37669" data-name="Group 37669" xmlns="http://www.w3.org/2000/svg" xmlns:xlink="http://www.w3.org/1999/xlink" width="20.508" height="28" viewBox="0 0 20.508 28">
  <defs>
    <clipPath id="clip-path">
      <rect id="Rectangle_12546" data-name="Rectangle 12546" width="20.508" height="28"/>
    </clipPath>
  </defs>
  <g id="Group_37670" data-name="Group 37670" clip-path="url(#clip-path)">
    <path id="Path_105405" data-name="Path 105405" d="M10.222,28c-.445-.527-.893-1.052-1.335-1.582a64.739,64.739,0,0,1-6.049-8.39A23.631,23.631,0,0,1,.349,12.582a9.168,9.168,0,0,1,.21-5.637A10.081,10.081,0,0,1,4.476,1.8,9.883,9.883,0,0,1,8.839.11c.3-.039.594-.073.891-.11h1.094c.26.034.52.065.78.1A10.07,10.07,0,0,1,18.729,4.5a9.837,9.837,0,0,1,1.763,6.3,9.982,9.982,0,0,1-.72,2.988,31.022,31.022,0,0,1-3.12,5.9,70.221,70.221,0,0,1-6.314,8.229.783.783,0,0,0-.06.088Zm.005-2.473c.077-.083.109-.114.138-.148a63.988,63.988,0,0,0,5.893-8.167,23.609,23.609,0,0,0,2.236-4.757,7.716,7.716,0,0,0-.347-5.644,8.333,8.333,0,0,0-4.33-4.39,8.307,8.307,0,0,0-6.992-.056A8.387,8.387,0,0,0,2.066,7.6a7.345,7.345,0,0,0-.336,3.661,15.931,15.931,0,0,0,1.8,4.666,46.125,46.125,0,0,0,3.813,5.886c.932,1.247,1.908,2.461,2.885,3.717" transform="translate(0)"/>
    <path id="Path_105406" data-name="Path 105406" d="M82.944,81.425a6.059,6.059,0,1,1,6.043-6.059,6.076,6.076,0,0,1-6.043,6.059m4.407-6.058a4.414,4.414,0,1,0-4.415,4.42,4.433,4.433,0,0,0,4.415-4.42" transform="translate(-72.679 -65.518)"/>
  </g>
</svg>
