<svg width="32" height="32" viewBox="0 0 32 32" fill="none" xmlns="http://www.w3.org/2000/svg">
<path d="M29.4294 13.3651C29.4294 12.6073 29.0936 11.9269 28.5635 11.4633C29.0936 10.9998 29.4294 10.3194 29.4294 9.56156C29.4294 8.16831 28.2958 7.03475 26.9026 7.03475H26.3599C26.0597 7.03475 25.7742 7.09875 25.5157 7.21306V2.39256C25.5158 1.07331 24.4425 0 23.1232 0H12.5988C11.2796 0 10.2062 1.07331 10.2062 2.39256V7.40019C9.57312 6.69725 8.72868 6.20381 7.73899 6.00856C6.92993 5.84994 6.15749 6.49338 6.15749 7.315V14.9823C6.15749 15.9487 5.98556 16.8912 5.64637 17.7836C5.11112 19.1922 4.47606 21.3241 4.43862 23.5799L2.69356 25.9326C2.61374 26.0403 2.57056 26.1709 2.57056 26.3049V31.375C2.57056 31.7202 2.85043 32 3.19556 32H13.0062C13.1906 32 13.3656 31.9186 13.4843 31.7776L15.6274 29.2326C16.6482 29.1153 20.2906 28.5573 22.2957 26.4211H23.1232C24.4425 26.4211 25.5158 25.3478 25.5158 24.0286V23.3206C25.7742 23.4349 26.0597 23.4989 26.36 23.4989H26.9026C28.2959 23.4989 29.4294 22.3654 29.4294 20.9721C29.4294 20.2143 29.0936 19.5339 28.5636 19.0704C29.0936 18.6069 29.4294 17.9264 29.4294 17.1686C29.4294 16.4107 29.0936 15.7303 28.5636 15.2668C29.0936 14.8034 29.4294 14.1229 29.4294 13.3651V13.3651ZM26.36 8.28481H26.9026C27.6067 8.28481 28.1794 8.85756 28.1794 9.56162C28.1794 10.2656 27.6067 10.8384 26.9026 10.8384H26.36C25.8946 10.8384 25.5158 10.4596 25.5158 9.99419V9.12906C25.5158 8.6635 25.8946 8.28481 26.36 8.28481V8.28481ZM19.0377 1.25V1.38819C19.0377 2.03388 18.5124 2.55919 17.8667 2.55919C17.2211 2.55919 16.6958 2.03388 16.6958 1.38819V1.25H19.0377ZM24.2658 24.0286C24.2658 24.6586 23.7532 25.1712 23.1232 25.1712H12.5988C11.9688 25.1712 11.4562 24.6586 11.4562 24.0286V20.7395C11.4562 20.3943 11.1764 20.1145 10.8312 20.1145C10.4861 20.1145 10.2062 20.3943 10.2062 20.7395V24.0286V24.0287C10.2062 25.348 11.2796 26.4212 12.5987 26.4212H20.3358C18.2409 27.7584 15.299 28.0103 15.2635 28.0132C15.0967 28.0263 14.9422 28.1057 14.8344 28.2337L12.7154 30.75H3.82062V26.5115L5.56393 24.1611C5.64374 24.0534 5.68693 23.9229 5.68693 23.7888C5.68693 21.6459 6.30031 19.5818 6.81493 18.2277C7.20818 17.1929 7.40756 16.1011 7.40756 14.9824V7.315C7.40756 7.26825 7.44999 7.22581 7.49781 7.23506C9.11781 7.55463 10.2062 9.00312 10.2062 10.8394V15.2398C10.2062 15.585 10.4861 15.8648 10.8312 15.8648C11.1764 15.8648 11.4562 15.585 11.4562 15.2398V10.8394V2.39256C11.4562 1.76256 11.9688 1.25 12.5988 1.25H15.4457V1.38819C15.4457 2.72312 16.5318 3.80919 17.8667 3.80919C19.2016 3.80919 20.2877 2.72312 20.2877 1.38819V1.25H23.1232C23.7532 1.25 24.2657 1.76256 24.2657 2.39256V24.0286H24.2658ZM28.1794 20.9722C28.1794 21.6763 27.6066 22.2491 26.9026 22.2491H26.3599C25.8945 22.2491 25.5157 21.8703 25.5157 21.4049V20.5397C25.5157 20.0742 25.8945 19.6956 26.3599 19.6956H26.9026C27.6066 19.6954 28.1794 20.2682 28.1794 20.9722ZM28.1794 17.1687C28.1794 17.8727 27.6066 18.4454 26.9026 18.4454H26.3599C25.8945 18.4454 25.5157 18.0667 25.5157 17.6012V16.7361C25.5157 16.2706 25.8945 15.8919 26.3599 15.8919H26.9026C27.6066 15.8919 28.1794 16.4647 28.1794 17.1687ZM26.36 14.6419C25.8946 14.6419 25.5158 14.2632 25.5158 13.7978V12.9326C25.5158 12.4671 25.8946 12.0884 26.36 12.0884H26.9026C27.6067 12.0884 28.1794 12.6612 28.1794 13.3652C28.1794 14.0692 27.6067 14.642 26.9026 14.642H26.36V14.6419Z" fill="black"/>
<path d="M19.3505 17.9092H16.3649C15.1732 17.9092 14.2037 18.8787 14.2037 20.0704C14.2037 21.2621 15.1732 22.2316 16.3649 22.2316H19.3505C20.5422 22.2316 21.5117 21.2621 21.5117 20.0704C21.5117 18.8787 20.5422 17.9092 19.3505 17.9092ZM19.3505 20.9815H16.3649C15.8625 20.9815 15.4537 20.5727 15.4537 20.0703C15.4537 19.5679 15.8625 19.1591 16.3649 19.1591H19.3505C19.8529 19.1591 20.2617 19.5679 20.2617 20.0703C20.2617 20.5727 19.8529 20.9815 19.3505 20.9815Z" fill="black"/>
<path d="M22.1685 8.58789C22.1348 8.27002 21.8666 8.02883 21.547 8.02883H19.9082V7.56689C19.9082 6.4412 18.9924 5.52539 17.8667 5.52539C16.741 5.52539 15.8253 6.4412 15.8253 7.56689V8.02883H14.1683C13.8487 8.02883 13.5805 8.27002 13.5468 8.58789L12.9218 14.4808C12.9031 14.6571 12.9601 14.833 13.0787 14.9648C13.1972 15.0965 13.3661 15.1718 13.5434 15.1718H22.1721C22.3493 15.1718 22.5182 15.0965 22.6368 14.9648C22.7553 14.833 22.8123 14.6571 22.7936 14.4808L22.1685 8.58789ZM17.0753 7.56689C17.0753 7.13045 17.4303 6.77539 17.8667 6.77539C18.3031 6.77539 18.6582 7.13045 18.6582 7.56689V8.02883H17.0753V7.56689ZM14.2381 13.9217L14.7306 9.27877H15.8253V9.9002C15.8253 10.2454 16.1052 10.5252 16.4503 10.5252C16.7954 10.5252 17.0753 10.2454 17.0753 9.9002V9.27877H18.6583V9.9002C18.6583 10.2454 18.9381 10.5252 19.2833 10.5252C19.6284 10.5252 19.9083 10.2454 19.9083 9.9002V9.27877H20.9849L21.4773 13.9217H14.2381Z" fill="black"/>
<path d="M11.4144 17.7137C11.2853 17.3987 10.9119 17.2453 10.598 17.3756C10.2835 17.5061 10.1295 17.8769 10.26 18.1918C10.3902 18.5061 10.7619 18.6604 11.0762 18.5299C11.39 18.3996 11.5453 18.028 11.4144 17.7137Z" fill="black"/>
</svg>
