<svg width="32" height="32" viewBox="0 0 32 32" fill="none" xmlns="http://www.w3.org/2000/svg">
<g clip-path="url(#clip0_148_125)">
<path d="M8.93456 6.55615C8.65203 6.56552 8.48055 6.2006 8.6761 5.99116L10.5917 3.79574C10.7158 3.65359 10.9321 3.63848 11.0749 3.76203C11.2177 3.88566 11.2328 4.10118 11.1088 4.2434L9.19323 6.43882C9.12547 6.51636 9.03029 6.55615 8.93456 6.55615V6.55615Z" fill="black"/>
<path d="M9.48535 9.28562C9.20282 9.29498 9.03133 8.93006 9.22688 8.72062L11.1424 6.52521C11.2666 6.38305 11.4828 6.36801 11.6257 6.4915C11.7685 6.61512 11.7836 6.83064 11.6596 6.97286L9.74401 9.16828C9.67632 9.24589 9.58107 9.28562 9.48535 9.28562V9.28562Z" fill="black"/>
<path d="M15.7796 16.3387C15.7796 15.9619 15.4729 15.6564 15.0945 15.6564C14.7162 15.6564 14.4095 15.9619 14.4095 16.3387C14.4095 16.5912 14.5475 16.811 14.752 16.929V20.0683C14.752 22.1377 13.0617 23.8213 10.984 23.8213C8.90636 23.8213 7.21603 22.1377 7.21603 20.0683V16.8633C7.42061 16.7453 7.5586 16.5254 7.5586 16.273C7.5586 15.8961 7.25186 15.5906 6.87354 15.5906C6.49521 15.5906 6.18848 15.8961 6.18848 16.273C6.18848 16.5254 6.32646 16.7452 6.53104 16.8633V20.0683C6.53104 22.5139 8.52872 24.5036 10.9841 24.5036C13.4395 24.5036 15.4372 22.5139 15.4372 20.0683V16.929C15.6416 16.811 15.7796 16.5911 15.7796 16.3387V16.3387Z" fill="black"/>
<path d="M15.9509 31.9659C16.2346 31.9659 16.4647 31.7367 16.4647 31.4541C16.4647 31.1714 16.2346 30.9423 15.9509 30.9423C15.6671 30.9423 15.437 31.1714 15.437 31.4541C15.437 31.7367 15.6671 31.9659 15.9509 31.9659Z" fill="black"/>
<path d="M30.2873 8.25641H18.8103C17.8659 8.25641 17.0976 9.02168 17.0976 9.96233V11.2836H7.70989C7.87324 10.7848 7.96288 10.239 7.96288 9.70065C7.96288 8.91097 7.64356 8.24315 7.11673 7.81012C7.62387 4.2666 8.92903 1.8093 10.3199 1.8093C11.3916 1.8093 12.4501 3.30653 13.1026 5.72998C12.7186 6.16287 12.4981 6.7267 12.4981 7.31303V10.1918C12.4981 10.3802 12.6515 10.533 12.8407 10.533C13.0299 10.533 13.1833 10.3802 13.1833 10.1918V7.31303C13.1833 6.77429 13.4429 6.2614 13.8779 5.9412L14.8981 5.19022C14.9854 5.12588 15.037 5.024 15.037 4.91583V2.73491H17.7554V4.91576C17.7554 5.024 17.807 5.12581 17.8944 5.19015L18.9145 5.94106C19.3495 6.26133 19.6092 6.77422 19.6092 7.31296C19.6092 7.5014 19.7625 7.65415 19.9517 7.65415C20.1409 7.65415 20.2943 7.5014 20.2943 7.31296C20.2943 6.5587 19.9307 5.84068 19.3217 5.39227L18.4405 4.74359V2.70803C18.8966 2.60356 19.238 2.19685 19.238 1.71132V1.02345C19.238 0.459145 18.777 0 18.2104 0H14.5822C14.0155 0 13.5545 0.459145 13.5545 1.02352V1.71138C13.5545 2.19685 13.8959 2.60362 14.3519 2.7081V4.74366L13.6769 5.24062C12.9132 2.61839 11.7035 1.12691 10.3198 1.12691C8.5648 1.12691 7.07933 3.58865 6.47844 7.44205C6.20076 7.33648 5.89382 7.27884 5.56521 7.27884C5.35317 7.27884 5.14592 7.30653 4.94531 7.36096C5.06291 6.60171 5.52527 5.92041 6.2063 5.54933C6.37232 5.45894 6.43324 5.25156 6.34244 5.08629C6.25156 4.92103 6.0435 4.86031 5.87755 4.9507C4.97314 5.44356 4.3689 6.36321 4.25047 7.37716C3.99679 7.30284 3.72924 7.26892 3.46832 7.28144C2.43235 7.32923 1.56527 8.10667 1.35426 9.17463C1.18777 9.75227 1.25573 10.5258 1.52575 11.2837H0.343325C0.139906 11.2789 -0.0304191 11.4762 0.00458949 11.6758L2.84404 30.4105C2.97074 31.2524 3.68309 31.8635 4.53785 31.8635H14.0204C14.2096 31.8635 14.3629 31.7108 14.3629 31.5223C14.3629 31.3339 14.2096 31.1811 14.0204 31.1811H4.53779C4.0249 31.1811 3.59755 30.8144 3.52144 30.3089L0.741478 11.9659H17.0976V30.2941C17.0976 31.2347 17.8659 32 18.8103 32H30.2873C31.2317 32 32 31.2347 32 30.2941V9.96233C32 9.02168 31.2317 8.25641 30.2873 8.25641V8.25641ZM14.2396 1.71138V1.02352C14.2396 0.835419 14.3933 0.682325 14.5822 0.682325H18.2104C18.3993 0.682325 18.553 0.835419 18.553 1.02352V1.71138C18.553 1.89949 18.3993 2.05258 18.2104 2.05258H14.5822C14.3933 2.05258 14.2396 1.89949 14.2396 1.71138V1.71138ZM6.98613 11.2836H2.25847C1.96452 10.5861 1.86879 9.84602 2.01601 9.352C2.01929 9.34099 2.02203 9.32978 2.02415 9.31856C2.16992 8.55378 2.7769 7.99644 3.50107 7.96301C3.78285 7.94886 4.07741 8.01094 4.33006 8.1375C4.48158 8.21272 4.66278 8.21292 4.81457 8.13744C5.04972 8.02051 5.3023 7.96116 5.56514 7.96116C6.55741 7.96116 7.27768 8.69272 7.27768 9.70058C7.27775 10.2462 7.17498 10.8 6.98613 11.2836V11.2836ZM21.584 8.9388H27.5136V9.98715C27.5136 10.3258 27.237 10.6013 26.897 10.6013H22.2006C21.8606 10.6013 21.5841 10.3258 21.5841 9.98715V8.9388H21.584ZM31.3149 30.2941C31.3149 30.8585 30.854 31.3176 30.2873 31.3176H18.8103C18.2436 31.3176 17.7826 30.8585 17.7826 30.2941V9.96233C17.7826 9.39788 18.2436 8.9388 18.8103 8.9388H20.8989V9.98715C20.8989 10.702 21.4828 11.2836 22.2006 11.2836H26.897C27.6147 11.2836 28.1986 10.702 28.1986 9.98715V8.9388H30.2873C30.854 8.9388 31.3149 9.39795 31.3149 9.96233V30.2941H31.3149Z" fill="black"/>
<path d="M24.5491 22.6362C24.3599 22.6362 24.2065 22.4835 24.2065 22.295V20.7108C24.2065 20.5223 24.3599 20.3696 24.5491 20.3696C24.7383 20.3696 24.8917 20.5223 24.8917 20.7108V22.295C24.8917 22.4836 24.7384 22.6362 24.5491 22.6362Z" fill="black"/>
<path d="M26.2615 22.6362C26.0723 22.6362 25.9189 22.4835 25.9189 22.295V20.7108C25.9189 20.5223 26.0723 20.3696 26.2615 20.3696C26.4507 20.3696 26.6041 20.5223 26.6041 20.7108V22.295C26.6041 22.4836 26.4507 22.6362 26.2615 22.6362Z" fill="black"/>
<path d="M22.8362 22.6362C22.647 22.6362 22.4937 22.4835 22.4937 22.295V20.7108C22.4937 20.5223 22.647 20.3696 22.8362 20.3696C23.0254 20.3696 23.1788 20.5223 23.1788 20.7108V22.295C23.1788 22.4836 23.0254 22.6362 22.8362 22.6362Z" fill="black"/>
<path d="M28.6329 16.6724H27.2064C27.2992 15.5124 26.4483 14.5435 25.2833 14.5528C25.1841 14.5528 25.0863 14.5603 24.99 14.5751C25.1458 14.1796 25.4336 13.8464 25.8153 13.6385C25.9813 13.5481 26.0422 13.3408 25.9514 13.1755C25.8607 13.0102 25.6526 12.9492 25.4866 13.0399C24.8689 13.3764 24.4291 13.9499 24.2559 14.6209C24.0636 14.5682 23.8633 14.5451 23.6626 14.5548C22.5954 14.5863 21.8511 15.6148 21.8885 16.6725H20.4645C19.6567 16.6725 18.9995 17.3271 18.9995 18.1318C18.9995 18.843 19.5132 19.4361 20.1903 19.5645L21.0701 23.7986C21.103 23.9571 21.2431 24.0706 21.4055 24.0706H27.6919C27.8543 24.0706 27.9945 23.957 28.0273 23.7986L28.9071 19.5645C29.5841 19.4361 30.0979 18.843 30.0979 18.1317C30.0979 17.3271 29.4407 16.6724 28.6329 16.6724V16.6724ZM22.6213 16.2518C22.7191 15.6873 23.1594 15.259 23.6953 15.2364C23.8995 15.226 24.1127 15.2711 24.2953 15.3626C24.4345 15.4321 24.6006 15.4321 24.7393 15.3628C24.9098 15.2781 25.0928 15.2352 25.2833 15.2352C26.0856 15.2229 26.6033 15.8836 26.5209 16.6724H22.5723C22.5691 16.5144 22.5856 16.3719 22.6213 16.2518V16.2518ZM27.413 23.3882H21.6845L20.8956 19.5909H28.202L27.413 23.3882ZM28.6329 18.9086H20.4646C20.0345 18.9086 19.6846 18.5601 19.6846 18.1316C19.6846 17.7033 20.0345 17.3548 20.4646 17.3548H28.6329C29.063 17.3548 29.4129 17.7033 29.4129 18.1317C29.4128 18.5601 29.063 18.9086 28.6329 18.9086V18.9086Z" fill="black"/>
<path d="M26.2937 29.6117H22.8033C21.8768 29.6117 21.123 28.8609 21.123 27.9382C21.123 27.0154 21.8768 26.2647 22.8033 26.2647H26.2937C27.2202 26.2647 27.9739 27.0154 27.9739 27.9382C27.9739 28.861 27.2202 29.6117 26.2937 29.6117ZM22.8033 26.947C22.2545 26.947 21.8081 27.3916 21.8081 27.9382C21.8081 28.4847 22.2545 28.9294 22.8033 28.9294H26.2937C26.8424 28.9294 27.2889 28.4848 27.2889 27.9382C27.2889 27.3917 26.8425 26.947 26.2937 26.947H22.8033Z" fill="black"/>
</g>
<defs>
<clipPath id="clip0_148_125">
<rect width="32" height="32" fill="white"/>
</clipPath>
</defs>
</svg>
