<svg width="32" height="32" viewBox="0 0 32 32" fill="none" xmlns="http://www.w3.org/2000/svg">
<g clip-path="url(#clip0_14_272)">
<path d="M29.0527 19.3514C28.9741 19.3391 28.7592 19.3038 28.7305 19.2991C30.8809 16.8572 31.8689 13.3607 31.3114 10.1341C31.2055 9.51832 30.4952 9.22082 29.9862 9.57832C29.867 9.66175 29.7447 9.73669 29.6197 9.80463C29.1995 8.25982 28.1817 7.02888 26.5859 6.13675C26.57 5.62644 26.3428 5.1685 25.9884 4.84832L26.3981 3.72307C26.5972 3.95175 26.8516 4.12782 27.1444 4.23438C27.6024 4.401 28.0948 4.37732 28.5313 4.17382C28.9704 3.96907 29.3034 3.60557 29.4692 3.15032L29.7295 2.43513C29.8952 1.97982 29.8737 1.48732 29.6689 1.04819C29.4642 0.609128 29.1007 0.276066 28.6454 0.110316C27.7059 -0.231622 26.6628 0.254566 26.3207 1.19438L25.147 4.41907C24.9009 4.36744 24.6474 4.36738 24.4012 4.41907L23.2275 1.19438C23.0618 0.739066 22.7287 0.375628 22.2896 0.170878C21.8505 -0.0338092 21.358 -0.0553716 20.9027 0.110316C20.4474 0.276003 20.084 0.609066 19.8792 1.04819C19.6745 1.48725 19.653 1.97982 19.8187 2.43507L20.079 3.15032C20.3468 3.88607 21.044 4.34382 21.7852 4.34382C21.9907 4.34382 22.1997 4.30863 22.4037 4.23438C22.6965 4.12782 22.951 3.95169 23.15 3.723L23.5597 4.84825C23.2053 5.16844 22.978 5.62644 22.9623 6.13682C22.0424 6.65163 21.3084 7.28625 20.7738 8.02982C20.3212 7.78063 19.8681 7.52519 19.4269 7.27613C18.5309 6.7705 17.6045 6.24769 16.6678 5.77082C14.0854 4.45663 11.9257 3.783 9.87129 3.65088C8.68398 3.57394 7.48204 3.69994 6.39535 4.01532C6.14673 4.08744 6.00367 4.3475 6.07585 4.59613C6.14798 4.84475 6.40811 4.98788 6.65667 4.91563C7.64004 4.63025 8.73073 4.51638 9.81085 4.58638C11.7339 4.71007 13.7777 5.35194 16.2425 6.60625C17.1613 7.07394 18.0788 7.59175 18.966 8.0925C19.4002 8.33757 19.8457 8.58888 20.2927 8.83519C19.7825 9.88313 19.6055 11.0931 19.7667 12.4396C19.916 13.6874 20.327 14.7889 20.6456 15.4938C20.777 15.7835 21.062 15.9664 21.3778 15.9664C21.7183 15.9664 22.018 15.7559 22.1343 15.4368C22.3065 14.9639 23.1728 12.5838 23.9058 10.5698C26.0443 11.3497 28.5066 11.6738 30.409 10.424C30.8781 13.3872 29.9359 16.5789 27.9341 18.7831C27.722 19.0158 27.6546 19.3443 27.758 19.6405C27.861 19.9356 28.1172 20.1499 28.4285 20.2001C28.5071 20.2124 28.73 20.249 28.7629 20.2544C24.4719 25.5166 20.6787 25.9228 18.2454 25.3302C15.8885 24.7562 14.0442 22.7431 13.9524 20.3184C13.9211 19.5016 14.0642 18.6971 14.2156 17.8453C14.4189 16.7019 14.6292 15.5197 14.3904 14.2876C14.3572 14.1168 14.3165 13.9486 14.27 13.7829C15.0324 14.7541 15.6315 15.8657 15.904 16.7651C15.9791 17.0129 16.2408 17.1529 16.4885 17.0778C16.7363 17.0028 16.8763 16.7411 16.8012 16.4933C16.2467 14.6633 14.5575 12.1572 12.6759 11.0902C11.9899 10.4374 11.1579 9.98807 10.2448 9.78244C9.46279 9.60569 8.67067 9.63632 8.51354 9.67538C8.41267 9.70044 8.31348 9.72794 8.21592 9.75763C8.61836 9.48582 9.0551 9.26457 9.51235 9.10794C10.7056 8.69925 12.6017 8.54013 14.858 10.1034C15.0709 10.2508 15.3629 10.1978 15.5103 9.985C15.6577 9.77219 15.6047 9.48019 15.3919 9.33275C12.8138 7.54657 10.6064 7.74232 9.2086 8.22107C7.33479 8.86282 5.75323 10.4407 5.16442 12.2496C5.0721 12.4158 4.98523 12.5888 4.9046 12.7696C4.62167 13.404 4.40998 14.1359 4.26979 14.9586C3.4291 15.0973 2.71417 15.4914 2.23823 16.0382C1.44798 14.4565 1.40585 12.7571 1.52017 11.5747C1.71679 9.53569 2.5011 7.75694 3.72879 6.56607C4.04079 6.26313 4.39367 5.98732 4.77773 5.74613C4.99698 5.60844 5.0631 5.31913 4.92542 5.09988C4.78779 4.88063 4.49848 4.8145 4.27917 4.95219C3.8396 5.22819 3.43467 5.54488 3.07579 5.89332C1.68879 7.23875 0.804855 9.22444 0.586917 11.4846C0.401917 13.3986 0.700355 15.3741 1.70367 17.0055C1.64385 17.2139 1.61223 17.4317 1.61223 17.6558C1.61223 19.0967 2.95529 20.2816 4.65829 20.3981C5.20429 21.648 6.10904 22.7883 7.25717 23.6541V26.4313C7.25717 26.4492 7.24548 26.4648 7.22748 26.4702C6.07873 26.8183 4.58985 27.1432 3.41648 27.8749C2.24998 28.6024 1.65854 29.5986 1.65854 30.8356V31.1287C1.65854 31.6091 2.0491 31.9999 2.52917 31.9999H18.0964C18.5768 31.9999 18.9677 31.6091 18.9677 31.1287C18.9372 30.9548 19.1785 29.5577 17.8747 28.3731C17.6832 28.1989 17.3867 28.2131 17.2126 28.4048C17.0385 28.5963 17.0527 28.8928 17.2443 29.0669C18.1919 29.9279 18.0052 30.9151 18.0302 31.0624H2.5961V30.8356C2.5961 29.9186 3.01448 29.2306 3.91267 28.6704C4.95767 28.0187 6.40873 27.6979 7.49886 27.3676C7.91511 27.2421 8.19479 26.8658 8.19479 26.4313V24.2643C8.94648 24.6778 9.69454 24.9133 10.3129 24.9133C10.936 24.9133 11.6833 24.6743 12.4316 24.2616V26.4313C12.4316 26.8656 12.7109 27.2418 13.1264 27.3674C13.8477 27.5857 14.6937 27.7919 15.4987 28.0928C15.7403 28.1831 16.0109 28.0613 16.1019 27.8179C16.1925 27.5754 16.0694 27.3053 15.8269 27.2147C14.9822 26.8989 14.0994 26.6825 13.3979 26.4701C13.3807 26.4649 13.3691 26.4493 13.3691 26.4313V23.652C13.5442 23.5201 13.7164 23.3801 13.8838 23.2321C14.7778 24.7125 16.2848 25.8176 18.0237 26.2411C18.6707 26.3987 19.3212 26.4773 19.9736 26.4773C21.5121 26.4773 23.0613 26.0399 24.5998 25.1686C26.3179 24.1957 27.9957 22.7012 29.5867 20.7271C29.7799 20.4878 29.829 20.1736 29.718 19.8868C29.6063 19.5986 29.3572 19.3984 29.0527 19.3514V19.3514ZM28.3248 0.991191C28.5447 1.07125 28.7204 1.23213 28.8192 1.44425C28.9182 1.65638 28.9285 1.89438 28.8485 2.11432L28.5882 2.82957C28.5081 3.0495 28.3472 3.22513 28.1351 3.324C27.923 3.42288 27.685 3.43332 27.465 3.35325C27.2451 3.27319 27.0695 3.11232 26.9706 2.90019C26.8725 2.68982 26.8611 2.45382 26.9397 2.23563C26.9662 2.16188 26.8425 2.5025 27.2017 1.51494C27.3669 1.06088 27.8708 0.825941 28.3248 0.991191V0.991191ZM22.0832 3.35332C21.6291 3.51857 21.1254 3.28363 20.9601 2.82963L20.6998 2.11438C20.5342 1.65925 20.7683 1.15688 21.2235 0.991253C21.6785 0.825566 22.181 1.05982 22.3466 1.51494C22.3734 1.58844 22.2517 1.24788 22.608 2.23388C22.772 2.68757 22.5374 3.188 22.0832 3.35332V3.35332ZM25.6498 6.19344C25.6498 6.67625 25.2569 7.06913 24.7741 7.06913C24.2913 7.06913 23.8984 6.67625 23.8984 6.19344C23.8984 5.71063 24.2913 5.31775 24.7741 5.31775C25.257 5.31775 25.6498 5.71057 25.6498 6.19344ZM21.3674 14.8031C20.039 11.6286 20.8894 9.61982 21.3287 8.8895C21.7516 8.18657 22.3791 7.58163 23.1965 7.08544C23.3657 7.38363 23.6168 7.6295 23.9193 7.79194C23.9194 7.79194 21.8057 13.5993 21.3674 14.8031ZM24.7742 8.18438L25.4596 10.068C25.0309 9.96225 24.616 9.831 24.2265 9.68907C24.2784 9.54638 24.654 8.51438 24.7742 8.18438V8.18438ZM26.53 10.2679L25.629 7.79188C25.9316 7.62938 26.1828 7.38332 26.352 7.08494C27.621 7.85538 28.4224 8.88469 28.7414 10.1533C28.0334 10.3449 27.2768 10.3598 26.53 10.2679V10.2679ZM2.54992 17.6558C2.54992 16.8804 3.21423 16.1986 4.1406 15.9458C4.02842 17.1252 4.00304 18.2832 4.3086 19.407C3.29648 19.1974 2.54992 18.4919 2.54992 17.6558ZM13.0157 20.3541C13.0419 21.0454 13.187 21.7193 13.4475 22.3616C12.2804 23.4688 11.0243 23.9758 10.3129 23.9758C8.63798 23.9758 5.00304 21.4103 5.00304 17.5976C5.00304 15.7749 5.25804 14.279 5.76092 13.1516C5.83754 12.9798 5.91979 12.8163 6.00761 12.6611C6.00942 12.6578 6.0116 12.6548 6.01342 12.6514C6.59854 11.5614 7.50904 10.9008 8.70129 10.5949C9.15435 10.5645 9.60392 10.5988 10.0387 10.697C11.8705 11.1095 13.1157 12.6429 13.4702 14.4663C13.6758 15.5271 13.4897 16.5734 13.2927 17.6813C13.1392 18.5443 12.9805 19.4368 13.0157 20.3541V20.3541Z" fill="black"/>
<path d="M11.4365 20.0444C10.6806 20.4033 9.94573 20.4033 9.18979 20.0444C8.95591 19.9334 8.67635 20.0329 8.56529 20.2668C8.45429 20.5007 8.55385 20.7803 8.78773 20.8913C9.29385 21.1316 9.80354 21.2518 10.3132 21.2518C10.8229 21.2518 11.3325 21.1316 11.8386 20.8913C12.0725 20.7803 12.172 20.5007 12.061 20.2668C11.95 20.033 11.6705 19.9334 11.4365 20.0444V20.0444Z" fill="black"/>
<path d="M8.52368 16.3018C8.52368 16.0429 8.31381 15.833 8.05493 15.833C7.79606 15.833 7.58618 16.0429 7.58618 16.3018V16.9568C7.58618 17.2157 7.79606 17.4256 8.05493 17.4256C8.31381 17.4256 8.52368 17.2157 8.52368 16.9568V16.3018Z" fill="black"/>
<path d="M8.7081 14.8979C8.78272 14.9418 8.86454 14.9627 8.94535 14.9627C9.10597 14.9627 9.26247 14.8801 9.34979 14.7316C9.48104 14.5085 9.4066 14.2211 9.18341 14.0899C8.44516 13.6556 7.66466 13.6556 6.92635 14.0899C6.70322 14.2211 6.62872 14.5085 6.75997 14.7316C6.89122 14.9547 7.17847 15.0292 7.40166 14.898C7.84735 14.6358 8.26247 14.6358 8.7081 14.8979V14.8979Z" fill="black"/>
</g>
<defs>
<clipPath id="clip0_14_272">
<rect width="32" height="32" fill="white"/>
</clipPath>
</defs>
</svg>
