<svg xmlns="http://www.w3.org/2000/svg" width="32" height="33.869" viewBox="0 0 32 33.869">
  <g id="Group_37820" data-name="Group 37820" transform="translate(-3.289 -0.59)">
    <path id="Path_105579" data-name="Path 105579" d="M95.119,83.441a2.261,2.261,0,1,0,1.731.009A2.261,2.261,0,0,0,95.119,83.441Zm2.14,1.57a1.392,1.392,0,1,1-.747-.757,1.392,1.392,0,0,1,.747.757Z" transform="translate(-67.037 -60.918)"/>
    <path id="Path_105580" data-name="Path 105580" d="M7.393,59.573a2.087,2.087,0,1,0-1.478,2.554,2.087,2.087,0,0,0,1.478-2.554Zm-1.7,1.711a1.2,1.2,0,1,1,.74-.563A1.213,1.213,0,0,1,5.69,61.283Z" transform="translate(0 -42.298)"/>
    <path id="Path_105581" data-name="Path 105581" d="M115.563,64.036a1.564,1.564,0,1,0-.007,1.2A1.564,1.564,0,0,0,115.563,64.036Zm-.812.858a.691.691,0,1,1,0-.529.691.691,0,0,1,0,.529Z" transform="translate(-80.391 -45.955)"/>
    <path id="Path_105582" data-name="Path 105582" d="M8.049,41.453a1.564,1.564,0,1,0-1.512-1.161A1.564,1.564,0,0,0,8.049,41.453ZM7.87,39.22a.691.691,0,1,1-.489.846A.69.69,0,0,1,7.87,39.22Z" transform="translate(-2.265 -27.759)"/>
    <path id="Path_105583" data-name="Path 105583" d="M21.829,93.528a1.324,1.324,0,1,0-.616-1.49,1.32,1.32,0,0,0,.616,1.49Zm.272-1.373a.45.45,0,0,1,.274-.21.463.463,0,0,1,.116-.015.451.451,0,1,1-.392.225Z" transform="translate(-12.674 -66.516)"/>
    <path id="Path_105584" data-name="Path 105584" d="M112.4,33.381a1.527,1.527,0,1,0-.815-2A1.527,1.527,0,0,0,112.4,33.381Zm-.01-1.661a.65.65,0,0,1,.355-.352.655.655,0,1,1-.355.352Z" transform="translate(-79.62 -21.961)"/>
    <path id="Path_105585" data-name="Path 105585" d="M60.984,67.563a1.665,1.665,0,0,0,1.087-.452.437.437,0,1,0-.57-.662.677.677,0,0,1-1.034,0,.437.437,0,1,0-.57.662A1.665,1.665,0,0,0,60.984,67.563Z" transform="translate(-41.509 -48.276)"/>
    <path id="Path_105586" data-name="Path 105586" d="M60.079,75.517h-.005a2.864,2.864,0,0,1-.983.026c-.082-.012-.161-.028-.256-.046a1.162,1.162,0,0,0-.415-.02,1.025,1.025,0,0,0-.4.165.07.07,0,0,1-.072,0,1.025,1.025,0,0,0-.4-.165,1.162,1.162,0,0,0-.415.02c-.095.018-.175.034-.256.046a2.862,2.862,0,0,1-.983-.026h-.006a.313.313,0,0,0-.184.6,2.9,2.9,0,0,0,1.237.239c.105,0,.212-.012.3-.019s.121.006.248.081a.92.92,0,0,0,.463.134h.065a.92.92,0,0,0,.463-.134c.126-.074.163-.087.248-.081s.2.016.3.019a2.9,2.9,0,0,0,1.237-.239.313.313,0,0,0-.184-.6Z" transform="translate(-38.506 -54.967)"/>
    <path id="Path_105587" data-name="Path 105587" d="M62.14,80.749a.566.566,0,0,1-.531,0,.437.437,0,0,0-.378.786,1.439,1.439,0,0,0,1.288,0,.437.437,0,1,0-.378-.786Z" transform="translate(-42.4 -58.801)"/>
    <path id="Path_105588" data-name="Path 105588" d="M74.584,56.795l.111-.068c.035-.022.051-.036.078-.056a1.6,1.6,0,0,1,.272-.146.5.5,0,0,1,.275-.049l.058.006a.205.205,0,0,0,.2-.3.705.705,0,0,0-.569-.338,1.339,1.339,0,0,0-.6.111l-.123.053-.091.042c-.062.025-.123.053-.188.075-.125.051-.256.093-.385.134a3.759,3.759,0,0,1-.775.159,1.742,1.742,0,0,1-.7-.061l-.043-.014a.312.312,0,0,0-.3.536,1.7,1.7,0,0,0,1.052.37,3.112,3.112,0,0,0,1.024-.147,3.671,3.671,0,0,0,.472-.186c.078-.037.151-.081.226-.122Z" transform="translate(-50.381 -40.575)"/>
    <path id="Path_105589" data-name="Path 105589" d="M46.772,56.542a.312.312,0,0,0-.394-.2l-.042.014a1.742,1.742,0,0,1-.7.061,3.759,3.759,0,0,1-.775-.159c-.129-.041-.26-.083-.385-.134-.065-.022-.126-.049-.188-.075l-.093-.042-.123-.053a1.339,1.339,0,0,0-.6-.111.705.705,0,0,0-.569.338.2.2,0,0,0-.022.116.206.206,0,0,0,.227.181l.058-.006a.5.5,0,0,1,.275.049,1.59,1.59,0,0,1,.271.146c.027.019.043.033.078.056l.111.068c.075.042.149.085.226.121a3.673,3.673,0,0,0,.472.186,3.112,3.112,0,0,0,1.024.147,1.7,1.7,0,0,0,1.052-.37.313.313,0,0,0,.1-.333Z" transform="translate(-29.158 -40.573)"/>
    <path id="Path_105590" data-name="Path 105590" d="M39.381,31.087a10.931,10.931,0,0,0-3.761-1.768,17.247,17.247,0,0,1-2.254-.866,3.347,3.347,0,0,1-1.619-3.208c0-.025,0-.046,0-.07a10.455,10.455,0,0,0,2.008-1.612,7.986,7.986,0,0,0,1.844-3.14,3.374,3.374,0,0,0,2.767-2.7,3.312,3.312,0,0,0,.042-.414,1.13,1.13,0,0,0,.559-.47,3.417,3.417,0,0,0-.063-2.687l-.017-.059a13.124,13.124,0,0,0-1.9-9.732c-1.6-2.274-5.4-4.63-8.071-3.467-2.67-1.163-6.467,1.193-8.071,3.466a13.116,13.116,0,0,0-1.9,9.732l-.017.059a3.417,3.417,0,0,0-.064,2.687,1.129,1.129,0,0,0,.559.469,3.262,3.262,0,0,0,.042.412,3.374,3.374,0,0,0,2.767,2.7,7.986,7.986,0,0,0,1.844,3.14,10.463,10.463,0,0,0,2.009,1.612c0,.024,0,.045,0,.07a3.35,3.35,0,0,1-1.619,3.208,17.247,17.247,0,0,1-2.254.866,10.9,10.9,0,0,0-3.761,1.768A7.626,7.626,0,0,0,16.6,33.908a.4.4,0,0,0,.214.522.387.387,0,0,0,.509-.219,6.857,6.857,0,0,1,1.649-2.536,10.726,10.726,0,0,1,3.474-1.6,17.727,17.727,0,0,0,2.363-.913,3.941,3.941,0,0,0,2.027-3.593,8.1,8.1,0,0,0,1.617.548,2.067,2.067,0,0,0,.913,0,8.127,8.127,0,0,0,1.618-.548,3.941,3.941,0,0,0,2.027,3.593,17.726,17.726,0,0,0,2.363.913,10.725,10.725,0,0,1,3.474,1.6A6.857,6.857,0,0,1,40.5,34.21a.387.387,0,0,0,.509.219.4.4,0,0,0,.214-.522,7.626,7.626,0,0,0-1.842-2.82Zm-2.62-14.363a.36.36,0,0,0-.056-.011,1.159,1.159,0,0,0-.4.032c.009-.133.017-.267.024-.4Q36.553,16.546,36.761,16.725Zm-.911,2.861a14.94,14.94,0,0,0,.346-1.792c.161-.31.364-.293.433-.286a.393.393,0,0,0,.426-.359.405.405,0,0,0-.037-.209c.086.07.171.141.251.2a1.163,1.163,0,0,0,.353.189,2.532,2.532,0,0,1-.029.263,2.764,2.764,0,0,1-1.743,1.989Zm.5-14.753a12.665,12.665,0,0,1,1.935,8.256,4.681,4.681,0,0,0-.525-.621.383.383,0,0,0-.54.033.407.407,0,0,0,.01.554,4.98,4.98,0,0,1,.885,1.2,3.277,3.277,0,0,1,.182,2.167.358.358,0,0,1-.3.17.442.442,0,0,1-.26-.086c-.286-.225-.784-.639-1.518-1.333-.721-.679-1.537-1.5-2.426-2.45-1.306-1.387-2.781-3.049-4.384-4.937.741-1.114.206-2.275-.233-3.223a3.917,3.917,0,0,1-.434-1.243,4.356,4.356,0,0,1,.449-1.68c2.25-1,5.768,1.228,7.153,3.19ZM19.708,14.256a4.965,4.965,0,0,1,.885-1.2.407.407,0,0,0,.01-.554.383.383,0,0,0-.54-.033,4.681,4.681,0,0,0-.525.621,12.664,12.664,0,0,1,1.935-8.256c1.15-1.629,3.768-3.44,5.911-3.44a3.165,3.165,0,0,1,1,.153,4.658,4.658,0,0,0-.416,1.816,4.4,4.4,0,0,0,.508,1.545c.511,1.1.8,1.883.143,2.628l0,.005c-1.683,1.993-3.229,3.737-4.592,5.185-.888.946-1.7,1.77-2.426,2.45s-1.231,1.108-1.519,1.333a.4.4,0,0,1-.251.085.362.362,0,0,1-.3-.17,3.279,3.279,0,0,1,.183-2.166Zm1.79,2.085c.007.135.014.27.024.4a1.159,1.159,0,0,0-.4-.032.36.36,0,0,0-.056.011Q21.271,16.546,21.5,16.341ZM20.23,17.593a2.526,2.526,0,0,1-.029-.261,1.157,1.157,0,0,0,.352-.187c.08-.063.166-.133.252-.2a.406.406,0,0,0,.032.4.384.384,0,0,0,.358.167c.068-.007.272-.023.432.286a15.055,15.055,0,0,0,.347,1.79,2.775,2.775,0,0,1-1.744-1.992ZM29.2,25.341a1.3,1.3,0,0,1-.575,0,7.909,7.909,0,0,1-4.009-2.352,7.485,7.485,0,0,1-1.729-3.063.356.356,0,0,0-.015-.046,13.48,13.48,0,0,1-.482-2.271,17.693,17.693,0,0,1-.134-1.97c.686-.652,1.45-1.424,2.277-2.3a17.687,17.687,0,0,1,2.159.13l.013,0a.309.309,0,0,0,.352-.214.32.32,0,0,0-.163-.384,3.353,3.353,0,0,0-1.085-.29,4.755,4.755,0,0,0-.546-.025c1.117-1.212,2.341-2.6,3.651-4.142,1.31,1.541,2.534,2.93,3.651,4.142a4.817,4.817,0,0,0-.546.025,3.353,3.353,0,0,0-1.085.29.32.32,0,0,0-.163.385.309.309,0,0,0,.352.214l.013,0a17.677,17.677,0,0,1,2.159-.13c.828.88,1.592,1.653,2.277,2.3a17.675,17.675,0,0,1-.134,1.969,13.5,13.5,0,0,1-.472,2.238.41.41,0,0,0-.026.085,7.48,7.48,0,0,1-1.727,3.058A7.923,7.923,0,0,1,29.2,25.341Z" transform="translate(-9.418)"/>
    <path id="Path_105591" data-name="Path 105591" d="M33.13,22.635a.437.437,0,0,0,.337-.158c.036-.044,3.643-4.367,6.477-4.367a.437.437,0,0,0,0-.873c-3.241,0-6.992,4.494-7.15,4.685a.437.437,0,0,0,.336.714Z" transform="translate(-21.769 -11.8)"/>
    <path id="Path_105592" data-name="Path 105592" d="M69.337,18.1c2.83,0,6.441,4.325,6.477,4.367a.437.437,0,1,0,.673-.557c-.158-.191-3.909-4.685-7.15-4.685a.437.437,0,0,0,0,.873Z" transform="translate(-48.57 -11.793)"/>
  </g>
</svg>
