<svg id="Group_3767433" data-name="Group 3767433" xmlns="http://www.w3.org/2000/svg" xmlns:xlink="http://www.w3.org/1999/xlink" width="28" height="27.995" viewBox="0 0 28 27.995">
  <defs>
    <clipPath id="clip-path">
      <rect id="Rectangle_12545" data-name="Rectangle 12545" width="28" height="27.995" stroke="#fff" stroke-width="0.8"/>
    </clipPath>
  </defs>
  <g id="Group_37674" data-name="Group 37674" clip-path="url(#clip-path)">
    <path id="Path_105399" data-name="Path 105399" d="M0,5.581V5.144a9.1,9.1,0,0,1,.607-.752C1.9,3.089,3.194,1.8,4.489.5c.668-.667,1.122-.67,1.782-.009q3.644,3.644,7.285,7.29a1.5,1.5,0,0,1,.18.323c.166-.186.235-.271.312-.348Q17.711,4.095,21.375.433a1.007,1.007,0,0,1,1.649,0l4.523,4.524a1.021,1.021,0,0,1,0,1.688L20.225,13.97c-.075.075-.147.153-.252.263.1.084.188.149.264.225q3.655,3.652,7.308,7.305a1.022,1.022,0,0,1-.009,1.7c-1.308,1.308-2.613,2.619-3.929,3.919a9.284,9.284,0,0,1-.752.608h-.492a9.042,9.042,0,0,1-.752-.608q-3.593-3.575-7.171-7.165a1.981,1.981,0,0,1-.207-.335c-.146.182-.207.275-.284.352q-3.6,3.6-7.21,7.2A6.74,6.74,0,0,1,6.015,28H.765A1.165,1.165,0,0,1,0,27.23V21.982a6.707,6.707,0,0,1,.553-.726q3.6-3.62,7.218-7.225c.075-.075.146-.153.266-.278a2.616,2.616,0,0,1-.278-.211Q4.117,9.9.482,6.26A4.925,4.925,0,0,1,0,5.581M1.921,26.075H2.26c.939,0,1.877-.008,2.816,0a.69.69,0,0,0,.546-.229q7.495-7.506,15-15c.069-.069.134-.141.192-.2l-3.5-3.495a1.911,1.911,0,0,1-.183.248Q9.976,14.553,2.823,21.7c-.3.3-.708.565-.862.932a3.444,3.444,0,0,0-.039,1.244c0,.718,0,1.436,0,2.195M25.6,22.646l-1.666-1.668a2.182,2.182,0,0,1-.18.229c-.423.427-.837.864-1.279,1.272a.955.955,0,0,1-1.616-.5.968.968,0,0,1,.317-.913c.489-.486.977-.974,1.443-1.439l-1.652-1.662a.1.1,0,0,0-.03.019c-.658.656-1.311,1.318-1.978,1.964a1.415,1.415,0,0,1-.52.331.922.922,0,0,1-1.062-.418.943.943,0,0,1,.159-1.2c.618-.632,1.248-1.251,1.872-1.877.069-.069.135-.141.19-.2l-.974-.966-2.987,2.989,7,7L25.6,22.646M2.4,5.374l6.978,6.984L12.366,9.37,11.391,8.4c-.142.15-.295.316-.454.476-.527.53-1.053,1.059-1.585,1.584a.934.934,0,0,1-1.051.249.917.917,0,0,1-.617-.828,1.011,1.011,0,0,1,.349-.825c.678-.671,1.351-1.347,2.007-2L8.376,5.381c-.474.475-.958.968-1.451,1.452a.957.957,0,0,1-1.411.041.967.967,0,0,1,.044-1.393c.412-.425.836-.839,1.254-1.258.075-.075.147-.153.2-.213L5.389,2.382,2.4,5.374m23.194.441-3.4-3.392L18.806,5.806l3.4,3.4L25.59,5.815" transform="translate(0 0)" stroke="#fff" stroke-width="0.8"/>
  </g>
</svg>
