<svg width="32" height="32" viewBox="0 0 32 32" fill="none" xmlns="http://www.w3.org/2000/svg">
<path d="M9 3H10V4H9V3Z" fill="black"/>
<path d="M11 3H15V4H11V3Z" fill="black"/>
<path d="M20.5 22.5C20.4992 23.1628 20.2356 23.7982 19.7669 24.2669C19.2982 24.7356 18.6628 24.9992 18 25H8.86602L10.585 22.023C10.5307 22.1762 10.5019 22.3374 10.5 22.5C10.5 22.8978 10.6581 23.2794 10.9394 23.5607C11.2207 23.842 11.6022 24 12 24H14C14.3978 24 14.7794 23.842 15.0607 23.5607C15.342 23.2794 15.5 22.8978 15.5 22.5C15.5 22.1022 15.342 21.7206 15.0607 21.4393C14.7794 21.158 14.3978 21 14 21H12C11.762 21.0004 11.5274 21.0577 11.3159 21.167C11.1044 21.2763 10.9221 21.4345 10.784 21.6285C10.9826 21.1607 10.9952 20.6348 10.8192 20.1581C10.6432 19.6813 10.2919 19.2897 9.83701 19.0632C9.38212 18.8366 8.85793 18.7922 8.37141 18.939C7.88489 19.0858 7.47272 19.4127 7.21902 19.853L5.51902 22.799C5.50669 22.6998 5.50034 22.6 5.50002 22.5V4.5C5.50082 3.8372 5.76447 3.20178 6.23313 2.73311C6.7018 2.26444 7.33723 2.00079 8.00002 2H18C18.4387 2.00102 18.8694 2.11697 19.2492 2.33629C19.6291 2.55561 19.9448 2.87064 20.165 3.25L21.0305 2.75C20.7223 2.21897 20.2803 1.77797 19.7486 1.47092C19.2169 1.16388 18.614 1.00151 18 1H8.00002C7.07209 1.00106 6.18247 1.37015 5.52632 2.0263C4.87017 2.68244 4.50108 3.57207 4.50002 4.5V14.15C4.18183 14.2981 3.92564 14.553 3.77602 14.8705L1.50652 19.794C1.17056 20.5162 0.997634 21.3035 1.00002 22.1V31H2.00002V22.1C1.99779 21.4487 2.13915 20.8049 2.41402 20.2145L4.50002 15.6885V22.5C4.49968 23.0972 4.65274 23.6844 4.94452 24.2055C4.98217 24.2898 5.04242 24.362 5.1186 24.4142C5.19478 24.4664 5.28391 24.4964 5.37612 24.501C5.46833 24.5056 5.56001 24.4846 5.64101 24.4403C5.72201 24.396 5.78916 24.3301 5.83502 24.25L8.08502 20.353C8.21857 20.1252 8.43681 19.9595 8.69211 19.892C8.9474 19.8245 9.21903 19.8607 9.44772 19.9927C9.67641 20.1248 9.84359 20.3419 9.91277 20.5967C9.98196 20.8516 9.94754 21.1234 9.81703 21.353L7.56702 25.25C7.52232 25.3274 7.49916 25.4153 7.49995 25.5046C7.50074 25.594 7.52546 25.6814 7.57152 25.758L8.64252 27.538C8.87614 27.9274 8.9997 28.3729 9.00002 28.827V30.995H10V28.827C9.99995 28.1915 9.82712 27.5679 9.50002 27.023L8.88452 26H18C18.928 25.9989 19.8176 25.6299 20.4737 24.9737C21.1299 24.3176 21.499 23.4279 21.5 22.5V20H20.5V22.5ZM12 22H14C14.1326 22 14.2598 22.0527 14.3536 22.1464C14.4473 22.2402 14.5 22.3674 14.5 22.5C14.5 22.6326 14.4473 22.7598 14.3536 22.8536C14.2598 22.9473 14.1326 23 14 23H12C11.8674 23 11.7402 22.9473 11.6465 22.8536C11.5527 22.7598 11.5 22.6326 11.5 22.5C11.5 22.3674 11.5527 22.2402 11.6465 22.1464C11.7402 22.0527 11.8674 22 12 22Z" fill="black"/>
<path d="M29.555 6.91003C28.4305 5.30047 26.7534 4.16065 24.8429 3.7076C22.9324 3.25454 20.922 3.51989 19.1945 4.45312C17.467 5.38636 16.1431 6.92229 15.4747 8.7685C14.8063 10.6147 14.8402 12.6422 15.57 14.465L13.88 17.33C13.8313 17.4125 13.8072 17.5072 13.8108 17.603C13.8143 17.6987 13.8453 17.7914 13.9 17.87C13.9561 17.9485 14.0334 18.0094 14.1228 18.0457C14.2122 18.082 14.3101 18.0922 14.405 18.075L17.67 17.465C18.7787 18.4589 20.1436 19.1223 21.61 19.38C22.0708 19.4593 22.5374 19.4994 23.005 19.5C24.4685 19.4996 25.9038 19.0978 27.1547 18.3382C28.4057 17.5787 29.4243 16.4906 30.0998 15.1923C30.7752 13.894 31.0816 12.4353 30.9855 10.975C30.8895 9.51466 30.3947 8.10867 29.555 6.91003V6.91003ZM29.895 12.715C29.6751 13.9623 29.1209 15.1266 28.2915 16.0838C27.462 17.0409 26.3884 17.7551 25.1851 18.1503C23.9818 18.5454 22.6938 18.6066 21.4584 18.3275C20.223 18.0483 19.0865 17.4392 18.17 16.565C18.0762 16.478 17.9529 16.4298 17.825 16.43C17.7949 16.4292 17.7648 16.4309 17.735 16.435L15.3 16.89L16.56 14.76C16.5992 14.6914 16.6222 14.6148 16.6274 14.536C16.6326 14.4572 16.6198 14.3782 16.59 14.305C16.0323 13.043 15.8635 11.6435 16.105 10.285C16.4272 8.45637 17.4627 6.83061 18.9836 5.7654C19.7367 5.23796 20.5863 4.86402 21.4839 4.66492C22.3815 4.46583 23.3095 4.44548 24.215 4.60503C25.1205 4.76459 25.9856 5.10093 26.7611 5.59485C27.5366 6.08876 28.2072 6.73059 28.7346 7.48367C29.2621 8.23675 29.636 9.08635 29.8351 9.98395C30.0342 10.8815 30.0546 11.8096 29.895 12.715Z" fill="black"/>
<path d="M26.5 8.5H25V8C25 7.46957 24.7893 6.96086 24.4142 6.58579C24.0391 6.21071 23.5304 6 23 6C22.4696 6 21.9609 6.21071 21.5858 6.58579C21.2107 6.96086 21 7.46957 21 8V8.5H19.5C19.3674 8.5 19.2402 8.55268 19.1464 8.64645C19.0527 8.74021 19 8.86739 19 9V15C19.0012 15.3975 19.1596 15.7783 19.4407 16.0593C19.7217 16.3404 20.1025 16.4988 20.5 16.5H25.5C25.8975 16.4988 26.2783 16.3404 26.5593 16.0593C26.8404 15.7783 26.9988 15.3975 27 15V9C27 8.86739 26.9473 8.74021 26.8536 8.64645C26.7598 8.55268 26.6326 8.5 26.5 8.5ZM22 8C22 7.73478 22.1054 7.48043 22.2929 7.29289C22.4804 7.10536 22.7348 7 23 7C23.2652 7 23.5196 7.10536 23.7071 7.29289C23.8946 7.48043 24 7.73478 24 8V8.5H22V8ZM26 15C26 15.1326 25.9473 15.2598 25.8536 15.3536C25.7598 15.4473 25.6326 15.5 25.5 15.5H20.5C20.3674 15.5 20.2402 15.4473 20.1464 15.3536C20.0527 15.2598 20 15.1326 20 15V14.5H26V15ZM26 13.5H20V9.5H21V10.5H22V9.5H24V10.5H25V9.5H26V13.5Z" fill="black"/>
<path d="M11.1466 7.64648L10.3766 8.41648C9.85829 8.07344 9.23107 7.93511 8.61656 8.02832C8.00205 8.12153 7.44407 8.43964 7.05082 8.92095C6.65757 9.40227 6.45709 10.0125 6.48827 10.6332C6.51944 11.254 6.78005 11.841 7.21954 12.2805C7.65903 12.72 8.24609 12.9806 8.86684 13.0118C9.48759 13.043 10.0978 12.8425 10.5791 12.4493C11.0604 12.056 11.3785 11.498 11.4718 10.8835C11.565 10.269 11.4266 9.64178 11.0836 9.12348L11.8536 8.35348L11.1466 7.64648ZM10.5001 10.5C10.5001 10.7967 10.4121 11.0867 10.2473 11.3333C10.0825 11.58 9.8482 11.7723 9.57411 11.8858C9.30002 11.9993 8.99842 12.029 8.70745 11.9712C8.41648 11.9133 8.1492 11.7704 7.93942 11.5606C7.72964 11.3509 7.58678 11.0836 7.52891 10.7926C7.47103 10.5016 7.50073 10.2 7.61426 9.92596C7.7278 9.65187 7.92006 9.4176 8.16673 9.25278C8.4134 9.08796 8.70341 8.99998 9.00008 8.99998C9.22283 9.00085 9.44248 9.05213 9.64258 9.14998L8.14658 10.646L8.85358 11.353L10.3501 9.85748C10.4479 10.0576 10.4992 10.2772 10.5001 10.5V10.5Z" fill="black"/>
<path d="M12.5 9H14.5V10H12.5V9Z" fill="black"/>
<path d="M12.5 11H14.5V12H12.5V11Z" fill="black"/>
</svg>
