<svg id="Group_37661" data-name="Group 37661" xmlns="http://www.w3.org/2000/svg" xmlns:xlink="http://www.w3.org/1999/xlink" width="30.874" height="32" viewBox="0 0 30.874 32">
  <defs>
    <clipPath id="clip-path">
      <rect id="Rectangle_12538" data-name="Rectangle 12538" width="30.874" height="32"/>
    </clipPath>
  </defs>
  <g id="Group_37661-2" data-name="Group 37661" clip-path="url(#clip-path)">
    <path id="Path_105375" data-name="Path 105375" d="M8.123,32a1.727,1.727,0,0,1-1.382-1.637c-.017-.364,0-.729-.006-1.093,0-.1-.009-.2-.015-.343-.379,0-.74.01-1.1,0a1.71,1.71,0,0,1-1.672-1.518,1.681,1.681,0,0,1,1.232-1.8,3.12,3.12,0,0,1,.68-.068c.278-.011.557,0,.855,0,.009-.125.021-.215.021-.305,0-1.041,0-2.083,0-3.124,0-.216-.04-.319-.283-.379A8.4,8.4,0,0,1,.081,14.667a8.238,8.238,0,0,1,.947-5.13c.164-.306.41-.4.663-.278s.331.4.158.725a7.471,7.471,0,0,0,5.111,10.9c.66.126.714.191.714.857q0,2.031,0,4.062c0,.527-.142.67-.666.672-.437,0-.875-.007-1.312,0a.759.759,0,0,0-.816.758.771.771,0,0,0,.827.752c.469.008.937,0,1.406,0,.386,0,.553.166.558.552.008.562,0,1.125,0,1.687a.756.756,0,0,0,.741.83.773.773,0,0,0,.766-.844c.005-.552,0-1.1,0-1.656,0-.407.16-.566.566-.57.458,0,.917,0,1.375,0a.771.771,0,0,0,.841-.769.761.761,0,0,0-.83-.743c-.448-.009-.9,0-1.343,0s-.608-.158-.608-.6q0-2.171,0-4.343c0-.405.106-.527.51-.609a7.543,7.543,0,0,0,6.088-6.032,7.417,7.417,0,0,0-1.218-5.585l-1.128,1a6.343,6.343,0,0,1,.912,2.494,5.984,5.984,0,1,1-3.67-4.772.273.273,0,0,0,.372-.079c.283-.333.583-.651.895-1a8.5,8.5,0,0,0-.8-.366A7.371,7.371,0,0,0,3.263,8.141c-.039.035-.074.073-.114.107a.479.479,0,0,1-.674.009.463.463,0,0,1,.038-.693A7.833,7.833,0,0,1,4.94,5.886a8.3,8.3,0,0,1,7.706.386.4.4,0,0,0,.447,0,8.308,8.308,0,0,1,8.668.123l.223.129c.214-.227.422-.46.643-.68a.471.471,0,0,1,.716-.049c.2.207.185.462-.062.715-.283.291-.572.577-.862.862a.513.513,0,0,1-.8.058A7.411,7.411,0,0,0,16.264,6.14a7.5,7.5,0,0,0-6.269,5.905,7.388,7.388,0,0,0,.961,5.43q.065.107.137.209a.938.938,0,0,0,.1.1c.307-.275.612-.554.924-.825.157-.137.136-.258.038-.429a5.962,5.962,0,1,1,4.6,2.954,9.374,9.374,0,0,1-1.659-.406c-.182-.053-.292-.064-.424.093-.28.334-.585.647-.88.97a7.163,7.163,0,0,0,3.6.884,7.465,7.465,0,0,0,7.331-6.415A7.293,7.293,0,0,0,23.49,9.324c-.309-.456-.3-.573.089-.963C24.89,7.05,26.2,5.735,27.518,4.436a.79.79,0,0,1,.539-.216c.258.018.36.251.361.507,0,.489,0,.979,0,1.468a.76.76,0,1,0,1.508,0q.005-2.2,0-4.405a.769.769,0,0,0-.853-.85q-2.2,0-4.405,0a.773.773,0,0,0-.851.758.772.772,0,0,0,.858.748c.479,0,.958,0,1.437,0a.506.506,0,0,1,.53.3.479.479,0,0,1-.158.56C25.99,3.807,25.5,4.3,25,4.793c-.26.257-.534.276-.738.063s-.178-.464.07-.716A5.464,5.464,0,0,0,25,3.387c-.158,0-.315,0-.473,0A1.687,1.687,0,0,1,24.514.012q2.359-.025,4.717,0a1.651,1.651,0,0,1,1.625,1.62q.033,2.358,0,4.717a1.687,1.687,0,0,1-3.374-.008c-.005-.153,0-.306,0-.44l-3.01,3.035a23.25,23.25,0,0,1,.96,2.424,8.393,8.393,0,0,1-7.005,10.527,8.23,8.23,0,0,1-5.318-1.056.452.452,0,0,0-.476-.009c-.75.326-1.517.614-2.274.926-.093.038-.23.137-.231.209-.014,1.176-.01,2.352-.01,3.591.417,0,.82-.023,1.219,0A1.679,1.679,0,0,1,12.8,27.81a1.7,1.7,0,0,1-1.585,1.115c-.352.009-.7,0-1.1,0,0,.331-.019.641,0,.948A1.862,1.862,0,0,1,8.748,32Zm7.343-13.794a5.019,5.019,0,0,0,5.487-8.136,4.905,4.905,0,0,0-5.475-1.16,8.528,8.528,0,0,1-.011,9.3M10.277,8.894a5.017,5.017,0,0,0-5.4,8.221,4.874,4.874,0,0,0,5.382,1.065,8.521,8.521,0,0,1,.017-9.286m2.568,6.966a4.76,4.76,0,0,0,0-4.617,5.114,5.114,0,0,0,0,4.617" transform="translate(0 0)"/>
  </g>
</svg>
