<svg xmlns="http://www.w3.org/2000/svg" xmlns:xlink="http://www.w3.org/1999/xlink" width="60" height="60" viewBox="0 0 60 60">
  <defs>
    <clipPath id="clip-path">
      <rect id="Rectangle_12593" data-name="Rectangle 12593" width="53.991" height="54"/>
    </clipPath>
  </defs>
  <g id="Group_37657" data-name="Group 37657" transform="translate(-423 -1990)">
    <g id="Rectangle_12523" data-name="Rectangle 12523" transform="translate(423 1990)" stroke="#707070" stroke-width="1" opacity="0">
      <rect width="60" height="60" stroke="none"/>
      <rect x="0.5" y="0.5" width="59" height="59" fill="none"/>
    </g>
    <g id="Group_37713" data-name="Group 37713" transform="translate(426 1993)">
      <g id="Group_37713-2" data-name="Group 37713" clip-path="url(#clip-path)">
        <path id="Path_105612" data-name="Path 105612" d="M12.762,0H41.232A1.245,1.245,0,0,1,42,1.356c-.029.367-.005.738-.005,1.107V4.851H49.34c1.186,0,1.488.305,1.488,1.5q0,19.875,0,39.751v.714c.613,0,1.174.033,1.729-.008a1.367,1.367,0,0,1,1.434.747v5.694A1.441,1.441,0,0,1,52.558,54q-10.226-.027-20.452-.011c-.123,0-.246,0-.369,0a1.05,1.05,0,0,1-.02-2.1c.175-.012.351,0,.527,0h19.6V48.965H2.137V51.88H2.78q9.646,0,19.293,0c.757,0,1.241.43,1.23,1.069a1.075,1.075,0,0,1-1.211,1.037q-10.437,0-20.874,0C.4,53.987.007,53.579,0,52.741Q0,50.4,0,48.049a1.082,1.082,0,0,1,1.23-1.23c.628-.005,1.255,0,1.932,0V46.1q0-19.925,0-39.851c0-1.048.344-1.393,1.384-1.394H12c0-1.217.023-2.356-.009-3.495A1.285,1.285,0,0,1,12.762,0M48.686,46.808V7H5.317V46.789H18.35c0-.218,0-.407,0-.6,0-1.986-.023-3.971.008-5.957a8.644,8.644,0,0,1,17.284.319c.008,1.9,0,3.8,0,5.693v.56ZM39.861,2.137H14.143V4.814H39.861Zm-6.346,44.67c.009-.132.019-.217.019-.3,0-2.038.013-4.076-.011-6.114a6.977,6.977,0,0,0-.213-1.559,6.412,6.412,0,0,0-5.215-4.744V46.807ZM25.924,34.09a.782.782,0,0,0-.17-.012,6.3,6.3,0,0,0-5.163,5.36c-.2,2.408-.092,4.841-.117,7.263,0,.028.035.056.048.076h5.4Z" transform="translate(0)"/>
        <path id="Path_105613" data-name="Path 105613" d="M186.285,369.347a1.05,1.05,0,1,1-1.036-1.039,1.064,1.064,0,0,1,1.036,1.039" transform="translate(-158.238 -316.424)"/>
        <path id="Path_105614" data-name="Path 105614" d="M65.547,85.938c0,.789.008,1.579,0,2.368a1.062,1.062,0,0,1-1.175,1.175q-2.421.012-4.842,0a1.053,1.053,0,0,1-1.148-1.148q-.014-2.447,0-4.894a1.037,1.037,0,0,1,1.12-1.12q2.473-.017,4.947,0a1.034,1.034,0,0,1,1.094,1.093c.016.842,0,1.684,0,2.526m-5.025,1.4h2.891V84.448H60.522Z" transform="translate(-50.151 -70.715)"/>
        <path id="Path_105615" data-name="Path 105615" d="M133.774,89.494c-.772,0-1.544.005-2.316,0a1.072,1.072,0,0,1-1.213-1.191q-.011-2.395,0-4.789a1.069,1.069,0,0,1,1.215-1.187q2.368-.009,4.737,0c.821,0,1.212.405,1.215,1.242q.007,2.342,0,4.684c0,.855-.4,1.237-1.27,1.242-.789,0-1.579,0-2.368,0m1.508-5.023h-2.887v2.885h2.887Z" transform="translate(-111.892 -70.724)"/>
        <path id="Path_105616" data-name="Path 105616" d="M209.273,85.93c0,.772,0,1.544,0,2.316-.006.835-.4,1.237-1.218,1.24q-2.368.009-4.737,0a1.071,1.071,0,0,1-1.212-1.191q-.011-2.395,0-4.789a1.06,1.06,0,0,1,1.163-1.185q2.421-.013,4.842,0a1.064,1.064,0,0,1,1.161,1.189c.008.807,0,1.614,0,2.421m-5.036,1.413h2.887V84.452h-2.887Z" transform="translate(-173.629 -70.718)"/>
        <path id="Path_105617" data-name="Path 105617" d="M281.138,85.884c0,.807.007,1.614,0,2.421a1.073,1.073,0,0,1-1.212,1.192q-2.368.01-4.737,0a1.08,1.08,0,0,1-1.219-1.238q-.007-2.342,0-4.684c0-.858.394-1.243,1.264-1.245q2.316-.006,4.631,0c.894,0,1.269.385,1.272,1.291,0,.754,0,1.509,0,2.263M279,84.474h-2.879V87.38H279Z" transform="translate(-235.371 -70.729)"/>
        <path id="Path_105618" data-name="Path 105618" d="M65.556,157.824c0,.772.005,1.544,0,2.316a1.072,1.072,0,0,1-1.19,1.214q-2.395.012-4.789,0a1.07,1.07,0,0,1-1.188-1.216q-.009-2.368,0-4.736c0-.821.405-1.212,1.242-1.214q2.342-.007,4.684,0c.855,0,1.237.4,1.242,1.268,0,.789,0,1.579,0,2.368m-2.147-1.486H60.524v2.887h2.885Z" transform="translate(-50.159 -132.463)"/>
        <path id="Path_105619" data-name="Path 105619" d="M130.253,157.74c0-.772,0-1.544,0-2.316.005-.837.393-1.237,1.216-1.24q2.368-.009,4.737,0c.821,0,1.212.4,1.215,1.242q.007,2.342,0,4.684c0,.855-.4,1.239-1.269,1.242q-2.316.006-4.631,0c-.891,0-1.264-.387-1.268-1.3,0-.772,0-1.544,0-2.316m5.025-1.408h-2.89v2.887h2.89Z" transform="translate(-111.903 -132.461)"/>
        <path id="Path_105620" data-name="Path 105620" d="M209.267,157.79c0,.789.007,1.579,0,2.368a1.063,1.063,0,0,1-1.169,1.182q-2.421.013-4.842,0A1.052,1.052,0,0,1,202.1,160.2q-.015-2.447,0-4.894a1.038,1.038,0,0,1,1.113-1.127q2.474-.018,4.947,0a1.045,1.045,0,0,1,1.1,1.139c.012.824,0,1.649,0,2.473m-2.145-1.468h-2.89v2.887h2.89Z" transform="translate(-173.624 -132.45)"/>
        <path id="Path_105621" data-name="Path 105621" d="M277.586,154.182c.789,0,1.579-.007,2.368,0a1.061,1.061,0,0,1,1.172,1.177q.012,2.395,0,4.789a1.071,1.071,0,0,1-1.2,1.2q-2.395.01-4.789,0a1.06,1.06,0,0,1-1.172-1.178q-.012-2.421,0-4.842a1.054,1.054,0,0,1,1.15-1.145c.824-.011,1.649,0,2.474,0M276.1,159.2h2.891v-2.887H276.1Z" transform="translate(-235.363 -132.46)"/>
        <path id="Path_105622" data-name="Path 105622" d="M65.548,229.656c0,.789.007,1.579,0,2.368a1.062,1.062,0,0,1-1.173,1.177q-2.421.013-4.842,0a1.053,1.053,0,0,1-1.15-1.146q-.014-2.447,0-4.894a1.038,1.038,0,0,1,1.118-1.122q2.447-.018,4.894,0a1.055,1.055,0,0,1,1.151,1.145c.012.824,0,1.649,0,2.474m-2.134-1.483H60.521v2.9h2.893Z" transform="translate(-50.151 -194.189)"/>
        <path id="Path_105623" data-name="Path 105623" d="M277.58,226.05c.772,0,1.544,0,2.316,0,.837.005,1.24.394,1.243,1.214q.009,2.368,0,4.736a1.081,1.081,0,0,1-1.24,1.217q-2.342.007-4.684,0c-.856,0-1.241-.4-1.243-1.267q-.006-2.316,0-4.631c0-.893.384-1.266,1.293-1.27.772,0,1.544,0,2.316,0m-1.467,5.023h2.875v-2.9h-2.875Z" transform="translate(-235.374 -194.205)"/>
      </g>
    </g>
  </g>
</svg>
