<svg xmlns="http://www.w3.org/2000/svg" width="60.8" height="54.468" viewBox="0 0 60.8 54.468">
  <g id="Group_37774" data-name="Group 37774" transform="translate(0.4 -26.615)">
    <g id="Group_37745" data-name="Group 37745" transform="translate(35.256 38.234)">
      <g id="Group_37744" data-name="Group 37744">
        <path id="Path_105453" data-name="Path 105453" d="M302.82,123.007h-.015a1.239,1.239,0,0,0,0,2.478h.015a1.239,1.239,0,1,0,0-2.478Z" transform="translate(-301.566 -123.007)" stroke="#fff" stroke-width="0.8"/>
      </g>
    </g>
    <g id="Group_37747" data-name="Group 37747" transform="translate(4.599 30.866)">
      <g id="Group_37746" data-name="Group 37746" transform="translate(0 0)">
        <path id="Path_105454" data-name="Path 105454" d="M40.45,58.093a3.336,3.336,0,1,0,3.336,3.336A3.34,3.34,0,0,0,40.45,58.093Zm0,4.193a.857.857,0,1,1,.857-.857A.858.858,0,0,1,40.45,62.286Z" transform="translate(-37.114 -58.093)" stroke="#fff" stroke-width="0.8"/>
      </g>
    </g>
    <g id="Group_37749" data-name="Group 37749" transform="translate(12.306 30.866)">
      <g id="Group_37748" data-name="Group 37748">
        <path id="Path_105455" data-name="Path 105455" d="M109.062,58.094A3.336,3.336,0,1,0,112.4,61.43,3.339,3.339,0,0,0,109.062,58.094Zm0,4.193a.857.857,0,1,1,.857-.857A.858.858,0,0,1,109.062,62.287Z" transform="translate(-105.726 -58.094)" stroke="#fff" stroke-width="0.8"/>
      </g>
    </g>
    <g id="Group_37751" data-name="Group 37751" transform="translate(20.292 30.866)">
      <g id="Group_37750" data-name="Group 37750">
        <path id="Path_105456" data-name="Path 105456" d="M177.674,58.094a3.336,3.336,0,1,0,3.336,3.336A3.339,3.339,0,0,0,177.674,58.094Zm0,4.193a.857.857,0,1,1,.857-.857A.858.858,0,0,1,177.674,62.287Z" transform="translate(-174.338 -58.094)" stroke="#fff" stroke-width="0.8"/>
      </g>
    </g>
    <g id="Group_37753" data-name="Group 37753" transform="translate(30.797 32.823)">
      <g id="Group_37752" data-name="Group 37752">
        <path id="Path_105457" data-name="Path 105457" d="M298.134,73.882H277.589a1.239,1.239,0,0,0,0,2.478h20.545a1.239,1.239,0,0,0,0-2.478Z" transform="translate(-276.35 -73.882)" stroke="#fff" stroke-width="0.8"/>
      </g>
    </g>
    <g id="Group_37755" data-name="Group 37755" transform="translate(35.972 46.845)">
      <g id="Group_37754" data-name="Group 37754" transform="translate(0 0)">
        <path id="Path_105458" data-name="Path 105458" d="M308.92,199a1.239,1.239,0,0,0-1.239,1.239v9.913a1.239,1.239,0,0,0,2.478,0v-9.913A1.239,1.239,0,0,0,308.92,199Z" transform="translate(-307.681 -198.997)" stroke="#fff" stroke-width="0.8"/>
      </g>
    </g>
    <g id="Group_37757" data-name="Group 37757" transform="translate(39.138 46.845)">
      <g id="Group_37756" data-name="Group 37756">
        <path id="Path_105459" data-name="Path 105459" d="M344.924,199a1.239,1.239,0,0,0-1.239,1.239V206l-4.231-6.446a1.239,1.239,0,0,0-2.275.68v9.913a1.239,1.239,0,0,0,2.478,0v-5.767l4.231,6.446a1.239,1.239,0,0,0,2.275-.68v-9.913A1.239,1.239,0,0,0,344.924,199Z" transform="translate(-337.179 -198.997)" stroke="#fff" stroke-width="0.8"/>
      </g>
    </g>
    <g id="Group_37759" data-name="Group 37759" transform="translate(28.108 46.845)">
      <g id="Group_37758" data-name="Group 37758" transform="translate(0 0)">
        <path id="Path_105460" data-name="Path 105460" d="M244.668,205.191,248.7,201.1a1.239,1.239,0,1,0-1.763-1.741l-2.774,2.809v-1.938a1.239,1.239,0,1,0-2.478,0v9.913a1.239,1.239,0,0,0,2.478,0v-1.938l2.774,2.809a1.239,1.239,0,0,0,1.763-1.741Z" transform="translate(-241.687 -198.995)" stroke="#fff" stroke-width="0.8"/>
      </g>
    </g>
    <g id="Group_37761" data-name="Group 37761" transform="translate(3.805 46.845)">
      <g id="Group_37760" data-name="Group 37760" transform="translate(0 0)">
        <path id="Path_105461" data-name="Path 105461" d="M38.631,202.715A3.722,3.722,0,0,0,34.913,199H31.939a1.239,1.239,0,0,0-1.239,1.239v9.913a1.239,1.239,0,0,0,1.239,1.239h2.974a3.715,3.715,0,0,0,2.768-6.2A3.7,3.7,0,0,0,38.631,202.715Zm-3.718,6.2H33.178v-2.478h1.735a1.239,1.239,0,0,1,0,2.478Zm0-4.957H33.178v-2.478h1.735a1.239,1.239,0,0,1,0,2.478Z" transform="translate(-30.7 -198.997)" stroke="#fff" stroke-width="0.8"/>
      </g>
    </g>
    <g id="Group_37763" data-name="Group 37763" transform="translate(11.68 46.845)">
      <g id="Group_37762" data-name="Group 37762" transform="translate(0 0)">
        <path id="Path_105462" data-name="Path 105462" d="M104.456,199a3.97,3.97,0,0,0-3.965,3.965v4.461a3.965,3.965,0,0,0,7.931,0v-4.461A3.97,3.97,0,0,0,104.456,199Zm1.487,8.426a1.487,1.487,0,0,1-2.974,0v-4.461a1.487,1.487,0,0,1,2.974,0Z" transform="translate(-100.491 -198.997)" stroke="#fff" stroke-width="0.8"/>
      </g>
    </g>
    <g id="Group_37765" data-name="Group 37765" transform="translate(19.78 46.845)">
      <g id="Group_37764" data-name="Group 37764" transform="translate(0 0)">
        <path id="Path_105463" data-name="Path 105463" d="M174.155,199a3.97,3.97,0,0,0-3.965,3.965v4.461a3.965,3.965,0,1,0,7.931,0v-4.461A3.97,3.97,0,0,0,174.155,199Zm1.487,8.426a1.487,1.487,0,0,1-2.974,0v-4.461a1.487,1.487,0,1,1,2.974,0Z" transform="translate(-170.19 -198.997)" stroke="#fff" stroke-width="0.8"/>
      </g>
    </g>
    <g id="Group_37767" data-name="Group 37767" transform="translate(48.269 46.845)">
      <g id="Group_37766" data-name="Group 37766" transform="translate(0 0)">
        <path id="Path_105464" data-name="Path 105464" d="M424.032,204.821h-1.487a1.239,1.239,0,1,0,0,2.478h.248v.123a1.487,1.487,0,0,1-2.974,0v-4.461a1.487,1.487,0,0,1,2.974,0,1.239,1.239,0,0,0,2.478,0,3.965,3.965,0,0,0-7.931,0v4.461a3.965,3.965,0,0,0,7.931,0V206.06A1.239,1.239,0,0,0,424.032,204.821Z" transform="translate(-417.34 -198.996)" stroke="#fff" stroke-width="0.8"/>
      </g>
    </g>
    <g id="Group_37769" data-name="Group 37769" transform="translate(36.297 78.205)">
      <g id="Group_37768" data-name="Group 37768">
        <path id="Path_105465" data-name="Path 105465" d="M312.58,465.348a1.239,1.239,0,1,0,.363.876A1.246,1.246,0,0,0,312.58,465.348Z" transform="translate(-310.465 -464.985)" stroke="#fff" stroke-width="0.8"/>
      </g>
    </g>
    <g id="Group_37771" data-name="Group 37771" transform="translate(28.274 59.523)">
      <g id="Group_37770" data-name="Group 37770">
        <path id="Path_105466" data-name="Path 105466" d="M261.84,333.548l-4.876-8.675,3.685-.556a1.239,1.239,0,0,0,.434-2.3l-13.2-7.618a1.239,1.239,0,0,0-1.859,1.073V330.71a1.239,1.239,0,0,0,2.208.773l2.4-3.009,1.556,2.767a1.239,1.239,0,0,0,2.16-1.215l-2.457-4.37a1.239,1.239,0,0,0-2.049-.165l-1.34,1.68v-9.55l8.271,4.775-1.959.3a1.239,1.239,0,0,0-.9,1.833l5.755,10.24a1.239,1.239,0,1,0,2.16-1.214Z" transform="translate(-246.029 -314.233)" stroke="#fff" stroke-width="0.8"/>
      </g>
    </g>
    <g id="Group_37773" data-name="Group 37773" transform="translate(0 27.015)">
      <g id="Group_37772" data-name="Group 37772">
        <path id="Path_105467" data-name="Path 105467" d="M54.141,27.015H5.859A5.845,5.845,0,0,0,0,32.833V73.445a1.168,1.168,0,0,0,1.172,1.164H24.083a1.164,1.164,0,1,0,0-2.327H2.344V40.514H31.408a1.164,1.164,0,1,0,0-2.327H2.344V32.833a3.507,3.507,0,0,1,3.515-3.491H54.141a3.507,3.507,0,0,1,3.515,3.491v5.353H41.484a1.164,1.164,0,1,0,0,2.327H57.656V62.333H50.9a3.251,3.251,0,0,0-3.259,3.236v6.712H44.647a1.164,1.164,0,1,0,0,2.327h4.163a1.176,1.176,0,0,0,.829-.341l10.017-9.948A1.157,1.157,0,0,0,60,63.5h0V32.833A5.846,5.846,0,0,0,54.141,27.015ZM49.982,70.636V65.569a.913.913,0,0,1,.915-.909H56Z" transform="translate(0 -27.015)" stroke="#fff" stroke-width="0.8"/>
      </g>
    </g>
  </g>
</svg>
