<svg width="32" height="32" viewBox="0 0 32 32" fill="none" xmlns="http://www.w3.org/2000/svg">
<path d="M17.1763 19.0718C16.9358 18.9755 16.6632 19.0925 16.567 19.3329L14.563 24.343C14.4668 24.5834 14.5837 24.8562 14.8241 24.9523C14.8812 24.9752 14.9401 24.986 14.998 24.986C15.1841 24.986 15.3601 24.8745 15.4334 24.6913L17.4374 19.6812C17.5335 19.4407 17.4167 19.168 17.1763 19.0718Z" fill="black"/>
<path d="M13.3256 20.1776C13.1426 19.9945 12.8458 19.9945 12.6628 20.1776L11.1598 21.6806C10.9767 21.8636 10.9767 22.1605 11.1598 22.3435L12.6628 23.8465C12.7543 23.938 12.8743 23.9838 12.9942 23.9838C13.1141 23.9838 13.2341 23.938 13.3256 23.8465C13.5087 23.6634 13.5087 23.3666 13.3256 23.1836L12.1541 22.012L13.3256 20.8405C13.5087 20.6575 13.5087 20.3606 13.3256 20.1776Z" fill="black"/>
<path d="M19.3373 20.1776C19.1542 19.9945 18.8574 19.9945 18.6744 20.1776C18.4913 20.3606 18.4913 20.6575 18.6744 20.8405L19.846 22.012L18.6744 23.1836C18.4913 23.3666 18.4913 23.6635 18.6744 23.8465C18.7659 23.938 18.8859 23.9838 19.0058 23.9838C19.1258 23.9838 19.2458 23.938 19.3373 23.8465L20.8403 22.3435C21.0233 22.1604 21.0233 21.8636 20.8403 21.6806L19.3373 20.1776Z" fill="black"/>
<path d="M14.4971 7.95168C14.7559 7.95168 14.9658 7.74181 14.9658 7.48293V6.98193C14.9658 6.72306 14.7559 6.51318 14.4971 6.51318C14.2382 6.51318 14.0283 6.72306 14.0283 6.98193V7.48293C14.0283 7.74181 14.2382 7.95168 14.4971 7.95168Z" fill="black"/>
<path d="M17.5029 7.95168C17.7618 7.95168 17.9717 7.74181 17.9717 7.48293V6.98193C17.9717 6.72306 17.7618 6.51318 17.5029 6.51318C17.2441 6.51318 17.0342 6.72306 17.0342 6.98193V7.48293C17.0342 7.74181 17.2441 7.95168 17.5029 7.95168Z" fill="black"/>
<path d="M15.499 9.95569H16.501C16.7599 9.95569 16.9698 9.74581 16.9698 9.48694C16.9698 9.22806 16.7599 9.01819 16.501 9.01819H15.499C15.2401 9.01819 15.0303 9.22806 15.0303 9.48694C15.0303 9.74581 15.2401 9.95569 15.499 9.95569Z" fill="black"/>
<path d="M31.0303 29.0585H25.3864C25.4511 28.8931 25.4869 28.7133 25.4869 28.5252C25.4869 28.0637 25.2731 27.6514 24.9395 27.3816C25.2782 27.0273 25.4869 26.5478 25.4869 26.0202V18.004C25.4869 17.0501 24.8061 16.2525 23.9049 16.0711C23.7203 15.4386 23.2238 14.9221 22.5788 14.7286L19.3539 13.7612C19.1266 13.693 18.9738 13.4877 18.9738 13.2504V11.8264C19.6605 11.2148 20.1606 10.3934 20.3678 9.45456H20.5091C20.9412 9.45456 21.3496 9.26569 21.6297 8.93631C21.8653 8.65938 21.9874 8.30681 21.9786 7.94531C21.9791 7.94469 21.9799 7.94338 21.9799 7.94338V4.47681C21.9798 2.00831 19.9715 0 17.503 0H13.9959C13.2787 0 12.6246 0.395375 12.2805 1.01106C11.0161 1.11919 10.0201 2.18288 10.0201 3.47481V7.991L10.0206 7.99131C10.0229 8.33663 10.1446 8.67119 10.3702 8.93637C10.6503 9.26575 11.0588 9.45463 11.4909 9.45463H11.6321C11.8394 10.3935 12.3394 11.2149 13.0261 11.8265V13.2504C13.0261 13.4878 12.8734 13.6931 12.6461 13.7612L9.42119 14.7287C8.77619 14.9222 8.27956 15.4386 8.09506 16.0711C7.19387 16.2526 6.513 17.0502 6.513 18.0041V26.0202C6.513 26.5478 6.72175 27.0273 7.06044 27.3816C6.72681 27.6514 6.513 28.0637 6.513 28.5252C6.513 28.7133 6.54888 28.8931 6.6135 29.0585H0.96975C0.435 29.0585 0 29.4935 0 30.0282V31.0303C0 31.565 0.435 32 0.96975 32H31.0303C31.565 32 32 31.565 32 31.0303V30.0282C32 29.4935 31.565 29.0585 31.0303 29.0585V29.0585ZM22.8635 16.0322H18.9075C19.3259 15.7311 19.6997 15.3634 20.0126 14.9376L22.3093 15.6266C22.5386 15.6954 22.7323 15.8418 22.8635 16.0322ZM12.4929 1.9395H12.585C12.7834 1.9395 12.9603 1.81463 13.0267 1.62775C13.1734 1.21488 13.5629 0.9375 13.996 0.9375H17.5031C19.4546 0.9375 21.0424 2.52525 21.0424 4.47681V6.62856C20.8602 6.55494 20.6619 6.51306 20.4555 6.51306H20.454C20.1904 6.51306 19.9759 6.29856 19.9759 6.03494V5.78788C19.9759 5.09894 19.4869 4.49413 18.8132 4.34975L13.8031 3.27612C13.3668 3.18262 12.9174 3.28987 12.5703 3.57044C12.2232 3.851 12.0242 4.26794 12.0242 4.71425V6.03487C12.0242 6.2985 11.8097 6.513 11.5446 6.513C11.3381 6.513 11.1398 6.55487 10.9577 6.6285V3.47481C10.9577 2.62825 11.6464 1.9395 12.4929 1.9395V1.9395ZM12.4917 8.92775C12.4624 8.69319 12.263 8.51713 12.0266 8.51713H11.4909C11.3342 8.51713 11.1861 8.44856 11.0844 8.329C10.9813 8.20788 10.9391 8.05225 10.9653 7.89081C11.0055 7.64394 11.2599 7.45056 11.5461 7.45056C12.3266 7.45056 12.9617 6.8155 12.9617 6.03494V4.71431C12.9617 4.5525 13.0339 4.40131 13.1597 4.29956C13.2557 4.22194 13.3734 4.18087 13.4941 4.18087C13.5315 4.18087 13.5693 4.18481 13.6067 4.19281L18.6168 5.26644C18.861 5.31875 19.0382 5.53806 19.0382 5.78788V6.03494C19.0382 6.8155 19.6733 7.45056 20.4539 7.45056H20.4554C20.7401 7.45056 20.9944 7.64394 21.0346 7.89081C21.0609 8.05225 21.0186 8.20781 20.9156 8.329C20.8139 8.44856 20.6657 8.51713 20.509 8.51713H19.9734C19.7369 8.51713 19.5376 8.69312 19.5082 8.92775C19.2876 10.693 17.7794 12.0242 15.9999 12.0242C14.2205 12.0242 12.7123 10.693 12.4917 8.92775V8.92775ZM13.9637 13.2504V12.4698C14.5773 12.7847 15.2706 12.9618 16 12.9618C16.7294 12.9618 17.4227 12.7848 18.0363 12.4698V13.2504C18.0363 13.8914 18.4409 14.4467 19.0465 14.6461C18.2834 15.5218 17.1769 16.0322 16.0001 16.0322C14.8232 16.0322 13.7167 15.5217 12.9536 14.6461C13.5591 14.4467 13.9637 13.8914 13.9637 13.2504V13.2504ZM9.69069 15.6266L11.9875 14.9376C12.3004 15.3634 12.6742 15.7311 13.0926 16.0323H9.1365C9.26775 15.8418 9.46144 15.6954 9.69069 15.6266ZM7.45056 28.5252C7.45056 28.2311 7.68981 27.9919 7.98381 27.9919H20.008C20.2669 27.9919 20.4767 27.7821 20.4767 27.5232C20.4767 27.2643 20.2669 27.0544 20.008 27.0544H8.48487C7.91456 27.0544 7.45056 26.5905 7.45056 26.0202V18.004C7.45056 17.4337 7.91456 16.9697 8.48487 16.9697H8.48906H8.48981H8.49044H23.5094H23.5101H23.5108H23.515C24.0853 16.9697 24.5493 17.4337 24.5493 18.004V26.0201C24.5493 26.5904 24.0853 27.0544 23.515 27.0544H22.012C21.7531 27.0544 21.5432 27.2642 21.5432 27.5231C21.5432 27.782 21.7531 27.9919 22.012 27.9919H24.0161C24.3101 27.9919 24.5493 28.2311 24.5493 28.5251C24.5493 28.8191 24.3101 29.0584 24.0161 29.0584H7.98387C7.68981 29.0585 7.45056 28.8193 7.45056 28.5252ZM31.0625 31.0303C31.0625 31.0481 31.0481 31.0625 31.0303 31.0625H0.96975C0.951937 31.0625 0.9375 31.0481 0.9375 31.0303V30.0282C0.9375 30.0104 0.951937 29.996 0.96975 29.996H31.0303C31.0481 29.996 31.0625 30.0104 31.0625 30.0282V31.0303Z" fill="black"/>
</svg>
