<svg width="32" height="32" viewBox="0 0 32 32" fill="none" xmlns="http://www.w3.org/2000/svg">
<path d="M29.5 3H2.5C1.96957 3 1.46086 3.21071 1.08579 3.58579C0.710714 3.96086 0.5 4.46957 0.5 5V27C0.5 27.5304 0.710714 28.0391 1.08579 28.4142C1.46086 28.7893 1.96957 29 2.5 29H29.5C30.0304 29 30.5391 28.7893 30.9142 28.4142C31.2893 28.0391 31.5 27.5304 31.5 27V5C31.5 4.46957 31.2893 3.96086 30.9142 3.58579C30.5391 3.21071 30.0304 3 29.5 3ZM30.5 5V8H11.5V4H29.5C29.7652 4 30.0196 4.10536 30.2071 4.29289C30.3946 4.48043 30.5 4.73478 30.5 5ZM2.5 4H10.5V8H1.5V5C1.5 4.73478 1.60536 4.48043 1.79289 4.29289C1.98043 4.10536 2.23478 4 2.5 4V4ZM29.5 28H2.5C2.23478 28 1.98043 27.8946 1.79289 27.7071C1.60536 27.5196 1.5 27.2652 1.5 27V9H30.5V27C30.5 27.2652 30.3946 27.5196 30.2071 27.7071C30.0196 27.8946 29.7652 28 29.5 28Z" fill="black"/>
<path d="M4.5 5.5H5.5V6.5H4.5V5.5Z" fill="black"/>
<path d="M2.5 5.5H3.5V6.5H2.5V5.5Z" fill="black"/>
<path d="M6.5 5.5H7.5V6.5H6.5V5.5Z" fill="black"/>
<path d="M8.5 5.5H9.5V6.5H8.5V5.5Z" fill="black"/>
<path d="M13 18H11.5V12.5C11.5 12.3674 11.4473 12.2402 11.3536 12.1464C11.2598 12.0527 11.1326 12 11 12H3C2.86739 12 2.74021 12.0527 2.64645 12.1464C2.55268 12.2402 2.5 12.3674 2.5 12.5V24.5C2.5 24.6326 2.55268 24.7598 2.64645 24.8536C2.74021 24.9473 2.86739 25 3 25H13C13.1326 25 13.2598 24.9473 13.3536 24.8536C13.4473 24.7598 13.5 24.6326 13.5 24.5V18.5C13.5 18.3674 13.4473 18.2402 13.3536 18.1464C13.2598 18.0527 13.1326 18 13 18ZM7.5 18.5V24H3.5V13H10.5V18H8C7.86739 18 7.74021 18.0527 7.64645 18.1464C7.55268 18.2402 7.5 18.3674 7.5 18.5ZM12.5 24H8.5V19H12.5V24Z" fill="black"/>
<path d="M9.5 20H11.5V21H9.5V20Z" fill="black"/>
<path d="M9.5 22H11.5V23H9.5V22Z" fill="black"/>
<path d="M4.5 14H6.5V15H4.5V14Z" fill="black"/>
<path d="M7.5 14H9.5V15H7.5V14Z" fill="black"/>
<path d="M4.5 16H6.5V17H4.5V16Z" fill="black"/>
<path d="M7.5 16H9.5V17H7.5V16Z" fill="black"/>
<path d="M4.5 18H6.5V19H4.5V18Z" fill="black"/>
<path d="M4.5 20H6.5V21H4.5V20Z" fill="black"/>
<path d="M4.5 22H6.5V23H4.5V22Z" fill="black"/>
<path d="M19 16.5H17C16.8674 16.5 16.7402 16.5527 16.6464 16.6464C16.5527 16.7402 16.5 16.8674 16.5 17V19C16.5 19.1326 16.5527 19.2598 16.6464 19.3536C16.7402 19.4473 16.8674 19.5 17 19.5H19C19.1326 19.5 19.2598 19.4473 19.3536 19.3536C19.4473 19.2598 19.5 19.1326 19.5 19V17C19.5 16.8674 19.4473 16.7402 19.3536 16.6464C19.2598 16.5527 19.1326 16.5 19 16.5ZM18.5 18.5H17.5V17.5H18.5V18.5Z" fill="black"/>
<path d="M23 16.5H21C20.8674 16.5 20.7402 16.5527 20.6464 16.6464C20.5527 16.7402 20.5 16.8674 20.5 17V19C20.5 19.1326 20.5527 19.2598 20.6464 19.3536C20.7402 19.4473 20.8674 19.5 21 19.5H23C23.1326 19.5 23.2598 19.4473 23.3536 19.3536C23.4473 19.2598 23.5 19.1326 23.5 19V17C23.5 16.8674 23.4473 16.7402 23.3536 16.6464C23.2598 16.5527 23.1326 16.5 23 16.5ZM22.5 18.5H21.5V17.5H22.5V18.5Z" fill="black"/>
<path d="M19 20.5H17C16.8674 20.5 16.7402 20.5527 16.6464 20.6464C16.5527 20.7402 16.5 20.8674 16.5 21V23C16.5 23.1326 16.5527 23.2598 16.6464 23.3536C16.7402 23.4473 16.8674 23.5 17 23.5H19C19.1326 23.5 19.2598 23.4473 19.3536 23.3536C19.4473 23.2598 19.5 23.1326 19.5 23V21C19.5 20.8674 19.4473 20.7402 19.3536 20.6464C19.2598 20.5527 19.1326 20.5 19 20.5ZM18.5 22.5H17.5V21.5H18.5V22.5Z" fill="black"/>
<path d="M22 20.5C21.7033 20.5 21.4133 20.588 21.1666 20.7528C20.92 20.9176 20.7277 21.1519 20.6142 21.426C20.5007 21.7001 20.4709 22.0017 20.5288 22.2926C20.5867 22.5836 20.7296 22.8509 20.9393 23.0607C21.1491 23.2704 21.4164 23.4133 21.7074 23.4712C21.9983 23.5291 22.2999 23.4993 22.574 23.3858C22.8481 23.2723 23.0824 23.08 23.2472 22.8334C23.412 22.5867 23.5 22.2967 23.5 22C23.5 21.6022 23.342 21.2206 23.0607 20.9393C22.7794 20.658 22.3978 20.5 22 20.5ZM22 22.5C21.9011 22.5 21.8044 22.4707 21.7222 22.4157C21.64 22.3608 21.5759 22.2827 21.5381 22.1913C21.5002 22.1 21.4903 21.9994 21.5096 21.9025C21.5289 21.8055 21.5765 21.7164 21.6464 21.6464C21.7164 21.5765 21.8055 21.5289 21.9025 21.5096C21.9994 21.4903 22.1 21.5002 22.1913 21.5381C22.2827 21.5759 22.3608 21.64 22.4157 21.7222C22.4707 21.8044 22.5 21.9011 22.5 22C22.5 22.1326 22.4473 22.2598 22.3536 22.3536C22.2598 22.4473 22.1326 22.5 22 22.5Z" fill="black"/>
<path d="M27 19.5C27.1326 19.5 27.2598 19.4473 27.3536 19.3536C27.4473 19.2598 27.5 19.1326 27.5 19V17C27.5 16.8674 27.4473 16.7402 27.3536 16.6464C27.2598 16.5527 27.1326 16.5 27 16.5H25C24.8674 16.5 24.7402 16.5527 24.6464 16.6464C24.5527 16.7402 24.5 16.8674 24.5 17V19C24.5 19.1326 24.5527 19.2598 24.6464 19.3536C24.7402 19.4473 24.8674 19.5 25 19.5H27ZM25.5 17.5H26.5V18.5H25.5V17.5Z" fill="black"/>
<path d="M29.6085 23.0115L29.5 22.9875V13.5C29.5 12.9696 29.2893 12.4608 28.9142 12.0858C28.5391 11.7107 28.0304 11.5 27.5 11.5H26.408C26.3062 11.2077 26.1159 10.9544 25.8636 10.7751C25.6113 10.5958 25.3095 10.4995 25 10.4995C24.6905 10.4995 24.3887 10.5958 24.1364 10.7751C23.8841 10.9544 23.6938 11.2077 23.592 11.5H20.408C20.3062 11.2077 20.1159 10.9544 19.8636 10.7751C19.6113 10.5958 19.3095 10.4995 19 10.4995C18.6905 10.4995 18.3887 10.5958 18.1364 10.7751C17.8841 10.9544 17.6938 11.2077 17.592 11.5H16.5C15.9696 11.5 15.4609 11.7107 15.0858 12.0858C14.7107 12.4608 14.5 12.9696 14.5 13.5V23.5C14.5 24.0304 14.7107 24.5391 15.0858 24.9142C15.4609 25.2893 15.9696 25.5 16.5 25.5H25.1545L25.5115 27.1085C25.5348 27.2131 25.5911 27.3076 25.6721 27.3778C25.7531 27.448 25.8546 27.4903 25.9615 27.4985H26.002C26.102 27.4985 26.1997 27.4686 26.2825 27.4125C26.3653 27.3564 26.4294 27.2768 26.4665 27.184L27.387 24.884L29.687 23.9635C29.7865 23.924 29.8706 23.8536 29.9271 23.7627C29.9836 23.6718 30.0095 23.5652 30.0008 23.4585C29.9922 23.3518 29.9496 23.2507 29.8792 23.1701C29.8089 23.0894 29.7145 23.0335 29.61 23.0105L29.6085 23.0115ZM25 11.5C25.0989 11.5 25.1956 11.5293 25.2778 11.5842C25.36 11.6392 25.4241 11.7173 25.4619 11.8086C25.4998 11.9 25.5097 12.0005 25.4904 12.0975C25.4711 12.1945 25.4235 12.2836 25.3536 12.3535C25.2836 12.4235 25.1945 12.4711 25.0975 12.4904C25.0006 12.5097 24.9 12.4998 24.8087 12.4619C24.7173 12.4241 24.6392 12.36 24.5843 12.2778C24.5293 12.1955 24.5 12.0989 24.5 12C24.5 11.8674 24.5527 11.7402 24.6464 11.6464C24.7402 11.5527 24.8674 11.5 25 11.5ZM19 11.5C19.0989 11.5 19.1956 11.5293 19.2778 11.5842C19.36 11.6392 19.4241 11.7173 19.4619 11.8086C19.4998 11.9 19.5097 12.0005 19.4904 12.0975C19.4711 12.1945 19.4235 12.2836 19.3536 12.3535C19.2836 12.4235 19.1945 12.4711 19.0975 12.4904C19.0006 12.5097 18.9 12.4998 18.8087 12.4619C18.7173 12.4241 18.6392 12.36 18.5843 12.2778C18.5293 12.1955 18.5 12.0989 18.5 12C18.5 11.8674 18.5527 11.7402 18.6464 11.6464C18.7402 11.5527 18.8674 11.5 19 11.5ZM16.5 12.5H17.592C17.6938 12.7923 17.8841 13.0456 18.1364 13.2249C18.3887 13.4041 18.6905 13.5005 19 13.5005C19.3095 13.5005 19.6113 13.4041 19.8636 13.2249C20.1159 13.0456 20.3062 12.7923 20.408 12.5H23.592C23.6938 12.7923 23.8841 13.0456 24.1364 13.2249C24.3887 13.4041 24.6905 13.5005 25 13.5005C25.3095 13.5005 25.6113 13.4041 25.8636 13.2249C26.1159 13.0456 26.3062 12.7923 26.408 12.5H27.5C27.7652 12.5 28.0196 12.6053 28.2071 12.7929C28.3946 12.9804 28.5 13.2348 28.5 13.5V14.5H15.5V13.5C15.5 13.2348 15.6054 12.9804 15.7929 12.7929C15.9804 12.6053 16.2348 12.5 16.5 12.5V12.5ZM25.1085 22.0115C25.0263 21.9931 24.9408 21.9958 24.86 22.0193C24.7791 22.0428 24.7055 22.0864 24.6459 22.1459C24.5864 22.2054 24.5428 22.2791 24.5193 22.3599C24.4958 22.4408 24.4931 22.5263 24.5115 22.6085L24.932 24.5H16.5C16.2348 24.5 15.9804 24.3946 15.7929 24.2071C15.6054 24.0196 15.5 23.7652 15.5 23.5V15.5H28.5V22.7655L27.5 22.543V21C27.5 20.8674 27.4473 20.7402 27.3536 20.6464C27.2598 20.5527 27.1326 20.5 27 20.5H25V21.5H26.5V22.321L25.1085 22.0115ZM26.8145 24.0355C26.7515 24.0606 26.6943 24.0983 26.6463 24.1463C26.5984 24.1943 26.5606 24.2515 26.5355 24.3145L26.1355 25.3115L25.6575 23.1585L27.8105 23.6365L26.8145 24.0355Z" fill="black"/>
</svg>
