<svg width="32" height="32" viewBox="0 0 32 32" fill="none" xmlns="http://www.w3.org/2000/svg">
<path d="M23.5422 26.9545H18.2593V25.5894H28.622C29.2842 25.5894 29.8229 25.0507 29.8229 24.3885V19.0414C29.8229 18.3791 29.2842 17.8405 28.622 17.8405H20.9676C20.7025 16.77 20.088 15.8011 19.2273 15.1006C18.3191 14.3615 17.173 13.9545 16 13.9545C14.827 13.9545 13.681 14.3615 12.7727 15.1006C11.9121 15.801 11.2976 16.77 11.0324 17.8405H3.3781C2.71594 17.8405 2.17725 18.3792 2.17725 19.0414V24.3885C2.17725 25.0508 2.71594 25.5894 3.3781 25.5894H13.7408V26.9545H1.63949C1.27643 26.9545 0.981095 26.6591 0.981095 26.2961V15.8652C0.981095 15.6054 0.770534 15.3949 0.510811 15.3949C0.251089 15.3949 0.0405273 15.6054 0.0405273 15.8652V26.2961C0.0405273 27.1778 0.757804 27.8951 1.63949 27.8951H13.7408V29.1383H12.4555C11.9195 29.1383 11.4835 29.5743 11.4835 30.1102V31.4044C11.4835 31.7328 11.7508 32.0001 12.0792 32.0001H19.9209C20.2493 32.0001 20.5166 31.7328 20.5166 31.4044V30.1102C20.5166 29.5743 20.0806 29.1383 19.5446 29.1383H18.2593V27.8951H23.5422C23.8019 27.8951 24.0125 27.6846 24.0125 27.4248C24.0125 27.165 23.8019 26.9545 23.5422 26.9545ZM3.11781 24.3885V19.0414C3.11781 18.8978 3.23457 18.7811 3.3781 18.7811H11.1645C11.531 18.7811 11.8421 18.5299 11.9212 18.1704C12.3389 16.2725 14.0542 14.8951 16 14.8951C17.9458 14.8951 19.6612 16.2726 20.0788 18.1703C20.158 18.5299 20.4691 18.7811 20.8356 18.7811H28.622C28.7655 18.7811 28.8823 18.8978 28.8823 19.0414V24.3885C28.8823 24.5321 28.7655 24.6488 28.622 24.6488H3.3781C3.23457 24.6489 3.11781 24.5321 3.11781 24.3885ZM19.5759 30.1101V31.0594H12.4241V30.1101C12.4241 30.0929 12.4382 30.0788 12.4555 30.0788H19.5446C19.5619 30.0788 19.5759 30.0929 19.5759 30.1101ZM14.6814 29.1382V25.5894H17.3188V29.1382H14.6814Z" fill="black"/>
<path d="M30.3607 3.46787H27.2568V1.59897C27.2568 0.717277 26.5395 0 25.6578 0H23.2404C22.3587 0 21.6414 0.717277 21.6414 1.59897V3.46787H10.3586V1.59897C10.3586 0.717277 9.64134 0 8.75965 0H6.34221C5.46052 0 4.74324 0.717277 4.74324 1.59897V3.46787H1.63949C0.757804 3.46787 0.0405273 4.18515 0.0405273 5.06684V13.6705C0.0405273 13.9303 0.251089 14.1408 0.510811 14.1408C0.770534 14.1408 0.981095 13.9303 0.981095 13.6705V10.2684H31.0191V26.2961C31.0191 26.6591 30.7237 26.9545 30.3607 26.9545H25.7368C25.4771 26.9545 25.2666 27.165 25.2666 27.4248C25.2666 27.6845 25.4771 27.895 25.7368 27.895H30.3607C31.2424 27.895 31.9596 27.1778 31.9596 26.2961V5.06684C31.9596 4.18515 31.2424 3.46787 30.3607 3.46787ZM22.582 1.59897C22.582 1.23591 22.8773 0.940568 23.2404 0.940568H25.6578C26.0209 0.940568 26.3162 1.23591 26.3162 1.59897V6.00164C26.3162 6.3647 26.0209 6.66004 25.6578 6.66004H23.2404C22.8773 6.66004 22.582 6.3647 22.582 6.00164V1.59897ZM5.68381 1.59897C5.68381 1.23591 5.97915 0.940568 6.34221 0.940568H8.75965C9.12271 0.940568 9.41805 1.23591 9.41805 1.59897V6.00164C9.41805 6.3647 9.12271 6.66004 8.75965 6.66004H6.34221C5.97915 6.66004 5.68381 6.3647 5.68381 6.00164V1.59897ZM0.981095 9.3278V5.06684C0.981095 4.70378 1.27643 4.40844 1.63949 4.40844H4.74324V6.00164C4.74324 6.88333 5.46052 7.6006 6.34221 7.6006H8.75965C9.64134 7.6006 10.3586 6.88333 10.3586 6.00164V4.40844H21.6415V6.00164C21.6415 6.88333 22.3588 7.6006 23.2404 7.6006H25.6579C26.5396 7.6006 27.2569 6.88333 27.2569 6.00164V4.40844H30.3607C30.7238 4.40844 31.0191 4.70378 31.0191 5.06684V9.3278H0.981095Z" fill="black"/>
<path d="M9.01398 20.8202C9.27371 20.8202 9.48427 20.6097 9.48427 20.3499C9.48427 20.0902 9.27371 19.8797 9.01398 19.8797H7.84473C7.58501 19.8797 7.37445 20.0902 7.37445 20.3499V23.1249C7.37445 23.3847 7.58501 23.5952 7.84473 23.5952H9.01398C9.27371 23.5952 9.48427 23.3847 9.48427 23.1249C9.48427 22.8651 9.27371 22.6546 9.01398 22.6546H8.31502V22.2077H8.92777C9.18749 22.2077 9.39805 21.9972 9.39805 21.7375C9.39805 21.4777 9.18749 21.2672 8.92777 21.2672H8.31502V20.8202H9.01398Z" fill="black"/>
<path d="M6.81701 21.065C6.81701 20.4044 6.26107 19.8669 5.57771 19.8669H4.83354C4.57381 19.8669 4.36237 20.0774 4.36237 20.3372V23.1377C4.36237 23.3975 4.57294 23.608 4.83266 23.608C5.09238 23.608 5.30294 23.3975 5.30294 23.1377V22.6635L5.99376 23.4484C6.08669 23.5541 6.21648 23.608 6.34697 23.608C6.45733 23.608 6.56813 23.5694 6.65749 23.4907C6.85243 23.3192 6.87143 23.022 6.69981 22.827L6.1028 22.1487C6.52399 21.9572 6.81701 21.5441 6.81701 21.065ZM5.57771 20.8075C5.73686 20.8075 5.87644 20.9278 5.87644 21.065C5.87644 21.2022 5.73686 21.3225 5.57771 21.3225C5.51137 21.3225 5.41155 21.3228 5.30639 21.3233C5.30595 21.2228 5.30539 20.9133 5.30514 20.8074L5.57771 20.8075Z" fill="black"/>
<path d="M11.8939 21.3183C11.5715 21.1993 11.2698 21.0703 11.1559 21.0207C11.1454 21.0088 11.1357 20.9891 11.1402 20.9578C11.1483 20.9016 11.1987 20.8555 11.2786 20.8314C11.6084 20.7322 11.9261 20.9778 11.9388 20.9878C12.1377 21.1518 12.4319 21.1253 12.5981 20.9276C12.7652 20.7288 12.7395 20.4321 12.5407 20.265C12.2818 20.0474 11.6673 19.7322 11.0073 19.9308C10.5754 20.0609 10.2696 20.4032 10.2091 20.8242C10.152 21.222 10.3246 21.6047 10.6595 21.8231C10.6804 21.8367 10.7022 21.8485 10.7248 21.8586C10.7412 21.8659 11.1303 22.0391 11.5684 22.2007C11.7246 22.2584 11.8751 22.3572 11.8588 22.448C11.8424 22.54 11.7044 22.6674 11.4879 22.6674C11.2429 22.6674 11.0084 22.5699 10.8605 22.4068C10.6861 22.2143 10.3887 22.1997 10.1962 22.3741C10.0037 22.5485 9.9891 22.8459 10.1635 23.0384C10.4916 23.4004 10.9743 23.608 11.488 23.608C12.1365 23.608 12.6819 23.1897 12.7848 22.6134C12.863 22.1751 12.6701 21.6047 11.8939 21.3183Z" fill="black"/>
<path d="M14.9979 20.8202C15.2576 20.8202 15.4682 20.6097 15.4682 20.3499C15.4682 20.0902 15.2576 19.8797 14.9979 19.8797H13.8286C13.5689 19.8797 13.3583 20.0902 13.3583 20.3499V23.1249C13.3583 23.3847 13.5689 23.5952 13.8286 23.5952H14.9979C15.2576 23.5952 15.4682 23.3847 15.4682 23.1249C15.4682 22.8651 15.2576 22.6546 14.9979 22.6546H14.2989V22.2077H14.9117C15.1714 22.2077 15.3819 21.9972 15.3819 21.7375C15.3819 21.4777 15.1714 21.2672 14.9117 21.2672H14.2989V20.8202H14.9979Z" fill="black"/>
<path d="M18.4803 21.065C18.4803 20.4044 17.9244 19.8669 17.241 19.8669H16.4968C16.2371 19.8669 16.0257 20.0774 16.0257 20.3372V23.1377C16.0257 23.3975 16.2362 23.608 16.496 23.608C16.7557 23.608 16.9662 23.3975 16.9662 23.1377V22.6635L17.657 23.4484C17.75 23.5541 17.8798 23.608 18.0103 23.608C18.1206 23.608 18.2314 23.5694 18.3208 23.4907C18.5157 23.3192 18.5347 23.022 18.3631 22.827L17.7661 22.1487C18.1873 21.9572 18.4803 21.5441 18.4803 21.065ZM17.241 20.8075C17.4001 20.8075 17.5397 20.9278 17.5397 21.065C17.5397 21.2022 17.4001 21.3225 17.241 21.3225C17.1747 21.3225 17.0748 21.3228 16.9697 21.3233C16.9693 21.2228 16.9687 20.9133 16.9685 20.8074L17.241 20.8075Z" fill="black"/>
<path d="M21.6476 19.8961C21.4008 19.8141 21.1349 19.9476 21.0531 20.1941L20.5166 21.8088L19.9523 20.183C19.8671 19.9376 19.5991 19.8077 19.3538 19.8929C19.1084 19.9781 18.9785 20.246 19.0637 20.4914L20.0223 23.2529C20.0978 23.4657 20.2995 23.608 20.525 23.608H20.5286C20.7556 23.6065 20.9571 23.4611 21.0312 23.2431L21.9456 20.4906C22.0276 20.2442 21.8941 19.9779 21.6476 19.8961Z" fill="black"/>
<path d="M24.1666 20.8202C24.4263 20.8202 24.6369 20.6097 24.6369 20.3499C24.6369 20.0902 24.4263 19.8797 24.1666 19.8797H22.9973C22.7376 19.8797 22.5271 20.0902 22.5271 20.3499V23.1249C22.5271 23.3847 22.7376 23.5952 22.9973 23.5952H24.1666C24.4263 23.5952 24.6369 23.3847 24.6369 23.1249C24.6369 22.8651 24.4263 22.6546 24.1666 22.6546H23.4676V22.2077H24.0804C24.3401 22.2077 24.5507 21.9972 24.5507 21.7375C24.5507 21.4777 24.3401 21.2672 24.0804 21.2672H23.4676V20.8202H24.1666Z" fill="black"/>
<path d="M26.4343 19.9083H25.6646C25.5397 19.9083 25.42 19.958 25.3318 20.0464C25.2435 20.1347 25.1941 20.2546 25.1943 20.3795V23.0522C25.1943 23.0796 25.1971 23.1064 25.2017 23.1325C25.2103 23.2446 25.2585 23.3503 25.3388 23.4301C25.4269 23.5176 25.546 23.5666 25.6701 23.5666H25.6719C25.6952 23.5666 26.2449 23.5644 26.465 23.5605C27.3557 23.545 28.0021 22.7782 28.0021 21.7375C28.0021 20.6605 27.3574 19.9083 26.4343 19.9083ZM26.4485 22.6201C26.3745 22.6214 26.2587 22.6225 26.1388 22.6234C26.1379 22.3169 26.1363 21.1687 26.1357 20.8489H26.4343C27.0163 20.8489 27.0615 21.529 27.0615 21.7375C27.0615 22.1715 26.872 22.6127 26.4485 22.6201Z" fill="black"/>
<path d="M17.6854 17.5154C17.6854 16.5862 16.9294 15.8301 16.0001 15.8301C15.0708 15.8301 14.3148 16.5862 14.3148 17.5154C14.3148 18.4447 15.0708 19.2008 16.0001 19.2008C16.9294 19.2008 17.6854 18.4447 17.6854 17.5154ZM16 18.2602C15.5894 18.2602 15.2553 17.9261 15.2553 17.5154C15.2553 17.1048 15.5894 16.7707 16 16.7707C16.4107 16.7707 16.7448 17.1048 16.7448 17.5154C16.7448 17.9261 16.4107 18.2602 16 18.2602Z" fill="black"/>
</svg>
