<svg xmlns="http://www.w3.org/2000/svg" xmlns:xlink="http://www.w3.org/1999/xlink" width="60" height="60" viewBox="0 0 60 60">
  <defs>
    <clipPath id="clip-path">
      <rect id="Rectangle_12566" data-name="Rectangle 12566" width="53.998" height="54" fill="#fe5c58"/>
    </clipPath>
  </defs>
  <g id="Group_37647" data-name="Group 37647" transform="translate(-423 -1990)">
    <g id="Rectangle_12523" data-name="Rectangle 12523" transform="translate(423 1990)" fill="#fe5c58" stroke="#707070" stroke-width="1" opacity="0">
      <rect width="60" height="60" stroke="none"/>
      <rect x="0.5" y="0.5" width="59" height="59" fill="none"/>
    </g>
    <g id="Group_37685" data-name="Group 37685" transform="translate(426 1993)">
      <g id="Group_37684" data-name="Group 37684" clip-path="url(#clip-path)">
        <path id="Path_105434" data-name="Path 105434" d="M323.168,12.023a1.309,1.309,0,0,1-1.255.582c-.9-.03-1.792-.01-2.689-.007-.171,0-.341.017-.566.03v.713q0,19.56,0,39.121c0,.193.006.387,0,.58a.879.879,0,0,1-.957.952q-4.429.013-8.858,0a.894.894,0,0,1-.967-1c-.009-.492,0-.984,0-1.476V12.6h-2.553c-.334,0-.668,0-1,0a.881.881,0,0,1-.875-.557.926.926,0,0,1,.222-1.018q1.555-1.861,3.105-3.725,2.784-3.341,5.573-6.678a5.98,5.98,0,0,1,.7-.615h.422a3.577,3.577,0,0,1,.614.476q4.553,5.45,9.089,10.914Zm-16.97-1.23h2.086c1.154,0,1.385.233,1.385,1.391q0,19.668,0,39.336v.656h7.19c0-.248,0-.471,0-.694q0-19.642,0-39.283c0-1.179.231-1.406,1.43-1.407h2.052L313.27,2.308,306.2,10.793" transform="translate(-269.171)" fill="#fe5c58"/>
        <path id="Path_105435" data-name="Path 105435" d="M4.778,0V2.682H7.391V4.5H4.772v2.65H2.96V4.524H.274V2.708c.705,0,1.417-.025,2.126.009.441.021.576-.123.56-.561C2.934,1.438,2.973.719,2.985,0Z" transform="translate(-0.243)" fill="#fe5c58"/>
        <rect id="Rectangle_12563" data-name="Rectangle 12563" width="1.758" height="1.793" transform="translate(52.239 51.256)" fill="#fe5c58"/>
        <path id="Path_105436" data-name="Path 105436" d="M4.508,196.351c-1.144,0-2.214-.006-3.284,0-.483,0-.919-.06-1.144-.563s.05-.831.341-1.181q4.307-5.16,8.606-10.326a.983.983,0,0,1,1.739,0q4.341,5.2,8.677,10.4a.986.986,0,0,1,.256,1.151,1.037,1.037,0,0,1-1.069.517c-1.088-.008-2.175,0-3.336,0V197q0,9.385,0,18.769c0,1.012-.264,1.274-1.279,1.275H5.791c-1.026,0-1.283-.251-1.283-1.266q0-9.359,0-18.717v-.708m8.991,18.87V196.154c0-1.48.125-1.6,1.63-1.6h1.855l-7.085-8.5-7.082,8.5H4.959c1.115,0,1.349.237,1.349,1.368q0,9.333,0,18.666v.636Z" transform="translate(0 -163.043)" fill="#fe5c58"/>
        <path id="Path_105437" data-name="Path 105437" d="M178.556,253.866c-.642-2.553-.121-4.319,1.625-5.514a4.519,4.519,0,0,1,5.146.053c1.692,1.213,2.2,3.014,1.546,5.45a8.5,8.5,0,0,1,1.113.432,3.389,3.389,0,0,1,1.9,3.011c.04,1.827.009,3.656.018,5.483a.874.874,0,0,1-.618.94c-1.065.292-1.242.988-1.207,2,.078,2.265.026,4.534.023,6.8,0,.841-.3,1.142-1.142,1.142q-4.245,0-8.489,0c-.847,0-1.149-.3-1.15-1.134,0-2.566-.008-5.132.006-7.7a.675.675,0,0,0-.426-.729c-1.534-.729-1.378-.568-1.38-2.259,0-1.248.058-2.5-.014-3.743a3.791,3.791,0,0,1,3.045-4.234m7.753,17.981c0-2.337,0-4.619,0-6.9,0-1.848-.173-1.665,1.472-2.485a.689.689,0,0,0,.311-.508c.024-1.475.022-2.951.011-4.426a1.786,1.786,0,0,0-1.8-1.868c-.333-.017-.668-.013-1,0a.953.953,0,0,1-1.045-.537.923.923,0,0,1,.319-1.126,2.124,2.124,0,0,0,.215-.232,2.654,2.654,0,0,0,.253-3.051,2.687,2.687,0,0,0-4.987.941,2.647,2.647,0,0,0,.871,2.421.9.9,0,0,1-.649,1.581c-.351,0-.7-.007-1.054,0a1.8,1.8,0,0,0-1.9,1.928c-.007,1.194.058,2.393-.022,3.582-.057.846.14,1.392,1,1.643a1.157,1.157,0,0,1,.825,1.3c-.025,2.389-.01,4.778-.01,7.167v.57Z" transform="translate(-155.717 -219.666)" fill="#fe5c58"/>
        <path id="Path_105438" data-name="Path 105438" d="M161.557,98.194l-7.08,8.5c.826,0,1.533,0,2.24,0,.974,0,1.246.274,1.246,1.256,0,1.651,0,3.3,0,5h-1.78v-4.453H154.85c-.72,0-1.441,0-2.161,0a.944.944,0,0,1-.944-.54.887.887,0,0,1,.187-1.021q4.438-5.324,8.879-10.644c.473-.565,1.073-.509,1.6.121q3.884,4.653,7.763,9.311c.3.364.6.731.912,1.092a.985.985,0,0,1,.281,1.145,1.014,1.014,0,0,1-1.053.538c-1.1-.01-2.2,0-3.353,0v4.453H165.15V111.8c0-1.335,0-2.671,0-4.006,0-.771.322-1.086,1.089-1.092.752-.006,1.5,0,2.4,0l-7.082-8.5" transform="translate(-134.558 -85.088)" fill="#fe5c58"/>
        <path id="Path_105439" data-name="Path 105439" d="M119.99,44.742V42.924h2.665V40.261h1.8V42.9h2.675V44.7h-2.632v2.691h-1.817V44.742Z" transform="translate(-106.463 -35.722)" fill="#fe5c58"/>
        <rect id="Rectangle_12564" data-name="Rectangle 12564" width="1.73" height="1.733" transform="translate(30.617 0.941)" fill="#fe5c58"/>
        <rect id="Rectangle_12565" data-name="Rectangle 12565" width="1.729" height="1.728" transform="translate(0.942 18.053)" fill="#fe5c58"/>
        <path id="Path_105440" data-name="Path 105440" d="M220.88,327.676a1.834,1.834,0,0,0,2.735,0l.838,1.652c-.318.164-.6.332-.9.457a.585.585,0,0,0-.4.641c.023.854.008,1.71.008,2.583H221.35c0-.783-.035-1.552.012-2.316.033-.531-.108-.868-.635-1.029a4.729,4.729,0,0,1-.665-.328l.818-1.663" transform="translate(-195.254 -290.737)" fill="#fe5c58"/>
      </g>
    </g>
  </g>
</svg>
