<svg xmlns="http://www.w3.org/2000/svg" width="60" height="55.358" viewBox="0 0 60 55.358">
  <g id="Group_37805" data-name="Group 37805" transform="translate(0.001 -19.806)">
    <g id="Group_37804" data-name="Group 37804" transform="translate(-0.001 19.806)">
      <path id="Path_105551" data-name="Path 105551" d="M104,93.731A23.7,23.7,0,0,0,71.046,72.074a.887.887,0,1,0,.7,1.63,21.746,21.746,0,0,1,5.577-1.535,27.9,27.9,0,0,0-9.695,20.677H58.472a21.708,21.708,0,0,1,9.8-17.276.884.884,0,0,0,.251-1.228.894.894,0,0,0-1.235-.249A23.586,23.586,0,1,0,104,93.731Zm-1.8-.886H93.041A27.9,27.9,0,0,0,83.35,72.171,21.847,21.847,0,0,1,102.2,92.846Zm-10.96,7.492a8.293,8.293,0,0,0,3.911,4.591,8.293,8.293,0,0,0-3.911,4.591,8.294,8.294,0,0,0-3.911-4.591A8.293,8.293,0,0,0,91.238,100.337Zm-.568-2.183Zm-1.882-3.536h2.47c-.023.741-.072,1.481-.152,2.215a1.192,1.192,0,0,0-1.03.9l-.37,1.5a6.833,6.833,0,0,1-4.109,4.575,1.263,1.263,0,0,0,0,2.23,6.833,6.833,0,0,1,4.109,4.575l.37,1.505a1.188,1.188,0,0,0,.619.777,21.8,21.8,0,0,1-7.322,2.388,25.048,25.048,0,0,0,3.651-3.737.883.883,0,0,0-.147-1.245.894.894,0,0,0-1.251.146,22.988,22.988,0,0,1-4.4,4.257V94.618h3.286a.886.886,0,1,0,0-1.772H81.226V72.77C87.236,77.184,91,84.687,91.258,92.846h-2.47a.886.886,0,1,0,0,1.773Zm-9.344,20.09c-6.014-4.416-9.78-11.926-10.033-20.09H79.444Zm0-41.938V92.846H69.412C69.669,84.687,73.433,77.184,79.444,72.77ZM58.471,94.618h9.157a27.91,27.91,0,0,0,9.67,20.671A21.847,21.847,0,0,1,58.471,94.618Zm34,17.217.3-1.217a6.833,6.833,0,0,1,4.109-4.575,1.263,1.263,0,0,0,0-2.23,6.833,6.833,0,0,1-4.109-4.575l-.129-.523a30.231,30.231,0,0,0,.4-4.1H102.2A21.745,21.745,0,0,1,92.472,111.835Z" transform="translate(-50.385 -64.603)" fill="#fe5c58"/>
      <path id="Path_105552" data-name="Path 105552" d="M417.242,26.422a.833.833,0,0,0-.125-.068,6.39,6.39,0,0,1-3.829-4.287l-.345-1.41a1.116,1.116,0,0,0-2.168,0l-.345,1.41a6.39,6.39,0,0,1-3.829,4.287,1.2,1.2,0,0,0,0,2.09,6.39,6.39,0,0,1,3.829,4.287l.345,1.41a1.116,1.116,0,0,0,2.168,0l.345-1.41a6.39,6.39,0,0,1,3.829-4.287A1.192,1.192,0,0,0,417.242,26.422ZM411.859,31.7a7.76,7.76,0,0,0-3.646-4.3,7.76,7.76,0,0,0,3.646-4.3,7.76,7.76,0,0,0,3.645,4.3A7.761,7.761,0,0,0,411.859,31.7Z" transform="translate(-357.747 -19.806)" fill="#fe5c58"/>
      <path id="Path_105553" data-name="Path 105553" d="M402.288,407.446a.837.837,0,0,0-.125-.068A3.469,3.469,0,0,1,400.031,405l-.209-.854a1,1,0,0,0-.974-.765h0a1,1,0,0,0-.974.765l-.209.854a3.469,3.469,0,0,1-2.133,2.374,1.052,1.052,0,0,0,0,1.865,3.468,3.468,0,0,1,2.133,2.374l.209.854a1,1,0,0,0,1.949,0l.209-.854a3.469,3.469,0,0,1,2.133-2.374A1.057,1.057,0,0,0,402.288,407.446Zm-4.08-2.9h0Zm.639,5.539a5,5,0,0,0-1.593-1.774,5,5,0,0,0,1.593-1.774,5,5,0,0,0,1.593,1.774A5,5,0,0,0,398.847,410.083Z" transform="translate(-347.945 -357.876)" fill="#fe5c58"/>
      <path id="Path_105554" data-name="Path 105554" d="M7.323,123.13a1.058,1.058,0,0,0-.125-1.8,3.469,3.469,0,0,1-2.133-2.374l-.209-.854h0a1,1,0,0,0-1.949,0l-.209.854a3.469,3.469,0,0,1-2.133,2.374,1.052,1.052,0,0,0,0,1.865A3.468,3.468,0,0,1,2.7,125.572l.209.854a1,1,0,0,0,.974.765h0a1,1,0,0,0,.974-.765l.209-.854A3.468,3.468,0,0,1,7.2,123.2.838.838,0,0,0,7.323,123.13Zm-3.441.91a5,5,0,0,0-1.593-1.774,5,5,0,0,0,1.593-1.774,5,5,0,0,0,1.593,1.774A5,5,0,0,0,3.882,124.039Z" transform="translate(0.001 -105.769)" fill="#fe5c58"/>
    </g>
  </g>
</svg>
