<svg xmlns="http://www.w3.org/2000/svg" width="33" height="33" viewBox="0 0 33 33">
  <g id="Group_38021" data-name="Group 38021" transform="translate(0.5 0.5)">
    <g id="Group_38022" data-name="Group 38022" transform="translate(5.872 5.989)">
      <g id="Group_38021-2" data-name="Group 38021">
        <path id="Path_106010" data-name="Path 106010" d="M109.358,96H97.028a1.028,1.028,0,0,0,0,2.055h12.33a1.028,1.028,0,1,0,0-2.055Z" transform="translate(-96 -96)" stroke="#fff" stroke-width="1"/>
      </g>
    </g>
    <g id="Group_38024" data-name="Group 38024" transform="translate(5.925 9.982)">
      <g id="Group_38023" data-name="Group 38023">
        <path id="Path_106011" data-name="Path 106011" d="M105.248,160h-8.22a1.028,1.028,0,0,0,0,2.055h8.22a1.028,1.028,0,1,0,0-2.055Z" transform="translate(-96 -160)" stroke="#fff" stroke-width="1"/>
      </g>
    </g>
    <g id="Group_38026" data-name="Group 38026">
      <g id="Group_38025" data-name="Group 38025">
        <path id="Path_106012" data-name="Path 106012" d="M22.606,0H4.11A4.114,4.114,0,0,0,0,4.11V24.661a1.027,1.027,0,0,0,.592.931,1.042,1.042,0,0,0,.436.1,1.027,1.027,0,0,0,.658-.238l5.88-4.9H22.606a4.114,4.114,0,0,0,4.11-4.11V4.11A4.114,4.114,0,0,0,22.606,0Zm2.055,16.44A2.057,2.057,0,0,1,22.606,18.5H7.193a1.026,1.026,0,0,0-.658.238l-4.48,3.734V4.11A2.057,2.057,0,0,1,4.11,2.055h18.5A2.057,2.057,0,0,1,24.661,4.11Z" stroke="#fff" stroke-width="1"/>
      </g>
    </g>
    <g id="Group_38028" data-name="Group 38028" transform="translate(7.339 7.339)">
      <g id="Group_38027" data-name="Group 38027">
        <path id="Path_106013" data-name="Path 106013" d="M148.551,128a1.028,1.028,0,1,0,0,2.055,2.057,2.057,0,0,1,2.055,2.055v17.384l-3.469-2.774a1.035,1.035,0,0,0-.641-.224H132.11a2.057,2.057,0,0,1-2.055-2.055v-1.028a1.028,1.028,0,0,0-2.055,0v1.028a4.114,4.114,0,0,0,4.11,4.11h14.024l4.856,3.886a1.028,1.028,0,0,0,1.671-.8V132.11A4.114,4.114,0,0,0,148.551,128Z" transform="translate(-128 -128)" stroke="#fff" stroke-width="1"/>
      </g>
    </g>
  </g>
</svg>
