<svg xmlns="http://www.w3.org/2000/svg" width="32.439" height="32.296" viewBox="0 0 32.439 32.296">
  <g id="Group_37961" data-name="Group 37961" transform="translate(-1.85 -1.85)">
    <path id="Path_105821" data-name="Path 105821" d="M32.621,54.863a.541.541,0,0,1-.54-.54H31a1.619,1.619,0,0,0,1.081,1.522v.64h1.081v-.64a1.617,1.617,0,0,0-.54-3.142.54.54,0,1,1,.54-.54h1.081a1.619,1.619,0,0,0-1.081-1.522V50H32.081v.64a1.617,1.617,0,0,0,.54,3.142.54.54,0,0,1,0,1.081Z" transform="translate(-13.558 -22.488)" stroke="#fff" stroke-width="0.3"/>
    <path id="Path_105822" data-name="Path 105822" d="M25.621,34.863a.541.541,0,0,1-.54-.54H24a1.619,1.619,0,0,0,1.081,1.522v.64h1.081v-.64a1.617,1.617,0,0,0-.54-3.142.54.54,0,1,1,.54-.54h1.081a1.619,1.619,0,0,0-1.081-1.522V30H25.081v.64a1.617,1.617,0,0,0,.54,3.142.54.54,0,0,1,0,1.081Z" transform="translate(-10.285 -13.118)" stroke="#fff" stroke-width="0.3"/>
    <path id="Path_105823" data-name="Path 105823" d="M2,49.863v3.782a.54.54,0,0,0,.54.54h5.4a.54.54,0,0,0,.54-.54V49.863a1.619,1.619,0,0,0-1.393-1.6,2.139,2.139,0,0,0,.313-1.1,2.161,2.161,0,1,0-4.322,0,2.139,2.139,0,0,0,.313,1.1A1.619,1.619,0,0,0,2,49.863Zm3.242-3.782a1.081,1.081,0,1,1-1.081,1.081A1.082,1.082,0,0,1,5.242,46.081ZM3.081,49.863a.541.541,0,0,1,.54-.54H6.863a.541.541,0,0,1,.54.54V53.1H3.081Z" transform="translate(0 -20.189)" stroke="#fff" stroke-width="0.3"/>
    <path id="Path_105824" data-name="Path 105824" d="M46.8,5.835a4.322,4.322,0,1,0,4.322,4.322A4.328,4.328,0,0,0,46.8,5.835Zm0,7.564a3.242,3.242,0,1,1,3.242-3.242A3.245,3.245,0,0,1,46.8,13.4Z" transform="translate(-19.029 -1.763)" stroke="#fff" stroke-width="0.3"/>
    <path id="Path_105825" data-name="Path 105825" d="M50.34,11.08l-.835-.128-.378-.806a.54.54,0,0,0-.978,0l-.379.806-.835.128a.541.541,0,0,0-.305.912l.62.635-.147.9a.54.54,0,0,0,.795.56l.741-.41.74.41a.541.541,0,0,0,.795-.56l-.147-.9.62-.635a.541.541,0,0,0-.305-.912Zm-1.279.987a.54.54,0,0,0-.146.464l.012.075-.028-.015a.542.542,0,0,0-.523,0l-.028.015.012-.075a.539.539,0,0,0-.146-.464l-.076-.078.081-.012a.54.54,0,0,0,.407-.3l.012-.025.011.025a.538.538,0,0,0,.407.3l.081.012Z" transform="translate(-20.868 -3.602)" stroke="#fff" stroke-width="0.3"/>
    <path id="Path_105826" data-name="Path 105826" d="M45.175,2a6.227,6.227,0,0,0-5.22,9.62l4.768,7.335a.54.54,0,0,0,.906,0L50.4,11.62A6.227,6.227,0,0,0,45.175,2Zm4.314,9.031-4.314,6.638L40.86,11.031a5.146,5.146,0,1,1,8.629,0Z" transform="translate(-17.406)" stroke="#fff" stroke-width="0.3"/>
    <path id="Path_105827" data-name="Path 105827" d="M16,55h7.024v1.081H16Z" transform="translate(-6.562 -24.786)" stroke="#fff" stroke-width="0.3"/>
    <path id="Path_105828" data-name="Path 105828" d="M32,35h9.185v1.081H32Z" transform="translate(-14.086 -15.41)" stroke="#fff" stroke-width="0.3"/>
    <path id="Path_105829" data-name="Path 105829" d="M34.911,39.863H17.621a.541.541,0,0,1-.54-.54v-2.7a.541.541,0,0,1,.54-.54h1.621V35H17.621A1.623,1.623,0,0,0,16,36.621v2.7a1.623,1.623,0,0,0,1.621,1.621h17.29a.541.541,0,0,1,.54.54v3.782a.541.541,0,0,1-.54.54H28.427v1.081h6.484a1.623,1.623,0,0,0,1.621-1.621V41.484A1.623,1.623,0,0,0,34.911,39.863Z" transform="translate(-6.858 -15.592)" stroke="#fff" stroke-width="0.3"/>
  </g>
</svg>
