<svg xmlns="http://www.w3.org/2000/svg" xmlns:xlink="http://www.w3.org/1999/xlink" width="60" height="60" viewBox="0 0 60 60">
  <defs>
    <clipPath id="clip-path">
      <rect id="Rectangle_12571" data-name="Rectangle 12571" width="53.069" height="54"/>
    </clipPath>
  </defs>
  <g id="Group_37657" data-name="Group 37657" transform="translate(-423 -1990)">
    <g id="Rectangle_12523" data-name="Rectangle 12523" transform="translate(423 1990)" stroke="#707070" stroke-width="1" opacity="0">
      <rect width="60" height="60" stroke="none"/>
      <rect x="0.5" y="0.5" width="59" height="59" fill="none"/>
    </g>
    <g id="Group_37691" data-name="Group 37691" transform="translate(426 1993)">
      <g id="Group_37690" data-name="Group 37690" clip-path="url(#clip-path)">
        <path id="Path_105462" data-name="Path 105462" d="M3.6,45.034A3.656,3.656,0,0,1,0,41.086Q0,34.6,0,28.106A6.261,6.261,0,0,1,4,21.972c1.228-.551,2.461-1.092,3.69-1.641.428-.192.633-1.31.249-1.555a7.391,7.391,0,0,1-3.2-4.3C2.9,14.265,1.858,13.326,1.8,11.858c-.055-1.493.875-2.5,2.735-2.881A7.808,7.808,0,0,0,4.345,7.85c-.48-1.5-.971-2.988-1.5-4.467a1.437,1.437,0,0,1,.326-1.52A4.726,4.726,0,0,1,7.594.01c3.326.154,6.665.053,10,.034a1.646,1.646,0,0,1,1.335.564c.427.471.889.911,1.348,1.353a1.1,1.1,0,0,1,.3,1.271q-.788,2.279-1.528,4.575A10.089,10.089,0,0,0,18.815,9a2.659,2.659,0,0,1,2.3,1.278,3.585,3.585,0,0,1,.428,1.7c-.041,1.409-1.07,2.25-2.9,2.508a7.39,7.39,0,0,1-3.164,4.265.535.535,0,0,0-.188.359c-.1.989-.1.99.823,1.4,1.126.5,2.26.993,3.379,1.512a6.222,6.222,0,0,1,3.878,6.041c.013,4.326,0,8.653,0,12.979a3.663,3.663,0,0,1-3.6,3.991v.6q0,3.6,0,7.192c0,.874-.3,1.172-1.188,1.172q-6.91,0-13.82,0C3.9,54,3.6,53.694,3.6,52.809q0-3.568,0-7.136v-.639m8.095-22.141c-.681.685-1.294,1.314-1.92,1.931a.94.94,0,0,1-1.548,0c-.2-.2-.387-.407-.584-.607-.42-.425-.794-1.112-1.277-1.2-.508-.093-1.125.376-1.685.621a4.459,4.459,0,0,0-2.876,4.4Q1.8,33.519,1.8,39v.587H3.606V27.066h1.8V40.479H18V27.07h1.8v12.5h1.744a1.492,1.492,0,0,0,.031-.2c0-3.894.034-7.789-.015-11.683a4.251,4.251,0,0,0-2.463-3.87c-.545-.286-1.134-.487-1.683-.767a.51.51,0,0,0-.716.155c-.489.542-1,1.063-1.513,1.583a.949.949,0,0,1-1.587.018c-.623-.617-1.235-1.246-1.9-1.921m.914,22.141v7.12h5.345V42.342H5.433v9.815H10.8V45.033ZM6.342,11.749a5.5,5.5,0,0,0,2.795,5.637,5.374,5.374,0,0,0,5.947-.56,5.3,5.3,0,0,0,1.894-5.034,5.092,5.092,0,0,1-3.245.854q-2.019-.048-4.04,0a5.139,5.139,0,0,1-3.35-.9M4.886,3.622H18.559a1.765,1.765,0,0,0,.122-.652,2.483,2.483,0,0,0-1.6-1.119c-3.424,0-6.848.025-10.272-.019a2.154,2.154,0,0,0-1.8.749c-.32.354-.412.627-.122,1.041M5.45,5.464c.179.534.306,1,.5,1.442a.637.637,0,0,0,.462.326q5.277.028,10.554.007c.143,0,.373-.074.412-.172.2-.511.355-1.041.537-1.6ZM16.831,9.072H6.54a2.445,2.445,0,0,0,2.292,1.755q2.859.051,5.72,0a2.422,2.422,0,0,0,2.278-1.754m-15,32.363a1.7,1.7,0,0,0,1.733,1.725V41.41c-.454,0-.878,0-1.3,0-.145,0-.29.016-.431.024M19.8,43.192a1.739,1.739,0,0,0,1.747-1.738H19.8ZM9.878,19.733c.045.108.065.32.176.393a3.517,3.517,0,0,0,3.286-.008c.106-.079.11-.294.14-.385ZM4.454,12.621V10.84c-.552.11-.856.4-.842.919a.834.834,0,0,0,.842.862m14.44,0c.631-.145.912-.461.879-.937a.8.8,0,0,0-.879-.769ZM9.886,22.066c-.626-.457-1-.442-1.68.078l.8.832.876-.91m5.348.1a1.346,1.346,0,0,0-1.783-.122l.908.859.875-.737" transform="translate(0 0.001)"/>
        <path id="Path_105463" data-name="Path 105463" d="M147.393,172.277a3.722,3.722,0,0,1,1.283-3.675,3.556,3.556,0,0,1,5.591,1.445c.106.259.171.442.524.441q7.64-.021,15.279-.012a1.821,1.821,0,0,0,.226-.036c-.208-.57-.406-1.128-.613-1.682-.393-1.051-.815-2.091-1.175-3.153a.657.657,0,0,0-.751-.531q-9.83.023-19.661.011h-.708V163.3h20.378l-.446-1.81H147.383v-1.783h4.459c0-.836,0-1.633,0-2.43,0-.883.3-1.18,1.177-1.181q4.213,0,8.426,0c.883,0,1.179.3,1.183,1.176,0,.783,0,1.567,0,2.42h2.545c.637,0,1.273,0,1.91,0a1.9,1.9,0,0,1,2.055,1.6c.547,1.843,1.142,3.672,1.721,5.505.05.157.13.3.214.5a2.509,2.509,0,0,1,2.367-.212,3.736,3.736,0,0,1,1.349,1.116c.814,1.18.5,2.438-.692,3.59.078.714.2,1.354.208,2,.02,3.6.01,7.191.009,10.787a1.85,1.85,0,0,1-2.108,2.1c-1.049,0-2.1.006-3.146,0a1.813,1.813,0,0,1-1.937-1.929c-.005-.538,0-1.076,0-1.639H147.348c0,.535,0,1.069,0,1.6a1.815,1.815,0,0,1-1.958,1.965c-.521,0-1.043,0-1.637,0v-1.781h1.756v-1.807H143.78v-1.806h27.386c1.109,0,1.352-.242,1.352-1.346q0-3.2,0-6.4c0-.958-.279-1.239-1.233-1.239H147.393Zm6.28-12.623h7.116v-1.735h-7.116Zm18.826,23.4h-3.534v1.769H172.5Zm-.21-14.36c-.1.111-.446.317-.47.554-.053.534.437,1.23.728,1.228a.911.911,0,0,0,.865-.919c-.014-.486-.43-.883-1.123-.864m-22.774,1.734h2.913a1.677,1.677,0,0,0-2.913,0" transform="translate(-122.176 -132.664)"/>
        <path id="Path_105464" data-name="Path 105464" d="M290.2,281.312a2.694,2.694,0,1,1,2.7-2.655,2.707,2.707,0,0,1-2.7,2.655m.9-2.712a.895.895,0,1,0-.864.912.906.906,0,0,0,.864-.912" transform="translate(-244.359 -234.509)"/>
        <rect id="Rectangle_12569" data-name="Rectangle 12569" width="8.918" height="1.728" transform="translate(30.59 41.441)"/>
        <rect id="Rectangle_12570" data-name="Rectangle 12570" width="8.918" height="1.729" transform="translate(30.591 45.037)"/>
        <path id="Path_105465" data-name="Path 105465" d="M146.515,280.217l1.456-.852c.362.325.78.626,1.238.285.233-.174.5-.587.439-.807a3.583,3.583,0,0,0-.7-1.007l-.136.09v-1.672a2.555,2.555,0,0,1,2.611,2.07,2.7,2.7,0,0,1-1.716,3.1,2.6,2.6,0,0,1-3.2-1.209" transform="translate(-124.524 -234.783)"/>
      </g>
    </g>
  </g>
</svg>
