<svg width="32" height="32" viewBox="0 0 32 32" fill="none" xmlns="http://www.w3.org/2000/svg">
<path d="M14 19.0002H15V20.0002H14V19.0002Z" fill="black"/>
<path d="M17 19.0002H18V20.0002H17V19.0002Z" fill="black"/>
<path d="M14 22.0002H15V23.0002H14V22.0002Z" fill="black"/>
<path d="M17 22.0002H18V23.0002H17V22.0002Z" fill="black"/>
<path d="M21 21.0002H22V22.0002H21V21.0002Z" fill="black"/>
<path d="M23 21.0002H24V22.0002H23V21.0002Z" fill="black"/>
<path d="M21 24.0002H22V25.0002H21V24.0002Z" fill="black"/>
<path d="M23 24.0002H24V25.0002H23V24.0002Z" fill="black"/>
<path d="M8 21.0002H9V22.0002H8V21.0002Z" fill="black"/>
<path d="M10 21.0002H11V22.0002H10V21.0002Z" fill="black"/>
<path d="M8 24.0002H9V25.0002H8V24.0002Z" fill="black"/>
<path d="M10 24.0002H11V25.0002H10V24.0002Z" fill="black"/>
<path d="M29.5 28.1778C30.4862 26.9716 31.0141 25.4555 30.9904 23.8977C30.9667 22.3398 30.3929 20.8405 29.3705 19.6648C29.3225 19.615 29.265 19.5754 29.2013 19.5483C29.1376 19.5213 29.0692 19.5073 29 19.5073C28.9308 19.5073 28.8624 19.5213 28.7987 19.5483C28.735 19.5754 28.6775 19.615 28.6295 19.6648C27.6071 20.8405 27.0333 22.3398 27.0096 23.8977C26.9859 25.4555 27.5138 26.9716 28.5 28.1778V30.0003H26V19.5003C26 19.3677 25.9473 19.2406 25.8536 19.1468C25.7598 19.053 25.6326 19.0003 25.5 19.0003H24.5V13.6938L25.5 14.0273V15.0003C25.5 15.1119 25.5374 15.2202 25.606 15.3081C25.6747 15.396 25.7708 15.4583 25.879 15.4853L29.879 16.4853C29.9769 16.5098 30.0799 16.504 30.1744 16.4688C30.269 16.4336 30.3507 16.3706 30.4088 16.2881C30.4669 16.2056 30.4986 16.1075 30.4999 16.0066C30.5012 15.9057 30.472 15.8068 30.416 15.7228L29.73 14.6943L30.2235 14.4478C30.315 14.4022 30.3902 14.3296 30.4391 14.2398C30.4881 14.1501 30.5083 14.0475 30.4971 13.9459C30.486 13.8443 30.4439 13.7485 30.3767 13.6715C30.3094 13.5946 30.2202 13.5401 30.121 13.5153L27.5 12.8598V12.0003C27.4999 11.8954 27.4669 11.7932 27.4055 11.7082C27.3441 11.6231 27.2575 11.5595 27.158 11.5263L24.158 10.5263C24.083 10.5009 24.003 10.4937 23.9247 10.5056C23.8464 10.5174 23.7721 10.5478 23.708 10.5943C23.6436 10.6407 23.5912 10.7016 23.555 10.7722C23.5188 10.8428 23.5 10.921 23.5 11.0003V19.0003H20V17.5003C19.9999 17.3978 19.9683 17.2978 19.9095 17.2138L16.4095 12.2138C16.3611 12.1513 16.299 12.1008 16.228 12.066C16.1571 12.0312 16.0791 12.0131 16 12.0131C15.9209 12.0131 15.8429 12.0312 15.772 12.066C15.701 12.1008 15.6389 12.1513 15.5905 12.2138L12.0905 17.2138C12.0317 17.2978 12.0001 17.3978 12 17.5003V19.0003H8.5V11.0003C8.50008 10.9211 8.4813 10.8429 8.44522 10.7723C8.40914 10.7017 8.3568 10.6407 8.2925 10.5943C8.22838 10.5479 8.15406 10.5174 8.07577 10.5056C7.99747 10.4938 7.91748 10.5009 7.8425 10.5263L4.8425 11.5263C4.74288 11.5594 4.6562 11.623 4.59473 11.708C4.53326 11.7931 4.50011 11.8954 4.5 12.0003V12.8598L1.879 13.5153C1.77904 13.5395 1.68897 13.5939 1.62105 13.6711C1.55313 13.7483 1.51068 13.8446 1.49947 13.9469C1.48827 14.0491 1.50885 14.1523 1.55843 14.2424C1.608 14.3325 1.68415 14.4051 1.7765 14.4503L2.27 14.6968L1.584 15.7228C1.52803 15.8068 1.49877 15.9057 1.50006 16.0066C1.50135 16.1075 1.53313 16.2056 1.59123 16.2881C1.64932 16.3706 1.73101 16.4336 1.82556 16.4688C1.92011 16.504 2.0231 16.5098 2.121 16.4853L6.121 15.4853C6.22922 15.4583 6.3253 15.396 6.39398 15.3081C6.46265 15.2202 6.49997 15.1119 6.5 15.0003V14.0273L7.5 13.6938V19.0003H6.5C6.36739 19.0003 6.24021 19.053 6.14645 19.1468C6.05268 19.2406 6 19.3677 6 19.5003V30.0003H3.5V28.1778C4.48617 26.9716 5.01408 25.4555 4.99038 23.8977C4.96668 22.3398 4.39291 20.8405 3.3705 19.6648C3.3225 19.615 3.26496 19.5754 3.2013 19.5483C3.13764 19.5213 3.06917 19.5073 3 19.5073C2.93083 19.5073 2.86236 19.5213 2.7987 19.5483C2.73504 19.5754 2.6775 19.615 2.6295 19.6648C1.60709 20.8405 1.03332 22.3398 1.00962 23.8977C0.985922 25.4555 1.51383 26.9716 2.5 28.1778V30.0003H1V31.0003H31V30.0003H29.5V28.1778ZM24.5 11.6943L26.5 12.3608V13.2503C26.5 13.3619 26.5374 13.4702 26.606 13.5581C26.6747 13.646 26.7708 13.7083 26.879 13.7353L28.6235 14.1718C28.5728 14.2293 28.5362 14.2978 28.5165 14.3718C28.4983 14.4404 28.4949 14.5121 28.5065 14.5821C28.5182 14.6521 28.5446 14.7188 28.584 14.7778L28.8665 15.2013L26.5 14.6098V13.6668C26.4999 13.5619 26.4669 13.4597 26.4055 13.3747C26.3441 13.2896 26.2575 13.226 26.158 13.1928L24.5 12.6398V11.6943ZM2.5 26.3278C2.09914 25.4411 1.93451 24.4657 2.02213 23.4965C2.10974 22.5274 2.44661 21.5973 3 20.7968C3.55339 21.5973 3.89026 22.5274 3.97787 23.4965C4.06549 24.4657 3.90086 25.4411 3.5 26.3278V23.5003H2.5V26.3278ZM5.842 13.1928C5.74248 13.226 5.6559 13.2896 5.59452 13.3747C5.53315 13.4597 5.50008 13.5619 5.5 13.6668V14.6098L3.1335 15.2003L3.416 14.7768C3.45542 14.7178 3.48182 14.6511 3.49346 14.5811C3.5051 14.5111 3.5017 14.4394 3.4835 14.3708C3.46381 14.2968 3.42718 14.2283 3.3765 14.1708L5.121 13.7343C5.22905 13.7074 5.32501 13.6451 5.39367 13.5575C5.46232 13.4698 5.49975 13.3617 5.5 13.2503V12.3608L7.5 11.6943V12.6398L5.842 13.1928ZM12 30.0003H7V20.0003H12V30.0003ZM17 30.0003H15V27.0003H17V30.0003ZM19 19.5003V30.0003H18V26.5003C18 26.3677 17.9473 26.2406 17.8536 26.1468C17.7598 26.053 17.6326 26.0003 17.5 26.0003H14.5C14.3674 26.0003 14.2402 26.053 14.1464 26.1468C14.0527 26.2406 14 26.3677 14 26.5003V30.0003H13V17.6578L16 13.3723L19 17.6578V19.5003ZM25 30.0003H20V20.0003H25V30.0003ZM28.5 26.3278C28.0991 25.4411 27.9345 24.4657 28.0221 23.4965C28.1097 22.5274 28.4466 21.5973 29 20.7968C29.5534 21.5973 29.8903 22.5274 29.9779 23.4965C30.0655 24.4657 29.9009 25.4411 29.5 26.3278V23.5003H28.5V26.3278Z" fill="black"/>
<path d="M25.0001 7.00029V4.51929L25.1341 4.48229C25.2396 4.45319 25.3326 4.39028 25.3989 4.30321C25.4652 4.21615 25.5011 4.10973 25.5011 4.00029C25.5011 3.89085 25.4652 3.78444 25.3989 3.69737C25.3326 3.6103 25.2396 3.54739 25.1341 3.51829L16.1341 1.01829C16.0464 0.993903 15.9537 0.993903 15.8661 1.01829L6.86607 3.51829C6.76057 3.54739 6.66754 3.6103 6.60123 3.69737C6.53493 3.78444 6.49902 3.89085 6.49902 4.00029C6.49902 4.10973 6.53493 4.21615 6.60123 4.30321C6.66754 4.39028 6.76057 4.45319 6.86607 4.48229L10.0001 5.35279V6.50029C10.0013 7.42818 10.3704 8.31773 11.0265 8.97385C11.6826 9.62997 12.5722 9.9991 13.5001 10.0003H18.5001C19.428 9.9991 20.3175 9.62997 20.9736 8.97385C21.6298 8.31773 21.9989 7.42818 22.0001 6.50029V5.35279L24.0001 4.79729V7.00029H25.0001ZM21.0001 6.50029C20.9993 7.16309 20.7356 7.79851 20.267 8.26718C19.7983 8.73585 19.1629 8.9995 18.5001 9.00029H13.5001C12.8373 8.9995 12.2019 8.73585 11.7332 8.26718C11.2645 7.79851 11.0009 7.16309 11.0001 6.50029V5.63029L15.8661 6.98029C15.9538 7.00428 16.0464 7.00428 16.1341 6.98029L21.0001 5.63029V6.50029ZM16.0001 5.98129L8.86807 4.00029L16.0001 2.01929L23.1321 4.00029L16.0001 5.98129Z" fill="black"/>
</svg>
