<svg width="32" height="32" viewBox="0 0 32 32" fill="none" xmlns="http://www.w3.org/2000/svg">
<path d="M29 27.0002C28.5577 27.0016 28.1284 27.1496 27.7792 27.421C27.43 27.6924 27.1806 28.0719 27.07 28.5002H25.5C25.3674 28.5002 25.2402 28.4475 25.1465 28.3537C25.0527 28.26 25 28.1328 25 28.0002V24.5002H26.07C26.1917 24.9715 26.4811 25.3823 26.884 25.6555C27.2869 25.9287 27.7756 26.0456 28.2585 25.9842C28.7414 25.9229 29.1854 25.6876 29.5072 25.3223C29.829 24.957 30.0065 24.487 30.0065 24.0002C30.0065 23.5134 29.829 23.0433 29.5072 22.6781C29.1854 22.3128 28.7414 22.0775 28.2585 22.0161C27.7756 21.9548 27.2869 22.0717 26.884 22.3449C26.4811 22.6181 26.1917 23.0289 26.07 23.5002H25V16.0002H26.5C27.6935 16.0002 28.8381 15.5261 29.682 14.6822C30.5259 13.8382 31 12.6937 31 11.5002C31 10.3067 30.5259 9.16212 29.682 8.3182C28.8381 7.47429 27.6935 7.00018 26.5 7.00018H25.47C25.3845 6.21966 25.0958 5.47522 24.6327 4.84118C24.1695 4.20714 23.5482 3.70569 22.8306 3.38689C22.1131 3.06809 21.3244 2.9431 20.5435 3.0244C19.7625 3.10569 19.0165 3.39043 18.38 3.85018C17.4939 2.72753 16.3048 1.88204 14.9535 1.41362C13.6021 0.945207 12.1449 0.873452 10.754 1.20684C9.36314 1.54022 8.0968 2.26481 7.10463 3.29497C6.11246 4.32512 5.43594 5.61779 5.15502 7.02018C3.99515 7.10857 2.91466 7.64301 2.14052 8.51124C1.36638 9.37947 0.958836 10.5139 1.00349 11.6763C1.04815 12.8387 1.54153 13.9385 2.38001 14.7448C3.21848 15.5511 4.33679 16.001 5.50002 16.0002H7.00002V22.5002H5.93002C5.80833 22.0289 5.51891 21.6181 5.11602 21.3449C4.71313 21.0717 4.22443 20.9548 3.74152 21.0161C3.25861 21.0775 2.81466 21.3128 2.49286 21.6781C2.17107 22.0433 1.99353 22.5134 1.99353 23.0002C1.99353 23.487 2.17107 23.957 2.49286 24.3223C2.81466 24.6876 3.25861 24.9229 3.74152 24.9842C4.22443 25.0456 4.71313 24.9287 5.11602 24.6555C5.51891 24.3823 5.80833 23.9715 5.93002 23.5002H7.00002V28.0002C7.00002 28.1328 6.94734 28.26 6.85358 28.3537C6.75981 28.4475 6.63263 28.5002 6.50002 28.5002H4.93002C4.80833 28.0289 4.51891 27.6181 4.11602 27.3449C3.71313 27.0717 3.22443 26.9548 2.74152 27.0161C2.25861 27.0775 1.81466 27.3128 1.49286 27.6781C1.17107 28.0433 0.99353 28.5134 0.99353 29.0002C0.99353 29.487 1.17107 29.957 1.49286 30.3223C1.81466 30.6876 2.25861 30.9229 2.74152 30.9842C3.22443 31.0456 3.71313 30.9287 4.11602 30.6555C4.51891 30.3823 4.80833 29.9715 4.93002 29.5002H6.50002C6.89748 29.499 7.27832 29.3406 7.55937 29.0595C7.84042 28.7785 7.99883 28.3976 8.00002 28.0002V23.5002H12C12.3975 23.499 12.7783 23.3406 13.0594 23.0595C13.3404 22.7785 13.4988 22.3976 13.5 22.0002V16.0002H15.5V27.0702C15.0287 27.1919 14.6179 27.4813 14.3447 27.8842C14.0715 28.2871 13.9546 28.7758 14.016 29.2587C14.0773 29.7416 14.3127 30.1855 14.6779 30.5073C15.0432 30.8291 15.5132 31.0067 16 31.0067C16.4868 31.0067 16.9569 30.8291 17.3221 30.5073C17.6874 30.1855 17.9227 29.7416 17.9841 29.2587C18.0454 28.7758 17.9285 28.2871 17.6553 27.8842C17.3821 27.4813 16.9714 27.1919 16.5 27.0702V16.0002H18.5V23.0002C18.5012 23.3976 18.6596 23.7785 18.9407 24.0595C19.2217 24.3406 19.6026 24.499 20 24.5002H24V28.0002C24.0012 28.3976 24.1596 28.7785 24.4407 29.0595C24.7217 29.3406 25.1026 29.499 25.5 29.5002H27.07C27.1641 29.8616 27.3576 30.1894 27.6286 30.4463C27.8996 30.7033 28.2372 30.8791 28.6031 30.9538C28.969 31.0285 29.3486 30.9991 29.6986 30.869C30.0486 30.7388 30.3552 30.5131 30.5834 30.2175C30.8116 29.9219 30.9523 29.5682 30.9897 29.1966C31.027 28.8251 30.9593 28.4505 30.7944 28.1154C30.6295 27.7803 30.374 27.4982 30.0568 27.3011C29.7396 27.1039 29.3735 26.9997 29 27.0002V27.0002ZM28 23.0002C28.1978 23.0002 28.3911 23.0588 28.5556 23.1687C28.72 23.2786 28.8482 23.4348 28.9239 23.6175C28.9996 23.8002 29.0194 24.0013 28.9808 24.1953C28.9422 24.3893 28.847 24.5674 28.7071 24.7073C28.5673 24.8471 28.3891 24.9424 28.1951 24.981C28.0011 25.0196 27.8001 24.9997 27.6173 24.9241C27.4346 24.8484 27.2784 24.7202 27.1686 24.5558C27.0587 24.3913 27 24.198 27 24.0002C27.0008 23.7352 27.1064 23.4813 27.2938 23.2939C27.4812 23.1066 27.735 23.001 28 23.0002V23.0002ZM4.00002 24.0002C3.80224 24.0002 3.6089 23.9415 3.44445 23.8317C3.28 23.7218 3.15183 23.5656 3.07614 23.3829C3.00045 23.2001 2.98065 22.9991 3.01924 22.8051C3.05782 22.6111 3.15306 22.4329 3.29292 22.2931C3.43277 22.1532 3.61095 22.058 3.80493 22.0194C3.99891 21.9808 4.19998 22.0006 4.38271 22.0763C4.56543 22.152 4.72161 22.2802 4.83149 22.4446C4.94137 22.6091 5.00002 22.8024 5.00002 23.0002C4.99923 23.2652 4.89362 23.519 4.70625 23.7064C4.51889 23.8938 4.265 23.9994 4.00002 24.0002ZM3.00002 30.0002C2.80224 30.0002 2.6089 29.9415 2.44445 29.8317C2.28 29.7218 2.15183 29.5656 2.07614 29.3829C2.00045 29.2001 1.98065 28.9991 2.01924 28.8051C2.05782 28.6111 2.15306 28.4329 2.29292 28.2931C2.43277 28.1532 2.61095 28.058 2.80493 28.0194C2.99891 27.9808 3.19998 28.0006 3.38271 28.0763C3.56543 28.152 3.72161 28.2802 3.83149 28.4446C3.94137 28.6091 4.00002 28.8024 4.00002 29.0002C3.99923 29.2652 3.89362 29.519 3.70625 29.7064C3.51889 29.8938 3.265 29.9994 3.00002 30.0002ZM12.5 22.0002C12.5 22.1328 12.4473 22.26 12.3536 22.3537C12.2598 22.4475 12.1326 22.5002 12 22.5002H8.00002V16.0002H12.5V22.0002ZM17 29.0002C17 29.198 16.9414 29.3913 16.8315 29.5558C16.7216 29.7202 16.5654 29.8484 16.3827 29.9241C16.2 29.9997 15.9989 30.0196 15.8049 29.981C15.611 29.9424 15.4328 29.8471 15.2929 29.7073C15.1531 29.5674 15.0578 29.3893 15.0192 29.1953C14.9807 29.0013 15.0005 28.8002 15.0761 28.6175C15.1518 28.4348 15.28 28.2786 15.4445 28.1687C15.6089 28.0588 15.8022 28.0002 16 28.0002C16.265 28.001 16.5189 28.1066 16.7063 28.2939C16.8936 28.4813 16.9992 28.7352 17 29.0002ZM24 23.5002H20C19.8674 23.5002 19.7402 23.4475 19.6465 23.3537C19.5527 23.26 19.5 23.1328 19.5 23.0002V16.0002H24V23.5002ZM5.50002 15.0002C4.57176 15.0002 3.68153 14.6314 3.02515 13.9751C2.36877 13.3187 2.00002 12.4284 2.00002 11.5002C2.00002 10.5719 2.36877 9.68169 3.02515 9.02531C3.68153 8.36893 4.57176 8.00018 5.50002 8.00018H5.56002C6.17433 8.01206 6.77475 8.18503 7.30122 8.5018C7.8277 8.81856 8.26177 9.26801 8.56002 9.80518L9.44002 9.32018C9.10253 8.71781 8.63217 8.20029 8.06468 7.80695C7.4972 7.41361 6.84752 7.1548 6.16502 7.05018C6.51217 5.53159 7.39314 4.18817 8.64754 3.26453C9.90194 2.34089 11.4463 1.89845 12.9995 2.01779C14.5527 2.13713 16.0114 2.81029 17.11 3.91472C18.2085 5.01915 18.8739 6.48138 18.985 8.03518L19.98 7.96518C19.897 6.80268 19.5425 5.67585 18.945 4.67518C19.589 4.20909 20.3724 3.97609 21.1664 4.01452C21.9604 4.05294 22.7176 4.3605 23.3135 4.88659C23.9095 5.41268 24.3086 6.12596 24.4451 6.90906C24.5817 7.69215 24.4477 8.49842 24.065 9.19518L24.935 9.68018C25.2223 9.16091 25.4041 8.58997 25.47 8.00018H26.5C27.4283 8.00018 28.3185 8.36893 28.9749 9.02531C29.6313 9.68169 30 10.5719 30 11.5002C30 12.4284 29.6313 13.3187 28.9749 13.9751C28.3185 14.6314 27.4283 15.0002 26.5 15.0002H5.50002ZM29 30.0002C28.8022 30.0002 28.6089 29.9415 28.4445 29.8317C28.28 29.7218 28.1518 29.5656 28.0761 29.3829C28.0005 29.2001 27.9807 28.9991 28.0192 28.8051C28.0578 28.6111 28.1531 28.4329 28.2929 28.2931C28.4328 28.1532 28.611 28.058 28.8049 28.0194C28.9989 27.9808 29.2 28.0006 29.3827 28.0763C29.5654 28.152 29.7216 28.2802 29.8315 28.4446C29.9414 28.6091 30 28.8024 30 29.0002C29.9992 29.2652 29.8936 29.519 29.7063 29.7064C29.5189 29.8938 29.265 29.9994 29 30.0002V30.0002Z" fill="black"/>
<path d="M4 11.5C4 11.1022 4.15804 10.7206 4.43934 10.4393C4.72064 10.158 5.10218 10 5.5 10V9C4.83696 9 4.20107 9.26339 3.73223 9.73223C3.26339 10.2011 3 10.837 3 11.5C3 12.163 3.26339 12.7989 3.73223 13.2678C4.20107 13.7366 4.83696 14 5.5 14H8.5V13H5.5C5.10218 13 4.72064 12.842 4.43934 12.5607C4.15804 12.2794 4 11.8978 4 11.5Z" fill="black"/>
<path d="M12.995 9.44501C12.9827 9.32253 12.9251 9.20905 12.8336 9.12676C12.742 9.04446 12.6231 8.99927 12.5 9.00001H10.5C10.3769 8.99927 10.258 9.04446 10.1664 9.12676C10.0749 9.20905 10.0173 9.32253 10.005 9.44501L9.505 13.945L10.495 14.055L10.67 12.5H12.33L12.505 14.055L13.495 13.945L12.995 9.44501ZM10.78 11.5L10.95 10H12.05L12.22 11.5H10.78Z" fill="black"/>
<path d="M18 9H15C14.8674 9 14.7402 9.05268 14.6464 9.14645C14.5527 9.24021 14.5 9.36739 14.5 9.5V14H15.5V12H18C18.1326 12 18.2598 11.9473 18.3536 11.8536C18.4473 11.7598 18.5 11.6326 18.5 11.5V9.5C18.5 9.36739 18.4473 9.24021 18.3536 9.14645C18.2598 9.05268 18.1326 9 18 9ZM17.5 11H15.5V10H17.5V11Z" fill="black"/>
<path d="M21.5 10V13H22.5V14H19.5V13H20.5V10H19.5V9H22.5V10H21.5Z" fill="black"/>
</svg>
