<svg xmlns="http://www.w3.org/2000/svg" width="60" height="53.787" viewBox="0 0 60 53.787">
  <g id="Group_37979" data-name="Group 37979" transform="translate(-1 -24.509)">
    <g id="Group_37979-2" data-name="Group 37979" transform="translate(1 24.509)">
      <path id="Path_105829" data-name="Path 105829" d="M56.342,26.509H45.036a.879.879,0,1,0,0,1.758H56.342a1.9,1.9,0,0,1,1.9,1.9v33.4H1.758v-33.4a1.9,1.9,0,0,1,1.9-1.9H40.934a.879.879,0,0,0,0-1.758H3.658A3.662,3.662,0,0,0,0,30.167V66.35a3.662,3.662,0,0,0,3.658,3.658h8.414a.879.879,0,0,0,0-1.758H3.658a1.9,1.9,0,0,1-1.9-1.9V65.32H58.242v1.03a1.9,1.9,0,0,1-1.9,1.9H16.135a.879.879,0,0,0,0,1.758h5.532L20.8,75.023H19.2a2.637,2.637,0,1,0,0,5.273h21.61a2.637,2.637,0,0,0,0-5.273H39.2l-.868-5.015H56.342A3.662,3.662,0,0,0,60,66.35V30.167a3.662,3.662,0,0,0-3.658-3.658ZM37.417,75.023H35.025a.879.879,0,1,0,0,1.758h5.781a.879.879,0,0,1,0,1.758H19.2a.879.879,0,0,1,0-1.758H30.922a.879.879,0,1,0,0-1.758H22.583l.868-5.015h13.1Z" transform="translate(0 -26.509)" fill="#fe5c58"/>
      <path id="Path_105830" data-name="Path 105830" d="M287.311,216.277a.915.915,0,0,0-.815.5l-4.317,8.486-3.643-7.161a.915.915,0,0,0-1.631,0l-1.975,3.882h-3.153a.915.915,0,0,0,0,1.83h3.714a.915.915,0,0,0,.815-.5l1.414-2.779,3.643,7.161a.915.915,0,0,0,1.631,0l4.317-8.486,2.088,4.1a.915.915,0,0,0,.815.5h3.714a.915.915,0,1,0,0-1.83h-3.153l-2.649-5.207A.915.915,0,0,0,287.311,216.277Z" transform="translate(-240.275 -194.285)" fill="#fe5c58"/>
      <path id="Path_105831" data-name="Path 105831" d="M271.778,111.566h4.747a.915.915,0,0,0,.915-.915V101.02a.915.915,0,0,0-.915-.915h-4.747a.915.915,0,0,0-.915.915v9.631A.915.915,0,0,0,271.778,111.566Zm.915-9.631h2.918v7.8h-2.918Z" transform="translate(-239.274 -91.571)" fill="#fe5c58"/>
      <path id="Path_105832" data-name="Path 105832" d="M348.134,121.56h-4.747a.915.915,0,0,0-.915.915v7.014a.915.915,0,0,0,.915.915h4.747a.915.915,0,0,0,.915-.915v-7.014A.915.915,0,0,0,348.134,121.56Zm-.915,7.014H344.3V123.39h2.918Z" transform="translate(-302.532 -110.507)" fill="#fe5c58"/>
      <path id="Path_105833" data-name="Path 105833" d="M419.214,94.186a.915.915,0,0,0,.915-.915V81.225a.915.915,0,0,0-.915-.915h-4.747a.915.915,0,0,0-.915.915V93.271a.915.915,0,0,0,.915.915ZM415.382,82.14H418.3V92.356h-2.918Z" transform="translate(-365.561 -73.747)" fill="#fe5c58"/>
      <path id="Path_105834" data-name="Path 105834" d="M66.05,165.152H45.313a.915.915,0,1,0,0,1.83H66.05a.915.915,0,1,0,0-1.83Z" transform="translate(-38.982 -148.927)" fill="#fe5c58"/>
      <path id="Path_105835" data-name="Path 105835" d="M45.313,206.823h3.711a.915.915,0,1,0,0-1.83H45.313a.915.915,0,1,0,0,1.83Z" transform="translate(-38.982 -184.106)" fill="#fe5c58"/>
      <path id="Path_105836" data-name="Path 105836" d="M122.934,204.993H110.1a.915.915,0,1,0,0,1.83h12.834a.915.915,0,1,0,0-1.83Z" transform="translate(-96.551 -184.106)" fill="#fe5c58"/>
      <path id="Path_105837" data-name="Path 105837" d="M66.05,80.31H45.313a.915.915,0,1,0,0,1.83H66.05a.915.915,0,0,0,0-1.83Z" transform="translate(-38.982 -73.747)" fill="#fe5c58"/>
      <path id="Path_105838" data-name="Path 105838" d="M45.313,121.982h12.86a.915.915,0,0,0,0-1.83H45.313a.915.915,0,1,0,0,1.83Z" transform="translate(-38.982 -109.193)" fill="#fe5c58"/>
      <path id="Path_105839" data-name="Path 105839" d="M188.785,120.152H185.1a.915.915,0,1,0,0,1.83h3.686a.915.915,0,0,0,0-1.83Z" transform="translate(-162.686 -109.193)" fill="#fe5c58"/>
      <path id="Path_105840" data-name="Path 105840" d="M66.965,245.266a.915.915,0,0,0-.915-.915H45.313a.915.915,0,1,0,0,1.83H66.05A.915.915,0,0,0,66.965,245.266Z" transform="translate(-38.982 -218.858)" fill="#fe5c58"/>
      <path id="Path_105841" data-name="Path 105841" d="M45.313,283.981a.915.915,0,1,0,0,1.83h9.759a.915.915,0,1,0,0-1.83Z" transform="translate(-38.982 -253.85)" fill="#fe5c58"/>
    </g>
  </g>
</svg>
