<svg xmlns="http://www.w3.org/2000/svg" width="60" height="60" viewBox="0 0 60 60">
  <g id="Group_37921" data-name="Group 37921" transform="translate(-206.918 -39.918)">
    <g id="Group_37920" data-name="Group 37920" transform="translate(206.918 39.918)">
      <g id="Group_37915" data-name="Group 37915" transform="translate(0.128)">
        <g id="Group_37906" data-name="Group 37906" transform="translate(0 0.5)">
          <g id="XMLID_228_">
            <g id="XMLID_3_">
              <g id="Group_37866" data-name="Group 37866">
                <path id="Path_105698" data-name="Path 105698" d="M1.639,55.159A.641.641,0,0,1,1,54.519V10.17A6.29,6.29,0,0,1,7.284,3.889H31.008a.641.641,0,1,1,0,1.282H7.284a5.007,5.007,0,0,0-5,5V54.519a.641.641,0,0,1-.641.641Z" transform="translate(-0.998 -3.889)" fill="#fe5c58"/>
              </g>
            </g>
            <g id="Group_37867" data-name="Group 37867" transform="translate(4.361 4.372)">
              <path id="Path_105699" data-name="Path 105699" d="M75.222,57.96a.641.641,0,0,0,.641-.641V51.005a.641.641,0,0,0-.195-.46L62.816,38.079a.641.641,0,0,0-.447-.181H38.132A3.21,3.21,0,0,0,34.925,41.1V89.821a3.21,3.21,0,0,0,3.207,3.205H72.656a3.21,3.21,0,0,0,3.207-3.205V87.834a.641.641,0,0,0-1.283,0v1.987a1.926,1.926,0,0,1-1.924,1.923H38.132a1.926,1.926,0,0,1-1.924-1.923V41.1a1.926,1.926,0,0,1,1.924-1.923H61.553V49.709a1.926,1.926,0,0,0,1.924,1.923h11.1v5.687a.641.641,0,0,0,.641.641ZM62.836,49.709V39.885L73.625,50.35H63.477a.642.642,0,0,1-.641-.641Z" transform="translate(-34.925 -37.898)" fill="#fe5c58"/>
            </g>
          </g>
          <g id="Group_37905" data-name="Group 37905" transform="translate(8.49 10.595)">
            <g id="Group_37876" data-name="Group 37876" transform="translate(1.411 29.659)">
              <g id="Group_37869" data-name="Group 37869" transform="translate(8.21 2.136)">
                <g id="Group_37868" data-name="Group 37868">
                  <path id="Path_105700" data-name="Path 105700" d="M142.522,345.633a.642.642,0,0,1-.641-.643v-9.436a.641.641,0,1,1,1.283,0v9.436A.642.642,0,0,1,142.522,345.633Z" transform="translate(-141.881 -334.911)" fill="#fe5c58"/>
                </g>
              </g>
              <g id="Group_37871" data-name="Group 37871" transform="translate(12.315)">
                <g id="Group_37870" data-name="Group 37870">
                  <path id="Path_105701" data-name="Path 105701" d="M174.454,331.151a.642.642,0,0,1-.641-.643V318.935a.641.641,0,1,1,1.283,0v11.573A.642.642,0,0,1,174.454,331.151Z" transform="translate(-173.813 -318.292)" fill="#fe5c58"/>
                </g>
              </g>
              <g id="Group_37873" data-name="Group 37873" transform="translate(4.105 5.697)">
                <g id="Group_37872" data-name="Group 37872">
                  <path id="Path_105702" data-name="Path 105702" d="M110.59,369.77a.642.642,0,0,1-.641-.643v-5.876a.641.641,0,1,1,1.283,0v5.876A.642.642,0,0,1,110.59,369.77Z" transform="translate(-109.949 -362.609)" fill="#fe5c58"/>
                </g>
              </g>
              <g id="Group_37875" data-name="Group 37875" transform="translate(0 4.273)">
                <g id="Group_37874" data-name="Group 37874">
                  <path id="Path_105703" data-name="Path 105703" d="M78.659,360.115a.642.642,0,0,1-.641-.643v-7.3a.641.641,0,1,1,1.283,0v7.3A.642.642,0,0,1,78.659,360.115Z" transform="translate(-78.018 -351.529)" fill="#fe5c58"/>
                </g>
              </g>
            </g>
            <g id="Group_37881" data-name="Group 37881" transform="translate(0 9.864)">
              <g id="Group_37878" data-name="Group 37878" transform="translate(0 2.973)">
                <g id="Group_37877" data-name="Group 37877">
                  <path id="Path_105704" data-name="Path 105704" d="M73.767,200.92a6.743,6.743,0,0,1,0-13.486.642.642,0,0,1,.641.643v5.457h5.444a.642.642,0,0,1,.641.643A6.742,6.742,0,0,1,73.767,200.92Zm-.641-12.163a5.457,5.457,0,1,0,6.048,6.063H73.767a.642.642,0,0,1-.641-.643Z" transform="translate(-67.04 -187.434)" fill="#fe5c58"/>
                </g>
              </g>
              <g id="Group_37880" data-name="Group 37880" transform="translate(9.052)">
                <g id="Group_37879" data-name="Group 37879">
                  <path id="Path_105705" data-name="Path 105705" d="M144.177,171.7h-6.086a.642.642,0,0,1-.641-.643v-6.1a.642.642,0,0,1,.641-.643,6.743,6.743,0,0,1,6.727,6.743A.642.642,0,0,1,144.177,171.7Zm-5.444-1.286H143.5a5.462,5.462,0,0,0-4.765-4.777Z" transform="translate(-137.45 -164.31)" fill="#fe5c58"/>
                </g>
              </g>
            </g>
            <g id="Group_37890" data-name="Group 37890" transform="translate(19.012 11.273)">
              <g id="Group_37883" data-name="Group 37883" transform="translate(0 5.144)">
                <g id="Group_37882" data-name="Group 37882">
                  <path id="Path_105706" data-name="Path 105706" d="M227.959,216.565H215.573a.643.643,0,0,1,0-1.286h12.386a.643.643,0,0,1,0,1.286Z" transform="translate(-214.932 -215.279)" fill="#fe5c58"/>
                </g>
              </g>
              <g id="Group_37885" data-name="Group 37885" transform="translate(0 10.287)">
                <g id="Group_37884" data-name="Group 37884">
                  <path id="Path_105707" data-name="Path 105707" d="M221.546,256.574h-5.972a.643.643,0,0,1,0-1.286h5.972a.643.643,0,0,1,0,1.286Z" transform="translate(-214.933 -255.288)" fill="#fe5c58"/>
                </g>
              </g>
              <g id="Group_37887" data-name="Group 37887" transform="translate(11.276)">
                <g id="Group_37886" data-name="Group 37886">
                  <path id="Path_105708" data-name="Path 105708" d="M304.4,176.555H303.29a.643.643,0,0,1,0-1.286H304.4a.643.643,0,0,1,0,1.286Z" transform="translate(-302.649 -175.269)" fill="#fe5c58"/>
                </g>
              </g>
              <g id="Group_37889" data-name="Group 37889" transform="translate(0)">
                <g id="Group_37888" data-name="Group 37888">
                  <path id="Path_105709" data-name="Path 105709" d="M223.9,176.555h-8.326a.643.643,0,0,1,0-1.286H223.9a.643.643,0,0,1,0,1.286Z" transform="translate(-214.932 -175.269)" fill="#fe5c58"/>
                </g>
              </g>
            </g>
            <g id="Group_37897" data-name="Group 37897" transform="translate(19.012 30.302)">
              <g id="Group_37892" data-name="Group 37892" transform="translate(0 5.144)">
                <g id="Group_37891" data-name="Group 37891">
                  <path id="Path_105710" data-name="Path 105710" d="M218.778,364.59h-3.2a.643.643,0,0,1,0-1.286h3.2a.643.643,0,0,1,0,1.286Z" transform="translate(-214.932 -363.304)" fill="#fe5c58"/>
                </g>
              </g>
              <g id="Group_37894" data-name="Group 37894">
                <g id="Group_37893" data-name="Group 37893">
                  <path id="Path_105711" data-name="Path 105711" d="M218.778,324.58h-3.2a.643.643,0,0,1,0-1.286h3.2a.643.643,0,0,1,0,1.286Z" transform="translate(-214.932 -323.294)" fill="#fe5c58"/>
                </g>
              </g>
              <g id="Group_37896" data-name="Group 37896" transform="translate(0 10.287)">
                <g id="Group_37895" data-name="Group 37895">
                  <path id="Path_105712" data-name="Path 105712" d="M222.617,404.6h-7.043a.643.643,0,0,1,0-1.286h7.043a.643.643,0,0,1,0,1.286Z" transform="translate(-214.932 -403.313)" fill="#fe5c58"/>
                </g>
              </g>
            </g>
            <g id="Group_37904" data-name="Group 37904" transform="translate(0)">
              <g id="Group_37899" data-name="Group 37899">
                <g id="Group_37898" data-name="Group 37898">
                  <path id="Path_105713" data-name="Path 105713" d="M76.021,88.867H67.682a.643.643,0,0,1,0-1.286h8.338a.643.643,0,0,1,0,1.286Z" transform="translate(-67.041 -87.581)" fill="#fe5c58"/>
                </g>
              </g>
              <g id="Group_37901" data-name="Group 37901" transform="translate(13.726 5.144)">
                <g id="Group_37900" data-name="Group 37900">
                  <path id="Path_105714" data-name="Path 105714" d="M175.481,128.877h-1.026a.643.643,0,0,1,0-1.286h1.026a.643.643,0,0,1,0,1.286Z" transform="translate(-173.813 -127.591)" fill="#fe5c58"/>
                </g>
              </g>
              <g id="Group_37903" data-name="Group 37903" transform="translate(0 5.144)">
                <g id="Group_37902" data-name="Group 37902">
                  <path id="Path_105715" data-name="Path 105715" d="M78.5,128.877H67.682a.643.643,0,0,1,0-1.286H78.5a.643.643,0,0,1,0,1.286Z" transform="translate(-67.041 -127.591)" fill="#fe5c58"/>
                </g>
              </g>
            </g>
          </g>
        </g>
        <g id="Group_37910" data-name="Group 37910" transform="translate(33.109 32.402)">
          <g id="Group_37908" data-name="Group 37908" transform="translate(3.592 3.601)">
            <g id="Group_37907" data-name="Group 37907">
              <path id="Path_105716" data-name="Path 105716" d="M288.4,287.631a.642.642,0,0,1-.641-.643,5.657,5.657,0,0,1,5.644-5.658.643.643,0,0,1,0,1.286,4.372,4.372,0,0,0-4.362,4.372A.642.642,0,0,1,288.4,287.631Z" transform="translate(-287.759 -281.33)" fill="#fe5c58"/>
            </g>
          </g>
          <g id="Group_37909" data-name="Group 37909">
            <path id="Path_105717" data-name="Path 105717" d="M285.491,273.783l-3.028-3.035a3.719,3.719,0,0,0-4.768-.415l-1.678-1.682a9.248,9.248,0,1,0-.907.909l1.677,1.681a3.741,3.741,0,0,0,.414,4.779l3.028,3.035a3.725,3.725,0,0,0,5.261-5.274ZM261.1,262.58a7.954,7.954,0,1,1,7.953,7.972A7.972,7.972,0,0,1,261.1,262.58Zm23.483,15.567a2.436,2.436,0,0,1-3.447,0l-3.028-3.035a2.44,2.44,0,1,1,3.447-3.455l3.028,3.035a2.45,2.45,0,0,1,0,3.455Z" transform="translate(-259.818 -253.322)" fill="#fe5c58"/>
          </g>
        </g>
        <g id="Group_37914" data-name="Group 37914" transform="translate(39.09)">
          <g id="Group_37911" data-name="Group 37911">
            <path id="Path_105718" data-name="Path 105718" d="M327.065,6.525a11.438,11.438,0,0,0-20.658,0,.645.645,0,0,0,0,.552,11.438,11.438,0,0,0,20.658,0A.645.645,0,0,0,327.065,6.525Zm-5.478.276c0,2.724-1.952,5.515-4.851,5.515s-4.851-2.791-4.851-5.515,1.952-5.515,4.851-5.515S321.588,4.077,321.588,6.8ZM307.7,6.8a10.055,10.055,0,0,1,4.345-4.387,7.407,7.407,0,0,0,0,8.772A10.056,10.056,0,0,1,307.7,6.8Zm13.725,4.386a7.407,7.407,0,0,0,0-8.772A10.056,10.056,0,0,1,325.771,6.8,10.057,10.057,0,0,1,321.427,11.187Z" transform="translate(-306.346 0)" fill="#fe5c58"/>
          </g>
          <g id="Group_37913" data-name="Group 37913" transform="translate(7.569 3.972)">
            <g id="Group_37912" data-name="Group 37912">
              <path id="Path_105719" data-name="Path 105719" d="M368.042,36.554a2.829,2.829,0,0,1,0-5.658.643.643,0,0,1,0,1.286,1.543,1.543,0,1,0,1.539,1.543.641.641,0,1,1,1.283,0,2.828,2.828,0,0,1-2.822,2.829Z" transform="translate(-365.22 -30.896)" fill="#fe5c58"/>
            </g>
          </g>
        </g>
      </g>
      <g id="Group_37917" data-name="Group 37917" transform="translate(0 54.477)">
        <g id="Group_37916" data-name="Group 37916">
          <ellipse id="Ellipse_540" data-name="Ellipse 540" cx="0.834" cy="0.836" rx="0.834" ry="0.836" fill="#fe5c58"/>
        </g>
      </g>
      <g id="Group_37919" data-name="Group 37919" transform="translate(43.829 27.404)">
        <g id="Group_37918" data-name="Group 37918">
          <ellipse id="Ellipse_541" data-name="Ellipse 541" cx="0.834" cy="0.836" rx="0.834" ry="0.836" fill="#fe5c58"/>
        </g>
      </g>
    </g>
  </g>
</svg>
