<svg xmlns="http://www.w3.org/2000/svg" width="32" height="32" viewBox="0 0 32 32">
  <g id="Group_37995" data-name="Group 37995" transform="translate(-1 -1)">
    <g id="Group_37995-2" data-name="Group 37995" transform="translate(1 1)">
      <path id="Path_105967" data-name="Path 105967" d="M47.443,44.924A1.462,1.462,0,1,0,46,43.462,1.455,1.455,0,0,0,47.443,44.924Zm0-1.949a.487.487,0,1,1-.481.487A.485.485,0,0,1,47.443,42.975Z" transform="translate(-22.599 -20.758)"/>
      <path id="Path_105968" data-name="Path 105968" d="M31.018,21.531a.99.99,0,0,1,.211-1.085l.751-.751L29.79,17.5l-.752.751a1,1,0,0,1-1.105.2.984.984,0,0,1-.61-.913V16.484H26.264a9.144,9.144,0,0,0-.457-2.4l5.973-5.973A4.166,4.166,0,1,0,25.889,2.22L19.922,8.187a9.169,9.169,0,0,0-2.435-.455,4.107,4.107,0,0,0-4.717-1.926A5.151,5.151,0,0,0,3.2,9.391a3.1,3.1,0,0,0,.9,6.06H7.841A9.358,9.358,0,0,0,7.71,17a7.086,7.086,0,0,0,.549,2.85l-4.6,4.6L1.092,31.116a1.374,1.374,0,0,0-.092.5,1.387,1.387,0,0,0,1.884,1.294l6.661-2.562,3.367-3.367a1.508,1.508,0,0,0,.361,1.377,1.535,1.535,0,0,0,.754,2.524,3.144,3.144,0,0,0,5.946,0,1.546,1.546,0,0,0,1.156-1.492c0-.039-.009-.075-.011-.113l.641.641.752-.751a1.011,1.011,0,0,1,1.715.711v1.061h3.1V29.875a1.011,1.011,0,0,1,1.716-.711l.751.751,2.19-2.19-.751-.751a1,1,0,0,1-.2-1.105.985.985,0,0,1,.913-.611H33v-3.1H31.939a.993.993,0,0,1-.921-.631Zm-7.734,1.522A15.4,15.4,0,0,0,24.9,21.292a2.55,2.55,0,0,1,.876-.163,2.606,2.606,0,1,1-2.49,1.923Zm.62-12.226L26.29,8.439l1.851,1.851-2.757,2.757A9.367,9.367,0,0,0,23.9,10.826Zm.535-5.7.819-.819L29.69,8.742l-.819.819Zm4.395-3.1A3.134,3.134,0,0,1,31.05,7.381l-.631.631L25.988,3.581l.631-.631a3.114,3.114,0,0,1,2.216-.918ZM23.71,5.859,25.561,7.71l-2.385,2.385a9.356,9.356,0,0,0-2.22-1.482ZM25.258,17c0,2.685-1.352,4-2.784,5.4a10.094,10.094,0,0,0-2.588,3.4,1.526,1.526,0,0,0-.306-.031H17.516V23.194a1.55,1.55,0,0,0-1.548-1.548H14.935a.516.516,0,1,1,0-1.032H20.1a1.548,1.548,0,0,0,0-3.1H15.968A.517.517,0,0,1,15.452,17V15.452h2.581a2.581,2.581,0,1,0,0-5.161c-.014,0-.028,0-.042,0a4.064,4.064,0,0,0,.042-.52A4.135,4.135,0,0,0,17.91,8.8,8.3,8.3,0,0,1,25.258,17ZM13.9,27.323a.517.517,0,0,1,.516-.516h5.161a.516.516,0,0,1,0,1.032H14.419A.517.517,0,0,1,13.9,27.323Zm-6.5,0L11.2,23.529a9.369,9.369,0,0,1,1.659,2.042l-3.6,3.6ZM2.032,12.355a2.065,2.065,0,0,1,4.129,0H7.194a3.1,3.1,0,0,0-2.965-3.09,4.125,4.125,0,0,1,7.594-3.051A4.132,4.132,0,0,0,9.8,9.323a2.064,2.064,0,0,0-1.574,2H9.258a1.032,1.032,0,0,1,2.065,0h1.032A2.061,2.061,0,0,0,10.84,9.342a3.093,3.093,0,1,1,6.046,1.229,2.575,2.575,0,0,0-1.435,2.3h1.032a1.548,1.548,0,1,1,1.548,1.548H4.1A2.067,2.067,0,0,1,2.032,12.355Zm12.387,3.1V17a1.55,1.55,0,0,0,1.548,1.548H20.1a.516.516,0,1,1,0,1.032H14.935a1.548,1.548,0,0,0,0,3.1h1.032a.517.517,0,0,1,.516.516v2.581H14.419a1.526,1.526,0,0,0-.306.031,10.094,10.094,0,0,0-2.588-3.4C10.094,21,8.742,19.685,8.742,17A8.32,8.32,0,0,1,8.9,15.452Zm-3.955,7.354L6.677,26.593,4.827,24.742,8.765,20.8a11.61,11.61,0,0,0,1.7,2ZM4.293,25.668l4.038,4.038L4.913,31.022,2.978,29.087ZM2.514,31.944a.355.355,0,0,1-.459-.458l.517-1.345,1.286,1.286ZM17,31.968a2.121,2.121,0,0,1-1.819-1.032h3.638A2.121,2.121,0,0,1,17,31.968ZM19.581,29.9H14.419a.516.516,0,1,1,0-1.032h5.161a.516.516,0,1,1,0,1.032Zm12.387-5.677h-.028A2.044,2.044,0,0,0,30.5,27.7l.022.022-.731.731-.022-.022a2.044,2.044,0,0,0-3.478,1.441V29.9H25.258v-.028a2.044,2.044,0,0,0-3.478-1.441l-.022.022-.7-.7a1.513,1.513,0,0,0,.07-.434,1.533,1.533,0,0,0-.347-.965,6.656,6.656,0,0,1,1.41-2.2A3.611,3.611,0,1,0,25.774,20.1c-.051,0-.1.005-.15.007a6.772,6.772,0,0,0,.65-2.588h.016v.028a2.044,2.044,0,0,0,3.478,1.441l.022-.022.731.731-.022.022a2.044,2.044,0,0,0,1.441,3.478h.028Z" transform="translate(-1 -1)"/>
    </g>
  </g>
</svg>
