<svg xmlns="http://www.w3.org/2000/svg" width="32" height="31.547" viewBox="0 0 32 31.547">
  <g id="Group_37958" data-name="Group 37958" transform="translate(-0.001 -3.625)">
    <g id="Group_37958-2" data-name="Group 37958" transform="translate(0.001 3.625)">
      <path id="Path_105791" data-name="Path 105791" d="M146.47,224.73a.475.475,0,0,0-.475.475v.587a.475.475,0,1,0,.95,0V225.2A.475.475,0,0,0,146.47,224.73Z" transform="translate(-136.873 -210.919)"/>
      <path id="Path_105792" data-name="Path 105792" d="M102.733,226.267a.475.475,0,0,0,.475-.475V225.2a.475.475,0,0,0-.95,0v.587A.475.475,0,0,0,102.733,226.267Z" transform="translate(-95.869 -210.919)"/>
      <path id="Path_105793" data-name="Path 105793" d="M9.316,128.414a2.426,2.426,0,0,0-.957-2.381l-.27-.2v-.048a4.278,4.278,0,0,0,3.3-4.156v-4.454a10.87,10.87,0,0,0,2.111-1.085,1.69,1.69,0,0,0,.543-2.221A1.669,1.669,0,0,0,13,113.062l-.082-.02a1.458,1.458,0,0,0-.168-.995,1.48,1.48,0,0,0-1.9-.606l-1.066.5a8.919,8.919,0,0,1-4.952.779A4.285,4.285,0,0,0,1.254,120l.175.175a1.663,1.663,0,0,0,1.418,2.148v.488a.475.475,0,0,0,.95,0v-.955a.475.475,0,0,0-.475-.475H3.016a.713.713,0,0,1,0-1.426h.423a1.711,1.711,0,0,0,1.678-1.341l.217-.959.246.045a10.87,10.87,0,0,0,2.349.174V119a2.4,2.4,0,0,0,.925,1.9.059.059,0,0,1,.018.022.057.057,0,0,1-.01.063.057.057,0,0,1-.042.018.475.475,0,1,0,0,.95,1.007,1.007,0,0,0,.62-1.8A1.452,1.452,0,0,1,8.878,119v-1.2a10.717,10.717,0,0,0,1.556-.312v4.14a3.323,3.323,0,0,1-2.88,3.289h0a3.273,3.273,0,0,1-.434.029,3.331,3.331,0,0,1-.956-.14,3.282,3.282,0,0,1-.846-.391.475.475,0,1,0-.517.8,4.236,4.236,0,0,0,1.09.5,4.278,4.278,0,0,0,1.228.18h.023v.794a1.041,1.041,0,0,1-1.329,1l-.055-.017A2.744,2.744,0,0,1,3.8,125.058v-.032a.475.475,0,0,0-.95,0v.032a3.623,3.623,0,0,0,.053.618,2.427,2.427,0,0,0-.4,3.02l1.107,1.838a.475.475,0,0,0,.73.1l1.925-1.789,1.925,1.789a.475.475,0,0,0,.791-.267ZM5.751,116.769l-.695-.128a.475.475,0,0,0-.549.362l-.317,1.4a.766.766,0,0,1-.752.6H3.016a1.666,1.666,0,0,0-1.043.37l-.047-.047a3.335,3.335,0,0,1,2.785-5.667,9.866,9.866,0,0,0,5.478-.862l1.064-.5a.525.525,0,0,1,.674.215.522.522,0,0,1-.175.7l-.05.029-.462.277a.475.475,0,1,0,.489.814l.453-.272.044-.025a.733.733,0,0,1,.982.293.736.736,0,0,1-.237.967,9.812,9.812,0,0,1-7.22,1.471ZM4.118,129.543l-.805-1.337a1.483,1.483,0,0,1-.047-1.456A3.694,3.694,0,0,0,5.237,128.5Zm4.263-1.291-.189,1.093-1.038-.965q.071-.044.138-.095a1.971,1.971,0,0,0,.767-1.24A1.48,1.48,0,0,1,8.38,128.252Z" transform="translate(-0.001 -104.71)"/>
      <path id="Path_105794" data-name="Path 105794" d="M90.141,278.917a.475.475,0,0,0,.039.67,2.8,2.8,0,0,0,1.546.624h.034a.475.475,0,0,0,.033-.949,1.853,1.853,0,0,1-.983-.388A.475.475,0,0,0,90.141,278.917Z" transform="translate(-84.4 -261.572)"/>
      <path id="Path_105795" data-name="Path 105795" d="M362.077,125.193a1.662,1.662,0,0,0,1.33-2.373v-2.5a.475.475,0,1,0-.95,0v1.648a1.651,1.651,0,0,0-.549-.095h-.752a.347.347,0,0,1-.347-.347v-1.223a1.85,1.85,0,0,0-1.848-1.848h-4.471v-1.881a1.264,1.264,0,0,1,1.262-1.262H361.2a1.264,1.264,0,0,1,1.262,1.262v1.529a.475.475,0,0,0,.95,0v-1.529a2.215,2.215,0,0,0-2.212-2.212h-5.442a2.215,2.215,0,0,0-2.212,2.212V124.5a4.278,4.278,0,0,0,3.3,4.156v.048l-.27.2a2.426,2.426,0,0,0-.957,2.381l.339,1.956a.475.475,0,0,0,.791.267l1.925-1.789,1.925,1.789a.475.475,0,0,0,.73-.1l1.107-1.838a2.427,2.427,0,0,0-.4-3.02,3.614,3.614,0,0,0,.053-.617v-2.732Zm-7.586-.7v-3.652h.009l.038,0,1.089-.087a.475.475,0,1,0-.076-.947l-1.061.085v-.486h4.471a.9.9,0,0,1,.9.9v1.223a1.3,1.3,0,0,0,1.3,1.3h.752a.718.718,0,0,1,.615.352.713.713,0,0,1-.615,1.074H361.6a.475.475,0,0,0-.475.475v3.2a2.745,2.745,0,0,1-1.961,2.618l-.046.014a1.041,1.041,0,0,1-1.335-1v-.794h.023a4.278,4.278,0,0,0,1.228-.18,4.235,4.235,0,0,0,1.09-.5.475.475,0,1,0-.517-.8,3.283,3.283,0,0,1-.846.391,3.331,3.331,0,0,1-.956.14,3.273,3.273,0,0,1-.434-.029h0A3.324,3.324,0,0,1,354.491,124.5Zm2.244,7.715-.19-1.093a1.48,1.48,0,0,1,.322-1.207,1.971,1.971,0,0,0,.767,1.24q.068.051.138.095Zm4.878-1.139-.805,1.337-1.12-1.041a3.7,3.7,0,0,0,1.972-1.752A1.483,1.483,0,0,1,361.613,131.073Z" transform="translate(-331.571 -107.579)"/>
      <path id="Path_105796" data-name="Path 105796" d="M373.292,225.792V225.2a.475.475,0,0,0-.95,0v.587a.475.475,0,1,0,.95,0Z" transform="translate(-349.078 -210.919)"/>
      <path id="Path_105797" data-name="Path 105797" d="M416.553,224.73a.475.475,0,0,0-.475.475v.587a.475.475,0,1,0,.95,0V225.2A.475.475,0,0,0,416.553,224.73Z" transform="translate(-390.149 -210.919)"/>
      <path id="Path_105798" data-name="Path 105798" d="M379.638,228.316a.475.475,0,0,0-.475-.475.057.057,0,0,1-.057-.057.061.061,0,0,1,.007-.028.052.052,0,0,1,.015-.018,2.4,2.4,0,0,0,.925-1.9.475.475,0,0,0-.95,0,1.452,1.452,0,0,1-.562,1.151,1.007,1.007,0,0,0,.621,1.8A.475.475,0,0,0,379.638,228.316Z" transform="translate(-354.539 -211.527)"/>
      <path id="Path_105799" data-name="Path 105799" d="M412.528,201.28l1.089.087.038,0a.475.475,0,0,0,.037-.948l-1.089-.087a.475.475,0,1,0-.076.947Z" transform="translate(-386.414 -188.043)"/>
      <path id="Path_105800" data-name="Path 105800" d="M394,284.436a.475.475,0,0,0-.661-.117,2.277,2.277,0,0,1-1.2.394.475.475,0,0,0-.024.949h.024a3.218,3.218,0,0,0,1.742-.565A.475.475,0,0,0,394,284.436Z" transform="translate(-367.205 -266.705)"/>
      <path id="Path_105801" data-name="Path 105801" d="M141.384,9.417l3.483-.042A1.377,1.377,0,0,0,146.1,7.426a9.58,9.58,0,0,1,7.545,2.015A1.58,1.58,0,0,0,155.657,7,12.646,12.646,0,0,0,144.41,4.558l-.154-.26a1.377,1.377,0,0,0-2.385.029l-1.7,3.038a1.377,1.377,0,0,0,1.218,2.051Zm-.39-1.586,1.7-3.038a.427.427,0,0,1,.74-.009l.34.572a.475.475,0,0,0,.543.213,11.7,11.7,0,0,1,10.732,2.166.614.614,0,0,1,.226.45.631.631,0,0,1-1.031.52,10.53,10.53,0,0,0-6.637-2.349,10.37,10.37,0,0,0-2.36.271.475.475,0,0,0-.3.7l.266.448a.427.427,0,0,1-.362.646l-3.483.042a.427.427,0,0,1-.378-.636Z" transform="translate(-131.352 -3.625)"/>
      <path id="Path_105802" data-name="Path 105802" d="M154.849,411.2l-3.483.042a1.377,1.377,0,0,0-1.236,1.949,9.578,9.578,0,0,1-7.544-2.015,1.58,1.58,0,0,0-2.009,2.44,12.634,12.634,0,0,0,7.274,2.84.475.475,0,1,0,.056-.948,11.685,11.685,0,0,1-6.728-2.626.62.62,0,0,1-.226-.482.631.631,0,0,1,1.033-.488,10.527,10.527,0,0,0,9,2.079.475.475,0,0,0,.3-.7l-.266-.448a.427.427,0,0,1,.362-.645l3.484-.042a.427.427,0,0,1,.378.636l-1.7,3.038a.427.427,0,0,1-.74.01l-.34-.573a.475.475,0,0,0-.543-.213,11.643,11.643,0,0,1-1.88.391.475.475,0,0,0,.116.943,12.574,12.574,0,0,0,1.676-.323l.154.26a1.362,1.362,0,0,0,1.183.674h.018a1.364,1.364,0,0,0,1.184-.7l1.7-3.038a1.377,1.377,0,0,0-1.218-2.051Z" transform="translate(-131.366 -385.446)"/>
    </g>
  </g>
</svg>
