<svg xmlns="http://www.w3.org/2000/svg" width="32.48" height="24.64" viewBox="0 0 32.48 24.64">
  <g id="Group_37997" data-name="Group 37997" transform="translate(-3 -10)">
    <g id="add_friend" data-name="add friend" transform="translate(3 10)">
      <path id="Path_105978" data-name="Path 105978" d="M29.88,22.348V11.12A1.121,1.121,0,0,0,28.76,10H4.12A1.121,1.121,0,0,0,3,11.12v22.4a1.121,1.121,0,0,0,1.12,1.12h25.2a6.158,6.158,0,0,0,.56-12.291ZM28.76,11.12v3.36H4.12V11.12ZM4.12,33.52V15.6H28.76v6.748A6.153,6.153,0,0,0,25.789,33.52Zm25.2,0a5.04,5.04,0,1,1,5.04-5.04,5.04,5.04,0,0,1-5.04,5.04Zm3.36-5.04a.56.56,0,0,1-.56.56H29.88v2.24a.56.56,0,1,1-1.12,0V29.04H26.52a.56.56,0,1,1,0-1.12h2.24V25.68a.56.56,0,1,1,1.12,0v2.24h2.24A.56.56,0,0,1,32.68,28.48ZM5.24,12.8a.56.56,0,1,1,.56.56A.56.56,0,0,1,5.24,12.8Zm2.24,0a.56.56,0,1,1,.56.56A.56.56,0,0,1,7.48,12.8Zm2.24,0a.56.56,0,1,1,.56.56A.56.56,0,0,1,9.72,12.8ZM14.2,24a2.8,2.8,0,1,0-2.8-2.8A2.8,2.8,0,0,0,14.2,24Zm0-4.48a1.68,1.68,0,1,1-1.68,1.68A1.68,1.68,0,0,1,14.2,19.52Zm0,5.6a5.046,5.046,0,0,0-5.04,5.04.56.56,0,0,0,.56.56h8.96a.56.56,0,0,0,.56-.56,5.046,5.046,0,0,0-5.04-5.04ZM10.32,29.6a3.92,3.92,0,0,1,7.76,0Z" transform="translate(-3 -10)"/>
    </g>
  </g>
</svg>
