<svg xmlns="http://www.w3.org/2000/svg" width="32" height="27.428" viewBox="0 0 32 27.428">
  <g id="Group_37842" data-name="Group 37842" transform="translate(-4 -8)">
    <g id="Invoice" transform="translate(4 8)">
      <path id="Path_105658" data-name="Path 105658" d="M35.429,28.571H29.143V10.857A2.861,2.861,0,0,0,26.286,8H6.857A2.861,2.861,0,0,0,4,10.857V20a.571.571,0,0,0,.571.571h4v8.571a6.293,6.293,0,0,0,6.286,6.286H29.714A6.293,6.293,0,0,0,36,29.143.571.571,0,0,0,35.429,28.571ZM5.143,10.857a1.714,1.714,0,0,1,3.429,0v8.571H5.143ZM9.714,29.143V10.857a2.829,2.829,0,0,0-.586-1.714H26.286A1.716,1.716,0,0,1,28,10.857V28.571H20.571a.571.571,0,0,0-.571.571,5.143,5.143,0,1,1-10.286,0Zm20,5.143H18.468a6.287,6.287,0,0,0,2.65-4.571H34.825A5.15,5.15,0,0,1,29.714,34.286Z" transform="translate(-4 -8)"/>
      <path id="Path_105659" data-name="Path 105659" d="M17.548,19.057a.571.571,0,0,0-.548.574,2.141,2.141,0,0,0,1.645,2.078v.612a.548.548,0,0,0,1.1,0v-.612a2.138,2.138,0,0,0,.18-4.109l-1.111-.371a1.045,1.045,0,0,1,.33-2.036h.1a1.058,1.058,0,0,1,1.045,1.1.526.526,0,0,0,.548.522.571.571,0,0,0,.548-.574,2.141,2.141,0,0,0-1.645-2.078v-.612a.548.548,0,1,0-1.1,0v.612a2.138,2.138,0,0,0-.18,4.109l1.111.371a1.045,1.045,0,0,1-.33,2.036h-.1A1.046,1.046,0,0,1,18.1,19.631V19.58a.526.526,0,0,0-.548-.522Z" transform="translate(-9.521 -10.258)"/>
      <path id="Path_105660" data-name="Path 105660" d="M28.548,16.1h7.128a.548.548,0,1,0,0-1.1H28.548a.548.548,0,1,0,0,1.1Z" transform="translate(-14.083 -11.162)"/>
      <path id="Path_105661" data-name="Path 105661" d="M28.548,22.1h7.128a.548.548,0,0,0,0-1.1H28.548a.548.548,0,0,0,0,1.1Z" transform="translate(-14.083 -13.558)"/>
      <path id="Path_105662" data-name="Path 105662" d="M28.548,28.1h7.128a.548.548,0,0,0,0-1.1H28.548a.548.548,0,0,0,0,1.1Z" transform="translate(-14.083 -16.124)"/>
      <path id="Path_105663" data-name="Path 105663" d="M17.548,34.1H30.708a.548.548,0,1,0,0-1.1H17.548a.548.548,0,0,0,0,1.1Z" transform="translate(-9.311 -18.689)"/>
      <path id="Path_105664" data-name="Path 105664" d="M31.256,39.548A.548.548,0,0,0,30.708,39H17.548a.548.548,0,0,0,0,1.1H30.708A.548.548,0,0,0,31.256,39.548Z" transform="translate(-9.311 -21.255)"/>
    </g>
  </g>
</svg>
