<svg width="32" height="32" viewBox="0 0 32 32" fill="none" xmlns="http://www.w3.org/2000/svg">
<path d="M27.3333 11.6667H20V7.33333C19.9989 6.4496 19.6474 5.60237 19.0225 4.97748C18.3976 4.35259 17.5504 4.00106 16.6666 4H4.66665C3.78292 4.00106 2.93568 4.35259 2.31079 4.97748C1.6859 5.60237 1.33437 6.4496 1.33331 7.33333V15.3333C1.33437 16.2171 1.6859 17.0643 2.31079 17.6892C2.93568 18.3141 3.78292 18.6656 4.66665 18.6667V20.06C4.66615 20.323 4.74392 20.5802 4.89006 20.7989C5.03621 21.0176 5.24411 21.1878 5.48731 21.288C5.73159 21.3897 6.0006 21.4165 6.26012 21.3648C6.51964 21.3132 6.75793 21.1855 6.94465 20.998C6.96899 20.9746 6.99129 20.9492 7.01131 20.922L8.66998 18.6667H12V23C12.001 23.8837 12.3526 24.731 12.9775 25.3559C13.6024 25.9807 14.4496 26.3323 15.3333 26.3333H22.724L25.0573 28.6667C25.2438 28.8531 25.4813 28.98 25.7399 29.0314C25.9985 29.0829 26.2666 29.0565 26.5102 28.9556C26.7538 28.8547 26.962 28.6838 27.1085 28.4646C27.255 28.2454 27.3333 27.9877 27.3333 27.724V26.3333C28.217 26.3323 29.0643 25.9807 29.6892 25.3559C30.3141 24.731 30.6656 23.8837 30.6666 23V15C30.6656 14.1163 30.3141 13.269 29.6892 12.6441C29.0643 12.0193 28.217 11.6677 27.3333 11.6667V11.6667ZM8.33331 17.3333C8.22942 17.3339 8.12709 17.3587 8.03449 17.4058C7.94189 17.4529 7.86159 17.521 7.79998 17.6047L5.99998 20.0447V18C5.99998 17.8232 5.92974 17.6536 5.80472 17.5286C5.67969 17.4036 5.51012 17.3333 5.33331 17.3333H4.66665C4.13621 17.3333 3.62751 17.1226 3.25243 16.7475C2.87736 16.3725 2.66665 15.8638 2.66665 15.3333V7.33333C2.66665 6.8029 2.87736 6.29419 3.25243 5.91912C3.62751 5.54405 4.13621 5.33333 4.66665 5.33333H16.6666C17.1971 5.33333 17.7058 5.54405 18.0809 5.91912C18.4559 6.29419 18.6666 6.8029 18.6666 7.33333V11.6667H15.3333C14.6241 11.6688 13.9343 11.899 13.366 12.3233L11.2733 7.72333C11.2203 7.60694 11.1349 7.50826 11.0273 7.43906C10.9198 7.36987 10.7946 7.33307 10.6666 7.33307C10.5387 7.33307 10.4135 7.36987 10.306 7.43906C10.1984 7.50826 10.113 7.60694 10.06 7.72333L6.72665 15.0567C6.69051 15.1365 6.67047 15.2227 6.66766 15.3103C6.66486 15.3978 6.67936 15.4851 6.71031 15.5671C6.74127 15.6491 6.78809 15.7242 6.84809 15.788C6.90809 15.8519 6.98009 15.9033 7.05998 15.9393C7.14565 15.979 7.23889 15.9997 7.33331 16C7.46126 16 7.5865 15.9631 7.69407 15.8938C7.80164 15.8246 7.88701 15.7258 7.93998 15.6093L8.97465 13.3333H12.36L12.4073 13.4367C12.1438 13.9159 12.0038 14.4531 12 15V17.3333H8.33331ZM11.754 12H9.58065L10.6666 9.61067L11.754 12ZM29.3333 23C29.3333 23.5304 29.1226 24.0391 28.7475 24.4142C28.3725 24.7893 27.8637 25 27.3333 25H26.6666C26.4898 25 26.3203 25.0702 26.1952 25.1953C26.0702 25.3203 26 25.4899 26 25.6667V27.724L23.4713 25.1953C23.3463 25.0703 23.1768 25 23 25H15.3333C14.8029 25 14.2942 24.7893 13.9191 24.4142C13.544 24.0391 13.3333 23.5304 13.3333 23V15C13.3333 14.4696 13.544 13.9609 13.9191 13.5858C14.2942 13.2107 14.8029 13 15.3333 13H27.3333C27.8637 13 28.3725 13.2107 28.7475 13.5858C29.1226 13.9609 29.3333 14.4696 29.3333 15V23Z" fill="black"/>
<path d="M24.6666 16.6665H22V15.3332C22 15.1564 21.9297 14.9868 21.8047 14.8618C21.6797 14.7367 21.5101 14.6665 21.3333 14.6665C21.1565 14.6665 20.9869 14.7367 20.8619 14.8618C20.7369 14.9868 20.6666 15.1564 20.6666 15.3332V16.6665H18C17.8232 16.6665 17.6536 16.7367 17.5286 16.8618C17.4036 16.9868 17.3333 17.1564 17.3333 17.3332C17.3333 17.51 17.4036 17.6796 17.5286 17.8046C17.6536 17.9296 17.8232 17.9998 18 17.9998H22.9466C22.7834 19.1324 22.2074 20.1648 21.3293 20.8985C20.8164 20.4701 20.4019 19.9362 20.114 19.3332C20.0777 19.252 20.0256 19.179 19.9608 19.1182C19.8959 19.0575 19.8195 19.0104 19.7361 18.9796C19.6528 18.9489 19.5641 18.9351 19.4753 18.9391C19.3865 18.943 19.2995 18.9647 19.2192 19.0029C19.1389 19.041 19.0671 19.0948 19.0079 19.1611C18.9487 19.2274 18.9034 19.3049 18.8746 19.3889C18.8458 19.473 18.8341 19.562 18.8402 19.6506C18.8462 19.7393 18.87 19.8258 18.91 19.9052C19.2198 20.5475 19.6433 21.1284 20.16 21.6198C19.5675 21.8722 18.9299 22.0015 18.286 21.9998C18.1996 22.0002 18.1142 22.0179 18.0348 22.0519C17.9554 22.0858 17.8836 22.1353 17.8237 22.1975C17.7637 22.2596 17.7168 22.3331 17.6857 22.4137C17.6546 22.4942 17.64 22.5802 17.6426 22.6665C17.648 22.8458 17.7233 23.0158 17.8523 23.1404C17.9814 23.2649 18.154 23.3341 18.3333 23.3332C19.3928 23.3328 20.433 23.0497 21.3466 22.5132C22.2687 23.0475 23.315 23.3302 24.3806 23.3332C24.467 23.3328 24.5524 23.3151 24.6318 23.2811C24.7112 23.2472 24.783 23.1977 24.843 23.1356C24.9029 23.0734 24.9498 22.9999 24.9809 22.9193C25.012 22.8388 25.0267 22.7528 25.024 22.6665C25.0186 22.4872 24.9433 22.3172 24.8143 22.1926C24.6853 22.0681 24.5127 21.9989 24.3333 21.9998C23.7096 21.9974 23.0929 21.8691 22.52 21.6225C23.513 20.6568 24.1401 19.3764 24.294 17.9998H24.6666C24.8435 17.9998 25.013 17.9296 25.1381 17.8046C25.2631 17.6796 25.3333 17.51 25.3333 17.3332C25.3333 17.1564 25.2631 16.9868 25.1381 16.8618C25.013 16.7367 24.8435 16.6665 24.6666 16.6665Z" fill="black"/>
</svg>
