<svg width="32" height="32" viewBox="0 0 32 32" fill="none" xmlns="http://www.w3.org/2000/svg">
<g clip-path="url(#clip0_23_811)">
<path d="M30.665 13.5232H27.7834C27.1284 13.5232 26.5833 13.9978 26.4707 14.6211C26.3323 14.5559 26.1892 14.4995 26.042 14.4524L25.0623 11.0645C24.9409 10.342 24.3723 9.7771 23.6704 9.64014C24.1262 9.00049 24.7583 8.60718 25.2905 8.37158C25.3149 8.36084 25.3384 8.3479 25.3606 8.33301C25.5447 8.21045 25.6543 8.00537 25.6543 7.78442C25.6543 7.56348 25.5447 7.3584 25.3606 7.23584C25.3384 7.22095 25.3149 7.20801 25.2905 7.19727C25.1946 7.15479 25.1001 7.10937 25.0093 7.06201C24.7798 6.94263 24.4968 7.03174 24.3774 7.26123C24.291 7.427 24.3137 7.62085 24.4194 7.7605C23.5039 8.2749 22.8428 8.99463 22.4697 9.87842C22.4648 9.88892 22.4602 9.89966 22.4561 9.91064C22.4226 9.9917 22.3909 10.0737 22.3623 10.1575C22.3337 10.0742 22.302 9.99243 22.2688 9.91162C22.2644 9.90015 22.2595 9.88892 22.2544 9.87793C21.8872 9.00806 21.2405 8.29688 20.3469 7.78418C21.3347 7.21777 22.022 6.40918 22.3623 5.41064C22.4802 5.75562 22.6406 6.08032 22.8411 6.37915C22.9849 6.59424 23.2759 6.65137 23.4907 6.50757C23.7056 6.36353 23.7632 6.07251 23.6191 5.85767C23.4094 5.54468 23.2561 5.19434 23.1636 4.81616L22.9714 4.03174C22.9026 3.75024 22.6521 3.55371 22.3623 3.55371C22.0723 3.55371 21.8218 3.75024 21.7529 4.03174L21.5608 4.81616C21.2341 6.15088 20.2239 6.84766 19.4341 7.19702C19.4094 7.20801 19.386 7.22095 19.3638 7.2356C19.1799 7.35815 19.0701 7.56323 19.0701 7.78442C19.0701 8.00537 19.1799 8.21045 19.3638 8.33301C19.386 8.34766 19.4094 8.3606 19.4341 8.37158C19.9573 8.60303 20.5771 8.9873 21.031 9.60791H8.71191C7.85913 9.60791 7.14209 10.2112 6.99365 11.0474L5.96411 14.4502C5.8147 14.4978 5.66943 14.5552 5.5293 14.6211C5.41675 13.9978 4.87158 13.5232 4.21655 13.5232H1.33496C0.598877 13.5232 0 14.1221 0 14.8582V15.9958C0 16.7322 0.598877 17.3311 1.33496 17.3311H1.80396C2.0625 17.3311 2.27222 17.1213 2.27222 16.8625C2.27222 16.604 2.0625 16.3943 1.80396 16.3943H1.33496C1.11548 16.3943 0.936768 16.2156 0.936768 15.9958V14.8584C0.936768 14.6387 1.11548 14.46 1.33496 14.46H4.21655C4.43628 14.46 4.61475 14.6387 4.61475 14.8584V15.2371C3.90479 15.8936 3.45923 16.832 3.45923 17.873V21.5879C3.45923 22.592 3.87402 23.5007 4.54077 24.1531V26.7664C4.54077 27.5942 5.21436 28.2678 6.04224 28.2678H7.90527C8.73315 28.2678 9.40698 27.5942 9.40698 26.7664V25.179H22.593V26.7664C22.593 27.5942 23.2668 28.2678 24.0947 28.2678H25.9578C26.7856 28.2678 27.4592 27.5942 27.4592 26.7664V24.1531C28.126 23.5007 28.5408 22.592 28.5408 21.5879V17.873C28.5408 17.6887 28.5266 17.5078 28.4998 17.3311H30.665C31.4011 17.3311 32 16.7322 32 15.9958V14.8584C32 14.1221 31.4011 13.5232 30.665 13.5232V13.5232ZM8.46997 26.7661C8.46997 27.0776 8.2168 27.3311 7.90527 27.3311H6.04224C5.73071 27.3311 5.47754 27.0776 5.47754 26.7661V24.8154C5.95288 25.0479 6.48633 25.1787 7.05029 25.1787H8.46997V26.7661ZM26.5225 26.7661C26.5225 27.0776 26.269 27.3311 25.9578 27.3311H24.0947C23.7832 27.3311 23.53 27.0776 23.53 26.7661V25.1787H24.9497C25.5137 25.1787 26.0474 25.0479 26.5225 24.8154V26.7661ZM27.604 21.5876C27.604 23.0513 26.4133 24.2419 24.9497 24.2419H7.05029C5.58667 24.2419 4.396 23.0513 4.396 21.5876V17.873C4.396 16.4094 5.58667 15.2188 7.05029 15.2188H18.8535C19.1121 15.2188 19.3218 15.009 19.3218 14.7502C19.3218 14.4917 19.1121 14.282 18.8535 14.282H7.05029C7.03125 14.282 7.01245 14.283 6.99341 14.2834L7.89917 11.29C7.90527 11.2695 7.91016 11.2485 7.91333 11.2273C7.97559 10.8318 8.31152 10.5447 8.71191 10.5447H21.5024C21.5237 10.6123 21.5435 10.6812 21.5608 10.7524L21.7529 11.5369C21.8218 11.8184 22.0723 12.0149 22.3623 12.0149C22.6521 12.0149 22.9026 11.8184 22.9714 11.5369L23.1636 10.7524C23.1809 10.6814 23.2007 10.6123 23.2219 10.5447H23.3411C23.7388 10.5447 24.0825 10.8416 24.1406 11.2351C24.1438 11.2559 24.1482 11.2766 24.1541 11.2966L25.0178 14.2837C24.9951 14.2832 24.9724 14.282 24.9495 14.282H21.0808C20.822 14.282 20.6123 14.4917 20.6123 14.7502C20.6123 15.009 20.822 15.2188 21.0808 15.2188H24.9495C26.4131 15.2188 27.6038 16.4094 27.6038 17.873V21.5876H27.604ZM31.0632 15.9958C31.0632 16.2156 30.8845 16.3943 30.665 16.3943H28.2209C28.0212 15.9541 27.7356 15.561 27.3853 15.2371V14.8582C27.3853 14.6387 27.564 14.46 27.7834 14.46H30.665C30.8845 14.46 31.0632 14.6387 31.0632 14.8582V15.9958Z" fill="black"/>
<path d="M5.87378 16.1885C5.22681 16.1885 4.7002 16.7151 4.7002 17.3621V20.3657C4.7002 21.0127 5.22656 21.5393 5.87378 21.5393H11.9158V22.3079C11.9158 22.9104 12.406 23.4009 13.0088 23.4009H18.9912C19.594 23.4009 20.0842 22.9104 20.0842 22.3079V21.5393H26.1262C26.7732 21.5393 27.2998 21.0129 27.2998 20.3657V17.3621C27.2998 16.7151 26.7734 16.1885 26.1262 16.1885H5.87378ZM19.1475 22.3079C19.1475 22.394 19.0774 22.4641 18.9912 22.4641H13.0088C12.9226 22.4641 12.8525 22.394 12.8525 22.3079V21.5393H19.1475V22.3079ZM26.363 17.3621V20.3657C26.363 20.4963 26.2568 20.6025 26.1262 20.6025H5.87378C5.74316 20.6025 5.63696 20.4963 5.63696 20.3657V17.3621C5.63696 17.2314 5.74316 17.1252 5.87378 17.1252H26.1262C26.2568 17.1252 26.363 17.2314 26.363 17.3621V17.3621Z" fill="black"/>
<path d="M16 17.1953C15.7412 17.1953 15.5317 17.405 15.5317 17.6638V19.8716C15.5317 20.1301 15.7412 20.3398 16 20.3398C16.2588 20.3398 16.4683 20.1301 16.4683 19.8716V17.6638C16.4683 17.405 16.2588 17.1953 16 17.1953V17.1953Z" fill="black"/>
<path d="M14.0618 17.1953C13.8032 17.1953 13.5935 17.405 13.5935 17.6638V19.8716C13.5935 20.1301 13.8032 20.3398 14.0618 20.3398C14.3206 20.3398 14.5303 20.1301 14.5303 19.8716V17.6638C14.5303 17.405 14.3206 17.1953 14.0618 17.1953V17.1953Z" fill="black"/>
<path d="M12.1238 17.1953C11.865 17.1953 11.6553 17.405 11.6553 17.6638V19.8716C11.6553 20.1301 11.865 20.3398 12.1238 20.3398C12.3823 20.3398 12.592 20.1301 12.592 19.8716V17.6638C12.592 17.405 12.3823 17.1953 12.1238 17.1953V17.1953Z" fill="black"/>
<path d="M17.9382 17.1953C17.6794 17.1953 17.4697 17.405 17.4697 17.6638V19.8716C17.4697 20.1301 17.6794 20.3398 17.9382 20.3398C18.1968 20.3398 18.4065 20.1301 18.4065 19.8716V17.6638C18.4065 17.405 18.1968 17.1953 17.9382 17.1953V17.1953Z" fill="black"/>
<path d="M19.8762 17.1953C19.6177 17.1953 19.408 17.405 19.408 17.6638V19.8716C19.408 20.1301 19.6177 20.3398 19.8762 20.3398C20.135 20.3398 20.3447 20.1301 20.3447 19.8716V17.6638C20.3447 17.405 20.135 17.1953 19.8762 17.1953V17.1953Z" fill="black"/>
<path d="M24.6313 3.3335C24.6536 3.34814 24.6772 3.36108 24.7017 3.37183C25.3547 3.66089 25.7607 4.11279 25.908 4.71484L26.0264 5.19751C26.0884 5.45166 26.3145 5.62915 26.5762 5.62915C26.8376 5.62915 27.0637 5.45166 27.126 5.19751L27.2441 4.71484C27.3916 4.11279 27.7976 3.66089 28.4507 3.37183C28.4751 3.36108 28.4985 3.34814 28.5208 3.3335C28.6841 3.22461 28.7817 3.04224 28.782 2.84595C28.782 2.64966 28.6843 2.46729 28.521 2.3584C28.4988 2.34351 28.4751 2.33057 28.4507 2.31958C27.7976 2.03076 27.3916 1.57886 27.2441 0.976807L27.126 0.494141V0.493897C27.0637 0.23999 26.8376 0.0625 26.5762 0.0625C26.3145 0.0625 26.0884 0.23999 26.0261 0.494141L25.908 0.976807C25.7607 1.57886 25.3547 2.03076 24.7017 2.31958C24.677 2.33057 24.6536 2.34351 24.6311 2.3584C24.4678 2.46729 24.3704 2.64966 24.3704 2.84595C24.3704 3.04248 24.468 3.22461 24.6313 3.3335V3.3335ZM26.5762 1.84082C26.7847 2.23657 27.0884 2.57471 27.4785 2.84595C27.0884 3.11694 26.7847 3.45508 26.5762 3.85083C26.3677 3.45508 26.064 3.11694 25.6736 2.84595C26.064 2.57471 26.3677 2.23657 26.5762 1.84082Z" fill="black"/>
<path d="M1.84546 9.22388C1.86768 9.23853 1.89136 9.25146 1.91577 9.26245C2.56885 9.55127 2.97485 10.0032 3.12231 10.6052L3.24048 11.0881C3.30273 11.3423 3.52881 11.5195 3.79028 11.5195H3.79053C4.052 11.5195 4.27808 11.342 4.34009 11.0881L4.4585 10.6052C4.60571 10.0032 5.01172 9.55151 5.66479 9.26245C5.68921 9.25146 5.71265 9.23877 5.73511 9.22388C5.89844 9.11499 5.99609 8.93262 5.99609 8.73633C5.99609 8.53979 5.89844 8.35767 5.73511 8.24878C5.71265 8.23389 5.68921 8.22095 5.66479 8.21021C5.01172 7.92114 4.60571 7.46948 4.4585 6.86719L4.34009 6.38452C4.27808 6.13062 4.052 5.95312 3.79053 5.95312H3.79028C3.52881 5.95312 3.30273 6.13037 3.24048 6.38452L3.12231 6.86719C2.97485 7.46924 2.56885 7.92114 1.91577 8.21021C1.89136 8.22095 1.86768 8.23389 1.84546 8.24878C1.68213 8.35767 1.58447 8.54004 1.58447 8.73633C1.58472 8.93262 1.68213 9.11499 1.84546 9.22388ZM3.79028 7.7312C3.99878 8.12695 4.30249 8.46533 4.69287 8.73633C4.30249 9.00732 3.99878 9.3457 3.79028 9.74146C3.58179 9.3457 3.27808 9.00732 2.8877 8.73633C3.27808 8.46533 3.58179 8.12695 3.79028 7.7312Z" fill="black"/>
<path d="M7.67212 17.1953C6.76514 17.1953 6.02734 17.9331 6.02734 18.8401C6.02734 19.7468 6.76514 20.4846 7.67212 20.4846C8.57886 20.4846 9.31665 19.7468 9.31665 18.8401C9.31665 17.9331 8.57886 17.1953 7.67212 17.1953ZM7.67212 19.5479C7.28174 19.5479 6.96436 19.2302 6.96436 18.8401C6.96436 18.4497 7.28174 18.1321 7.67212 18.1321C8.06226 18.1321 8.37988 18.4497 8.37988 18.8401C8.37988 19.2302 8.0625 19.5479 7.67212 19.5479Z" fill="black"/>
<path d="M24.3279 17.1953C23.4211 17.1953 22.6833 17.9331 22.6833 18.8401C22.6833 19.7468 23.4211 20.4846 24.3279 20.4846C25.2349 20.4846 25.9724 19.7468 25.9724 18.8401C25.9727 17.9331 25.2349 17.1953 24.3279 17.1953ZM24.3279 19.5479C23.9375 19.5479 23.6201 19.2302 23.6201 18.8401C23.6201 18.4497 23.9375 18.1321 24.3279 18.1321C24.7183 18.1321 25.0356 18.4497 25.0356 18.8401C25.0356 19.2302 24.7183 19.5479 24.3279 19.5479V19.5479Z" fill="black"/>
</g>
<defs>
<clipPath id="clip0_23_811">
<rect width="32" height="32" fill="white"/>
</clipPath>
</defs>
</svg>
