<svg width="32" height="32" viewBox="0 0 32 32" fill="none" xmlns="http://www.w3.org/2000/svg">
<g clip-path="url(#clip0_21_704)">
<path d="M31.1521 12.524C30.9739 12.524 30.7931 12.5762 30.6147 12.6792L25.3744 15.7046V12.7481C25.3744 12.145 24.8838 11.6543 24.2807 11.6543H7.13126C6.58995 11.0279 5.79063 10.6304 4.89976 10.6304C3.27332 10.6304 1.95007 11.9536 1.95007 13.5801V17.3646H0.862571C0.619633 17.3646 0.386758 17.4677 0.223946 17.6473C0.0606958 17.8271 -0.0194292 18.0687 0.00400827 18.3101C0.121008 19.52 0.682508 20.6404 1.58501 21.4649C2.37751 22.1887 3.37413 22.6287 4.43107 22.7296V24.8863H1.5867C0.983633 24.8863 0.492946 25.3769 0.492946 25.9801V26.8566C0.492946 27.4596 0.983633 27.9503 1.5867 27.9503H4.81245C5.07132 27.9503 5.2812 27.7404 5.2812 27.4816C5.2812 27.2227 5.07132 27.0128 4.81245 27.0128H1.5867C1.50201 27.0128 1.43045 26.9412 1.43045 26.8566V25.9801C1.43045 25.8954 1.50201 25.8238 1.5867 25.8238H8.21288C8.29757 25.8238 8.36913 25.8954 8.36913 25.9801V26.8566C8.36913 26.9412 8.29757 27.0128 8.21288 27.0128H6.99995C6.74107 27.0128 6.5312 27.2227 6.5312 27.4816C6.5312 27.7404 6.74107 27.9503 6.99995 27.9503H8.21282C8.79232 27.9503 9.2667 27.4969 9.30301 26.9264H24.2807C24.8838 26.9264 25.3744 26.4357 25.3744 25.8327V22.8761L30.6148 25.9016C30.7931 26.0046 30.9739 26.0568 31.1521 26.0568H31.1521C31.4073 26.0568 31.6343 25.9492 31.7913 25.7539C31.9278 25.5838 32 25.3584 32 25.1018V13.4789C31.9999 12.9167 31.6513 12.524 31.1521 12.524V12.524ZM2.88751 13.5801C2.88751 12.4706 3.7902 11.5679 4.8997 11.5679C6.00926 11.5679 6.91195 12.4706 6.91195 13.5801V16.2226H2.88751V13.5801ZM2.88751 17.1601H6.91201V17.8334C6.91201 18.9429 6.00932 19.8456 4.89976 19.8456C3.79026 19.8456 2.88757 18.9429 2.88757 17.8334V17.1601H2.88751ZM2.21726 20.7727C1.50695 20.1239 1.05757 19.2492 0.945946 18.3021H1.9877C2.21301 19.7066 3.43282 20.7831 4.89976 20.7831C6.3667 20.7831 7.58657 19.7066 7.81188 18.3021H8.85363C8.74207 19.2491 8.29263 20.1238 7.58232 20.7727C6.8467 21.4446 5.89401 21.8146 4.89976 21.8146C3.90551 21.8146 2.95282 21.4446 2.21726 20.7727ZM24.4369 25.8327C24.4369 25.9174 24.3654 25.989 24.2807 25.989H9.30657V25.9801C9.30657 25.3769 8.81588 24.8863 8.21282 24.8863H5.36845V22.7296C6.42538 22.6287 7.42207 22.1887 8.21457 21.4649C9.11701 20.6404 9.67851 19.5201 9.79551 18.3104C9.81901 18.0687 9.73882 17.8271 9.57582 17.6476C9.41276 17.4677 9.17995 17.3646 8.93695 17.3646H7.84945V13.5801C7.84945 13.2336 7.78888 12.901 7.67863 12.5918H24.2807C24.3654 12.5918 24.4369 12.6634 24.4369 12.7481V25.8327ZM31.0624 25.0777L28.8399 23.7945V21.8126C28.8399 21.5537 28.6301 21.3438 28.3712 21.3438C28.1123 21.3438 27.9024 21.5537 27.9024 21.8126V23.2532L25.3744 21.7936V16.7871L27.9024 15.3276V19.6251C27.9024 19.8839 28.1123 20.0938 28.3712 20.0938C28.6301 20.0938 28.8399 19.8839 28.8399 19.6251V14.7864L31.0624 13.5032V25.0777Z" fill="black"/>
<path d="M18.7672 18.5735L13.0435 15.3034C12.8879 15.2146 12.729 15.1694 12.5714 15.1694C12.1242 15.1694 11.7996 15.5294 11.7996 16.0254V22.5556C11.7996 23.0516 12.1242 23.4116 12.5714 23.4116C12.729 23.4116 12.8879 23.3665 13.0436 23.2776L18.7672 20.0076C19.0596 19.8406 19.2273 19.5791 19.2273 19.2905C19.2273 19.0019 19.0596 18.7405 18.7672 18.5735V18.5735ZM12.737 22.373V16.2081L18.1324 19.2905L12.737 22.373Z" fill="black"/>
<path d="M5.4904 12.7573H4.30896C4.05008 12.7573 3.84021 12.9672 3.84021 13.2261C3.84021 13.4849 4.05008 13.6948 4.30896 13.6948H5.49033C5.74921 13.6948 5.95908 13.4849 5.95908 13.2261C5.95915 12.9672 5.74927 12.7573 5.4904 12.7573Z" fill="black"/>
<path d="M5.4904 14.4897H4.30896C4.05008 14.4897 3.84021 14.6996 3.84021 14.9585C3.84021 15.2174 4.05008 15.4272 4.30896 15.4272H5.49033C5.74921 15.4272 5.95908 15.2174 5.95908 14.9585C5.95915 14.6996 5.74927 14.4897 5.4904 14.4897Z" fill="black"/>
<path d="M16 9.61865C15.4772 9.61865 14.9734 9.84034 14.6178 10.2269C14.4426 10.4174 14.4549 10.714 14.6454 10.8893C14.7354 10.9722 14.8492 11.013 14.9626 11.013C15.0891 11.013 15.2152 10.9621 15.3077 10.8617C15.4889 10.6647 15.7347 10.5562 15.9999 10.5562C16.2651 10.5562 16.5109 10.6647 16.6922 10.8617C16.8675 11.0522 17.1641 11.0645 17.3546 10.8892C17.5451 10.7139 17.5574 10.4174 17.3821 10.2269C17.0264 9.84034 16.5227 9.61865 16 9.61865V9.61865Z" fill="black"/>
<path d="M18.0583 9.60521C18.1508 9.70564 18.2769 9.75652 18.4034 9.75652C18.5168 9.75652 18.6306 9.71558 18.7207 9.63271C18.9112 9.45739 18.9235 9.16083 18.7481 8.97033C18.0415 8.20252 17.0398 7.76221 16 7.76221C14.9601 7.76221 13.9584 8.20252 13.2518 8.97033C13.0765 9.16083 13.0888 9.45733 13.2792 9.63271C13.4697 9.80808 13.7663 9.79571 13.9416 9.60527C14.4712 9.02977 15.2215 8.69977 16 8.69977C16.7785 8.69964 17.5287 9.02971 18.0583 9.60521V9.60521Z" fill="black"/>
<path d="M16.5681 6.87819C16.8253 6.90987 17.0588 6.72681 17.0903 6.46981C17.1217 6.21287 16.9389 5.97906 16.6819 5.94769C16.4573 5.92019 16.2278 5.90625 16 5.90625C14.4436 5.90625 12.9442 6.56544 11.8863 7.71481C11.711 7.90525 11.7233 8.20181 11.9138 8.37713C12.0038 8.46006 12.1176 8.501 12.2311 8.501C12.3576 8.501 12.4837 8.45012 12.5761 8.34969C13.457 7.39262 14.705 6.84375 16 6.84375C16.1899 6.84375 16.381 6.85531 16.5681 6.87819Z" fill="black"/>
<path d="M19.4238 8.34942C19.5162 8.44986 19.6423 8.50073 19.7689 8.50073C19.8823 8.50073 19.9961 8.45979 20.0862 8.37692C20.2767 8.20161 20.289 7.90504 20.1137 7.71454C19.7662 7.33711 19.3694 7.00904 18.9342 6.73967C18.7139 6.60342 18.4251 6.67142 18.2889 6.89154C18.1526 7.11167 18.2206 7.40061 18.4407 7.53686C18.8034 7.76129 19.1342 8.03467 19.4238 8.34942Z" fill="black"/>
<path d="M10.8653 7.24468C10.9918 7.24468 11.1179 7.19374 11.2103 7.09337C12.4421 5.75493 14.1879 4.9873 16 4.9873C17.812 4.9873 19.5578 5.75493 20.7898 7.09337C20.9651 7.28387 21.2616 7.29618 21.4521 7.1208C21.6426 6.94549 21.6548 6.64893 21.4795 6.45849C20.0706 4.92774 18.0734 4.0498 16 4.0498C13.9266 4.0498 11.9293 4.92774 10.5204 6.45849C10.3451 6.64899 10.3574 6.94549 10.5479 7.12087C10.638 7.20368 10.7518 7.24468 10.8653 7.24468V7.24468Z" fill="black"/>
</g>
<defs>
<clipPath id="clip0_21_704">
<rect width="32" height="32" fill="white"/>
</clipPath>
</defs>
</svg>
