<svg xmlns="http://www.w3.org/2000/svg" xmlns:xlink="http://www.w3.org/1999/xlink" width="60" height="60" viewBox="0 0 60 60">
  <defs>
    <clipPath id="clip-path">
      <rect id="Rectangle_12535" data-name="Rectangle 12535" width="44.48" height="54"/>
    </clipPath>
  </defs>
  <g id="Group_37654" data-name="Group 37654" transform="translate(-423 -1990)">
    <g id="Rectangle_12523" data-name="Rectangle 12523" transform="translate(423 1990)" stroke="#707070" stroke-width="1" opacity="0">
      <rect width="60" height="60" stroke="none"/>
      <rect x="0.5" y="0.5" width="59" height="59" fill="none"/>
    </g>
    <g id="Group_37656" data-name="Group 37656" transform="translate(431 1993)">
      <g id="Group_37655" data-name="Group 37655" clip-path="url(#clip-path)">
        <path id="Path_105357" data-name="Path 105357" d="M66.88,0a10.751,10.751,0,0,1,1.042.333A4.527,4.527,0,0,1,70.9,4.39c.093,1.453.035,2.916.045,4.374,0,.209,0,.418,0,.716.807,0,1.572-.013,2.337,0a2.732,2.732,0,0,1,2.531,1.6,3.455,3.455,0,0,1,.315,1.316c.048.859.022,1.722.013,2.583-.006.624-.3.965-.8.962s-.77-.328-.775-.974c-.005-.808.008-1.617,0-2.425a1.341,1.341,0,0,0-1.513-1.483q-9.387,0-18.774,0a1.345,1.345,0,0,0-1.516,1.529q-.005,5.088,0,10.176a1.384,1.384,0,0,0,1.585,1.58c4.939,0,9.879.021,14.818-.012a4.082,4.082,0,0,1,3.2,1.3c.659.7,1.377,1.346,2.2,2.143V27.09c0-2.654,0-5.308.006-7.962a1.127,1.127,0,0,1,.153-.693.966.966,0,0,1,.71-.314,1.19,1.19,0,0,1,.626.47.872.872,0,0,1,.085.507c0,2.794.011,5.589,0,8.383a1.628,1.628,0,0,1-2.157,1.708,2.388,2.388,0,0,1-.775-.523c-.727-.677-1.432-1.379-2.262-2.183v.745q0,6.459,0,12.918c0,.141,0,.281,0,.422-.015.656-.266.98-.767.994-.523.015-.813-.324-.813-1q-.007-5.325,0-10.651V25.93H54.428a2.956,2.956,0,0,1-3.259-3.27c0-3.3.051-6.609-.02-9.912a3.1,3.1,0,0,1,3.264-3.292c4.745.067,9.492.022,14.238.022h.669c.015-.213.036-.382.037-.55,0-1.318.009-2.636,0-3.954a3.17,3.17,0,0,0-3.4-3.391q-12.05,0-24.1,0a3.166,3.166,0,0,0-3.4,3.384c-.009,1.353,0,2.707,0,4.06a3.168,3.168,0,0,1-.027.525.726.726,0,0,1-.763.66.716.716,0,0,1-.763-.658,5.426,5.426,0,0,1-.029-.789c0-1.283-.014-2.566,0-3.849A4.718,4.718,0,0,1,40.748.087.959.959,0,0,0,40.932,0Z" transform="translate(-31.672)"/>
        <path id="Path_105358" data-name="Path 105358" d="M1.7,122.272c.714-.7,1.447-1.379,2.137-2.1a3.992,3.992,0,0,1,3.067-1.254c4.939.019,9.878.008,14.817.007,1.2,0,1.664-.456,1.665-1.646q0-4.982,0-9.964c0-1.2-.479-1.675-1.7-1.678-.633,0-1.266.006-1.9,0-.544-.007-.886-.3-.907-.749a.818.818,0,0,1,.9-.826c.791-.014,1.583-.03,2.372.006a2.881,2.881,0,0,1,2.815,2.908q.025,5.3,0,10.6a2.872,2.872,0,0,1-2.993,2.934q-7.25.009-14.5,0H6.82c-.015.207-.037.36-.037.513,0,1.107-.012,2.214,0,3.321a3.161,3.161,0,0,0,3.359,3.323q3.164.006,6.328,0H34.189a3.2,3.2,0,0,0,3.5-3.505c0-1.336,0-2.671,0-4.007a4.149,4.149,0,0,1,.013-.474.777.777,0,0,1,.8-.748.757.757,0,0,1,.757.734,5.29,5.29,0,0,1,.015.579c-.005,1.494.042,2.99-.031,4.48a4.668,4.668,0,0,1-4.762,4.518c-4.429.016-8.859,0-13.288,0q-5.484,0-10.968,0a4.752,4.752,0,0,1-5.02-4.978c-.009-1.012,0-2.024,0-3.2-.763.744-1.409,1.378-2.06,2.006a4.53,4.53,0,0,1-.591.522,1.6,1.6,0,0,1-2.482-.991A3.661,3.661,0,0,1,0,121.822Q0,114.6,0,107.376a2.978,2.978,0,0,1,3.319-3.321H5.2v-.689q0-7.2,0-14.393c0-.193-.008-.388.007-.58a.785.785,0,1,1,1.569.022c.013.175.006.351.006.527q0,7.17,0,14.34v.772h.635q4.113,0,8.226,0a1.973,1.973,0,0,1,.621.075.637.637,0,0,1,.474.819,1.653,1.653,0,0,1-.633.66c-.118.084-.341.024-.517.025H3.3c-1.247,0-1.717.471-1.718,1.72q0,7.17,0,14.34v.514l.12.06" transform="translate(0 -75.251)"/>
        <path id="Path_105359" data-name="Path 105359" d="M193.811,90.555a3.557,3.557,0,0,1,4.6,0,3.434,3.434,0,0,1,.237,5.1c-1.2,1.235-2.428,2.445-3.656,3.652a1.558,1.558,0,0,1-2.342-.011q-1.822-1.795-3.622-3.613A3.42,3.42,0,0,1,188.785,91a3.526,3.526,0,0,1,4.66-.7c.117.077.23.161.365.257m.019,7.66c1.284-1.278,2.544-2.5,3.763-3.76a1.655,1.655,0,0,0,.295-2,1.871,1.871,0,0,0-1.8-1.148,1.97,1.97,0,0,0-1.593.881.783.783,0,0,1-1.361,0,4,4,0,0,0-.305-.361,1.935,1.935,0,0,0-2.669.009,1.811,1.811,0,0,0-.2,2.519c1.251,1.3,2.554,2.555,3.865,3.858" transform="translate(-161.493 -77.079)"/>
        <path id="Path_105360" data-name="Path 105360" d="M52.938,227.839a3.632,3.632,0,0,1,2.96-.773,3.46,3.46,0,0,1,2.033,5.646c-1.244,1.4-2.623,2.693-3.974,4a1.481,1.481,0,0,1-2.1-.044c-1.319-1.29-2.636-2.584-3.912-3.916a3.372,3.372,0,0,1-.065-4.442,3.5,3.5,0,0,1,4.516-.824c.18.106.352.228.542.353m-.034,7.7c1.312-1.308,2.6-2.526,3.813-3.821a1.913,1.913,0,1,0-2.992-2.382c-.6.72-.98.717-1.593-.013a2.488,2.488,0,0,0-.176-.2,1.922,1.922,0,0,0-2.706.026,1.842,1.842,0,0,0-.012,2.681c1.207,1.227,2.421,2.446,3.666,3.7" transform="translate(-40.446 -195.022)"/>
        <path id="Path_105361" data-name="Path 105361" d="M127.976,24.03c-.807,0-1.614,0-2.421,0-.609,0-.958-.311-.945-.812.012-.476.353-.765.936-.767q2.473-.008,4.946,0c.61,0,.959.31.945.811-.013.476-.354.763-.937.768-.842.006-1.684,0-2.526,0" transform="translate(-107.056 -19.285)"/>
        <path id="Path_105362" data-name="Path 105362" d="M181.514,24.056a.788.788,0,1,1,.814-.72.783.783,0,0,1-.814.72" transform="translate(-155.314 -19.315)"/>
      </g>
    </g>
  </g>
</svg>
