<svg xmlns="http://www.w3.org/2000/svg" width="32.002" height="32" viewBox="0 0 32.002 32">
  <g id="Group_37998" data-name="Group 37998" transform="translate(0 -0.016)">
    <g id="Group_37998-2" data-name="Group 37998" transform="translate(0 0.016)">
      <g id="Page-1_1_" transform="translate(0 0)">
        <g id="_x30_02---Get-Points">
          <path id="Shape_13_" d="M30.761,8.967l.725-.735a1.8,1.8,0,0,0,.42-1.843A1.713,1.713,0,0,0,30.54,5.215l-3.491-.527a.644.644,0,0,1-.48-.373L25,1a1.678,1.678,0,0,0-3.058,0L20.364,4.318a.644.644,0,0,1-.48.373l-3.491.527a1.713,1.713,0,0,0-1.365,1.173,1.8,1.8,0,0,0,.42,1.843l.313.32H2.667A2.67,2.67,0,0,0,0,11.222V29.349a2.67,2.67,0,0,0,2.667,2.667H29.334A2.67,2.67,0,0,0,32,29.349V11.216a2.65,2.65,0,0,0-1.24-2.249Zm-14.72-2.24a.643.643,0,0,1,.513-.454l3.491-.527a1.709,1.709,0,0,0,1.284-.969L22.9,1.462a.613.613,0,0,1,1.132,0l1.573,3.315a1.709,1.709,0,0,0,1.283.969l3.491.527a.643.643,0,0,1,.513.454.741.741,0,0,1-.167.756l-2.507,2.538a1.813,1.813,0,0,0-.486,1.564l.594,3.6a.721.721,0,0,1-.283.716.578.578,0,0,1-.628.038l-3.155-1.724a1.653,1.653,0,0,0-1.589,0L19.52,15.94a.578.578,0,0,1-.628-.038.72.72,0,0,1-.283-.716l.591-3.6a1.813,1.813,0,0,0-.489-1.564l-2.5-2.538a.741.741,0,0,1-.167-.757ZM2.667,9.616H16.814l1.139,1.154a.741.741,0,0,1,.2.64l-.594,3.6a1.78,1.78,0,0,0,.719,1.76,1.648,1.648,0,0,0,1.756.107l3.154-1.724a.587.587,0,0,1,.566,0L26.9,16.878a1.647,1.647,0,0,0,1.756-.107,1.78,1.78,0,0,0,.719-1.76l-.594-3.6a.74.74,0,0,1,.2-.64l1-1.013a1.587,1.587,0,0,1,.953,1.459V21.349H1.067V11.216a1.6,1.6,0,0,1,1.6-1.6ZM30.934,26.683H1.067V22.416H30.934v4.267Zm-1.6,4.267H2.667a1.6,1.6,0,0,1-1.6-1.6v-1.6H30.934v1.6A1.6,1.6,0,0,1,29.334,30.949Z" transform="translate(0 -0.016)"/>
          <path id="Shape_12_" d="M367.459,258.638a.525.525,0,0,0,.525-.525v-1.575a.525.525,0,0,0-1.05,0v1.575A.525.525,0,0,0,367.459,258.638Z" transform="translate(-343.988 -239.991)"/>
          <path id="Shape_11_" d="M367.459,308.788a.525.525,0,0,0,.525-.525v-.525a.525.525,0,1,0-1.05,0v.525A.525.525,0,0,0,367.459,308.788Z" transform="translate(-343.988 -287.997)"/>
          <path id="Shape_10_" d="M401.592,275.7a.525.525,0,0,0,.525-.525V273.6a.525.525,0,0,0-1.05,0v1.575A.525.525,0,0,0,401.592,275.7Z" transform="translate(-375.987 -255.988)"/>
          <path id="Shape_9_" d="M333.325,275.7a.525.525,0,0,0,.525-.525V273.6a.525.525,0,0,0-1.05,0v1.575A.525.525,0,0,0,333.325,275.7Z" transform="translate(-311.989 -255.988)"/>
          <path id="Shape_8_" d="M52.775,194.046h5.251a1.575,1.575,0,0,0,1.575-1.575v-3.15a1.575,1.575,0,0,0-1.575-1.575H52.775A1.575,1.575,0,0,0,51.2,189.32v3.15A1.575,1.575,0,0,0,52.775,194.046Zm-.525-4.726a.525.525,0,0,1,.525-.525h5.251a.525.525,0,0,1,.525.525v3.15a.525.525,0,0,1-.525.525H52.775a.525.525,0,0,1-.525-.525Z" transform="translate(-48.05 -175.966)"/>
        </g>
      </g>
    </g>
  </g>
</svg>
