<svg xmlns="http://www.w3.org/2000/svg" xmlns:xlink="http://www.w3.org/1999/xlink" width="60" height="60" viewBox="0 0 60 60">
  <defs>
    <clipPath id="clip-path">
      <rect id="Rectangle_12562" data-name="Rectangle 12562" width="54" height="53.008" fill="#fe5c58"/>
    </clipPath>
  </defs>
  <g id="Group_37651" data-name="Group 37651" transform="translate(-423 -1990)">
    <g id="Rectangle_12523" data-name="Rectangle 12523" transform="translate(423 1990)" fill="#fe5c58" stroke="#707070" stroke-width="1" opacity="0">
      <rect width="60" height="60" stroke="none"/>
      <rect x="0.5" y="0.5" width="59" height="59" fill="none"/>
    </g>
    <g id="Group_37683" data-name="Group 37683" transform="translate(426 1993)">
      <g id="Group_37682" data-name="Group 37682" clip-path="url(#clip-path)">
        <path id="Path_105428" data-name="Path 105428" d="M54,211.085c-.044.129-.094.257-.131.388a4.379,4.379,0,0,1-3.175,3.3c-4.514,1.187-9.034,2.359-13.577,3.428a11.787,11.787,0,0,1-7.131-.7q-3.476-1.375-6.958-2.734c-.114-.045-.23-.088-.341-.141a1.059,1.059,0,0,1-.592-1.4,1.032,1.032,0,0,1,1.36-.557c1.492.568,2.972,1.168,4.463,1.741,1.359.522,2.705,1.089,4.092,1.523a11.642,11.642,0,0,0,6.592-.223c3.7-.98,7.411-1.9,11.117-2.846a2.545,2.545,0,0,0,2.166-2.593,2.511,2.511,0,0,0-3.159-2.3c-3.491.795-6.979,1.6-10.47,2.393a12.514,12.514,0,0,1-7.4-.534q-5.038-1.933-10.072-3.877c-.082-.031-.166-.059-.244-.1a1.059,1.059,0,0,1-.584-1.361A1.027,1.027,0,0,1,21.3,203.9c1.187.433,2.362.9,3.541,1.35,1.147.44,2.291.887,3.44,1.321a2.7,2.7,0,0,0,3.595-1.543,2.636,2.636,0,0,0-1.55-3.5q-5.027-2.1-10.066-4.175a1.514,1.514,0,0,0-.556-.129q-4.666-.011-9.333,0a2.112,2.112,0,0,0-.234.03v11.868c1.183,0,2.338,0,3.493,0a6.088,6.088,0,0,1,.737.021,1.018,1.018,0,0,1,.935,1.028.988.988,0,0,1-.972,1.039c-1.159.036-2.319.02-3.479.025H10.1c0,.342.012.635,0,.926A1.075,1.075,0,0,1,8.919,213.3q-3.875.01-7.751,0A1.063,1.063,0,0,1,0,212.107Q0,202.967,0,193.828A1.075,1.075,0,0,1,1.2,192.609q3.849-.012,7.7,0a1.1,1.1,0,0,1,1.2,1.221c.01.4,0,.8,0,1.279h.659c2.988,0,5.976-.009,8.963.011a3.354,3.354,0,0,1,1.22.241c3.362,1.376,6.69,2.84,10.076,4.152a4.862,4.862,0,0,1,1.375,8.3,1.326,1.326,0,0,1-.226.126l.046.195c.82.136,1.635.315,2.46.4a15.338,15.338,0,0,0,5.04-.665c2.873-.662,5.742-1.343,8.623-1.967a4.577,4.577,0,0,1,5.574,3.624.932.932,0,0,0,.087.184Zm-46.039.1V194.749H2.145v16.438H7.961Z" transform="translate(0 -165.465)" fill="#fe5c58"/>
        <path id="Path_105429" data-name="Path 105429" d="M146.918,52.767c-.132.892-.229,1.784-.4,2.66-.17.846-.679,1.115-1.521.9a1.643,1.643,0,0,0-2.192,1.85,2.176,2.176,0,0,0,.543.988,1.13,1.13,0,0,1-.04,1.821,11.109,11.109,0,0,1-4.514,2.62c-.891.266-1.369,0-1.61-.889a1.671,1.671,0,0,0-3.279,0,1.111,1.111,0,0,1-1.617.894,11.2,11.2,0,0,1-4.554-2.655,1.075,1.075,0,0,1,0-1.771,1.676,1.676,0,0,0-1.636-2.86,1.09,1.09,0,0,1-1.553-.925,11.274,11.274,0,0,1,.008-5.332,1.078,1.078,0,0,1,1.493-.878,1.682,1.682,0,0,0,1.657-2.879,1.066,1.066,0,0,1,.018-1.735,11.174,11.174,0,0,1,4.546-2.668c.923-.283,1.388-.021,1.646.914a1.636,1.636,0,0,0,2.635.965,2.363,2.363,0,0,0,.637-1.049c.259-.79.719-1.09,1.51-.863a11.141,11.141,0,0,1,4.656,2.683,1.1,1.1,0,0,1,.014,1.777,1.677,1.677,0,0,0,1.659,2.859,1.06,1.06,0,0,1,1.507.911c.173.876.267,1.769.4,2.669M126.4,54.1a3.837,3.837,0,0,1,3.4,5.942l2.3,1.323c1.945-2.82,4.641-2.807,6.909,0l2.277-1.326a3.878,3.878,0,0,1-.555-2.909,3.769,3.769,0,0,1,3.438-3c.174-.015.478-.146.482-.233.037-.815.022-1.632.022-2.462a3.823,3.823,0,0,1-3.533-1.949,3.9,3.9,0,0,1,.132-4.023l-2.3-1.316a3.847,3.847,0,0,1-3.464,2.114,3.892,3.892,0,0,1-3.418-2.119l-2.294,1.341a3.807,3.807,0,0,1,.116,4.049,3.857,3.857,0,0,1-3.509,1.913Z" transform="translate(-106.717 -35.905)" fill="#fe5c58"/>
        <path id="Path_105430" data-name="Path 105430" d="M70.739,19.962a37.1,37.1,0,0,1-.115-3.772c.462-6.764,3.711-11.781,9.853-14.6a16.75,16.75,0,0,1,23.609,12.216A16.442,16.442,0,0,1,99.533,28.85a1.065,1.065,0,0,1-1.623.171,1.087,1.087,0,0,1,.107-1.628,14.292,14.292,0,0,0,4.139-8.582c.621-5.962-1.495-10.807-6.45-14.159a14.793,14.793,0,0,0-22.767,15c.243-.348.411-.6.592-.845A1.054,1.054,0,0,1,75,18.469,1.043,1.043,0,0,1,75.264,20q-.932,1.408-1.906,2.787a1.016,1.016,0,0,1-1.437.328q-1.49-.844-2.95-1.741a1.05,1.05,0,1,1,1.081-1.8c.243.126.477.27.687.391" transform="translate(-58.803 0)" fill="#fe5c58"/>
        <path id="Path_105431" data-name="Path 105431" d="M249.686,210.461a1.026,1.026,0,0,1,1.01,1.061,1.048,1.048,0,1,1-2.094-.067,1.039,1.039,0,0,1,1.084-.993" transform="translate(-213.574 -180.807)" fill="#fe5c58"/>
        <path id="Path_105432" data-name="Path 105432" d="M125.3,324.018a1.023,1.023,0,0,1-1.029-1.039,1.048,1.048,0,1,1,2.1.034,1.028,1.028,0,0,1-1.066,1" transform="translate(-106.764 -276.578)" fill="#fe5c58"/>
        <path id="Path_105433" data-name="Path 105433" d="M172.129,91.62a4.566,4.566,0,1,1,4.549,4.577,4.579,4.579,0,0,1-4.549-4.577m2.109-.018a2.457,2.457,0,1,0,2.447-2.449,2.452,2.452,0,0,0-2.447,2.449" transform="translate(-147.876 -74.776)" fill="#fe5c58"/>
      </g>
    </g>
  </g>
</svg>
