<svg width="32" height="32" viewBox="0 0 32 32" fill="none" xmlns="http://www.w3.org/2000/svg">
<path d="M7.74118 29.4342L7.74126 29.4343C7.83197 29.549 8.04248 29.75 8.39298 29.75H23.7315C24.082 29.75 24.2926 29.549 24.3833 29.4342L24.1872 29.2792L24.3833 29.4342C24.4733 29.3202 24.6196 29.0704 24.5391 28.732C24.4114 28.1947 24.7434 27.6555 25.2807 27.5278C25.8181 27.4 26.3572 27.732 26.4849 28.2693L26.4849 28.2693C26.6861 29.1154 26.4923 29.991 25.9526 30.6741C25.4121 31.3582 24.6033 31.75 23.7316 31.75H8.39298C7.52129 31.75 6.71249 31.3582 6.17196 30.6741C5.63226 29.991 5.43853 29.1154 5.6397 28.2693C6.18602 25.9717 7.51377 23.8867 9.37845 22.4001L9.37846 22.4001C10.1704 21.7687 11.0476 21.2565 11.9777 20.8738L12.3449 20.7227L12.0499 20.4569C10.8298 19.3573 10.0623 17.7666 10.0623 16C10.0623 12.6918 12.7541 10 16.0623 10C19.3705 10 22.0623 12.6918 22.0623 16C22.0623 17.7631 21.2979 19.3511 20.0819 20.4504L19.7878 20.7164L20.1546 20.8671C21.3138 21.3434 22.3883 22.0234 23.3271 22.8884C23.7333 23.2627 23.7592 23.8953 23.3849 24.3015C23.0107 24.7076 22.378 24.7335 21.972 24.3593L21.8025 24.5431L21.9719 24.3593C20.3642 22.8779 18.2649 22.0625 16.0623 22.0625C12.0063 22.0625 8.51926 24.8047 7.58539 28.732C7.50491 29.0704 7.6512 29.3202 7.74118 29.4342ZM20.0623 16C20.0623 13.7942 18.2681 12 16.0623 12C13.8565 12 12.0623 13.7942 12.0623 16C12.0623 18.2058 13.8565 20 16.0623 20C18.2681 20 20.0623 18.2058 20.0623 16Z" fill="black" stroke="white" stroke-width="0.5"/>
<path d="M4.77056 20.6616L5.0016 20.5661L4.99314 20.5457C4.89048 20.297 4.65343 20.125 4.37956 20.125H3.75C1.82032 20.125 0.25 18.5547 0.25 16.625V15.375C0.25 13.4453 1.82032 11.875 3.75 11.875H4.37962C4.64553 11.875 4.87549 11.7262 4.98108 11.4704L4.75 11.375L4.98087 11.4709C5.03061 11.3512 5.05068 11.2144 5.03773 11.0841C5.02491 10.9552 4.97696 10.8106 4.86626 10.6999C4.86625 10.6999 4.86624 10.6999 4.86623 10.6999L4.42116 10.2549C3.05665 8.89029 3.05666 6.66952 4.42115 5.30503L4.42116 5.30501L5.30491 4.42114C5.30491 4.42114 5.30491 4.42114 5.30491 4.42114C5.96627 3.75972 6.84443 3.396 7.77975 3.396C8.71513 3.396 9.59323 3.75972 10.2547 4.42115L10.6998 4.86628C10.904 5.07047 11.2211 5.08979 11.4543 4.99314C11.7029 4.8905 11.8749 4.65354 11.8749 4.37962V3.75C11.8749 1.82032 13.4453 0.25 15.3749 0.25H16.6249C18.5546 0.25 20.1249 1.82032 20.1249 3.75V4.37962C20.1249 4.65359 20.2971 4.8905 20.5456 4.99313C20.7788 5.08979 21.0959 5.07048 21.3001 4.86628L21.7452 4.42115C22.4066 3.75972 23.2847 3.396 24.2201 3.396C25.1554 3.396 26.0335 3.75972 26.695 4.42115L26.8717 4.24438L26.695 4.42116L27.5788 5.30496C28.9434 6.66952 28.9434 8.89023 27.5788 10.2548L27.1337 10.6998L27.1337 10.6998C27.023 10.8105 26.9751 10.9552 26.9623 11.0841C26.9493 11.2142 26.9693 11.3508 27.0189 11.4704C27.019 11.4706 27.0191 11.4707 27.0191 11.4709L27.25 11.375L4.77056 20.6616ZM4.77056 20.6616L5.00161 20.5661C5.21255 21.0765 5.79747 21.3193 6.30774 21.1083L6.30776 21.1083C6.81815 20.8974 7.06091 20.3126 6.84996 19.8022L6.84993 19.8021L6.84162 19.782L6.84161 19.782C6.42542 18.7741 5.45895 18.125 4.37956 18.125H3.75C2.92268 18.125 2.25 17.4523 2.25 16.625V15.375C2.25 14.5477 2.92268 13.875 3.75 13.875H4.37962C5.45897 13.875 6.42542 13.2259 6.84143 12.2185L6.84152 12.2182L6.84921 12.1997L6.84931 12.1994C7.26792 11.1916 7.04356 10.0487 6.28049 9.2856C6.28048 9.2856 6.28048 9.28559 6.28047 9.28559L5.83536 8.84054L5.83535 8.84053C5.25034 8.25551 5.25035 7.30423 5.83534 6.71917L5.83535 6.71916L6.71922 5.83529C7.38728 5.16723 8.2928 5.28756 8.84053 5.83529L9.28571 6.28047C10.0486 7.04339 11.1913 7.26786 12.2019 6.8483L12.2019 6.84828L12.2177 6.84172L12.2181 6.84155C13.2259 6.42542 13.875 5.45896 13.875 4.37962V3.75C13.875 2.92268 14.5477 2.25 15.375 2.25H16.625C17.4523 2.25 18.125 2.92268 18.125 3.75V4.37962C18.125 5.45895 18.7741 6.42541 19.7819 6.84155L19.7823 6.84172L19.7981 6.84828L19.7982 6.8483C20.8087 7.26792 21.9514 7.0434 22.7143 6.28047L23.1595 5.83529C23.7073 5.28756 24.6128 5.16723 25.2808 5.83529L26.1647 6.71916C26.7497 7.30417 26.7497 8.25552 26.1647 8.84053L26.1647 8.84054L25.7196 9.28559C24.9565 10.0487 24.7321 11.1915 25.1508 12.1994L25.1508 12.1996L25.1585 12.2182L25.1586 12.2185C25.5746 13.2259 26.541 13.875 27.6204 13.875H28.25C29.0773 13.875 29.75 14.5477 29.75 15.375V16.625C29.75 17.4523 29.0773 18.125 28.25 18.125H27.6204C26.5411 18.125 25.5746 18.7741 25.1585 19.782L25.1584 19.782L25.1501 19.8021L25.1501 19.8022C24.9392 20.3126 25.1819 20.8974 25.6923 21.1083L25.5968 21.3394L25.6923 21.1083C26.2026 21.3193 26.7875 21.0765 26.9985 20.5661L26.9985 20.5661L27.0069 20.5457L4.77056 20.6616Z" fill="black" stroke="white" stroke-width="0.5"/>
</svg>
