<svg xmlns="http://www.w3.org/2000/svg" xmlns:xlink="http://www.w3.org/1999/xlink" width="32" height="32" viewBox="0 0 32 32">
  <defs>
    <clipPath id="clip-path">
      <rect id="Rectangle_12609" data-name="Rectangle 12609" width="28" height="27.994"/>
    </clipPath>
  </defs>
  <g id="Group_37669" data-name="Group 37669" transform="translate(10187 1859)">
    <rect id="Rectangle_12544" data-name="Rectangle 12544" width="32" height="32" transform="translate(-10187 -1859)" opacity="0"/>
    <g id="Group_37721" data-name="Group 37721" transform="translate(-10185 -1857)">
      <g id="Group_37721-2" data-name="Group 37721" clip-path="url(#clip-path)">
        <path id="Path_105652" data-name="Path 105652" d="M0,3.156H21.649A3.187,3.187,0,0,1,22.873.678,3.1,3.1,0,0,1,25.03.006a3.178,3.178,0,0,1,2.943,2.912,3.194,3.194,0,0,1-2.7,3.374v.29q0,4.148,0,8.3a.523.523,0,0,0,.2.429,6.933,6.933,0,0,1,2.2,7.51,6.865,6.865,0,0,1-5.908,5.1,7.181,7.181,0,0,1-8.176-6.446c-.007-.074-.024-.146-.039-.238H0Zm13.546,17.15.1-.893H12.644V14.019h2.708v1.916a7.3,7.3,0,0,1,9-1.464V6.351l-1.469-.616c-.811.813-1.658,1.668-2.514,2.514a.376.376,0,0,0-.121.435,1.245,1.245,0,0,1-.466,1.406,1.273,1.273,0,0,1-1.455.136,1.2,1.2,0,0,1-.7-1.3.838.838,0,0,0-.372-.964,2.8,2.8,0,0,1-.259-.259.327.327,0,0,0-.363-.106,2.092,2.092,0,0,1-.773,0,.343.343,0,0,0-.364.105q-.963.973-1.937,1.935a.31.31,0,0,0-.088.366,1.331,1.331,0,0,1-.617,1.551A1.355,1.355,0,0,1,11.009,9.7a1.327,1.327,0,0,1,1.532-.6.331.331,0,0,0,.39-.1q.938-.958,1.9-1.9a.375.375,0,0,0,.116-.437,1.246,1.246,0,0,1,.468-1.4,1.275,1.275,0,0,1,1.456-.133,1.2,1.2,0,0,1,.7,1.3c-.138.481.093.7.376.963a3.016,3.016,0,0,1,.258.26.323.323,0,0,0,.364.1,1.93,1.93,0,0,1,.745,0,.384.384,0,0,0,.411-.12c.8-.81,1.608-1.612,2.412-2.417.051-.051.1-.108.133-.149a4.674,4.674,0,0,1-.366-.719c-.076-.241-.2-.279-.427-.279q-10.133.007-20.265,0H.9V20.306Zm10.888,3.108a4.563,4.563,0,0,1-7.359,0l-1.559.9a6.348,6.348,0,0,0,10.478,0l-1.56-.9m-4.142-8.925a6.278,6.278,0,0,0-5.2,9.028l1.542-.891a4.438,4.438,0,0,1,.223-4.122,4.483,4.483,0,0,1,3.435-2.236Zm.926,0v1.78a4.542,4.542,0,0,1,3.66,6.357l1.543.889a6.28,6.28,0,0,0-5.2-9.027m3.151,6.268a3.613,3.613,0,1,0-3.594,3.624,3.622,3.622,0,0,0,3.594-3.624M27.078,3.172A2.257,2.257,0,1,0,24.8,5.417a2.262,2.262,0,0,0,2.277-2.245M13.541,18.578c.166-.075.342-.1.382-.183a3.58,3.58,0,0,0,.515-2.113,3.8,3.8,0,0,1-.005-.619v-.74h-.891Zm2.7-11.808a.449.449,0,1,0-.454-.445.455.455,0,0,0,.454.445M19.4,9.019a.449.449,0,1,0-.438.46.454.454,0,0,0,.438-.46m-6.775,1.365a.449.449,0,1,0-.448.45.454.454,0,0,0,.448-.45" transform="translate(0 -0.001)"/>
        <path id="Path_105653" data-name="Path 105653" d="M122.43,169.2h-2.675V162.01h2.675Zm-1.767-.913h.87V162.9h-.87Z" transform="translate(-110.727 -149.797)"/>
        <path id="Path_105654" data-name="Path 105654" d="M26.57,202.424H23.9v-4.48H26.57Zm-1.767-.913h.869v-2.674H24.8Z" transform="translate(-22.094 -183.022)"/>
        <path id="Path_105655" data-name="Path 105655" d="M74.567,213.438H71.892v-3.582h2.675Zm-1.771-.913h.868v-1.771H72.8Z" transform="translate(-66.472 -194.036)"/>
        <rect id="Rectangle_12601" data-name="Rectangle 12601" width="6.283" height="0.879" transform="translate(3.616 4.985)"/>
        <rect id="Rectangle_12602" data-name="Rectangle 12602" width="6.295" height="0.871" transform="translate(3.605 6.79)"/>
        <rect id="Rectangle_12603" data-name="Rectangle 12603" width="6.284" height="0.871" transform="translate(3.61 8.591)"/>
        <rect id="Rectangle_12604" data-name="Rectangle 12604" width="6.289" height="0.869" transform="translate(3.612 10.397)"/>
        <rect id="Rectangle_12605" data-name="Rectangle 12605" width="0.874" height="0.868" transform="translate(1.804 4.98)"/>
        <rect id="Rectangle_12606" data-name="Rectangle 12606" width="0.878" height="0.865" transform="translate(1.801 6.794)"/>
        <rect id="Rectangle_12607" data-name="Rectangle 12607" width="0.865" height="0.878" transform="translate(1.808 8.589)"/>
        <rect id="Rectangle_12608" data-name="Rectangle 12608" width="0.877" height="0.871" transform="translate(1.802 10.397)"/>
        <path id="Path_105656" data-name="Path 105656" d="M244.807,242.307a2.709,2.709,0,1,1-2.691-2.726,2.717,2.717,0,0,1,2.691,2.726m-.9-.013a1.806,1.806,0,1,0-1.817,1.8,1.809,1.809,0,0,0,1.817-1.8" transform="translate(-221.343 -221.52)"/>
      </g>
    </g>
  </g>
</svg>
