<svg width="32" height="32" viewBox="0 0 32 32" fill="none" xmlns="http://www.w3.org/2000/svg">
<path d="M30.3 9.1C30.2381 9.05365 30.1663 9.02218 30.0903 9.00805C30.0142 8.99391 29.9359 8.99749 29.8615 9.0185L26.3745 10.015C26.4556 9.51403 26.4976 9.00749 26.5 8.5C26.5 6.64348 25.7625 4.86301 24.4497 3.55025C23.137 2.2375 21.3565 1.5 19.5 1.5C17.6435 1.5 15.863 2.2375 14.5503 3.55025C13.2375 4.86301 12.5 6.64348 12.5 8.5C12.5045 8.98385 12.5451 9.4667 12.6215 9.9445L9 10.98L2.1375 9.019C2.06306 8.99771 1.98469 8.99399 1.90857 9.00815C1.83245 9.02231 1.76066 9.05395 1.69885 9.10059C1.63704 9.14722 1.58691 9.20757 1.5524 9.27688C1.5179 9.3462 1.49996 9.42257 1.5 9.5V28C1.49994 28.1087 1.53529 28.2144 1.6007 28.3012C1.66611 28.388 1.75801 28.4511 1.8625 28.481L8.8625 30.481C8.95242 30.5063 9.04758 30.5063 9.1375 30.481L16 28.52L22.8625 30.481C22.9524 30.5063 23.0476 30.5063 23.1375 30.481L30.1375 28.481C30.242 28.4511 30.3339 28.388 30.3993 28.3012C30.4647 28.2144 30.5001 28.1087 30.5 28V9.5C30.5 9.42238 30.4819 9.34582 30.4472 9.27639C30.4125 9.20697 30.3621 9.14657 30.3 9.1ZM19.5 2.5C21.0908 2.50172 22.6159 3.13441 23.7407 4.25926C24.8656 5.38411 25.4983 6.90923 25.5 8.5C25.4977 9.20764 25.4118 9.91253 25.244 10.6C25.1937 10.8087 25.1357 11.0165 25.07 11.2235C24.9633 11.555 24.84 11.8809 24.7005 12.2C24.6338 12.3563 24.5625 12.5122 24.4865 12.6675C23.9841 13.6826 23.3563 14.6306 22.618 15.4895C21.6967 16.5705 20.6524 17.5403 19.5065 18.3795C18.7451 17.81 18.0266 17.1855 17.3565 16.511C17.2645 16.4185 17.1675 16.329 17.0785 16.2355C17.057 16.2135 17.0385 16.19 17.0175 16.168C16.7985 15.9355 16.585 15.7 16.3825 15.4595C16.2022 15.2465 16.0302 15.0325 15.8665 14.8175C15.3935 14.2031 14.9752 13.5484 14.6165 12.861C14.1779 12.0246 13.859 11.1307 13.669 10.2055C13.5574 9.64384 13.5008 9.07264 13.5 8.5C13.5017 6.90923 14.1344 5.38411 15.2593 4.25926C16.3841 3.13441 17.9092 2.50172 19.5 2.5V2.5ZM19.5 24C19.5989 24 19.6956 24.0293 19.7778 24.0843C19.86 24.1392 19.9241 24.2173 19.9619 24.3087C19.9998 24.4 20.0097 24.5006 19.9904 24.5975C19.9711 24.6945 19.9235 24.7836 19.8536 24.8536C19.7836 24.9235 19.6945 24.9711 19.5975 24.9904C19.5006 25.0097 19.4 24.9998 19.3087 24.9619C19.2173 24.9241 19.1392 24.86 19.0843 24.7778C19.0293 24.6956 19 24.5989 19 24.5C19 24.3674 19.0527 24.2402 19.1464 24.1464C19.2402 24.0527 19.3674 24 19.5 24ZM2.5 10.163L8.5 11.877V29.337L2.5 27.623V10.163ZM9.5 11.877L12.81 10.931C12.8195 10.968 12.832 11.005 12.842 11.042C12.866 11.132 12.892 11.222 12.92 11.312C12.962 11.4525 13.0055 11.593 13.053 11.733C13.0863 11.826 13.1197 11.9188 13.153 12.0115C13.203 12.149 13.2585 12.2865 13.3155 12.4235C13.354 12.516 13.393 12.6085 13.434 12.701C13.4965 12.84 13.563 12.9785 13.631 13.1165C13.6745 13.2055 13.7175 13.294 13.7635 13.3825C13.8405 13.5295 13.923 13.6755 14.0065 13.8215C14.052 13.9005 14.094 13.9795 14.1415 14.058C14.2525 14.244 14.3715 14.429 14.4915 14.6135C14.5165 14.651 14.5385 14.6885 14.564 14.726C14.714 14.9465 14.872 15.1665 15.0375 15.385C15.09 15.4545 15.1475 15.5235 15.2015 15.5925C15.3015 15.7175 15.3945 15.8425 15.4975 15.967V27.623L9.5 29.337V11.877ZM16.5 17.08C16.718 17.3035 16.9445 17.5225 17.1765 17.7385C17.233 17.791 17.2925 17.8425 17.35 17.895C17.56 18.086 17.7755 18.2737 17.9965 18.458C18.0725 18.5215 18.1465 18.5855 18.2265 18.6485C18.4782 18.8532 18.736 19.0532 19 19.2485V23.092C18.6664 23.2099 18.3852 23.442 18.2062 23.7472C18.0271 24.0524 17.9618 24.4111 18.0216 24.7599C18.0814 25.1086 18.2626 25.425 18.5332 25.6531C18.8037 25.8811 19.1462 26.0062 19.5 26.0062C19.8538 26.0062 20.1963 25.8811 20.4668 25.6531C20.7374 25.425 20.9186 25.1086 20.9784 24.7599C21.0382 24.4111 20.9729 24.0524 20.7938 23.7472C20.6148 23.442 20.3336 23.2099 20 23.092V19.2585L20.1075 19.1815L20.1955 19.1165C20.2735 19.059 20.3545 18.998 20.4405 18.9325L20.551 18.847C20.644 18.775 20.741 18.697 20.841 18.6165C20.8735 18.5905 20.9035 18.5665 20.936 18.54C21.0705 18.43 21.209 18.3135 21.353 18.19L21.4155 18.1345C21.5375 18.0275 21.6622 17.9153 21.7895 17.798C21.8355 17.7555 21.8825 17.711 21.9295 17.6665C22.0365 17.5665 22.1448 17.462 22.2545 17.353C22.3045 17.303 22.3545 17.253 22.4045 17.203C22.436 17.171 22.467 17.142 22.4985 17.1095V29.337L16.5 27.623V17.08ZM29.5 27.623L23.5 29.337V15.997C23.5875 15.892 23.668 15.7855 23.75 15.6795C23.809 15.605 23.87 15.5295 23.927 15.456C24.0395 15.3085 24.145 15.1605 24.25 15.012C24.293 14.9515 24.3385 14.8915 24.3805 14.8305C24.5235 14.6215 24.6597 14.4117 24.789 14.201C24.811 14.165 24.83 14.1285 24.8515 14.0925C24.9565 13.917 25.0585 13.7425 25.1515 13.5655C25.193 13.488 25.2295 13.4105 25.2695 13.333C25.339 13.1965 25.409 13.0605 25.473 12.9235C25.5135 12.8365 25.55 12.7485 25.5885 12.661C25.6445 12.533 25.7005 12.405 25.751 12.2765C25.7875 12.185 25.8205 12.0925 25.854 12.0005C25.9 11.8755 25.945 11.7505 25.9855 11.625C26.0165 11.531 26.044 11.4365 26.072 11.3425C26.0935 11.269 26.1195 11.1955 26.1395 11.122L29.5 10.163V27.623Z" fill="black"/>
<path d="M17.4402 7.87095L17.1252 9.70695C17.1095 9.79883 17.1198 9.89327 17.155 9.9796C17.1901 10.0659 17.2487 10.1407 17.3241 10.1955C17.3995 10.2503 17.4887 10.283 17.5817 10.2898C17.6746 10.2966 17.7676 10.2772 17.8502 10.2339L19.5002 9.36695L21.1502 10.2339C21.2328 10.2775 21.3259 10.2971 21.4191 10.2904C21.5122 10.2838 21.6016 10.2512 21.6772 10.1963C21.7527 10.1415 21.8114 10.0666 21.8466 9.98006C21.8818 9.89357 21.892 9.79896 21.8762 9.70695L21.5612 7.87095L22.8952 6.57095C22.9612 6.50569 23.0077 6.42336 23.0296 6.33316C23.0514 6.24297 23.0477 6.14847 23.0189 6.06025C22.9901 5.97203 22.9373 5.89357 22.8665 5.83364C22.7956 5.77372 22.7095 5.7347 22.6177 5.72095L20.7732 5.44995L19.9502 3.77895C19.9042 3.70088 19.8387 3.63616 19.76 3.5912C19.6813 3.54623 19.5923 3.52258 19.5017 3.52258C19.4111 3.52258 19.3221 3.54623 19.2434 3.5912C19.1647 3.63616 19.0992 3.70088 19.0532 3.77895L18.2272 5.44995L16.3837 5.71845C16.2914 5.73185 16.2047 5.7708 16.1334 5.83089C16.0621 5.89098 16.009 5.96981 15.9801 6.05849C15.9513 6.14717 15.9478 6.24215 15.97 6.33271C15.9923 6.42326 16.0395 6.50579 16.1062 6.57095L17.4402 7.87095ZM18.6312 6.39995C18.7114 6.3883 18.7876 6.35731 18.8532 6.30967C18.9188 6.26202 18.9718 6.19914 19.0077 6.12645L19.5002 5.12645L19.9927 6.12645C20.0286 6.19914 20.0816 6.26202 20.1472 6.30967C20.2128 6.35731 20.289 6.3883 20.3692 6.39995L21.4692 6.55995L20.6722 7.33695C20.6141 7.39351 20.5707 7.46334 20.5456 7.54042C20.5205 7.61751 20.5145 7.69954 20.5282 7.77945L20.7167 8.87595L19.7327 8.35995C19.6611 8.32186 19.5813 8.30195 19.5002 8.30195C19.4191 8.30195 19.3393 8.32186 19.2677 8.35995L18.2822 8.87745L18.4707 7.78095C18.4844 7.70104 18.4784 7.61901 18.4533 7.54192C18.4282 7.46484 18.3848 7.39501 18.3267 7.33845L17.5297 6.56145L18.6312 6.39995Z" fill="black"/>
</svg>
