<svg xmlns="http://www.w3.org/2000/svg" width="32" height="30.933" viewBox="0 0 32 30.933">
  <g id="Group_37935" data-name="Group 37935" transform="translate(-2 -3)">
    <path id="Path_105750" data-name="Path 105750" d="M31.867,20.85h-.643A1.757,1.757,0,0,0,32,18.667a2.609,2.609,0,0,0-4.533,0,1.757,1.757,0,0,0,.777,2.183H27.193L25.2,20.036l-.145-.079a.461.461,0,0,0,.411-.416V13.436A.492.492,0,0,0,24.933,13H11.067a.492.492,0,0,0-.533.436v6.106a.46.46,0,0,0,.41.416l-.145.079-1.991.814H7.757a1.757,1.757,0,0,0,.777-2.183,2.418,2.418,0,0,0-2.267-1.317A2.418,2.418,0,0,0,4,18.667a1.757,1.757,0,0,0,.776,2.183H4.133A1.969,1.969,0,0,0,2,22.594v4.8a.492.492,0,0,0,.533.436H3.6V33.5a.492.492,0,0,0,.533.436H8.4a.492.492,0,0,0,.533-.436V23.348l2.913-1.239a.591.591,0,0,0,.064-.033l3.594-2.1H20.5l3.594,2.1a.592.592,0,0,0,.064.033l2.913,1.239V33.5a.492.492,0,0,0,.533.436h4.267A.492.492,0,0,0,32.4,33.5V27.828h1.067A.492.492,0,0,0,34,27.392v-4.8a1.969,1.969,0,0,0-2.133-1.744Zm-2.133-2.617a1.23,1.23,0,0,1,1.333,1.09,1.36,1.36,0,0,1-2.667,0A1.23,1.23,0,0,1,29.733,18.233Zm-23.467,0A1.23,1.23,0,0,1,7.6,19.324a1.23,1.23,0,0,1-1.333,1.09,1.23,1.23,0,0,1-1.333-1.09A1.23,1.23,0,0,1,6.267,18.233Zm5.054,3.116L8.154,22.7a.434.434,0,0,0-.287.387v9.978H6.8V26.956H5.733v6.106H4.667V23.031H3.6v3.925H3.067V22.594a.984.984,0,0,1,1.067-.872h4.8a.634.634,0,0,0,.238-.044l2.133-.872q.03-.012.058-.027l1.464-.8h.843Zm6.146-3.989v1.744H11.6V13.872h5.867v1.744a.492.492,0,0,0,.533.436h1.067a.58.58,0,0,1,.38.134.382.382,0,0,1,.154.3.492.492,0,0,1-.533.436H18A.492.492,0,0,0,17.467,17.361Zm1.067,1.744V17.8h.533a1.476,1.476,0,0,0,1.6-1.308,1.485,1.485,0,0,0-1.6-1.308h-.533V13.872H24.4v5.233Zm14.4,7.85H32.4V23.031H31.333V33.061H30.267V26.956H29.2v6.106H28.133V23.083a.434.434,0,0,0-.287-.387L24.679,21.35l-2.349-1.372h.843l1.466.8q.028.015.058.027l2.133.872a.632.632,0,0,0,.237.046h4.8a.984.984,0,0,1,1.067.872Z"/>
    <path id="Path_105751" data-name="Path 105751" d="M31,3h2V7H31Z" transform="translate(-14)"/>
    <path id="Path_105752" data-name="Path 105752" d="M0,0H4V2H0Z" transform="translate(19.045 8.346) rotate(-45)"/>
    <path id="Path_105753" data-name="Path 105753" d="M0,0H2V4H0Z" transform="translate(12.709 6.933) rotate(-45)"/>
  </g>
</svg>
