<svg width="32" height="32" viewBox="0 0 32 32" fill="none" xmlns="http://www.w3.org/2000/svg">
<path d="M11.8741 11.3154H1.00756C0.456432 11.3154 0.00805664 11.7637 0.00805664 12.3149V30.9927C0.00805664 31.5439 0.456369 31.9922 1.00756 31.9922H11.8742C12.4253 31.9922 12.8737 31.5439 12.8737 30.9927C12.8737 28.6537 12.8737 14.6562 12.8737 12.3149C12.8736 11.7637 12.4253 11.3154 11.8741 11.3154V11.3154ZM1.00756 11.9817H11.8742C12.058 11.9817 12.2074 12.1311 12.2074 12.3149V14.0527H0.674369V12.3149C0.674369 12.1311 0.823682 11.9817 1.00756 11.9817V11.9817ZM12.2073 28.5886H10.8463V27.227C10.8463 25.4564 9.50087 23.9976 7.77918 23.8109V23.7394C8.38174 23.4081 8.85549 22.8687 9.06924 22.2341C9.49024 22.1192 9.80062 21.7333 9.80062 21.2762C9.80062 21.0737 9.73799 20.8874 9.63449 20.7307C9.53437 18.7327 8.98006 17.0032 6.43999 17.0032C3.95581 17.0079 3.37268 18.6643 3.25424 20.6052C3.09081 20.7822 2.98893 21.0168 2.98893 21.2761C2.98893 21.7799 3.36606 22.1874 3.82931 22.2594C4.04243 22.9042 4.52887 23.4319 5.10212 23.7438V23.808C3.38043 23.9946 2.03531 25.4562 2.03531 27.2269V28.5885H0.674369V14.719H12.2073V28.5886ZM6.44068 25.9575C7.17862 25.9575 7.77918 25.3569 7.77918 24.619V24.4823C9.13256 24.6652 10.18 25.8244 10.18 27.2271V28.5887H2.70168V27.2271C2.70168 25.8243 3.74912 24.6646 5.10218 24.4814V24.619C5.10218 25.3569 5.70274 25.9575 6.44068 25.9575V25.9575ZM3.97706 20.9496C4.13356 20.9749 4.27962 20.8858 4.33593 20.7394C4.47912 20.3668 5.11518 19.5977 6.16899 19.5977C6.46224 19.6221 6.86124 19.5108 7.11612 19.7861C7.73862 20.4722 8.21306 20.1765 8.51806 20.7283C8.58268 20.8466 8.66237 20.9463 8.82649 20.9528C8.99924 20.96 9.13431 21.1018 9.13431 21.2762C9.13431 21.4561 8.98787 21.6025 8.80799 21.6025C8.65312 21.6025 8.51874 21.7092 8.48362 21.8599C7.99943 23.9342 4.86962 23.9237 4.40724 21.8524C4.36693 21.6709 4.18668 21.5597 4.00968 21.5999C3.85949 21.6316 3.65537 21.4878 3.65537 21.2761C3.65531 21.0963 3.79356 20.9548 3.97706 20.9496V20.9496ZM3.97349 20.0451C4.16612 18.5282 4.76981 17.6727 6.44068 17.6696C8.14543 17.6696 8.73974 18.5599 8.91906 20.1352C8.46824 19.5976 8.05293 19.8272 7.60743 19.3358C7.10237 18.7915 6.41581 18.9617 6.16906 18.9314C5.12749 18.9314 4.37218 19.5044 3.97349 20.0451V20.0451ZM7.11287 24.0011V24.6189C7.11287 24.9895 6.81124 25.2911 6.44068 25.2911C6.07012 25.2911 5.76849 24.9895 5.76849 24.6189V24.0025C6.23693 24.1195 6.66993 24.1121 7.11287 24.0011V24.0011ZM11.8741 31.3259H1.00756C0.823744 31.3259 0.674369 31.1766 0.674369 30.9927V29.2549H12.2073V30.9927C12.2073 31.1766 12.058 31.3259 11.8741 31.3259Z" fill="black"/>
<path d="M8.3056 13.2596H8.70416C8.88829 13.2596 9.03735 13.1106 9.03735 12.9264C9.03735 12.7423 8.88835 12.5933 8.70416 12.5933H8.3056C8.12147 12.5933 7.97241 12.7423 7.97241 12.9264C7.97241 13.1106 8.12147 13.2596 8.3056 13.2596Z" fill="black"/>
<path d="M4.17718 13.2596H6.88218C7.06631 13.2596 7.21537 13.1106 7.21537 12.9264C7.21537 12.7423 7.06637 12.5933 6.88218 12.5933H4.17718C3.99306 12.5933 3.84399 12.7423 3.84399 12.9264C3.84399 13.1106 3.99299 13.2596 4.17718 13.2596Z" fill="black"/>
<path d="M6.89616 29.957H5.98517C5.80104 29.957 5.65198 30.106 5.65198 30.2902C5.65198 30.4744 5.80098 30.6234 5.98517 30.6234H6.89616C7.08029 30.6234 7.22935 30.4744 7.22935 30.2902C7.22935 30.106 7.08029 29.957 6.89616 29.957Z" fill="black"/>
<path d="M30.9924 11.3154H20.1258C19.5747 11.3154 19.1263 11.7637 19.1263 12.3149V30.9927C19.1263 31.5439 19.5747 31.9922 20.1258 31.9922H30.9925C31.5436 31.9922 31.992 31.5439 31.992 30.9927C31.992 25.9401 31.992 18.2182 31.992 12.3149C31.9919 11.7637 31.5436 11.3154 30.9924 11.3154V11.3154ZM31.3256 30.9927C31.3256 31.1765 31.1763 31.3259 30.9924 31.3259H20.1258C19.942 31.3259 19.7927 31.1766 19.7927 30.9927V29.2549H31.3256V30.9927ZM22.9118 19.8115C22.6449 18.6696 23.8066 17.8749 24.9815 17.6833C24.9821 17.683 24.9828 17.683 24.9837 17.683C25.681 17.5643 26.1517 18.2651 25.867 19.0982C25.3653 20.6006 22.7028 21.3634 22.374 20.9057C22.2551 20.7415 22.2092 20.4052 22.4928 20.3949C22.7672 20.3734 22.9847 20.1141 22.9118 19.8115V19.8115ZM26.3779 17.6892C27.1441 17.5531 27.8904 18.1166 27.937 18.9307L28.0301 20.3857C27.4175 20.0334 26.687 19.4481 26.5276 19.2246C26.5277 19.2242 26.5277 19.2239 26.5278 19.2236C26.6708 18.7294 26.6521 18.1216 26.3779 17.6892V17.6892ZM27.8905 21.0687C28.0441 21.1476 28.216 21.1544 28.3907 21.0694C28.5858 21.1809 28.5278 21.4478 28.3307 21.4981C28.1888 21.5346 28.0873 21.6595 28.0808 21.8059C27.9625 24.4635 24.29 25.0101 23.353 22.5767C23.3018 22.4442 23.17 22.3532 23.0153 22.3642C22.7495 22.3895 22.6576 22.0042 22.9167 21.9107C23.029 21.8699 23.1076 21.7739 23.1298 21.6622C24.257 21.5405 25.5983 20.8454 26.2303 19.8694C26.7398 20.3792 27.6009 20.9181 27.8905 21.0687ZM28.2268 25.0316C27.8235 24.7777 27.3629 24.6078 26.8674 24.5492C27.4021 24.3176 27.8503 23.9488 28.1749 23.4891L28.2268 25.0316ZM26.0769 24.7763V25.1037C26.0769 25.3894 25.8446 25.6217 25.559 25.6217C25.2733 25.6217 25.041 25.3894 25.041 25.1037V24.7464C25.4286 24.8231 25.7137 24.8282 26.0769 24.7763V24.7763ZM24.3747 24.5344V24.5359C23.8848 24.5752 23.425 24.7203 23.0188 24.9511L23.0692 23.4532C23.3999 23.9367 23.8572 24.3032 24.3747 24.5344V24.5344ZM24.3846 25.2021C24.4355 25.8085 24.9397 26.2881 25.559 26.2881C26.177 26.2881 26.6803 25.8104 26.733 25.2057C28.0609 25.3346 29.1041 26.4512 29.1041 27.8124V28.5887H27.992V27.8124C27.992 27.6282 27.843 27.4792 27.6588 27.4792C27.4747 27.4792 27.3257 27.6282 27.3257 27.8124V28.5887H23.7923V27.8124C23.7923 27.6282 23.6433 27.4792 23.4591 27.4792C23.2749 27.4792 23.1259 27.6282 23.1259 27.8124V28.5887H22.0142V27.8124C22.0142 26.4511 23.0565 25.3309 24.3846 25.2021V25.2021ZM31.3256 28.5886H29.7704V27.8123C29.7704 26.9618 29.4436 26.1887 28.9121 25.6049L28.7888 22.0074C29.3345 21.6285 29.3085 20.8195 28.7043 20.4877L28.602 18.8907C28.5074 17.2208 26.5517 16.6242 25.8807 17.2205C25.587 17.0443 25.2343 16.9644 24.8728 17.0257C23.3787 17.2699 22.0326 18.2951 22.2283 19.7639C21.5782 19.9459 21.4463 20.7595 21.834 21.2957C21.9386 21.4409 22.0907 21.5384 22.2717 21.6004C21.9972 21.9769 22.0427 22.5084 22.424 22.8229L22.3351 25.4672C21.7269 26.0645 21.348 26.8944 21.348 27.8124V28.5887H19.7928V14.719H31.3256V28.5886ZM31.3256 14.0527H19.7927V12.3149C19.7927 12.1311 19.942 11.9817 20.1258 11.9817H30.9925C31.1763 11.9817 31.3257 12.1311 31.3257 12.3149V14.0527H31.3256Z" fill="black"/>
<path d="M27.8228 12.5933H27.4239C27.2398 12.5933 27.0908 12.7423 27.0908 12.9264C27.0908 13.1106 27.2398 13.2596 27.4239 13.2596H27.8228C28.0069 13.2596 28.156 13.1106 28.156 12.9264C28.156 12.7423 28.007 12.5933 27.8228 12.5933Z" fill="black"/>
<path d="M26.0005 12.5933H23.2955C23.1113 12.5933 22.9623 12.7423 22.9623 12.9264C22.9623 13.1106 23.1113 13.2596 23.2955 13.2596H26.0005C26.1846 13.2596 26.3337 13.1106 26.3337 12.9264C26.3337 12.7423 26.1847 12.5933 26.0005 12.5933V12.5933Z" fill="black"/>
<path d="M26.0148 29.957H25.1035C24.9194 29.957 24.7703 30.106 24.7703 30.2902C24.7703 30.4744 24.9193 30.6234 25.1035 30.6234H26.0148C26.1989 30.6234 26.348 30.4744 26.348 30.2902C26.348 30.106 26.199 29.957 26.0148 29.957Z" fill="black"/>
<path d="M22.8966 3.9923C22.8966 1.79549 21.1094 0.00830078 18.9126 0.00830078C17.7921 0.00830078 16.7519 0.464801 16.0007 1.27361C15.2481 0.464738 14.2069 0.00830078 13.087 0.00830078C10.8902 0.00830078 9.10303 1.79549 9.10303 3.9923C9.10303 7.48536 13.9603 11.2862 15.4488 12.3683C15.784 12.6112 16.2269 12.6053 16.553 12.368C18.0413 11.2868 22.8966 7.48661 22.8966 3.9923V3.9923ZM16.1613 11.8292C16.064 11.8998 15.9385 11.8994 15.8405 11.8292C12.9055 9.69611 9.76934 6.51736 9.76934 3.9923C9.76934 2.1628 11.2575 0.674613 13.087 0.674613C14.135 0.674613 15.1003 1.15486 15.7355 1.99261C15.8684 2.1673 16.1323 2.16943 16.2668 1.99199C16.8996 1.15486 17.864 0.674613 18.9126 0.674613C20.7421 0.674613 22.2303 2.1628 22.2303 3.9923C22.2302 6.51868 19.0951 9.69711 16.1613 11.8292V11.8292Z" fill="black"/>
</svg>
