<svg xmlns="http://www.w3.org/2000/svg" xmlns:xlink="http://www.w3.org/1999/xlink" width="32" height="32" viewBox="0 0 32 32">
  <defs>
    <clipPath id="clip-path">
      <rect id="Rectangle_12547" data-name="Rectangle 12547" width="28" height="27.993"/>
    </clipPath>
  </defs>
  <g id="Group_37671" data-name="Group 37671" transform="translate(10187 1859)">
    <g id="Rectangle_12544" data-name="Rectangle 12544" transform="translate(-10187 -1859)" stroke="#707070" stroke-width="1" opacity="0">
      <rect width="32" height="32" stroke="none"/>
      <rect x="0.5" y="0.5" width="31" height="31" fill="none"/>
    </g>
    <g id="Group_37672" data-name="Group 37672" transform="translate(-10185 -1857)">
      <g id="Group_37672-2" data-name="Group 37672" clip-path="url(#clip-path)">
        <path id="Path_105407" data-name="Path 105407" d="M21.968,11.05a3.737,3.737,0,0,1,3.074-.7,3.607,3.607,0,0,1,2.118,1.3,3.707,3.707,0,0,1-.043,4.751,3.758,3.758,0,0,1-5.083.6l-4.939,5.162a3.857,3.857,0,0,1,.637,2.206,3.727,3.727,0,0,1-7.406.479,11.843,11.843,0,0,1-.009-1.216.385.385,0,0,0-.14-.289c-1.1-.562-2.2-1.109-3.33-1.672a3.754,3.754,0,0,1-3.054,1.649,3.619,3.619,0,0,1-2.423-.846A3.739,3.739,0,0,1,5.36,16.217c.4-.613.765-1.257,1.21-1.84A.89.89,0,0,0,6.6,13.16c-.492-.719-.905-1.493-1.366-2.267a3.715,3.715,0,0,1-3.46-.26A3.628,3.628,0,0,1,.184,8.614,3.737,3.737,0,0,1,2.067,4.125,3.778,3.778,0,0,1,7.074,5.754L8.758,5.14c.438-.159.872-.33,1.315-.471a.3.3,0,0,0,.245-.394,3.725,3.725,0,1,1,6.788,1.513l-.169.255ZM16.473,21.467l4.9-5.122a3.871,3.871,0,0,1-.851-2.386c-.909-.126-1.792-.243-2.675-.373-.194-.029-.254.047-.33.216a5.761,5.761,0,0,1-.578,1.068A3.641,3.641,0,0,1,14.483,16.3V20.56a3.858,3.858,0,0,1,1.99.907M.935,7.455A2.8,2.8,0,1,0,3.742,4.666,2.807,2.807,0,0,0,.935,7.455M16.8,12.59A2.8,2.8,0,1,0,14,15.394a2.806,2.806,0,0,0,2.794-2.8M27.064,14a2.8,2.8,0,1,0-2.8,2.794A2.806,2.806,0,0,0,27.064,14M.935,19.587A2.8,2.8,0,1,0,3.74,16.8,2.807,2.807,0,0,0,.935,19.587M16.8,24.272a2.8,2.8,0,1,0-2.812,2.785A2.807,2.807,0,0,0,16.8,24.272M13.993.934a2.8,2.8,0,1,0,2.8,2.792,2.806,2.806,0,0,0-2.8-2.792m7.254,10.79-5-5.006a3.741,3.741,0,0,1-3.865.382l-1.895,2.925c-.042.064-.078.132-.132.225l.538.261a3.765,3.765,0,0,1,6.872,2.125c.9.124,1.795.252,2.69.363a.314.314,0,0,0,.253-.136c.2-.377.368-.765.543-1.139M9.81,11.067c-.535.825-1.074,1.667-1.627,2.5a.372.372,0,0,0-.008.463q1.676,2.8,3.338,5.6c.257.432.515.864.761,1.277l1.235-.383V16.3a3.747,3.747,0,0,1-3.173-4.412c.118-.6.119-.6-.471-.819a.258.258,0,0,0-.055,0m.839,11.465a8.428,8.428,0,0,1,.671-.845c.182-.179.16-.295.044-.488Q9.5,18.092,7.659,14.976c-.053-.089-.11-.175-.187-.3L6.158,16.7c.02.045.023.068.035.08A3.7,3.7,0,0,1,7.3,20.677a.254.254,0,0,0,.1.221c1.078.55,2.162,1.09,3.247,1.633M9.5,9.824l2.067-3.193-.934-1.18c-1.02.372-2.049.743-3.073,1.129a.3.3,0,0,0-.143.245,3.984,3.984,0,0,1-.1,1.7.3.3,0,0,0,.122.259c.67.349,1.349.681,2.067,1.039M7.51,12.9l1.479-2.282L6.865,9.551l-.82.88L7.51,12.9" transform="translate(0 0)"/>
      </g>
    </g>
  </g>
</svg>
