<svg id="Group_37676" data-name="Group 37676" xmlns="http://www.w3.org/2000/svg" xmlns:xlink="http://www.w3.org/1999/xlink" width="26.281" height="28" viewBox="0 0 26.281 28">
  <defs>
    <clipPath id="clip-path">
      <rect id="Rectangle_12549" data-name="Rectangle 12549" width="26.281" height="28"/>
    </clipPath>
  </defs>
  <g id="Group_37675" data-name="Group 37675" clip-path="url(#clip-path)">
    <path id="Path_105413" data-name="Path 105413" d="M19.593,0A1.162,1.162,0,0,1,19.8.276c.109.308-.1.544-.473.544q-2.748,0-5.5,0a3.22,3.22,0,0,0-.57.045A2.193,2.193,0,0,0,11.438,2.99c-.02,1.549-.01,3.1,0,4.647a.435.435,0,0,0,.147.289,2.553,2.553,0,0,1,.951,2.059c0,1.421,0,2.843-.005,4.264,0,.193.046.322.237.363a5.28,5.28,0,0,0,1.01.191c1.576.02,3.153.008,4.73.009.461,0,.581.122.583.583,0,.446,0,.892,0,1.4.114-.081.191-.133.264-.189.695-.531,1.393-1.058,2.081-1.6a.872.872,0,0,1,.6-.2c.355.012.711,0,1.066,0a2.248,2.248,0,0,0,2.353-2.357q.006-3.936,0-7.872c0-.492.005-.984,0-1.476A2.241,2.241,0,0,0,23.144.821c-.319,0-.638,0-.957,0-.226,0-.452.007-.549-.251a.487.487,0,0,1,.2-.571h1.75c.234.068.474.121.7.2A3,3,0,0,1,26.27,2.989q.018,4.826,0,9.652A3.046,3.046,0,0,1,23.3,15.628a.941.941,0,0,1-.191,0,2.373,2.373,0,0,0-2.05.684c-.638.568-1.353,1.049-2.031,1.572a.436.436,0,0,1-.763-.366c.006-.618,0-1.235,0-1.86-1.918-.134-3.826.15-5.722-.188v2.06h.309c1.057,0,2.115,0,3.172,0a1.907,1.907,0,0,1,2.063,2.061q0,.848,0,1.7c0,.384-.129.546-.418.542s-.4-.159-.4-.529c0-.583,0-1.167,0-1.75a1.084,1.084,0,0,0-1.206-1.2q-2.543-.005-5.087,0a1.079,1.079,0,0,0-1.2,1.2q0,2.529,0,5.058a1.085,1.085,0,0,0,1.2,1.2c.875,0,1.75,0,2.625,0,.465,0,.583.117.585.578,0,.1,0,.2,0,.364.329-.251.622-.457.895-.688a.937.937,0,0,1,.747-.256,2.542,2.542,0,0,0,.41,0,1.053,1.053,0,0,0,1.008-.94c.027-.271.01-.546.021-.819.012-.295.153-.436.416-.432a.369.369,0,0,1,.4.421,5.665,5.665,0,0,1-.078,1.193,1.792,1.792,0,0,1-1.774,1.388,1.361,1.361,0,0,0-.984.353c-.356.311-.747.583-1.12.874a.446.446,0,0,1-.5.107.456.456,0,0,1-.257-.471c0-.272,0-.544,0-.852h-.7c-.583,0-1.167,0-1.75,0a1.885,1.885,0,0,1-1.966-1.961c-.011-1.394,0-2.789,0-4.183v-.359c-.266.2-.48.364-.692.527-.433.334-.867.666-1.3,1a.447.447,0,0,1-.5.1.437.437,0,0,1-.236-.453c0-.463,0-.925,0-1.421H5.874c-1.085,0-2.17.006-3.254,0A2.5,2.5,0,0,1,0,17.354q0-2.01,0-4.019c0-.322.109-.463.357-.486.287-.026.458.141.461.472.005.611,0,1.221,0,1.832,0,.7,0,1.4,0,2.105a1.681,1.681,0,0,0,1.788,1.8c1.267.008,2.534,0,3.8,0,.537,0,.637.1.638.64,0,.261,0,.523,0,.832.106-.069.173-.108.234-.155q.521-.4,1.039-.8a2.325,2.325,0,0,0,.863-1,1.657,1.657,0,0,1,1.524-1.031c.324-.023.651,0,1.005,0v-.368q0-3.555,0-7.109A1.708,1.708,0,0,0,9.839,8.2c-2.388,0-4.777.02-7.165-.01A1.748,1.748,0,0,0,.819,10.053c.015.218.007.438,0,.656-.009.305-.158.461-.424.456S0,11.016,0,10.715a8.1,8.1,0,0,1,.06-1.334A2.437,2.437,0,0,1,2.445,7.39c2.552-.015,5.1-.006,7.657,0,.153,0,.306.029.492.047.005-.1.014-.2.014-.292q0-1.941,0-3.883A3.05,3.05,0,0,1,13.231.037.3.3,0,0,0,13.3,0Z" transform="translate(0)"/>
    <path id="Path_105414" data-name="Path 105414" d="M45.764,149.472h-.954c-.079.466-.156.921-.233,1.376-.055.328-.241.489-.5.438-.244-.047-.358-.26-.306-.579.066-.4.135-.8.21-1.25-.384,0-.747.017-1.106-.008a.673.673,0,0,1-.426-.178.384.384,0,0,1,.313-.625c.372-.02.747-.016,1.12-.005.181.005.26-.047.275-.237.02-.243.075-.482.123-.772H43.192c-.137,0-.274,0-.41,0a.407.407,0,1,1,0-.814c.437-.01.875,0,1.312,0h.312l.216-1.284c.011-.063.018-.126.033-.188a.4.4,0,0,1,.465-.356.387.387,0,0,1,.336.475c-.038.316-.1.629-.147.944-.02.125-.037.25-.061.408.3,0,.58.011.859-.009.057,0,.138-.122.153-.2.081-.41.139-.825.216-1.237a.4.4,0,0,1,.494-.378.412.412,0,0,1,.308.524c-.063.4-.128.79-.191,1.186a.69.69,0,0,0,.006.114c.38,0,.76,0,1.14,0,.2,0,.385.084.414.283a.668.668,0,0,1-.129.434c-.052.073-.21.094-.322.1-.409.011-.818,0-1.261,0l-.174,1.006h1.269c.461,0,.642.114.646.4s-.185.417-.634.417H47.035c-.4,0-.4,0-.471.39-.062.359-.114.719-.181,1.077a.4.4,0,0,1-.485.362.418.418,0,0,1-.317-.52c.065-.4.132-.808.2-1.212a.368.368,0,0,0-.013-.082m-.813-.856h.986l.159-.983c-.307,0-.587-.006-.867.006a.2.2,0,0,0-.137.126c-.055.274-.094.552-.142.851" transform="translate(-39.258 -134.386)"/>
    <path id="Path_105415" data-name="Path 105415" d="M152.872,277.161a1.445,1.445,0,0,1,2.25-1.146.211.211,0,0,0,.187.008,1.423,1.423,0,0,1,1.748.14,1.648,1.648,0,0,1,.431,1.8,2.154,2.154,0,0,1-.794,1.085,12.5,12.5,0,0,1-1.238.793.508.508,0,0,1-.432.012,12.827,12.827,0,0,1-1.446-.969,2.014,2.014,0,0,1-.707-1.726m3.887.207a.708.708,0,0,0-.474-.722c-.288-.092-.475-.012-.708.3-.211.285-.512.269-.732-.052a.571.571,0,0,0-.6-.281.607.607,0,0,0-.51.472,1,1,0,0,0,.27,1.058,11.185,11.185,0,0,0,1.134.841.212.212,0,0,0,.193,0c.359-.247.726-.485,1.059-.764a1.055,1.055,0,0,0,.37-.85" transform="translate(-141.704 -255.624)"/>
    <path id="Path_105416" data-name="Path 105416" d="M190.888,44.843c.386-.443.8-.9,1.194-1.38a2.184,2.184,0,0,0,.472-1.259,1.686,1.686,0,0,1,.067-.457.8.8,0,0,1,.714-.555.777.777,0,0,1,.8.416,3.138,3.138,0,0,1,.234,2.661c-.038.11-.08.219-.132.363h1.876a1.07,1.07,0,0,1,1.195,1.2c0,1.248,0,2.5,0,3.745a1.025,1.025,0,0,1-1.017,1.1c-1.385.021-2.77.024-4.154-.019a6.1,6.1,0,0,1-1.249-.3,3.125,3.125,0,0,1-.606.134c-.628.018-1.257.008-1.886.006-.383,0-.517-.128-.518-.5q0-2.392,0-4.784c0-.349.133-.487.475-.489.683-.006,1.367-.008,2.05,0a2.42,2.42,0,0,1,.486.12m2.527-2.83a1.563,1.563,0,0,0-.04.187,3.318,3.318,0,0,1-.939,2.128q-.709.778-1.393,1.579a.571.571,0,0,0-.139.332q-.016,1.422,0,2.844a.473.473,0,0,0,.16.309,2,2,0,0,0,1.337.47q1.86.005,3.719,0c.3,0,.364-.066.365-.374q0-1.832,0-3.664c0-.327-.048-.371-.389-.372-.793,0-1.586,0-2.379-.006-.444,0-.613-.257-.451-.664.128-.321.277-.636.376-.965a2.241,2.241,0,0,0-.228-1.805m-4.706,7.64h1.349V45.561h-1.349Z" transform="translate(-174.149 -38.178)"/>
  </g>
</svg>
