<svg width="32" height="32" viewBox="0 0 32 32" fill="none" xmlns="http://www.w3.org/2000/svg">
<path d="M14 4C14.2761 4 14.5 3.77614 14.5 3.5C14.5 3.22386 14.2761 3 14 3C13.7239 3 13.5 3.22386 13.5 3.5C13.5 3.77614 13.7239 4 14 4Z" fill="black"/>
<path d="M16 4H18C18.1326 4 18.2598 3.94732 18.3536 3.85355C18.4473 3.75979 18.5 3.63261 18.5 3.5C18.5 3.36739 18.4473 3.24021 18.3536 3.14645C18.2598 3.05268 18.1326 3 18 3H16C15.8674 3 15.7402 3.05268 15.6464 3.14645C15.5527 3.24021 15.5 3.36739 15.5 3.5C15.5 3.63261 15.5527 3.75979 15.6464 3.85355C15.7402 3.94732 15.8674 4 16 4Z" fill="black"/>
<path d="M25.5 7.27119V2.5C25.5001 2.303 25.4613 2.10791 25.386 1.92589C25.3106 1.74387 25.2001 1.57848 25.0608 1.43918C24.9215 1.29987 24.7561 1.18939 24.5741 1.11403C24.3921 1.03867 24.197 0.999926 24 1H8C7.80299 0.999926 7.60791 1.03867 7.42588 1.11403C7.24386 1.18939 7.07847 1.29987 6.93917 1.43918C6.79987 1.57848 6.68938 1.74387 6.61403 1.92589C6.53867 2.10791 6.49992 2.303 6.5 2.5V7.27119C4.91881 7.70875 3.52469 8.65269 2.53128 9.95835C1.53786 11.264 0.999939 12.8594 0.999939 14.5C0.999939 16.1406 1.53786 17.736 2.53128 19.0417C3.52469 20.3473 4.91881 21.2912 6.5 21.7288V29.5C6.50044 29.8977 6.65862 30.279 6.93983 30.5602C7.22104 30.8414 7.60231 30.9996 8 31H24C24.3977 30.9996 24.779 30.8414 25.0602 30.5602C25.3414 30.279 25.4995 29.8977 25.5 29.5V21.7288C27.0812 21.2912 28.4753 20.3473 29.4687 19.0417C30.4621 17.736 31.0001 16.1406 31.0001 14.5C31.0001 12.8594 30.4621 11.264 29.4687 9.95835C28.4753 8.65269 27.0812 7.70875 25.5 7.27119V7.27119ZM7.5 2.5C7.50015 2.36744 7.55287 2.24035 7.64661 2.14661C7.74034 2.05288 7.86743 2.00015 8 2H24C24.1326 2.00015 24.2596 2.05288 24.3534 2.14661C24.4471 2.24035 24.4998 2.36744 24.5 2.5V4H20C19.9343 4 19.8693 4.01293 19.8087 4.03805C19.748 4.06318 19.6929 4.10001 19.6464 4.14644L18.7929 5H13.2071L12.3536 4.14644C12.3071 4.10001 12.252 4.06318 12.1913 4.03805C12.1307 4.01293 12.0657 4 12 4H7.5V2.5ZM7.5 5H11.7929L12.6464 5.85356C12.6929 5.89999 12.748 5.93682 12.8087 5.96195C12.8693 5.98707 12.9343 6 13 6H19C19.0657 6 19.1307 5.98707 19.1913 5.96195C19.252 5.93682 19.3071 5.89999 19.3536 5.85356L20.2071 5H24.5V7.06681C22.8379 6.8435 21.1489 7.18351 19.7026 8.03255C18.2564 8.88159 17.1363 10.1907 16.5212 11.7509C16.3638 11.8378 16.2188 11.9455 16.09 12.071L16 12.1589L15.9101 12.071C15.7813 11.9454 15.6363 11.8378 15.4788 11.7509C14.8637 10.1907 13.7436 8.88157 12.2974 8.03253C10.8511 7.18349 9.16212 6.84349 7.5 7.06681V5ZM17.5 12.5C17.7655 12.4984 18.021 12.6013 18.2114 12.7864C18.3026 12.8742 18.3752 12.9795 18.4248 13.096C18.4743 13.2125 18.4999 13.3377 18.4999 13.4643C18.4999 13.5909 18.4743 13.7162 18.4248 13.8327C18.3752 13.9492 18.3026 14.0545 18.2114 14.1423L16 16.3013L13.7886 14.1424C13.6973 14.0546 13.6248 13.9493 13.5752 13.8328C13.5256 13.7164 13.5001 13.5911 13.5001 13.4645C13.5001 13.3379 13.5256 13.2126 13.5752 13.0961C13.6248 12.9796 13.6973 12.8743 13.7886 12.7866C13.9798 12.6027 14.2348 12.5 14.5001 12.5C14.7654 12.5 15.0204 12.6027 15.2117 12.7866L15.6509 13.2154C15.7443 13.3065 15.8697 13.3576 16.0002 13.3576C16.1307 13.3576 16.256 13.3065 16.3494 13.2154L16.7887 12.7866C16.979 12.6014 17.2345 12.4985 17.5 12.5V12.5ZM4.5 19.62C3.73488 19.0218 3.11355 18.2597 2.68167 17.3898C2.24979 16.5199 2.01835 15.5643 2.00437 14.5932C1.99038 13.6221 2.19419 12.6602 2.60083 11.7782C3.00747 10.8963 3.6066 10.1166 4.35417 9.49663C5.10174 8.87664 5.97874 8.43207 6.92072 8.19559C7.8627 7.95911 8.8457 7.93673 9.79746 8.13011C10.7492 8.32349 11.6455 8.7277 12.4205 9.31303C13.1955 9.89836 13.8295 10.6499 14.2759 11.5125C13.8289 11.5601 13.4111 11.7569 13.0897 12.0711C12.9031 12.252 12.7547 12.4686 12.6534 12.7079C12.5521 12.9473 12.4999 13.2045 12.4999 13.4644C12.4999 13.7243 12.5521 13.9816 12.6534 14.2209C12.7547 14.4603 12.9031 14.6768 13.0897 14.8577L14.7062 16.4357C14.3123 17.6968 13.5425 18.8073 12.5 19.6187V19C12.499 18.2667 12.2681 17.5521 11.8397 16.9569C11.4113 16.3617 10.807 15.9159 10.1119 15.6821C10.3644 15.3397 10.5004 14.9254 10.5 14.5V13.414C10.7922 13.3103 11.0452 13.1187 11.2242 12.8656C11.4033 12.6124 11.4996 12.3101 11.5 12V11C11.5 10.8674 11.4473 10.7402 11.3535 10.6464C11.2598 10.5527 11.1326 10.5 11 10.5H8C7.60231 10.5005 7.22105 10.6586 6.93985 10.9399C6.65864 11.2211 6.50046 11.6023 6.5 12V14.5C6.4996 14.9254 6.63561 15.3397 6.88806 15.6821C6.19298 15.9159 5.58871 16.3617 5.16032 16.9569C4.73193 17.5521 4.50098 18.2667 4.5 19V19.62ZM7.5 12.5V12C7.50015 11.8674 7.55287 11.7403 7.64661 11.6466C7.74034 11.5529 7.86743 11.5001 8 11.5H10.5V12C10.4998 12.1326 10.4471 12.2597 10.3534 12.3534C10.2596 12.4471 10.1326 12.4999 10 12.5H7.5ZM9.5 13.5V14.5C9.5 14.7652 9.39464 15.0196 9.2071 15.2071C9.01957 15.3946 8.76521 15.5 8.5 15.5C8.23478 15.5 7.98043 15.3946 7.79289 15.2071C7.60535 15.0196 7.5 14.7652 7.5 14.5V13.5H9.5ZM5.5 20.2649V19C5.50074 18.3372 5.76437 17.7017 6.23305 17.2331C6.70173 16.7644 7.33718 16.5007 8 16.5H9C9.66281 16.5007 10.2983 16.7644 10.7669 17.2331C11.2356 17.7017 11.4993 18.3372 11.5 19V20.2625C10.5742 20.7466 9.54503 20.9996 8.5003 21C7.45556 21.0004 6.42622 20.7482 5.5 20.2649V20.2649ZM24.5 29.5C24.4998 29.6326 24.4471 29.7597 24.3534 29.8534C24.2596 29.9471 24.1326 29.9999 24 30H8C7.86743 29.9999 7.74034 29.9471 7.64661 29.8534C7.55287 29.7597 7.50015 29.6326 7.5 29.5V28H24.5V29.5ZM24.5 27H7.5V21.9332C9.16989 22.1576 10.8667 21.8133 12.3171 20.9558C13.7675 20.0983 14.887 18.7775 15.4952 17.2062L15.6507 17.3581C15.7441 17.4492 15.8695 17.5003 16 17.5003C16.1305 17.5003 16.2559 17.4492 16.3492 17.3581L16.5047 17.2062C17.113 18.7775 18.2325 20.0983 19.6829 20.9558C21.1333 21.8133 22.8301 22.1576 24.5 21.9332V27ZM26.5 20.2649C25.5738 20.7482 24.5444 21.0004 23.4997 21C22.455 20.9996 21.4258 20.7466 20.5 20.2625V19C20.5007 18.3372 20.7644 17.7017 21.2331 17.2331C21.7017 16.7644 22.3372 16.5007 23 16.5H24V18C24 18.1326 24.0527 18.2598 24.1464 18.3536C24.2402 18.4473 24.3674 18.5 24.5 18.5H26.4486C26.4824 18.6645 26.4996 18.832 26.5 19V20.2649ZM24.5 12.5H22.0857C22.1894 12.2077 22.381 11.9547 22.6343 11.7757C22.8875 11.5967 23.1899 11.5004 23.5 11.5H24.5C24.8977 11.5005 25.2789 11.6586 25.5601 11.9399C25.8413 12.2211 25.9995 12.6023 26 13V17.5H25V13C25 12.8674 24.9473 12.7402 24.8535 12.6464C24.7598 12.5527 24.6326 12.5 24.5 12.5ZM24 13.5V14.5C24 14.7652 23.8946 15.0196 23.7071 15.2071C23.5196 15.3946 23.2652 15.5 23 15.5C22.7348 15.5 22.4804 15.3946 22.2929 15.2071C22.1054 15.0196 22 14.7652 22 14.5V13.5H24ZM27.5 19.62V19C27.5008 18.3648 27.3279 17.7415 27 17.1974V13C26.9993 12.3372 26.7356 11.7017 26.2669 11.2331C25.7983 10.7644 25.1628 10.5007 24.5 10.5H23.5C22.8372 10.5007 22.2017 10.7644 21.7331 11.2331C21.2644 11.7017 21.0007 12.3372 21 13V14.5C20.9996 14.9924 21.1817 15.4674 21.511 15.8334C20.9102 16.1164 20.4021 16.5643 20.0461 17.125C19.69 17.6856 19.5007 18.3359 19.5 19V19.6187C18.4574 18.8073 17.6876 17.6966 17.2937 16.4356L18.9102 14.8575C19.0968 14.6766 19.2451 14.4601 19.3464 14.2207C19.4477 13.9814 19.4999 13.7242 19.4999 13.4643C19.4999 13.2044 19.4477 12.9472 19.3464 12.7078C19.2451 12.4685 19.0968 12.252 18.9102 12.0711V12.0711C18.5888 11.757 18.171 11.5602 17.7242 11.5126C18.1702 10.6493 18.804 9.89689 19.5791 9.31083C20.3542 8.72477 21.2509 8.31993 22.2031 8.12611C23.1553 7.93229 24.1388 7.95441 25.0814 8.19085C26.0239 8.42728 26.9014 8.87202 27.6494 9.49234C28.3974 10.1127 28.9968 10.8928 29.4035 11.7753C29.8102 12.6578 30.0139 13.6203 29.9995 14.5919C29.9852 15.5636 29.7532 16.5196 29.3207 17.3898C28.8881 18.2599 28.2659 19.022 27.5 19.62V19.62Z" fill="black"/>
<path d="M17.5 22H14.5C14.1022 22 13.7206 22.158 13.4393 22.4393C13.158 22.7206 13 23.1022 13 23.5C13 23.8978 13.158 24.2794 13.4393 24.5607C13.7206 24.842 14.1022 25 14.5 25H17.5C17.8978 25 18.2794 24.842 18.5607 24.5607C18.842 24.2794 19 23.8978 19 23.5C19 23.1022 18.842 22.7206 18.5607 22.4393C18.2794 22.158 17.8978 22 17.5 22V22ZM17.5 24H14.5C14.3674 24 14.2402 23.9473 14.1464 23.8536C14.0527 23.7598 14 23.6326 14 23.5C14 23.3674 14.0527 23.2402 14.1464 23.1464C14.2402 23.0527 14.3674 23 14.5 23H17.5C17.6326 23 17.7598 23.0527 17.8536 23.1464C17.9473 23.2402 18 23.3674 18 23.5C18 23.6326 17.9473 23.7598 17.8536 23.8536C17.7598 23.9473 17.6326 24 17.5 24Z" fill="black"/>
</svg>
