<svg width="32" height="32" viewBox="0 0 32 32" fill="none" xmlns="http://www.w3.org/2000/svg">
<path d="M16.8649 22.919H3.02703C2.4538 22.9183 1.90424 22.6903 1.49891 22.285C1.09357 21.8796 0.865555 21.3301 0.864868 20.7569C0.867501 18.3492 1.8251 16.0409 3.52756 14.3385C5.23003 12.636 7.53831 11.6784 9.94595 11.6758H16.8649C17.4381 11.6765 17.9877 11.9045 18.393 12.3098C18.7983 12.7152 19.0263 13.2647 19.027 13.8379V20.7569C19.0263 21.3301 18.7983 21.8796 18.393 22.285C17.9877 22.6903 17.4381 22.9183 16.8649 22.919V22.919ZM9.94595 12.5406C7.76761 12.543 5.67918 13.4095 4.13886 14.9498C2.59854 16.4901 1.73214 18.5785 1.72973 20.7569C1.72973 21.1009 1.86641 21.4309 2.1097 21.6742C2.35299 21.9175 2.68297 22.0542 3.02703 22.0542H16.8649C17.2089 22.0542 17.5389 21.9175 17.7822 21.6742C18.0255 21.4309 18.1622 21.1009 18.1622 20.7569V13.8379C18.1622 13.4939 18.0255 13.1639 17.7822 12.9206C17.5389 12.6773 17.2089 12.5406 16.8649 12.5406H9.94595Z" fill="black"/>
<path d="M6.91892 20.7567H1.30811V19.8918H6.91892C7.49236 19.8918 8.04231 19.664 8.4478 19.2585C8.85328 18.8531 9.08108 18.3031 9.08108 17.7297C9.08108 17.1562 8.85328 16.6063 8.4478 16.2008C8.04231 15.7953 7.49236 15.5675 6.91892 15.5675H3.45946V14.7026H6.91892C7.72173 14.7026 8.49167 15.0216 9.05935 15.5892C9.62703 16.1569 9.94594 16.9268 9.94594 17.7297C9.94594 18.5325 9.62703 19.3024 9.05935 19.8701C8.49167 20.4378 7.72173 20.7567 6.91892 20.7567V20.7567Z" fill="black"/>
<path d="M18.5946 19.0271C18.4799 19.0271 18.3699 18.9816 18.2888 18.9005C18.2077 18.8194 18.1622 18.7094 18.1622 18.5947V13.8379C18.1622 13.7232 18.2077 13.6133 18.2888 13.5322C18.3699 13.4511 18.4799 13.4055 18.5946 13.4055H26.9315L28.5626 8.51209C28.5913 8.42595 28.6464 8.35102 28.72 8.29793C28.7937 8.24484 28.8822 8.21629 28.973 8.21631H30.7027C30.8174 8.21631 30.9274 8.26187 31.0085 8.34296C31.0896 8.42406 31.1351 8.53405 31.1351 8.64874V15.5677C31.1351 15.6641 31.1029 15.7577 31.0436 15.8337C30.9843 15.9097 30.9013 15.9637 30.8078 15.9871L18.6997 19.0141C18.6653 19.0228 18.63 19.0271 18.5946 19.0271V19.0271ZM19.027 14.2704V18.0407L30.2703 15.2299V9.08117H29.2848L27.6536 13.9746C27.6249 14.0607 27.5699 14.1356 27.4962 14.1887C27.4225 14.2418 27.334 14.2704 27.2433 14.2704H19.027Z" fill="black"/>
<path d="M13.8378 25.946H6.05406C5.31592 25.9442 4.58822 25.7715 3.928 25.4414C3.26778 25.1113 2.69299 24.6328 2.24866 24.0433L2.94055 23.5244C3.30409 24.0067 3.77437 24.3982 4.31455 24.6683C4.85473 24.9384 5.45013 25.0797 6.05406 25.0812H13.8378C14.4418 25.0797 15.0372 24.9384 15.5774 24.6683C16.1175 24.3982 16.5878 24.0067 16.9514 23.5244L17.6433 24.0433C17.1989 24.6328 16.6241 25.1113 15.9639 25.4414C15.3037 25.7715 14.576 25.9442 13.8378 25.946V25.946Z" fill="black"/>
<path d="M13.4054 22.4863H14.2703V25.5134H13.4054V22.4863Z" fill="black"/>
<path d="M5.62164 22.4863H6.48651V25.5134H5.62164V22.4863Z" fill="black"/>
<path d="M12.1081 16.8647H16.4324V17.7296H12.1081V16.8647Z" fill="black"/>
<path d="M13.8378 15.1353H14.7027V19.4596H13.8378V15.1353Z" fill="black"/>
<path d="M14.2702 12.5404H10.8108C10.6961 12.5404 10.5861 12.4948 10.505 12.4137C10.4239 12.3326 10.3784 12.2227 10.3784 12.108V10.3782C10.3784 10.2635 10.4239 10.1536 10.505 10.0725C10.5861 9.99136 10.6961 9.9458 10.8108 9.9458H14.2702C14.3849 9.9458 14.4949 9.99136 14.576 10.0725C14.6571 10.1536 14.7027 10.2635 14.7027 10.3782V12.108C14.7027 12.2227 14.6571 12.3326 14.576 12.4137C14.4949 12.4948 14.3849 12.5404 14.2702 12.5404ZM11.2432 11.6755H13.8378V10.8107H11.2432V11.6755Z" fill="black"/>
<path d="M12.1081 7.78369H12.973V10.3783H12.1081V7.78369Z" fill="black"/>
<path d="M20.3244 9.51356C19.0418 9.52296 17.7639 9.36036 16.5246 9.0301C15.6165 8.8368 14.3693 8.57129 12.4597 8.20848C12.361 8.18949 12.272 8.13671 12.208 8.05921C12.144 7.98172 12.1089 7.88434 12.1089 7.78383C12.1089 7.68331 12.144 7.58594 12.208 7.50844C12.272 7.43094 12.361 7.37816 12.4597 7.35918C14.3693 6.99637 15.6165 6.73085 16.5246 6.53756C17.7639 6.2073 19.0418 6.04469 20.3244 6.0541C21.5166 6.0541 22.4865 6.82988 22.4865 7.78383C22.4865 8.73777 21.5166 9.51356 20.3244 9.51356V9.51356ZM14.7866 7.78383C15.5715 7.94339 16.1912 8.07485 16.7045 8.18426C17.8843 8.50349 19.1022 8.65975 20.3244 8.64869C21.0275 8.64869 21.6216 8.25258 21.6216 7.78383C21.6216 7.31507 21.0275 6.91896 20.3244 6.91896C19.1022 6.90791 17.8843 7.06417 16.7045 7.38339C16.1912 7.4928 15.5715 7.62426 14.7866 7.78383Z" fill="black"/>
<path d="M4.75677 9.51356C3.56455 9.51356 2.5946 8.73777 2.5946 7.78383C2.5946 6.82988 3.56455 6.0541 4.75677 6.0541C6.03928 6.04469 7.31726 6.2073 8.55655 6.53756C9.46466 6.73085 10.7118 6.99637 12.6214 7.35918C12.7201 7.37816 12.8091 7.43094 12.8731 7.50844C12.9372 7.58594 12.9722 7.68331 12.9722 7.78383C12.9722 7.88434 12.9372 7.98172 12.8731 8.05921C12.8091 8.13671 12.7201 8.18949 12.6214 8.20848C10.7118 8.57129 9.46466 8.8368 8.55655 9.0301C7.31726 9.36036 6.03928 9.52296 4.75677 9.51356V9.51356ZM4.75677 6.91896C4.05363 6.91896 3.45947 7.31507 3.45947 7.78383C3.45947 8.25258 4.05363 8.64869 4.75677 8.64869C5.97893 8.65975 7.19687 8.50349 8.37666 8.18426C8.88996 8.07485 9.50963 7.94339 10.2945 7.78383C9.50963 7.62426 8.88996 7.4928 8.37666 7.38339C7.19687 7.06417 5.97893 6.90791 4.75677 6.91896V6.91896Z" fill="black"/>
</svg>
