<svg id="_333" data-name="333" xmlns="http://www.w3.org/2000/svg" xmlns:xlink="http://www.w3.org/1999/xlink" width="28" height="20.783" viewBox="0 0 28 20.783">
  <defs>
    <clipPath id="clip-path">
      <rect id="Rectangle_12545" data-name="Rectangle 12545" width="28" height="20.783"/>
    </clipPath>
  </defs>
  <g id="Group_37674" data-name="Group 37674" clip-path="url(#clip-path)">
    <path id="Path_105399" data-name="Path 105399" d="M28,18.43a6.725,6.725,0,0,1-.484,1.141A2.616,2.616,0,0,1,25.2,20.781q-3.39,0-6.78,0-7.792,0-15.584,0A2.729,2.729,0,0,1,.083,18.689a3.146,3.146,0,0,1-.08-.73Q0,10.386,0,2.813A2.73,2.73,0,0,1,2.817,0Q4.375,0,5.934,0A.56.56,0,0,1,6.56.513a.555.555,0,0,1-.611.581c-1.012,0-2.023,0-3.035,0A1.656,1.656,0,0,0,1.094,2.9q0,7.491,0,14.982a1.654,1.654,0,0,0,1.8,1.8H25.1a1.657,1.657,0,0,0,1.81-1.82q0-7.478,0-14.955a1.656,1.656,0,0,0-1.811-1.818H10.6c-.5,0-.756-.186-.758-.545S10.1,0,10.6,0H25.008a2.739,2.739,0,0,1,2.958,2.311c0,.016.022.027.033.041Z" transform="translate(0 0.001)"/>
    <path id="Path_105400" data-name="Path 105400" d="M59.154,62.428a5.25,5.25,0,1,1,5.257-5.243,5.26,5.26,0,0,1-5.257,5.243m3.209-2.639a4.142,4.142,0,1,0-6.441-5.209,4.039,4.039,0,0,0,.023,5.16,9.42,9.42,0,0,1,.707-.823,9.989,9.989,0,0,1,.884-.671,2.356,2.356,0,0,1,.26-3.119,2.125,2.125,0,0,1,2.693-.032,2.364,2.364,0,0,1,.28,3.184,3.744,3.744,0,0,1,1.594,1.51m-5.547.792a4.073,4.073,0,0,0,4.69,0,2.53,2.53,0,0,0-4.69,0M60.152,56.8a1,1,0,0,0-.628-1.017.989.989,0,0,0-1.1.255,1.187,1.187,0,0,0-.2,1.181.963.963,0,0,0,1.109.67,1,1,0,0,0,.819-1.089" transform="translate(-50.958 -49.084)"/>
    <path id="Path_105401" data-name="Path 105401" d="M297.921,105.3h-3.77c-.537,0-.715-.18-.715-.726q0-2.008,0-4.016c0-.547.176-.727.713-.727h7.54c.538,0,.715.18.715.725q0,2.008,0,4.016c0,.555-.176.727-.741.727h-3.743m-3.371-1.116H301.3v-3.248H294.55Z" transform="translate(-277.358 -94.359)"/>
    <path id="Path_105402" data-name="Path 105402" d="M297.934,220.684H294.22a2.236,2.236,0,0,1-.246,0,.544.544,0,0,1-.008-1.084,1.569,1.569,0,0,1,.191,0h7.592c.045,0,.091,0,.136,0a.545.545,0,1,1,.008,1.09c-.163.008-.328,0-.491,0h-3.468" transform="translate(-277.395 -207.557)"/>
    <path id="Path_105403" data-name="Path 105403" d="M82.105,264.636q-1.625,0-3.25,0c-.4,0-.65-.209-.656-.536a.567.567,0,0,1,.64-.556q3.278,0,6.555,0a.562.562,0,0,1,.614.393.514.514,0,0,1-.234.612.9.9,0,0,1-.391.085c-1.093.006-2.185,0-3.278,0" transform="translate(-73.914 -249.102)"/>
    <path id="Path_105404" data-name="Path 105404" d="M97.216,304.555c-.8,0-1.6,0-2.4,0-.391,0-.646-.221-.643-.549s.258-.543.652-.544q2.389,0,4.779,0c.4,0,.65.213.656.539s-.251.553-.665.554q-1.188,0-2.376,0" transform="translate(-89.011 -286.833)"/>
    <path id="Path_105405" data-name="Path 105405" d="M375.616,259.506c.555,0,1.109,0,1.664,0a.552.552,0,1,1-.007,1.092q-1.664,0-3.328,0a.558.558,0,0,1-.627-.536c-.006-.331.244-.554.634-.556.555,0,1.109,0,1.664,0" transform="translate(-352.863 -245.286)"/>
    <path id="Path_105406" data-name="Path 105406" d="M140.867.6a.545.545,0,1,1-1.089.02A.545.545,0,0,1,140.867.6" transform="translate(-132.118 -0.059)"/>
    <path id="Path_105407" data-name="Path 105407" d="M294,260.643a.545.545,0,1,1,.557-.519.552.552,0,0,1-.557.519" transform="translate(-277.391 -245.331)"/>
    <path id="Path_105408" data-name="Path 105408" d="M334.489,260.1a.545.545,0,1,1-.525-.551.552.552,0,0,1,.525.551" transform="translate(-315.131 -245.326)"/>
  </g>
</svg>
