<svg xmlns="http://www.w3.org/2000/svg" xmlns:xlink="http://www.w3.org/1999/xlink" width="32" height="32" viewBox="0 0 32 32">
  <defs>
    <clipPath id="clip-path">
      <rect id="Rectangle_12601" data-name="Rectangle 12601" width="28" height="22.625"/>
    </clipPath>
  </defs>
  <g id="Group_37669" data-name="Group 37669" transform="translate(10187 1859)">
    <rect id="Rectangle_12544" data-name="Rectangle 12544" width="32" height="32" transform="translate(-10187 -1859)" opacity="0"/>
    <g id="Group_37721" data-name="Group 37721" transform="translate(-10185 -1854)">
      <g id="Group_37721-2" data-name="Group 37721" clip-path="url(#clip-path)">
        <path id="Path_105653" data-name="Path 105653" d="M4.517,19.9H5.4V11.78H4.517c0,.385,0,.776,0,1.167,0,.484-.141.626-.617.627q-1.651,0-3.3,0c-.445,0-.6-.149-.6-.59Q0,11.3,0,9.619c0-.409.157-.568.56-.569q1.693,0,3.387,0c.407,0,.565.158.568.561s0,.808,0,1.23h.889v-8.1H4.517c0,.4,0,.8,0,1.2,0,.427-.154.584-.573.585q-1.693,0-3.387,0C.167,4.524,0,4.363,0,3.979Q0,2.268,0,.557C0,.167.162,0,.546,0Q2.253,0,3.961,0c.4,0,.553.162.555.574s0,.805,0,1.235c.42,0,.812,0,1.2,0,.457,0,.6.148.6.613q0,4.029,0,8.059v.357h.452c0-.118,0-.238,0-.357a.466.466,0,0,1,.46-.53c.289-.041.577-.085.867-.113A.305.305,0,0,0,8.394,9.6c.13-.362.3-.71.432-1.07A.4.4,0,0,0,8.8,8.214c-.165-.251-.362-.481-.541-.724a.459.459,0,0,1,.038-.7q.582-.6,1.177-1.18a.458.458,0,0,1,.7-.052c.243.178.471.376.722.542a.4.4,0,0,0,.312.035c.369-.135.734-.285,1.09-.454a.444.444,0,0,0,.217-.269c.063-.294.083-.6.127-.894a.451.451,0,0,1,.489-.441q.861-.009,1.721,0a.456.456,0,0,1,.5.459c.041.289.085.578.112.868a.3.3,0,0,0,.242.293c.361.13.708.3,1.068.434a.4.4,0,0,0,.312-.024c.251-.165.48-.363.722-.542a.456.456,0,0,1,.7.038q.6.582,1.178,1.179a.461.461,0,0,1,.051.7c-.178.243-.376.472-.541.723a.4.4,0,0,0-.034.313c.136.37.287.735.456,1.091a.446.446,0,0,0,.266.218c.265.06.539.075.809.115.418.063.523.189.526.615,0,.092,0,.184,0,.289h.452v-.325q0-4.029,0-8.059c0-.52.13-.651.648-.651h1.158c0-.421,0-.823,0-1.225,0-.428.153-.584.573-.584q1.693,0,3.387,0c.389,0,.554.162.555.546q0,1.711,0,3.421c0,.39-.162.555-.545.556q-1.707,0-3.415,0c-.39,0-.551-.161-.554-.547,0-.412,0-.824,0-1.249H22.6v8.115h.883c0-.383,0-.774,0-1.165,0-.486.139-.628.615-.628h3.3c.446,0,.6.149.6.587Q28,11.32,28,13c0,.409-.157.57-.558.571q-1.693,0-3.387,0c-.417,0-.568-.159-.57-.588,0-.395,0-.789,0-1.2H22.6v8.1h.888c0-.388,0-.78,0-1.172,0-.467.144-.615.6-.615q1.665,0,3.33,0c.437,0,.585.153.586.6q0,1.654,0,3.308c0,.475-.144.615-.628.615H24.125c-.512,0-.641-.133-.642-.658,0-.375,0-.749,0-1.152-.428,0-.83,0-1.231,0-.42,0-.574-.157-.574-.583q0-4.044,0-8.087v-.357h-.452c0,.126,0,.255,0,.383a.457.457,0,0,1-.431.5c-.3.047-.6.087-.895.115a.305.305,0,0,0-.294.241c-.13.362-.3.71-.432,1.071a.4.4,0,0,0,.024.313c.165.251.363.48.541.723a.461.461,0,0,1-.038.7q-.582.6-1.177,1.18a.465.465,0,0,1-.723.035c-.226-.169-.453-.338-.67-.517a.293.293,0,0,0-.371-.042c-.344.17-.711.292-1.058.457a.442.442,0,0,0-.218.265c-.063.294-.083.6-.127.894a.451.451,0,0,1-.49.441q-.861.01-1.721,0a.456.456,0,0,1-.5-.46c-.042-.3-.065-.6-.126-.895a.411.411,0,0,0-.206-.248c-.365-.171-.738-.325-1.114-.469a.333.333,0,0,0-.267.023c-.256.175-.494.375-.744.56a.457.457,0,0,1-.7-.04q-.6-.583-1.178-1.18a.46.46,0,0,1-.05-.7c.207-.28.551-.536.595-.838s-.272-.618-.34-.947c-.1-.463-.361-.589-.791-.629-.854-.08-.852-.1-.974-.949H6.323V12.1q0,4.03,0,8.059c0,.518-.132.65-.65.65H4.517c0,.423,0,.825,0,1.227,0,.426-.154.581-.576.582q-1.679,0-3.358,0c-.425,0-.58-.154-.58-.577q0-1.682,0-3.365c0-.426.153-.581.576-.581q1.679,0,3.358,0c.425,0,.578.154.581.577,0,.4,0,.791,0,1.219m8.974-2.265h1.018c.043-.331.085-.648.125-.966a.572.572,0,0,1,.451-.5,14.337,14.337,0,0,0,1.552-.647.573.573,0,0,1,.7.038c.252.205.515.4.71.546l.755-.705c-.177-.232-.351-.478-.544-.708a.6.6,0,0,1-.053-.745,12.99,12.99,0,0,0,.631-1.5c.128-.358.2-.451.583-.5.3-.037.592-.079.893-.119V10.8c-.326-.043-.642-.085-.958-.125a.574.574,0,0,1-.51-.445,16.086,16.086,0,0,0-.657-1.581.563.563,0,0,1,.043-.674c.2-.254.4-.518.561-.737L18.08,6.5c-.24.183-.491.365-.73.562a.585.585,0,0,1-.721.045A11.89,11.89,0,0,0,15.1,6.468a.594.594,0,0,1-.475-.547c-.034-.308-.079-.614-.12-.931H13.492c-.042.321-.086.636-.124.952a.584.584,0,0,1-.465.524,11.75,11.75,0,0,0-1.526.636.6.6,0,0,1-.744-.054c-.236-.2-.488-.375-.714-.548L9.2,7.226c.183.241.371.5.572.747a.576.576,0,0,1,.036.7A12.564,12.564,0,0,0,9.167,10.2a.6.6,0,0,1-.54.483c-.313.037-.626.085-.93.127v1.009c.325.044.632.089.94.126a.585.585,0,0,1,.526.463,13.775,13.775,0,0,0,.648,1.554.578.578,0,0,1-.047.7c-.2.247-.387.5-.577.754l.716.726c.257-.2.515-.383.761-.585a.571.571,0,0,1,.7-.041,12.077,12.077,0,0,0,1.525.639.607.607,0,0,1,.489.567c.031.3.076.6.117.912M.928,3.6H3.592V.912H.928Zm23.479,0h2.675V.918H24.406ZM3.6,9.975H.926v2.68H3.6ZM24.41,12.651h2.664V9.961H24.41ZM.921,21.7h2.67v-2.69H.921Zm23.477,0h2.674V19.02H24.4Z" transform="translate(0 0)"/>
        <path id="Path_105654" data-name="Path 105654" d="M131.757,100.074a4.064,4.064,0,1,1,4.038,4.084,4.075,4.075,0,0,1-4.038-4.084m7.224.007a3.16,3.16,0,1,0-3.155,3.171,3.172,3.172,0,0,0,3.155-3.171" transform="translate(-121.821 -88.774)"/>
      </g>
    </g>
  </g>
</svg>
