<svg xmlns="http://www.w3.org/2000/svg" width="25.647" height="32" viewBox="0 0 25.647 32">
  <g id="Group_37732" data-name="Group 37732" transform="translate(-73.225 -5.965)">
    <g id="_x31_6_Menu" transform="translate(73.225 5.965)">
      <g id="Group_37731" data-name="Group 37731" transform="translate(0)">
        <g id="Group_37729" data-name="Group 37729" transform="translate(14.149 5.589)">
          <g id="Group_37728" data-name="Group 37728">
            <path id="Path_105388" data-name="Path 105388" d="M277.959,135.981a4.9,4.9,0,0,0-.71-.227.245.245,0,1,0-.113.477,4.407,4.407,0,0,1,.639.2.245.245,0,0,0,.184-.454Z" transform="translate(-276.948 -135.747)"/>
            <path id="Path_105389" data-name="Path 105389" d="M301.919,148.122a4.99,4.99,0,0,0-1.087-1.165.245.245,0,1,0-.3.387,4.5,4.5,0,0,1,.968,1.034.246.246,0,1,0,.418-.256Z" transform="translate(-298.667 -146.065)"/>
          </g>
        </g>
        <g id="Group_37730" data-name="Group 37730">
          <path id="Path_105390" data-name="Path 105390" d="M406.892,456.543a.246.246,0,0,0-.26.229,3.7,3.7,0,0,1-1.96,3.018.245.245,0,1,0,.228.434,4.191,4.191,0,0,0,2.22-3.421A.245.245,0,0,0,406.892,456.543Z" transform="translate(-381.475 -428.702)"/>
          <path id="Path_105391" data-name="Path 105391" d="M376.312,504.821a6.61,6.61,0,0,1-.84.028.245.245,0,0,0,0,.49,7.02,7.02,0,0,0,.9-.031.245.245,0,1,0-.06-.487Z" transform="translate(-354.369 -473.339)"/>
          <path id="Path_105392" data-name="Path 105392" d="M73.47,133.549a.245.245,0,0,0-.245.245v3.7a.245.245,0,1,0,.49,0v-3.7A.245.245,0,0,0,73.47,133.549Z" transform="translate(-73.225 -128.138)"/>
          <path id="Path_105393" data-name="Path 105393" d="M73.47,107.433a.245.245,0,0,0-.245.245v.676a.245.245,0,0,0,.49,0v-.676A.245.245,0,0,0,73.47,107.433Z" transform="translate(-73.225 -103.528)"/>
          <path id="Path_105394" data-name="Path 105394" d="M114.156,5.965c.074.065-19.415,0-20.112.013l-.013,28.01a2.4,2.4,0,0,0,2.4,2.41h17.73a2.4,2.4,0,0,0,2.4-2.41V8.375a2.4,2.4,0,0,0-2.4-2.41ZM116.1,33.987a1.951,1.951,0,0,1-1.943,1.955H96.426a1.951,1.951,0,0,1-1.943-1.955V6.42h19.673A1.951,1.951,0,0,1,116.1,8.375V33.987Z" transform="translate(-92.463 -5.965)"/>
          <path id="Path_105395" data-name="Path 105395" d="M121.005,262.517a1.183,1.183,0,1,1-1.184-1.184A1.185,1.185,0,0,1,121.005,262.517Z" transform="translate(-115.216 -246.98)"/>
          <path id="Path_105396" data-name="Path 105396" d="M190.182,260.993H179.8a.245.245,0,0,0,0,.49h10.386a.245.245,0,1,0,0-.49Z" transform="translate(-172.452 -246.6)"/>
          <path id="Path_105397" data-name="Path 105397" d="M179.8,287.057h4.843a.245.245,0,1,0,0-.49H179.8a.245.245,0,1,0,0,.49Z" transform="translate(-172.224 -270.381)"/>
          <path id="Path_105398" data-name="Path 105398" d="M361.712,274.271h1.925a.245.245,0,1,0,0-.49h-1.925a.245.245,0,1,0,0,.49Z" transform="translate(-341.646 -258.492)"/>
          <path id="Path_105399" data-name="Path 105399" d="M121.005,337.2a1.183,1.183,0,1,1-1.184-1.182A1.186,1.186,0,0,1,121.005,337.2Z" transform="translate(-115.216 -316.45)"/>
          <path id="Path_105400" data-name="Path 105400" d="M190.182,335.666H179.8a.245.245,0,0,0,0,.49h10.386a.245.245,0,1,0,0-.49Z" transform="translate(-172.452 -316.039)"/>
          <path id="Path_105401" data-name="Path 105401" d="M179.8,361.732h4.843a.245.245,0,1,0,0-.49H179.8a.245.245,0,1,0,0,.49Z" transform="translate(-172.224 -339.823)"/>
          <path id="Path_105402" data-name="Path 105402" d="M361.712,348.944h1.925a.245.245,0,1,0,0-.49h-1.925a.245.245,0,1,0,0,.49Z" transform="translate(-341.646 -327.931)"/>
          <path id="Path_105403" data-name="Path 105403" d="M121.005,411.852a1.183,1.183,0,1,1-1.184-1.184A1.186,1.186,0,0,1,121.005,411.852Z" transform="translate(-115.216 -385.895)"/>
          <path id="Path_105404" data-name="Path 105404" d="M190.182,410.34H179.8a.245.245,0,1,0,0,.49h10.386a.245.245,0,1,0,0-.49Z" transform="translate(-172.452 -385.48)"/>
          <path id="Path_105405" data-name="Path 105405" d="M184.638,435.915H179.8a.245.245,0,1,0,0,.49h4.843a.245.245,0,1,0,0-.49Z" transform="translate(-172.223 -409.629)"/>
          <path id="Path_105406" data-name="Path 105406" d="M363.881,423.372a.245.245,0,0,0-.245-.245h-1.925a.245.245,0,0,0,0,.49h1.925A.245.245,0,0,0,363.881,423.372Z" transform="translate(-341.646 -397.805)"/>
          <path id="Path_105407" data-name="Path 105407" d="M172.2,100.4c-.106-3.317-2.405-6-5.283-6.205a1.122,1.122,0,0,0,.142-.549.9.9,0,1,0-1.789,0,1.123,1.123,0,0,0,.142.549c-2.876.2-5.174,2.884-5.282,6.2h-.019a.6.6,0,0,0-.553.631v.622a.6.6,0,0,0,.553.631h12.015a.6.6,0,0,0,.551-.631v-.622A.608.608,0,0,0,172.2,100.4Zm-6.035-7.29a.539.539,0,1,1-.467.535A.5.5,0,0,1,166.164,93.108Zm-.4,1.561h.8c2.8,0,5.091,2.545,5.2,5.721H160.555C160.668,97.214,162.959,94.669,165.761,94.669Z" transform="translate(-153.05 -89.83)"/>
        </g>
      </g>
    </g>
  </g>
</svg>
