<svg xmlns="http://www.w3.org/2000/svg" width="32.3" height="32.3" viewBox="0 0 32.3 32.3">
  <g id="Group_37780" data-name="Group 37780" transform="translate(-1.85 -1.85)">
    <g id="seller" transform="translate(2 2)">
      <path id="Path_105492" data-name="Path 105492" d="M48.909,11.817A4.909,4.909,0,1,0,44,6.909a4.909,4.909,0,0,0,4.909,4.909Zm0-8.727a3.818,3.818,0,1,1-3.818,3.818,3.818,3.818,0,0,1,3.818-3.818Z" transform="translate(-21.817 -2)" stroke="#fff" stroke-width="0.3"/>
      <path id="Path_105493" data-name="Path 105493" d="M50.315,10.951a.545.545,0,0,0,.386-.16l2.727-2.727-.771-.771L50.315,9.634,49.064,8.384l-.771.771,1.636,1.636A.545.545,0,0,0,50.315,10.951Z" transform="translate(-23.769 -4.406)" stroke="#fff" stroke-width="0.3"/>
      <path id="Path_105494" data-name="Path 105494" d="M33.467,32.624h-.533V24.636A.533.533,0,0,0,32.4,24.1H26v-.937c.336-.58,2.213-3.493,3.488-5.452h1.845A2.665,2.665,0,0,0,34,15.052a.533.533,0,0,0-.533-.532H28.133a2.659,2.659,0,0,0-2.645,2.444l-1.739,2.125a4.259,4.259,0,0,0-1.856-.815L20.3,17.741a.518.518,0,0,0-.336.005L19.8,16.719a3.74,3.74,0,0,0,1.893-2.732h.576a1.069,1.069,0,0,0,1.067-1.065V12.39a1.065,1.065,0,0,0-.864-1.044l.709-.708a.55.55,0,0,0,.155-.378V9.727A3.735,3.735,0,0,0,19.6,6H16.4a3.735,3.735,0,0,0-3.733,3.727v.532a.55.55,0,0,0,.155.378l.709.708a1.065,1.065,0,0,0-.864,1.044v.532a1.069,1.069,0,0,0,1.067,1.065h.576A3.74,3.74,0,0,0,16.2,16.719l-.171,1.028a.518.518,0,0,0-.336-.005l-1.589.532a4.259,4.259,0,0,0-1.856.815l-1.739-2.125A2.659,2.659,0,0,0,7.867,14.52H2.533A.533.533,0,0,0,2,15.052a2.665,2.665,0,0,0,2.667,2.662h1.84L10,23.193V24.1H3.6a.533.533,0,0,0-.533.532v7.987H2.533A.533.533,0,0,0,2,33.156v2.13a.533.533,0,0,0,.533.532H33.467A.533.533,0,0,0,34,35.286v-2.13A.533.533,0,0,0,33.467,32.624ZM27.6,25.169h1.067v1.065H27.6Zm-1.067,0v1.6a.533.533,0,0,0,.533.532H29.2a.533.533,0,0,0,.533-.532v-1.6h2.133v7.455H24.4V25.169Zm1.6-9.584h4.709a1.607,1.607,0,0,1-1.509,1.065H26.624a1.607,1.607,0,0,1,1.509-1.065Zm-5.867-2.662h-.533V12.39h.533Zm-8,0h-.533V12.39h.533Zm0-2.662v.314l-.533-.532V9.727A2.665,2.665,0,0,1,16.4,7.065h3.2a2.665,2.665,0,0,1,2.667,2.662v.314l-.533.532V10.26a.533.533,0,0,0-.405-.516L17.061,8.678a.519.519,0,0,0-.368.043L14.56,9.786a.52.52,0,0,0-.293.474Zm1.067,3.195V10.59L17,9.759l3.669.916v2.779a2.667,2.667,0,0,1-5.333,0Zm3.7,5.144L18,19.626,16.971,18.6l.251-1.5a3.6,3.6,0,0,0,1.557,0Zm-3.307.256,1.9,1.9a.538.538,0,0,0,.757,0l1.9-1.9.6.2-2.085,2.918H17.205L15.12,19.056Zm3.248,6.315.592,3.546L18,30.275l-1.563-1.56.592-3.546ZM17.205,24.1l.181-1.065h1.227l.181,1.065ZM4.667,16.649a1.607,1.607,0,0,1-1.509-1.065H7.867a1.607,1.607,0,0,1,1.509,1.065Zm3.1,1.065H9.749l4.64,5.66.821-.671-2.288-2.8a3.5,3.5,0,0,1,1.115-.538l2.336,3.264-1.035,6.177a.538.538,0,0,0,.149.463l2.133,2.13a.541.541,0,0,0,.757,0l2.133-2.13a.538.538,0,0,0,.149-.463l-1.035-6.177,2.336-3.264a3.5,3.5,0,0,1,1.115.538l-2.288,2.8.821.671,4.64-5.66h1.968c-3.285,5.053-3.285,5.133-3.285,5.325V24.1H23.867a.533.533,0,0,0-.533.532v7.987H12.667V24.636a.533.533,0,0,0-.533-.532H11.067V23.039a.5.5,0,0,0-.085-.288Zm-.437,7.455H8.4v1.065H7.333Zm-3.2,0H6.267v1.6A.533.533,0,0,0,6.8,27.3H8.933a.533.533,0,0,0,.533-.532v-1.6H11.6v7.455H4.133Zm28.8,9.584H3.067V33.688H32.933Z" transform="translate(-2 -3.818)" stroke="#fff" stroke-width="0.3"/>
      <path id="Path_105495" data-name="Path 105495" d="M3.636,11.817h6.545a1.636,1.636,0,0,0,1.636-1.636V3.636A1.636,1.636,0,0,0,10.181,2H3.636A1.636,1.636,0,0,0,2,3.636v6.545A1.636,1.636,0,0,0,3.636,11.817ZM3.091,3.636a.545.545,0,0,1,.545-.545h6.545a.545.545,0,0,1,.545.545v6.545a.545.545,0,0,1-.545.545H3.636a.545.545,0,0,1-.545-.545Z" transform="translate(-2 -2)" stroke="#fff" stroke-width="0.3"/>
      <rect id="Rectangle_12551" data-name="Rectangle 12551" width="1" height="1" transform="translate(2.362 2.362)" stroke="#fff" stroke-width="0.3"/>
      <rect id="Rectangle_12552" data-name="Rectangle 12552" width="3" height="1" transform="translate(4.362 2.362)" stroke="#fff" stroke-width="0.3"/>
      <rect id="Rectangle_12553" data-name="Rectangle 12553" width="5" height="1" transform="translate(2.362 4.362)" stroke="#fff" stroke-width="0.3"/>
      <rect id="Rectangle_12554" data-name="Rectangle 12554" width="5" height="1" transform="translate(2.362 6.217)" stroke="#fff" stroke-width="0.3"/>
    </g>
  </g>
</svg>
