<svg xmlns="http://www.w3.org/2000/svg" width="63.382" height="60" viewBox="0 0 63.382 60">
  <g id="Group_37986" data-name="Group 37986" transform="translate(0 -13.661)">
    <g id="Group_37985" data-name="Group 37985" transform="translate(0 13.661)">
      <g id="Group_37984" data-name="Group 37984" transform="translate(0 0)">
        <path id="Path_105889" data-name="Path 105889" d="M292.691,120.592v-1.613a.96.96,0,1,0-1.92,0v1.613a.96.96,0,0,0,1.92,0Z" transform="translate(-254.812 -105.127)"/>
        <path id="Path_105890" data-name="Path 105890" d="M368.46,121.552a.96.96,0,0,0,.96-.96v-1.613a.96.96,0,1,0-1.92,0v1.613A.96.96,0,0,0,368.46,121.552Z" transform="translate(-322.052 -105.127)"/>
        <path id="Path_105891" data-name="Path 105891" d="M309.683,168.826a.96.96,0,1,0-1.357-1.357,4.168,4.168,0,0,1-5.9,0,.96.96,0,0,0-1.357,1.357,6.1,6.1,0,0,0,8.613,0Z" transform="translate(-263.758 -148.219)"/>
        <path id="Path_105892" data-name="Path 105892" d="M307.069,347.891h-7.921a.96.96,0,0,0,0,1.92h7.921a.96.96,0,1,0,0-1.92Z" transform="translate(-261.495 -306.56)"/>
        <path id="Path_105893" data-name="Path 105893" d="M324.708,129.421h1.379a.96.96,0,1,0,0-1.92h-.419v-1.339a.96.96,0,1,0-1.92,0v2.3A.96.96,0,0,0,324.708,129.421Z" transform="translate(-283.742 -111.429)"/>
        <path id="Path_105894" data-name="Path 105894" d="M61.835,59.787H57.9V51.426a.928.928,0,0,0-1.857,0v8.361h-3.27V42.381h.666a2.607,2.607,0,0,1,2.6,2.6v2.109a.928.928,0,0,0,1.857,0V44.985a4.466,4.466,0,0,0-4.461-4.461H45.548v-.285a7.789,7.789,0,0,0,5.816-6.484H52.1a3.174,3.174,0,0,0,3.171-3.171V29.091a3.158,3.158,0,0,0-.848-2.155V20.188a4.962,4.962,0,0,0-4.956-4.956H45.008a4.278,4.278,0,0,0-3.313-1.571h-10.5a2.274,2.274,0,0,0-2.271,2.271v11a3.158,3.158,0,0,0-.848,2.155v1.494a3.174,3.174,0,0,0,3.171,3.171h.739A7.789,7.789,0,0,0,37.8,40.239v.285H29.912a4.466,4.466,0,0,0-4.461,4.461v8.309h-.879L23,48.477a3.132,3.132,0,0,0-2.984-2.165H16.932V44.289h2.643a1.372,1.372,0,0,0,1.371-1.371V37.963a1.372,1.372,0,0,0-1.371-1.371H7.944a1.372,1.372,0,0,0-1.371,1.371v4.956a1.372,1.372,0,0,0,1.371,1.371H11.2v2.022H7.152a1.667,1.667,0,0,0-1.665,1.665V59.787H1.547A1.549,1.549,0,0,0,0,61.335v3a1.549,1.549,0,0,0,1.547,1.547h1.32v6.229a1.549,1.549,0,0,0,1.547,1.547H58.967a1.549,1.549,0,0,0,1.547-1.547V65.885h1.32a1.549,1.549,0,0,0,1.547-1.547v-3a1.549,1.549,0,0,0-1.547-1.547ZM48.8,42.381h2.107v8H48.8Zm4.613-13.29v1.494A1.315,1.315,0,0,1,52.1,31.9h-.665V27.777H52.1a1.315,1.315,0,0,1,1.314,1.314Zm-3.948-12a3.1,3.1,0,0,1,3.1,3.1v5.766a3.175,3.175,0,0,0-.466-.035h-.665v-.876a3.753,3.753,0,0,0-3.748-3.748h-1.71V17.946a4.291,4.291,0,0,0-.086-.857ZM31.909,31.9h-.665a1.315,1.315,0,0,1-1.314-1.314V29.091a1.315,1.315,0,0,1,1.314-1.314h.665Zm0-6.855v.876h-.665a3.173,3.173,0,0,0-.466.035V15.932a.415.415,0,0,1,.414-.414h10.5a2.431,2.431,0,0,1,2.428,2.428V21.3H35.657A3.753,3.753,0,0,0,31.909,25.043ZM33.766,32.7V25.043a1.894,1.894,0,0,1,1.891-1.891H47.689a1.894,1.894,0,0,1,1.891,1.891V32.7a5.92,5.92,0,0,1-5.913,5.913H39.679A5.92,5.92,0,0,1,33.766,32.7Zm9.925,7.769v3.3a1.576,1.576,0,0,1-1.574,1.574H41.23a1.576,1.576,0,0,1-1.574-1.574v-3.3h4.035ZM36.4,42.381h1.4v1.384A3.435,3.435,0,0,0,41.23,47.2h.887a3.435,3.435,0,0,0,3.431-3.431V42.381h1.4v8H36.4v-8Zm-3.964,0h2.107v8H32.436Zm0,9.858H50.911v7.549H33.876V57.169a3.869,3.869,0,0,0-1.44-3.012Zm-5.127-7.254a2.607,2.607,0,0,1,2.6-2.6h.666V53.337A3.888,3.888,0,0,0,30,53.293H27.309ZM8.43,42.432V38.449H19.088v3.983Zm6.644,1.857v2.022H13.053V44.289ZM7.344,55.15h8.13a.928.928,0,1,0,0-1.857H7.344V48.168H20.017a1.279,1.279,0,0,1,1.219.884l1.384,4.241H19.807a.928.928,0,0,0,0,1.857H30a2.021,2.021,0,0,1,2.019,2.019v2.618H7.344Zm54.181,8.877H46.918a.928.928,0,1,0,0,1.857h11.74V71.8H4.725V65.885h37.86a.928.928,0,0,0,0-1.857H1.857V61.644H61.525Z" transform="translate(0 -13.661)"/>
      </g>
    </g>
  </g>
</svg>
