<svg width="32" height="32" viewBox="0 0 32 32" fill="none" xmlns="http://www.w3.org/2000/svg">
<path d="M31 22V21C31 20.3385 30.741 19.711 30.266 19.229C29.789 18.759 29.1615 18.5 28.5 18.5H20.5C19.783 18.5 19.103 18.806 18.638 19.3355C18.2265 19.792 18 20.3835 18 21V22C18 22.093 18.021 24.123 19.5 24.7905V29H18.5C18.2235 29 18 29.2235 18 29.5V31.5C18 31.7765 18.2235 32 18.5 32H30.5C30.7765 32 31 31.7765 31 31.5V29.5C31 29.2235 30.7765 29 30.5 29H29.5V24.7895C30.9785 24.118 31 22.0925 31 22V22ZM20.1225 23.955C19.411 23.775 19.1515 23.018 19.056 22.5H21.9505C21.846 23.093 21.519 24 20.4995 24C20.359 24 20.238 23.986 20.1225 23.955ZM26 21.5H23V19.5H26V21.5ZM25.951 22.5C25.8465 23.093 25.5195 24 24.5 24C23.4885 24 23.159 23.0935 23.052 22.5H25.951ZM28.5 24C27.4885 24 27.159 23.0935 27.052 22.5H29.944C29.848 23.018 29.587 23.776 28.8715 23.957C28.762 23.986 28.641 24 28.5 24V24ZM29.559 19.936C29.8435 20.2245 30 20.6025 30 21V21.5H27V19.5H28.5C28.8975 19.5 29.2755 19.6565 29.559 19.936ZM19 21C19 20.631 19.1355 20.2775 19.3855 20C19.665 19.682 20.071 19.5 20.5 19.5H22V21.5H19V21ZM30 31H19V30H30V31ZM25.5 29H23.5V27H25.5V29ZM26.5 29V26.5C26.5 26.2235 26.2765 26 26 26H23C22.7235 26 22.5 26.2235 22.5 26.5V29H20.5V25C21.497 25 22.123 24.501 22.5 23.8735C22.877 24.501 23.503 25 24.5 25C25.497 25 26.123 24.501 26.5 23.8735C26.877 24.501 27.503 25 28.5 25V29H26.5Z" fill="black"/>
<path d="M15 13.5C15.2765 13.5 15.5 13.2765 15.5 13V11.5C15.5 11.2235 15.2765 11 15 11C14.7235 11 14.5 11.2235 14.5 11.5V13C14.5 13.2765 14.7235 13.5 15 13.5Z" fill="black"/>
<path d="M16.1526 14.1405C16.1366 14.1555 15.7596 14.5 15.0001 14.5C14.2406 14.5 13.8636 14.1555 13.8536 14.1465C13.6581 13.951 13.3421 13.951 13.1466 14.1465C12.9511 14.342 12.9511 14.658 13.1466 14.8535C13.2126 14.92 13.8266 15.5 15.0001 15.5C16.1736 15.5 16.7876 14.92 16.8536 14.8535C17.0466 14.6605 17.0461 14.3515 16.8566 14.1555C16.6661 13.959 16.3516 13.9535 16.1526 14.1405Z" fill="black"/>
<path d="M17.002 22.068C16.764 21.9305 16.4575 22.01 16.318 22.248L15 24.508L12 19.3645V17.7345C12.9135 18.236 13.934 18.5 15 18.5C16.051 18.5 17.088 18.2295 18 17.73V18C18 18.2765 18.2235 18.5 18.5 18.5C18.7765 18.5 19 18.2765 19 18V17.04C20.2405 16.0065 21.0385 14.5235 21.192 12.9275L21.4075 10.893L22.85 6.007C23.202 4.82 22.933 3.5535 22.1285 2.6175C21.095 1.4235 19.381 0 17.08 0C16.3585 0 15.774 0.111 15.341 0.33C15.1235 0.4425 14.872 0.4415 14.651 0.329C14.221 0.111 13.6385 0 12.92 0C10.6495 0 8.9585 1.3785 7.9395 2.5345C7.09 3.5005 6.7925 4.7975 7.1455 6.0065L8.588 10.893L8.8025 12.9225C8.9495 14.45 9.6645 15.863 10.813 16.899C10.8725 16.953 10.937 17.0005 11 17.0515V19.1445L7.9915 20.1985C7.984 20.201 7.977 20.203 7.97 20.206L5.5805 21.043C4.448 21.439 3.444 22.1275 2.67 23.029C2.6695 23.0295 2.6685 23.0295 2.668 23.0305C2.667 23.0315 2.667 23.0325 2.666 23.0335C2.656 23.045 2.644 23.0545 2.6345 23.0665C1.58 24.3075 1 25.8825 1 27.5V31.5C1 31.7765 1.2235 32 1.5 32H16.5C16.7765 32 17 31.7765 17 31.5C17 31.2235 16.7765 31 16.5 31H15.5V25.6355L17.182 22.752C17.321 22.513 17.24 22.207 17.002 22.068V22.068ZM8.69 3.196C9.573 2.194 11.023 1 12.92 1C13.618 1 14 1.12 14.199 1.2205C14.71 1.4805 15.2935 1.4795 15.796 1.2205C15.9945 1.12 16.3785 1 17.08 1C19.003 1 20.4755 2.2355 21.3705 3.2705C21.9515 3.947 22.146 4.8635 21.8905 5.7235L20.62 10.028C19.4605 9.1035 19.6415 7.504 19.6505 7.43C19.6695 7.287 19.6255 7.1435 19.531 7.035C19.436 6.927 19.299 6.865 19.155 6.865C16.4065 6.865 15.4785 5.232 15.442 5.166C15.3555 5.0025 15.185 4.9 15 4.9C14.815 4.9 14.6445 5.0025 14.558 5.166C14.5485 5.183 13.6265 6.865 10.8395 6.865C10.6965 6.865 10.5595 6.9275 10.465 7.035C10.3705 7.142 10.326 7.286 10.3435 7.428C10.353 7.504 10.5345 9.104 9.3745 10.028L8.1045 5.725C7.849 4.8485 8.068 3.903 8.69 3.196V3.196ZM9.797 12.8225L9.611 11.062C10.9415 10.2585 11.337 8.835 11.3615 7.848C13.318 7.7135 14.444 6.84 15 6.2305C15.555 6.84 16.68 7.714 18.6335 7.848C18.658 8.835 19.0535 10.259 20.3845 11.062L20.1975 12.8275C20.062 14.2375 19.3325 15.5445 18.1945 16.415C17.2885 17.1145 16.1545 17.5 15 17.5C13.831 17.5 12.726 17.126 11.7995 16.4145C11.6925 16.3345 11.585 16.2495 11.485 16.1585C10.52 15.288 9.9205 14.105 9.797 12.8225V12.8225ZM11.276 20.1085L14.2435 25.196L11.9015 25.8655L11.4935 23.418C11.4765 23.315 11.4275 23.22 11.354 23.1465L9.0835 20.876L11.276 20.1085ZM2 27.5C2 26.3125 2.369 25.1535 3.0445 24.1765C3.7775 25.061 4.5 26.348 4.5 28V31H2V27.5ZM12 31H8V30H12V31ZM13 31V29.5C13 29.2235 12.7765 29 12.5 29H7.5C7.2235 29 7 29.2235 7 29.5V31H5.5V28C5.5 25.9695 4.5845 24.4235 3.6995 23.4005C4.318 22.7725 5.069 22.2815 5.911 21.987L8.036 21.243L10.5335 23.7405L11.007 26.5825C11.0305 26.723 11.1125 26.847 11.233 26.9235C11.412 27.0195 11.5925 26.9945 11.6375 26.9815L14.5 26.163V31H13Z" fill="black"/>
<path d="M10.0378 4.80606C10.4238 4.10406 11.5098 3.06006 12.9198 3.06006C13.1963 3.06006 13.4198 2.83656 13.4198 2.56006C13.4198 2.28356 13.1963 2.06006 12.9198 2.06006C11.1938 2.06006 9.76182 3.23356 9.16182 4.32356C9.02832 4.56556 9.11683 4.87006 9.35883 5.00256C9.43533 5.04456 9.51782 5.06456 9.59932 5.06456C9.77582 5.06506 9.94733 4.97156 10.0378 4.80606V4.80606Z" fill="black"/>
<path d="M10.8215 5.11498C10.6885 5.35698 10.7775 5.66098 11.02 5.79298C11.096 5.83498 11.178 5.85448 11.2595 5.85448C11.4365 5.85448 11.6075 5.76048 11.6985 5.59398C11.891 5.24248 12.4615 4.71948 13.2455 4.71948C13.522 4.71948 13.7455 4.49598 13.7455 4.21948C13.7455 3.94298 13.522 3.71948 13.2455 3.71948C12.104 3.71998 11.1885 4.44348 10.8215 5.11498V5.11498Z" fill="black"/>
<path d="M13.25 11C13.6642 11 14 10.6642 14 10.25C14 9.83579 13.6642 9.5 13.25 9.5C12.8358 9.5 12.5 9.83579 12.5 10.25C12.5 10.6642 12.8358 11 13.25 11Z" fill="black"/>
<path d="M16.75 11C17.1642 11 17.5 10.6642 17.5 10.25C17.5 9.83579 17.1642 9.5 16.75 9.5C16.3358 9.5 16 9.83579 16 10.25C16 10.6642 16.3358 11 16.75 11Z" fill="black"/>
</svg>
