<svg width="32" height="32" viewBox="0 0 32 32" fill="none" xmlns="http://www.w3.org/2000/svg">
<path d="M29.88 16.1735L28.5 14.793V5C28.5 3.6215 27.3785 2.5 26 2.5H7.325C6.912 1.3365 5.8035 0.5 4.5 0.5H3.5C1.8455 0.5 0.5 1.8455 0.5 3.5V18.118L2.829 22.776C2.973 23.064 3.2155 23.2705 3.5 23.389V28C3.5 29.3785 4.6215 30.5 6 30.5H22.5V31.5H29.5V29.0965L30.1165 27.555C30.3605 26.9455 30.539 26.3075 30.647 25.6585L31.425 20.9925C31.475 20.692 31.5 20.3865 31.5 20.0835C31.5 18.6065 30.925 17.218 29.88 16.1735V16.1735ZM26 3.5C26.827 3.5 27.5 4.173 27.5 5V23.073C27.5 23.308 27.3085 23.5 27.073 23.5C26.91 23.5 26.7635 23.4095 26.691 23.2635C26.6235 23.129 26.5635 22.991 26.5 22.854V7.5C26.5 6.9485 26.0515 6.5 25.5 6.5H7.5V3.5H26ZM21.918 19.0435L21.5755 23.5H6.5V20.118L7.5 18.118V7.5H25.5V19.9385L25.207 18.7665C25.021 18.021 24.354 17.5 23.585 17.5C22.717 17.5 21.9845 18.178 21.918 19.0435V19.0435ZM1.5 17.5V5.5H2.5V17.5H1.5ZM3.5 5.5H4.5V17.5H3.5V5.5ZM5.5 5.5H6.5V17.5H5.5V5.5ZM3.5 1.5H4.5C5.603 1.5 6.5 2.397 6.5 3.5V4.5H1.5V3.5C1.5 2.397 2.397 1.5 3.5 1.5ZM1.809 18.5H6.191L4.2765 22.329C4.171 22.54 3.829 22.54 3.724 22.329L1.809 18.5ZM6 29.5C5.173 29.5 4.5 28.827 4.5 28V23.389C4.7845 23.2705 5.027 23.064 5.171 22.7765L5.5 22.118V23.5C5.5 24.0515 5.9485 24.5 6.5 24.5H21.5125C21.5085 24.611 21.5 24.7215 21.5 24.8325C21.5 26.003 21.7205 27.1475 22.155 28.234L22.5 29.0965V29.5H6ZM28.5 30.5H23.5V29.5H28.5V30.5ZM30.4385 20.8285L29.6605 25.4945C29.564 26.0725 29.405 26.6405 29.188 27.1835L28.6615 28.5H23.3385L23.0835 27.863C22.6965 26.8945 22.5 25.875 22.5 24.8325C22.5 24.6235 22.508 24.4145 22.524 24.207L22.9155 19.12C22.942 18.7725 23.2365 18.5 23.5855 18.5C23.8945 18.5 24.1625 18.7095 24.237 19.009L24.612 20.508C24.8885 21.614 25.287 22.6915 25.797 23.711C26.04 24.198 26.529 24.5 27.073 24.5C27.86 24.5 28.5 23.86 28.5 23.073V16.207L29.173 16.88C30.029 17.7365 30.5 18.8735 30.5 20.0835C30.5 20.332 30.479 20.5825 30.4385 20.8285V20.8285Z" fill="black"/>
<path d="M19.5 25.5H12.5C11.9485 25.5 11.5 25.9485 11.5 26.5C11.5 27.603 12.397 28.5 13.5 28.5H18.5C19.603 28.5 20.5 27.603 20.5 26.5C20.5 25.9485 20.0515 25.5 19.5 25.5ZM18.5 27.5H13.5C12.9485 27.5 12.5 27.0515 12.5 26.5H19.5C19.5 27.0515 19.0515 27.5 18.5 27.5Z" fill="black"/>
<path d="M13 4.5H19V5.5H13V4.5Z" fill="black"/>
<path d="M13.198 17.5C13.4775 17.5 13.7555 17.43 14.003 17.2975L19.797 14.177C20.2305 13.9435 20.5 13.492 20.5 13C20.5 12.508 20.2305 12.0565 19.797 11.823L14.0025 8.703C13.7555 8.57 13.4775 8.5 13.198 8.5C12.2615 8.5 11.5 9.2615 11.5 10.198V15.8025C11.5 16.7385 12.2615 17.5 13.198 17.5ZM12.5 10.198C12.5 9.813 12.813 9.5 13.198 9.5C13.313 9.5 13.4275 9.529 13.529 9.5835L19.323 12.7035C19.432 12.762 19.5 12.876 19.5 13C19.5 13.124 19.432 13.238 19.323 13.2965L13.5295 16.4165C13.4275 16.471 13.313 16.5 13.198 16.5C12.813 16.5 12.5 16.187 12.5 15.802V10.198Z" fill="black"/>
<path d="M11.5 18.5C10.571 18.5 9.7945 19.1395 9.571 20H7.5V21H9.571C9.7945 21.8605 10.571 22.5 11.5 22.5C12.429 22.5 13.2055 21.8605 13.429 21H21V20H13.429C13.2055 19.1395 12.429 18.5 11.5 18.5ZM11.5 21.5C10.9485 21.5 10.5 21.0515 10.5 20.5C10.5 19.9485 10.9485 19.5 11.5 19.5C12.0515 19.5 12.5 19.9485 12.5 20.5C12.5 21.0515 12.0515 21.5 11.5 21.5Z" fill="black"/>
</svg>
