<svg width="32" height="32" viewBox="0 0 32 32" fill="none" xmlns="http://www.w3.org/2000/svg">
<g clip-path="url(#clip0_136_449)">
<path d="M29.9 14.4005H28.8335V5.86738C28.8335 5.57259 28.5946 5.33409 28.3001 5.33409H25.0698L24.0092 1.97406C23.9647 1.83382 23.8647 1.71831 23.7329 1.65427C23.6005 1.5901 23.4477 1.58382 23.3103 1.63609L18.9671 3.2913L17.0163 0.24665C16.9395 0.12673 16.818 0.0422376 16.6786 0.0126921C16.5395 -0.0185913 16.3934 0.00854774 16.2751 0.0875585L8.26774 5.33409H3.76734C1.70664 5.33636 0.0367198 7.00655 0.0341797 9.06724V28.2667C0.0367198 30.3274 1.70664 31.9976 3.76734 32H28.3001C28.5946 32 28.8335 31.7611 28.8335 31.4666V25.0667H29.9C31.0783 25.0667 32.0334 24.1116 32.0334 22.9337V16.5338C32.0334 15.3554 31.0783 14.4005 29.9 14.4005ZM29.9 15.4671C30.4892 15.4671 30.9667 15.9444 30.9667 16.5338C30.9667 17.1229 30.4892 17.6003 29.9 17.6003H28.8335V15.4671H29.9ZM27.7667 6.4008V11.7338H27.0912L25.4069 6.4008H27.7667ZM25.973 11.7338H24.4183L22.9397 7.29866C22.8672 7.08088 22.6633 6.93369 22.4337 6.93382C21.892 6.93556 21.3719 6.72032 20.9899 6.33623L20.6772 6.02353C20.5302 5.87633 20.3107 5.82807 20.1152 5.90026L4.33605 11.7338H3.76734C3.05624 11.7337 2.37469 11.4489 1.87536 10.9428L23.1624 2.83649L25.973 11.7338ZM23.2941 11.7338H7.41119L20.1651 7.01911L20.2357 7.09024C20.7216 7.57887 21.3573 7.89091 22.0411 7.9758L23.2941 11.7338ZM16.4072 1.27593L17.9468 3.68061L5.50785 8.41765L16.4072 1.27593ZM3.76734 6.4008H6.63953L1.25624 9.92781C1.15691 9.65174 1.10423 9.36069 1.10089 9.06724C1.10276 7.59532 2.29555 6.40227 3.76734 6.4008ZM27.7667 30.9332H3.76734C2.29555 30.9314 1.10276 29.7385 1.10089 28.2667V11.6805C1.10597 11.6852 1.11145 11.6896 1.11627 11.6949C1.15798 11.7365 1.2021 11.7747 1.24554 11.8143C1.28859 11.8537 1.33498 11.8989 1.38244 11.9385C1.43004 11.9781 1.47589 12.0099 1.52268 12.0452C1.56961 12.0805 1.61988 12.1209 1.67095 12.1564C1.72215 12.1913 1.77175 12.2185 1.82202 12.2496C1.87228 12.2806 1.92576 12.3156 1.98191 12.3456C2.03806 12.3753 2.09127 12.3988 2.14621 12.4261C2.20116 12.4531 2.25303 12.4794 2.30945 12.5049C2.366 12.5305 2.43071 12.5503 2.49127 12.5721C2.5521 12.594 2.59795 12.6148 2.6541 12.6317C2.72108 12.6532 2.7902 12.6683 2.85905 12.6852C2.91252 12.6979 2.96119 12.7142 3.01333 12.7247C3.0918 12.7412 3.17335 12.7507 3.2529 12.762C3.29755 12.768 3.341 12.7774 3.38632 12.7822C3.51279 12.7948 3.64006 12.8008 3.76734 12.8007H4.46105L4.46868 12.821L4.52576 12.8007H27.7667V17.6003H21.9002C19.8387 17.6003 18.1671 19.2717 18.1671 21.3336C18.1671 23.3953 19.8387 25.0667 21.9002 25.0667H27.7667V30.9332ZM30.9667 22.9337C30.9667 23.5227 30.4892 24.0001 29.9 24.0001H21.9002C20.4276 24.0001 19.2338 22.8063 19.2338 21.3336C19.2338 19.8607 20.4276 18.6671 21.9002 18.6671H29.9C30.0289 18.6658 30.1567 18.6527 30.2831 18.6281C30.3133 18.6229 30.3434 18.6169 30.3732 18.6096C30.4938 18.5836 30.612 18.5467 30.7262 18.5001L30.7444 18.4914C30.8207 18.4591 30.8948 18.4217 30.9667 18.3806V22.9337Z" fill="black"/>
<path d="M11.5391 14.4005H13.6725V15.4671H11.5391V14.4005Z" fill="black"/>
<path d="M7.27246 14.4005H9.40562V15.4671H7.27246V14.4005Z" fill="black"/>
<path d="M24.3389 14.4005H26.1668V15.4671H24.3389V14.4005Z" fill="black"/>
<path d="M20.0723 14.4005H22.2054V15.4671H20.0723V14.4005Z" fill="black"/>
<path d="M3.13827 14.3258L2.88867 15.3604C3.17664 15.4301 3.47156 15.466 3.76755 15.4671H5.13934V14.4005H3.76755C3.55578 14.4 3.34455 14.375 3.13827 14.3258Z" fill="black"/>
<path d="M15.8057 14.4005H17.939V15.4671H15.8057V14.4005Z" fill="black"/>
<path d="M3.13827 28.192L2.88867 29.2265C3.17664 29.2963 3.47156 29.3324 3.76755 29.3335H5.13934V28.2667H3.76755C3.55578 28.2661 3.34455 28.2415 3.13827 28.192Z" fill="black"/>
<path d="M24.3389 28.2667H26.1668V29.3334H24.3389V28.2667Z" fill="black"/>
<path d="M11.5391 28.2667H13.6725V29.3334H11.5391V28.2667Z" fill="black"/>
<path d="M20.0723 28.2667H22.2054V29.3334H20.0723V28.2667Z" fill="black"/>
<path d="M7.27246 28.2667H9.40562V29.3334H7.27246V28.2667Z" fill="black"/>
<path d="M15.8057 28.2667H17.939V29.3334H15.8057V28.2667Z" fill="black"/>
<path d="M21.9003 19.7336C21.0167 19.7336 20.3003 20.4498 20.3003 21.3335C20.3003 22.2169 21.0167 22.9336 21.9003 22.9336C22.7839 22.9336 23.5002 22.2169 23.5002 21.3335C23.5002 20.4498 22.7839 19.7336 21.9003 19.7336ZM21.9003 21.8669C21.6059 21.8669 21.367 21.628 21.367 21.3335C21.367 21.0389 21.6059 20.8002 21.9003 20.8002C22.1948 20.8002 22.4337 21.0389 22.4337 21.3335C22.4337 21.628 22.1948 21.8669 21.9003 21.8669Z" fill="black"/>
</g>
<defs>
<clipPath id="clip0_136_449">
<rect width="32" height="32" fill="white"/>
</clipPath>
</defs>
</svg>
