<svg width="32" height="32" viewBox="0 0 32 32" fill="none" xmlns="http://www.w3.org/2000/svg">
<g clip-path="url(#clip0_38_163)">
<path d="M24.9834 16.5332C24.9834 20.3187 24.9502 24.1043 25 27.8898C25.0249 29.8367 23.6045 31.6421 21.6193 31.9583C21.4365 31.9916 21.2455 31.9999 21.0628 31.9999C17.6904 31.9999 14.318 32.0082 10.9372 31.9999C8.79419 31.9916 7.00831 30.2028 7 28.0562C7 20.352 7 12.6478 7 4.94351C7 2.79697 8.78588 1.01651 10.9372 1.00819C14.318 0.999873 17.6904 0.999873 21.0628 1.00819C23.1892 1.01651 24.9751 2.79697 24.9834 4.92687C24.9917 8.79563 24.9834 12.6644 24.9834 16.5332ZM8.0383 15.4765C8.0383 18.505 8.0383 21.5251 8.0383 24.5536C8.0383 24.9612 8.0383 24.9612 8.45362 24.9612C13.479 24.9612 18.5044 24.9612 23.5298 24.9612C23.9451 24.9612 23.9451 24.9612 23.9451 24.5536C23.9451 18.5216 23.9451 12.4897 23.9451 6.45774C23.9451 6.03342 23.9451 6.03342 23.5132 6.03342C18.4961 6.03342 13.4873 6.03342 8.47024 6.03342C8.0383 6.03342 8.0383 6.03342 8.0383 6.45774C8.0383 9.46955 8.0383 12.473 8.0383 15.4765ZM15.9958 26.0095C13.4624 26.0095 10.9289 26.0095 8.39548 26.0012C8.12967 26.0012 8.02169 26.0595 8.03 26.3507C8.05491 26.8498 8.03 27.349 8.0383 27.8482C8.05491 28.8716 8.41209 29.7369 9.25104 30.3609C9.84079 30.8018 10.5219 30.9599 11.2446 30.9599C14.318 30.9599 17.3913 30.9599 20.4647 30.9599C20.7554 30.9599 21.0461 30.9516 21.3369 30.9183C22.6825 30.7685 23.754 29.6953 23.9036 28.3474C23.9783 27.6902 23.9202 27.0412 23.9534 26.3839C23.97 26.0761 23.8537 26.0012 23.563 26.0012C21.0378 26.0095 18.5127 26.0095 15.9958 26.0095ZM15.9958 4.99343C18.5293 4.99343 21.0628 4.99343 23.5962 4.99343C23.8039 4.99343 23.9451 5.00175 23.9119 4.70223C23.8122 3.88688 23.455 3.22129 22.8237 2.70546C22.1675 2.17298 21.395 2.03986 20.5727 2.03986C17.5741 2.04818 14.5754 2.03986 11.5685 2.03986C11.2363 2.03986 10.904 2.0565 10.5718 2.08978C9.3258 2.23954 8.22104 3.36273 8.09645 4.61072C8.05491 4.99343 8.05491 4.99343 8.45362 4.99343C10.9705 4.99343 13.479 4.99343 15.9958 4.99343Z" fill="black"/>
<path d="M9.49191 15.4935C9.49191 11.8826 12.3825 8.9873 16.0124 8.9873C19.5925 8.9873 22.4915 11.891 22.4915 15.4685C22.4915 19.1043 19.6091 22.008 16.0041 22.008C12.3825 22.008 9.50022 19.1293 9.49191 15.4935ZM10.5385 15.4519C10.5717 18.4886 12.856 20.9513 16.0041 20.9513C19.0111 20.9513 21.4199 18.6134 21.4365 15.5184C21.4532 12.4983 19.1357 10.0689 16.0124 10.0439C13.0304 10.0273 10.6382 12.3319 10.5385 15.4519Z" fill="black"/>
<path d="M16.0125 26.958C16.868 26.958 17.5159 27.6236 17.5159 28.4889C17.5076 29.3458 16.8514 29.9948 15.9875 29.9948C15.132 29.9948 14.4841 29.3209 14.4841 28.4639C14.4841 27.607 15.1486 26.958 16.0125 26.958ZM15.9792 28.0146C15.7466 28.023 15.5224 28.2642 15.5307 28.4972C15.539 28.7301 15.7716 28.9548 16.0041 28.9465C16.2367 28.9381 16.461 28.7052 16.4527 28.4722C16.4444 28.231 16.2118 28.0063 15.9792 28.0146Z" fill="black"/>
<path d="M15.9959 4.04525C15.5224 4.04525 15.0406 4.04525 14.5672 4.04525C14.1934 4.04525 13.9774 3.83725 13.9857 3.51278C13.994 3.20494 14.2017 3.00526 14.5672 3.00526C15.5224 2.99694 16.4693 2.99694 17.4246 3.00526C17.7983 3.00526 18.0143 3.21326 18.006 3.53774C17.9977 3.84557 17.7817 4.03693 17.4246 4.04525C16.9511 4.04525 16.4693 4.04525 15.9959 4.04525Z" fill="black"/>
<path d="M13.9774 17.2157C13.9774 16.7248 14.1518 16.5001 14.4592 16.4835C14.7748 16.4669 14.9658 16.6416 15.024 17.016C15.0904 17.4653 15.2898 17.8064 15.7466 17.9228C16.137 18.0227 16.461 17.9062 16.7268 17.6067C17.1753 17.0825 16.9262 16.2589 16.2616 16.0841C16.1287 16.0509 15.9958 16.0342 15.8629 16.0259C14.9409 15.9677 14.2017 15.3187 14.0106 14.4035C13.8279 13.5216 14.2681 12.5898 15.1071 12.2071C15.4061 12.0739 15.5141 11.9075 15.4808 11.5997C15.4559 11.3917 15.4642 11.1837 15.4808 10.9757C15.4975 10.6845 15.7134 10.5015 15.9958 10.4932C16.2783 10.4932 16.4942 10.6762 16.5108 10.9674C16.5274 11.2253 16.5274 11.4916 16.5108 11.7495C16.5025 11.9575 16.5773 12.0573 16.7683 12.1488C17.5325 12.4983 17.9728 13.089 18.006 13.9376C18.0226 14.2787 17.8316 14.5034 17.5408 14.5283C17.2252 14.5533 17.0175 14.3702 16.9677 14.0125C16.9012 13.5466 16.6853 13.2138 16.2201 13.089C15.8297 12.9808 15.4975 13.1139 15.2483 13.4218C15.0074 13.7213 14.9492 14.0624 15.1237 14.4118C15.3147 14.8029 15.6553 14.9776 16.0789 14.9942C16.8514 15.0275 17.4245 15.3936 17.7817 16.0758C18.3299 17.1158 17.8897 18.3804 16.8099 18.8547C16.5856 18.9545 16.4859 19.0627 16.5025 19.3123C16.5274 19.5369 16.5108 19.7699 16.5025 19.9945C16.4859 20.3273 16.2783 20.527 15.9709 20.527C15.6802 20.5187 15.4808 20.319 15.4642 20.0111C15.4559 19.7699 15.4476 19.5286 15.4642 19.2956C15.4808 19.0793 15.3978 18.9628 15.1984 18.8713C14.4508 18.5136 14.0438 17.9228 13.9774 17.2157Z" fill="black"/>
</g>
<defs>
<clipPath id="clip0_38_163">
<rect width="18" height="31" fill="white" transform="translate(7 1)"/>
</clipPath>
</defs>
</svg>
