<svg xmlns="http://www.w3.org/2000/svg" xmlns:xlink="http://www.w3.org/1999/xlink" width="32" height="32" viewBox="0 0 32 32">
  <defs>
    <clipPath id="clip-path">
      <rect id="Rectangle_12582" data-name="Rectangle 12582" width="22.396" height="28"/>
    </clipPath>
  </defs>
  <g id="Group_37668" data-name="Group 37668" transform="translate(10187 1859)">
    <g id="Rectangle_12544" data-name="Rectangle 12544" transform="translate(-10187 -1859)" stroke="#707070" stroke-width="1" opacity="0">
      <rect width="32" height="32" stroke="none"/>
      <rect x="0.5" y="0.5" width="31" height="31" fill="none"/>
    </g>
    <g id="Group_37701" data-name="Group 37701" transform="translate(-10182 -1857)">
      <g id="Group_37701-2" data-name="Group 37701" clip-path="url(#clip-path)">
        <path id="Path_105527" data-name="Path 105527" d="M0,13.993q0-5.73,0-11.46A2.345,2.345,0,0,1,2.521,0h9.913a2.341,2.341,0,0,1,2.5,2.5q0,2.158,0,4.316a1.221,1.221,0,0,1-.01.261.462.462,0,0,1-.913-.011A1.7,1.7,0,0,1,14,6.747Q14,4.6,14,2.46A1.406,1.406,0,0,0,12.473.934q-5.015,0-10.03,0A1.4,1.4,0,0,0,.934,2.446q0,11.547,0,23.1a1.407,1.407,0,0,0,1.525,1.526q5.015,0,10.03,0A1.4,1.4,0,0,0,14,25.554q0-4.491,0-8.981A1.75,1.75,0,0,1,14,16.282a.463.463,0,0,1,.918-.011,1.355,1.355,0,0,1,.008.262q0,4.491,0,8.981A2.339,2.339,0,0,1,12.45,28q-4.986,0-9.971,0A2.339,2.339,0,0,1,0,25.512q0-5.759,0-11.518" transform="translate(0 0)"/>
        <path id="Path_105528" data-name="Path 105528" d="M57.226,114.359H48.594c-.551,0-.679-.131-.679-.692q0-2.6,0-5.191c0-.512.141-.65.662-.65h17.35c.512,0,.651.142.651.662q0,2.61,0,5.22c0,.511-.143.65-.662.651h-8.69m8.406-5.579H48.871v4.631h16.76Z" transform="translate(-44.182 -99.426)"/>
        <path id="Path_105529" data-name="Path 105529" d="M62.7,24.893c-.729,0-1.458,0-2.187,0-.372,0-.585-.167-.592-.456s.213-.476.6-.477q2.2,0,4.4,0c.372,0,.585.167.592.455s-.214.476-.6.477q-1.108,0-2.216,0" transform="translate(-55.255 -22.093)"/>
        <path id="Path_105530" data-name="Path 105530" d="M84.794,324.345c-.155,0-.312.009-.466,0a.462.462,0,0,1-.449-.478.455.455,0,0,1,.451-.446c.32-.013.641-.013.962,0a.455.455,0,0,1,.449.447.462.462,0,0,1-.451.476c-.164.012-.33,0-.5,0" transform="translate(-77.344 -298.215)"/>
        <path id="Path_105531" data-name="Path 105531" d="M81.864,136.283c-.463-.557-.538-.759-.309-.966.453-.41.7.051,1,.284.3-.233.573-.72.99-.278.383.407-.073.664-.306.953.212.3.717.567.286.988-.416.406-.676-.078-.91-.255a7.232,7.232,0,0,1-.76.378c-.074.027-.221-.065-.3-.14-.219-.215-.153-.409.31-.965" transform="translate(-75.086 -124.616)"/>
        <path id="Path_105532" data-name="Path 105532" d="M129.711,136.361c-.23-.3-.68-.529-.3-.98.2-.245.411-.176.987.29.3-.214.548-.708,1.006-.262.218.212.133.43-.326.949.209.3.731.572.273,1-.407.377-.664-.078-.948-.316-.309.229-.561.715-1.018.273-.217-.21-.133-.429.33-.951" transform="translate(-119.193 -124.694)"/>
        <path id="Path_105533" data-name="Path 105533" d="M177.637,136.37c-.232-.291-.66-.514-.316-.961a.4.4,0,0,1,.551-.1,3.687,3.687,0,0,1,.451.377c.3-.227.539-.692.993-.282.228.206.152.415-.309.968.207.292.713.558.283.98s-.676-.075-.971-.3c-.3.233-.544.693-1,.285-.23-.207-.154-.414.315-.971" transform="translate(-163.388 -124.708)"/>
        <path id="Path_105534" data-name="Path 105534" d="M226.094,136.963c-.306.236-.55.7-1,.29-.232-.209-.157-.414.313-.969-.214-.295-.733-.57-.267-1,.41-.375.661.095.951.316.3-.229.542-.7,1-.286.229.207.153.418-.309.969.208.29.713.558.284.979-.412.4-.678-.064-.965-.3" transform="translate(-207.425 -124.62)"/>
      </g>
    </g>
  </g>
</svg>
