<svg xmlns="http://www.w3.org/2000/svg" width="32" height="31.997" viewBox="0 0 32 31.997">
  <g id="Group_37987" data-name="Group 37987" transform="translate(0.007)">
    <g id="_x31_0_Online_payment" transform="translate(-0.007)">
      <g id="Group_37987-2" data-name="Group 37987">
        <path id="Path_105895" data-name="Path 105895" d="M33.293,30.51l-5.217-4.393a.5.5,0,0,0-.671.029l-.443.443a3.379,3.379,0,0,0,0,4.779l2.4,2.4a.5.5,0,0,0,.7-.7l-2.4-2.4a2.387,2.387,0,0,1,0-3.375l.121-.121,4.866,4.1a5.211,5.211,0,0,1,.922,7.36L31.443,41.6a5.453,5.453,0,0,1-4.422,2.271H23.6a5.408,5.408,0,0,1-3.848-1.594l-1.239-1.239a.5.5,0,0,0-.7.7l1.239,1.239a6.39,6.39,0,0,0,4.55,1.885h3.426a6.448,6.448,0,0,0,5.229-2.685l2.107-2.941A6.184,6.184,0,0,0,33.293,30.51Z" transform="translate(-8.745 -12.866)"/>
        <path id="Path_105896" data-name="Path 105896" d="M21.31,25.316V22.337a.5.5,0,1,0-.993,0v.5H7.411V1.489a.5.5,0,0,1,.5-.5h2.978v.5a1.491,1.491,0,0,0,1.489,1.489h2.978a1.491,1.491,0,0,0,1.489-1.489v-.5h2.978a.5.5,0,0,1,.5.5V12.906a.5.5,0,0,0,.993,0V1.489A1.491,1.491,0,0,0,19.821,0H7.908A1.491,1.491,0,0,0,6.418,1.489V8.048a1.987,1.987,0,0,0-2.272.241A1.967,1.967,0,0,0,3.522,9.4a1.976,1.976,0,0,0-2.26,3.176l.187.187a1.97,1.97,0,0,0-.962.592A2.029,2.029,0,0,0,.62,16.143l.829.829a1.972,1.972,0,0,0-.962.592,2.029,2.029,0,0,0,.133,2.791l3.99,3.99a.5.5,0,0,0,.7-.7l-3.99-3.99a1.051,1.051,0,0,1-.1-1.425.993.993,0,0,1,1.44-.041l0,0L6.42,21.943v3.373A1.491,1.491,0,0,0,7.91,26.8H19.823a1.491,1.491,0,0,0,1.487-1.489ZM15.85,1.489a.5.5,0,0,1-.5.5H12.375a.5.5,0,0,1-.5-.5v-.5H15.85ZM4.81,9.027a1.051,1.051,0,0,1,1.425.1l.183.183v2.808L4.772,10.469h0A.992.992,0,0,1,4.81,9.027ZM2,10.431a1.052,1.052,0,0,1,1.424.1l.642.642,2.349,2.349v2.808L3.367,13.276l-1.4-1.4A.993.993,0,0,1,2,10.431Zm1.365,7.057L1.321,15.441a1.051,1.051,0,0,1-.1-1.425.985.985,0,0,1,.713-.33,1,1,0,0,1,.726.288l0,0L6.419,17.73v2.808Zm4.044,7.828V23.826H20.317v1.489a.5.5,0,0,1-.5.5H7.908A.5.5,0,0,1,7.411,25.316Z" transform="translate(0.007)"/>
        <path id="Path_105897" data-name="Path 105897" d="M26.489,15.964H25.467a.5.5,0,1,0,0,.993h.511v.5a.5.5,0,0,0,.993,0V16.87a1.485,1.485,0,0,0-.511-2.891.5.5,0,1,1,0-.993h1.022a.5.5,0,0,0,0-.993h-.511v-.5a.5.5,0,0,0-.993,0v.583a1.485,1.485,0,0,0,.511,2.891.5.5,0,0,1,0,.993Z" transform="translate(-12.474 -5.49)"/>
        <path id="Path_105898" data-name="Path 105898" d="M17,31.482a2.485,2.485,0,0,0,2.482,2.482H25.44a.5.5,0,0,0,0-.993H19.483a1.489,1.489,0,0,1,0-2.978h4.964a.5.5,0,0,0,0-.993H19.483A2.485,2.485,0,0,0,17,31.482Z" transform="translate(-8.474 -14.482)"/>
        <path id="Path_105899" data-name="Path 105899" d="M50.467,16a4.467,4.467,0,1,0,4.467,4.467A4.473,4.473,0,0,0,50.467,16Zm0,7.942a3.475,3.475,0,1,1,3.475-3.475A3.479,3.479,0,0,1,50.467,23.942Z" transform="translate(-22.935 -7.978)"/>
        <path id="Path_105900" data-name="Path 105900" d="M54.124,22.145,52.489,23.78l-.642-.642a.5.5,0,0,0-.7.7l.993.993a.5.5,0,0,0,.7,0l1.986-1.986a.5.5,0,0,0-.7-.7Z" transform="translate(-25.453 -10.993)"/>
        <path id="Path_105901" data-name="Path 105901" d="M27.467,33H23.5a.5.5,0,1,0,0,.993h3.971a.5.5,0,0,0,0-.993Z" transform="translate(-11.483 -16.498)"/>
      </g>
    </g>
  </g>
</svg>
