<svg width="32" height="32" viewBox="0 0 32 32" fill="none" xmlns="http://www.w3.org/2000/svg">
<path d="M31.375 15.3906C31.375 15.0849 31.3148 14.7821 31.1978 14.4997C31.0808 14.2172 30.9093 13.9606 30.6931 13.7444C30.4769 13.5282 30.2203 13.3567 29.9378 13.2397C29.6554 13.1227 29.3526 13.0625 29.0469 13.0625H23.2031C22.8974 13.0625 22.5946 13.1227 22.3122 13.2397C22.0297 13.3567 21.7731 13.5282 21.5569 13.7444C21.3407 13.9606 21.1692 14.2172 21.0522 14.4997C20.9352 14.7821 20.875 15.0849 20.875 15.3906V29.0469C20.875 29.3526 20.9352 29.6554 21.0522 29.9378C21.1692 30.2203 21.3407 30.4769 21.5569 30.6931C21.7731 30.9093 22.0297 31.0808 22.3122 31.1978C22.5946 31.3148 22.8974 31.375 23.2031 31.375H29.0469C29.3526 31.375 29.6554 31.3148 29.9378 31.1978C30.2203 31.0808 30.4769 30.9093 30.6931 30.6931C30.9093 30.4769 31.0808 30.2203 31.1978 29.9378C31.3148 29.6554 31.375 29.3526 31.375 29.0469V15.3906ZM30.625 16.0625V26.75H21.625V16.0625H30.625ZM23.1875 13.8125H29.0469C29.9059 13.8125 30.6064 14.5 30.6241 15.3125H21.6103C21.628 14.5 22.3284 13.8125 23.1875 13.8125ZM29.0469 30.625H23.1875C22.9811 30.6245 22.7769 30.5832 22.5866 30.5035C22.3962 30.4238 22.2235 30.3073 22.0783 30.1606C21.9331 30.014 21.8183 29.8401 21.7405 29.649C21.6628 29.4578 21.6235 29.2532 21.625 29.0469V27.5H30.625V29.0469C30.6245 29.4653 30.4581 29.8664 30.1623 30.1623C29.8664 30.4581 29.4653 30.6245 29.0469 30.625Z" fill="black"/>
<path d="M27.0205 28.6875H25.2139C25.1144 28.6875 25.019 28.727 24.9487 28.7973C24.8784 28.8677 24.8389 28.963 24.8389 29.0625C24.8389 29.162 24.8784 29.2573 24.9487 29.3277C25.019 29.398 25.1144 29.4375 25.2139 29.4375H27.0205C27.1199 29.4375 27.2153 29.398 27.2857 29.3277C27.356 29.2573 27.3955 29.162 27.3955 29.0625C27.3955 28.963 27.356 28.8677 27.2857 28.7973C27.2153 28.727 27.1199 28.6875 27.0205 28.6875Z" fill="black"/>
<path d="M11.125 2.95312C11.125 2.64739 11.0648 2.34465 10.9478 2.06218C10.8308 1.77972 10.6593 1.52306 10.4431 1.30687C10.2269 1.09069 9.97028 0.919198 9.68782 0.802201C9.40535 0.685205 9.10261 0.624992 8.79688 0.625H2.95312C2.64739 0.624992 2.34465 0.685205 2.06218 0.802201C1.77972 0.919198 1.52306 1.09069 1.30687 1.30687C1.09069 1.52306 0.919198 1.77972 0.802201 2.06218C0.685205 2.34465 0.624992 2.64739 0.625 2.95312V16.6094C0.624992 16.9151 0.685205 17.2179 0.802201 17.5003C0.919198 17.7828 1.09069 18.0394 1.30687 18.2556C1.52306 18.4718 1.77972 18.6433 2.06218 18.7603C2.34465 18.8773 2.64739 18.9375 2.95312 18.9375H8.79688C9.10261 18.9375 9.40535 18.8773 9.68782 18.7603C9.97028 18.6433 10.2269 18.4718 10.4431 18.2556C10.6593 18.0394 10.8308 17.7828 10.9478 17.5003C11.0648 17.2179 11.125 16.9151 11.125 16.6094V2.95312ZM10.375 3.6875V14.3125H1.375V3.6875H10.375ZM2.95312 1.375H8.8125C9.22795 1.37602 9.62631 1.54051 9.92146 1.83289C10.2166 2.12528 10.3848 2.52208 10.3897 2.9375H1.37587C1.3808 2.52208 1.54902 2.12528 1.84417 1.83289C2.13931 1.54051 2.53767 1.37602 2.95312 1.375V1.375ZM1.375 16.625V15.0625H10.375V16.625C10.3762 16.8305 10.3366 17.0343 10.2585 17.2244C10.1805 17.4145 10.0654 17.5872 9.92007 17.7326C9.77474 17.8779 9.602 17.993 9.41188 18.071C9.22176 18.1491 9.01803 18.1887 8.8125 18.1875H2.95312C2.74677 18.189 2.54216 18.1497 2.35102 18.072C2.15989 17.9942 1.98601 17.8794 1.83937 17.7342C1.69273 17.589 1.57622 17.4163 1.49653 17.2259C1.41684 17.0356 1.37554 16.8314 1.375 16.625V16.625Z" fill="black"/>
<path d="M6.78612 16.25H4.97949C4.88004 16.25 4.78465 16.2895 4.71433 16.3598C4.644 16.4302 4.60449 16.5255 4.60449 16.625C4.60449 16.7245 4.644 16.8198 4.71433 16.8902C4.78465 16.9605 4.88004 17 4.97949 17H6.78612C6.88557 17 6.98096 16.9605 7.05128 16.8902C7.12161 16.8198 7.16112 16.7245 7.16112 16.625C7.16112 16.5255 7.12161 16.4302 7.05128 16.3598C6.98096 16.2895 6.88557 16.25 6.78612 16.25Z" fill="black"/>
<path d="M18.0275 27.6918L15.564 26.0891C15.5018 26.0487 15.4291 26.0276 15.3549 26.0285C15.2808 26.0294 15.2085 26.0522 15.1474 26.0942C15.0862 26.1361 15.0389 26.1953 15.0113 26.2641C14.9838 26.333 14.9773 26.4085 14.9926 26.481L15.3346 28.0968C14.2935 28.1974 13.2428 28.0835 12.2474 27.7623C11.2519 27.4411 10.3329 26.9193 9.54695 26.2291C8.761 25.5389 8.12481 24.695 7.67764 23.7494C7.23048 22.8039 6.98182 21.7767 6.94701 20.7313C6.94331 20.6321 6.90045 20.5384 6.82782 20.4708C6.75519 20.4032 6.65871 20.3671 6.55952 20.3705C6.46033 20.3738 6.36652 20.4164 6.29865 20.4888C6.23078 20.5612 6.19439 20.6576 6.19744 20.7568C6.23456 21.9121 6.50985 23.0473 7.00606 24.0913C7.50227 25.1353 8.20871 26.0656 9.08113 26.8239C9.95356 27.5822 10.9732 28.1522 12.0761 28.4982C13.179 28.8441 14.3415 28.9586 15.4908 28.8345L15.8533 30.5473C15.8686 30.6199 15.9051 30.6863 15.9582 30.7381C16.0113 30.7899 16.0786 30.8248 16.1515 30.8384C16.2244 30.852 16.2997 30.8437 16.3679 30.8144C16.4361 30.7852 16.4941 30.7364 16.5345 30.6742L18.1373 28.2107C18.1642 28.1694 18.1826 28.1233 18.1917 28.0749C18.2007 28.0264 18.2001 27.9767 18.1899 27.9285C18.1797 27.8804 18.1601 27.8347 18.1322 27.794C18.1044 27.7534 18.0688 27.7187 18.0275 27.6918V27.6918ZM16.3998 29.5063L16.1583 28.3653V28.3633C16.1561 28.3485 16.1529 28.3339 16.1489 28.3195L15.9143 27.2112L17.3046 28.1157L16.3998 29.5063Z" fill="black"/>
<path d="M14.0709 3.7778L16.5344 5.38061C16.5965 5.42106 16.6693 5.44217 16.7435 5.44126C16.8176 5.44035 16.8898 5.41747 16.951 5.37551C17.0122 5.33355 17.0595 5.27439 17.087 5.20553C17.1146 5.13666 17.1211 5.06117 17.1057 4.98861L16.7637 3.37292C17.8048 3.27237 18.8555 3.38622 19.8509 3.70746C20.8464 4.02869 21.7654 4.5505 22.5513 5.24067C23.3373 5.93085 23.9734 6.77475 24.4206 7.72031C24.8678 8.66588 25.1164 9.69304 25.1512 10.7384C25.1545 10.8356 25.1953 10.9277 25.2652 10.9954C25.3351 11.063 25.4285 11.1008 25.5257 11.1009C25.53 11.1009 25.5344 11.1009 25.5387 11.1009C25.6381 11.0975 25.7321 11.0548 25.8 10.9821C25.8679 10.9095 25.9041 10.8128 25.9007 10.7134C25.8623 9.55852 25.5861 8.42394 25.0895 7.38055C24.5929 6.33716 23.8864 5.40738 23.0143 4.64926C22.1423 3.89114 21.1232 3.32098 20.0209 2.97437C18.9185 2.62777 17.7566 2.51217 16.6075 2.6348L16.245 0.922299C16.2297 0.849724 16.1932 0.783331 16.1401 0.731517C16.087 0.679704 16.0197 0.644799 15.9468 0.631217C15.8739 0.617635 15.7986 0.625988 15.7304 0.655217C15.6622 0.684446 15.6042 0.733239 15.5638 0.795424L13.961 3.25899C13.9068 3.34236 13.8879 3.44385 13.9085 3.54115C13.9291 3.63844 13.9875 3.72357 14.0709 3.7778V3.7778ZM15.6988 1.96336L15.9402 3.10405C15.9402 3.1048 15.9402 3.10555 15.9402 3.1063C15.9425 3.12106 15.9457 3.13566 15.9497 3.15005L16.1843 4.25817L14.7942 3.35367L15.6988 1.96336Z" fill="black"/>
<path d="M5.88271 12.4831C6.57161 12.4831 7.24505 12.2789 7.81787 11.8962C8.39069 11.5135 8.83716 10.9696 9.10082 10.3331C9.36449 9.69667 9.4335 8.99634 9.29913 8.32067C9.16477 7.64501 8.83306 7.02436 8.34595 6.53722C7.85885 6.05008 7.23822 5.71833 6.56257 5.58391C5.88691 5.4495 5.18657 5.51846 4.55011 5.78208C3.91365 6.0457 3.36966 6.49213 2.98692 7.06492C2.60419 7.63771 2.3999 8.31114 2.3999 9.00003C2.40094 9.92343 2.76821 10.8087 3.42113 11.4617C4.07405 12.1147 4.95931 12.482 5.88271 12.4831V12.4831ZM5.88271 6.26697C6.42327 6.26692 6.95171 6.42717 7.40119 6.72745C7.85067 7.02773 8.20102 7.45456 8.40791 7.95396C8.61481 8.45336 8.66897 9.00289 8.56354 9.53307C8.45812 10.0633 8.19784 10.5503 7.81562 10.9325C7.4334 11.3148 6.94642 11.5751 6.41625 11.6806C5.88608 11.786 5.33654 11.7319 4.83712 11.5251C4.33771 11.3182 3.91085 10.9679 3.61052 10.5185C3.3102 10.069 3.1499 9.54059 3.1499 9.00003C3.15073 8.27548 3.43891 7.58083 3.95122 7.06847C4.46354 6.5561 5.15816 6.26786 5.88271 6.26697V6.26697Z" fill="black"/>
<path d="M5.88909 10.3548C5.88703 10.3548 5.88509 10.3548 5.88284 10.3548C5.88059 10.3548 5.87884 10.3548 5.87659 10.3548C5.74511 10.353 5.6196 10.2996 5.5272 10.206C5.4348 10.1124 5.38295 9.98627 5.38284 9.85477C5.38157 9.75564 5.34129 9.66099 5.27073 9.59134C5.20018 9.52168 5.10502 9.48263 5.00588 9.48263C4.90673 9.48263 4.81157 9.52168 4.74102 9.59134C4.67046 9.66099 4.63018 9.75564 4.62891 9.85477C4.62969 10.1201 4.7144 10.3783 4.87091 10.5926C5.02742 10.8068 5.2477 10.966 5.50022 11.0474V11.2506C5.50022 11.3501 5.53973 11.4455 5.61005 11.5158C5.68038 11.5861 5.77576 11.6256 5.87522 11.6256C5.97468 11.6256 6.07006 11.5861 6.14038 11.5158C6.21071 11.4455 6.25022 11.3501 6.25022 11.2506V11.0474C6.50353 10.9664 6.72483 10.8076 6.88263 10.5935C7.04042 10.3794 7.12667 10.121 7.12909 9.85509C7.12909 9.52391 6.99767 9.20627 6.76368 8.97191C6.5297 8.73755 6.21227 8.60562 5.88109 8.60509C5.78228 8.60475 5.68577 8.57514 5.60377 8.52C5.52177 8.46486 5.45794 8.38665 5.42036 8.29526C5.38277 8.20387 5.37311 8.10339 5.3926 8.00651C5.41208 7.90963 5.45983 7.8207 5.52982 7.75094C5.59982 7.68118 5.68891 7.63373 5.78586 7.61457C5.8828 7.59542 5.98325 7.60542 6.07451 7.64331C6.16578 7.6812 6.24377 7.74529 6.29863 7.82748C6.3535 7.90966 6.38278 8.00627 6.38278 8.10509C6.38214 8.1545 6.39132 8.20354 6.40979 8.24938C6.42825 8.29521 6.45564 8.33692 6.49035 8.37209C6.52507 8.40725 6.56642 8.43517 6.61201 8.45423C6.6576 8.47329 6.70652 8.4831 6.75594 8.4831C6.80535 8.4831 6.85427 8.47329 6.89987 8.45423C6.94546 8.43517 6.98681 8.40725 7.02152 8.37209C7.05624 8.33692 7.08362 8.29521 7.10209 8.24938C7.12055 8.20354 7.12973 8.1545 7.12909 8.10509C7.12673 7.8391 7.04051 7.58064 6.88271 7.36651C6.72491 7.15238 6.50357 6.99349 6.25022 6.91246V6.74902C6.25022 6.64957 6.21071 6.55418 6.14038 6.48386C6.07006 6.41353 5.97468 6.37402 5.87522 6.37402C5.77576 6.37402 5.68038 6.41353 5.61005 6.48386C5.53973 6.55418 5.50022 6.64957 5.50022 6.74902V6.91246C5.21578 7.00307 4.97313 7.19243 4.81611 7.44632C4.6591 7.70022 4.59807 8.0019 4.64407 8.29686C4.69007 8.59182 4.84005 8.86059 5.06692 9.05462C5.29378 9.24865 5.58257 9.35514 5.88109 9.35484C6.0137 9.35377 6.1413 9.40544 6.23582 9.49845C6.33034 9.59147 6.38403 9.71823 6.38509 9.85084C6.38615 9.98344 6.33449 10.111 6.24148 10.2056C6.14846 10.3001 6.0217 10.3538 5.88909 10.3548V10.3548Z" fill="black"/>
<path d="M26.1252 24.8893C26.814 24.8893 27.4875 24.6851 28.0602 24.3023C28.633 23.9196 29.0795 23.3756 29.3431 22.7392C29.6067 22.1027 29.6757 21.4024 29.5413 20.7268C29.4069 20.0511 29.0752 19.4305 28.588 18.9434C28.1009 18.4563 27.4803 18.1245 26.8047 17.9901C26.129 17.8558 25.4287 17.9247 24.7922 18.1884C24.1558 18.452 23.6118 18.8984 23.2291 19.4712C22.8464 20.044 22.6421 20.7174 22.6421 21.4063C22.6431 22.3297 23.0104 23.2151 23.6634 23.868C24.3164 24.521 25.2017 24.8883 26.1252 24.8893V24.8893ZM26.1252 18.6732C26.6657 18.6732 27.1941 18.8335 27.6436 19.1338C28.093 19.4341 28.4433 19.861 28.6502 20.3604C28.857 20.8598 28.9112 21.4093 28.8057 21.9395C28.7002 22.4696 28.4399 22.9566 28.0577 23.3388C27.6755 23.7211 27.1885 23.9814 26.6583 24.0868C26.1282 24.1923 25.5787 24.1382 25.0793 23.9313C24.5799 23.7244 24.153 23.3741 23.8527 22.9247C23.5524 22.4752 23.3921 21.9468 23.3921 21.4063C23.3929 20.6817 23.6811 19.987 24.1935 19.4746C24.7059 18.9623 25.4006 18.674 26.1252 18.6732V18.6732Z" fill="black"/>
<path d="M24.6251 20.625C24.6251 20.7245 24.6646 20.8198 24.7349 20.8902C24.8052 20.9605 24.9006 21 25.0001 21H26.0995C25.9911 21.125 25.8271 21.25 25.6439 21.25H25.0001C24.9255 21.2484 24.8522 21.2695 24.7899 21.3106C24.7276 21.3517 24.6792 21.4107 24.6513 21.4799C24.6233 21.549 24.6171 21.6251 24.6334 21.6979C24.6497 21.7707 24.6877 21.8368 24.7425 21.8875L26.3517 23.4062C26.4242 23.4746 26.5208 23.5113 26.6204 23.5083C26.72 23.5054 26.8143 23.463 26.8826 23.3905C26.9509 23.318 26.9876 23.2213 26.9847 23.1217C26.9817 23.0222 26.9393 22.9279 26.8668 22.8596L25.9139 21.9486C26.1551 21.9014 26.3782 21.7875 26.5578 21.6198C26.7374 21.4521 26.8663 21.2373 26.9299 21H27.2501C27.3495 21 27.4449 20.9605 27.5152 20.8902C27.5856 20.8198 27.6251 20.7245 27.6251 20.625C27.6251 20.5255 27.5856 20.4302 27.5152 20.3598C27.4449 20.2895 27.3495 20.25 27.2501 20.25H26.9299C26.9068 20.1853 26.8785 20.1226 26.8454 20.0625H27.2501C27.3495 20.0625 27.4449 20.023 27.5152 19.9527C27.5856 19.8823 27.6251 19.787 27.6251 19.6875C27.6251 19.588 27.5856 19.4927 27.5152 19.4223C27.4449 19.352 27.3495 19.3125 27.2501 19.3125H25.0001C24.9006 19.3125 24.8052 19.352 24.7349 19.4223C24.6646 19.4927 24.6251 19.588 24.6251 19.6875C24.6251 19.787 24.6646 19.8823 24.7349 19.9527C24.8052 20.023 24.9006 20.0625 25.0001 20.0625H25.6438C25.7288 20.0589 25.8135 20.0739 25.8922 20.1062C25.9708 20.1386 26.0415 20.1877 26.0994 20.25H25.0001C24.9006 20.25 24.8052 20.2895 24.7349 20.3598C24.6646 20.4302 24.6251 20.5255 24.6251 20.625V20.625Z" fill="black"/>
</svg>
