<svg xmlns="http://www.w3.org/2000/svg" xmlns:xlink="http://www.w3.org/1999/xlink" width="32" height="32" viewBox="0 0 32 32">
  <defs>
    <clipPath id="clip-path">
      <rect id="Rectangle_12558" data-name="Rectangle 12558" width="25.091" height="28"/>
    </clipPath>
  </defs>
  <g id="Group_37673pp" data-name="Group 37673pp" transform="translate(10187 1859)">
    <g id="Rectangle_12544" data-name="Rectangle 12544" transform="translate(-10187 -1859)" stroke="#707070" stroke-width="1" opacity="0">
      <rect width="32" height="32" stroke="none"/>
      <rect x="0.5" y="0.5" width="31" height="31" fill="none"/>
    </g>
    <g id="Group_37677" data-name="Group 37677" transform="translate(-10184 -1857)">
      <g id="Group_37677-2" data-name="Group 37677" clip-path="url(#clip-path)">
        <path id="Path_105409" data-name="Path 105409" d="M4.4,28c-.193-.042-.388-.081-.58-.126A4.928,4.928,0,0,1,.287,21.42q.506-1.427,1.077-2.832a5.861,5.861,0,0,1,7.1-3.391c.68.2,1.358.414,2.036.62.05.015.1.024.192.046-.179-.478-.323-.927-.519-1.352a.792.792,0,0,0-.407-.332A7.159,7.159,0,0,1,5.2,8.672,7.1,7.1,0,0,1,6.553,2.864c.2-.273.441-.335.649-.181s.208.4.007.673a6.557,6.557,0,0,0,.59,8.592A6.052,6.052,0,0,0,10,13.381a1.672,1.672,0,0,1,1.06,1.09c.346.987.715,1.967,1.075,2.949.033.089.073.176.142.341.071-.163.113-.247.145-.335.367-1,.742-2,1.1-3a1.616,1.616,0,0,1,1.01-1.032A6.516,6.516,0,0,0,13.566.956a6.162,6.162,0,0,0-4.825.95c-.35.232-.585.237-.739.009s-.068-.453.276-.687A7.211,7.211,0,0,1,19.322,5.673a7.335,7.335,0,0,1-4.488,8.484.854.854,0,0,0-.544.562c-.136.412-.295.818-.465,1.284.268-.063.488-.1.7-.167.838-.245,1.663-.547,2.513-.738a5.827,5.827,0,0,1,6.682,3.486c.389.951.745,1.916,1.1,2.882a4.686,4.686,0,0,1,.2,2.4.41.41,0,0,1-.461.394.424.424,0,0,1-.344-.529,4.083,4.083,0,0,0-.258-2.213,6.318,6.318,0,0,1-5.734,5.168c.093.049.172.1.255.134a4.107,4.107,0,0,0,4.952-1.269c.017-.022.032-.044.049-.066.212-.278.433-.337.646-.173s.214.389,0,.672a4.845,4.845,0,0,1-2.388,1.746c-.342.114-.7.183-1.049.272H19.653a.549.549,0,0,0-.124-.046,4.924,4.924,0,0,1-2.058-.748c-.734-.456-1.456-.932-2.207-1.358a3.579,3.579,0,0,0-1.157-.448,11.4,11.4,0,0,0-2.8-.05,3.563,3.563,0,0,0-1.649.587c-.681.437-1.358.885-2.066,1.274a12.8,12.8,0,0,1-1.548.657A3.834,3.834,0,0,1,5.434,28Zm2.836-2.161a2.944,2.944,0,0,0,1.881-.517,3.72,3.72,0,0,1,2.229-.791c.954-.007,1.911-.006,2.863.052a4.63,4.63,0,0,1,2.1.93,1.649,1.649,0,0,0,.544.233,5.332,5.332,0,0,0,5.9-3.129,4.817,4.817,0,0,0,.087-3.983,4.977,4.977,0,0,0-5.846-2.684c-1.121.31-2.243.621-3.361.94a.35.35,0,0,0-.19.187c-.116.276-.205.564-.316.843a.883.883,0,0,1-1.667-.006c-.12-.3-.215-.619-.346-.919a.464.464,0,0,0-.252-.235c-.79-.245-1.591-.457-2.378-.709a5.023,5.023,0,0,0-3.7.148,4.5,4.5,0,0,0-2.646,2.789,5.337,5.337,0,0,0,5.109,6.851M1.138,21.552c-.765,1.236-.215,3.5,1.13,4.649a3.992,3.992,0,0,0,4.544.476,6.282,6.282,0,0,1-5.674-5.126" transform="translate(0 0)"/>
        <path id="Path_105410" data-name="Path 105410" d="M101.25,70.606c0,.343,0,.634,0,.924,0,.4-.13.59-.4.594s-.416-.193-.417-.61c0-.31.008-.62,0-.929a2.588,2.588,0,0,0-.071-.506.578.578,0,0,1,.467-.735c1.28-.386,2.565-.757,3.838-1.164a1.975,1.975,0,0,1,1.271,0c1.256.4,2.523.77,3.784,1.153.363.11.529.294.53.571s-.168.466-.525.576c-.313.1-.625.195-.941.28a.244.244,0,0,0-.214.282c.011.583.006,1.166,0,1.749a.744.744,0,0,1-.638.851c-.764.2-1.528.413-2.3.591a1.6,1.6,0,0,1-.7,0c-.762-.176-1.516-.384-2.273-.581a.77.77,0,0,1-.665-.862c0-.574-.01-1.148,0-1.722.005-.193-.057-.279-.24-.314-.158-.03-.31-.087-.512-.146m1.567.467c0,.542.009,1.043,0,1.543,0,.186.068.245.237.286.566.135,1.133.272,1.69.44a1.732,1.732,0,0,0,1.09,0c.431-.141.878-.235,1.32-.346.6-.151.6-.15.6-.768V71.08c-.738.221-1.421.444-2.115.624a1.468,1.468,0,0,1-.713-.006c-.693-.183-1.376-.405-2.1-.625m5.939-1.157c-.122-.044-.18-.068-.239-.087-.878-.267-1.762-.517-2.633-.807a1.639,1.639,0,0,0-1.183,0c-.337.133-.695.213-1.042.319l-1.856.566c1.186.357,2.3.692,3.413,1.024a.342.342,0,0,0,.184-.009c1.1-.328,2.192-.659,3.358-1.01" transform="translate(-93.003 -63.103)"/>
        <path id="Path_105411" data-name="Path 105411" d="M56.323,244.678c0,.3.006.586,0,.876a.675.675,0,0,1-.72.717q-.614.009-1.229,0a.688.688,0,0,1-.731-.713c-.011-.3,0-.6,0-.924-.309,0-.589,0-.869,0a.7.7,0,0,1-.77-.759c-.007-.391-.008-.783,0-1.174a.7.7,0,0,1,.756-.749c.281-.005.562,0,.882,0,0-.268,0-.519,0-.769,0-.612.253-.868.856-.869.364,0,.728,0,1.092,0a.688.688,0,0,1,.735.735c.007.282.007.564.012.846,0,.007.01.014.043.056.251,0,.53,0,.809,0a.7.7,0,0,1,.776.777c0,.4.007.8,0,1.2a.674.674,0,0,1-.707.7c-.282.008-.564.005-.846.009-.016,0-.032.013-.084.036m-.819.774c0-.338,0-.646,0-.953a.611.611,0,0,1,.694-.684c.307,0,.613,0,.924,0v-1.044c-.319,0-.618,0-.917,0-.484,0-.7-.214-.7-.7,0-.306,0-.611,0-.915H54.459c0,.333,0,.642,0,.951,0,.454-.216.66-.676.663-.315,0-.63,0-.948,0v1.044c.312,0,.61,0,.908,0,.512,0,.714.2.717.709,0,.305,0,.611,0,.929H55.5Z" transform="translate(-48.197 -222.753)"/>
        <path id="Path_105412" data-name="Path 105412" d="M249.917,243.416a1.536,1.536,0,1,1-.021-3.071,1.536,1.536,0,1,1,.021,3.071m-.01-.821a.715.715,0,0,0,.718-.7.717.717,0,1,0-1.434,0,.71.71,0,0,0,.716.7" transform="translate(-230.222 -222.785)"/>
        <path id="Path_105413" data-name="Path 105413" d="M212.059,282.984a1.535,1.535,0,1,1,1.56-1.5,1.528,1.528,0,0,1-1.56,1.5m.021-2.247a.713.713,0,1,0,.718.7.707.707,0,0,0-.718-.7" transform="translate(-195.167 -259.465)"/>
        <path id="Path_105414" data-name="Path 105414" d="M157.846,301.783c-.227,0-.455.007-.682,0a.4.4,0,0,1-.407-.392.4.4,0,0,1,.385-.416q.709-.023,1.418,0a.4.4,0,0,1,.38.42.409.409,0,0,1-.412.389h-.682Z" transform="translate(-145.304 -278.973)"/>
      </g>
    </g>
  </g>
</svg>
