<svg id="Group_37999" data-name="Group 37999" xmlns="http://www.w3.org/2000/svg" width="37.079" height="32" viewBox="0 0 37.079 32">
  <path id="Path_105972" data-name="Path 105972" d="M367.737,63.059a.559.559,0,0,0,0-1.118h-.683a.559.559,0,1,0,0,1.118Z" transform="translate(-339.992 -59.938)"/>
  <path id="Path_105973" data-name="Path 105973" d="M402.67,63.059a.559.559,0,1,0,0-1.118h-.683a.559.559,0,1,0,0,1.118Z" transform="translate(-372.399 -59.938)"/>
  <path id="Path_105974" data-name="Path 105974" d="M437.6,63.059a.559.559,0,0,0,0-1.118h-.683a.559.559,0,1,0,0,1.118Z" transform="translate(-404.92 -59.938)"/>
  <path id="Path_105975" data-name="Path 105975" d="M249.618,408.009v-.54a.559.559,0,1,0-1.118,0v.54a.559.559,0,1,0,1.118,0Z" transform="translate(-230.52 -380.129)"/>
  <path id="Path_105976" data-name="Path 105976" d="M35.766,35.065H6.575a.543.543,0,1,0,0,1.086H35.766a.227.227,0,0,1,.227.227v2.58H11.3a.027.027,0,0,1-.025-.017l-.252-.6a1.111,1.111,0,0,0-1.028-.685H5.224a1.111,1.111,0,0,0-1.028.685l-.252.6a.027.027,0,0,1-.025.017H1.086v-2.58a.227.227,0,0,1,.227-.227H4.4a.543.543,0,0,0,0-1.086H1.313A1.314,1.314,0,0,0,0,36.378v22.54a1.314,1.314,0,0,0,1.313,1.313h13.71a4.48,4.48,0,0,1,.163,1.966.543.543,0,1,0,1.075.154,5.509,5.509,0,0,0-.111-2.121h4.778a5.95,5.95,0,0,0,.976,4.847,27.322,27.322,0,0,0-6.73,0q.117-.178.222-.356a.543.543,0,0,0-.936-.551,8.56,8.56,0,0,1-.814,1.141A29.014,29.014,0,0,0,10.712,66a.543.543,0,1,0,.3,1.043,26.638,26.638,0,0,1,15.05,0,.543.543,0,1,0,.3-1.043,29.026,29.026,0,0,0-2.933-.688c-1.446-1.725-1.9-3.392-1.378-5.081H35.766a1.314,1.314,0,0,0,1.313-1.313V54.139a.543.543,0,1,0-1.086,0v4.779a.227.227,0,0,1-.227.227H1.313a.227.227,0,0,1-.227-.227V40.044H3.92a1.111,1.111,0,0,0,1.028-.685l.252-.6a.027.027,0,0,1,.025-.017H9.991a.027.027,0,0,1,.025.017l.252.6a1.111,1.111,0,0,0,1.028.685h24.7V51.967a.543.543,0,1,0,1.086,0V36.378a1.314,1.314,0,0,0-1.313-1.313Z" transform="translate(0 -35.065)"/>
  <path id="Path_105977" data-name="Path 105977" d="M232.176,204.508a.559.559,0,0,0,0-1.118l-1.655-.015a1.772,1.772,0,0,0,.231-.983h.387a.559.559,0,0,0,0-1.118h-.665c-.208-.348-.434-.85-.08-1.05a.938.938,0,0,1,.831-.01.75.75,0,0,1,.33.354.559.559,0,1,0,1.076-.305,1.81,1.81,0,0,0-.824-1,2.051,2.051,0,0,0-1.962-.008,1.532,1.532,0,0,0-.608,2.024h-.023a.559.559,0,1,0,0,1.118h.422c.017.253-.027.386-.3.747l-.348.438a.559.559,0,0,0,.433.907l2.742.024h.005Z" transform="translate(-212.157 -187.201)"/>
  <path id="Path_105978" data-name="Path 105978" d="M195.382,169.993a5.31,5.31,0,1,0-5.31,5.31A5.316,5.316,0,0,0,195.382,169.993Zm-9.5,0a4.192,4.192,0,1,1,4.192,4.192A4.2,4.2,0,0,1,185.881,169.993Z" transform="translate(-171.533 -155.427)"/>
  <path id="Path_105979" data-name="Path 105979" d="M322.542,170.634a.559.559,0,0,0,.467-.866,7.581,7.581,0,0,0-.453-.619.559.559,0,1,0-.867.705,6.485,6.485,0,0,1,.386.527A.559.559,0,0,0,322.542,170.634Z" transform="translate(-298.304 -159.263)"/>
  <path id="Path_105980" data-name="Path 105980" d="M332.906,201.9a.558.558,0,0,0,.751-.247,7.6,7.6,0,0,0,.325-6.085.559.559,0,0,0-1.046.394,6.48,6.48,0,0,1-.277,5.188A.559.559,0,0,0,332.906,201.9Z" transform="translate(-308.548 -183.693)"/>
  <path id="Path_105981" data-name="Path 105981" d="M170.059,280.3a.559.559,0,0,0-.16.774,7.627,7.627,0,0,0,.453.619.559.559,0,1,0,.867-.705,6.482,6.482,0,0,1-.386-.527A.559.559,0,0,0,170.059,280.3Z" transform="translate(-157.525 -262.483)"/>
  <path id="Path_105982" data-name="Path 105982" d="M155.9,186.066a.559.559,0,0,0-.751.247,7.6,7.6,0,0,0-.325,6.085.559.559,0,0,0,1.046-.394,6.48,6.48,0,0,1,.277-5.188A.559.559,0,0,0,155.9,186.066Z" transform="translate(-143.179 -175.157)"/>
  <path id="Path_105983" data-name="Path 105983" d="M297.858,117.181l1.926-1.449a.814.814,0,0,0,0-1.3l-1.926-1.45a.814.814,0,0,0-1.3.6h-3.5a.815.815,0,0,0-.814.814v1.37a.815.815,0,0,0,.814.814h3.5a.813.813,0,0,0,1.3.6Zm-1-1.719h-3.5V114.7h3.5a.815.815,0,0,0,.753-.5l1.176.885-1.176.885A.815.815,0,0,0,296.859,115.462Z" transform="translate(-271.237 -107.213)"/>
  <path id="Path_105984" data-name="Path 105984" d="M116.448,298.44l-1.926,1.449a.814.814,0,0,0,0,1.3l1.926,1.449a.814.814,0,0,0,1.3-.6h3.5a.814.814,0,0,0,.814-.814v-1.37a.814.814,0,0,0-.814-.814h-3.5a.814.814,0,0,0-1.3-.6Zm1,1.719h3.5v.762h-3.5a.815.815,0,0,0-.753.5l-1.176-.885,1.176-.885A.815.815,0,0,0,117.447,300.159Z" transform="translate(-105.991 -279.303)"/>
  <path id="Path_105985" data-name="Path 105985" d="M363.841,294.8H369.6a.888.888,0,0,0,.887-.887v-2.366a.888.888,0,0,0-.887-.887h-5.761a.888.888,0,0,0-.887.887v2.366A.888.888,0,0,0,363.841,294.8Zm.231-3.022h5.3v1.9h-5.3Z" transform="translate(-336.984 -272.229)"/>
</svg>
