<svg xmlns="http://www.w3.org/2000/svg" xmlns:xlink="http://www.w3.org/1999/xlink" width="60" height="60" viewBox="0 0 60 60">
  <defs>
    <clipPath id="clip-path">
      <rect id="Rectangle_12567" data-name="Rectangle 12567" width="54" height="49.885" fill="#fe5c58"/>
    </clipPath>
  </defs>
  <g id="Group_37649" data-name="Group 37649" transform="translate(-423 -1990)">
    <g id="Rectangle_12523" data-name="Rectangle 12523" transform="translate(423 1990)" fill="#fe5c58" stroke="#707070" stroke-width="1" opacity="0">
      <rect width="60" height="60" stroke="none"/>
      <rect x="0.5" y="0.5" width="59" height="59" fill="none"/>
    </g>
    <g id="Group_37687" data-name="Group 37687" transform="translate(426 1995)">
      <g id="Group_37686" data-name="Group 37686" clip-path="url(#clip-path)">
        <path id="Path_105441" data-name="Path 105441" d="M0,4.548c.088-.3.167-.6.265-.9A5.227,5.227,0,0,1,5.19.013C10.832-.008,16.474,0,22.116.006A1.069,1.069,0,0,1,23.3,1.067a1.074,1.074,0,0,1-1.2,1.049q-8.252.005-16.5,0A3.2,3.2,0,0,0,2.11,5.634q0,11.649,0,23.3v.618c.149.015.282.04.415.04,1.617,0,3.234.012,4.851-.01a1.036,1.036,0,0,0,.632-.265c.592-.551,1.139-1.151,1.729-1.7a.487.487,0,0,0,.1-.676A12.722,12.722,0,1,1,33.982,20.2a12.583,12.583,0,0,1-2.417,8.853c-.081.112-.16.226-.284.4H51.89v-.571q0-11.649,0-23.3A3.193,3.193,0,0,0,48.4,2.118H32.216c-.158,0-.317.007-.474,0a1.06,1.06,0,0,1-1.047-1.043A1.059,1.059,0,0,1,31.72.009c.14-.01.281,0,.422,0q8.147,0,16.293,0A5.284,5.284,0,0,1,54,5.57q0,14.08,0,28.159a5.288,5.288,0,0,1-5.6,5.585q-6.486,0-12.971,0h-.668l.966,3.759a15.479,15.479,0,0,1,1.883.14A3.365,3.365,0,0,1,37,49.872q-9.992.027-19.984,0a3.377,3.377,0,0,1,.029-6.753c1.222-.027,1.22-.027,1.527-1.222.214-.832.431-1.664.661-2.553-.21-.012-.375-.029-.54-.029-3.058,0-6.117-.01-9.175.014a1.332,1.332,0,0,0-.811.339c-.686.63-1.321,1.315-1.987,1.967A3.877,3.877,0,0,1,.1,39.807a.847.847,0,0,0-.1-.176V38.363c.2-.5.415-.993.61-1.494a.531.531,0,0,0,.017-.334C.427,35.944.211,35.358,0,34.77V4.548M10.723,21.483a10.614,10.614,0,1,0,10.59-10.62,10.627,10.627,0,0,0-10.59,10.62M51.878,31.639c-.179-.008-.3-.019-.42-.019q-11.015,0-22.03.01a1.379,1.379,0,0,0-.714.247,12.519,12.519,0,0,1-12.8,1.132.539.539,0,0,0-.721.127c-1.229,1.257-2.479,2.495-3.72,3.74-.079.079-.145.171-.272.324H48.387c.158,0,.316,0,.474,0a3.147,3.147,0,0,0,3.005-2.866c.063-.874.011-1.756.011-2.691M26.99,47.768h2.318c2.494,0,4.988,0,7.481,0a1.272,1.272,0,1,0-.007-2.533c-.14,0-.281,0-.421,0H18.922c-.615,0-1.23-.013-1.844.006a1.27,1.27,0,0,0-1.244,1.08,1.293,1.293,0,0,0,1.409,1.447q4.873.008,9.747,0m-16-18.441C10.312,30,9.508,30.812,8.7,31.62Q5.74,34.589,2.776,37.554a1.839,1.839,0,0,0-.617,1.8A1.684,1.684,0,0,0,3.4,40.671a1.8,1.8,0,0,0,1.867-.553q4.054-4.075,8.119-8.141c.093-.094.169-.2.253-.307l-.186.127-2.464-2.47m21.6,10.013H21.416l-.964,3.739h13.1l-.967-3.739m-27.129-7.6H2.089a18.653,18.653,0,0,0,.16,3.216l3.206-3.216" transform="translate(0 0)" fill="#fe5c58"/>
        <path id="Path_105442" data-name="Path 105442" d="M266.428,86.939q-2.555,0-5.11,0c-.766,0-1.248-.41-1.249-1.047s.483-1.063,1.244-1.064q5.11-.007,10.219,0c.759,0,1.247.427,1.248,1.06s-.47,1.049-1.243,1.05q-2.555,0-5.11,0" transform="translate(-223.427 -72.873)" fill="#fe5c58"/>
        <path id="Path_105443" data-name="Path 105443" d="M296.1,50.922c-.966,0-1.932,0-2.9,0a1.059,1.059,0,1,1-.036-2.107q2.95-.017,5.9,0a1.071,1.071,0,0,1,1.158,1.095,1.057,1.057,0,0,1-1.175,1.012c-.983.007-1.967,0-2.95,0" transform="translate(-250.868 -41.929)" fill="#fe5c58"/>
        <path id="Path_105444" data-name="Path 105444" d="M319.88,158.9c-.562,0-1.124.009-1.685,0a1.051,1.051,0,1,1-.031-2.1q1.711-.034,3.423,0a1.051,1.051,0,1,1-.021,2.1c-.561.012-1.123,0-1.685,0" transform="translate(-272.42 -134.69)" fill="#fe5c58"/>
        <path id="Path_105445" data-name="Path 105445" d="M262.836,158.894c-.561,0-1.122.01-1.683,0a1.049,1.049,0,1,1-.044-2.1q1.709-.041,3.418,0a1.049,1.049,0,1,1-.061,2.1c-.543.012-1.087,0-1.63,0" transform="translate(-223.429 -134.684)" fill="#fe5c58"/>
        <path id="Path_105446" data-name="Path 105446" d="M186.268,1.083a1.051,1.051,0,1,1-2.1.046,1.051,1.051,0,1,1,2.1-.046" transform="translate(-158.218 -0.045)" fill="#fe5c58"/>
        <path id="Path_105447" data-name="Path 105447" d="M297.806,121.934a1.049,1.049,0,0,1,1.036-1.047,1.082,1.082,0,0,1,1.057,1.04,1.057,1.057,0,0,1-1.076,1.063,1.027,1.027,0,0,1-1.016-1.056" transform="translate(-255.846 -103.854)" fill="#fe5c58"/>
        <path id="Path_105448" data-name="Path 105448" d="M262.164,121.971a1.026,1.026,0,0,1-1.051,1.021,1.05,1.05,0,0,1-1.037-1.046,1.067,1.067,0,0,1,1.087-1.056,1.044,1.044,0,0,1,1,1.081" transform="translate(-223.432 -103.857)" fill="#fe5c58"/>
        <path id="Path_105449" data-name="Path 105449" d="M260.564,50.992a1.028,1.028,0,0,1-1.045-1.028,1.048,1.048,0,0,1,1.06-1.075,1.062,1.062,0,0,1,1.026,1.063,1.045,1.045,0,0,1-1.04,1.04" transform="translate(-222.953 -42.001)" fill="#fe5c58"/>
        <path id="Path_105450" data-name="Path 105450" d="M337.472,121.958a1.051,1.051,0,1,1-2.1-.049,1.051,1.051,0,0,1,2.1.049" transform="translate(-288.117 -103.856)" fill="#fe5c58"/>
        <path id="Path_105451" data-name="Path 105451" d="M100.265,113.108a9.394,9.394,0,0,1,8.2,4.817,1.29,1.29,0,0,1,.023,1.434,9.36,9.36,0,0,1-16.327.064,1.362,1.362,0,0,1,0-1.531,9.375,9.375,0,0,1,8.1-4.784m-1.678,5.573a1.719,1.719,0,1,0,1.722-1.744,1.734,1.734,0,0,0-1.722,1.744m4.376-2.88a4.035,4.035,0,0,1-.17,5.83,7.17,7.17,0,0,0,3.552-2.836.375.375,0,0,0-.04-.325,6.71,6.71,0,0,0-3.342-2.669m-8.792,2.851a6.608,6.608,0,0,0,3.536,2.868,3.972,3.972,0,0,1,.079-5.81,7.2,7.2,0,0,0-3.616,2.942" transform="translate(-78.973 -97.171)" fill="#fe5c58"/>
      </g>
    </g>
  </g>
</svg>
