<svg xmlns="http://www.w3.org/2000/svg" width="60.001" height="60.001" viewBox="0 0 60.001 60.001">
  <g id="Group_37706" data-name="Group 37706" transform="translate(0 0)">
    <g id="Group_37705" data-name="Group 37705" transform="translate(0 0)">
      <path id="Path_105352" data-name="Path 105352" d="M289.174,254.156l-.044,0a3.067,3.067,0,0,0-2.857,2.326l-.942,3.867a12.643,12.643,0,0,1-6.75,8.39,1.157,1.157,0,0,1-1.648-1.239l.743-4.257a2.381,2.381,0,0,0-4.351-1.693l-4.811,7.515a1.765,1.765,0,0,0-2.277.182l-3.49,3.49a.879.879,0,0,0,0,1.243l10.133,10.133a.879.879,0,0,0,1.243,0l3.49-3.49a1.765,1.765,0,0,0,.1-2.386,27.541,27.541,0,0,0,3.249-2.123.879.879,0,1,0-1.063-1.4,26.769,26.769,0,0,1-3.473,2.226l-6.624-6.624,5.005-7.819a.623.623,0,0,1,1.138.443L275.2,267.2a2.915,2.915,0,0,0,4.152,3.12,14.4,14.4,0,0,0,7.686-9.553l.942-3.867c.3-1.245,2.094-1.3,1.988-.212a25.8,25.8,0,0,1-7.505,15.8.879.879,0,1,0,1.238,1.248,27.563,27.563,0,0,0,8.017-16.878A2.465,2.465,0,0,0,289.174,254.156ZM273.5,282.249l-8.889-8.889,2.875-2.869,8.882,8.89Z" transform="translate(-231.73 -224.37)" fill="#fe5d59"/>
      <path id="Path_105353" data-name="Path 105353" d="M151.543,14.824l1.169.648a.062.062,0,0,1,.023.023l1.828,3.167a.06.06,0,0,1,.008.032l-.023,1.336a1.82,1.82,0,0,0,.909,1.607l2.648,1.529a1.819,1.819,0,0,0,1.846-.016l1.146-.688a.061.061,0,0,1,.031-.008h3.657a.061.061,0,0,1,.032.009l1.146.688a1.819,1.819,0,0,0,1.846.016l2.648-1.529a1.82,1.82,0,0,0,.909-1.607l-.023-1.336a.061.061,0,0,1,.008-.032l1.829-3.167a.061.061,0,0,1,.023-.023l1.169-.648a1.819,1.819,0,0,0,.937-1.591V10.175a1.82,1.82,0,0,0-.937-1.591L173.2,7.937a.063.063,0,0,1-.024-.023l-.106-.183a.879.879,0,1,0-1.522.879l.105.183a1.819,1.819,0,0,0,.693.681l1.169.648a.061.061,0,0,1,.032.053v3.058a.061.061,0,0,1-.031.053l-1.169.648a1.818,1.818,0,0,0-.693.681l-1.829,3.167a1.82,1.82,0,0,0-.243.941l.023,1.336a.061.061,0,0,1-.03.054l-2.648,1.529a.061.061,0,0,1-.062,0l-1.145-.688a1.82,1.82,0,0,0-.937-.26h-3.657a1.817,1.817,0,0,0-.937.26l-1.146.688a.06.06,0,0,1-.062,0l-2.648-1.529a.061.061,0,0,1-.031-.054l.023-1.336a1.82,1.82,0,0,0-.243-.941l-1.828-3.167a1.819,1.819,0,0,0-.693-.681l-1.169-.648a.061.061,0,0,1-.031-.053V10.175a.061.061,0,0,1,.031-.053l1.169-.648a1.818,1.818,0,0,0,.693-.681l1.829-3.167a1.82,1.82,0,0,0,.243-.941l-.023-1.336a.061.061,0,0,1,.03-.054l2.649-1.529a.061.061,0,0,1,.062,0l1.146.688a1.82,1.82,0,0,0,.937.26h3.657a1.82,1.82,0,0,0,.937-.26l1.146-.688a.06.06,0,0,1,.062,0L169.578,3.3a.061.061,0,0,1,.03.054l-.023,1.336a1.827,1.827,0,0,0,.178.812.879.879,0,1,0,1.588-.755.068.068,0,0,1-.008-.027l.023-1.336a1.819,1.819,0,0,0-.909-1.607L167.809.244a1.818,1.818,0,0,0-1.846.016l-1.145.688a.062.062,0,0,1-.032.009h-3.657A.062.062,0,0,1,161.1.948L159.952.26a1.819,1.819,0,0,0-1.846-.016l-2.648,1.529a1.82,1.82,0,0,0-.909,1.607l.023,1.336a.061.061,0,0,1-.008.032l-1.829,3.167a.061.061,0,0,1-.023.023l-1.169.648a1.82,1.82,0,0,0-.937,1.591v3.058a1.819,1.819,0,0,0,.937,1.591Z" transform="translate(-132.957 0)" fill="#fe5d59"/>
      <path id="Path_105354" data-name="Path 105354" d="M215.958,54.52a5.315,5.315,0,1,0,5.315,5.315A5.321,5.321,0,0,0,215.958,54.52Zm0,8.873a3.558,3.558,0,1,1,3.558-3.558A3.562,3.562,0,0,1,215.958,63.393Z" transform="translate(-185.958 -48.131)" fill="#fe5d59"/>
      <path id="Path_105355" data-name="Path 105355" d="M362.653,187.562a3.955,3.955,0,1,0-3.955-3.955A3.96,3.96,0,0,0,362.653,187.562Zm0-6.152a2.2,2.2,0,1,1-2.2,2.2A2.2,2.2,0,0,1,362.653,181.41Z" transform="translate(-316.663 -158.599)" fill="#fe5d59"/>
      <path id="Path_105356" data-name="Path 105356" d="M319.806,144.468l.015.863-1.2,2.087-.755.418a1.531,1.531,0,0,0-.789,1.339v2.12a1.531,1.531,0,0,0,.789,1.339l.755.419,1.2,2.087-.015.863a1.532,1.532,0,0,0,.765,1.352l1.836,1.06a1.531,1.531,0,0,0,1.554-.013l.74-.445h2.41l.74.445a1.532,1.532,0,0,0,1.554.013l1.836-1.06a1.531,1.531,0,0,0,.765-1.352l-.015-.863,1.2-2.087.755-.419a1.532,1.532,0,0,0,.788-1.339v-2.12a1.531,1.531,0,0,0-.788-1.339l-.755-.419-1.2-2.087.015-.863a1.531,1.531,0,0,0-.765-1.352l-1.836-1.06a1.532,1.532,0,0,0-1.554.014l-.74.445H324.7l-.74-.445a1.532,1.532,0,0,0-1.554-.014l-1.836,1.06A1.531,1.531,0,0,0,319.806,144.468Zm1.76.1,1.6-.926.68.408a1.531,1.531,0,0,0,.788.218h2.535a1.532,1.532,0,0,0,.788-.219l.68-.408,1.6.926-.014.793a1.53,1.53,0,0,0,.2.792l1.267,2.2a1.529,1.529,0,0,0,.583.574l.693.384v1.853l-.694.384a1.531,1.531,0,0,0-.583.573l-1.268,2.2a1.531,1.531,0,0,0-.2.792l.014.793-1.6.926-.68-.408a1.531,1.531,0,0,0-.788-.218h-2.535a1.533,1.533,0,0,0-.788.219l-.679.408-1.6-.926.014-.793a1.53,1.53,0,0,0-.2-.792l-1.268-2.2a1.529,1.529,0,0,0-.584-.574l-.693-.384v-1.853l.693-.384a1.528,1.528,0,0,0,.584-.574l1.267-2.2a1.53,1.53,0,0,0,.205-.793Z" transform="translate(-279.916 -125.227)" fill="#fe5d59"/>
      <path id="Path_105357" data-name="Path 105357" d="M89.759,187.562a3.955,3.955,0,1,0-3.955-3.955A3.96,3.96,0,0,0,89.759,187.562Zm0-6.152a2.2,2.2,0,1,1-2.2,2.2A2.2,2.2,0,0,1,89.759,181.41Z" transform="translate(-75.749 -158.599)" fill="#fe5d59"/>
      <path id="Path_105358" data-name="Path 105358" d="M44.965,152.633l.755.419,1.2,2.087-.015.863a1.531,1.531,0,0,0,.765,1.352l1.836,1.06a1.531,1.531,0,0,0,1.554-.013l.74-.445h2.41l.74.445a1.531,1.531,0,0,0,1.554.013l1.836-1.06A1.531,1.531,0,0,0,59.109,156l-.015-.863,1.2-2.087.756-.419a1.532,1.532,0,0,0,.788-1.339v-2.12a1.531,1.531,0,0,0-.789-1.339l-.755-.419-1.2-2.087.015-.863a1.532,1.532,0,0,0-.765-1.352l-1.836-1.06a1.531,1.531,0,0,0-1.554.013l-.74.445H51.8l-.74-.445a1.531,1.531,0,0,0-1.553-.013l-1.836,1.06a1.531,1.531,0,0,0-.765,1.352l.015.863-1.2,2.087-.755.419a1.531,1.531,0,0,0-.789,1.339v2.12a1.531,1.531,0,0,0,.789,1.339Zm.969-3.325.693-.384a1.53,1.53,0,0,0,.584-.574l1.268-2.2a1.532,1.532,0,0,0,.2-.792l-.014-.792,1.6-.926.679.408a1.53,1.53,0,0,0,.788.219h2.536a1.532,1.532,0,0,0,.788-.219l.68-.408,1.6.926-.014.793a1.531,1.531,0,0,0,.2.792l1.268,2.2a1.53,1.53,0,0,0,.584.574l.693.384v1.853l-.693.384a1.53,1.53,0,0,0-.583.573l-1.268,2.2a1.532,1.532,0,0,0-.2.792l.014.792-1.6.926-.679-.408a1.53,1.53,0,0,0-.788-.219H51.741a1.532,1.532,0,0,0-.788.219l-.68.408-1.6-.926.014-.793a1.532,1.532,0,0,0-.2-.792l-1.268-2.2a1.531,1.531,0,0,0-.583-.573l-.693-.384v-1.853Z" transform="translate(-38.999 -125.226)" fill="#fe5d59"/>
      <path id="Path_105359" data-name="Path 105359" d="M25.493,269.245a1.765,1.765,0,0,0-2.277-.182L18.4,261.548a2.381,2.381,0,0,0-4.351,1.693L14.8,267.5a1.157,1.157,0,0,1-1.648,1.239,12.643,12.643,0,0,1-6.75-8.39l-.942-3.867A3.067,3.067,0,0,0,2.6,254.155l-.043,0a2.466,2.466,0,0,0-2.545,2.7A27.493,27.493,0,0,0,14.02,278.235a1.765,1.765,0,0,0,.1,2.386l3.49,3.49a.879.879,0,0,0,1.243,0l3.9-3.9a.879.879,0,0,0-1.243-1.243l-3.278,3.278L15.36,279.37l8.89-8.882,2.868,2.868-3.127,3.126a.879.879,0,1,0,1.243,1.243l3.748-3.748a.879.879,0,0,0,0-1.243ZM1.762,256.685a.707.707,0,0,1,.73-.775l.044,0a1.285,1.285,0,0,1,1.214.985l.942,3.867a14.4,14.4,0,0,0,7.686,9.553,2.915,2.915,0,0,0,4.152-3.12l-.743-4.257a.623.623,0,0,1,1.138-.443l5.005,7.819-6.624,6.624A25.936,25.936,0,0,1,1.762,256.684Z" transform="translate(0 -224.368)" fill="#fe5d59"/>
    </g>
  </g>
</svg>
