<svg xmlns="http://www.w3.org/2000/svg" width="60" height="56.777" viewBox="0 0 60 56.777">
  <g id="Group_37704" data-name="Group 37704" transform="translate(-0.001 -0.498)">
    <path id="Path_105350" data-name="Path 105350" d="M51.834,1.563a.883.883,0,0,0-.688,1.626,11.643,11.643,0,0,1,7.11,10.733c0,10.678-13.3,15.766-20.376,7.722A11.651,11.651,0,0,1,47.985,2.352.883.883,0,0,0,48.193.6,13.431,13.431,0,0,0,35.631,21.643h-18.5a1.5,1.5,0,0,0-1.494,1.494V34.555l-1.658,3.258a2.718,2.718,0,0,1-1.459,1.315,2.264,2.264,0,0,0-2.262-2.307h-3.4a2.267,2.267,0,0,0-2.263,2.352H2.406A2.408,2.408,0,0,0,0,41.58v1.069a.883.883,0,0,0,1.765,0V41.58a.641.641,0,0,1,.64-.641H4.594V53.157H2.406a.641.641,0,0,1-.64-.64V46.179a.883.883,0,0,0-1.765,0v6.338a2.408,2.408,0,0,0,2.405,2.405H4.594a2.268,2.268,0,0,0,2.263,2.353h3.4a2.265,2.265,0,0,0,2.178-1.654c1.085.29-1.9.175,37.6.175a1.652,1.652,0,0,0,1.65-1.65v-27.8c10.976-4.492,11.141-20.125.146-24.781ZM10.758,47v8.015a.5.5,0,0,1-.5.5h-3.4a.505.505,0,0,1-.5-.5V39.085a.5.5,0,0,1,.5-.5h3.4a.5.5,0,0,1,.5.5ZM26.885,23.408h6.73v6.925L31,28.286a1.217,1.217,0,0,0-1.5,0l-2.616,2.047Zm-.2,30.619c-14.012.005-13.33.093-14.159-.233V40.967a4.5,4.5,0,0,0,3.117-2.52l2-3.935c.293-.585,1.945.893,1.166,2.423l-.852,1.674a1.7,1.7,0,0,0,1.511,2.464l11.056,0a1,1,0,0,1,1.008.971.961.961,0,0,1-.954.944h-6.9a.883.883,0,1,0,0,1.765h10.3a1.089,1.089,0,0,1,.98.8.864.864,0,0,1-.908,1.109H23.606a.882.882,0,1,0,0,1.765h8.849a.957.957,0,0,1,.639,1.634.946.946,0,0,1-.676.28c-6.765,0-4.888,0-9.661,0a.883.883,0,1,0,0,1.765c4.2,0,4.226-.094,4.6.28a.96.96,0,0,1-.677,1.635Zm23.241,0H44.861V37.063a.883.883,0,1,0-1.765,0V54.031H29.225a2.684,2.684,0,0,0,.011-1.92l3.182,0a2.723,2.723,0,0,0,2.5-3.808,2.674,2.674,0,0,0,1.021-4.476,3.341,3.341,0,0,0-2.813-.84,2.738,2.738,0,0,0-2.6-3.68l-10.942,0,.8-1.572c1.342-2.639-.977-5.55-2.977-5.074V23.408H25.12V31.46a1.218,1.218,0,0,0,1.217,1.216c.544,0,.434-.013,3.913-2.735,3.432,2.685,3.357,2.735,3.913,2.735A1.218,1.218,0,0,0,35.38,31.46V23.408h1.739A13.319,13.319,0,0,0,43.1,26.874v6.659a.883.883,0,0,0,1.765,0V27.225a13.587,13.587,0,0,0,5.062-.3Zm0,0" transform="translate(0 0)" fill="#fe5c58"/>
    <path id="Path_105351" data-name="Path 105351" d="M336.428,72.951a.928.928,0,0,0-1.39,1.231l3.74,4.222a1.812,1.812,0,0,0,2.708,0l8.588-9.638a.929.929,0,0,0-1.387-1.235l-8.554,9.6Zm0,0" transform="translate(-296.651 -58.499)" fill="#fe5c58"/>
  </g>
</svg>
