<svg xmlns="http://www.w3.org/2000/svg" width="60" height="62" viewBox="0 0 60 62">
  <g id="Group_37711" data-name="Group 37711" transform="translate(-1 -1)">
    <g id="Group_37710" data-name="Group 37710" transform="translate(1 1)">
      <path id="Path_105365" data-name="Path 105365" d="M17,13h2v2h2V8a3,3,0,0,0-6,0v7h2Zm1-6a1,1,0,0,1,1,1v3H17V8A1,1,0,0,1,18,7Z" transform="translate(-1.5 -1)" fill="#fe5c58"/>
      <path id="Path_105366" data-name="Path 105366" d="M9,11h1a3,3,0,0,0,0-6H7V15H9ZM9,7h1a1,1,0,0,1,0,2H9Z" transform="translate(-1 -1)" fill="#fe5c58"/>
      <path id="Path_105367" data-name="Path 105367" d="M25,10.816V15h2V10.816A3,3,0,0,0,29,8V5H27V8a1,1,0,0,1-2,0V5H23V8A3,3,0,0,0,25,10.816Z" transform="translate(-1.786 -1)" fill="#fe5c58"/>
      <path id="Path_105368" data-name="Path 105368" d="M61,32A10.845,10.845,0,0,0,50.631,21.014,11.1,11.1,0,0,0,55.194,12a10.633,10.633,0,0,0-21.241-1H31.968V3a1.971,1.971,0,0,0-1.935-2H4.871A1.971,1.971,0,0,0,2.935,3V17a1.971,1.971,0,0,0,1.935,2H8.742V32.917c0,.084-.145.1-.16.014L8.3,31.171A4.864,4.864,0,0,0,3.534,27,2.594,2.594,0,0,0,1,29.677a2.733,2.733,0,0,0,.185.994l.574,1.483a28.677,28.677,0,0,1,1.661,6.418A9.126,9.126,0,0,0,6.806,44.5V63H24.226V53H28.1V51H24.226V44.282A13.171,13.171,0,0,0,26.161,37.4V33h5.806V31H26.161V28a2.956,2.956,0,0,0-2.9-3,2.807,2.807,0,0,0-1.08.22A2.916,2.916,0,0,0,19.387,23a2.834,2.834,0,0,0-1.935.78A2.829,2.829,0,0,0,15.516,23a2.789,2.789,0,0,0-.968.184V19H30.032a1.971,1.971,0,0,0,1.935-2V13h1.985a10.8,10.8,0,0,0,10.32,9.986A11.074,11.074,0,0,0,39.759,31H33.9v2h5.856a11.066,11.066,0,0,0,4.755,8.186,10.283,10.283,0,0,0-1.9-.186,10.8,10.8,0,0,0-10.6,10H30.032v2h1.985a10.633,10.633,0,0,0,21.241-1,11.092,11.092,0,0,0-4.8-9.186,10.284,10.284,0,0,0,1.9.186A10.84,10.84,0,0,0,61,32ZM22.29,61H8.742V45H22.29ZM15.516,25a.986.986,0,0,1,.968,1v7h1.935V26a.968.968,0,1,1,1.935,0v7H22.29V28a.968.968,0,1,1,1.935,0v9.4A11.135,11.135,0,0,1,22.718,43H8.094a7.111,7.111,0,0,1-2.758-4.711,30.744,30.744,0,0,0-1.779-6.878l-.574-1.484a.772.772,0,0,1-.047-.309.609.609,0,0,1,.6-.618A2.917,2.917,0,0,1,6.39,31.5l.284,1.759A2.03,2.03,0,0,0,8.662,35a2.052,2.052,0,0,0,2.016-2.083V18a.968.968,0,1,1,1.935,0V33h1.935V26a.986.986,0,0,1,.968-1Zm14.516-8H14.37a2.857,2.857,0,0,0-5.45,0H4.871V3H30.032Zm21.29,35a8.714,8.714,0,1,1-8.71-9A8.869,8.869,0,0,1,51.323,52ZM35.839,12a8.714,8.714,0,1,1,17.419,0,8.714,8.714,0,1,1-17.419,0Zm5.806,20a8.714,8.714,0,1,1,8.71,9A8.869,8.869,0,0,1,41.645,32Z" transform="translate(-1 -1)" fill="#fe5c58"/>
      <path id="Path_105369" data-name="Path 105369" d="M53,39V37h2V34a3,3,0,0,0-3-3,1,1,0,0,1-1-1V29h1a1,1,0,0,1,1,1v1h2V30a3,3,0,0,0-2-2.816V25H51v2H49v3a3,3,0,0,0,3,3,1,1,0,0,1,1,1v1H52a1,1,0,0,1-1-1V33H49v1a3,3,0,0,0,2,2.816V39Z" transform="translate(-3 -1)" fill="#fe5c58"/>
      <path id="Path_105370" data-name="Path 105370" d="M47,19V17h2V14a3,3,0,0,0-3-3,1,1,0,0,1-1-1V9h1a1,1,0,0,1,1,1v1h2V10a3,3,0,0,0-2-2.816V5H45V7H43v3a3,3,0,0,0,3,3,1,1,0,0,1,1,1v1H46a1,1,0,0,1-1-1V13H43v1a3,3,0,0,0,2,2.816V19Z" transform="translate(-2.5 -1)" fill="#fe5c58"/>
      <path id="Path_105371" data-name="Path 105371" d="M43,45v2H41v3a3,3,0,0,0,3,3,1,1,0,0,1,1,1v1H44a1,1,0,0,1-1-1V53H41v1a3,3,0,0,0,2,2.816V59h2V57h2V54a3,3,0,0,0-3-3,1,1,0,0,1-1-1V49h1a1,1,0,0,1,1,1v1h2V50a3,3,0,0,0-2-2.816V45Z" transform="translate(-2.429 -1)" fill="#fe5c58"/>
    </g>
  </g>
</svg>
