<svg xmlns="http://www.w3.org/2000/svg" width="60.001" height="59.927" viewBox="0 0 60.001 59.927">
  <g id="Group_37709" data-name="Group 37709" transform="translate(0 -0.313)">
    <g id="Group_37708" data-name="Group 37708" transform="translate(0 0.313)">
      <g id="Group_37707" data-name="Group 37707" transform="translate(0 0)">
        <path id="Path_105360" data-name="Path 105360" d="M406.526,37.252h-7.669a.879.879,0,1,0,0,1.758h7.669a.879.879,0,0,0,0-1.758Z" transform="translate(-351.339 -32.923)" fill="#fe5c58"/>
        <path id="Path_105361" data-name="Path 105361" d="M361.695,39.01h.935a.879.879,0,1,0,0-1.758h-.935a.879.879,0,0,0,0,1.758Z" transform="translate(-318.532 -32.923)" fill="#fe5c58"/>
        <path id="Path_105362" data-name="Path 105362" d="M361.695,74.242h12.024a.879.879,0,0,0,0-1.758H361.695a.879.879,0,0,0,0,1.758Z" transform="translate(-318.532 -64.026)" fill="#fe5c58"/>
        <path id="Path_105363" data-name="Path 105363" d="M46.342,77.152a16.053,16.053,0,0,0-3.307-9.738l.163-3a3.575,3.575,0,0,0-3.572-3.771H30a1.677,1.677,0,0,1-.711-1.369V56.819A9.958,9.958,0,0,0,32.6,53.445h1.7a3.573,3.573,0,0,0,3.569-3.569V43.312a2.831,2.831,0,0,0-1.6-2.549V36.157a3.808,3.808,0,0,0-3.8-3.8h-.1a.109.109,0,0,1-.109-.109,3.808,3.808,0,0,0-3.8-3.8H19.151a8.389,8.389,0,0,0-8.38,8.38v3.943a2.831,2.831,0,0,0-1.6,2.549V46.65a2.836,2.836,0,0,0,2.833,2.833H13.14a9.871,9.871,0,0,0,3.284,6.33,12.053,12.053,0,0,0,1.327,1v2.464a1.679,1.679,0,0,1-.714,1.369H7.419a3.574,3.574,0,0,0-3.572,3.771l.163,3A16.053,16.053,0,0,0,.7,77.152v3.31a2.767,2.767,0,0,0,2.066,4.61H44.276a2.767,2.767,0,0,0,2.066-4.61Zm-1.758,0v2.4a2.78,2.78,0,0,0-.308-.017h-1.9l.5-9.14a14.282,14.282,0,0,1,1.711,6.757Zm-8.56-34.269a1.069,1.069,0,0,1,.09.429v3.338a1.076,1.076,0,0,1-1.075,1.075H33.994V44.412l.542-.189A2.59,2.59,0,0,0,36.024,42.883ZM30.156,53.067H27.95a.645.645,0,1,1,0-1.29h2.206a.645.645,0,1,1,0,1.29Zm4.148-1.38h-.888a10.345,10.345,0,0,0,.508-2.2h1.116a2.817,2.817,0,0,0,1.075-.212v.606A1.813,1.813,0,0,1,34.3,51.687ZM12.529,36.821A6.629,6.629,0,0,1,19.151,30.2h9.308A2.048,2.048,0,0,1,30.5,32.245a1.869,1.869,0,0,0,1.867,1.867h.1a2.048,2.048,0,0,1,2.046,2.046v5.621a.833.833,0,0,1-.558.786l-1.847.643a.113.113,0,0,1-.151-.108l0-3.493c.011-2.549-2.376-4.772-5.72-3.7a9.343,9.343,0,0,1-5.44,0c-3.309-1.064-5.731,1.12-5.72,3.7l0,3.5a.113.113,0,0,1-.151.108l-1.848-.643a.833.833,0,0,1-.558-.786V36.821Zm-1.6,9.83V43.312a1.07,1.07,0,0,1,.09-.429,2.59,2.59,0,0,0,1.488,1.34l.542.189v3.313H12.006a1.076,1.076,0,0,1-1.075-1.075Zm3.894,1.817c-.029-1.155-.011-2.382-.016-3.5.054,0,.108.007.163.007A1.872,1.872,0,0,0,16.844,43.1l0-3.5c-.006-1.427,1.274-2.708,3.425-2.017a11.065,11.065,0,0,0,6.515,0c2.049-.658,3.431.5,3.425,2.02l0,3.5a1.871,1.871,0,0,0,2.035,1.866v3.576a8.67,8.67,0,0,1-.363,2.206,2.394,2.394,0,0,0-1.718-.726H27.95a2.4,2.4,0,1,0,0,4.805h1.117a8.994,8.994,0,0,1-5.5,1.962,8.618,8.618,0,0,1-8.743-8.318Zm4.684,10.805V57.735a10.713,10.713,0,0,0,4.057.809h.02a10.725,10.725,0,0,0,3.95-.8v1.531a3.429,3.429,0,0,0,.285,1.369h-8.6a3.421,3.421,0,0,0,.286-1.369ZM4.172,70.4l.139,2.557a.879.879,0,1,0,1.755-.1L5.6,64.318A1.818,1.818,0,0,1,7.419,62.4H39.626a1.818,1.818,0,0,1,1.816,1.918l-.826,15.217H26.834a5.4,5.4,0,0,1,1.317-2.722l.025-.028A6.245,6.245,0,0,0,26.6,67.2a1.34,1.34,0,0,0-2,1.163v3.988a.332.332,0,0,1-.332.331H22.779a.332.332,0,0,1-.332-.331V68.363a1.34,1.34,0,0,0-2-1.163,6.244,6.244,0,0,0-1.572,9.588l.023.025a5.4,5.4,0,0,1,1.317,2.722H6.429l-.141-2.6a.879.879,0,0,0-1.755.1l.136,2.5h-1.9a2.81,2.81,0,0,0-.308.017v-2.4A14.284,14.284,0,0,1,4.172,70.4Zm17.815,9.14a7.146,7.146,0,0,0-1.786-3.9l-.021-.024a4.483,4.483,0,0,1,.509-6.457v3.2a2.092,2.092,0,0,0,2.089,2.089h1.488a2.092,2.092,0,0,0,2.089-2.089v-3.2a4.483,4.483,0,0,1,.507,6.46l-.019.021a7.146,7.146,0,0,0-1.786,3.9Zm22.289,3.78H2.769a1.011,1.011,0,1,1,0-2.022H44.276a1.011,1.011,0,1,1,0,2.022Z" transform="translate(0 -25.145)" fill="#fe5c58"/>
        <path id="Path_105364" data-name="Path 105364" d="M348.009,6.328a.879.879,0,0,0,.879-.879v-1.7A3.439,3.439,0,0,0,345.452.313H330.67a3.439,3.439,0,0,0-3.435,3.435v7.393a3.439,3.439,0,0,0,3.435,3.435.615.615,0,0,1,.614.614v4.572a1.451,1.451,0,0,0,2.7.746l3.379-5.634a.617.617,0,0,1,.527-.3h7.568a3.439,3.439,0,0,0,3.435-3.435V9.558a.879.879,0,0,0-1.758,0v1.583a1.679,1.679,0,0,1-1.677,1.677h-7.568a2.384,2.384,0,0,0-2.034,1.152l-2.809,4.684V15.19a2.374,2.374,0,0,0-2.372-2.372,1.679,1.679,0,0,1-1.677-1.677V3.748a1.679,1.679,0,0,1,1.677-1.677h14.783a1.679,1.679,0,0,1,1.677,1.677v1.7a.879.879,0,0,0,.879.879Z" transform="translate(-288.887 -0.313)" fill="#fe5c58"/>
      </g>
    </g>
  </g>
</svg>
