<svg width="32" height="32" viewBox="0 0 32 32" fill="none" xmlns="http://www.w3.org/2000/svg">
<path d="M16.4684 16.7704C16.4681 16.7704 16.4679 16.7704 16.4676 16.7704C14.6762 16.7699 13.2183 15.2203 13.2178 13.3162C13.2173 11.5211 14.6106 9.86328 16.4663 9.86328C18.2578 9.86376 19.7157 11.4133 19.7162 13.3174C19.7166 15.1118 18.324 16.7704 16.4684 16.7704V16.7704ZM16.4655 10.9573C15.2088 10.9573 14.3114 12.1206 14.3118 13.3159C14.3121 14.6171 15.2794 15.676 16.4679 15.6763C17.7249 15.6763 18.6225 14.5135 18.6221 13.3177C18.6218 12.0165 17.6546 10.9576 16.466 10.9573C16.4658 10.9573 16.4657 10.9573 16.4655 10.9573V10.9573Z" fill="black"/>
<path d="M10.497 14.8407C9.62975 14.8407 8.92432 14.1349 8.92432 13.2672C8.92432 12.3996 9.62982 11.6938 10.497 11.6938C11.3641 11.6938 12.0696 12.3996 12.0696 13.2672C12.0696 14.1349 11.3641 14.8407 10.497 14.8407ZM10.497 12.7879C10.233 12.7879 10.0183 13.003 10.0183 13.2673C10.0183 13.5317 10.2331 13.7468 10.497 13.7468C10.7608 13.7468 10.9756 13.5317 10.9756 13.2673C10.9756 13.003 10.7609 12.7879 10.497 12.7879Z" fill="black"/>
<path d="M22.5386 14.827C21.6714 14.827 20.9659 14.1213 20.9659 13.2536C20.9659 12.386 21.6714 11.6802 22.5386 11.6802C23.4058 11.6802 24.1112 12.386 24.1112 13.2536C24.1112 14.1213 23.4058 14.827 22.5386 14.827ZM22.5386 12.7742C22.2747 12.7742 22.06 12.9893 22.06 13.2536C22.06 13.518 22.2747 13.733 22.5386 13.733C22.8025 13.733 23.0172 13.518 23.0172 13.2536C23.0172 12.9893 22.8025 12.7742 22.5386 12.7742Z" fill="black"/>
<path d="M9.778 20.0215L9.13184 20.0213C8.68268 17.7344 6.94292 15.8944 4.65355 15.4068L4.65273 13.0579C4.65266 12.7558 4.40774 12.5127 4.10572 12.5127C4.10566 12.5127 4.10559 12.5127 4.10552 12.5127C3.80343 12.5127 3.55858 12.7562 3.55872 13.0583L3.56138 20.5674C3.56145 20.8693 3.80624 21.1199 4.10819 21.1201L9.77759 21.1281H9.77779C10.0798 21.1281 10.3247 20.877 10.3248 20.575C10.3249 20.2729 10.0801 20.0216 9.778 20.0215ZM4.65396 16.5284C6.35543 16.9619 7.60309 18.3278 8.01143 20.0209L4.65519 20.0196L4.65396 16.5284Z" fill="black"/>
<path d="M29.5345 5.93634C29.5345 5.63439 29.2897 5.39802 28.9877 5.39795L13.399 5.4015C13.3989 5.4015 13.3989 5.4015 13.3988 5.4015C13.0968 5.4015 12.8519 5.63788 12.8518 5.9399C12.8517 6.24205 13.0965 6.4828 13.3987 6.48287L23.9291 6.48403C24.4172 8.76328 26.2303 10.4782 28.4422 11.1022L28.444 16.6109C28.4441 16.913 28.689 17.1621 28.991 17.1621H28.9912C29.2932 17.1621 29.5381 16.9125 29.538 16.6103L29.5345 5.93634ZM25.0543 6.48233L28.4407 6.48342L28.4419 9.9585C26.8249 9.40588 25.4939 8.16144 25.0543 6.48233V6.48233Z" fill="black"/>
<path d="M32 20.2392C32 19.1819 31.1429 18.3247 30.0855 18.3247H13.3334C12.276 18.3247 11.4188 19.1819 11.4188 20.2392V30.0854C11.4188 31.1428 12.276 31.9999 13.3334 31.9999H30.0855C31.1429 31.9999 32 31.1428 32 30.0854V20.2392ZM13.3334 19.4187H30.0855C30.5379 19.4187 30.906 19.7776 30.906 20.23V21.6751H12.5128V20.23C12.5128 19.7776 12.8809 19.4187 13.3334 19.4187ZM30.0855 30.9059H13.3334C12.8809 30.9059 12.5128 30.5378 12.5128 30.0854V22.7692H30.906V30.0854C30.906 30.5378 30.5379 30.9059 30.0855 30.9059Z" fill="black"/>
<path d="M28.3733 25.8416H20.3078C20.0057 25.8416 19.7607 25.5967 19.7607 25.2946C19.7607 24.9925 20.0057 24.7476 20.3078 24.7476H28.3733C28.6753 24.7476 28.9203 24.9925 28.9203 25.2946C28.9203 25.5967 28.6754 25.8416 28.3733 25.8416V25.8416Z" fill="black"/>
<path d="M28.3733 28.8523H20.3078C20.0057 28.8523 19.7607 28.6074 19.7607 28.3053C19.7607 28.0032 20.0057 27.7583 20.3078 27.7583H28.3733C28.6753 27.7583 28.9203 28.0032 28.9203 28.3053C28.9203 28.6074 28.6754 28.8523 28.3733 28.8523V28.8523Z" fill="black"/>
<path d="M5.81197 11.6316C2.60725 11.6316 0 9.02263 0 5.8158C0 2.60896 2.60725 0 5.81197 0C9.01668 0 11.6239 2.60896 11.6239 5.81586C11.6239 9.02263 9.01668 11.6316 5.81197 11.6316V11.6316ZM5.81197 1.09402C3.21046 1.09402 1.09402 3.21224 1.09402 5.81586C1.09402 8.41942 3.21046 10.5376 5.81197 10.5376C8.41347 10.5376 10.5299 8.41942 10.5299 5.81586C10.5299 3.21224 8.41347 1.09402 5.81197 1.09402Z" fill="black"/>
<path d="M6.1728 5.2103C5.43967 4.90616 5.22764 4.72804 5.22764 4.41625C5.22764 4.15833 5.41307 3.88271 5.93362 3.88271C6.37765 3.91369 6.78046 4.0449 7.14196 4.27642L7.51345 3.2929C7.15803 3.06808 6.76432 2.93016 6.33225 2.87902V2.01953H5.36118V2.94028C4.55044 3.14076 4.04781 3.7448 4.04781 4.52086C4.04781 5.48066 4.80247 5.90965 5.61765 6.2302C6.22005 6.47512 6.46572 6.71765 6.46572 7.06739C6.46572 7.44914 6.13656 7.70555 5.64665 7.70555C5.13102 7.67252 4.6768 7.50842 4.28405 7.2131L3.92712 8.21228C4.31844 8.51252 4.77615 8.68169 5.30032 8.71991V9.61235H6.28008V8.665C7.11564 8.45584 7.6543 7.80675 7.6543 7.00634C7.6543 6.17215 7.21116 5.63498 6.1728 5.2103V5.2103Z" fill="black"/>
<path d="M4.27882 25.9807C3.97673 25.9807 3.73181 25.7358 3.73181 25.4337V24.61C3.73181 24.3079 3.97673 24.063 4.27882 24.063C4.58091 24.063 4.82583 24.3079 4.82583 24.61V25.4337C4.82583 25.7358 4.58091 25.9807 4.27882 25.9807Z" fill="black"/>
<path d="M4.27882 29.536C3.97673 29.536 3.73181 29.2911 3.73181 28.989V28.1652C3.73181 27.8631 3.97673 27.6182 4.27882 27.6182C4.58091 27.6182 4.82583 27.8631 4.82583 28.1652V28.989C4.82583 29.2911 4.58091 29.536 4.27882 29.536Z" fill="black"/>
<path d="M6.4745 27.3465H5.64845C5.34636 27.3465 5.10144 27.1015 5.10144 26.7994C5.10144 26.4974 5.34636 26.2524 5.64845 26.2524H6.4745C6.77659 26.2524 7.02151 26.4974 7.02151 26.7994C7.02151 27.1015 6.77659 27.3465 6.4745 27.3465Z" fill="black"/>
<path d="M2.90912 27.3465H2.08314C1.78106 27.3465 1.53613 27.1015 1.53613 26.7994C1.53613 26.4974 1.78106 26.2524 2.08314 26.2524H2.90919C3.21128 26.2524 3.4562 26.4974 3.4562 26.7994C3.4562 27.1015 3.21128 27.3465 2.90912 27.3465Z" fill="black"/>
</svg>
