<svg id="Group_3767644" data-name="Group 3767644" xmlns="http://www.w3.org/2000/svg" xmlns:xlink="http://www.w3.org/1999/xlink" width="28" height="26.049" viewBox="0 0 28 26.049">
  <defs>
    <clipPath id="clip-path">
      <rect id="Rectangle_12557" data-name="Rectangle 12557" width="28" height="26.049" fill="none"/>
    </clipPath>
  </defs>
  <g id="Group_37676" data-name="Group 37676" clip-path="url(#clip-path)">
    <path id="Path_105404" data-name="Path 105404" d="M23.425,9.76a9.963,9.963,0,0,1,.2,6.445c2.7.59,4.274,2.176,4.358,4.971A4.808,4.808,0,0,1,24.8,25.736a4.95,4.95,0,0,1-5.687-1.7c-.463.166-.926.348-1.4.5a11.317,11.317,0,0,1-3.32.524c-.418.005-.635-.166-.633-.493s.209-.482.61-.489a10.636,10.636,0,0,0,4.056-.845c.054-.023.1-.055.161-.085l-.3-.909a9.919,9.919,0,0,1-8.523-.214c-.036.12-.07.221-.1.324a4.907,4.907,0,0,1-9.633-.67,4.765,4.765,0,0,1,1.054-3.613.481.481,0,0,0,.092-.522,12.98,12.98,0,0,1-.68-4.22.488.488,0,0,1,.461-.543.5.5,0,0,1,.515.5c.011.112.007.225.009.338a12.333,12.333,0,0,0,.5,3.233c.023.078.053.154.091.265a5.131,5.131,0,0,1,2.792-.9,9.982,9.982,0,0,1,.178-6.408c-.428-.155-.851-.274-1.246-.456A4.9,4.9,0,0,1,5.244.062,4.757,4.757,0,0,1,9.836,2.014a.364.364,0,0,0,.5.139,11.329,11.329,0,0,1,3.755-.67c.4-.005.644.184.639.5s-.233.481-.621.486a10.721,10.721,0,0,0-3.621.673l.256.943a9.938,9.938,0,0,1,7,0c.037-.153.068-.289.1-.424a4.906,4.906,0,0,1,9.632.814,4.788,4.788,0,0,1-.6,2.834.477.477,0,0,0-.021.481A13.586,13.586,0,0,1,28,13.52a2.394,2.394,0,0,1-.01.245.488.488,0,1,1-.975-.037c-.034-.694-.037-1.392-.109-2.082a11.475,11.475,0,0,0-.851-3.232A5.07,5.07,0,0,1,23.425,9.76M5.883.99A3.93,3.93,0,1,0,9.825,4.933,3.924,3.924,0,0,0,5.883.99M23.1,17.2a3.93,3.93,0,1,0,3.923,3.933A3.921,3.921,0,0,0,23.1,17.2M.988,21.133A3.928,3.928,0,1,0,4.934,17.2,3.923,3.923,0,0,0,.988,21.133M18.672,4.926A3.928,3.928,0,1,0,22.612.99a3.923,3.923,0,0,0-3.94,3.936M5.419,12.757h5.357l.26-3.393a.413.413,0,0,0-.1-.019q-1.394,0-2.789,0a.867.867,0,0,0-.207.041c-.56.145-1.122.287-1.68.441a.358.358,0,0,0-.222.155,8.433,8.433,0,0,0-.624,2.776m12.291.01h5.35a8.065,8.065,0,0,0-.636-2.831c-.024-.058-.14-.094-.22-.112a6.15,6.15,0,0,1-1.1-.241,3.875,3.875,0,0,0-1.644-.242c-.672.009-1.345,0-2.007,0l.258,3.424m-5.684-3.41-.264,3.406h4.966l-.271-3.406Zm-1.043,7.356-.2-2.93H5.419a8.3,8.3,0,0,0,.494,2.436.31.31,0,0,0,.172.141,4.52,4.52,0,0,0,2.052.36c.507-.042,1.021-.008,1.532-.008ZM23.059,13.8H17.7l-.193,2.916c1.13,0,2.242,0,3.355,0a.8.8,0,0,0,.2-.053c.44-.127.881-.248,1.318-.385a.389.389,0,0,0,.234-.185,7.627,7.627,0,0,0,.442-2.29m-6.341-.013H11.768l.2,2.917h4.543l.2-2.917m-.381,3.926h-4.2a9.835,9.835,0,0,0,1.416,3.959,1.409,1.409,0,0,0,.21.223.59.59,0,0,0,.942-.007,3.773,3.773,0,0,0,.608-.837,11.467,11.467,0,0,0,1.02-3.338m-.05-9.358c-.21-.706-.365-1.385-.616-2.026a6.7,6.7,0,0,0-.807-1.5c-.4-.551-.832-.536-1.255,0A8.428,8.428,0,0,0,12.238,8.35ZM12.509,21.94a7.735,7.735,0,0,1-.471-1.006c-.3-.995-.564-2-.85-3-.025-.088-.11-.226-.169-.227-.843-.015-1.687-.01-2.593-.01a5.04,5.04,0,0,1,1.387,3.1A.313.313,0,0,0,9.956,21a8.487,8.487,0,0,0,2.552.939m7.048-4.226H17.341A13.738,13.738,0,0,1,16,21.94c.545-.138,1.069-.317,1.6-.482.4-.125.7-.312.6-.809a.668.668,0,0,1,.025-.212,4.98,4.98,0,0,1,1.332-2.723m-.476-9.354a5,5,0,0,1-1.387-3.11.19.19,0,0,0-.082-.143c-.529-.183-1.061-.357-1.593-.532a14.23,14.23,0,0,1,1.2,3.591.294.294,0,0,0,.2.186c.528.016,1.057.009,1.658.009m-6.573-3.71-.05-.072c-.474.152-.945.312-1.422.453a.337.337,0,0,0-.263.352,4.793,4.793,0,0,1-1.2,2.793,1.911,1.911,0,0,0-.117.17h1.782a11.947,11.947,0,0,1,1.274-3.7" transform="translate(0 0)"/>
    <path id="Path_105405" data-name="Path 105405" d="M56.75,22.668a1.283,1.283,0,0,1-.763,1.167.33.33,0,0,0-.223.375,1.334,1.334,0,0,1-.031.425.443.443,0,0,1-.5.354c-.251-.024-.45-.179-.428-.434a.8.8,0,0,0-.489-.883,1.033,1.033,0,0,1-.5-.9.491.491,0,0,1,.422-.576.5.5,0,0,1,.544.429.5.5,0,0,0,.725.358.341.341,0,0,0,.078-.638c-.362-.249-.738-.477-1.105-.718a1.33,1.33,0,0,1,.118-2.382.5.5,0,0,0,.188-.29,1.8,1.8,0,0,0,.012-.366.452.452,0,0,1,.442-.463c.27-.024.523.133.5.382-.051.522.246.745.6,1.029a1.638,1.638,0,0,1,.4.824.462.462,0,0,1-.4.555.486.486,0,0,1-.553-.408c-.075-.3-.254-.466-.536-.411a.685.685,0,0,0-.426.276c-.105.183.04.338.213.446.372.233.741.472,1.109.712a1.326,1.326,0,0,1,.615,1.138" transform="translate(-49.378 -16.638)"/>
    <path id="Path_105406" data-name="Path 105406" d="M248.478,223.417c.228,0,.408-.007.588,0a.489.489,0,1,1,0,.977c-.264.01-.529,0-.817,0v.615c.256,0,.509,0,.762,0a.494.494,0,1,1,.013.98c-.163,0-.327,0-.549,0a1.426,1.426,0,0,0,.975.653,1.768,1.768,0,0,0,.213.022.494.494,0,1,1-.064.978,2.426,2.426,0,0,1-2.093-1.341c-.053-.1-.1-.2-.142-.3-.791-.057-.963-.143-.977-.484s.147-.443.837-.545a1.348,1.348,0,0,0,.017-.142c0-.132,0-.263,0-.42-.385-.039-.886.032-.843-.544.047-.621.592-.41.967-.475a2.486,2.486,0,0,1,1.966-1.615,1.728,1.728,0,0,1,.182-.022c.4-.026.652.151.669.462.016.295-.2.48-.591.52a1.425,1.425,0,0,0-1.12.672" transform="translate(-226.182 -203.572)"/>
    <path id="Path_105407" data-name="Path 105407" d="M36.919,225.191c-.386-.055-.9.124-.952-.5-.028-.349.14-.431.975-.52,0-.318-.006-.643,0-.967a1.47,1.47,0,0,1,2.933-.129.522.522,0,0,1-.41.622c-.28.046-.5-.136-.56-.472s-.268-.529-.547-.5-.43.232-.435.569c0,.286,0,.571,0,.886.4.05.991-.113.957.546-.029.56-.542.431-.921.459-.075.184-.05.311.156.375a.873.873,0,0,1,.187.1c.551.339.55.339,1-.109a2.679,2.679,0,0,1,.289-.274.448.448,0,0,1,.616.031.415.415,0,0,1,.081.605,4.33,4.33,0,0,1-.927.833,1.244,1.244,0,0,1-1.388-.124c-.474-.315-.5-.308-.9.094a4.2,4.2,0,0,1-.309.3.471.471,0,0,1-.664-.025.478.478,0,0,1-.01-.666,4.1,4.1,0,0,1,.64-.615.427.427,0,0,0,.192-.519" transform="translate(-33.008 -203.551)"/>
    <path id="Path_105408" data-name="Path 105408" d="M248.533,32.991v.492c.288,0,.57,0,.853,0,.379,0,.612.2.607.5s-.236.481-.62.485c-.255,0-.511,0-.766.007-.018,0-.036.016-.067.032-.049.37.1.92-.506.926s-.456-.548-.508-.964c-.279,0-.551,0-.823,0-.419,0-.633-.172-.629-.5s.216-.483.643-.484h.808v-.491c-.27,0-.541,0-.813,0q-.637,0-.639-.489c0-.313.2-.474.6-.494.03,0,.059-.009.178-.027-.388-.375-.735-.713-1.085-1.049a.494.494,0,0,1-.126-.636.48.48,0,0,1,.8-.069c.448.433.887.877,1.325,1.321a2.612,2.612,0,0,1,.219.3l1.482-1.484c.359-.359.622-.412.863-.176s.195.509-.163.866c-.3.3-.6.6-.953.942.148.007.216.008.283.015a.49.49,0,1,1-.031.979c-.3.009-.609,0-.938,0" transform="translate(-225.433 -27.58)"/>
  </g>
</svg>
