<svg xmlns="http://www.w3.org/2000/svg" width="32" height="32" viewBox="0 0 32 32">
  <g id="Group_37825" data-name="Group 37825" transform="translate(0)">
    <path id="Path_105626" data-name="Path 105626" d="M32,16.516V12.375A2.565,2.565,0,0,0,30.161,9.9l-3.322-1V8.122a3.609,3.609,0,0,0,1.548-2.96V3.613a3.613,3.613,0,0,0-7.226,0V5.161a3.608,3.608,0,0,0,1.548,2.96v.784l-2.928.879a5.965,5.965,0,0,0-7.866-.09L9.29,8.906V8.122a3.609,3.609,0,0,0,1.548-2.96V3.613a3.613,3.613,0,1,0-7.226,0V5.161a3.608,3.608,0,0,0,1.548,2.96v.784l-3.322,1A2.566,2.566,0,0,0,0,12.375v4.141H1.032V12.375a1.538,1.538,0,0,1,1.1-1.483l3.323-1a2.245,2.245,0,0,0,1.767.944,2.245,2.245,0,0,0,1.767-.944l2.117.635a5.957,5.957,0,0,0-1.255,3A3.608,3.608,0,0,0,3.613,16v1.548a3.608,3.608,0,0,0,1.548,2.96v.784l-3.322,1A2.566,2.566,0,0,0,0,24.762v4.658H6.194a.517.517,0,0,1,.516.516V32H25.29V29.936a.517.517,0,0,1,.516-.516H32V24.762a2.565,2.565,0,0,0-1.839-2.472l-3.322-1v-.784a3.609,3.609,0,0,0,1.548-2.96V16a3.61,3.61,0,0,0-6.194-2.524v-.489a2.775,2.775,0,0,0-1.418-2.422l2.232-.67a2.125,2.125,0,0,0,3.533,0l3.324,1a1.538,1.538,0,0,1,1.1,1.483v4.141ZM7.226,1.032A2.584,2.584,0,0,1,9.806,3.613H7.439a1.255,1.255,0,0,1-.881-.365l-.365-.365-.365.365a1.255,1.255,0,0,1-.881.365h-.3A2.584,2.584,0,0,1,7.226,1.032ZM4.645,5.161V4.645h.3a2.26,2.26,0,0,0,1.246-.37,2.26,2.26,0,0,0,1.246.37H9.806v.516a2.581,2.581,0,1,1-5.161,0ZM7.226,9.807a1.321,1.321,0,0,1-1.032-.658V8.623a3.582,3.582,0,0,0,2.065,0v.526a1.319,1.319,0,0,1-1.032.659Zm14.187,9.059a3.629,3.629,0,0,0,1.3,1.644v.784l-3.322,1a2.535,2.535,0,0,0-.32.122l-.488-.112V21.283a4.151,4.151,0,0,0,1.253-1.693,2.57,2.57,0,0,0,1.579-.724ZM16,22.194a4.1,4.1,0,0,0,1.548-.3v.562L16,23.613l-1.548-1.161V21.89a4.1,4.1,0,0,0,1.548.3Zm-2.182,1.073,1.258.944-1.294.777-.327-1.637Zm1.612,4.088H16.57l.4,3.613H15.028Zm1.23-1.032H15.339l-.3-.889L16,24.86l.956.574Zm.264-2.112,1.258-.944.363.084-.327,1.637Zm3.835-6.137a1.548,1.548,0,0,1-.652.417,4.186,4.186,0,0,0,.022-.426v-2.47a1.558,1.558,0,0,1,1.024,1.283,1.54,1.54,0,0,1-.395,1.2ZM19.1,18.065a3.1,3.1,0,1,1-6.194,0V15.484h1.752a6.638,6.638,0,0,0,3.2-.817l.408.817H19.1Zm-7.2.426a1.526,1.526,0,0,1-.022-2.9v2.469a4.185,4.185,0,0,0,.022.426Zm.273,1.1a4.142,4.142,0,0,0,1.253,1.693V22.3l-.488.112a2.671,2.671,0,0,0-.319-.122l-3.322-1v-.784a3.632,3.632,0,0,0,1.3-1.644,2.57,2.57,0,0,0,1.579.724Zm-4.94-6.17A2.584,2.584,0,0,1,9.806,16H9.5a1.255,1.255,0,0,1-.881-.365l-.365-.365-.365.365A1.255,1.255,0,0,1,7.012,16H4.645a2.584,2.584,0,0,1,2.581-2.581ZM4.645,17.548v-.516H7.012a2.26,2.26,0,0,0,1.246-.37,2.26,2.26,0,0,0,1.246.37h.3v.516a2.581,2.581,0,1,1-5.161,0Zm2.581,3.613a3.591,3.591,0,0,0,1.032-.152v.526a1.319,1.319,0,0,1-1.032.659,1.321,1.321,0,0,1-1.032-.658V21.01A3.608,3.608,0,0,0,7.226,21.161ZM6.194,28.387H4.129V24.774H3.1v3.613H1.032V24.762a1.538,1.538,0,0,1,1.1-1.483l3.323-1a2.245,2.245,0,0,0,1.767.944,2.245,2.245,0,0,0,1.767-.944l1.957.587L9.51,23.2a3.6,3.6,0,0,0-2.8,3.52v.633H7.742v-.633a2.57,2.57,0,0,1,2-2.515l2.706-.624.608,3.043,1.08-.648.305.917-.452,4.073H11.355V26.839H10.323v4.129H7.742V29.936a1.55,1.55,0,0,0-1.548-1.548Zm23.671-5.108a1.538,1.538,0,0,1,1.1,1.483v3.625H28.9V24.774H27.871v3.613H25.806a1.55,1.55,0,0,0-1.548,1.548v1.032H21.677V26.839H20.645v4.129H18.01l-.453-4.073.305-.917,1.08.648.608-3.043,2.706.624a2.57,2.57,0,0,1,2,2.515v.633H25.29v-.633a3.6,3.6,0,0,0-2.8-3.52l-1.44-.332,1.957-.587a2.125,2.125,0,0,0,3.533,0Zm-4.058-1.743a1.139,1.139,0,0,1-2.065,0v-.526a3.576,3.576,0,0,0,2.065,0Zm-1.032-1.407a2.584,2.584,0,0,1-2.581-2.581v-.516h.3a2.26,2.26,0,0,0,1.246-.37,2.26,2.26,0,0,0,1.246.37h2.367v.516A2.584,2.584,0,0,1,24.774,20.129Zm0-6.71A2.584,2.584,0,0,1,27.355,16H24.988a1.255,1.255,0,0,1-.881-.365l-.365-.365-.365.365A1.255,1.255,0,0,1,22.5,16h-.3a2.584,2.584,0,0,1,2.581-2.581Zm-3.613,1.592a2.711,2.711,0,0,0-1.637-.56H18.9l-.635-1.27-.486.324a5.611,5.611,0,0,1-3.123.946h-2.18a2.711,2.711,0,0,0-1.637.56v-.763A4.958,4.958,0,0,1,19.3,10.742l.548.548.116.039a1.746,1.746,0,0,1,1.2,1.658ZM24.774,1.032a2.584,2.584,0,0,1,2.581,2.581h-.3a1.255,1.255,0,0,1-.881-.365l-.365-.365-.365.365a1.255,1.255,0,0,1-.881.365H22.194a2.584,2.584,0,0,1,2.581-2.581ZM22.194,5.161V4.645H24.56a2.26,2.26,0,0,0,1.246-.37,2.26,2.26,0,0,0,1.246.37h.3v.516a2.581,2.581,0,1,1-5.161,0Zm2.581,4.645a1.32,1.32,0,0,1-1.032-.658V8.622a3.576,3.576,0,0,0,2.065,0v.526a1.319,1.319,0,0,1-1.032.659Zm0,0" transform="translate(0 0)"/>
  </g>
</svg>
