<svg xmlns="http://www.w3.org/2000/svg" xmlns:xlink="http://www.w3.org/1999/xlink" width="32" height="32" viewBox="0 0 32 32">
  <defs>
    <clipPath id="clip-path">
      <rect id="Rectangle_12586" data-name="Rectangle 12586" width="23.528" height="28"/>
    </clipPath>
  </defs>
  <g id="Group_37723" data-name="Group 37723" transform="translate(10187 1859)">
    <g id="Rectangle_12544" data-name="Rectangle 12544" transform="translate(-10187 -1859)" stroke="#707070" stroke-width="1" opacity="0">
      <rect width="32" height="32" stroke="none"/>
      <rect x="0.5" y="0.5" width="31" height="31" fill="none"/>
    </g>
    <g id="Group_37705" data-name="Group 37705" transform="translate(-10183 -1857)">
      <g id="Group_37705-2" data-name="Group 37705" clip-path="url(#clip-path)">
        <path id="Path_105568" data-name="Path 105568" d="M14.769,0c.826.566,1.655,1.126,2.476,1.7q2.924,2.04,5.842,4.09c.516.361.568.648.21,1.162q-.571.818-1.145,1.634c-.191.271-.407.336-.621.2s-.241-.387-.048-.666c.373-.539.75-1.075,1.146-1.643L14.668.894,8.946,9.064c.11.01.184.022.258.022.711,0,1.422-.005,2.133.005a.331.331,0,0,0,.363-.234,4.6,4.6,0,0,1,2.636-2.584A2.6,2.6,0,0,1,16.1,6.207,2.448,2.448,0,0,1,17.691,8.75c0,.1,0,.2,0,.337h.289c.611,0,1.221-.007,1.832,0a2.028,2.028,0,0,1,2.06,2.066c.009.993.006,1.987,0,2.98a.309.309,0,0,0,.24.349,1.981,1.981,0,0,1,1.363,1.836,17.51,17.51,0,0,1,0,1.913,2.007,2.007,0,0,1-1.394,1.874.274.274,0,0,0-.211.312c.007.975.006,1.95,0,2.925a2.033,2.033,0,0,1-2.148,2.14c-.948,0-1.9,0-2.843,0-.036,0-.073,0-.109,0-.29-.01-.475-.177-.468-.421a.417.417,0,0,1,.463-.4c.729,0,1.46-.031,2.187,0,1.829.087,2.183-.368,2.1-2.119-.03-.673,0-1.349,0-2.023v-.3c-.808,0-1.589.006-2.37,0a7.679,7.679,0,0,1-1.116-.057,2.945,2.945,0,0,1-2.4-2.937,2.9,2.9,0,0,1,2.53-2.846c.987-.084,1.984-.041,2.977-.054.116,0,.233,0,.381,0v-.674q0-1.189,0-2.379a1.232,1.232,0,0,0-1.362-1.376H2.193A1.23,1.23,0,0,0,.824,11.276q0,6.029,0,12.057a1.215,1.215,0,0,0,1.344,1.332c.948,0,1.9,0,2.843,0,.362,0,.6.284.441.559a.564.564,0,0,1-.4.248c-1.048.019-2.1.029-3.144,0a2,2,0,0,1-1.9-1.966c-.013-.8,0-1.6,0-2.406q0-4.921,0-9.843A2.106,2.106,0,0,1,.967,9.384.429.429,0,0,0,1.1,9.07c.009-1.194.006-2.388.006-3.582,0-.073,0-.146,0-.219a.427.427,0,0,1,.416-.45.413.413,0,0,1,.4.457c0,1.185,0,2.37,0,3.554v.235H3.1V1.551H1.925c0,.3,0,.609,0,.916,0,.355,0,.711,0,1.066,0,.284-.155.455-.393.461a.411.411,0,0,1-.423-.464C1.1,2.818,1.1,2.107,1.107,1.4A.647.647,0,0,1,1.849.713q2.351,0,4.7,0h4.839c.6,0,.811.212.812.8,0,.455,0,.91,0,1.437.09-.113.146-.175.193-.243.523-.746,1.039-1.5,1.572-2.235A4.013,4.013,0,0,1,14.441,0ZM5.92,9.087c.6,0,1.181-.008,1.762,0a.422.422,0,0,0,.4-.213q1.536-2.21,3.088-4.408a1.1,1.1,0,0,0,.22-.7c-.015-.735-.005-1.471-.005-2.22H5.92ZM19.711,19.413c.546,0,1.093,0,1.639,0a1.263,1.263,0,0,0,1.31-1.256c.02-.582.02-1.166,0-1.748a1.24,1.24,0,0,0-1.239-1.241c-1.129-.024-2.26-.036-3.388,0a2.109,2.109,0,0,0-2.048,2.164,2.136,2.136,0,0,0,2.169,2.078c.519,0,1.038,0,1.557,0M3.955,9.065h1.11V1.539H3.955Zm8.517,0h4.372a6.377,6.377,0,0,0-.005-.807,1.478,1.478,0,0,0-1.762-1.33,3.251,3.251,0,0,0-2.1,1.357c-.18.232-.322.494-.5.779" transform="translate(0 0.001)"/>
        <path id="Path_105569" data-name="Path 105569" d="M119,335.188a4.957,4.957,0,1,1-4.92-4.958,4.962,4.962,0,0,1,4.92,4.958m-.82-.005a4.136,4.136,0,1,0-4.144,4.132,4.13,4.13,0,0,0,4.144-4.132" transform="translate(-103.112 -312.135)"/>
        <path id="Path_105570" data-name="Path 105570" d="M356.88,95.245a1.31,1.31,0,0,1-.1.249c-.193.286-.387.572-.595.847a.4.4,0,0,1-.576.106.409.409,0,0,1-.085-.58.889.889,0,0,1,.093-.134.6.6,0,0,0,.139-.789c-.089-.154-.029-.389-.055-.585a.454.454,0,0,0-.113-.261c-.133-.121-.3-.208-.44-.32a.412.412,0,0,1-.1-.578.391.391,0,0,1,.555-.094q.467.306.914.642a.37.37,0,0,1,.1.532.475.475,0,0,0,.1.7.942.942,0,0,1,.153.269" transform="translate(-335.523 -87.933)"/>
        <path id="Path_105571" data-name="Path 105571" d="M245.677,40.792c-.376-.006-.584-.325-.428-.586a9.056,9.056,0,0,1,.674-.958.373.373,0,0,1,.5-.058.446.446,0,0,0,.624-.13.391.391,0,0,1,.6-.089q.432.286.85.594a.409.409,0,0,1,.128.573.417.417,0,0,1-.6.092,1.12,1.12,0,0,1-.134-.094c-.244-.205-.476-.361-.809-.127a.79.79,0,0,1-.5.064.35.35,0,0,0-.394.2,1.5,1.5,0,0,1-.238.332,1.466,1.466,0,0,1-.266.183" transform="translate(-231.761 -36.741)"/>
        <path id="Path_105572" data-name="Path 105572" d="M306.336,290.864a1.556,1.556,0,0,1-1.546-1.091,1.52,1.52,0,0,1,2.45-1.581.45.45,0,0,1,.135.643c-.159.2-.392.2-.647,0a.7.7,0,1,0-.02,1.033c.269-.2.488-.194.646.007s.11.435-.137.638a1.49,1.49,0,0,1-.88.348" transform="translate(-288.031 -272.055)"/>
        <path id="Path_105573" data-name="Path 105573" d="M173.579,375.456c-.077.62-.163.762-.448.756s-.359-.148-.42-.748c-.18,0-.366,0-.552,0-.3-.007-.484-.158-.491-.4s.181-.414.5-.418c.382-.006.765,0,1.147,0,.311,0,.47-.133.471-.372s-.16-.369-.468-.372c-.191,0-.382,0-.573,0a1.2,1.2,0,0,1-1.206-1.043,1.181,1.181,0,0,1,.984-1.327l.206-.042c.024-.31-.06-.707.429-.728.273-.012.375.18.416.746.129,0,.262,0,.395,0,.315.008.5.168.492.424s-.176.392-.485.394c-.382,0-.765,0-1.147,0-.309,0-.47.132-.474.37s.16.38.486.383c.182,0,.364,0,.546,0a1.192,1.192,0,0,1,.315,2.351c-.035.01-.07.016-.118.027" transform="translate(-162.128 -350.441)"/>
      </g>
    </g>
  </g>
</svg>
