<svg width="32" height="32" viewBox="0 0 32 32" fill="none" xmlns="http://www.w3.org/2000/svg">
<g clip-path="url(#clip0_26_1085)">
<path d="M31.9977 6.50124C31.9977 6.38469 32.1406 6.84883 30.2001 1.02753C29.9956 0.414158 29.4238 0.00195312 28.7772 0.00195312C20.496 0.00195312 8.11385 0.00195312 3.22151 0.00195312C2.57489 0.00195312 2.00314 0.414095 1.7986 1.02753C-0.234361 7.12649 0.0539202 6.25971 0.0259858 6.34613C-0.008198 6.45087 0.00117598 6.41938 0.00117598 7.50113C0.00117598 8.45234 0.383134 9.31562 1.00107 9.94699V24.9992C1.00107 26.1019 1.89816 26.999 3.00085 26.999H10.4098L10.0765 28.9988H9.37521C8.61711 28.9988 8.00036 29.6155 8.00036 30.3736V31.4985C8.00036 31.7746 8.22421 31.9985 8.50031 31.9985H23.4987C23.7748 31.9985 23.9986 31.7746 23.9986 31.4985V30.3736C23.9986 29.6155 23.3819 28.9988 22.6238 28.9988H21.9225L21.5892 26.999H28.9981C30.1008 26.999 30.9979 26.1019 30.9979 24.9992C30.9979 24.2812 30.9979 10.6093 30.9979 9.94699C31.6158 9.31556 31.9978 8.45228 31.9978 7.50113V6.50124H31.9977ZM29.2515 1.34368L30.8041 6.0013H25.9219L25.0887 1.00184H28.7773C28.9928 1.00184 29.1834 1.1392 29.2515 1.34368ZM29.9979 10.6624V21.9995H2.00096V10.6624C2.31186 10.8105 2.64795 10.9138 3.00085 10.9645V20.4998C3.00085 20.7759 3.2247 20.9997 3.50079 20.9997H28.4981C28.7742 20.9997 28.998 20.7759 28.998 20.4998V10.9645C29.3509 10.9138 29.687 10.8105 29.9979 10.6624V10.6624ZM1.00107 7.00119H6.00052V7.50113C6.00052 8.87948 4.87914 10.0009 3.50079 10.0009C2.12244 10.0009 1.00107 8.87948 1.00107 7.50113V7.00119ZM12.4564 1.00184L12.0397 6.0013H7.09059L7.92381 1.00184H12.4564ZM18.539 1.00184L18.9557 6.0013H13.0432L13.4598 1.00184H18.539ZM24.0749 1.00184L24.9081 6.0013H19.9591L19.5424 1.00184H24.0749ZM15.9994 10.0009C14.3454 10.0009 12.9998 8.65519 12.9998 7.00119H18.9991C18.9991 8.65519 17.6534 10.0009 15.9994 10.0009ZM7.00041 7.00119H11.9999V7.50113C11.9999 8.87948 10.8785 10.0009 9.50014 10.0009C8.12179 10.0009 7.00041 8.87948 7.00041 7.50113V7.00119ZM27.9981 19.9998H4.00074V10.9645C5.06112 10.8121 5.9694 10.183 6.50046 9.30156C7.91225 11.6449 11.3381 11.5433 12.605 9.11289C14.1737 11.6254 17.8214 11.6316 19.3939 9.11289C20.6588 11.5395 24.0841 11.6491 25.4984 9.30156C26.0295 10.183 26.9378 10.8121 27.9982 10.9645V19.9998H27.9981ZM22.4987 10.0009C21.1204 10.0009 19.999 8.87948 19.999 7.50113V7.00119H24.9984V7.50113C24.9984 8.87948 23.877 10.0009 22.4987 10.0009ZM2.74731 1.34368C2.81543 1.1392 3.00603 1.00184 3.22157 1.00184H6.91017L6.07695 6.0013H1.19473L2.74731 1.34368ZM22.9987 30.3736V30.9986H9.00019V30.3736C9.00019 30.1668 9.16836 29.9987 9.37515 29.9987H22.6237C22.8304 29.9987 22.9987 30.1669 22.9987 30.3736ZM20.9086 28.9988H11.0902L11.4235 26.999H20.5753L20.9086 28.9988ZM29.9979 24.9992C29.9979 25.5505 29.5493 25.9991 28.998 25.9991C27.466 25.9991 4.55437 25.9991 3.00085 25.9991C2.44953 25.9991 2.00096 25.5505 2.00096 24.9992V22.9994H29.9979V24.9992ZM30.9978 7.50113C30.9978 8.87948 29.8764 10.0009 28.4981 10.0009C27.1197 10.0009 25.9983 8.87948 25.9983 7.50113V7.00119H30.9978V7.50113Z" fill="black"/>
<path d="M15.4995 12.5005C15.2234 12.5005 14.9995 12.7243 14.9995 13.0004C14.9995 13.2765 15.2234 13.5004 15.4995 13.5004H25.9983C26.2744 13.5004 26.4983 13.2765 26.4983 13.0004C26.4983 12.7243 26.2744 12.5005 25.9983 12.5005H15.4995Z" fill="black"/>
<path d="M25.9983 15.0005H15.4995C15.2234 15.0005 14.9995 15.2243 14.9995 15.5004C14.9995 15.7765 15.2234 16.0004 15.4995 16.0004H25.9983C26.2744 16.0004 26.4983 15.7765 26.4983 15.5004C26.4983 15.2243 26.2744 15.0005 25.9983 15.0005V15.0005Z" fill="black"/>
<path d="M22.4987 17.5H15.4995C15.2234 17.5 14.9995 17.7239 14.9995 17.9999C14.9995 18.276 15.2234 18.4999 15.4995 18.4999H22.4987C22.7748 18.4999 22.9986 18.276 22.9986 17.9999C22.9986 17.7239 22.7748 17.5 22.4987 17.5Z" fill="black"/>
<path d="M12.4998 14.5004C12.2142 14.5004 11.6669 14.5004 11.3903 14.5004L10.9851 12.8793C10.9182 12.6114 10.6472 12.4486 10.3788 12.5155C10.111 12.5825 9.94805 12.8539 10.0151 13.1218L10.3598 14.5004H8.6407L8.98535 13.1218C9.05234 12.8539 8.88948 12.5825 8.62163 12.5155C8.35385 12.4487 8.08232 12.6114 8.01539 12.8793L7.61012 14.5004C7.33115 14.5004 6.78259 14.5004 6.50062 14.5004C6.22452 14.5004 6.00067 14.7242 6.00067 15.0003C6.00067 15.2764 6.22452 15.5003 6.50062 15.5003H6.57698L7.00731 18.0822C7.04756 18.3232 7.25603 18.4999 7.50051 18.4999H11.5001C11.7445 18.4999 11.953 18.3233 11.9933 18.0822L12.4236 15.5003H12.5C12.7761 15.5003 12.9999 15.2764 12.9999 15.0003C12.9999 14.7242 12.7759 14.5004 12.4998 14.5004V14.5004ZM11.0764 17.5H7.9239L7.59056 15.5003H11.4097L11.0764 17.5Z" fill="black"/>
<path d="M15.5376 24.6906C15.6946 25.0671 16.2009 25.1015 16.415 24.7768C16.571 24.5454 16.5018 24.2317 16.2769 24.0838C15.8752 23.8127 15.3468 24.2311 15.5376 24.6906V24.6906Z" fill="black"/>
</g>
<defs>
<clipPath id="clip0_26_1085">
<rect width="32" height="32" fill="white"/>
</clipPath>
</defs>
</svg>
