<svg width="32" height="32" viewBox="0 0 32 32" fill="none" xmlns="http://www.w3.org/2000/svg">
<path d="M30.2118 0.470703H1.78823C1.03529 0.470703 0.470581 1.03541 0.470581 1.78835V30.2119C0.470581 30.9648 1.03529 31.5295 1.78823 31.5295H30.2118C30.9176 31.5295 31.5294 30.9648 31.5294 30.2119V1.78835C31.5294 1.03541 30.9647 0.470703 30.2118 0.470703V0.470703ZM1.78823 1.41188H30.2118C30.4 1.41188 30.5882 1.60011 30.5882 1.78835V6.96482H1.41176V1.78835C1.41176 1.60011 1.59999 1.41188 1.78823 1.41188V1.41188ZM30.2118 30.5884H1.78823C1.59999 30.5884 1.41176 30.4001 1.41176 30.2119V7.906H30.5882V30.2119C30.5882 30.4001 30.4 30.5884 30.2118 30.5884Z" fill="black"/>
<path d="M4.42349 6.16486C5.50584 6.16486 6.39996 5.27074 6.39996 4.18838C6.39996 3.10603 5.50584 2.21191 4.42349 2.21191C3.34114 2.21191 2.44702 3.05897 2.44702 4.14133C2.44702 5.27074 3.34114 6.16486 4.42349 6.16486V6.16486ZM4.42349 3.10603C4.9882 3.10603 5.45879 3.57662 5.45879 4.14133C5.45879 4.70603 4.9882 5.17662 4.42349 5.17662C3.85879 5.17662 3.3882 4.70603 3.3882 4.14133C3.3882 3.57662 3.85879 3.10603 4.42349 3.10603V3.10603Z" fill="black"/>
<path d="M9.17648 6.16486C10.2588 6.16486 11.153 5.27074 11.153 4.18838C11.153 3.10603 10.2588 2.21191 9.17648 2.21191C8.09413 2.21191 7.20001 3.10603 7.20001 4.18838C7.20001 5.27074 8.09413 6.16486 9.17648 6.16486V6.16486ZM9.17648 3.10603C9.74119 3.10603 10.2118 3.57662 10.2118 4.14133C10.2118 4.70603 9.74119 5.17662 9.17648 5.17662C8.61178 5.17662 8.14119 4.70603 8.14119 4.14133C8.14119 3.57662 8.61178 3.10603 9.17648 3.10603V3.10603Z" fill="black"/>
<path d="M13.9765 6.16486C15.0588 6.16486 15.9529 5.27074 15.9529 4.18838C15.9529 3.10603 15.0588 2.21191 13.9765 2.21191C12.8941 2.21191 12 3.10603 12 4.18838C12 5.27074 12.8471 6.16486 13.9765 6.16486V6.16486ZM13.9765 3.10603C14.5412 3.10603 15.0118 3.57662 15.0118 4.14133C15.0118 4.70603 14.5412 5.17662 13.9765 5.17662C13.4118 5.17662 12.9412 4.70603 12.9412 4.14133C12.9412 3.57662 13.3647 3.10603 13.9765 3.10603V3.10603Z" fill="black"/>
<path d="M17.5529 5.97656H28.9412C29.2235 5.97656 29.4117 5.78832 29.4117 5.50597V2.82362C29.4117 2.54126 29.2235 2.35303 28.9412 2.35303H17.5529C17.2706 2.35303 17.0823 2.54126 17.0823 2.82362V5.45891C17.0823 5.74126 17.2706 5.97656 17.5529 5.97656V5.97656ZM18.0235 3.2942H28.4706V4.98832H18.0235V3.2942Z" fill="black"/>
<path d="M21.1765 8.94141C16.6588 8.94141 12.9412 12.2826 12.9412 16.3767C12.9412 17.9767 13.5529 19.5767 14.6353 20.8473L12.9882 24.2355C12.8941 24.4238 12.9412 24.612 13.0824 24.7532C13.2235 24.8943 13.4118 24.9414 13.6 24.8473L17.7882 23.1061C18.8706 23.5296 20 23.7649 21.1765 23.7649C25.6941 23.7649 29.4118 20.4238 29.4118 16.3296C29.4118 12.2355 25.6941 8.94141 21.1765 8.94141V8.94141ZM21.1765 22.8238C20.0941 22.8238 19.0118 22.5885 17.9765 22.1649C17.8824 22.1179 17.7412 22.1179 17.6 22.1649L14.3529 23.5296L15.5765 20.9885C15.6706 20.8002 15.6235 20.612 15.4824 20.4708C14.4471 19.3414 13.8353 17.8826 13.8353 16.3767C13.8824 12.8002 17.1294 9.88258 21.1765 9.88258C25.2235 9.88258 28.4706 12.8002 28.4706 16.3767C28.4706 19.9532 25.1765 22.8238 21.1765 22.8238V22.8238Z" fill="black"/>
<path d="M25.4588 14.0709H18.0706L17.7412 12.8003C17.6941 12.6121 17.5059 12.4238 17.2706 12.4238H16.4706C16.1882 12.4238 16 12.6121 16 12.8944C16 13.1768 16.1882 13.365 16.4706 13.365H16.9412L18.1176 18.0238C18.1647 18.2121 18.3529 18.4003 18.5882 18.4003H24.5647C24.8 18.4003 24.9882 18.2591 25.0353 18.0709L25.9294 14.6827C25.9765 14.3532 25.7412 14.0709 25.4588 14.0709V14.0709ZM24.2353 17.4591H18.9647L18.3529 15.0121H24.8941L24.2353 17.4591Z" fill="black"/>
<path d="M23.6235 18.7295C22.8706 18.7295 22.3058 19.3413 22.3058 20.0471C22.3058 20.753 22.9176 21.3648 23.6235 21.3648C24.3764 21.3648 24.9411 20.753 24.9411 20.0471C24.9411 19.3413 24.3764 18.7295 23.6235 18.7295ZM23.6235 20.4707C23.3882 20.4707 23.247 20.2824 23.247 20.0942C23.247 19.906 23.4353 19.7177 23.6235 19.7177C23.8117 19.7177 24 19.906 24 20.0942C24 20.2824 23.8588 20.4707 23.6235 20.4707Z" fill="black"/>
<path d="M19.6235 18.7295C18.8706 18.7295 18.3058 19.3413 18.3058 20.0471C18.3058 20.753 18.9176 21.3648 19.6235 21.3648C20.3294 21.3648 20.9411 20.753 20.9411 20.0471C20.9411 19.3413 20.3764 18.7295 19.6235 18.7295ZM19.6235 20.4707C19.3882 20.4707 19.247 20.2824 19.247 20.0942C19.247 19.906 19.4353 19.7177 19.6235 19.7177C19.8117 19.7177 20 19.906 20 20.0942C20 20.2824 19.8588 20.4707 19.6235 20.4707Z" fill="black"/>
<path d="M11.3883 20.9883H3.43531C3.15296 20.9883 2.96472 21.1765 2.96472 21.4589V28.753C2.96472 29.0353 3.15296 29.2236 3.43531 29.2236H11.3412C11.6235 29.2236 11.8118 29.0353 11.8118 28.753V21.4589C11.8588 21.1765 11.6235 20.9883 11.3883 20.9883V20.9883ZM10.9177 28.2824H3.9059V21.9295H10.8706V28.2824H10.9177Z" fill="black"/>
<path d="M11.6236 10.1177H3.20002C2.91767 10.1177 2.72943 10.3059 2.72943 10.5883C2.72943 10.8706 2.91767 11.0589 3.20002 11.0589H11.6236C11.9059 11.0589 12.0941 10.8706 12.0941 10.5883C12.0941 10.3059 11.8588 10.1177 11.6236 10.1177Z" fill="black"/>
<path d="M11.6236 12.6592H3.20002C2.91767 12.6592 2.72943 12.8474 2.72943 13.1298C2.72943 13.4121 2.91767 13.6004 3.20002 13.6004H11.6236C11.9059 13.6004 12.0941 13.4121 12.0941 13.1298C12.0941 12.8474 11.8588 12.6592 11.6236 12.6592Z" fill="black"/>
<path d="M11.6236 15.2002H3.20002C2.91767 15.2002 2.72943 15.3884 2.72943 15.6708C2.72943 15.9531 2.91767 16.1414 3.20002 16.1414H11.6236C11.9059 16.1414 12.0941 15.9531 12.0941 15.6708C12.0941 15.4355 11.8588 15.2002 11.6236 15.2002Z" fill="black"/>
<path d="M11.6236 17.7412H3.20002C2.91767 17.7412 2.72943 17.9294 2.72943 18.2118C2.72943 18.4942 2.91767 18.6824 3.20002 18.6824H11.6236C11.9059 18.6824 12.0941 18.4942 12.0941 18.2118C12.0941 17.9294 11.8588 17.7412 11.6236 17.7412Z" fill="black"/>
</svg>
