<svg width="32" height="32" viewBox="0 0 32 32" fill="none" xmlns="http://www.w3.org/2000/svg">
<path d="M20.5634 3.95418C20.2418 1.70005 18.2797 0 15.9997 0C14.5334 0 13.1408 0.707573 12.275 1.89343C12.0981 2.13527 12.151 2.47452 12.3929 2.65137C12.6339 2.82759 12.974 2.77531 13.1505 2.53315C13.8133 1.62632 14.8782 1.0848 15.9995 1.0848C17.7433 1.0848 19.2434 2.38426 19.4894 4.1072C19.5282 4.3778 19.7603 4.57309 20.0258 4.57309C20.0511 4.57309 20.0772 4.57118 20.1031 4.56768C20.3996 4.52526 20.6057 4.25052 20.5634 3.95418Z" fill="black"/>
<path d="M28.3967 10.0259L26.7696 7.31395C26.6717 7.15045 26.4952 7.05066 26.3045 7.05066H24.7453C24.4459 7.05066 24.2029 7.29361 24.2029 7.59298C24.2029 7.89234 24.4459 8.1353 24.7453 8.1353H25.9975L26.9738 9.76241H5.02506L6.00133 8.1353H6.57575C6.87511 8.1353 7.11806 7.89234 7.11806 7.59298C7.11806 7.29361 6.87511 7.05066 6.57575 7.05066H5.69434C5.50366 7.05066 5.32712 7.15045 5.22924 7.31395L3.60213 10.0259C3.50155 10.1937 3.49916 10.4023 3.59529 10.5723C3.69143 10.7423 3.87162 10.8475 4.06722 10.8475H27.9316C28.1272 10.8475 28.3073 10.7423 28.4036 10.5723C28.4999 10.4023 28.4973 10.1933 28.3967 10.0259Z" fill="black"/>
<path d="M25.6934 5.02481C25.6175 4.90229 25.4962 4.81538 25.3561 4.78265L17.9624 3.05336C17.8224 3.02047 17.675 3.04494 17.5526 3.12057C17.4306 3.19652 17.3435 3.31776 17.3108 3.45791L16.7532 5.84138C16.6849 6.13296 16.866 6.4247 17.1577 6.49271C17.4493 6.56103 17.7414 6.37989 17.8094 6.08815L18.2435 4.23302L24.5808 5.71538L23.585 9.97305C23.5167 10.2646 23.6978 10.5564 23.9896 10.6244C24.0314 10.6341 24.0728 10.6387 24.1138 10.6387C24.3601 10.6387 24.583 10.4699 24.641 10.22L25.7605 5.43429C25.7935 5.2943 25.7694 5.14684 25.6934 5.02481Z" fill="black"/>
<path d="M16.2868 6.30696L15.7926 2.12715C15.7757 1.9843 15.7028 1.85384 15.5897 1.76486C15.4765 1.67588 15.3337 1.6352 15.1902 1.65204L6.11872 2.72429C5.82142 2.75956 5.60881 3.02905 5.64393 3.32667L6.46782 10.298C6.50055 10.574 6.73461 10.7769 7.00585 10.7769C7.02698 10.7769 7.04875 10.7755 7.07036 10.7731C7.3675 10.7378 7.5801 10.4683 7.54515 10.1707L6.78482 3.73758L14.7791 2.79277L15.2094 6.43392C15.2447 6.73138 15.5129 6.94271 15.8118 6.90903C16.1091 6.87407 16.3217 6.60442 16.2868 6.30696Z" fill="black"/>
<path d="M20.5761 10.099L19.4996 5.62216C19.4659 5.48249 19.378 5.36157 19.2555 5.28641C19.133 5.21189 18.986 5.18853 18.8454 5.2219L10.1081 7.32317C9.81682 7.39308 9.63758 7.68609 9.7075 7.97735L10.2455 10.215C10.3154 10.5065 10.6085 10.6859 10.8996 10.6155C11.1908 10.5456 11.37 10.2526 11.3001 9.96135L10.8887 8.25097L18.5715 6.40362L19.5212 10.3529C19.5808 10.6015 19.8032 10.7684 20.0481 10.7684C20.0902 10.7684 20.1328 10.7635 20.1755 10.7531C20.4668 10.6831 20.646 10.3902 20.5761 10.099Z" fill="black"/>
<path d="M28.474 10.2773C28.4591 9.98909 28.2211 9.76282 27.9322 9.76282H4.06778C3.77891 9.76282 3.54088 9.98893 3.52594 10.2773L2.44114 31.4298C2.43352 31.5782 2.48722 31.7235 2.58956 31.8312C2.69204 31.9388 2.8341 32 2.98283 32H29.0167C29.1653 32 29.3075 31.9389 29.4104 31.8312C29.5126 31.7235 29.5663 31.5784 29.5588 31.4298L28.474 10.2773ZM3.55359 30.9152L4.58277 10.8475H27.4166L28.4458 30.9152H3.55359Z" fill="black"/>
<path d="M20.0675 11.9321C19.1702 11.9321 18.4404 12.6619 18.4404 13.5592C18.4404 14.4565 19.1702 15.1864 20.0675 15.1864C20.9648 15.1864 21.6947 14.4565 21.6947 13.5592C21.6947 12.6619 20.9648 11.9321 20.0675 11.9321ZM20.0675 14.1017C19.7683 14.1017 19.5252 13.8584 19.5252 13.5594C19.5252 13.2604 19.7685 13.0171 20.0675 13.0171C20.3666 13.0171 20.6099 13.2604 20.6099 13.5594C20.6099 13.8584 20.3666 14.1017 20.0675 14.1017Z" fill="black"/>
<path d="M11.9318 11.9321C11.0345 11.9321 10.3047 12.6619 10.3047 13.5592C10.3047 14.4565 11.0345 15.1864 11.9318 15.1864C12.8291 15.1864 13.5589 14.4565 13.5589 13.5592C13.5589 12.6619 12.8291 11.9321 11.9318 11.9321ZM11.9318 14.1017C11.6328 14.1017 11.3895 13.8584 11.3895 13.5594C11.3895 13.2604 11.6328 13.0171 11.9318 13.0171C12.2309 13.0171 12.4741 13.2604 12.4741 13.5594C12.4741 13.8584 12.2309 14.1017 11.9318 14.1017Z" fill="black"/>
<path d="M20.0675 13.5592H20.0258C19.7264 13.5592 19.4834 13.8022 19.4834 14.1015C19.4834 14.1756 19.4981 14.2463 19.5252 14.3106V17.0845C19.5252 19.0283 17.9437 20.61 15.9998 20.61C14.0558 20.61 12.4743 19.0285 12.4743 17.0845V14.1017C12.4743 13.8023 12.2313 13.5594 11.932 13.5594C11.6326 13.5594 11.3896 13.8023 11.3896 14.1017V17.0847C11.3896 19.6267 13.4577 21.6948 15.9998 21.6948C18.5418 21.6948 20.6099 19.6267 20.6099 17.0847V14.1017C20.6099 13.8023 20.3669 13.5592 20.0675 13.5592Z" fill="black"/>
</svg>
