<svg xmlns="http://www.w3.org/2000/svg" xmlns:xlink="http://www.w3.org/1999/xlink" width="32" height="32" viewBox="0 0 32 32">
  <defs>
    <clipPath id="clip-path">
      <rect id="Rectangle_12584" data-name="Rectangle 12584" width="28" height="27.995" stroke="#fff" stroke-width="0.9"/>
    </clipPath>
  </defs>
  <g id="Group_37671" data-name="Group 37671" transform="translate(10187 1859)">
    <g id="Rectangle_12544" data-name="Rectangle 12544" transform="translate(-10187 -1859)" stroke="#707070" stroke-width="1" opacity="0">
      <rect width="32" height="32" stroke="none"/>
      <rect x="0.5" y="0.5" width="31" height="31" fill="none"/>
    </g>
    <g id="Group_37703" data-name="Group 37703" transform="translate(-10185 -1857)">
      <g id="Group_37703-2" data-name="Group 37703" clip-path="url(#clip-path)">
        <path id="Path_105535" data-name="Path 105535" d="M28,1.105c-.048.17-.119.5-.238.818q-3.015,8-6.048,16a6.226,6.226,0,0,1-3.693,3.724c-5.385,2.062-10.785,4.086-16.182,6.119-.519.2-1.089.413-1.557-.044S.029,26.69.224,26.171C2.273,20.728,4.3,15.278,6.4,9.853A6.05,6.05,0,0,1,10.012,6.31Q18,3.263,26.013.259A3.793,3.793,0,0,1,27.042,0c.64-.048.964.3.958,1.1M25.32,2.677,10.014,8.466l2,1.989a3.977,3.977,0,0,1,4.805.744,3.954,3.954,0,0,1,.736,4.732l1.991,2L25.32,2.677M18.089,19.468c-.666-.661-1.216-1.188-1.741-1.739a.41.41,0,0,0-.583-.092,3.793,3.793,0,0,1-2.694.33,4.033,4.033,0,0,1-2.735-5.722c.061-.13.129-.362.067-.428-.581-.619-1.189-1.213-1.878-1.9L2.713,25.285l15.376-5.817m-4.148-7.463A2.027,2.027,0,1,0,15.99,14a2.053,2.053,0,0,0-2.048-1.992" transform="translate(0 0)" stroke="#fff" stroke-width="0.9"/>
      </g>
    </g>
  </g>
</svg>
