<svg xmlns="http://www.w3.org/2000/svg" width="32.5" height="32.5" viewBox="0 0 32.5 32.5">
  <g id="Group_37736" data-name="Group 37736" transform="translate(0.25 0.25)">
    <path id="Path_105410" data-name="Path 105410" d="M138.367,422.042a5.041,5.041,0,0,1-5.035-5.035,1.007,1.007,0,0,1,2.014,0,3.021,3.021,0,0,0,6.042,0,1.007,1.007,0,0,1,2.014,0A5.041,5.041,0,0,1,138.367,422.042Zm0,0" transform="translate(-125.025 -390.042)" stroke="#fff" stroke-width="0.5"/>
    <path id="Path_105411" data-name="Path 105411" d="M24.5,91.551H2.349A2.341,2.341,0,0,1,0,89.223a2.318,2.318,0,0,1,.822-1.769.927.927,0,0,1,.107-.08,8.9,8.9,0,0,0,3.1-6.744V76.919a9.269,9.269,0,0,1,7.206-9.045,1.01,1.01,0,0,1,1.212.742,1,1,0,0,1-.748,1.2,7.277,7.277,0,0,0-5.657,7.1V80.63a10.9,10.9,0,0,1-3.9,8.341c-.02.016-.038.031-.059.045a.327.327,0,0,0-.071.206.338.338,0,0,0,.336.332H24.5a.338.338,0,0,0,.336-.332.316.316,0,0,0-.073-.206c-.02-.015-.039-.029-.058-.045a10.86,10.86,0,0,1-2.821-3.646A.993.993,0,0,1,22.366,84a1.009,1.009,0,0,1,1.34.476,8.9,8.9,0,0,0,2.219,2.905,1.159,1.159,0,0,1,.1.076,2.311,2.311,0,0,1,.825,1.769,2.341,2.341,0,0,1-2.35,2.328Zm0,0" transform="translate(0 -63.578)" stroke="#fff" stroke-width="0.5"/>
    <path id="Path_105412" data-name="Path 105412" d="M243.395,17.454a8.727,8.727,0,1,1,8.727-8.727A8.737,8.737,0,0,1,243.395,17.454Zm0-15.44a6.713,6.713,0,1,0,6.713,6.713A6.721,6.721,0,0,0,243.395,2.014Zm0,0" transform="translate(-220.122)" stroke="#fff" stroke-width="0.5"/>
    <path id="Path_105413" data-name="Path 105413" d="M338.685,92.717a1.007,1.007,0,0,1-1.007-1.007V87.346h-.671a1.007,1.007,0,0,1,0-2.014h1.678a1.007,1.007,0,0,1,1.007,1.007V91.71A1.007,1.007,0,0,1,338.685,92.717Zm0,0" transform="translate(-315.019 -80.01)" stroke="#fff" stroke-width="0.5"/>
  </g>
</svg>
