<svg xmlns="http://www.w3.org/2000/svg" xmlns:xlink="http://www.w3.org/1999/xlink" width="32" height="32" viewBox="0 0 32 32">
  <defs>
    <clipPath id="clip-path">
      <rect id="Rectangle_12583" data-name="Rectangle 12583" width="28" height="28"/>
    </clipPath>
  </defs>
  <g id="Group_37670" data-name="Group 37670" transform="translate(10187 1859)">
    <g id="Rectangle_12544" data-name="Rectangle 12544" transform="translate(-10187 -1859)" stroke="#707070" stroke-width="1" opacity="0">
      <rect width="32" height="32" stroke="none"/>
      <rect x="0.5" y="0.5" width="31" height="31" fill="none"/>
    </g>
    <g id="Group_37702" data-name="Group 37702" transform="translate(-10185 -1857)">
      <g id="Group_37702-2" data-name="Group 37702" clip-path="url(#clip-path)">
        <path id="Path_105531" data-name="Path 105531" d="M0,17.388a2.74,2.74,0,0,1,.748-1.049Q7.132,9.965,13.5,3.579a3.757,3.757,0,0,1,2.835-1.171c1.95.019,3.9.005,5.85.005A3.074,3.074,0,0,1,25.223,3.85c.526-.416,1.072-.811,1.573-1.257a.969.969,0,0,0,0-1.4,1,1,0,0,0-1.4.006c-.181.179-.337.383-.509.571a.456.456,0,1,1-.687-.59A2.751,2.751,0,0,1,25.808,0h.6c.067.023.134.048.2.069a1.848,1.848,0,0,1,1.321,1.368A1.773,1.773,0,0,1,27.372,3.3c-.526.461-1.1.866-1.665,1.283a.322.322,0,0,0-.16.359,3.118,3.118,0,0,1,.035.544c0,2.086-.005,4.172,0,6.259a3.613,3.613,0,0,1-1.115,2.692q-6.512,6.494-13.009,13a1.45,1.45,0,0,1-2.287,0Q4.933,23.2.688,18.962A2.344,2.344,0,0,1,0,17.935ZM24.432,4.343A1.952,1.952,0,0,0,22.67,3.329c-2.159,0-4.319.008-6.478,0a2.619,2.619,0,0,0-1.956.811Q7.709,10.673,1.174,17.2c-.358.358-.359.6,0,.951l8.678,8.677c.344.344.591.348.932.007q6.553-6.551,13.1-13.1a2.568,2.568,0,0,0,.787-1.911c-.009-2.086,0-4.173,0-6.259,0-.076-.01-.152-.018-.256-.432.265-.825.527-1.24.751a.457.457,0,0,0-.273.533,1.868,1.868,0,0,1-1.8,2.047,1.9,1.9,0,1,1,.09-3.792,2.065,2.065,0,0,1,1.259.611l1.583-.994c.053-.033.1-.074.165-.121m-2.2,2.4c-.242.125-.472.247-.7.362a.463.463,0,0,1-.664-.149.468.468,0,0,1,.247-.655c.227-.124.457-.242.7-.368A.946.946,0,0,0,20.586,6a1,1,0,0,0,.92,1.7.963.963,0,0,0,.725-.958"/>
        <path id="Path_105532" data-name="Path 105532" d="M178.819,131.734q0-2.349,0-4.7c0-.314.144-.5.394-.532a.437.437,0,0,1,.486.343,1.672,1.672,0,0,1,.02.326q0,4.561,0,9.122a2.322,2.322,0,0,1-.008.273.445.445,0,0,1-.889-.027c-.011-.327,0-.655,0-.983q0-1.912,0-3.824" transform="translate(-165.755 -117.26)"/>
        <path id="Path_105533" data-name="Path 105533" d="M205.821,174.077a1.9,1.9,0,1,1,1.9,1.92,1.9,1.9,0,0,1-1.9-1.92m1.9,1.007a.993.993,0,1,0,0-1.985.993.993,0,1,0,0,1.985" transform="translate(-190.786 -159.608)"/>
        <path id="Path_105534" data-name="Path 105534" d="M115.989,174.086a1.9,1.9,0,1,1-1.915-1.9,1.9,1.9,0,0,1,1.915,1.9m-1.885,1a.993.993,0,1,0-1.013-.994,1,1,0,0,0,1.013.994" transform="translate(-103.996 -159.608)"/>
      </g>
    </g>
  </g>
</svg>
