<svg xmlns="http://www.w3.org/2000/svg" xmlns:xlink="http://www.w3.org/1999/xlink" width="32" height="32" viewBox="0 0 32 32">
  <defs>
    <clipPath id="clip-path">
      <rect id="Rectangle_12589" data-name="Rectangle 12589" width="28" height="27.349"/>
    </clipPath>
  </defs>
  <g id="Group_37671" data-name="Group 37671" transform="translate(10187 1859)">
    <g id="Rectangle_12544" data-name="Rectangle 12544" transform="translate(-10187 -1859)" stroke="#707070" stroke-width="1" opacity="0">
      <rect width="32" height="32" stroke="none"/>
      <rect x="0.5" y="0.5" width="31" height="31" fill="none"/>
    </g>
    <g id="Group_37705" data-name="Group 37705" transform="translate(-10185 -1856.675)">
      <g id="Group_37705-2" data-name="Group 37705" clip-path="url(#clip-path)">
        <path id="Path_105549" data-name="Path 105549" d="M23.314,4.885c.014.307.031.615.04.922a.473.473,0,0,0,.388.494c.452.113.905.219,1.355.34a4.869,4.869,0,0,1,.676.225,1.411,1.411,0,0,1,.876,1.863,9.741,9.741,0,0,1-.53,1.258c-.482,1.01-.478,1.032.407,1.736a9.093,9.093,0,0,1,.963.841,1.456,1.456,0,0,1-.005,2.22,16.625,16.625,0,0,1-1.261,1.088c-.515.434-.536.514-.26,1.138.213.48.46.948.636,1.441a1.461,1.461,0,0,1-1,2.093c-.5.176-1.034.273-1.552.406-.639.164-.685.211-.713.861-.023.516,0,1.034-.041,1.548a1.49,1.49,0,0,1-1.653,1.553,7.725,7.725,0,0,1-.853-.128q-.555-.105-1.106-.236a.562.562,0,0,0-.707.335c-.182.374-.357.753-.559,1.117a5.046,5.046,0,0,1-.551.844,1.318,1.318,0,0,1-1.643.36,5.7,5.7,0,0,1-.88-.549c-.284-.2-.544-.433-.823-.639-.458-.337-.579-.338-1.029-.006-.28.206-.54.438-.823.64a5.732,5.732,0,0,1-.852.541,1.334,1.334,0,0,1-1.713-.385,7.46,7.46,0,0,1-.634-1.037c-.165-.294-.307-.6-.455-.9a.55.55,0,0,0-.686-.32c-.474.106-.948.216-1.427.3a3.3,3.3,0,0,1-.828.052,1.332,1.332,0,0,1-1.3-1.176,9.443,9.443,0,0,1-.09-1.482c-.007-1.12,0-1.116-1.1-1.375a11.25,11.25,0,0,1-1.232-.336,1.444,1.444,0,0,1-.973-2.01c.179-.523.443-1.017.667-1.525.266-.6.243-.69-.26-1.114C1.369,15.527.925,15.2.544,14.813a1.466,1.466,0,0,1,0-2.283c.388-.394.841-.725,1.265-1.084.468-.4.5-.5.246-1.07-.216-.49-.471-.965-.651-1.467A1.465,1.465,0,0,1,2.413,6.8c.5-.175,1.034-.272,1.552-.4.621-.16.67-.211.7-.843C4.686,5.034,4.669,4.516,4.7,4A1.509,1.509,0,0,1,6.551,2.454c.226.023.451.066.675.11.37.073.739.151,1.106.235a.547.547,0,0,0,.684-.323c.144-.294.287-.588.441-.877A8.211,8.211,0,0,1,9.971.7,1.417,1.417,0,0,1,12,.252a8.416,8.416,0,0,1,1.014.728c.971.78.992.78,1.956.007a8.627,8.627,0,0,1,1.012-.73,1.425,1.425,0,0,1,2.055.455,9.362,9.362,0,0,1,.539.958c.149.28.288.565.431.849a.508.508,0,0,0,.618.287c.485-.1.969-.212,1.457-.3a3.347,3.347,0,0,1,.709-.069,1.478,1.478,0,0,1,1.5,1.528c.027.306.029.615.043.922h-.025m-1.277.167c0-.389.017-.679,0-.965-.028-.369-.084-.422-.446-.37-.421.061-.838.158-1.254.249-1.446.314-2.048.02-2.7-1.318-.19-.392-.395-.778-.6-1.164a.284.284,0,0,0-.485-.1c-.37.284-.741.567-1.11.852a1.973,1.973,0,0,1-2.892-.005c-.039-.031-.076-.064-.116-.094-.3-.23-.591-.47-.9-.688-.353-.249-.431-.235-.641.147-.252.461-.465.943-.717,1.4A1.762,1.762,0,0,1,8.012,4.029c-.478-.086-.949-.21-1.427-.3-.517-.1-.616-.013-.629.512-.012.457,0,.914-.014,1.371a1.814,1.814,0,0,1-1.566,1.98c-.354.1-.715.166-1.071.253-.887.214-.9.247-.527,1.076.219.488.451.972.629,1.475a1.529,1.529,0,0,1-.388,1.647,6.526,6.526,0,0,1-.524.485c-.31.263-.637.508-.94.779-.352.314-.353.416.006.733.4.355.837.672,1.232,1.033a1.711,1.711,0,0,1,.5,2.22c-.173.432-.39.846-.581,1.272-.29.647-.258.711.425.888.537.139,1.083.252,1.61.422A1.575,1.575,0,0,1,5.9,21.326c.038.4.037.812.052,1.219.009.248.009.5.021.744.012.264.131.406.418.347.427-.087.856-.167,1.283-.257,1.461-.307,2.051-.018,2.7,1.319.163.339.323.681.5,1.011.235.427.325.445.726.154.305-.222.6-.46.893-.7a2.015,2.015,0,0,1,3.032,0c.311.247.62.5.943.727.352.25.431.234.641-.148.253-.461.465-.943.717-1.4a1.763,1.763,0,0,1,2.168-1.032c.488.089.968.216,1.456.3s.582.009.6-.486c.015-.476,0-.954.017-1.43a1.807,1.807,0,0,1,1.564-1.951c.4-.11.811-.192,1.214-.294.71-.179.735-.236.445-.9-.235-.535-.492-1.062-.69-1.611a1.52,1.52,0,0,1,.389-1.646,6.682,6.682,0,0,1,.524-.486c.311-.263.638-.507.941-.778.348-.311.342-.416,0-.738-.153-.142-.318-.269-.478-.4-.274-.229-.556-.449-.822-.687a1.7,1.7,0,0,1-.47-2.076c.186-.448.4-.884.6-1.327.307-.684.281-.731-.442-.921-.565-.149-1.137-.279-1.688-.467A1.508,1.508,0,0,1,22.112,6.08c-.047-.373-.056-.751-.075-1.027" transform="translate(0 0)"/>
        <path id="Path_105550" data-name="Path 105550" d="M113.247,118.176c-.21-.166-.45-.268-.526-.442a1.14,1.14,0,0,1,.027-.64c.022-.1.147-.181.231-.265l8.556-8.557c.407-.407.791-.465,1.08-.166s.22.666-.174,1.06q-4.289,4.289-8.581,8.574a4.809,4.809,0,0,1-.614.436" transform="translate(-103.709 -99.323)"/>
        <path id="Path_105551" data-name="Path 105551" d="M112.36,106.011a2.227,2.227,0,1,1-2.221-2.217,2.234,2.234,0,0,1,2.221,2.217m-3.172,0a.957.957,0,0,0,.93.965.976.976,0,0,0,.973-.962.957.957,0,0,0-.954-.941.933.933,0,0,0-.948.938" transform="translate(-99.314 -95.528)"/>
        <path id="Path_105552" data-name="Path 105552" d="M187.793,185.906a2.226,2.226,0,1,1,2.234,2.235,2.232,2.232,0,0,1-2.234-2.235m2.235.953a.937.937,0,0,0,.936-.951.957.957,0,0,0-.943-.953.979.979,0,0,0-.96.975.957.957,0,0,0,.966.929" transform="translate(-172.837 -169.058)"/>
      </g>
    </g>
  </g>
</svg>
