<svg id="Group_37683" data-name="Group 37683" xmlns="http://www.w3.org/2000/svg" width="32" height="32" viewBox="0 0 32 32">
  <path id="Path_104960" data-name="Path 104960" d="M29.766,1,22.54,5.129h-.823l-3.174-.907a3.225,3.225,0,0,0-.766-.11l-2.335-.747a6.367,6.367,0,0,0-3.307-.15l-3.419.76L4.253,1H1V8.587l5.971,2.171,1.777,1.066A1.607,1.607,0,0,0,10.3,13.381a1.607,1.607,0,0,0,1.548,1.548,1.605,1.605,0,0,0,1.163,1.484,8.775,8.775,0,1,0,7.421-.263,1.545,1.545,0,0,0,.182-.7,1.57,1.57,0,0,0,1.548-1.55,1.588,1.588,0,0,0,1.55-1.584,1.517,1.517,0,0,0-.019-.174l2.3-1.377L33,8.607V1ZM2.032,7.865V2.032H3.94l4.205,2.8-1.3,4.778Zm7.742,3.912a.576.576,0,0,1,.169-.409l1.423-1.423a.579.579,0,0,1,.819.819l-1.423,1.423a.579.579,0,0,1-.988-.409Zm1.548,1.548a.576.576,0,0,1,.169-.409l1.423-1.423a.579.579,0,0,1,.819.819L12.31,13.734a.579.579,0,0,1-.988-.409Zm1.718,1.139,1.423-1.423a.579.579,0,0,1,.819.819l-1.423,1.423a.579.579,0,0,1-.819-.819Zm3.381-.044a.579.579,0,0,1,.409.988l-1.423,1.423a.579.579,0,0,1-.819-.819l1.423-1.423A.576.576,0,0,1,16.421,14.419Zm1.033,1.825.385.321a.538.538,0,0,1-.345.952h-.1a.539.539,0,0,1-.356-.135l-.386-.341ZM17,18.548a5.677,5.677,0,1,1-5.677,5.677A5.684,5.684,0,0,1,17,18.548Zm7.742,5.677a7.742,7.742,0,1,1-11.115-6.97,1.609,1.609,0,0,0,.959.716,6.707,6.707,0,1,0,4.251-.194,1.553,1.553,0,0,0,.225-.78,1.547,1.547,0,0,0,.47-.084,7.691,7.691,0,0,1,5.209,7.312Zm-2.62-11.355h-.089a.554.554,0,0,1-.355-.129l-.082-.068L18.879,10.41l-.661.793,2.717,2.264a.539.539,0,0,1-.345.952h-.112a.539.539,0,0,1-.345-.125l-.086-.072L17.33,11.958l-.661.793,2.717,2.264a.539.539,0,0,1-.345.952.849.849,0,0,1-.543-.2l-.508-.423a1.642,1.642,0,0,0,.041-.35,1.609,1.609,0,0,0-1.554-1.605,1.607,1.607,0,0,0-1.548-1.548A1.607,1.607,0,0,0,13.381,10.3a1.608,1.608,0,0,0-2.744-1.082L9.214,10.637a1.568,1.568,0,0,0-.145.177l-1.274-.764,1.4-5.122,3.167-.7a5.336,5.336,0,0,1,2.769.126l.76.243L13.31,5.881a1.719,1.719,0,0,0-.955,1.546v.1a1.728,1.728,0,0,0,2.618,1.482l1.922-1.153a1.067,1.067,0,0,1,1.238.119L22.494,11.9a.555.555,0,0,1-.372.968Zm1.062-1.735L18.823,7.211a2.12,2.12,0,0,0-2.46-.237L14.442,8.127a.7.7,0,0,1-1.054-.6v-.1a.692.692,0,0,1,.385-.623l2.879-1.439a2.253,2.253,0,0,1,1.609-.15l3.243.926.895.015,2.646,3.97-1.8,1.079c-.022-.021-.039-.047-.062-.068Zm8.783-3.292L25.99,9.684,23.413,5.819l6.627-3.787h1.927Z" transform="translate(-1 -1)"/>
  <path id="Path_104961" data-name="Path 104961" d="M29.013,45.052v1.007H30.02V45.052a2.013,2.013,0,0,0,0-4.026H29.013a1.007,1.007,0,1,1,0-2.013H30.02a1.008,1.008,0,0,1,1.007,1.007h1.007a2.015,2.015,0,0,0-2.013-2.013V37H29.013v1.007a2.013,2.013,0,1,0,0,4.026H30.02a1.007,1.007,0,0,1,0,2.013H29.013a1.008,1.008,0,0,1-1.007-1.007v-.5H27v.5A2.015,2.015,0,0,0,29.013,45.052Z" transform="translate(-13.516 -18.085)"/>
  <path id="Path_104962" data-name="Path 104962" d="M48.2,32.9l.805.6,2.114-2.818V41.251h1.007V30.682L54.239,33.5l.805-.6-3.422-4.563Z" transform="translate(-23.648 -13.78)"/>
  <path id="Path_104963" data-name="Path 104963" d="M54,56h1.007v1.007H54Z" transform="translate(-26.529 -27.523)"/>
  <path id="Path_104964" data-name="Path 104964" d="M9.045,32.9,5.622,28.333,2.2,32.9l.805.6,2.114-2.818V41.251H6.126V30.682L8.239,33.5Z" transform="translate(-1.596 -13.78)"/>
  <path id="Path_104965" data-name="Path 104965" d="M8,56H9.007v1.007H8Z" transform="translate(-4.477 -27.523)"/>
</svg>
