<svg xmlns="http://www.w3.org/2000/svg" width="32" height="32.02" viewBox="0 0 32 32.02">
  <g id="Group_37840" data-name="Group 37840" transform="translate(-15.992 -15.995)">
    <g id="Line_stroke_cut_Ex" data-name="Line stroke cut Ex" transform="translate(15.992 15.995)">
      <g id="Group_37840-2" data-name="Group 37840" transform="translate(0 0)">
        <path id="Path_105640" data-name="Path 105640" d="M19.164,31.5l.646-6.247a4.706,4.706,0,0,0,1.439.041q0,.051,0,.1a2.066,2.066,0,1,0,.343-1.144l-.019-.074a3.658,3.658,0,0,1-1.653.038l.089-.863a1.433,1.433,0,0,1,1.272-1.272l5.144-.532-.107-1.032-.984.1A4.67,4.67,0,1,0,18.8,24.947l-.667,6.45a2.454,2.454,0,0,0,.709,2l1.129,1.129.734-.734-1.129-1.129a1.421,1.421,0,0,1-.41-1.156Zm3.424-6.837a1.038,1.038,0,1,1,0,1.468,1.038,1.038,0,0,1,0-1.468Zm-5.558-4a3.632,3.632,0,0,1,7.264,0q0,.032,0,.065l-3.121.323a2.475,2.475,0,0,0-2.2,2.2l-.062.6a3.635,3.635,0,0,1-1.883-3.182Z" transform="translate(-15.992 -15.995)"/>
        <path id="Path_105641" data-name="Path 105641" d="M112.156,266.343l-.734.734,1.7,1.7a1.427,1.427,0,0,1,0,2.018l-8.989,8.989a1.427,1.427,0,0,1-2.018,0L91.077,268.744l-.734.734,11.038,11.038a2.464,2.464,0,0,0,3.485,0l8.989-8.988a2.464,2.464,0,0,0,0-3.485Z" transform="translate(-84.633 -249.218)"/>
        <path id="Path_105642" data-name="Path 105642" d="M267.71,435.723a1.16,1.16,0,0,0,.826-.342l.525-.525-.734-.734-.525.525a.13.13,0,0,1-.183,0l-.541-.541-.734.734.541.541A1.16,1.16,0,0,0,267.71,435.723Z" transform="translate(-249.599 -406.101)"/>
        <path id="Path_105643" data-name="Path 105643" d="M402.121,300.325l.734.734.525-.525a1.167,1.167,0,0,0,0-1.651l-.541-.541-.734.734.541.541a.13.13,0,0,1,0,.183Z" transform="translate(-376.176 -279.457)"/>
        <path id="Path_105644" data-name="Path 105644" d="M82.425,239.285l-1.032-.107-.08.772a1.162,1.162,0,0,0,.336.946l.763.763.734-.734-.763-.763a.129.129,0,0,1-.037-.105Z" transform="translate(-77.071 -224.254)"/>
        <path id="Path_105645" data-name="Path 105645" d="M196.6,64.169a.519.519,0,0,0-.383-.169H177.536a.519.519,0,0,0-.517.473l-.987,11.276a.519.519,0,0,0,.1.535l6.226,6.745a.519.519,0,0,0,.381.167h1.038a.519.519,0,0,0,.519-.519V76.452h10.915a.519.519,0,0,0,.517-.473l.454-5.188-1.034-.091-.412,4.715H177.1l.908-10.377h17.637l-.4,4.624,1.034.09.454-5.188A.519.519,0,0,0,196.6,64.169ZM183.263,76.452V82.16h-.292L177.7,76.452Z" transform="translate(-164.734 -60.887)"/>
        <path id="Path_105646" data-name="Path 105646" d="M225.167,121.038h1.946V120h-1.946A1.169,1.169,0,0,0,224,121.167v.778a1.169,1.169,0,0,0,1.167,1.167h.778a.13.13,0,0,1,.13.13v.778a.13.13,0,0,1-.13.13H224v1.038h1.946a1.169,1.169,0,0,0,1.167-1.167v-.778a1.169,1.169,0,0,0-1.167-1.167h-.778a.13.13,0,0,1-.13-.13v-.778A.13.13,0,0,1,225.167,121.038Z" transform="translate(-210.082 -113.024)"/>
        <path id="Path_105647" data-name="Path 105647" d="M291.113,125.188v-3.632a1.557,1.557,0,0,0-3.113,0v3.632h1.038v-1.557h1.038v1.557Zm-2.075-2.594v-1.038a.519.519,0,1,1,1.038,0v1.038Z" transform="translate(-269.799 -113.024)"/>
        <path id="Path_105648" data-name="Path 105648" d="M352,120v4.67a.519.519,0,0,0,.519.519h2.075v-1.038h-1.557V120Z" transform="translate(-329.529 -113.024)"/>
        <path id="Path_105649" data-name="Path 105649" d="M410.594,121.038V120h-2.075a.519.519,0,0,0-.519.519v4.151a.519.519,0,0,0,.519.519h2.075v-1.038h-1.557v-1.038h1.038v-1.038h-1.038v-1.038Z" transform="translate(-381.688 -113.024)"/>
      </g>
    </g>
  </g>
</svg>
