<svg xmlns="http://www.w3.org/2000/svg" width="32.5" height="35.583" viewBox="0 0 32.5 35.583">
  <g id="Group_37836" data-name="Group 37836" transform="translate(0.25 0.25)">
    <g id="Group_37835" data-name="Group 37835" transform="translate(0 0)">
      <path id="Path_105657" data-name="Path 105657" d="M111.6,364.5a1.961,1.961,0,0,0,0,3.922h5.366a1.961,1.961,0,0,0,0-3.922Zm6.3,1.961a.93.93,0,0,1-.929.929H111.6a.929.929,0,0,1,0-1.858h5.366A.93.93,0,0,1,117.893,366.461Z" transform="translate(-103.686 -339.536)" stroke="#fff" stroke-width="0.5"/>
      <path id="Path_105658" data-name="Path 105658" d="M52.641,5.448H50.025a.514.514,0,0,0,0,1.028h2.616a.832.832,0,0,1,.831.831V21.062a.832.832,0,0,1-.831.831H29.019a.832.832,0,0,1-.831-.831v-.688H33.7a2.3,2.3,0,0,0,0-4.591H28.187V7.307a.832.832,0,0,1,.831-.831h18.59a.514.514,0,0,0,0-1.028H43.673V3.255A3.259,3.259,0,0,0,40.419,0H25.755A3.259,3.259,0,0,0,22.5,3.255V6.2a.514.514,0,0,0,1.028,0V3.255a2.229,2.229,0,0,1,2.227-2.227H40.419a2.229,2.229,0,0,1,2.227,2.227V5.448h-.754V3.255a1.475,1.475,0,0,0-1.473-1.473H37.671a.889.889,0,0,0-.84.6l-.329.958H29.672l-.33-.959a.889.889,0,0,0-.84-.6H25.755a1.475,1.475,0,0,0-1.473,1.473V31.829A1.475,1.475,0,0,0,25.755,33.3H40.419a1.475,1.475,0,0,0,1.473-1.473V30.222a.514.514,0,0,0-1.028,0v1.607a.446.446,0,0,1-.445.445H25.755a.446.446,0,0,1-.445-.445V3.255a.446.446,0,0,1,.445-.445H28.4l.33.958a.889.889,0,0,0,.84.6H36.6a.889.889,0,0,0,.84-.6l.329-.958h2.649a.446.446,0,0,1,.445.445V5.448H29.019a1.861,1.861,0,0,0-1.859,1.859V21.062a1.861,1.861,0,0,0,1.859,1.859H40.864v4.9a.514.514,0,0,0,1.028,0v-4.9h.754v8.908a2.229,2.229,0,0,1-2.227,2.227H25.755a2.229,2.229,0,0,1-2.227-2.227V8.634a.514.514,0,0,0-1.028,0V31.829a3.259,3.259,0,0,0,3.255,3.255H40.419a3.259,3.259,0,0,0,3.255-3.255V22.921h8.967A1.861,1.861,0,0,0,54.5,21.062V7.307a1.861,1.861,0,0,0-1.859-1.859ZM33.7,16.81a1.268,1.268,0,0,1,0,2.535H28.187V16.81Z" transform="translate(-22.5 0)" stroke="#fff" stroke-width="0.5"/>
      <path id="Path_105659" data-name="Path 105659" d="M342.68,232.385a.516.516,0,0,0,.666-.3l.246-.645h1.688l.243.643a.516.516,0,1,0,.965-.364l-1.481-3.923-.006-.014a.6.6,0,0,0-.56-.375h0a.6.6,0,0,0-.56.377l0,.011-1.494,3.923A.516.516,0,0,0,342.68,232.385Zm1.76-3.17.451,1.195h-.906Z" transform="translate(-320.444 -211.836)" stroke="#fff" stroke-width="0.5"/>
      <path id="Path_105660" data-name="Path 105660" d="M398.466,230.022l0,1.878a.516.516,0,0,0,.515.517h0a.516.516,0,0,0,.516-.515l0-1.88,1.177-1.809a.516.516,0,1,0-.865-.563l-.829,1.273-.838-1.284a.516.516,0,0,0-.864.564Z" transform="translate(-371.546 -211.834)" stroke="#fff" stroke-width="0.5"/>
      <path id="Path_105661" data-name="Path 105661" d="M300.42,231.9a.516.516,0,0,0,1.032,0v-1.215l.592,0a1.639,1.639,0,1,0,0-3.278h-1.108a.519.519,0,0,0-.516.518Zm1.624-3.463a.607.607,0,1,1,0,1.214l-.587,0c0-.512,0-.689,0-1.216h.59Z" transform="translate(-281.385 -211.834)" stroke="#fff" stroke-width="0.5"/>
      <path id="Path_105662" data-name="Path 105662" d="M136.429,118.5a.93.93,0,0,0-.929.929v2.752a.93.93,0,0,0,.929.929h4.266a.93.93,0,0,0,.929-.929v-2.752a.93.93,0,0,0-.929-.929Zm4.162,3.578h-4.059v-2.546h4.059Z" transform="translate(-127.764 -110.385)" stroke="#fff" stroke-width="0.5"/>
      <path id="Path_105663" data-name="Path 105663" d="M273.9,137.136v.826a.516.516,0,0,0,1.032,0v-.826A.516.516,0,0,0,273.9,137.136Z" transform="translate(-256.68 -127.264)" stroke="#fff" stroke-width="0.5"/>
      <path id="Path_105664" data-name="Path 105664" d="M398.122,138.478a.516.516,0,0,0,.516-.516v-.826a.516.516,0,0,0-1.032,0v.826A.516.516,0,0,0,398.122,138.478Z" transform="translate(-371.928 -127.264)" stroke="#fff" stroke-width="0.5"/>
      <path id="Path_105665" data-name="Path 105665" d="M425.374,137.962v-.826a.516.516,0,0,0-1.032,0v.826A.516.516,0,0,0,425.374,137.962Z" transform="translate(-396.825 -127.264)" stroke="#fff" stroke-width="0.5"/>
      <path id="Path_105666" data-name="Path 105666" d="M313.755,137.962v-.826a.516.516,0,0,0-1.032,0v.826A.516.516,0,0,0,313.755,137.962Z" transform="translate(-292.839 -127.264)" stroke="#fff" stroke-width="0.5"/>
      <path id="Path_105667" data-name="Path 105667" d="M341.576,138.478a.516.516,0,0,0,.516-.516v-.826a.516.516,0,0,0-1.032,0v.826A.516.516,0,0,0,341.576,138.478Z" transform="translate(-319.234 -127.264)" stroke="#fff" stroke-width="0.5"/>
    </g>
  </g>
</svg>
