<svg id="Group_37954" data-name="Group 37954" xmlns="http://www.w3.org/2000/svg" width="32" height="19.762" viewBox="0 0 32 19.762">
  <path id="Path_105772" data-name="Path 105772" d="M.606,107.873l2.55,1.006a.956.956,0,0,0,.967-.158L6.143,110l.346.243a1.707,1.707,0,0,0,1.631,2.606,1.706,1.706,0,0,0,1.89,1.6,1.706,1.706,0,0,0,1.891,1.6,1.707,1.707,0,0,0,3.006,1.011l.405-.476.683.5a1.88,1.88,0,0,0,3-1.291,1.867,1.867,0,0,0,2.529-1.721,1.87,1.87,0,0,0,2.23-1.723,1.867,1.867,0,0,0,2.177-2.577l1.825-1.172a.958.958,0,0,0,1.083.274l2.55-1.006a.958.958,0,0,0,.539-1.242l-1.166-2.955a.469.469,0,0,0-.872.344l1.166,2.955a.02.02,0,0,1-.011.025l-2.55,1.006a.02.02,0,0,1-.025-.011l-3.2-8.124a.018.018,0,0,1,0-.015.019.019,0,0,1,.011-.01l2.55-1.006a.018.018,0,0,1,.015,0,.018.018,0,0,1,.01.011l1.236,3.132a.469.469,0,0,0,.872-.344l-1.236-3.132a.958.958,0,0,0-1.241-.539l-2.55,1.006a.955.955,0,0,0-.574,1.132l-1.367.5a2.662,2.662,0,0,1-1.336.132l-1.382-.219a.469.469,0,0,0-.147.926l1.382.219a3.6,3.6,0,0,0,1.807-.178l1.38-.509,2.668,6.763-2.011,1.292-.034-.025h0l-3.877-2.861a.471.471,0,0,0-.369-.083,5.452,5.452,0,0,1-4.962-1.7,1.059,1.059,0,0,0-1.479-.051c-1.242,1.115-2.977,2.2-4.191,1.049a.279.279,0,0,1,.062-.444,27.7,27.7,0,0,0,4.438-3.7,1.426,1.426,0,0,1,1.235-.4l1.779.282a.469.469,0,0,0,.147-.926L16.324,99.9a2.366,2.366,0,0,0-2.049.671c-.149.151-.326.326-.524.518a6.691,6.691,0,0,0-1.862-.376,21.591,21.591,0,0,0-2.447-.1,2.184,2.184,0,0,1-.977-.164l-.826-.346a.958.958,0,0,0-.575-1.129l-2.55-1.006a.958.958,0,0,0-1.242.539L.067,106.632a.957.957,0,0,0,.539,1.242Zm7.917,3.773a.77.77,0,0,1-1.176-1l1.159-1.361a.77.77,0,1,1,1.175,1h0Zm1.89,1.6a.77.77,0,0,1-1.176-1l1.159-1.361a.773.773,0,0,1,1.143-.036l.006.007a.771.771,0,0,1,.026,1.025Zm1.89,1.6a.77.77,0,0,1-1.176-1l1.159-1.361a.77.77,0,0,1,1.175,1h0Zm3.055.234-.006.007-1.159,1.361a.77.77,0,0,1-1.176-1l1.159-1.361a.77.77,0,0,1,1.182.988ZM7.3,100.979l.8.335a3.124,3.124,0,0,0,1.4.234,21.619,21.619,0,0,1,2.335.1,5.755,5.755,0,0,1,1.126.176,23.672,23.672,0,0,1-2.979,2.321,1.216,1.216,0,0,0-.186,1.9c.783.744,2.534,1.6,5.463-1.031a.126.126,0,0,1,.176,0,6.457,6.457,0,0,0,5.6,2c.246.173-.23-.176,3.727,2.744h0a.96.96,0,0,1,.21,1.351.933.933,0,0,1-1.3.177c-.556-.41-.145-.1-2.1-1.6a.469.469,0,1,0-.572.743l1.62,1.248a.943.943,0,0,1-.085,1.229.962.962,0,0,1-1.244.071c-.372-.274-.063-.039-1.767-1.351a.469.469,0,0,0-.572.743L20.4,113.48a.941.941,0,0,1-.038,1.192.962.962,0,0,1-1.286.115c-.647-.477-.322-.231-1.567-1.194a.469.469,0,1,0-.574.741l1,.771a.936.936,0,0,1-.116,1.144.958.958,0,0,1-1.26.088l-.63-.465.145-.17a1.708,1.708,0,0,0-1.488-2.8,1.707,1.707,0,0,0-1.845-1.607l-.045,0c0-.015,0-.03,0-.045a1.7,1.7,0,0,0-.4-.969l0-.005a1.708,1.708,0,0,0-1.48-.583,1.708,1.708,0,0,0-3.007-1.011l-.706.829-.413-.29-.019-.013L4.573,107.9,7.3,100.979Zm-6.363,6,3.2-8.124a.02.02,0,0,1,.018-.012H4.17l2.55,1.006a.02.02,0,0,1,.011.025L3.526,108a.019.019,0,0,1-.025.011L.95,107a.019.019,0,0,1-.011-.025Z" transform="translate(0 -97.901)"/>
</svg>
