<svg xmlns="http://www.w3.org/2000/svg" width="28.75" height="32" viewBox="0 0 28.75 32">
  <g id="Group_37726" data-name="Group 37726" transform="translate(-26)">
    <g id="Group_37721" data-name="Group 37721" transform="translate(46.566 24.687)">
      <g id="Group_37720" data-name="Group 37720">
        <path id="Path_105381" data-name="Path 105381" d="M356.664,396a.664.664,0,1,0,.664.664A.664.664,0,0,0,356.664,396Z" transform="translate(-356 -396)"/>
      </g>
    </g>
    <g id="Group_37723" data-name="Group 37723" transform="translate(26)">
      <g id="Group_37722" data-name="Group 37722">
        <path id="Path_105382" data-name="Path 105382" d="M48.789,22.729l-2.971-.99-1.066-2.133A6.845,6.845,0,0,0,46.6,15.985l.133-.8h1.137a1.877,1.877,0,0,0,1.875-1.875V9.375a9.375,9.375,0,1,0-18.75,0v3.937a1.878,1.878,0,0,0,1.25,1.767v.733a1.877,1.877,0,0,0,1.875,1.875h.549a6.781,6.781,0,0,0,1.048,1.623c.089.1.181.2.275.3l-1.066,2.132-2.971.99A9.212,9.212,0,0,0,26,31.375a.625.625,0,0,0,.625.625h27.5a.625.625,0,0,0,.625-.625A9.212,9.212,0,0,0,48.789,22.729ZM48.5,13.312a.626.626,0,0,1-.625.625h-.954c.159-1.231.265-2.54.307-3.83,0-.036,0-.072,0-.108H48.5Zm-15.625.625a.626.626,0,0,1-.625-.625V10h1.269q0,.1.007.2V10.2h0c.044,1.255.148,2.53.3,3.734h-.954Zm1.25,2.5a.626.626,0,0,1-.625-.625v-.625h.512l.133.8c.025.152.057.3.093.453ZM33.5,8.75H32.274a8.125,8.125,0,0,1,16.2,0H47.249A6.33,6.33,0,0,0,40.934,2.5H39.816A6.33,6.33,0,0,0,33.5,8.75Zm6.315-5h1.119A5.082,5.082,0,0,1,46,8.838c0,.2,0,.368,0,.524,0,0,0,0,0,.006l-.782-.112a10.043,10.043,0,0,1-5.646-2.823.625.625,0,0,0-.442-.183,5.654,5.654,0,0,0-4.347,2.057A5.081,5.081,0,0,1,39.816,3.75ZM35.534,16.438a35.725,35.725,0,0,1-.75-6.066l.841-1.122a4.4,4.4,0,0,1,3.253-1.743,11.3,11.3,0,0,0,6.159,2.987l.92.132c-.061,1.305-.187,2.615-.367,3.82h0c-.057.387-.1.637-.218,1.333a5.309,5.309,0,0,1-3.768,4.27,4.917,4.917,0,0,1-5.52-2.361h1.274a1.878,1.878,0,0,0,1.767,1.25h1.25a1.875,1.875,0,1,0,0-3.75h-1.25a1.876,1.876,0,0,0-1.769,1.25Zm3.539,4.876a6.269,6.269,0,0,0,2.325.052l-1.1,1.168Zm.361,2.129-1.982,2.1a23.813,23.813,0,0,1-1.4-3.245l.744-1.489Zm4.414-2.849.85,1.7a23.807,23.807,0,0,1-1.4,3.246l-2.122-2.122ZM38.5,17.062a.625.625,0,0,1,.625-.625h1.25a.625.625,0,1,1,0,1.25h-1.25A.626.626,0,0,1,38.5,17.062ZM27.275,30.75a7.9,7.9,0,0,1,5.081-6.835l2.631-.877A25.055,25.055,0,0,0,36.766,26.9l0,.006h0a25.062,25.062,0,0,0,1.711,2.612l.769,1.234Zm13.1-.557-.848-1.361q-.014-.023-.03-.044a23.831,23.831,0,0,1-1.408-2.1l2.229-2.357,2.349,2.349a23.8,23.8,0,0,1-1.413,2.112C41.222,28.828,41.266,28.764,40.375,30.193Zm1.126.557.769-1.234a25.052,25.052,0,0,0,1.723-2.633L44,26.866v0a25.034,25.034,0,0,0,1.76-3.826l2.631.877a7.9,7.9,0,0,1,5.081,6.835H41.5Z" transform="translate(-26)"/>
      </g>
    </g>
    <g id="Group_37725" data-name="Group 37725" transform="translate(48.451 25.564)">
      <g id="Group_37724" data-name="Group 37724">
        <path id="Path_105383" data-name="Path 105383" d="M394.088,417.508a6.639,6.639,0,0,0-1.88-2.282.664.664,0,0,0-.81,1.053,5.3,5.3,0,0,1,1.5,1.823.664.664,0,0,0,1.188-.594Z" transform="translate(-391.139 -415.088)"/>
      </g>
    </g>
  </g>
</svg>
