<svg width="32" height="32" viewBox="0 0 32 32" fill="none" xmlns="http://www.w3.org/2000/svg">
<g clip-path="url(#clip0_24_925)">
<path d="M7.8508 30.153H10.6249C12.233 30.153 12.2354 27.6475 10.6249 27.6475H7.8508C6.24274 27.6475 6.24036 30.153 7.8508 30.153ZM7.8508 28.585H10.6249C11.0324 28.585 11.0324 29.2155 10.6249 29.2155H7.8508C7.44336 29.2155 7.44336 28.585 7.8508 28.585Z" fill="black"/>
<path d="M11.2935 16.1117L8.23982 19.1655L7.18226 18.1078C6.75357 17.6795 6.09076 18.3421 6.51932 18.7708L7.90838 20.1598C8.12938 20.3428 8.35038 20.3428 8.57132 20.1598L11.9565 16.7746C12.385 16.346 11.7222 15.6833 11.2935 16.1117V16.1117Z" fill="black"/>
<path d="M31.6518 20.7372C31.4626 20.376 31.3254 19.9803 31.2323 19.5831C30.7752 17.6709 30.0807 15.8184 29.1684 14.0769L27.6429 11.1653C26.7794 9.51694 24.231 9.791 23.7499 11.5989C22.6087 11.1884 21.3204 11.8632 21.0084 13.0352C20.0649 12.6957 18.9755 13.0956 18.4753 13.9633V3.67019V1.83144C18.4752 0.821625 17.6537 0 16.6437 0H5.72374C5.11768 0 5.11768 0.9375 5.72374 0.9375H16.6437C17.1367 0.9375 17.5377 1.3385 17.5377 1.83144V3.20144H0.937927V1.83144C0.937927 1.3385 1.33893 0.9375 1.83186 0.9375H3.0988C3.70486 0.9375 3.70486 0 3.0988 0H1.83186C0.822052 0 0.000427246 0.821625 0.000427246 1.83144V3.67019V26.263V30.1686C0.000427246 31.1784 0.822052 32 1.83186 32H16.6437C17.6536 32 18.4752 31.1784 18.4752 30.1686V26.263V24.3854L20.1503 25.2139C20.5642 25.4187 20.9044 25.7596 21.1083 26.1739C21.8524 27.6861 23.7597 28.3131 25.2578 27.5281L28.0506 26.065C28.5875 25.7838 28.1524 24.9534 27.6156 25.2346L24.8227 26.6977C23.7854 27.2414 22.4666 26.8108 21.9495 25.76C21.6551 25.1617 21.1637 24.6693 20.5659 24.3736L13.4576 20.8576C12.1226 20.2091 13.0881 18.1147 14.4439 18.7471L17.0249 20.1057C17.4231 20.3154 17.8673 19.8721 17.6585 19.4735L13.1748 10.9152C12.4386 9.53112 14.4102 8.2535 15.1623 9.68925L18.3316 15.7385L19.1594 17.3186C19.4326 17.8404 20.2703 17.4191 19.9898 16.8836L19.1839 15.3453C18.8575 14.2577 20.2002 13.3808 21.0644 14.139L21.9612 15.8507C22.2344 16.3726 23.0721 15.9512 22.7916 15.4157L21.8797 13.6752C21.7944 12.6752 23.0189 12.0318 23.793 12.6913L24.6956 14.4143C24.9689 14.9361 25.8066 14.5147 25.5261 13.9792L24.6232 12.256C24.5004 11.0288 26.2276 10.484 26.8124 11.6003L28.3378 14.5119C29.2142 16.1847 29.8812 17.9642 30.3204 19.8008C30.427 20.2772 30.5947 20.7396 30.8213 21.1722C31.3614 22.2031 30.9621 23.4811 29.9312 24.0212C29.3944 24.3026 29.8296 25.133 30.3663 24.8517C31.8551 24.0718 32.4318 22.226 31.6518 20.7372V20.7372ZM17.5377 30.1686C17.5377 30.6615 17.1367 31.0625 16.6437 31.0625H1.83186C1.33893 31.0625 0.937927 30.6615 0.937927 30.1686V26.7318H17.5377V30.1686ZM12.0531 18.8997C11.7349 19.5686 11.7967 20.3697 12.2113 20.9832C11.4361 21.7944 10.3726 22.2541 9.2378 22.2541C6.96705 22.2541 5.11968 20.4067 5.11968 18.1359C5.11968 15.8652 6.96705 14.0178 9.2378 14.0178C11.3924 14.0178 13.1646 15.6813 13.3404 17.7913C12.7852 17.9606 12.3026 18.375 12.0531 18.8997V18.8997ZM15.4566 8.59775C15.2522 8.43181 15.0164 8.30419 14.7575 8.22331C13.256 7.75412 11.7438 9.131 12.0743 10.6686H3.1753C3.08911 10.6686 3.01905 10.5986 3.01905 10.5124V7.1625C3.01905 7.07631 3.08911 7.00625 3.1753 7.00625H15.3003C15.3865 7.00625 15.4566 7.07631 15.4566 7.1625V8.59775ZM17.5377 12.2032L16.3941 10.0203V7.1625C16.3941 6.55944 15.9034 6.06875 15.3003 6.06875H3.1753C2.57224 6.06875 2.08155 6.55944 2.08155 7.1625V10.5124C2.08155 11.1155 2.57224 11.6062 3.1753 11.6062H12.4783L16.1294 18.575L14.8715 17.9128C14.8659 17.9099 14.8602 17.907 14.8546 17.9043C14.6683 17.8157 14.4735 17.7559 14.2753 17.7248C14.0652 15.1289 11.8869 13.0803 9.23786 13.0803C6.45018 13.0803 4.18224 15.3482 4.18224 18.1359C4.18224 20.9236 6.45018 23.1916 9.23786 23.1916C10.636 23.1916 11.947 22.6246 12.8994 21.6222C14.3865 22.4792 15.9991 23.1606 17.5377 23.9217V25.7942H0.937927V4.13894H17.5377V12.2032Z" fill="black"/>
</g>
<defs>
<clipPath id="clip0_24_925">
<rect width="32" height="32" fill="white"/>
</clipPath>
</defs>
</svg>
