<svg id="Group_37776" data-name="Group 37776" xmlns="http://www.w3.org/2000/svg" width="25.6" height="32" viewBox="0 0 25.6 32">
  <g id="Page-1">
    <g id="_028---Book-Accommodation" data-name="028---Book-Accommodation">
      <path id="Shape" d="M0,3.2V28.8A3.2,3.2,0,0,0,3.2,32H22.4a3.2,3.2,0,0,0,3.2-3.2V3.2A3.2,3.2,0,0,0,22.4,0H3.2A3.2,3.2,0,0,0,0,3.2ZM1.067,16H24.533V26.667a1.6,1.6,0,0,1-1.6,1.6H2.667a1.6,1.6,0,0,1-1.6-1.6Zm23.467-1.067H1.067v-9.6H24.533Zm-2.133,16H3.2A2.133,2.133,0,0,1,1.067,28.8v-.014a2.639,2.639,0,0,0,1.6.547H22.933a2.639,2.639,0,0,0,1.6-.547V28.8A2.133,2.133,0,0,1,22.4,30.933ZM24.533,3.2V4.267H1.067V3.2A2.133,2.133,0,0,1,3.2,1.067H22.4A2.133,2.133,0,0,1,24.533,3.2Z"/>
      <path id="Shape-2" data-name="Shape" d="M24.534,5.068h1.6a.534.534,0,0,0,0-1.068h-1.6a.534.534,0,0,0,0,1.068Z" transform="translate(-11.202 -1.864)"/>
      <circle id="Oval" cx="0.5" cy="0.5" r="0.5" transform="translate(10.801 2.017)"/>
      <path id="Shape-3" data-name="Shape" d="M11.533,19.941a.533.533,0,0,0,.533-.534V18.339H23.789v1.068a.533.533,0,1,0,1.066,0V16.737a1.6,1.6,0,0,0-1.066-1.5V14.068A1.067,1.067,0,0,0,22.723,13h-3.2a1.067,1.067,0,0,0-1.066,1.068v1.068H17.394V14.068A1.067,1.067,0,0,0,16.329,13h-3.2a1.067,1.067,0,0,0-1.066,1.068v1.166A1.6,1.6,0,0,0,11,16.737v2.669A.533.533,0,0,0,11.533,19.941Zm7.993-5.873h3.2v1.068h-3.2Zm-6.394,0h3.2v1.068h-3.2Zm-1.066,2.669A.533.533,0,0,1,12.6,16.2H23.256a.533.533,0,0,1,.533.534v.534H12.066Z" transform="translate(-5.127 -6.069)"/>
      <path id="Shape-4" data-name="Shape" d="M9.534,42.339H10.6a1.595,1.595,0,0,0,1.185-2.669A1.595,1.595,0,0,0,10.6,37H9.534A.534.534,0,0,0,9,37.534V41.8A.534.534,0,0,0,9.534,42.339ZM10.6,41.271h-.534V40.2H10.6a.534.534,0,1,1,0,1.068Zm-.534-3.2H10.6a.534.534,0,0,1,0,1.068h-.534Z" transform="translate(-4.201 -17.271)"/>
      <path id="Shape-5" data-name="Shape" d="M18.6,42.339a1.6,1.6,0,0,0,1.6-1.6V38.6a1.6,1.6,0,1,0-3.2,0v2.136A1.6,1.6,0,0,0,18.6,42.339ZM18.068,38.6a.534.534,0,0,1,1.068,0v2.136a.534.534,0,1,1-1.068,0Z" transform="translate(-7.935 -17.271)"/>
      <path id="Shape-6" data-name="Shape" d="M26.6,42.339a1.6,1.6,0,0,0,1.6-1.6V38.6a1.6,1.6,0,1,0-3.2,0v2.136A1.6,1.6,0,0,0,26.6,42.339ZM26.068,38.6a.534.534,0,0,1,1.068,0v2.136a.534.534,0,1,1-1.068,0Z" transform="translate(-11.669 -17.271)"/>
      <path id="Shape-7" data-name="Shape" d="M33.534,42.339a.534.534,0,0,0,.534-.534v-.847l1.224,1.224a.534.534,0,0,0,.755-.755l-1.758-1.758,1.758-1.758a.534.534,0,0,0-.755-.755l-1.224,1.224v-.847a.534.534,0,1,0-1.068,0V41.8A.534.534,0,0,0,33.534,42.339Z" transform="translate(-15.403 -17.271)"/>
      <path id="Shape-8" data-name="Shape" d="M7.2,42.61H22.13a3.2,3.2,0,0,0,3.2-3.2V36.2a3.2,3.2,0,0,0-3.2-3.2H7.2A3.2,3.2,0,0,0,4,36.2v3.2A3.2,3.2,0,0,0,7.2,42.61ZM5.066,36.2A2.134,2.134,0,0,1,7.2,34.068H22.13A2.134,2.134,0,0,1,24.262,36.2v3.2a2.134,2.134,0,0,1-2.133,2.136H7.2a2.134,2.134,0,0,1-2.133-2.136Z" transform="translate(-1.864 -15.408)"/>
    </g>
  </g>
</svg>
