<svg xmlns="http://www.w3.org/2000/svg" width="32" height="32.001" viewBox="0 0 32 32.001">
  <g id="Group_37779" data-name="Group 37779" transform="translate(-0.007)">
    <g id="Group_37778" data-name="Group 37778" transform="translate(0.007 0)">
      <path id="Path_105489" data-name="Path 105489" d="M107.5,444.853h2.765a1.249,1.249,0,0,0,0-2.5H107.5A1.249,1.249,0,0,0,107.5,444.853Zm0-1.563h2.765a.314.314,0,0,1,0,.628H107.5A.314.314,0,0,1,107.5,443.29Z" transform="translate(-99.654 -414.693)"/>
      <path id="Path_105490" data-name="Path 105490" d="M106.987,255.711l-3.044,3.044L102.89,257.7a.467.467,0,0,0-.661.661l1.384,1.384a.467.467,0,0,0,.661,0l3.374-3.374A.467.467,0,0,0,106.987,255.711Z" transform="translate(-95.706 -239.591)"/>
      <path id="Path_105491" data-name="Path 105491" d="M31.659,20.738a4.918,4.918,0,0,1-.42-1.154,23.8,23.8,0,0,0-2.064-5.506L27.65,11.166a2.123,2.123,0,0,0-3.893.434,2.122,2.122,0,0,0-2.742,1.436,2.128,2.128,0,0,0-2.533.928V1.831A1.834,1.834,0,0,0,16.651,0H5.73a.469.469,0,0,0,0,.938h10.92a.9.9,0,0,1,.894.894V3.2H.945V1.831A.9.9,0,0,1,1.838.938H3.105a.469.469,0,0,0,0-.938H1.838A1.834,1.834,0,0,0,.007,1.831V30.169A1.834,1.834,0,0,0,1.838,32H16.651a1.834,1.834,0,0,0,1.832-1.831V24.386l1.675.829a2.122,2.122,0,0,1,.958.96,3.08,3.08,0,0,0,4.15,1.354l2.793-1.463a.469.469,0,0,0-.435-.83L24.83,26.7a2.13,2.13,0,0,1-2.873-.938,3.065,3.065,0,0,0-1.384-1.386l-7.109-3.516a1.166,1.166,0,0,1,.986-2.111l2.581,1.359a.472.472,0,0,0,.634-.632l-4.484-8.558c-.736-1.384,1.235-2.662,1.988-1.226l3.169,6.049.828,1.58a.469.469,0,0,0,.83-.435l-.806-1.538a1.169,1.169,0,0,1,1.881-1.206l.9,1.712a.469.469,0,0,0,.83-.435l-.912-1.741a1.176,1.176,0,0,1,1.913-.984l.9,1.723a.469.469,0,0,0,.83-.435l-.9-1.723A1.17,1.17,0,0,1,26.82,11.6l1.525,2.912A22.867,22.867,0,0,1,30.328,19.8a5.582,5.582,0,0,0,.5,1.371,2.113,2.113,0,0,1-.89,2.849.469.469,0,0,0,.435.83,3.051,3.051,0,0,0,1.286-4.115ZM17.545,30.169a.9.9,0,0,1-.894.894H1.838a.9.9,0,0,1-.894-.894V26.732h16.6ZM12.06,18.9a2.118,2.118,0,0,0,.158,2.083,4.118,4.118,0,1,1,1.129-3.192A2.14,2.14,0,0,0,12.06,18.9Zm3.4-10.3a2.1,2.1,0,0,0-.7-.374,2.126,2.126,0,0,0-2.683,2.445h-8.9a.156.156,0,0,1-.156-.156V7.163a.156.156,0,0,1,.156-.156H15.307a.156.156,0,0,1,.156.156ZM17.545,12.2,16.4,10.021V7.163a1.1,1.1,0,0,0-1.094-1.094H3.182A1.1,1.1,0,0,0,2.088,7.163v3.35a1.1,1.1,0,0,0,1.094,1.094h9.3l3.651,6.969-1.258-.662-.017-.009a2.108,2.108,0,0,0-.579-.18,5.053,5.053,0,1,0-1.376,3.9c1.487.857,3.1,1.538,4.639,2.3v1.873H.945V4.139h16.6Z" transform="translate(-0.007 0)"/>
    </g>
  </g>
</svg>
