<svg xmlns="http://www.w3.org/2000/svg" width="60" height="60" viewBox="0 0 60 60">
  <g id="Group_37743" data-name="Group 37743" transform="translate(0.006 0.006)">
    <g id="Group_37743-2" data-name="Group 37743" transform="translate(-0.006 -0.006)">
      <path id="_x35_" d="M85.536,15.884a20.452,20.452,0,0,1-3.519,2.284,34.007,34.007,0,0,1,1.594,9.667h7.37A17.877,17.877,0,0,0,85.748,16.1ZM90.98,29.707h-7.37a33.6,33.6,0,0,1-1.5,9.348,3.1,3.1,0,0,1-.106.319,20.053,20.053,0,0,1,3.532,2.284A17.956,17.956,0,0,0,90.98,29.707ZM84.1,42.906a18.759,18.759,0,0,0-2.748-1.779,15.733,15.733,0,0,1-3.453,5.3.926.926,0,0,1-1.315-.027.942.942,0,0,1,.027-1.328,13.781,13.781,0,0,0,3.041-4.714,1.794,1.794,0,0,1-.239-.093,17.734,17.734,0,0,0-5.4-1.115V39.4a.935.935,0,0,1-.929.943.947.947,0,0,1-.943-.943V29.707h-4.4a.935.935,0,0,1-.929-.943.924.924,0,0,1,.929-.929h4.4V20.279a20.04,20.04,0,0,1-4.3-.691,18.818,18.818,0,0,1-1.965-.651,31.861,31.861,0,0,0-1.46,9.827.936.936,0,1,1-1.873,0,34.164,34.164,0,0,1,1.606-10.6c-.4-.213-.783-.425-1.168-.651a.932.932,0,0,1,.943-1.607c.292.172.584.345.889.491.2-.478.412-.943.651-1.395a14.771,14.771,0,0,1,2.257-3.347,18.157,18.157,0,0,0-4.355,2.045.938.938,0,0,1-1.01-1.581A19.637,19.637,0,0,1,73.08,8.978a19.793,19.793,0,0,1,9.229,37.3.923.923,0,0,1-1.262-.385.937.937,0,0,1,.385-1.261A25.831,25.831,0,0,0,84.1,42.906ZM78.445,11.661A15.155,15.155,0,0,1,80.7,15.007c.226.452.438.916.652,1.395A18.6,18.6,0,0,0,84.1,14.635,18.04,18.04,0,0,0,78.445,11.661ZM80.291,38.6l.039-.106a31.6,31.6,0,0,0,1.408-8.79H74.01v7.556a20.012,20.012,0,0,1,6.068,1.261C80.158,38.55,80.224,38.577,80.291,38.6Zm1.448-10.769a31.237,31.237,0,0,0-1.448-8.9c-.067.027-.147.053-.213.08a19.984,19.984,0,0,1-6.068,1.262v7.556ZM74.01,10.957v7.436a17.741,17.741,0,0,0,5.4-1.128c.08-.027.159-.053.225-.08-.186-.465-.385-.9-.6-1.328-1.368-2.669-3.12-4.448-5.032-4.9Zm-1.873,7.436V10.957c-1.912.452-3.664,2.231-5.019,4.9-.212.425-.412.863-.61,1.328a17.2,17.2,0,0,0,1.819.6,17.145,17.145,0,0,0,3.811.611Z" transform="translate(-32.879 -4.769)"/>
      <path id="_x34_" d="M11.56,53.479l1.886,5.935,3.612-2.629-4.05-4.555Zm2.257-3.161,4.621,5.205,4.608-5.205.013-.013a.916.916,0,0,1,1.314-.093l2.51,2.165L32.9,55.006a6.489,6.489,0,0,1,2.908,2.47,6.9,6.9,0,0,1,1.062,3.718v3.413a.936.936,0,1,1-1.872,0V61.194a5,5,0,0,0-.757-2.709,4.785,4.785,0,0,0-2.085-1.767l-5.2-2.271L24.8,61.22a.927.927,0,0,1-1.434.465l-4-2.908V65.31a.935.935,0,0,1-.929.943.946.946,0,0,1-.943-.943V58.777l-3.984,2.908a2.811,2.811,0,0,1-.279.133.923.923,0,0,1-1.169-.6L9.913,54.449,4.708,56.719a4.675,4.675,0,0,0-2.071,1.767,4.9,4.9,0,0,0-.77,2.709V76.651a.936.936,0,0,1-.929.943.947.947,0,0,1-.943-.943V61.194a6.9,6.9,0,0,1,1.062-3.718,6.56,6.56,0,0,1,2.908-2.47L9.98,52.377l2.509-2.165a.917.917,0,0,1,1.315.093ZM7.231,68.4a.936.936,0,0,1,1.872,0v8.246a.936.936,0,1,1-1.872,0ZM23.856,52.231l-4.05,4.555,3.612,2.629L25.3,53.479Z" transform="translate(0.006 -26.53)"/>
      <path id="_x33_" d="M52.715,83.929H31.947a1.837,1.837,0,0,0-1.7,1.46l-2.629,14.952a1.091,1.091,0,0,0,1.115,1.367h20.3a2.133,2.133,0,0,0,1.978-1.7l2.617-14.939a1.223,1.223,0,0,0,.027-.226A.885.885,0,0,0,52.715,83.929Zm-10.981,7.9a.947.947,0,0,1,.943.943.935.935,0,0,1-.943.929.924.924,0,0,1-.929-.929A.935.935,0,0,1,41.734,91.83Zm-9.786-9.773H52.715a2.285,2.285,0,0,1,.518.053,2.731,2.731,0,0,1,2.3,2.735,3.818,3.818,0,0,1-.053.544l-2.616,14.952a4.035,4.035,0,0,1-3.824,3.24h-20.3a2.937,2.937,0,0,1-3-2.988,4.6,4.6,0,0,1,.04-.584L28.4,85.071A3.736,3.736,0,0,1,31.947,82.057Z" transform="translate(-13.662 -43.581)"/>
      <path id="_x32_" d="M16.375,114.031a.936.936,0,0,1,.943.929,1,1,0,0,1-.027.2l-.385,2.178a1.623,1.623,0,0,0-.013.252,1.1,1.1,0,0,0,.239.731,1.055,1.055,0,0,0,.651.358c.067.013.146.013.226.027l.013,1.872H9.244a3.2,3.2,0,0,1-1.739-.5,2.407,2.407,0,0,1-1.049-1.447l-.85-3.439a.933.933,0,0,1,.69-1.128.617.617,0,0,1,.225-.027ZM15.26,115.9H7.7l.571,2.284a.5.5,0,0,0,.252.319,1.294,1.294,0,0,0,.717.2h5.976a3.072,3.072,0,0,1-.2-1.115,4.6,4.6,0,0,1,.04-.584Z" transform="translate(-2.963 -60.577)"/>
      <path id="_x31_" d="M25.377,22.05l-.319,2.417a.938.938,0,1,1-1.859-.252l.491-3.585-.239-.212a7.724,7.724,0,0,1-2.019-2.789,8.613,8.613,0,0,1-.69-3.479V8.479A8.351,8.351,0,0,1,23.16,2.331,8.837,8.837,0,0,1,29.467-.006a8.827,8.827,0,0,1,6.295,2.337,8.351,8.351,0,0,1,2.417,6.148v5.67a8.708,8.708,0,0,1-.69,3.479,7.72,7.72,0,0,1-2.019,2.789l-.239.212.491,3.585a.952.952,0,0,1-.8,1.062.931.931,0,0,1-1.049-.81l-.332-2.417a6.149,6.149,0,0,1-1.3.69,8.669,8.669,0,0,1-5.564,0A6.12,6.12,0,0,1,25.377,22.05ZM22.642,7.868a3.1,3.1,0,0,0,4.13-2.032.932.932,0,0,1,1.222-.5.912.912,0,0,1,.518.544c.013.013,1.713,4.887,7.795,3.36V8.48A6.5,6.5,0,0,0,34.46,3.672a6.979,6.979,0,0,0-4.993-1.806,6.992,6.992,0,0,0-5.006,1.806A6.329,6.329,0,0,0,22.642,7.868Zm13.664,3.293c-4.873,1.062-7.476-1.315-8.685-3.041a4.548,4.548,0,0,1-5.006,1.673v4.356a6.98,6.98,0,0,0,.531,2.736A5.832,5.832,0,0,0,24.7,19.022l1.129,1.009a5.07,5.07,0,0,0,1.54.969,6.815,6.815,0,0,0,4.183,0,5.3,5.3,0,0,0,1.553-.969l1.129-1.009a5.573,5.573,0,0,0,1.5-2.058,6.85,6.85,0,0,0,.571-2.815V11.161Z" transform="translate(-11.016 0.006)"/>
    </g>
  </g>
</svg>
