<svg xmlns="http://www.w3.org/2000/svg" width="32" height="29.002" viewBox="0 0 32 29.002">
  <g id="Group_37719" data-name="Group 37719" transform="translate(-1 -3.999)">
    <path id="Path_105380" data-name="Path 105380" d="M28.8,24.246h-.173l-1.894-4.607a2.531,2.531,0,0,0,1.018.23.536.536,0,0,0,.525-.547V14.943a.536.536,0,0,0-.525-.547,2.635,2.635,0,0,0-2.471,1.86,1.924,1.924,0,0,0-1.322-.826,2.517,2.517,0,0,0-1,.066h-.456c-.886,0-1.28-.547-1.9-1.439L20.3,13.6a1.759,1.759,0,0,0,.892-.3,2,2,0,0,0,.761-1.3,1.532,1.532,0,0,0,.692-.952,1,1,0,0,0-.288-.859,2.7,2.7,0,0,1-.341-1.259.538.538,0,0,0,.493-.558,4.474,4.474,0,0,0-1.25-3.117,4.106,4.106,0,0,0-3-1.26,4.317,4.317,0,0,0-4.139,4.317,4.445,4.445,0,0,0,1.206,3.135,4.333,4.333,0,0,0,.367.339c-2.025.514-3.089,2.5-3.635,4.213a1.634,1.634,0,0,0-1.185-.514H5.3a1.652,1.652,0,0,0-1.406.8.562.562,0,0,0,.155.758.512.512,0,0,0,.726-.161.613.613,0,0,1,.525-.3h.949v1.642a.536.536,0,0,0,.525.547H9.392a.536.536,0,0,0,.525-.547V16.585h.949a.638.638,0,0,1,.624.651v4.175a.638.638,0,0,1-.624.646H5.3a.622.622,0,0,1-.624-.547H5.721a.548.548,0,0,0,0-1.094H4.672V19.321H5.2a.548.548,0,0,0,0-1.094H2.574a.548.548,0,0,0,0,1.094H3.623v1.094h-2.1a.548.548,0,0,0,0,1.094h2.1a1.7,1.7,0,0,0,1.663,1.642H7.908a3.639,3.639,0,0,0-.614.843,10.385,10.385,0,0,0-1.049,4.629.536.536,0,0,0,.525.547H8.38a4.26,4.26,0,0,0,4.159,3.8,4.26,4.26,0,0,0,4.159-3.8H24.64a4.244,4.244,0,0,0,4.515,3.815,4.389,4.389,0,0,0-.355-8.74ZM8.868,17.679H7.294V16.585H8.868Zm18.358-2.1v3.1a1.666,1.666,0,0,1,0-3.1Zm-3.42.925a1.027,1.027,0,0,1,.839.837l.136.334a4.61,4.61,0,0,1-2.366.547,1.3,1.3,0,0,1,1.39-1.713Zm-2.586-5.341a.55.55,0,0,0-.288.492,1.008,1.008,0,0,1-.33.722c-.3.208-.855.159-1.574-.137a.5.5,0,0,0-.115,0l-.079-.071v-2.1a1.131,1.131,0,0,1,1.107-1.155h.991a3.77,3.77,0,0,0,.614,1.981,1.4,1.4,0,0,1-.325.268Zm-6.058-2.84a3.276,3.276,0,0,1,3.1-3.234h.047A3.189,3.189,0,0,1,21.415,7.83H19.941a2.209,2.209,0,0,0-2.156,2.249v1.538a3.249,3.249,0,0,1-2.623-3.283Zm1.574,4.427c1.715,0,2.345.936,3.011,1.921a3.866,3.866,0,0,0,1.993,1.789,2.83,2.83,0,0,0-.383,1.674,4.793,4.793,0,0,1-3.121-2.386.516.516,0,0,0-.952-.04.567.567,0,0,0,.055.587,6.659,6.659,0,0,0,.65.941l-.047.033a4.844,4.844,0,0,0-1,2.046h-4.4v-.547C12.576,18.44,13.174,12.755,16.736,12.755Zm-4.2,8.651v-.99H17.26a2.583,2.583,0,0,1,2.623,2.736v2.736h-2.1V24.793a2.7,2.7,0,0,0-.739-1.965,2.473,2.473,0,0,0-1.884-.771H12.419a1.8,1.8,0,0,0,.121-.651Zm0,10.5a3.189,3.189,0,0,1-3.1-2.736h1.075a2.077,2.077,0,0,0,4.049,0H15.64a3.189,3.189,0,0,1-3.1,2.736Zm-.9-2.736h1.8a1.027,1.027,0,0,1-1.8,0ZM7.294,28.076a9.1,9.1,0,0,1,.955-3.606A2.388,2.388,0,0,1,10.4,23.151h4.757a1.461,1.461,0,0,1,1.138.454,1.6,1.6,0,0,1,.436,1.187v1.642a2.815,2.815,0,0,0,.525,1.642Zm12.064,0a1.579,1.579,0,0,1-1.479-1.094h2.528a.963.963,0,0,1,.748.286,1.052,1.052,0,0,1,.3.77,4.026,4.026,0,0,1-.525.038Zm3.362-.64a1.373,1.373,0,0,1-.257.235,2.013,2.013,0,0,0-1.532-1.707V23.151A3.555,3.555,0,0,0,18.005,19.4a3.755,3.755,0,0,1,.677-1.341.518.518,0,0,0,.037-.06,5.617,5.617,0,0,0,2.832,1.28l1.479,6.709A2.015,2.015,0,0,1,22.721,27.436Zm1.359-1.669-1.442-6.446a5.452,5.452,0,0,0,2.56-.613l2.476,6.019-2.287,3.349H23.555a3.167,3.167,0,0,0,.525-2.309ZM28.8,28.076h-.9a1.032,1.032,0,0,1,1.18-.51,1.107,1.107,0,0,1,0,2.114,1.032,1.032,0,0,1-1.18-.51h.9a.548.548,0,0,0,0-1.094Zm-2.13,0,.184-.268a2.259,2.259,0,0,0-.079.268Zm2.13,3.83a3.189,3.189,0,0,1-3.1-2.736h1.075a2.076,2.076,0,0,0,4.038.088,2.236,2.236,0,0,0-.873-2.48,2.031,2.031,0,0,0-2.525.2l1.117-1.642H28.8a3.286,3.286,0,0,1,0,6.566Z"/>
  </g>
</svg>
