<svg xmlns="http://www.w3.org/2000/svg" width="32" height="32" viewBox="0 0 32 32">
  <g id="Group_37988" data-name="Group 37988" transform="translate(-10.343 -16)">
    <g id="_OUTLINE" data-name="/ OUTLINE" transform="translate(10.343 16)">
      <path id="Path_105902" data-name="Path 105902" d="M114.12,83.179a1.061,1.061,0,0,0,1.06-1.06V81.06A1.061,1.061,0,0,0,114.12,80h-1.06A1.061,1.061,0,0,0,112,81.06v1.06a1.061,1.061,0,0,0,1.06,1.06Zm-1.06-2.12h1.06v1.06h-1.06Z" transform="translate(-105.306 -75.761)"/>
      <path id="Path_105903" data-name="Path 105903" d="M177.06,83.179h1.06a1.061,1.061,0,0,0,1.06-1.06V81.06A1.061,1.061,0,0,0,178.12,80h-1.06A1.061,1.061,0,0,0,176,81.06v1.06A1.061,1.061,0,0,0,177.06,83.179Zm0-2.12h1.06v1.06h-1.06Z" transform="translate(-165.091 -75.761)"/>
      <path id="Path_105904" data-name="Path 105904" d="M241.06,83.179h1.06a1.061,1.061,0,0,0,1.06-1.06V81.06A1.061,1.061,0,0,0,242.12,80h-1.06A1.061,1.061,0,0,0,240,81.06v1.06A1.061,1.061,0,0,0,241.06,83.179Zm0-2.12h1.06v1.06h-1.06Z" transform="translate(-224.877 -75.761)"/>
      <path id="Path_105905" data-name="Path 105905" d="M30.747,24.434V17.581A1.583,1.583,0,0,0,29.165,16H16.514a1.583,1.583,0,0,0-1.581,1.581V29.4l-2.7,2.7a1.571,1.571,0,0,0-.463,1.118V37.7a1.571,1.571,0,0,1-.463,1.118l-.964.964.745.745.964-.964a2.618,2.618,0,0,0,.772-1.864V33.214a.524.524,0,0,1,.154-.373l2.854-2.854A.964.964,0,0,1,17.2,31.35l-1.8,1.8a1.571,1.571,0,0,0-.463,1.118v6.506a1.583,1.583,0,0,0,1.581,1.581h2.944l-.591.591a1.571,1.571,0,0,1-1.118.463h-.889A2.618,2.618,0,0,0,15,44.182l-3.072,3.072L12.67,48l3.072-3.072a1.571,1.571,0,0,1,1.118-.463h.889a2.618,2.618,0,0,0,1.864-.772l.763-.763a11.587,11.587,0,0,0,9.316,4.7h1.054a11.6,11.6,0,0,0,0-23.193Zm-4.365-7.38-.164.655a.526.526,0,0,1-.511.4H19.973a.526.526,0,0,1-.511-.4l-.164-.655Zm-9.867,11.6a2.028,2.028,0,0,0-.527.07V17.581a.528.528,0,0,1,.527-.527h1.7l.228.911a1.579,1.579,0,0,0,1.534,1.2h5.733a1.579,1.579,0,0,0,1.534-1.2l.228-.911h1.7a.528.528,0,0,1,.527.527v6.853H18.1v4.982a2.049,2.049,0,0,0-.154-.174,2,2,0,0,0-1.427-.591Zm0,12.651a.528.528,0,0,1-.527-.527V34.268a.524.524,0,0,1,.154-.373l1.8-1.8a2.051,2.051,0,0,0,.154-.174v4.108A11.526,11.526,0,0,0,19.364,41.3Zm14.232,5.271H29.692A10.554,10.554,0,0,1,19.15,36.031V25.488h11.6a10.542,10.542,0,1,1,0,21.085Z" transform="translate(-10.343 -16)"/>
      <path id="Path_105906" data-name="Path 105906" d="M376,24h1.06v1.59H376Z" transform="translate(-351.911 -23.47)"/>
      <path id="Path_105907" data-name="Path 105907" d="M352,48h1.59v1.06H352Z" transform="translate(-329.494 -45.88)"/>
      <path id="Path_105908" data-name="Path 105908" d="M376,64h1.06v1.59H376Z" transform="translate(-351.911 -60.821)"/>
      <path id="Path_105909" data-name="Path 105909" d="M392,48h1.59v1.06H392Z" transform="translate(-366.859 -45.88)"/>
      <path id="Path_105910" data-name="Path 105910" d="M448,88h1.06v1.59H448Z" transform="translate(-419.179 -83.231)"/>
      <path id="Path_105911" data-name="Path 105911" d="M424,112h1.59v1.06H424Z" transform="translate(-396.769 -105.676)"/>
      <path id="Path_105912" data-name="Path 105912" d="M448,128h1.06v1.59H448Z" transform="translate(-419.179 -120.622)"/>
      <path id="Path_105913" data-name="Path 105913" d="M464,112h1.59v1.06H464Z" transform="translate(-434.12 -105.676)"/>
      <path id="Path_105914" data-name="Path 105914" d="M212.811,205.3l.744-2.976-7.516-2.891-7.516,2.891.744,2.976h.414v5.3h-1.06v3.179h14.837v-3.179H212.4v-5.3Zm-6.773-4.731,6.261,2.408-.316,1.263h-11.89l-.316-1.263Zm5.3,4.731v5.3h-1.06v-5.3Zm-2.12,0v5.3h-1.59v-5.3Zm-2.649,0v5.3h-1.06v-5.3Zm-2.12,0v5.3h-1.59v-5.3Zm-2.65,0v5.3h-1.06v-5.3Zm10.6,7.419H199.679v-1.06H212.4Z" transform="translate(-186.226 -187.394)"/>
      <path id="Path_105915" data-name="Path 105915" d="M288,240h3.179v1.06H288Z" transform="translate(-269.716 -225.243)"/>
    </g>
  </g>
</svg>
