<svg xmlns="http://www.w3.org/2000/svg" width="32.018" height="32" viewBox="0 0 32.018 32">
  <g id="Group_37777" data-name="Group 37777" transform="translate(0 -0.013)">
    <g id="A_B_Comparison" data-name="A B Comparison" transform="translate(0 0.013)">
      <path id="Path_105481" data-name="Path 105481" d="M13.341,26.677V10.668A2.668,2.668,0,0,0,10.673,8h-8A2.668,2.668,0,0,0,0,10.668V26.677a2.668,2.668,0,0,0,2.668,2.668h8A2.668,2.668,0,0,0,13.341,26.677Zm-4-17.343V10a.667.667,0,0,1-.667.667h-4A.667.667,0,0,1,4,10V9.334Zm-8,17.343V10.668A1.334,1.334,0,0,1,2.668,9.334V10a2,2,0,0,0,2,2h4a2,2,0,0,0,2-2V9.334a1.334,1.334,0,0,1,1.334,1.334V26.677a1.334,1.334,0,0,1-1.334,1.334h-8A1.334,1.334,0,0,1,1.334,26.677Z" transform="translate(0 -2.673)"/>
      <path id="Path_105482" data-name="Path 105482" d="M38.673,8h-8A2.668,2.668,0,0,0,28,10.668V26.677a2.668,2.668,0,0,0,2.668,2.668h8a2.668,2.668,0,0,0,2.668-2.668V10.668A2.668,2.668,0,0,0,38.673,8ZM37.338,9.334V10a.667.667,0,0,1-.667.667h-4A.667.667,0,0,1,32,10V9.334Zm2.668,17.343a1.334,1.334,0,0,1-1.334,1.334h-8a1.334,1.334,0,0,1-1.334-1.334V10.668a1.334,1.334,0,0,1,1.334-1.334V10a2,2,0,0,0,2,2h4a2,2,0,0,0,2-2V9.334a1.334,1.334,0,0,1,1.334,1.334Z" transform="translate(-9.323 -2.673)"/>
      <path id="Path_105483" data-name="Path 105483" d="M11.337,34H4.667a.667.667,0,1,0,0,1.334h6.67a.667.667,0,1,0,0-1.334Z" transform="translate(-1.332 -11.33)"/>
      <path id="Path_105484" data-name="Path 105484" d="M39.337,34h-6.67a.667.667,0,1,0,0,1.334h6.67a.667.667,0,1,0,0-1.334Z" transform="translate(-10.655 -11.33)"/>
      <path id="Path_105485" data-name="Path 105485" d="M7.462,23.334a.667.667,0,0,0,.88-.454l.067-.213H9.676l.067.213a.667.667,0,0,0,.6.454.834.834,0,0,0,.213-.033.667.667,0,0,0,.454-.847l-1.334-4a.667.667,0,0,0-1.267,0l-1.334,4a.667.667,0,0,0,.387.88Zm1.734-2H8.822l.187-.56Z" transform="translate(-2.339 -6)"/>
      <path id="Path_105486" data-name="Path 105486" d="M35.667,23.336h1.668a1.668,1.668,0,0,0,1.334-2.668A1.668,1.668,0,0,0,37.335,18H35.667a.667.667,0,0,0-.667.667v4A.667.667,0,0,0,35.667,23.336Zm.667-4h1a.334.334,0,0,1,0,.667h-1Zm0,2h1a.334.334,0,1,1,0,.667h-1Z" transform="translate(-11.654 -6.002)"/>
      <path id="Path_105487" data-name="Path 105487" d="M27.623,42.113a14.675,14.675,0,0,1-16.542,0,.668.668,0,1,0-.747,1.107,16.009,16.009,0,0,0,18.01,0,.668.668,0,0,0-.747-1.107Z" transform="translate(-3.343 -13.993)"/>
      <path id="Path_105488" data-name="Path 105488" d="M11.037,3.893a14.675,14.675,0,0,1,16.542,0,.675.675,0,1,0,.774-1.107,16.009,16.009,0,0,0-18.01,0,.667.667,0,1,0,.694,1.107Z" transform="translate(-3.299 -0.013)"/>
    </g>
  </g>
</svg>
