<svg width="32" height="32" viewBox="0 0 32 32" fill="none" xmlns="http://www.w3.org/2000/svg">
<path d="M30.7478 11.603V10.4554C30.7478 10.3611 30.7212 10.2687 30.6709 10.189L27.7581 5.56555V1.74805C27.7581 1.61544 27.7054 1.48827 27.6116 1.3945C27.5178 1.30073 27.3907 1.24805 27.2581 1.24805H4.74194C4.60934 1.24805 4.48216 1.30073 4.3884 1.3945C4.29463 1.48827 4.24195 1.61544 4.24194 1.74805V5.56555L1.3291 10.189C1.27887 10.2688 1.25221 10.3611 1.2522 10.4554V11.5257C1.25319 12.0841 1.43833 12.6266 1.77893 13.0691C2.11953 13.5116 2.59656 13.8293 3.13611 13.9732V26.6716H1.75891C1.6263 26.6716 1.49913 26.7243 1.40536 26.8181C1.3116 26.9118 1.25892 27.039 1.25891 27.1716C1.25997 28.1209 1.63752 29.0309 2.30873 29.7021C2.97994 30.3733 3.89 30.7509 4.83923 30.7519H27.1606C28.1099 30.7509 29.0199 30.3733 29.6911 29.7021C30.3623 29.0309 30.7399 28.1208 30.741 27.1716C30.741 27.039 30.6883 26.9118 30.5945 26.8181C30.5007 26.7243 30.3736 26.6716 30.241 26.6716H28.8638V13.9907C29.4 13.8614 29.8772 13.5558 30.2189 13.1228C30.5606 12.6898 30.7468 12.1546 30.7478 11.603V11.603ZM29.7478 11.603C29.7474 11.9896 29.5936 12.3603 29.3202 12.6336C29.0468 12.907 28.6762 13.0607 28.2896 13.0612C27.862 13.0607 27.4521 12.8906 27.1498 12.5883C26.8475 12.286 26.6775 11.8761 26.677 11.4486V10.9554H29.7478L29.7478 11.603ZM13.4646 11.5257C13.4646 11.933 13.3028 12.3235 13.0149 12.6114C12.7269 12.8994 12.3364 13.0611 11.9292 13.0611C11.522 13.0611 11.1315 12.8994 10.8435 12.6114C10.5556 12.3235 10.3938 11.933 10.3938 11.5257V10.9554H13.4646V11.5257ZM9.3938 11.5257C9.39328 11.9326 9.23129 12.3227 8.9434 12.6102C8.65551 12.8977 8.26527 13.0592 7.8584 13.0592C7.45152 13.0592 7.06128 12.8977 6.7734 12.6102C6.48551 12.3227 6.32352 11.9326 6.323 11.5257V10.9554H9.3938V11.5257ZM22.4831 9.95543L21.4025 6.18554H23.4089L25.356 9.95544L22.4831 9.95543ZM21.4429 9.95543H18.4813L18.0479 6.18554H20.3623L21.4429 9.95543ZM17.4746 9.95543H14.5254L14.9586 6.18553H17.0413L17.4746 9.95543ZM13.5188 9.95543H10.5573L11.6378 6.18553H13.9521L13.5188 9.95543ZM9.51702 9.95543H6.60217L8.32996 6.18553H10.5976L9.51702 9.95543ZM14.4646 10.9554H17.5354V11.5257C17.5354 11.933 17.3736 12.3235 17.0857 12.6114C16.7977 12.8994 16.4072 13.0611 16 13.0611C15.5928 13.0611 15.2023 12.8994 14.9143 12.6114C14.6264 12.3235 14.4646 11.933 14.4646 11.5257L14.4646 10.9554ZM18.5354 10.9554H21.6062V11.5257C21.6062 11.933 21.4444 12.3235 21.1565 12.6114C20.8685 12.8994 20.478 13.0611 20.0708 13.0611C19.6636 13.0611 19.2731 12.8994 18.9851 12.6114C18.6972 12.3235 18.5354 11.933 18.5354 11.5257L18.5354 10.9554ZM22.6062 10.9554H25.677V11.5257C25.6765 11.9326 25.5145 12.3227 25.2266 12.6102C24.9387 12.8977 24.5485 13.0592 24.1416 13.0592C23.7347 13.0592 23.3445 12.8977 23.0566 12.6102C22.7687 12.3227 22.6067 11.9326 22.6062 11.5257L22.6062 10.9554ZM26.4816 9.95543L24.5345 6.18554H26.9668L29.3418 9.95544L26.4816 9.95543ZM5.24194 2.24804H26.7581V5.18554H5.24194V2.24804ZM5.03332 6.18554H7.22991L5.50206 9.95544H2.6582L5.03332 6.18554ZM2.2522 11.5257V10.9554H5.323V11.5257C5.323 11.933 5.16124 12.3235 4.87329 12.6114C4.58535 12.8994 4.19481 13.0611 3.7876 13.0611C3.38039 13.0611 2.98985 12.8994 2.70191 12.6114C2.41396 12.3235 2.2522 11.933 2.2522 11.5257H2.2522ZM27.1606 29.7519H4.83923C4.24184 29.7512 3.66315 29.5435 3.20159 29.1642C2.74003 28.785 2.42409 28.2575 2.3075 27.6716H12.1071L12.7123 28.4335C12.7591 28.4924 12.8186 28.54 12.8864 28.5727C12.9542 28.6054 13.0285 28.6224 13.1038 28.6224H18.8962C18.9715 28.6224 19.0459 28.6054 19.1137 28.5727C19.1815 28.54 19.241 28.4924 19.2879 28.4335L19.8931 27.6716H29.6924C29.5758 28.2575 29.2599 28.785 28.7983 29.1642C28.3367 29.5435 27.758 29.7512 27.1606 29.7519V29.7519ZM25.0071 17.738C24.3709 17.6773 23.5433 17.4621 23.4978 17.0422C23.4847 16.9194 23.4267 16.8058 23.3349 16.7232C23.2431 16.6406 23.124 16.5948 23.0005 16.5947C22.877 16.5946 22.7578 16.6401 22.6658 16.7225C22.5739 16.8049 22.5156 16.9184 22.5022 17.0411C22.4549 17.4774 21.6053 17.6778 20.9929 17.7364V17.4509C20.9929 16.9186 21.2044 16.4081 21.5808 16.0317C21.9572 15.6553 22.4677 15.4438 23 15.4438C23.5323 15.4438 24.0428 15.6553 24.4192 16.0317C24.7956 16.4081 25.0071 16.9186 25.0071 17.4509V17.738ZM20.9929 18.7409C21.5077 18.7023 22.4267 18.5641 22.9993 18.074C23.5718 18.565 24.4919 18.7033 25.0071 18.742V19.1223C25.0071 19.6546 24.7956 20.1651 24.4192 20.5415C24.0428 20.9179 23.5323 21.1294 23 21.1294C22.4677 21.1294 21.9572 20.9179 21.5808 20.5415C21.2044 20.1651 20.9929 19.6546 20.9929 19.1223V18.7409ZM22.3456 23.6268L21.8003 24.0931L21.4118 22.9812L22.3456 23.6268ZM24.49 22.944C24.5079 22.929 24.5247 22.9127 24.5403 22.8954H24.6175L24.1975 24.0977L23.618 23.611L24.49 22.944ZM23 22.1294C23.2312 22.1286 23.4615 22.1011 23.6863 22.0473V22.2998L22.9734 22.8451L22.1628 22.2847V22.0084C22.4348 22.0882 22.7166 22.1289 23 22.1294V22.1294ZM20.352 22.9792L21.0974 25.1133C21.1242 25.19 21.1694 25.2591 21.2289 25.3145C21.2884 25.3699 21.3606 25.4099 21.4391 25.4311C21.5176 25.4523 21.6001 25.454 21.6794 25.4361C21.7587 25.4182 21.8325 25.3812 21.8943 25.3284L22.9912 24.3906L24.1091 25.3292C24.1711 25.3813 24.2448 25.4175 24.3239 25.4348C24.4029 25.4521 24.485 25.4499 24.5631 25.4285C24.6411 25.4071 24.7128 25.367 24.772 25.3117C24.8311 25.2564 24.8759 25.1876 24.9026 25.1112L25.6474 22.9789C25.7495 23.0345 25.8348 23.1165 25.8943 23.2163C25.9538 23.3162 25.9854 23.4301 25.9858 23.5464V26.6697H20.0142V23.5464C20.0146 23.4303 20.0461 23.3164 20.1055 23.2166C20.165 23.1169 20.2501 23.0349 20.352 22.9792V22.9792ZM26.9858 26.6716V23.5464C26.9854 23.1087 26.8113 22.689 26.5018 22.3795C26.1923 22.07 25.7727 21.8959 25.335 21.8954H24.6863V21.6105C25.0929 21.3352 25.4259 20.9645 25.6562 20.5307C25.8864 20.097 26.0069 19.6134 26.0071 19.1223V17.4509C26.0071 16.6534 25.6903 15.8885 25.1263 15.3246C24.5624 14.7607 23.7975 14.4438 23 14.4438C22.2025 14.4438 21.4376 14.7607 20.8737 15.3246C20.3097 15.8885 19.9929 16.6534 19.9929 17.4509V19.1223C19.9933 19.5813 20.0989 20.0342 20.3017 20.446C20.5046 20.8578 20.7991 21.2176 21.1628 21.4976V21.8954H20.665C20.2273 21.8959 19.8077 22.07 19.4982 22.3795C19.1887 22.689 19.0146 23.1087 19.0142 23.5464V26.6716H4.13611V14.0343C4.46988 13.9877 4.791 13.875 5.08066 13.7027C5.37032 13.5305 5.62269 13.3021 5.823 13.0311C6.05769 13.3504 6.36422 13.61 6.71781 13.789C7.07139 13.9679 7.46212 14.0612 7.8584 14.0612C8.25468 14.0612 8.64541 13.9679 8.999 13.789C9.35258 13.61 9.65911 13.3504 9.8938 13.0311C10.1285 13.3504 10.435 13.61 10.7886 13.789C11.1422 13.9679 11.5329 14.0612 11.9292 14.0612C12.3255 14.0612 12.7162 13.9679 13.0698 13.789C13.4234 13.61 13.7299 13.3504 13.9646 13.0311C14.1993 13.3504 14.5058 13.6101 14.8594 13.789C15.213 13.9679 15.6037 14.0612 16 14.0612C16.3963 14.0611 16.787 13.9679 17.1406 13.789C17.4942 13.61 17.8007 13.3504 18.0354 13.0311C18.2701 13.3504 18.5766 13.61 18.9302 13.789C19.2838 13.9679 19.6745 14.0612 20.0708 14.0612C20.4671 14.0612 20.8578 13.9679 21.2114 13.789C21.565 13.61 21.8715 13.3504 22.1062 13.0311C22.3425 13.3526 22.6517 13.6135 23.0083 13.7926C23.3649 13.9716 23.7588 14.0636 24.1578 14.0611C24.5569 14.0586 24.9496 13.9616 25.3039 13.7781C25.6582 13.5946 25.9641 13.3297 26.1963 13.0053C26.5994 13.5476 27.1972 13.9125 27.8638 14.0233V26.6716H26.9858ZM8.86072 4.21679H7.40442V3.21679H8.86072V4.21679ZM11.1633 4.21679H9.70703V3.21679H11.1633V4.21679ZM24.5957 4.21679H12.3936V3.21679H24.5957V4.21679ZM15.0848 17.4966H14.7517L14.9882 16.7241C15.0838 16.4108 15.0512 16.0724 14.8974 15.7831C14.7436 15.4939 14.4812 15.2776 14.168 15.1817C13.8548 15.0858 13.5163 15.1182 13.227 15.2718C12.9376 15.4254 12.7211 15.6876 12.625 16.0007L12.1671 17.4966H10.3478L9.88989 16.0007C9.79359 15.6878 9.57704 15.4259 9.2878 15.2725C8.99856 15.1192 8.66027 15.0868 8.34722 15.1827C8.03417 15.2785 7.77195 15.4947 7.61814 15.7837C7.46432 16.0727 7.43149 16.4109 7.52685 16.7241L7.7633 17.4966H7.43005C7.08857 17.4957 6.7601 17.6275 6.51386 17.8641C6.26762 18.1007 6.12286 18.4237 6.11007 18.7649C6.09728 19.1061 6.21748 19.439 6.44532 19.6934C6.67316 19.9477 6.99085 20.1037 7.33144 20.1284L7.86597 24.188C7.92059 24.595 8.12083 24.9685 8.42961 25.2393C8.7384 25.5101 9.13483 25.6599 9.54554 25.6609H12.9695C13.3802 25.6599 13.7766 25.5101 14.0854 25.2393C14.3942 24.9685 14.5944 24.595 14.649 24.188L15.1835 20.1284C15.5241 20.1037 15.8418 19.9477 16.0696 19.6934C16.2974 19.439 16.4176 19.1061 16.4048 18.7649C16.3921 18.4236 16.2473 18.1007 16.001 17.8641C15.7548 17.6275 15.4263 17.4957 15.0848 17.4966H15.0848ZM13.5813 16.2935C13.5999 16.234 13.6412 16.1844 13.6962 16.1553C13.7513 16.1263 13.8156 16.1202 13.8752 16.1384C13.9347 16.1566 13.9846 16.1977 14.0139 16.2526C14.0433 16.3075 14.0497 16.3718 14.0319 16.4314L13.2032 19.1384H12.7105L13.5813 16.2935ZM11.8611 18.4966L11.6646 19.1384H10.8503L10.6539 18.4966H11.8611ZM8.5011 16.2523C8.51543 16.225 8.53502 16.2007 8.55876 16.181C8.5825 16.1612 8.6099 16.1463 8.63941 16.1372C8.69913 16.1197 8.76334 16.1262 8.81831 16.1554C8.87328 16.1846 8.91466 16.2342 8.93359 16.2935L9.80444 19.1384H9.31178L8.48303 16.4313C8.47409 16.4017 8.47108 16.3707 8.47418 16.34C8.47728 16.3093 8.48643 16.2795 8.5011 16.2523V16.2523ZM7.10913 18.8175C7.10921 18.7324 7.14305 18.6508 7.20322 18.5907C7.26338 18.5305 7.34496 18.4967 7.43005 18.4966H8.06943L8.2659 19.1384H7.43005C7.34496 19.1383 7.26338 19.1045 7.20322 19.0443C7.14305 18.9842 7.10921 18.9026 7.10913 18.8175ZM13.6576 24.0574C13.6352 24.2241 13.5532 24.3772 13.4267 24.4881C13.3002 24.5991 13.1378 24.6605 12.9695 24.6609H9.54553C9.37726 24.6605 9.21484 24.5991 9.08833 24.4881C8.96182 24.3772 8.87979 24.2241 8.85742 24.0574L8.34142 20.1384H14.1735L13.6576 24.0574ZM15.0848 19.1384H14.2491L14.4456 18.4966H15.0848C15.1699 18.4966 15.2516 18.5304 15.3118 18.5906C15.3719 18.6508 15.4058 18.7324 15.4058 18.8175C15.4058 18.9026 15.3719 18.9842 15.3118 19.0444C15.2516 19.1046 15.1699 19.1384 15.0848 19.1384H15.0848ZM11.2574 23.9551C11.5651 23.9551 11.8658 23.8639 12.1217 23.693C12.3775 23.522 12.5768 23.2791 12.6946 22.9949C12.8123 22.7106 12.8431 22.3979 12.7831 22.0961C12.7231 21.7944 12.5749 21.5172 12.3574 21.2997C12.1399 21.0822 11.8627 20.934 11.561 20.874C11.2592 20.814 10.9465 20.8448 10.6622 20.9625C10.378 21.0803 10.1351 21.2796 9.96415 21.5354C9.79323 21.7913 9.70201 22.092 9.70203 22.3997C9.7025 22.812 9.86652 23.2074 10.1581 23.499C10.4497 23.7906 10.8451 23.9546 11.2574 23.9551V23.9551ZM11.2574 21.8441C11.3673 21.8441 11.4747 21.8767 11.5661 21.9377C11.6574 21.9987 11.7286 22.0855 11.7707 22.187C11.8127 22.2885 11.8238 22.4001 11.8023 22.5079C11.7809 22.6157 11.728 22.7146 11.6503 22.7923C11.5727 22.87 11.4737 22.9229 11.3659 22.9444C11.2582 22.9658 11.1465 22.9548 11.045 22.9128C10.9435 22.8708 10.8567 22.7996 10.7957 22.7083C10.7346 22.6169 10.702 22.5095 10.702 22.3997C10.7022 22.2524 10.7608 22.1112 10.8649 22.0071C10.969 21.9029 11.1102 21.8443 11.2574 21.8441Z" fill="black"/>
</svg>
