<svg xmlns="http://www.w3.org/2000/svg" width="32" height="32.031" viewBox="0 0 32 32.031">
  <g id="Group_37782" data-name="Group 37782" transform="translate(0 0.248)">
    <path id="Path_105508" data-name="Path 105508" d="M1,5.409H16.225a4.657,4.657,0,0,0,9.1,0H31a1,1,0,0,0,0-2H25.322a4.657,4.657,0,0,0-9.1,0H1a1,1,0,1,0,0,2Zm17.117-1s0-.007,0-.011a2.657,2.657,0,0,1,5.313,0v.015a2.657,2.657,0,0,1-5.313,0ZM31,26.126H25.322a4.657,4.657,0,0,0-9.1,0H1a1,1,0,0,0,0,2H16.225a4.657,4.657,0,0,0,9.1,0H31a1,1,0,0,0,0-2ZM20.774,29.783a2.66,2.66,0,0,1-2.657-2.651v0s0-.007,0-.011a2.657,2.657,0,0,1,5.313,0v.015a2.66,2.66,0,0,1-2.657,2.653ZM31,14.768H15.775a4.657,4.657,0,0,0-9.1,0H1a1,1,0,0,0,0,2H6.678a4.657,4.657,0,0,0,9.1,0H31a1,1,0,0,0,0-2Zm-17.117,1s0,.007,0,.011a2.657,2.657,0,0,1-5.313,0v-.015a2.657,2.657,0,0,1,5.313,0Z"/>
  </g>
</svg>
