<svg xmlns="http://www.w3.org/2000/svg" width="34.538" height="32.206" viewBox="0 0 34.538 32.206">
  <g id="Group_37733" data-name="Group 37733" transform="translate(-8.9 -25.528)">
    <path id="Path_105408" data-name="Path 105408" d="M41.247,39.422H39.515a1.705,1.705,0,0,0-1.628-1.251H36.039v-4.52a.477.477,0,0,0-.233-.421L22.768,25.7a.481.481,0,0,0-.484,0L9.242,33.23A.485.485,0,0,0,9,33.651V48.713a.487.487,0,0,0,.243.421l13.044,7.531a.486.486,0,0,0,.243.065.512.512,0,0,0,.25-.065l6.864-3.959v2.862a2.06,2.06,0,0,0,2.078,2.066h9.525a2.072,2.072,0,0,0,2.091-2.066V41.52A2.1,2.1,0,0,0,41.247,39.422ZM37.9,39.144a.706.706,0,0,1,.706.706V39.9a.706.706,0,0,1-.706.706H35.077a.706.706,0,0,1-.706-.706V39.85a.706.706,0,0,1,.706-.706ZM22.53,26.682l5.42,3.129L15.88,36.78l-5.42-3.129ZM22.068,55.4,9.973,48.432V34.493l12.095,6.969Zm.463-14.782-5.677-3.277,12.07-6.968L34.6,33.651Zm7.114.9V51.582l-6.6,3.819V41.462l12.025-6.969v3.678h.015a1.705,1.705,0,0,0-1.628,1.251H31.722A2.088,2.088,0,0,0,29.644,41.52Zm12.72,14.048a1.1,1.1,0,0,1-1.118,1.093H31.722a1.086,1.086,0,0,1-1.1-1.093V41.52a1.114,1.114,0,0,1,1.1-1.125h1.75a1.664,1.664,0,0,0,1.609,1.182h2.806A1.664,1.664,0,0,0,39.5,40.4h1.75a1.125,1.125,0,0,1,1.118,1.125Z" stroke="#fff" stroke-width="0.2"/>
    <path id="Path_105409" data-name="Path 105409" d="M337.487,281.3H338a.491.491,0,1,0,0-.982h-.019v-1.333h1.355a.473.473,0,0,0,.467.332.493.493,0,0,0,.494-.49v-.33a.5.5,0,0,0-.5-.493h-2.314a.49.49,0,0,0-.488.493v2.314a.488.488,0,0,0,.488.491Z" transform="translate(-305.223 -234.843)" stroke="#fff" stroke-width="0.2"/>
    <path id="Path_105410" data-name="Path 105410" d="M337.491,345.3h2.315a.491.491,0,0,0,.491-.491v-2.315a.491.491,0,0,0-.491-.491h-2.315a.491.491,0,0,0-.491.491v2.315A.491.491,0,0,0,337.491,345.3Zm.491-2.315h1.333v1.333h-1.333Z" transform="translate(-305.223 -294.399)" stroke="#fff" stroke-width="0.2"/>
    <path id="Path_105411" data-name="Path 105411" d="M338,408.315h-.019v-1.333h1.328a.494.494,0,1,0,.987,0v-.473a.512.512,0,0,0-.5-.51h-2.314a.5.5,0,0,0-.488.51v2.314a.474.474,0,0,0,.488.474H338a.491.491,0,1,0,0-.982Z" transform="translate(-305.223 -353.979)" stroke="#fff" stroke-width="0.2"/>
    <path id="Path_105412" data-name="Path 105412" d="M357.069,284.683l-1.438,1.438-.438-.438a.491.491,0,1,0-.695.695l.785.785a.491.491,0,0,0,.695,0l1.786-1.786a.491.491,0,0,0-.695-.695Z" transform="translate(-321.375 -240.924)" stroke="#fff" stroke-width="0.2"/>
    <path id="Path_105413" data-name="Path 105413" d="M357.069,413.932l-1.438,1.438-.438-.438a.491.491,0,1,0-.695.695l.785.785a.491.491,0,0,0,.695,0l1.786-1.786a.491.491,0,0,0-.695-.695Z" transform="translate(-321.375 -361.221)" stroke="#fff" stroke-width="0.2"/>
    <path id="Path_105414" data-name="Path 105414" d="M417.467,295h-3.085a.491.491,0,1,0,0,.982h3.085a.491.491,0,0,0,0-.982Z" transform="translate(-376.805 -250.648)" stroke="#fff" stroke-width="0.2"/>
    <path id="Path_105415" data-name="Path 105415" d="M417.467,359h-3.085a.491.491,0,0,0,0,.982h3.085a.491.491,0,0,0,0-.982Z" transform="translate(-376.805 -310.201)" stroke="#fff" stroke-width="0.2"/>
    <path id="Path_105416" data-name="Path 105416" d="M417.467,423h-3.085a.491.491,0,0,0,0,.982h3.085a.491.491,0,0,0,0-.982Z" transform="translate(-376.805 -369.787)" stroke="#fff" stroke-width="0.2"/>
  </g>
</svg>
