<svg xmlns="http://www.w3.org/2000/svg" xmlns:xlink="http://www.w3.org/1999/xlink" width="32" height="32" viewBox="0 0 32 32">
  <defs>
    <clipPath id="clip-path">
      <rect id="Rectangle_12610" data-name="Rectangle 12610" width="27.999" height="28"/>
    </clipPath>
  </defs>
  <g id="Group_37723" data-name="Group 37723" transform="translate(10187 1859)">
    <g id="Rectangle_12544" data-name="Rectangle 12544" transform="translate(-10187 -1859)" stroke="#707070" stroke-width="1" opacity="0">
      <rect width="32" height="32" stroke="none"/>
      <rect x="0.5" y="0.5" width="31" height="31" fill="none"/>
    </g>
    <g id="Group_37722" data-name="Group 37722" transform="translate(-10185 -1857)">
      <g id="Group_37722-2" data-name="Group 37722" clip-path="url(#clip-path)">
        <path id="Path_105657" data-name="Path 105657" d="M5.6,8.367q0-1.988,0-3.987A1.418,1.418,0,0,1,7.165,2.806h4.5c0-.135,0-.256,0-.378.007-.382.171-.552.552-.554.641,0,1.282,0,1.932,0A2.818,2.818,0,0,1,15.8.19,2.78,2.78,0,0,1,19.34,1.641a.328.328,0,0,0,.362.236c.524-.015,1.05-.005,1.575,0s.653.138.656.656c0,.078,0,.155,0,.277h.317q2.114,0,4.228,0A1.407,1.407,0,0,1,28,4.336q0,11.065,0,22.13A1.41,1.41,0,0,1,26.48,28H7.117A1.408,1.408,0,0,1,5.6,26.492c0-1.351,0-2.7,0-4.072-.4-.074-.486-.35-.471-.71.018-.427.009-.855,0-1.283a1.1,1.1,0,0,0-.084-.282,1.08,1.08,0,0,0-.284.142c-.33.316-.646.646-.971.967-.3.3-.53.3-.827.009q-.921-.914-1.835-1.835a.485.485,0,0,1,.008-.8c.307-.312.624-.613.926-.929a1.78,1.78,0,0,0,.2-.322,1.77,1.77,0,0,0-.388-.1c-.427-.013-.855,0-1.283-.005S0,17.106,0,16.692q0-1.283,0-2.566c0-.432.162-.588.6-.59s.894.005,1.341,0a1.262,1.262,0,0,0,.309-.087,1.093,1.093,0,0,0-.144-.283c-.316-.33-.645-.647-.967-.971-.3-.3-.3-.526-.007-.825q.9-.91,1.815-1.814a.5.5,0,0,1,.83-.007c.34.334.67.677,1.012,1.008a.808.808,0,0,0,.241.11.807.807,0,0,0,.093-.247c.009-.447,0-.894,0-1.341s.049-.53.467-.707m2.81,16.819H21.466V24.86q0-1.4,0-2.8c0-.435.161-.592.6-.593q1.4,0,2.8,0h.311V5.619H21.943c0,.069-.009.124-.01.18-.013.644-.109.739-.75.739h-8.69c-.107,0-.214,0-.321,0a.473.473,0,0,1-.5-.515c0-.132,0-.265,0-.4H8.409V8.381c.393.15.457.24.458.648,0,.467,0,.933.005,1.4a.322.322,0,0,0,.113.227c.032.024.156-.038.21-.091.348-.339.687-.688,1.033-1.029a.488.488,0,0,1,.805,0q.922.913,1.835,1.835a.487.487,0,0,1,0,.805c-.341.347-.69.684-1.029,1.032-.053.054-.115.178-.092.21a.325.325,0,0,0,.228.112c.486.01.972,0,1.458.006.4,0,.564.169.566.57q0,1.3,0,2.595c0,.4-.17.563-.571.565-.476,0-.953,0-1.429,0a.9.9,0,0,0-.253.084.871.871,0,0,0,.118.264c.323.336.66.659.988.991.3.3.306.53.012.826q-.9.911-1.814,1.815c-.307.3-.539.3-.85-.01-.331-.329-.656-.664-.991-.988a.811.811,0,0,0-.239-.11.764.764,0,0,0-.1.243c-.01.447-.017.894,0,1.341.013.353-.081.614-.46.691ZM21.947,4.672h.338q1.633,0,3.266,0c.418,0,.581.165.581.584q0,8.28-.009,16.56a.845.845,0,0,1-.224.534q-1.756,1.79-3.546,3.546a.845.845,0,0,1-.533.227q-6.882.018-13.763.009c-.43,0-.587-.164-.588-.607q0-1.4,0-2.8v-.3H6.534c0,1.354,0,2.685,0,4.016,0,.476.15.626.628.626H26.437c.477,0,.629-.15.629-.626q0-11.035,0-22.07c0-.48-.149-.63-.623-.631h-4.5ZM2.069,11.787c.353.353.691.7,1.041,1.036a.547.547,0,0,1,.128.731,3.873,3.873,0,0,0-.205.481c-.134.354-.242.433-.628.434-.483,0-.965,0-1.449,0v1.866H2.227c.628,0,.628,0,.865.6.039.1.083.2.129.293A.53.53,0,0,1,3.089,18c-.342.343-.687.682-.986.98L3.418,20.3c.321-.322.669-.66,1-1.011a.545.545,0,0,1,.73-.127,3.783,3.783,0,0,0,.481.206c.354.133.433.24.434.628,0,.482,0,.965,0,1.449H7.934c0-.5,0-.971,0-1.446,0-.389.078-.5.431-.629.154-.058.307-.12.457-.19.364-.17.489-.152.774.132.343.342.683.686.983.986L11.9,18.98c-.318-.317-.656-.664-1.007-1a.544.544,0,0,1-.129-.73,3.833,3.833,0,0,0,.206-.481c.134-.357.239-.433.627-.434.483,0,.965,0,1.45,0V14.469H11.63c-.429,0-.521-.066-.667-.458-.054-.145-.116-.288-.181-.429-.171-.366-.154-.489.131-.773.343-.342.687-.682.99-.982L10.577,10.5c-.309.312-.642.651-.978.987a.532.532,0,0,1-.773.136c-.149-.07-.3-.133-.456-.19-.356-.132-.434-.24-.435-.626,0-.483,0-.965,0-1.45H6.067c0,.486,0,.951,0,1.416,0,.429-.068.522-.459.667-.145.054-.289.115-.429.181a.532.532,0,0,1-.774-.131c-.343-.341-.685-.684-1.02-1.019L2.069,11.787m10.545-6.2h8.361V2.806c-.6,0-1.171,0-1.744,0-.4,0-.519-.09-.625-.464a1.866,1.866,0,0,0-3.613,0c-.1.374-.225.465-.623.466-.58,0-1.161,0-1.755,0ZM7.467,8.39c0-1.05,0-2.078,0-3.106,0-.458.154-.612.611-.613q1.632,0,3.264,0h.3V3.739c-1.519,0-3.015,0-4.511,0-.439,0-.6.158-.6.6q0,1.909,0,3.817V8.39Zm14.95,14.023v2l2-2Z" transform="translate(0 0.001)"/>
        <path id="Path_105658" data-name="Path 105658" d="M137,287.552h4.462a1.368,1.368,0,0,1,.262.008.463.463,0,0,1,.016.914,1.186,1.186,0,0,1-.261.011H132.5a1.055,1.055,0,0,1-.261-.013.463.463,0,0,1,.012-.909,1.365,1.365,0,0,1,.291-.011H137" transform="translate(-121.596 -265.15)"/>
        <path id="Path_105659" data-name="Path 105659" d="M230.5,107.89c.729,0,1.458,0,2.187,0,.368,0,.581.175.581.466s-.214.466-.582.466q-2.216,0-4.432,0c-.368,0-.581-.176-.581-.467s.213-.464.581-.465c.748,0,1.5,0,2.245,0" transform="translate(-209.941 -99.485)"/>
        <path id="Path_105660" data-name="Path 105660" d="M230.5,131.847c.729,0,1.458,0,2.187,0,.371,0,.583.17.587.46s-.212.472-.576.472q-2.216,0-4.432,0c-.371,0-.583-.17-.587-.46s.21-.47.575-.471c.748,0,1.5,0,2.245,0" transform="translate(-209.94 -121.576)"/>
        <path id="Path_105661" data-name="Path 105661" d="M230.462,168.714c-.739,0-1.477,0-2.216,0-.363,0-.578-.184-.571-.476s.213-.455.562-.456q2.231,0,4.462,0c.362,0,.578.184.571.475s-.216.455-.562.456c-.748,0-1.5,0-2.245,0" transform="translate(-209.939 -154.711)"/>
        <path id="Path_105662" data-name="Path 105662" d="M230.444,192.673c-.729,0-1.458,0-2.187,0-.368,0-.581-.175-.581-.466s.213-.465.581-.466q2.216,0,4.432,0c.368,0,.581.175.582.466s-.214.465-.581.466c-.748,0-1.5,0-2.245,0" transform="translate(-209.941 -176.804)"/>
        <path id="Path_105663" data-name="Path 105663" d="M230.449,228.61c-.729,0-1.458,0-2.187,0-.371,0-.583-.17-.587-.46s.21-.471.575-.472q2.216,0,4.432,0c.371,0,.583.17.587.46s-.212.471-.575.472c-.748,0-1.5,0-2.245,0" transform="translate(-209.94 -209.941)"/>
        <path id="Path_105664" data-name="Path 105664" d="M230.473,252.566c-.739,0-1.477,0-2.216,0-.368,0-.581-.175-.581-.466s.213-.466.581-.466q2.216,0,4.432,0c.368,0,.581.175.582.465s-.214.466-.581.467c-.739,0-1.477,0-2.216,0" transform="translate(-209.94 -232.031)"/>
        <path id="Path_105665" data-name="Path 105665" d="M198.415,108.805c-.049,0-.1,0-.146,0-.34-.008-.549-.19-.545-.473s.21-.454.558-.459c.117,0,.233,0,.35,0a.467.467,0,0,1,.487.471.472.472,0,0,1-.5.459c-.068,0-.136,0-.2,0" transform="translate(-182.322 -99.468)"/>
        <path id="Path_105666" data-name="Path 105666" d="M198.395,132.728a2.233,2.233,0,0,1-.233,0,.464.464,0,0,1-.438-.46.458.458,0,0,1,.433-.463,3.514,3.514,0,0,1,.5,0,.464.464,0,1,1,.005.928c-.087.007-.175,0-.262,0h0" transform="translate(-182.322 -121.527)"/>
        <path id="Path_105667" data-name="Path 105667" d="M198.422,168.706h-.087c-.393,0-.61-.168-.61-.466s.216-.464.609-.467c.1,0,.195,0,.291,0a.466.466,0,1,1,0,.931c-.068,0-.136,0-.2,0" transform="translate(-182.322 -154.703)"/>
        <path id="Path_105668" data-name="Path 105668" d="M198.414,192.655c-.049,0-.1,0-.146,0-.34-.008-.549-.189-.545-.473s.21-.454.558-.46c.117,0,.233,0,.35,0a.467.467,0,0,1,.487.471.472.472,0,0,1-.5.459c-.068,0-.136,0-.2,0" transform="translate(-182.321 -176.786)"/>
        <path id="Path_105669" data-name="Path 105669" d="M198.45,227.675a1.488,1.488,0,0,1,.262,0,.44.44,0,0,1,.4.458.432.432,0,0,1-.4.458,2.649,2.649,0,0,1-.524.007.464.464,0,1,1,0-.928c.087-.006.175,0,.262,0v0" transform="translate(-182.322 -209.934)"/>
        <path id="Path_105670" data-name="Path 105670" d="M198.412,252.512a1.466,1.466,0,0,1-.262,0,.462.462,0,0,1,.027-.92,3.512,3.512,0,0,1,.5,0,.464.464,0,1,1,0,.928c-.087.007-.175,0-.262,0v0" transform="translate(-182.34 -231.982)"/>
        <path id="Path_105671" data-name="Path 105671" d="M47.942,159.083a3.266,3.266,0,1,1,3.235,3.26,3.269,3.269,0,0,1-3.235-3.26m.933,0a2.332,2.332,0,1,0,2.307-2.335,2.34,2.34,0,0,0-2.307,2.335" transform="translate(-44.207 -143.675)"/>
        <path id="Path_105672" data-name="Path 105672" d="M70.51,184.072c.481-.483.9-.9,1.317-1.322a.466.466,0,0,1,.583-.111.414.414,0,0,1,.231.487.654.654,0,0,1-.168.3q-.764.781-1.543,1.547a.472.472,0,0,1-.761.008c-.2-.195-.4-.392-.6-.6a.465.465,0,1,1,.66-.654,3.433,3.433,0,0,1,.28.347" transform="translate(-64.01 -168.358)"/>
      </g>
    </g>
  </g>
</svg>
