<svg xmlns="http://www.w3.org/2000/svg" width="41.62" height="31.617" viewBox="0 0 41.62 31.617">
  <g id="Group_37738" data-name="Group 37738" transform="translate(-1.62 -9)">
    <g id="Tracking" transform="translate(2 9)">
      <path id="Path_105422" data-name="Path 105422" d="M43.039,30.137,34.506,21.6a2.047,2.047,0,0,0-1.459-.6h-11.8v1.375h3.437v10.31h1.375V22.375h6.991a.687.687,0,0,1,.487.2l1.173,1.173H31.555a1.375,1.375,0,0,0-1.375,1.375V31.31a1.375,1.375,0,0,0,1.375,1.375h10.31v5.5a.687.687,0,0,1-.687.687h-1.43a4.805,4.805,0,0,0-9.513,0H20.5a4.805,4.805,0,0,0-9.513,0H9.561a.687.687,0,0,1-.687-.687V32H7.5v6.186a2.062,2.062,0,0,0,2.062,2.062h1.43a4.8,4.8,0,0,0,1.4,2.749H2v1.375H34.992a4.815,4.815,0,0,0,4.756-4.124h1.43a2.062,2.062,0,0,0,2.062-2.062V30.623a.687.687,0,0,0-.2-.486ZM12.31,39.558a3.437,3.437,0,1,1,3.437,3.437A3.437,3.437,0,0,1,12.31,39.558Zm6.8,3.437a4.8,4.8,0,0,0,1.4-2.749h9.733a4.8,4.8,0,0,0,1.4,2.749Zm15.885,0a3.437,3.437,0,1,1,3.437-3.437A3.437,3.437,0,0,1,34.992,42.995ZM31.555,31.31V25.124h4.527l5.783,5.783v.4Z" transform="translate(-2 -12.752)"/>
      <rect id="Rectangle_12544" data-name="Rectangle 12544" width="2" height="2" transform="translate(12.62 25.809)"/>
      <rect id="Rectangle_12550" data-name="Rectangle 12550" width="2" height="2" transform="translate(32.12 25.809)"/>
      <rect id="Rectangle_12546" data-name="Rectangle 12546" width="4" height="2" transform="translate(-0.38 23.809)"/>
      <rect id="Rectangle_12547" data-name="Rectangle 12547" width="2" height="2" transform="translate(1.62 20.809)"/>
      <rect id="Rectangle_12548" data-name="Rectangle 12548" width="2" height="1" transform="translate(1.62 18.809)"/>
      <path id="Path_105423" data-name="Path 105423" d="M10.935,26.871A8.935,8.935,0,1,0,2,17.935a8.935,8.935,0,0,0,8.935,8.935Zm0-16.5a7.561,7.561,0,1,1-7.561,7.561,7.561,7.561,0,0,1,7.561-7.561Z" transform="translate(-2 -9)"/>
      <path id="Path_105424" data-name="Path 105424" d="M12.811,25.372a.687.687,0,0,0,.486-.2c.443-.443,4.326-4.411,4.326-7.359a4.811,4.811,0,0,0-9.623,0c0,2.949,3.883,6.917,4.325,7.359A.687.687,0,0,0,12.811,25.372Zm0-11a3.441,3.441,0,0,1,3.437,3.437c0,1.764-2.163,4.489-3.437,5.877-1.274-1.388-3.437-4.114-3.437-5.877a3.441,3.441,0,0,1,3.437-3.437Z" transform="translate(-3.876 -10.251)"/>
      <path id="Path_105425" data-name="Path 105425" d="M16.124,19.062a2.062,2.062,0,1,0-2.062,2.062A2.062,2.062,0,0,0,16.124,19.062Zm-2.749,0a.687.687,0,1,1,.687.687A.687.687,0,0,1,13.375,19.062Z" transform="translate(-5.127 -11.501)"/>
      <rect id="Rectangle_12549" data-name="Rectangle 12549" width="3" height="2" transform="translate(25.62 20.809)"/>
    </g>
  </g>
</svg>
