<svg xmlns="http://www.w3.org/2000/svg" width="35.016" height="42.242" viewBox="0 0 35.016 42.242">
  <g id="Group_37781" data-name="Group 37781" transform="translate(-45.407 0.5)">
    <g id="Group_37781-2" data-name="Group 37781" transform="translate(45.998)">
      <circle id="Ellipse_536" data-name="Ellipse 536" cx="1" cy="1" r="1" transform="translate(15.914 14.621)" stroke="#fff" stroke-width="1"/>
      <path id="Path_105501" data-name="Path 105501" d="M50.832,302a1.208,1.208,0,0,0-1.208,1.208v2.575l-1.746-1.164a1.208,1.208,0,0,0-1.34,2.011l2.4,1.6L47.561,309.6a1.208,1.208,0,0,0,1.709,1.709l1.562-1.562,1.562,1.562A1.208,1.208,0,0,0,54.1,309.6l-1.374-1.374,2.4-1.6a1.208,1.208,0,1,0-1.34-2.011l-1.746,1.164v-2.575A1.208,1.208,0,0,0,50.832,302Z" transform="translate(-45.998 -277.673)" stroke="#fff" stroke-width="1"/>
      <path id="Path_105502" data-name="Path 105502" d="M200.832,302a1.208,1.208,0,0,0-1.208,1.208v2.575l-1.746-1.164a1.208,1.208,0,0,0-1.34,2.011l2.4,1.6-1.374,1.374a1.208,1.208,0,0,0,1.709,1.709l1.562-1.562,1.562,1.562A1.208,1.208,0,0,0,204.1,309.6l-1.374-1.374,2.4-1.6a1.208,1.208,0,1,0-1.34-2.011l-1.746,1.164v-2.575A1.208,1.208,0,0,0,200.832,302Z" transform="translate(-183.916 -277.673)" stroke="#fff" stroke-width="1"/>
      <path id="Path_105503" data-name="Path 105503" d="M350.832,302a1.208,1.208,0,0,0-1.208,1.208v2.575l-1.746-1.164a1.208,1.208,0,0,0-1.34,2.011l2.4,1.6-1.374,1.374a1.208,1.208,0,0,0,1.709,1.709l1.562-1.562,1.562,1.562A1.208,1.208,0,0,0,354.1,309.6l-1.374-1.374,2.4-1.6a1.208,1.208,0,1,0-1.34-2.011l-1.746,1.164v-2.575A1.208,1.208,0,0,0,350.832,302Z" transform="translate(-321.833 -277.673)" stroke="#fff" stroke-width="1"/>
      <path id="Path_105504" data-name="Path 105504" d="M67.041,482H62.208a1.208,1.208,0,0,0,0,2.417h4.833a1.208,1.208,0,0,0,0-2.417Z" transform="translate(-59.792 -443.174)" stroke="#fff" stroke-width="1"/>
      <path id="Path_105505" data-name="Path 105505" d="M217.041,482h-4.833a1.208,1.208,0,1,0,0,2.417h4.833a1.208,1.208,0,0,0,0-2.417Z" transform="translate(-197.709 -443.174)" stroke="#fff" stroke-width="1"/>
      <path id="Path_105506" data-name="Path 105506" d="M368.25,483.208A1.208,1.208,0,0,0,367.041,482h-4.833a1.208,1.208,0,1,0,0,2.417h4.833A1.208,1.208,0,0,0,368.25,483.208Z" transform="translate(-335.626 -443.174)" stroke="#fff" stroke-width="1"/>
      <path id="Path_105507" data-name="Path 105507" d="M159.458,0a6.048,6.048,0,0,0-6.041,6.041V9.827h-1.208A1.208,1.208,0,0,0,151,11.036V20.7a1.208,1.208,0,0,0,1.208,1.208h14.5a1.208,1.208,0,0,0,1.208-1.208V11.036a1.208,1.208,0,0,0-1.208-1.208H165.5V6.041A6.048,6.048,0,0,0,159.458,0Zm-3.625,6.041a3.625,3.625,0,0,1,7.25,0V9.827h-7.25ZM165.5,19.493H153.417v-7.25H165.5Z" transform="translate(-142.542)" stroke="#fff" stroke-width="1"/>
    </g>
  </g>
</svg>
