<svg id="Group_37700" data-name="Group 37700" xmlns="http://www.w3.org/2000/svg" xmlns:xlink="http://www.w3.org/1999/xlink" width="18.892" height="28" viewBox="0 0 18.892 28">
  <defs>
    <clipPath id="clip-path">
      <rect id="Rectangle_12581" data-name="Rectangle 12581" width="18.892" height="28"/>
    </clipPath>
  </defs>
  <g id="Group_37700-2" data-name="Group 37700" clip-path="url(#clip-path)">
    <path id="Path_105526" data-name="Path 105526" d="M9.939,0c.36.089.727.154,1.078.27A5.06,5.06,0,0,1,14.48,5c0,.273,0,.547,0,.82a2.379,2.379,0,0,0,.244,1.194,1.7,1.7,0,0,1-1.237,2.434c-.173.033-.24.091-.273.264a3.849,3.849,0,0,1-1.237,2.166.588.588,0,0,0-.168.362c-.02.3-.1.67.037.88s.518.256.8.364c1.3.5,2.605.982,3.891,1.513a3.446,3.446,0,0,1,2.317,3.1c.065,1,.028,2,.026,3.006a.4.4,0,0,1-.416.441c-.241,0-.394-.17-.4-.46-.006-.838,0-1.677,0-2.515A2.845,2.845,0,0,0,16.092,15.7q-1.286-.5-2.571-.994c-.092-.035-.184-.068-.275-.1a4.294,4.294,0,0,1-7.6-.007l-.466.182L6.6,16.262c.164.171.329.341.492.513a2.2,2.2,0,0,0,.925.687,1.808,1.808,0,0,1,.676.491c1.463,1.513,2.925,3.028,4.36,4.568a5.247,5.247,0,0,1,.6,1.021c.031.054.035.128.075.17.34.363.686.721,1.082,1.134v-.355q0-2.556,0-5.112a1.442,1.442,0,0,1,.008-.273.406.406,0,0,1,.808.023,2.027,2.027,0,0,1,0,.246c0,2.023,0,4.046,0,6.069a.586.586,0,0,0,.182.457q.532.531,1.039,1.087a.535.535,0,0,0,.448.194c.811-.014.774.1.772-.763,0-1.048,0-2.1,0-3.144a2.056,2.056,0,0,1,.01-.273.4.4,0,0,1,.791-.023,1.38,1.38,0,0,1,.018.272q0,1.763,0,3.527A1.078,1.078,0,0,1,17.656,28H10.521c-.336,0-.531-.158-.525-.418s.192-.4.514-.4c.419,0,.838,0,1.258,0h.327l-1-1.048a.1.1,0,0,0-.044-.032,3.632,3.632,0,0,1-1.636-1.271C8.148,23.512,6.884,22.2,5.638,20.87a5.131,5.131,0,0,1-.524-.82,3.052,3.052,0,0,0-.314-.494c-.95-1.008-1.911-2.006-2.866-3.008a2.811,2.811,0,0,1-.177-.229,2.686,2.686,0,0,0-.894,1.663,4.38,4.38,0,0,0-.033.573q0,4.087,0,8.174c0,.418.033.45.45.45H3.265v-.323q0-3.732,0-7.463a2.036,2.036,0,0,1,.005-.273.379.379,0,0,1,.376-.363.385.385,0,0,1,.428.337,1.223,1.223,0,0,1,.011.272q0,3.732,0,7.463v.35H8.311a1.146,1.146,0,0,1,.245.009.407.407,0,0,1,0,.8A1.348,1.348,0,0,1,8.281,28H1.227a1.076,1.076,0,0,1-1.219-1.23c0-2.643.017-5.286-.008-7.928a3.888,3.888,0,0,1,1.165-3.091c-.209-.22-.41-.427-.605-.638a1.048,1.048,0,0,1,.047-1.592q.471-.457.949-.906a1.049,1.049,0,0,1,1.593.042c.419.432.837.864,1.245,1.306a.305.305,0,0,0,.4.1q1.023-.417,2.06-.8c.189-.069.225-.17.241-.356a1.331,1.331,0,0,0-.5-1.275A3.175,3.175,0,0,1,5.582,9.7c-.03-.159-.078-.221-.246-.252a1.72,1.72,0,0,1-1.12-2.685.731.731,0,0,0,.1-.353,21.121,21.121,0,0,1,.112-2.26A5.026,5.026,0,0,1,8.669.053,1.163,1.163,0,0,0,8.845,0ZM6.33,6.288c0,.881,0,1.719,0,2.556a4.4,4.4,0,0,0,.051.652,3.036,3.036,0,0,0,3.234,2.491,2.982,2.982,0,0,0,2.839-2.829c.033-1,.013-2,.012-3.006a.363.363,0,0,0-.067-.224c-.307-.346-.625-.682-.942-1.024A8.879,8.879,0,0,1,6.33,6.288m7.31-.233c.2-2.089-.414-3.683-2.123-4.658a4.026,4.026,0,0,0-4.667.288A4.462,4.462,0,0,0,5.185,6.134c.151-.1.316-.151.389-.264a.782.782,0,0,1,.746-.406A7.959,7.959,0,0,0,11.039,4.2a.712.712,0,0,1,1.006.135c.3.315.609.628.891.961a6.614,6.614,0,0,1,.44.661L13.326,6l.313.06M11.6,25.335a1.3,1.3,0,0,0,.9-2.222Q10.288,20.8,8.075,18.492a1.3,1.3,0,1,0-1.886,1.776q2.217,2.342,4.457,4.663a1.251,1.251,0,0,0,.954.4M7.913,12.542c-.027.444.1.936-.3,1.215a8.146,8.146,0,0,1-1.166.564,3.313,3.313,0,0,0,2.941,1.748A3.345,3.345,0,0,0,12.462,14.3c-.308-.122-.592-.238-.878-.347a.87.87,0,0,1-.6-.882c0-.178,0-.355,0-.563a4.2,4.2,0,0,1-3.07.035M6.471,17.315c-1.329-1.39-2.641-2.765-3.957-4.137-.138-.144-.274-.09-.4.035-.287.279-.579.553-.868.83-.266.255-.267.314-.019.574q1.83,1.914,3.658,3.83a2.017,2.017,0,0,1,.18.268,2.469,2.469,0,0,1,1.408-1.4m7.115,7.445a2.245,2.245,0,0,1-1.4,1.327c.344.359.654.691.976,1.01a.378.378,0,0,0,.244.077c.765.006,1.53,0,2.295,0a1.317,1.317,0,0,0,.172-.027l-2.288-2.389M13.3,8.626a.894.894,0,0,0,.787-.939.851.851,0,0,0-.787-.821ZM5.5,6.872a.91.91,0,0,0-.774.907.865.865,0,0,0,.774.845Z" transform="translate(0)"/>
  </g>
</svg>
