<svg xmlns="http://www.w3.org/2000/svg" xmlns:xlink="http://www.w3.org/1999/xlink" width="32" height="32" viewBox="0 0 32 32">
  <defs>
    <clipPath id="clip-path">
      <rect id="Rectangle_12611" data-name="Rectangle 12611" width="28" height="27.999"/>
    </clipPath>
  </defs>
  <g id="Group_37671" data-name="Group 37671" transform="translate(10187 1859)">
    <rect id="Rectangle_12544" data-name="Rectangle 12544" width="32" height="32" transform="translate(-10187 -1859)" opacity="0"/>
    <g id="Group_37723" data-name="Group 37723" transform="translate(-10185 -1857)">
      <g id="Group_37723-2" data-name="Group 37723" clip-path="url(#clip-path)">
        <path id="Path_105673" data-name="Path 105673" d="M141.149,13.136V12.67c-.429,0-.844,0-1.26,0-.372,0-.584-.168-.59-.457s.212-.475.6-.475c.836,0,1.672,0,2.508,0,.472,0,.62-.153.621-.633,0-.224,0-.447,0-.671-.005-.4-.172-.56-.575-.562-.564,0-1.128,0-1.692,0A1.4,1.4,0,0,1,139.3,8.4c0-.282,0-.564,0-.846a1.4,1.4,0,0,1,1.426-1.419c.135,0,.269,0,.44,0,0-.473-.006-.926,0-1.379a.463.463,0,0,1,.914-.127,1.354,1.354,0,0,1,.016.29c0,.4,0,.792,0,1.216.443,0,.858,0,1.273,0,.372,0,.585.167.591.457s-.214.475-.6.476c-.836,0-1.672,0-2.508,0-.472,0-.619.151-.621.633,0,.224,0,.447,0,.671.005.4.171.56.575.562.564,0,1.128,0,1.692,0a1.4,1.4,0,0,1,1.466,1.467c0,.282,0,.564,0,.846a1.4,1.4,0,0,1-1.427,1.419c-.135,0-.269,0-.423,0-.006.093-.013.167-.016.242s0,.131,0,.225h.251c1.468,0,2.936,0,4.4,0a.388.388,0,0,0,.373-.2,6.537,6.537,0,0,0-4.331-9.953,6.447,6.447,0,0,0-5.209,1.3c-.054.041-.105.087-.162.125a.464.464,0,1,1-.563-.738,7.147,7.147,0,0,1,2.048-1.209,7.464,7.464,0,0,1,10.116,5.967,7.343,7.343,0,0,1-.807,4.487c-.031.059-.06.118-.115.225a9.406,9.406,0,0,0,.945-.012c.083-.009.179-.154.222-.257a8.173,8.173,0,0,0-.82-8.327,8.357,8.357,0,0,0-11.661-2c-.056.039-.11.081-.168.115a.463.463,0,0,1-.645-.112.445.445,0,0,1,.116-.642A13.977,13.977,0,0,1,137.8.9a9.317,9.317,0,0,1,12.969,6.632,9.17,9.17,0,0,1-.461,5.3c-.034.089-.068.178-.111.292.117.005.211.006.3.014a.467.467,0,0,1,.463.467c.006.077,0,.155,0,.233q0,6.766,0,13.533c0,.573-.126.7-.7.7h-6.066c-.068,0-.136,0-.2,0a.469.469,0,0,1-.491-.469.461.461,0,0,1,.5-.461c.661-.007,1.322,0,1.983,0h.324a4.284,4.284,0,0,1,3.71-3.723V17.794A4.283,4.283,0,0,1,146.3,14.07h-12.18c-.078,0-.156,0-.233,0a.485.485,0,0,1-.535-.457c-.007-.28.209-.474.545-.474q2.114,0,4.229,0h3.019m8.867,13.985V24.4a3.179,3.179,0,0,0-2.721,2.719ZM147.29,14.08A3.149,3.149,0,0,0,150,16.793V14.08Z" transform="translate(-122.963 -0.071)"/>
        <path id="Path_105674" data-name="Path 105674" d="M.952,177.945a4.288,4.288,0,0,1,3.708,3.722H18.893c.48,0,.7.144.7.461s-.221.472-.693.472H.682c-.553,0-.682-.13-.682-.688q0-6.778,0-13.557c0-.558.128-.687.682-.688H3.277c.59,0,.71.115.708.676.562.052.693.242.557.807a4.209,4.209,0,0,1-3.405,3.124c-.056.009-.112.02-.185.033Zm0-9.342v2.73a3.232,3.232,0,0,0,2.758-2.73Zm.005,10.331v2.717H3.666a3.177,3.177,0,0,0-2.713-2.717" transform="translate(0 -154.601)"/>
        <path id="Path_105675" data-name="Path 105675" d="M17.8,0a6.151,6.151,0,0,1,6.4,6,5.407,5.407,0,0,1-.732,2.519,21.852,21.852,0,0,1-3.315,4.524c-.528.583-1.085,1.141-1.638,1.7a.459.459,0,0,1-.74.021,27.87,27.87,0,0,1-4.8-5.911,6.179,6.179,0,0,1-.856-2.244,5.539,5.539,0,0,1,1.078-4.065A5.838,5.838,0,0,1,17.8,0m.331,13.9c.9-1.027,1.741-1.954,2.543-2.915a15.13,15.13,0,0,0,2.144-3.249A4.022,4.022,0,0,0,23.272,6a5.133,5.133,0,0,0-8.715-3.614,4.589,4.589,0,0,0-.913,5.689,18.591,18.591,0,0,0,1.7,2.567c.861,1.1,1.81,2.124,2.785,3.254" transform="translate(-11.14 0)"/>
        <path id="Path_105676" data-name="Path 105676" d="M107.793,202.758a5.132,5.132,0,1,1,5.077,5.136,5.136,5.136,0,0,1-5.077-5.136m5.132-4.2a4.2,4.2,0,1,0,4.2,4.214,4.2,4.2,0,0,0-4.2-4.214" transform="translate(-99.393 -182.23)"/>
        <path id="Path_105677" data-name="Path 105677" d="M47.913,39.2a3.266,3.266,0,1,1,3.261,3.264A3.27,3.27,0,0,1,47.913,39.2m3.272-2.335a2.333,2.333,0,1,0,2.326,2.346,2.336,2.336,0,0,0-2.326-2.346" transform="translate(-44.179 -33.128)"/>
      </g>
    </g>
  </g>
</svg>
