<svg width="32" height="32" viewBox="0 0 32 32" fill="none" xmlns="http://www.w3.org/2000/svg">
<path d="M7.5 28.5H10.5V29.5H7.5V28.5Z" fill="black"/>
<path d="M30.4845 15H30.5V13C30.5 11.6215 29.3785 10.5 28 10.5H27.969C27.982 10.3335 28 10.1685 28 10C28 6.416 25.084 3.5 21.5 3.5C19.991 3.5 18.6045 4.0215 17.5 4.887V3C17.5 1.6215 16.3785 0.5 15 0.5H3C1.6215 0.5 0.5 1.6215 0.5 3V29C0.5 30.3785 1.6215 31.5 3 31.5H15C16.3785 31.5 17.5 30.3785 17.5 29V28.5H29C30.3785 28.5 31.5 27.3785 31.5 26V17C31.5 16.1795 31.097 15.456 30.4845 15ZM28 11.5C28.827 11.5 29.5 12.173 29.5 13V14.5505C29.3385 14.5175 29.171 14.5 29 14.5H26.1765C26.984 13.662 27.552 12.6295 27.8195 11.5H28ZM21.5 4.5C24.5325 4.5 27 6.9675 27 10C27 11.7995 26.12 13.468 24.6475 14.5H22V13.429C22.86 13.2055 23.5 12.429 23.5 11.5C23.5 10.397 22.603 9.5 21.5 9.5C20.9485 9.5 20.5 9.0515 20.5 8.5C20.5 7.9485 20.9485 7.5 21.5 7.5C22.0515 7.5 22.5 7.9485 22.5 8.5H23.5C23.5 7.571 22.86 6.7945 22 6.571V5.5H21V6.571C20.14 6.7945 19.5 7.571 19.5 8.5C19.5 9.603 20.397 10.5 21.5 10.5C22.0515 10.5 22.5 10.9485 22.5 11.5C22.5 12.0515 22.0515 12.5 21.5 12.5C20.9485 12.5 20.5 12.0515 20.5 11.5H19.5C19.5 12.429 20.14 13.2055 21 13.429V14.5H18.3525C16.88 13.468 16 11.7995 16 10C16 6.9675 18.4675 4.5 21.5 4.5ZM11.5505 26.5H1.5V4.5H16.5V5.8525C15.564 6.979 15 8.4245 15 10C15 10.1685 15.018 10.3335 15.031 10.5H14C12.6215 10.5 11.5 11.6215 11.5 13V26C11.5 26.171 11.5175 26.3385 11.5505 26.5ZM14 11.5H15.1805C15.262 11.8435 15.373 12.1765 15.508 12.5H14V13.5H16V13.442C16.237 13.8205 16.5105 14.1755 16.8235 14.5H14C13.173 14.5 12.5 13.827 12.5 13C12.5 12.173 13.173 11.5 14 11.5ZM3 1.5H15C15.827 1.5 16.5 2.173 16.5 3V3.5H1.5V3C1.5 2.173 2.173 1.5 3 1.5ZM16.5 29C16.5 29.827 15.827 30.5 15 30.5H3C2.173 30.5 1.5 29.827 1.5 29V27.5H12V27.4845C12.456 28.097 13.1795 28.5 14 28.5H16.5V29ZM29 27.5H14C13.173 27.5 12.5 26.827 12.5 26V14.999C12.918 15.313 13.4375 15.5 14 15.5H29C29.827 15.5 30.5 16.173 30.5 17V18.5H24.5C22.8455 18.5 21.5 19.8455 21.5 21.5C21.5 23.1545 22.8455 24.5 24.5 24.5H30.5V26C30.5 26.827 29.827 27.5 29 27.5ZM30.5 19.5V23.5H24.5C23.397 23.5 22.5 22.603 22.5 21.5C22.5 20.397 23.397 19.5 24.5 19.5H30.5Z" fill="black"/>
<path d="M23.5 21H24.5V22H23.5V21Z" fill="black"/>
<path d="M25 9.5H26V10.5H25V9.5Z" fill="black"/>
<path d="M17 9.5H18V10.5H17V9.5Z" fill="black"/>
<path d="M29.5 5.5H30.5V6.5H29.5V5.5Z" fill="black"/>
<path d="M29.5 7.5H30.5V8.5H29.5V7.5Z" fill="black"/>
<path d="M30.5 6.5H31.5V7.5H30.5V6.5Z" fill="black"/>
<path d="M28.5 6.5H29.5V7.5H28.5V6.5Z" fill="black"/>
<path d="M12.5 6.5H13.5V7.5H12.5V6.5Z" fill="black"/>
<path d="M12.5 8.5H13.5V9.5H12.5V8.5Z" fill="black"/>
<path d="M13.5 7.5H14.5V8.5H13.5V7.5Z" fill="black"/>
<path d="M11.5 7.5H12.5V8.5H11.5V7.5Z" fill="black"/>
<path d="M25.5 0.5H26.5V1.5H25.5V0.5Z" fill="black"/>
<path d="M25.5 2.5H26.5V3.5H25.5V2.5Z" fill="black"/>
<path d="M26.5 1.5H27.5V2.5H26.5V1.5Z" fill="black"/>
<path d="M24.5 1.5H25.5V2.5H24.5V1.5Z" fill="black"/>
</svg>
