<svg xmlns="http://www.w3.org/2000/svg" width="36.473" height="32.5" viewBox="0 0 36.473 32.5">
  <g id="Group_37959" data-name="Group 37959" transform="translate(0.251 -0.25)">
    <path id="Path_105803" data-name="Path 105803" d="M46.453,29.011A1.749,1.749,0,1,0,48.2,27.262a1.751,1.751,0,0,0-1.749,1.749Zm2.382,0a.633.633,0,1,1-.633-.632A.633.633,0,0,1,48.835,29.011Zm0,0" transform="translate(-43.03 -24.789)" stroke="#fff" stroke-width="0.5"/>
    <path id="Path_105804" data-name="Path 105804" d="M100.984,29.011a1.749,1.749,0,1,0,1.749-1.749,1.751,1.751,0,0,0-1.749,1.749Zm2.382,0a.633.633,0,1,1-.632-.632A.633.633,0,0,1,103.366,29.011Zm0,0" transform="translate(-93.925 -24.789)" stroke="#fff" stroke-width="0.5"/>
    <path id="Path_105805" data-name="Path 105805" d="M155.52,29.011a1.749,1.749,0,1,0,1.749-1.749,1.751,1.751,0,0,0-1.749,1.749Zm2.382,0a.633.633,0,1,1-.633-.632A.633.633,0,0,1,157.9,29.011Zm0,0" transform="translate(-144.648 -24.789)" stroke="#fff" stroke-width="0.5"/>
    <path id="Path_105806" data-name="Path 105806" d="M32.6.5H28.871a.532.532,0,0,0,0,1.064H32.6A2.309,2.309,0,0,1,34.908,3.87V6.531H1.064V3.87A2.309,2.309,0,0,1,3.37,1.564H26.394a.532.532,0,1,0,0-1.064H3.37A3.374,3.374,0,0,0,0,3.87v15.71a.532.532,0,1,0,1.064,0V7.6H34.908V29.129A2.308,2.308,0,0,1,32.6,31.435H3.37a2.309,2.309,0,0,1-2.306-2.306V22.092a.532.532,0,0,0-1.064,0V29.13A3.374,3.374,0,0,0,3.37,32.5H32.6a3.374,3.374,0,0,0,3.37-3.37V3.87A3.374,3.374,0,0,0,32.6.5Zm0,0" stroke="#fff" stroke-width="0.5"/>
    <path id="Path_105807" data-name="Path 105807" d="M133.853,153.223H134a9.642,9.642,0,0,0,3.224-.574,5.766,5.766,0,1,0,6.412-9.261A9.7,9.7,0,0,0,134,133.8h0c-.051,0-.106,0-.145,0h0a9.712,9.712,0,0,0,0,19.423Zm-7.625-13.537a20.583,20.583,0,0,1,2.848-.707,16.011,16.011,0,0,0-.61,3.975H125.35A8.611,8.611,0,0,1,126.228,139.686Zm15.4,0a8.616,8.616,0,0,1,.879,3.268h-3.117a16.01,16.01,0,0,0-.61-3.975,20.585,20.585,0,0,1,2.848.707Zm-5.893,9.838a5.714,5.714,0,0,0,.375,1.385,3.384,3.384,0,0,1-1.623,1.123v-2.46c.418-.007.835-.024,1.248-.048Zm-2.364-1.069a28.315,28.315,0,0,1-3.062-.221,14.488,14.488,0,0,1-.724-4.165h3.786Zm0,1.117v2.461a4.546,4.546,0,0,1-2.579-2.618C131.633,149.5,132.5,149.556,133.369,149.571Zm2.316-1.164c-.4.024-.8.04-1.2.047V144.07h3.553A5.764,5.764,0,0,0,135.685,148.408Zm2.586-5.455h-3.786v-4.385a28.437,28.437,0,0,1,3.062.223A14.485,14.485,0,0,1,138.271,142.953Zm-3.786-5.5v-2.46a4.546,4.546,0,0,1,2.579,2.616C136.226,137.519,135.364,137.466,134.485,137.451Zm-1.116-2.46v2.46c-.879.016-1.741.069-2.578.156A4.548,4.548,0,0,1,133.369,134.991Zm0,3.577v4.385h-3.786a14.489,14.489,0,0,1,.723-4.163A28.437,28.437,0,0,1,133.369,138.568Zm-4.9,5.5a16.011,16.011,0,0,0,.611,3.977,20.457,20.457,0,0,1-2.849-.709,8.613,8.613,0,0,1-.879-3.267Zm-1.345,4.695a23.947,23.947,0,0,0,2.372.482,8.812,8.812,0,0,0,1.317,2.276A8.588,8.588,0,0,1,127.122,148.765Zm18.973-.044a4.651,4.651,0,1,1-4.651-4.651A4.657,4.657,0,0,1,146.1,148.721Zm-5.363-10.463a23.552,23.552,0,0,0-2.374-.486,8.812,8.812,0,0,0-1.315-2.273A8.59,8.59,0,0,1,140.732,138.258Zm-9.92-2.759a8.8,8.8,0,0,0-1.316,2.273,23.664,23.664,0,0,0-2.374.486A8.589,8.589,0,0,1,130.811,135.5Zm0,0" transform="translate(-116.82 -125.04)" stroke="#fff" stroke-width="0.5"/>
    <path id="Path_105808" data-name="Path 105808" d="M329.634,288.867v.214a1.661,1.661,0,0,0,.007,3.321h1.1a.545.545,0,0,1,0,1.089h-1.1a.545.545,0,0,1-.544-.544.558.558,0,1,0-1.116,0,1.662,1.662,0,0,0,1.654,1.66v.214a.558.558,0,1,0,1.116,0v-.214a1.661,1.661,0,0,0-.007-3.321h-1.1a.545.545,0,0,1,0-1.089h1.1a.545.545,0,0,1,.544.545.558.558,0,0,0,1.116,0,1.663,1.663,0,0,0-1.654-1.661v-.214a.558.558,0,0,0-1.116,0Zm0,0" transform="translate(-305.087 -267.851)" stroke="#fff" stroke-width="0.5"/>
  </g>
</svg>
