<svg xmlns="http://www.w3.org/2000/svg" width="60" height="56.25" viewBox="0 0 60 56.25">
  <g id="Group_37740" data-name="Group 37740" transform="translate(0 -16)">
    <g id="Group_37740-2" data-name="Group 37740" transform="translate(0 16)">
      <path id="Path_105445" data-name="Path 105445" d="M211.5,23.75a7.75,7.75,0,1,0-7.75,7.75A7.759,7.759,0,0,0,211.5,23.75Zm-7.75,5.167a5.167,5.167,0,1,1,5.167-5.167A5.173,5.173,0,0,1,203.75,28.917Z" transform="translate(-173.75 -16)" fill="#fe5c58"/>
      <path id="Path_105446" data-name="Path 105446" d="M189.25,152.792v-5.167a11.625,11.625,0,1,0-23.25,0v5.167a1.292,1.292,0,0,0,1.292,1.292h20.667A1.292,1.292,0,0,0,189.25,152.792Zm-2.583-1.292H168.583v-3.875a9.042,9.042,0,1,1,18.083,0Z" transform="translate(-147.625 -122.529)" fill="#fe5c58"/>
      <path id="Path_105447" data-name="Path 105447" d="M9.282,153.731,15.5,156.84v6.952a1.292,1.292,0,0,0,1.292,1.292H30.483a1.292,1.292,0,0,0,1.292-1.292V147.359a8.029,8.029,0,0,0-6.9-8.063c-.1-.019-4.992-.384-7.356-2.746l-3.537-3.536a5.132,5.132,0,0,0-3.653-1.514V121.167a5.167,5.167,0,1,0-10.333,0v17.546a16.793,16.793,0,0,0,9.282,15.019Zm-6.7-32.565a2.583,2.583,0,1,1,5.167,0v11.026a5.165,5.165,0,0,0-1.07,8.127l6.615,6.616a1.292,1.292,0,0,0,1.827-1.827l-6.615-6.616a2.583,2.583,0,0,1,.965-4.262h0a2.58,2.58,0,0,1,2.686.61l3.537,3.537c2.409,2.407,5.92,3.084,8.891,3.486l.015,0a5.422,5.422,0,0,1,4.589,5.494V162.5H18.083v-6.458a1.292,1.292,0,0,0-.714-1.155l-6.932-3.466a14.132,14.132,0,0,1-7.854-12.708Z" transform="translate(0 -108.833)" fill="#fe5c58"/>
      <circle id="Ellipse_535" data-name="Ellipse 535" cx="1.5" cy="1.5" r="1.5" transform="translate(51.933 41.517)" fill="#fe5c58"/>
      <path id="Path_105448" data-name="Path 105448" d="M292.608,116a5.173,5.173,0,0,0-5.167,5.167V131.5a5.132,5.132,0,0,0-3.653,1.514l-3.536,3.536c-2.061,2.06-5.405,2.4-7.356,2.746a8.029,8.029,0,0,0-6.9,8.063v16.433a1.292,1.292,0,0,0,1.292,1.292h13.692a1.292,1.292,0,0,0,1.292-1.292V156.84l4.228-2.113a1.292,1.292,0,0,0-1.155-2.311l-4.942,2.47a1.292,1.292,0,0,0-.714,1.156V162.5H268.583V147.359a5.422,5.422,0,0,1,4.589-5.495l.015,0c3.017-.408,6.485-1.081,8.892-3.486l3.537-3.537a2.581,2.581,0,0,1,2.686-.61h0a2.583,2.583,0,0,1,.965,4.263l-6.615,6.616a1.292,1.292,0,1,0,1.827,1.827l6.615-6.616a5.166,5.166,0,0,0-1.07-8.127V121.167a2.583,2.583,0,1,1,5.167,0v17.546a14.247,14.247,0,0,1-1.725,6.785,1.292,1.292,0,0,0,2.27,1.234,16.838,16.838,0,0,0,2.039-8.019V121.167A5.173,5.173,0,0,0,292.608,116Z" transform="translate(-237.775 -108.833)" fill="#fe5c58"/>
    </g>
  </g>
</svg>
