<svg xmlns="http://www.w3.org/2000/svg" width="60" height="55.343" viewBox="0 0 60 55.343">
  <g id="Group_37807" data-name="Group 37807" transform="translate(0 -19.852)">
    <g id="Group_37808" data-name="Group 37808" transform="translate(0 19.852)">
      <g id="Group_37807-2" data-name="Group 37807" transform="translate(0 0)">
        <path id="Path_105558" data-name="Path 105558" d="M58.144,66.8H56.687V40.4a10.532,10.532,0,0,0-13.96-15.76.88.88,0,1,0,1.126,1.352,8.775,8.775,0,1,1-3.162,6.745,8.691,8.691,0,0,1,.868-3.811.88.88,0,0,0-1.584-.765,10.438,10.438,0,0,0-1.043,4.576c0,.209.007.417.019.623H33.712V22.344a2.5,2.5,0,0,0-2.492-2.492H15.682a2.5,2.5,0,0,0-2.492,2.492V33.357H5.735a2.418,2.418,0,0,0-2.416,2.416V56.526a.88.88,0,0,0,1.76,0V35.773a.657.657,0,0,1,.656-.656H13.19V37.7H9.528a2.29,2.29,0,0,0-2.287,2.287v21.94a2.29,2.29,0,0,0,2.287,2.287h40.95a2.29,2.29,0,0,0,2.287-2.287V42.739a10.494,10.494,0,0,0,2.162-1V66.8H5.079V60.588a.88.88,0,0,0-1.76,0V66.8H1.839A1.841,1.841,0,0,0,0,68.634v2.7a3.867,3.867,0,0,0,3.863,3.863H56.12a3.867,3.867,0,0,0,3.863-3.863v-2.7A1.841,1.841,0,0,0,58.144,66.8ZM33.712,35.117H39.2a10.457,10.457,0,0,0,.975,2.584H33.712ZM27.53,21.612l-.261,1.15a.127.127,0,0,1-.125.1H19.757a.127.127,0,0,1-.125-.1l-.261-1.15Zm-12.581.733a.733.733,0,0,1,.733-.733h1.886l.348,1.539a1.878,1.878,0,0,0,1.841,1.471h7.387a1.878,1.878,0,0,0,1.841-1.471l.348-1.539H31.22a.733.733,0,0,1,.733.733v23.64h-17Zm0,25.4h17v2.935a.733.733,0,0,1-.733.733H15.682a.733.733,0,0,1-.733-.733ZM51.006,61.928a.529.529,0,0,1-.528.528H9.528A.528.528,0,0,1,9,61.928V39.988a.528.528,0,0,1,.528-.528H13.19V50.678a2.5,2.5,0,0,0,2.492,2.492H31.22a2.5,2.5,0,0,0,2.492-2.492V39.46h7.652a10.526,10.526,0,0,0,9.641,3.7V61.928ZM27.09,68.559h5.8v1.365h-5.8Zm31.133,2.773a2.106,2.106,0,0,1-2.1,2.1H3.863a2.106,2.106,0,0,1-2.1-2.1v-2.7a.079.079,0,0,1,.079-.079l23.492,0v1.5a1.625,1.625,0,0,0,1.623,1.623h6.075a1.625,1.625,0,0,0,1.623-1.623v-1.5l23.492,0a.079.079,0,0,1,.079.079Z" transform="translate(0 -19.852)" fill="#fe5c58"/>
        <path id="Path_105559" data-name="Path 105559" d="M370.4,94.472a1.928,1.928,0,0,0,2.723,0l6.536-6.536a2.734,2.734,0,0,0-3.866-3.866h0L371.76,88.1l-.641-.641a2.734,2.734,0,0,0-3.866,3.866ZM368.6,88.8a.832.832,0,0,1,1.177,0l1.241,1.241a1.055,1.055,0,0,0,1.49,0l4.631-4.631a.833.833,0,0,1,1.178,1.177l-6.536,6.536a.024.024,0,0,1-.034,0L368.6,89.981a.832.832,0,0,1,0-1.177Z" transform="translate(-324.838 -75.232)" fill="#fe5c58"/>
        <circle id="Ellipse_537" data-name="Ellipse 537" cx="1.463" cy="1.463" r="1.463" transform="matrix(0.987, -0.16, 0.16, 0.987, 17.13, 14.588)" fill="#fe5c58"/>
        <circle id="Ellipse_538" data-name="Ellipse 538" cx="1.463" cy="1.463" r="1.463" transform="translate(21.581 16.599) rotate(-67.486)" fill="#fe5c58"/>
        <circle id="Ellipse_539" data-name="Ellipse 539" cx="1.463" cy="1.463" r="1.463" transform="translate(26.682 14.326)" fill="#fe5c58"/>
      </g>
    </g>
  </g>
</svg>
