<svg width="32" height="32" viewBox="0 0 32 32" fill="none" xmlns="http://www.w3.org/2000/svg">
<g clip-path="url(#clip0_23_892)">
<path d="M9.35915 14.2278C9.35915 13.7508 8.9711 13.3628 8.49409 13.3628H7.28505C6.80803 13.3628 6.41998 13.7508 6.41998 14.2278V15.2171C6.41998 15.6941 6.80803 16.0821 7.28505 16.0821H8.49409C8.9711 16.0821 9.35915 15.6941 9.35915 15.2171V14.2278ZM8.42138 15.1444H7.35776V14.3005H8.42138V15.1444Z" fill="black"/>
<path d="M5.31148 14.2278C5.31148 13.7508 4.92343 13.3628 4.44642 13.3628H3.23744C2.76043 13.3628 2.37238 13.7508 2.37238 14.2278V15.2171C2.37238 15.6941 2.76043 16.0821 3.23744 16.0821H4.44642C4.92343 16.0821 5.31148 15.6941 5.31148 15.2171V14.2278ZM4.37371 15.1444H3.31015V14.3005H4.37371V15.1444Z" fill="black"/>
<path d="M9.35915 17.7884C9.35915 17.3114 8.9711 16.9233 8.49409 16.9233H7.28505C6.80803 16.9233 6.41998 17.3114 6.41998 17.7884V18.7777C6.41998 19.2546 6.80803 19.6427 7.28505 19.6427H8.49409C8.9711 19.6427 9.35915 19.2546 9.35915 18.7777V17.7884ZM8.42138 18.705H7.35776V17.8611H8.42138V18.705Z" fill="black"/>
<path d="M5.31148 17.7884C5.31148 17.3114 4.92343 16.9233 4.44642 16.9233H3.23744C2.76043 16.9233 2.37238 17.3114 2.37238 17.7884V18.7777C2.37238 19.2546 2.76043 19.6427 3.23744 19.6427H4.44642C4.92343 19.6427 5.31148 19.2546 5.31148 18.7777V17.7884ZM4.37371 18.705H3.31015V17.8611H4.37371V18.705Z" fill="black"/>
<path d="M8.49415 20.4844H7.28511C6.80809 20.4844 6.42004 20.8724 6.42004 21.3494V22.3387C6.42004 22.8157 6.80809 23.2038 7.28511 23.2038H8.49415C8.97116 23.2038 9.35921 22.8157 9.35921 22.3387V21.3494C9.35915 20.8724 8.9711 20.4844 8.49415 20.4844ZM8.42138 22.266H7.35775V21.4221H8.42138V22.266Z" fill="black"/>
<path d="M4.44642 20.4844H3.23744C2.76043 20.4844 2.37238 20.8724 2.37238 21.3494V22.3387C2.37238 22.8157 2.76043 23.2038 3.23744 23.2038H4.44642C4.92343 23.2038 5.31148 22.8157 5.31148 22.3387V21.3494C5.31148 20.8724 4.92343 20.4844 4.44642 20.4844V20.4844ZM4.37371 22.266H3.31015V21.4221H4.37371V22.266Z" fill="black"/>
<path d="M11.3328 23.2033H12.5418C13.0188 23.2033 13.4068 22.8153 13.4068 22.3382V21.349C13.4068 20.8719 13.0188 20.4839 12.5418 20.4839H11.3328C10.8558 20.4839 10.4677 20.8719 10.4677 21.349V22.3382C10.4677 22.8153 10.8558 23.2033 11.3328 23.2033ZM11.4055 21.4217H12.469V22.2656H11.4055V21.4217Z" fill="black"/>
<path d="M31.4411 27.9168L30.6892 26.602L31.1733 21.8038C31.4185 19.3729 30.4495 16.9816 28.5811 15.4071L24.6371 12.0838L20.5228 4.8898C20.262 4.43373 19.8391 4.10651 19.3322 3.96847C18.8252 3.83049 18.2948 3.89801 17.8388 4.1589L15.2824 5.62095V2.63052C15.2824 1.18003 14.1023 0 12.6519 0H3.12734C1.67686 0 0.496826 1.18003 0.496826 2.63052V22.5678C0.496826 23.9276 1.53388 25.0497 2.85858 25.1847V30.5919C2.85858 30.8099 2.96855 31.0097 3.15279 31.1263C3.33709 31.243 3.56478 31.2568 3.76178 31.1636L4.78864 30.6774L6.11434 31.2519C6.19436 31.2865 6.27995 31.3039 6.3656 31.3039C6.4545 31.3039 6.5434 31.2852 6.62605 31.2479L7.89304 30.6757L9.21205 31.2505C9.3796 31.3235 9.57047 31.3206 9.73564 31.2423L10.9247 30.6791L12.0292 31.1748C12.2258 31.2629 12.4511 31.2457 12.6319 31.1286C12.8127 31.0115 12.9207 30.8131 12.9207 30.5977V25.1847C14.2454 25.0497 15.2824 23.9276 15.2824 22.5678V21.0135L15.8605 22.0243C15.9231 22.1337 15.9953 22.2355 16.0754 22.3292L15.8745 23.3344C15.7887 23.7638 15.8752 24.2008 16.1181 24.5651C16.361 24.9294 16.7312 25.1773 17.1606 25.263C17.2687 25.2847 17.3774 25.2954 17.4852 25.2954C17.8055 25.2954 18.1187 25.2011 18.3912 25.0195C18.396 25.0163 18.4005 25.0129 18.4052 25.0097C18.6375 25.3658 19.0068 25.6321 19.4557 25.7219C19.5623 25.7432 19.6693 25.7535 19.7753 25.7535C20.0471 25.7535 20.3122 25.6849 20.5478 25.5589C21.1396 27.3063 22.1896 28.8889 23.6027 30.1107L23.9323 30.3957L24.7148 31.7637C24.8013 31.9151 24.9595 31.9999 25.1222 31.9999C25.2011 31.9999 25.2811 31.98 25.3546 31.938C25.5793 31.8094 25.6573 31.523 25.5288 31.2982L24.7067 29.8606C24.6804 29.8146 24.6465 29.7734 24.6063 29.7387L24.2162 29.4014C22.2585 27.7088 21.0666 25.2554 20.9459 22.6703L20.7827 19.1745C20.7724 18.9529 20.7087 18.734 20.5985 18.5412L18.9961 15.7394C18.8782 15.5333 18.8476 15.2936 18.9101 15.0644C18.9725 14.8353 19.1204 14.6442 19.3265 14.5264C19.5327 14.4084 19.7722 14.3777 20.0015 14.4403C20.2306 14.5027 20.4218 14.6506 20.5396 14.8567L21.435 16.4223C21.5636 16.6471 21.85 16.7251 22.0747 16.5966C22.2995 16.468 22.3776 16.1815 22.249 15.9568L21.3537 14.3912C21.1115 13.9676 20.7188 13.6637 20.2479 13.5355C19.7771 13.4073 19.2845 13.4701 18.861 13.7124C17.9866 14.2124 17.6821 15.3307 18.1822 16.2051L19.7846 19.0068C19.8213 19.0712 19.8426 19.1443 19.846 19.2182L19.9239 20.8861L18.079 21.9413C17.8404 22.0777 17.5629 22.1132 17.2977 22.0409C17.0324 21.9686 16.8111 21.7974 16.6747 21.5588L12.9865 15.11C12.8579 14.8852 12.5713 14.8071 12.3466 14.9358C12.1219 15.0643 12.0439 15.3508 12.1724 15.5756L13.0298 17.0747C12.8908 16.9794 12.7228 16.9234 12.5419 16.9234H11.3329C10.8559 16.9234 10.4679 17.3114 10.4679 17.7884V18.7777C10.4679 19.2547 10.8559 19.6427 11.3329 19.6427H12.5419C13.0189 19.6427 13.407 19.2547 13.407 18.7777V17.7884C13.407 17.7684 13.4053 17.7487 13.404 17.7289L14.3447 19.3739V22.5679C14.3447 23.5013 13.5854 24.2606 12.6521 24.2606H3.12734C2.19395 24.2606 1.4346 23.5013 1.4346 22.5679V2.63052C1.4346 1.69712 2.19395 0.937773 3.12734 0.937773H12.6519C13.5853 0.937773 14.3446 1.69712 14.3446 2.63052V6.15729L13.4068 6.69364V4.29881C13.4068 3.88257 13.0682 3.54391 12.6519 3.54391H3.12734C2.71103 3.54391 2.37237 3.88257 2.37237 4.29888V6.29996C2.37237 6.55891 2.58231 6.76884 2.84126 6.76884C3.10021 6.76884 3.31014 6.55891 3.31014 6.29996V4.48168H12.4691V7.22992L10.3563 8.43827C9.50057 8.92766 9.15191 9.96703 9.49988 10.8593H3.31014V8.29816C3.31014 8.03921 3.10021 7.82928 2.84126 7.82928C2.58231 7.82928 2.37237 8.03921 2.37237 8.29816V11.0422C2.37237 11.4585 2.71103 11.7971 3.12734 11.7971H10.0113L11.1803 13.841C11.3089 14.0658 11.5953 14.1438 11.8201 14.0153C12.0449 13.8867 12.1229 13.6003 11.9944 13.3755L10.4395 10.6568C10.1577 10.1641 10.3293 9.53409 10.822 9.25238L18.3044 4.97301C18.5431 4.83653 18.8205 4.80108 19.0858 4.87342C19.3511 4.94563 19.5723 5.11686 19.7088 5.3555L25.9439 16.2576C26.0803 16.4962 26.1157 16.7738 26.0435 17.039C25.9712 17.3043 25.8001 17.5255 25.5614 17.662L23.8002 18.6692L23.2409 17.6913C23.1123 17.4665 22.8258 17.3885 22.6011 17.517C22.3764 17.6456 22.2984 17.932 22.4269 18.1568L23.6918 20.3686C23.7784 20.5199 23.9366 20.6047 24.0993 20.6047C24.1782 20.6047 24.2582 20.5848 24.3316 20.5428C24.5564 20.4143 24.6344 20.1278 24.5059 19.903L24.2658 19.4832L26.027 18.476C26.4831 18.2152 26.8103 17.7923 26.9483 17.2854C27.0864 16.7785 27.0187 16.2481 26.7579 15.792L25.9909 14.451L27.9768 16.1244C29.6082 17.4992 30.4544 19.5872 30.2403 21.7098L29.7412 26.6574C29.7313 26.7547 29.7522 26.8525 29.8007 26.9373L30.6272 28.3826C30.7138 28.5339 30.872 28.6188 31.0347 28.6188C31.1136 28.6188 31.1936 28.5988 31.267 28.5568C31.4918 28.4281 31.5697 28.1416 31.4411 27.9168V27.9168ZM20.0091 22.7141C20.0391 23.3549 20.1294 23.9882 20.2753 24.6064C20.112 24.7718 19.8735 24.849 19.6395 24.8023C19.2603 24.7266 19.0134 24.3563 19.0892 23.9771L19.4352 22.2459L19.9729 21.9384L20.0091 22.7141ZM17.5711 23.0157C17.8412 23.0157 18.1083 22.9586 18.3585 22.8481L18.1696 23.7932C18.1329 23.9769 18.0268 24.1353 17.8709 24.2393C17.715 24.3433 17.528 24.3803 17.3444 24.3435C17.1607 24.3068 17.0023 24.2007 16.8983 24.0449C16.7943 23.889 16.7573 23.702 16.7941 23.5183L16.917 22.9034C16.9611 22.9188 17.0056 22.9332 17.0511 22.9457C17.223 22.9925 17.3976 23.0157 17.5711 23.0157V23.0157ZM12.4691 18.7049H11.4055V17.8611H12.4691V18.7049ZM11.9829 30.1261L11.18 29.7658C11.0109 29.69 10.818 29.692 10.6503 29.7713L9.45956 30.3354L8.14349 29.7618C7.98007 29.6906 7.79307 29.6918 7.6304 29.7653L6.3631 30.3377L5.03465 29.762C4.95431 29.7272 4.86872 29.7098 4.78307 29.7098C4.69055 29.7098 4.59802 29.7302 4.51237 29.7707L3.79629 30.1097V25.1983H11.9829V30.1261Z" fill="black"/>
<path d="M18.4933 8.47891C18.5613 8.22903 18.4139 7.97133 18.1641 7.90331C17.2408 7.65192 16.2748 7.77502 15.4441 8.2501C14.6135 8.72517 14.0176 9.49527 13.7662 10.4186C13.6981 10.6685 13.8455 10.9262 14.0954 10.9942C14.1366 11.0055 14.1781 11.0108 14.2189 11.0108C14.4251 11.0108 14.6142 10.8737 14.671 10.665C14.8566 9.98341 15.2965 9.41487 15.9097 9.06421C16.523 8.71348 17.236 8.62258 17.9177 8.8082C18.1674 8.87615 18.4253 8.72873 18.4933 8.47891V8.47891Z" fill="black"/>
<path d="M17.4247 10.618C17.6744 10.6859 17.9323 10.5387 18.0004 10.2889C18.0685 10.039 17.9211 9.78127 17.6713 9.71319C17.2311 9.59334 16.7709 9.65173 16.3754 9.8778C15.9801 10.1039 15.6964 10.4708 15.5765 10.9112C15.5084 11.161 15.6558 11.4187 15.9057 11.4868C15.9469 11.498 15.9884 11.5034 16.0292 11.5034C16.2354 11.5034 16.4245 11.3662 16.4813 11.1576C16.5354 10.959 16.6632 10.7936 16.841 10.6918C17.0189 10.5902 17.2262 10.5639 17.4247 10.618V10.618Z" fill="black"/>
<path d="M17.2416 12.3374C17.3282 12.4887 17.4864 12.5736 17.6491 12.5736C17.728 12.5736 17.808 12.5536 17.8815 12.5116C18.1062 12.3831 18.1842 12.0966 18.0557 11.8718L17.9 11.5995C17.7714 11.3747 17.4849 11.2966 17.2601 11.4252C17.0354 11.5538 16.9574 11.8402 17.0859 12.0651L17.2416 12.3374Z" fill="black"/>
</g>
<defs>
<clipPath id="clip0_23_892">
<rect width="32" height="32" fill="white"/>
</clipPath>
</defs>
</svg>
