<svg xmlns="http://www.w3.org/2000/svg" width="32" height="32" viewBox="0 0 32 32">
  <g id="Group_37833" data-name="Group 37833" transform="translate(0.001 0)">
    <g id="XMLID_1348_" transform="translate(-0.001 0)">
      <g id="XMLID_1737_" transform="translate(26.49 4.314)">
        <g id="XMLID_1738_">
          <path id="XMLID_919_" d="M420.547,73.339a.6.6,0,1,1,.423-.175A.6.6,0,0,1,420.547,73.339Z" transform="translate(-419.949 -72.143)"/>
        </g>
      </g>
      <g id="XMLID_1551_" transform="translate(0 0)">
        <path id="XMLID_918_" d="M16,32a15.988,15.988,0,0,1-9.262-2.95L2.607,30.157a.625.625,0,0,1-.765-.765l1.106-4.129A16,16,0,0,1,25.06,2.819a.625.625,0,0,1-.709,1.029A14.75,14.75,0,0,0,4.131,24.765a.625.625,0,0,1,.1.534l-.9,3.371,3.371-.9a.625.625,0,0,1,.534.1A14.75,14.75,0,0,0,28.151,7.648a.625.625,0,0,1,1.029-.709A16,16,0,0,1,17.119,31.961Q16.558,32,16,32Z" transform="translate(0.001 0)"/>
      </g>
      <g id="XMLID_1295_" transform="translate(10.104 6.177)">
        <g id="XMLID_2108_">
          <g id="XMLID_2110_">
            <path id="XMLID_915_" d="M163.236,106.275a1.883,1.883,0,0,1-1.885-1.88,5.185,5.185,0,0,1,2.882-4.647,2.238,2.238,0,0,0,1.227-2.1,2.36,2.36,0,0,0-2.118-2.118,2.235,2.235,0,0,0-2.219,1.507,1.9,1.9,0,0,1-1.773,1.3h-.019a1.9,1.9,0,0,1-1.525-.774,1.842,1.842,0,0,1-.271-1.679,6,6,0,1,1,8.391,7.226,1.44,1.44,0,0,0-.809,1.284A1.882,1.882,0,0,1,163.236,106.275Zm0-11.945q.082,0,.164,0a3.533,3.533,0,0,1,3.258,3.258,3.435,3.435,0,0,1-1.884,3.224,4,4,0,0,0-2.224,3.579.687.687,0,0,0,1.373,0,2.629,2.629,0,0,1,1.468-2.352,4.811,4.811,0,0,0,2.638-4.514,4.8,4.8,0,0,0-9.354-1.273.659.659,0,0,0,.1.6.688.688,0,0,0,.56.285s0,0,.007,0a.705.705,0,0,0,.652-.49,3.433,3.433,0,0,1,.879-1.374A3.4,3.4,0,0,1,163.232,94.33Z" transform="translate(-157.441 -91.761)"/>
          </g>
        </g>
        <g id="XMLID_2161_" transform="translate(3.909 15.888)">
          <path id="XMLID_912_" d="M224.7,361.222a1.883,1.883,0,1,1,1.883-1.883A1.885,1.885,0,0,1,224.7,361.222Zm0-2.569a.687.687,0,1,0,.687.687A.688.688,0,0,0,224.7,358.653Z" transform="translate(-222.821 -357.457)"/>
        </g>
      </g>
    </g>
  </g>
</svg>
