<svg width="32" height="32" viewBox="0 0 32 32" fill="none" xmlns="http://www.w3.org/2000/svg">
<g clip-path="url(#clip0_135_434)">
<path d="M24.8011 8.79217C24.8248 8.79579 24.8485 8.79754 24.8719 8.79754C25.0994 8.79754 25.2991 8.63129 25.3343 8.39942C25.4093 7.90448 25.243 7.39779 24.8894 7.04417C24.5597 6.71442 24.1041 6.54779 23.639 6.58692C23.3813 6.6086 23.1899 6.8351 23.2116 7.09285C23.2333 7.35054 23.4594 7.54167 23.7176 7.52023C23.9067 7.50417 24.0928 7.57217 24.2271 7.70648C24.3734 7.85267 24.4394 8.0541 24.4083 8.25898C24.3695 8.51467 24.5454 8.75342 24.8011 8.79217Z" fill="black"/>
<path d="M26.4624 8.8418C26.4862 8.84543 26.5098 8.84718 26.5332 8.84718C26.7608 8.84718 26.9605 8.68099 26.9956 8.44905C27.144 7.47105 26.8155 6.46999 26.1167 5.77124C25.4653 5.11993 24.5652 4.79086 23.6463 4.86799C23.3886 4.88968 23.1973 5.11618 23.219 5.37386C23.2406 5.63155 23.4667 5.82299 23.7249 5.80124C24.3679 5.74686 24.9985 5.97755 25.4545 6.43349C25.9436 6.92261 26.1736 7.62361 26.0696 8.30855C26.0308 8.5643 26.2067 8.80305 26.4624 8.8418V8.8418Z" fill="black"/>
<path d="M28.1786 8.85722C28.2024 8.86084 28.226 8.86259 28.2494 8.86259C28.4769 8.86259 28.6766 8.69641 28.7117 8.46447C28.9343 6.99778 28.4416 5.49659 27.3939 4.44878C26.4172 3.47209 25.0669 2.97834 23.6893 3.09428C23.4316 3.11597 23.2402 3.34247 23.2619 3.60016C23.2836 3.85791 23.5102 4.04897 23.7678 4.02759C24.8702 3.93478 25.9503 4.32978 26.7317 5.11109C27.5699 5.94928 27.9639 7.15041 27.7859 8.32403C27.747 8.57972 27.9229 8.81847 28.1786 8.85722V8.85722Z" fill="black"/>
<path d="M21.3428 19.6634C21.3428 20.4377 21.9727 21.0677 22.7471 21.0677C23.5215 21.0677 24.1513 20.4378 24.1513 19.6634C24.1513 18.889 23.5214 18.2592 22.7471 18.2592C21.9728 18.2592 21.3428 18.8891 21.3428 19.6634ZM22.747 19.1957C23.0049 19.1957 23.2147 19.4055 23.2147 19.6634C23.2147 19.9213 23.0049 20.1311 22.747 20.1311C22.4891 20.1311 22.2793 19.9213 22.2793 19.6634C22.2793 19.4055 22.4891 19.1957 22.747 19.1957Z" fill="black"/>
<path d="M25.7412 0.0159912C22.8978 0.0159912 20.4914 1.92212 19.7321 4.52362H3.28737C1.47475 4.52362 0 5.9983 0 7.81087V23.2929C0 23.5516 0.209688 23.7612 0.468313 23.7612C0.726938 23.7612 0.936625 23.5516 0.936625 23.2929V10.1057C1.53394 10.7175 2.36687 11.0983 3.28737 11.0983H21.7587C22.8416 11.9941 24.2293 12.5337 25.7412 12.5337C26.4296 12.5337 27.1003 12.4224 27.733 12.211V16.6837H22.5727C20.9296 16.6837 19.5929 18.0204 19.5929 19.6634C19.5929 21.3065 20.9297 22.6432 22.5727 22.6432H27.733V29.5238C27.733 30.3641 27.0494 31.0476 26.2092 31.0476H2.46038C1.62013 31.0476 0.936562 30.3641 0.936562 29.5238V25.4254C0.936562 25.1668 0.726875 24.9571 0.46825 24.9571C0.209625 24.9571 0 25.1667 0 25.4253V29.5237C0 30.8804 1.10369 31.9841 2.46038 31.9841H26.2092C27.5659 31.9841 28.6696 30.8804 28.6696 29.5237V22.6211C29.2962 22.5093 29.7738 21.9616 29.7738 21.3033V18.0235C29.7738 17.3652 29.2962 16.8176 28.6696 16.7057V11.8099C29.4283 11.408 30.1058 10.8476 30.6566 10.1498C30.8168 9.9468 30.7821 9.6523 30.5791 9.49205C30.3761 9.33187 30.0817 9.36649 29.9214 9.56949C28.9043 10.8581 27.3806 11.5971 25.7411 11.5971C22.8064 11.5971 20.4189 9.20955 20.4189 6.27487C20.4189 3.34018 22.8064 0.952616 25.7411 0.952616C28.6758 0.952616 31.0634 3.34018 31.0634 6.27487C31.0634 6.79443 30.9888 7.30762 30.8416 7.80037C30.7676 8.04818 30.9086 8.30905 31.1564 8.38305C31.4043 8.45699 31.6651 8.31612 31.7391 8.0683C31.9122 7.48862 31.9999 6.88518 31.9999 6.27487C32 2.82374 29.1923 0.0159912 25.7412 0.0159912V0.0159912ZM28.8372 18.0235V21.3033C28.8372 21.5257 28.6563 21.7066 28.4339 21.7066H22.5726C21.446 21.7066 20.5294 20.79 20.5294 19.6634C20.5294 18.5367 21.446 17.6202 22.5726 17.6202H28.4339C28.6563 17.6202 28.8372 17.8011 28.8372 18.0235V18.0235ZM20.8392 10.1617H3.28737C1.99119 10.1617 0.936625 9.10712 0.936625 7.81093C0.936625 6.51474 1.99119 5.46018 3.28737 5.46018H19.5353C19.5005 5.72687 19.4823 5.99874 19.4823 6.2748C19.4823 6.6388 19.5139 6.99549 19.5738 7.34262H4.06244C3.80381 7.34262 3.59413 7.55224 3.59413 7.81087C3.59413 8.06949 3.80381 8.27918 4.06244 8.27918H19.8114C20.0449 8.96818 20.3956 9.60343 20.8392 10.1617V10.1617Z" fill="black"/>
</g>
<defs>
<clipPath id="clip0_135_434">
<rect width="32" height="32" fill="white"/>
</clipPath>
</defs>
</svg>
