<svg xmlns="http://www.w3.org/2000/svg" xmlns:xlink="http://www.w3.org/1999/xlink" width="32" height="32" viewBox="0 0 32 32">
  <defs>
    <clipPath id="clip-path">
      <rect id="Rectangle_12581" data-name="Rectangle 12581" width="27.023" height="28"/>
    </clipPath>
  </defs>
  <g id="Group_37666" data-name="Group 37666" transform="translate(10187 1859)">
    <g id="Rectangle_12544" data-name="Rectangle 12544" transform="translate(-10187 -1859)" stroke="#707070" stroke-width="1" opacity="0">
      <rect width="32" height="32" stroke="none"/>
      <rect x="0.5" y="0.5" width="31" height="31" fill="none"/>
    </g>
    <g id="Group_37700" data-name="Group 37700" transform="translate(-10185 -1857)">
      <g id="Group_37700-2" data-name="Group 37700" clip-path="url(#clip-path)">
        <path id="Path_105526" data-name="Path 105526" d="M179.032,190.841a1.313,1.313,0,0,1-.937-1.377.994.994,0,0,0-.014-.136,2.572,2.572,0,0,0-.159-1.006c-.162-.252-.549-.365-.846-.522a.354.354,0,0,0-.268,0c-.386.162-.763.343-1.146.511a1.155,1.155,0,0,1-1.571-.5c-.3-.509-.6-1.021-.887-1.537a1.142,1.142,0,0,1,.333-1.571c.335-.251.686-.482,1.014-.742a.473.473,0,0,0,.142-.309,5.11,5.11,0,0,0,0-.789.47.47,0,0,0-.145-.306c-.321-.254-.663-.481-.993-.725a1.149,1.149,0,0,1-.35-1.59q.435-.773.888-1.537a1.154,1.154,0,0,1,1.548-.5c.392.17.778.356,1.174.517a.409.409,0,0,0,.291-.024c.156-.072.286-.2.445-.262a.66.66,0,0,0,.483-.708,8.32,8.32,0,0,1,.075-.87,1.173,1.173,0,0,1,1.274-1.172c.574,0,1.148-.007,1.722,0a1.155,1.155,0,0,1,1.211,1.145c.035.4.067.8.124,1.2a.473.473,0,0,0,.184.262c.113.088.273.12.378.214a.739.739,0,0,0,1,.064,5.646,5.646,0,0,1,.818-.373,1.145,1.145,0,0,1,1.493.475q.479.795.928,1.608a1.144,1.144,0,0,1-.346,1.548c-.336.251-.686.482-1.014.742a.469.469,0,0,0-.134.308c-.019.253.017.512-.012.763a.33.33,0,0,0,.17.356c.331.226.655.462.977.7a1.157,1.157,0,0,1,.342,1.593q-.434.774-.887,1.537a1.154,1.154,0,0,1-1.552.5c-.375-.164-.749-.332-1.118-.508a.312.312,0,0,0-.37.023,2.473,2.473,0,0,1-.562.332.475.475,0,0,0-.32.5c-.016.381-.062.762-.11,1.142a1.229,1.229,0,0,1-.922,1.036Zm-4.835-9.989c.456.329.881.659,1.33.951a.812.812,0,0,1,.372.911,3.032,3.032,0,0,0-.012,1,.9.9,0,0,1-.448,1.058c-.429.268-.826.586-1.242.886l.929,1.607c.545-.245,1.075-.481,1.6-.723a.7.7,0,0,1,.741.079,12.181,12.181,0,0,0,1.2.7.7.7,0,0,1,.444.6c.044.508.093,1.016.155,1.521.01.084.1.226.151.228.571.017,1.142.01,1.727.01.062-.6.129-1.17.177-1.739a.7.7,0,0,1,.453-.618,8.209,8.209,0,0,0,1.129-.653.764.764,0,0,1,.858-.1c.5.245,1.022.463,1.549.7l.927-1.608c-.492-.355-.962-.7-1.437-1.034a.7.7,0,0,1-.285-.687,10.421,10.421,0,0,0,0-1.356.707.707,0,0,1,.3-.707c.247-.171.49-.349.733-.524l.688-.5-.928-1.607c-.522.235-1.026.446-1.515.687a.789.789,0,0,1-.907-.1,7.162,7.162,0,0,0-1.105-.638.714.714,0,0,1-.463-.641c-.045-.569-.115-1.135-.174-1.7h-1.858c-.061.594-.125,1.172-.178,1.751a.692.692,0,0,1-.454.589,7.8,7.8,0,0,0-1.106.639.789.789,0,0,1-.907.095c-.493-.246-1-.458-1.517-.688l-.928,1.608" transform="translate(-160.383 -162.841)"/>
        <path id="Path_105527" data-name="Path 105527" d="M0,196.291a13.159,13.159,0,0,1,.37-1.361,5.2,5.2,0,0,1,4.847-3.34c2.315-.01,4.63,0,6.944,0a.588.588,0,0,1,.659.485.56.56,0,0,1-.359.632,1.345,1.345,0,0,1-.4.043c-2.242,0-4.484,0-6.726,0A4.061,4.061,0,0,0,1.4,195.507a4.428,4.428,0,0,0-.225,1.283c-.029,1.312-.011,2.624-.011,3.937,0,.053.009.106.018.2H9.735c.493,0,.764.208.763.58s-.278.582-.764.582c-2.989,0-5.978,0-8.968,0A.729.729,0,0,1,0,201.65v-5.359" transform="translate(0 -177.588)"/>
        <path id="Path_105528" data-name="Path 105528" d="M69.677,11.66A5.831,5.831,0,1,1,75.5,5.834a5.841,5.841,0,0,1-5.825,5.826m4.65-5.816A4.661,4.661,0,1,0,69.639,10.5a4.671,4.671,0,0,0,4.687-4.654" transform="translate(-59.166 0.001)"/>
        <path id="Path_105529" data-name="Path 105529" d="M234.428,239.537a2.918,2.918,0,1,1-2.918,2.924,2.926,2.926,0,0,1,2.918-2.924m.014,4.659a1.751,1.751,0,0,0,1.74-1.743,1.769,1.769,0,0,0-1.765-1.754,1.748,1.748,0,0,0,.025,3.5" transform="translate(-214.596 -222.036)"/>
      </g>
    </g>
  </g>
</svg>
