<svg xmlns="http://www.w3.org/2000/svg" xmlns:xlink="http://www.w3.org/1999/xlink" width="32" height="32" viewBox="0 0 32 32">
  <defs>
    <clipPath id="clip-path">
      <rect id="Rectangle_12560" data-name="Rectangle 12560" width="28" height="27.992" fill="none"/>
    </clipPath>
  </defs>
  <g id="Group_3767144" data-name="Group 3767144" transform="translate(10187 1859)">
    <g id="Rectangle_12544" data-name="Rectangle 12544" transform="translate(-10187 -1859)" stroke="#707070" stroke-width="1" opacity="0">
      <rect width="32" height="32" stroke="none"/>
      <rect x="0.5" y="0.5" width="31" height="31" fill="none"/>
    </g>
    <g id="Group_37679" data-name="Group 37679" transform="translate(-10185 -1857)">
      <g id="Group_37679-2" data-name="Group 37679" clip-path="url(#clip-path)">
        <path id="Path_105421" data-name="Path 105421" d="M.992,27.992A1.41,1.41,0,0,1,0,26.462q.022-9.949.009-19.9c0-.442.129-.645.409-.646s.411.2.411.644q0,9.976,0,19.953c0,.556.1.658.645.658H19.131c.511,0,.617-.108.617-.628q0-2.132,0-4.264v-.313c-.106.032-.188.055-.268.081a7.092,7.092,0,0,1-2.253.372H8.208c-.046,0-.091,0-.137,0a.408.408,0,0,1-.408-.394.4.4,0,0,1,.385-.418c.245-.017.492-.007.738-.007h5c-.214-.135-.372-.228-.524-.331a2.815,2.815,0,0,1-.55-.4,1.473,1.473,0,0,0-1.271-.442c-1.038.029-2.077.009-3.116.009a2.258,2.258,0,0,1-.246,0,.414.414,0,0,1-.412-.423.4.4,0,0,1,.436-.392c.474-.008.948,0,1.421,0h1.894c-.052-.092-.08-.154-.119-.208a6.936,6.936,0,0,1-1.167-2.624c-.04-.189-.123-.226-.294-.224-.574.008-1.148.005-1.722,0a.409.409,0,0,1-.44-.333.375.375,0,0,1,.231-.447.737.737,0,0,1,.294-.037c.573,0,1.146,0,1.742,0V14.547H9.253c-.374,0-.747,0-1.121,0-.29,0-.475-.172-.469-.416a.416.416,0,0,1,.46-.4c.556-.005,1.111,0,1.667,0H10.1a7.371,7.371,0,0,1,1.349-2.938H8.3a1.75,1.75,0,0,1-.3-.014.34.34,0,0,1-.322-.374.722.722,0,0,1,.266-.393c.076-.062.226-.043.344-.043,1.221,0,2.442,0,3.663-.008a.773.773,0,0,0,.409-.152c.448-.32.883-.658,1.35-1.01H8.3a1.8,1.8,0,0,1-.273-.008.4.4,0,0,1-.361-.438.39.39,0,0,1,.4-.372c.036,0,.073,0,.109,0H17.25a7.435,7.435,0,0,1,2.48.452V5.909h-.295q-1.722,0-3.444,0a1.231,1.231,0,0,1-1.33-1.328c0-1.239,0-2.478,0-3.76H1.437C.943.821.83.936.829,1.434q0,1.517,0,3.034c0,.073,0,.146,0,.219a.4.4,0,0,1-.4.4.393.393,0,0,1-.418-.409C.007,3.5,0,2.312.019,1.128A1.2,1.2,0,0,1,1.16,0c.045,0,.091,0,.137,0Q8.13,0,14.963.009a.75.75,0,0,1,.475.2q2.477,2.451,4.929,4.928a.76.76,0,0,1,.194.478c.018.984.013,1.968,0,2.952a.36.36,0,0,0,.209.363,7.146,7.146,0,0,1,3.479,4.777,1.239,1.239,0,0,1,.038.3.363.363,0,0,1-.324.379.37.37,0,0,1-.444-.233,2.953,2.953,0,0,1-.108-.422,6.394,6.394,0,1,0,.154,1.964c.026-.312.2-.493.45-.47s.394.218.367.538a7.2,7.2,0,0,1-.962,3.074l-.151.26.993.99c.261-.177.49-.073.722.166.686.706,1.379,1.4,2.087,2.088A2.773,2.773,0,0,1,28,23.783v.6a.279.279,0,0,0-.038.072,1.956,1.956,0,0,1-3.385.9c-.756-.814-1.566-1.576-2.352-2.362-.29-.29-.306-.374-.167-.693l-1-.995a.749.749,0,0,1-.138.079c-.3.11-.362.324-.359.635.018,1.539.01,3.079.006,4.618a1.905,1.905,0,0,1-.048.458,1.3,1.3,0,0,1-.939.9Zm22-5.415c.032.037.07.088.114.132.708.709,1.414,1.419,2.126,2.124a1.12,1.12,0,1,0,1.594-1.571c-.722-.733-1.453-1.457-2.182-2.183a.59.59,0,0,0-.089-.065l-1.562,1.564M19.035,5.088,15.482,1.534c0,1.011,0,2.074,0,3.137a.386.386,0,0,0,.413.414c1.063.006,2.127,0,3.137,0M23.6,20.723l-.82-.828-.883.877.826.824.876-.873" transform="translate(0 -0.001)"/>
        <path id="Path_105422" data-name="Path 105422" d="M172.635,140.14a5.42,5.42,0,0,1-3.581,5.024,5.336,5.336,0,0,1-5.977-1.705c-.216-.269-.226-.508-.03-.674s.443-.108.673.163a4.363,4.363,0,0,0,4.542,1.58,4.313,4.313,0,0,0,3.383-3.315,4.524,4.524,0,1,0-8.827-1.983,4.639,4.639,0,0,0,.082,2.135.447.447,0,0,1-.338.663c-.2.042-.34-.1-.4-.292a4.954,4.954,0,0,1-.247-1.884,5.349,5.349,0,0,1,10.583-.793c.066.357.093.721.138,1.081" transform="translate(-150.078 -124.928)"/>
        <path id="Path_105423" data-name="Path 105423" d="M198.554,178.152c.428-.4.845-.784,1.247-1.179a1.278,1.278,0,1,1,1.824,1.782q-1,1.03-2,2.053a1.283,1.283,0,0,1-1.972.026c-.333-.324-.667-.646-1-.973a1.275,1.275,0,1,1,1.767-1.835l.133.126m.041,2.328c.118-.044.2-.069.284-.109a.5.5,0,0,0,.124-.1q1.02-1.044,2.037-2.091a.463.463,0,0,0-.019-.75.474.474,0,0,0-.633.123c-.478.487-.95.979-1.429,1.464a.429.429,0,0,1-.687.014c-.14-.13-.273-.267-.413-.4a.462.462,0,0,0-.7-.032.456.456,0,0,0,.065.675c.342.34.686.678,1.038,1.006a1.817,1.817,0,0,0,.329.2" transform="translate(-181.887 -163.639)"/>
        <path id="Path_105424" data-name="Path 105424" d="M38.507,105.268c0-.282-.007-.564,0-.846a.925.925,0,0,1,.984-.971q.832-.009,1.664,0a.928.928,0,0,1,.991.99q.006.832,0,1.664a.927.927,0,0,1-.97.985q-.846.011-1.692,0a.924.924,0,0,1-.977-.95c-.01-.291,0-.582,0-.873m1.838,1c.245,0,.491-.006.736,0,.166.005.252-.042.249-.229-.008-.518-.007-1.035,0-1.553,0-.167-.066-.225-.226-.224-.518,0-1.035.005-1.553,0-.167,0-.224.07-.222.229q.007.777,0,1.553c0,.162.063.229.227.224.263-.008.527,0,.79,0" transform="translate(-35.692 -95.891)"/>
        <path id="Path_105425" data-name="Path 105425" d="M42.091,264.621c0,.282,0,.564,0,.846a.919.919,0,0,1-.931.967c-.591.015-1.182.014-1.773,0a.908.908,0,0,1-.932-.936c-.015-.591-.016-1.182,0-1.773a.913.913,0,0,1,.968-.928q.846-.008,1.692,0a.927.927,0,0,1,.976.978c0,.282,0,.564,0,.846m-.821.008c0-.263-.006-.527,0-.79,0-.164-.06-.227-.224-.225q-.776.008-1.553,0c-.167,0-.226.066-.224.226q.007.777,0,1.553c0,.162.06.228.225.227q.777-.008,1.553,0c.163,0,.229-.063.223-.227-.008-.254,0-.509,0-.763" transform="translate(-35.635 -243.599)"/>
        <path id="Path_105426" data-name="Path 105426" d="M40.246,186.037c-.292,0-.583.005-.875,0a.89.89,0,0,1-.93-.878c-.023-.628-.024-1.258,0-1.885a.876.876,0,0,1,.916-.859c.6-.01,1.2-.011,1.8,0a.892.892,0,0,1,.906.9c.013.6.012,1.2,0,1.8a.906.906,0,0,1-.923.916c-.3.007-.6,0-.9,0m0-.822c.273,0,.547.013.818-.009a.268.268,0,0,0,.185-.184c.015-.527.005-1.055.011-1.583,0-.154-.058-.209-.209-.207q-.792.008-1.583,0c-.155,0-.209.06-.208.209q.006.778,0,1.556c0,.161.055.229.224.222.254-.011.51,0,.764,0" transform="translate(-35.617 -169.083)"/>
      </g>
    </g>
  </g>
</svg>
