<svg id="Group_37828" data-name="Group 37828" xmlns="http://www.w3.org/2000/svg" width="32" height="32" viewBox="0 0 32 32">
  <path id="Path_105647" data-name="Path 105647" d="M.511,11.239a.511.511,0,0,0,.511-.511V2.554A1.534,1.534,0,0,1,2.554,1.022H20.945a1.534,1.534,0,0,1,1.533,1.533v8.174H17.369a2.556,2.556,0,0,0-2.338,1.533H4.087a.511.511,0,0,1-.511-.511V3.576a.511.511,0,0,1,.511-.511H19.413a.511.511,0,0,1,.511.511V8.685a.511.511,0,0,0,1.022,0V3.576a1.534,1.534,0,0,0-1.533-1.533H4.087A1.534,1.534,0,0,0,2.554,3.576V11.75a1.534,1.534,0,0,0,1.533,1.533H14.815v1.533a.511.511,0,0,0,1.022,0V13.282a1.534,1.534,0,0,1,1.533-1.533h5.62a.511.511,0,0,0,.511-.511V2.554A2.557,2.557,0,0,0,20.945,0H2.554A2.557,2.557,0,0,0,0,2.554v8.174A.511.511,0,0,0,.511,11.239Z"/>
  <path id="Path_105648" data-name="Path 105648" d="M23.155,11.075,19.548,8.909A1.023,1.023,0,0,0,18,9.788V14.11a1.013,1.013,0,0,0,.516.889,1.034,1.034,0,0,0,1.032-.01l3.607-2.166a1.018,1.018,0,0,0,0-1.747ZM19.022,14.11V9.788l3.607,2.161Z" transform="translate(-9.041 -4.286)"/>
  <circle id="Ellipse_540" data-name="Ellipse 540" cx="0.513" cy="0.513" r="0.513" transform="translate(12.489 13.985)"/>
  <path id="Path_105649" data-name="Path 105649" d="M6.511,28a.511.511,0,1,0,0,1.022h6.13a.511.511,0,1,0,0-1.022Z" transform="translate(-2.935 -14.01)"/>
  <path id="Path_105650" data-name="Path 105650" d="M29.5,21h-5a.495.495,0,1,0,0,.989h5A1.5,1.5,0,0,1,31,23.473v7.915a1.5,1.5,0,0,1-1.5,1.484h-11v-.495A2.488,2.488,0,0,0,16,29.9h-.5V26.936a.5.5,0,0,0-.5-.495H2.5A1.5,1.5,0,0,1,1,24.958a.5.5,0,0,0-1,0,2.488,2.488,0,0,0,2.5,2.473h12V29.9H2.5A2.488,2.488,0,0,0,0,32.378V39.8a2.488,2.488,0,0,0,2.5,2.473H16A2.488,2.488,0,0,0,18.5,39.8V35.841a.5.5,0,0,0-1,0v1.776l-1.645-1.632a.517.517,0,0,0-.71,0l-3.4,3.374L7.34,34.995a.508.508,0,0,0-.71,0L1.145,40.427A1.486,1.486,0,0,1,1,39.8v-7.42a1.5,1.5,0,0,1,1.5-1.484H16a1.5,1.5,0,0,1,1.5,1.484v.989a.5.5,0,0,0,.5.495H29.5A2.488,2.488,0,0,0,32,31.389V23.473A2.488,2.488,0,0,0,29.5,21Zm-14,16.033,2,1.979V39.8A1.5,1.5,0,0,1,16,41.282H13.69l-1.24-1.227Zm-8.515-.989,5.3,5.239H2.5a1.5,1.5,0,0,1-.65-.153Z" transform="translate(0 -10.272)"/>
  <path id="Path_105651" data-name="Path 105651" d="M44.068,26.562a1.511,1.511,0,0,0-1.379-.209l-4.705,1.568H36.533A1.537,1.537,0,0,0,35,29.454v.511a1.538,1.538,0,0,0,1.206,1.5l.22,1.762a1.538,1.538,0,0,0,1.522,1.338h.628a.512.512,0,0,0,.511-.511V31.865l3.6,1.2a1.562,1.562,0,0,0,1.379-.209,1.507,1.507,0,0,0,.639-1.241V27.8A1.507,1.507,0,0,0,44.068,26.562Zm-7.535,3.913a.512.512,0,0,1-.511-.511v-.511a.512.512,0,0,1,.511-.511h1.022v1.533Zm1.533,3.065c-.3,0-.582-.112-.628-.444l-.2-1.6h.746l.082.026Zm5.62-1.926a.5.5,0,0,1-.215.414.492.492,0,0,1-.46.066l-4.434-1.476V28.8l4.434-1.476a.492.492,0,0,1,.46.066.5.5,0,0,1,.215.414Z" transform="translate(-17.661 -13.233)"/>
  <path id="Path_105652" data-name="Path 105652" d="M57.022,32.554V30.511a.511.511,0,0,0-1.022,0v2.043a.511.511,0,0,0,1.022,0Z" transform="translate(-28.087 -15.034)"/>
  <path id="Path_105653" data-name="Path 105653" d="M23.533,43a1.533,1.533,0,1,0,1.533,1.533A1.537,1.537,0,0,0,23.533,43Zm0,2.043a.511.511,0,1,1,.511-.511A.512.512,0,0,1,23.533,45.043Z" transform="translate(-11.025 -21.548)"/>
  <circle id="Ellipse_541" data-name="Ellipse 541" cx="0.513" cy="0.513" r="0.513" transform="translate(0 11.992)"/>
</svg>
