<svg xmlns="http://www.w3.org/2000/svg" xmlns:xlink="http://www.w3.org/1999/xlink" width="32" height="32" viewBox="0 0 32 32">
  <defs>
    <clipPath id="clip-path">
      <rect id="Rectangle_12613" data-name="Rectangle 12613" width="26.526" height="28"/>
    </clipPath>
  </defs>
  <g id="Group_37673" data-name="Group 37673" transform="translate(10187 1859)">
    <rect id="Rectangle_12544" data-name="Rectangle 12544" width="32" height="32" transform="translate(-10187 -1859)" opacity="0"/>
    <g id="Group_37725" data-name="Group 37725" transform="translate(-10184 -1857)">
      <g id="Group_37725-2" data-name="Group 37725" clip-path="url(#clip-path)">
        <path id="Path_105682" data-name="Path 105682" d="M9.7,65.771l.778,1.152c.9,1.324,1.805,2.642,2.69,3.975a2.19,2.19,0,0,1-1.112,3.36,2.267,2.267,0,0,1-2.627-.97q-1.853-2.72-3.7-5.446c-.061-.09-.125-.177-.194-.275a3.548,3.548,0,0,1-1.795.574A3.635,3.635,0,0,1,0,64.43a3.391,3.391,0,0,1,1.542-2.822c.72-.5,1.457-.979,2.175-1.484a1.293,1.293,0,0,0,.405-.455q2.1-4.233,4.188-8.476A1.974,1.974,0,0,1,9.953,50.07a4.293,4.293,0,0,1,2.568.629A12.442,12.442,0,0,1,16.2,53.868a16.552,16.552,0,0,1,3.334,6.238,6.48,6.48,0,0,1,.19,3.011,2.667,2.667,0,0,1-.693,1.377,2.061,2.061,0,0,1-1.364.621c-2.58.2-5.159.408-7.739.615-.061,0-.122.021-.23.041m-.789-12.5a14.17,14.17,0,0,0,.268,1.484,15.741,15.741,0,0,0,5.293,8.014A5.855,5.855,0,0,0,16.9,64.028a1.281,1.281,0,0,0,1.227-.372,1.77,1.77,0,0,0,.5-.988,5.107,5.107,0,0,0-.081-2.069,12.556,12.556,0,0,0-1.681-3.908,15.535,15.535,0,0,0-3.739-4.3A6.123,6.123,0,0,0,10.832,51.2a1.384,1.384,0,0,0-1.849,1.219c-.041.242-.046.491-.077.848m-.964,1.118a1.085,1.085,0,0,0-.066.106Q6.5,57.294,5.119,60.1a.318.318,0,0,0,.054.369q1.4,2.064,2.8,4.132a.361.361,0,0,0,.38.182c1.878-.153,3.756-.3,5.634-.448.218-.017.436-.043.657-.066a17.092,17.092,0,0,1-6.7-9.883M7.1,65.223,4.279,61.075c-.073.042-.122.066-.167.1-.687.469-1.385.923-2.057,1.412A2.383,2.383,0,0,0,1.45,65.79a2.378,2.378,0,0,0,3.2,1.029c.844-.465,1.621-1.052,2.444-1.595M6.44,66.965c.119.179.228.346.34.511q1.778,2.62,3.555,5.241a1.171,1.171,0,0,0,.915.575,1.081,1.081,0,0,0,1.075-.57,1.119,1.119,0,0,0-.079-1.264L8.6,66.081a.443.443,0,0,0-.649-.14c-.5.33-1,.674-1.512,1.024" transform="translate(0.001 -46.376)"/>
        <path id="Path_105683" data-name="Path 105683" d="M275.4,59.063a.562.562,0,0,1-.612-.361.527.527,0,0,1,.239-.639c.531-.355,1.067-.7,1.6-1.053q1.018-.669,2.036-1.337a.566.566,0,0,1,.845.085c.195.281.1.6-.244.832q-1.773,1.166-3.549,2.325a1.977,1.977,0,0,1-.317.148" transform="translate(-254.596 -51.454)"/>
        <path id="Path_105684" data-name="Path 105684" d="M287.588,137.936l2.273.406c.683.122,1.366.247,2.05.366a.556.556,0,0,1,.515.6.562.562,0,0,1-.68.479q-2.146-.377-4.288-.771a.543.543,0,1,1,.13-1.076" transform="translate(-265.904 -127.818)"/>
        <path id="Path_105685" data-name="Path 105685" d="M239.359.575q-.168,1.634-.335,3.268c-.027.263-.051.527-.084.789a.531.531,0,0,1-.6.5.518.518,0,0,1-.465-.6q.2-2.03.413-4.058a.521.521,0,0,1,.6-.47.533.533,0,0,1,.474.571" transform="translate(-220.423 -0.001)"/>
        <path id="Path_105686" data-name="Path 105686" d="M151.161,122.2a3.033,3.033,0,0,1,3.042,1.983,2.923,2.923,0,0,1-.967,3.249,1.034,1.034,0,0,1-.434.2.467.467,0,0,1-.526-.307.512.512,0,0,1,.115-.6c.064-.064.142-.115.212-.173a1.851,1.851,0,0,0-2.075-3.044c-.048.026-.094.056-.142.082a.541.541,0,0,1-.787-.166.555.555,0,0,1,.241-.769,2.786,2.786,0,0,1,1.321-.454" transform="translate(-138.556 -113.24)"/>
      </g>
    </g>
  </g>
</svg>
