<svg xmlns="http://www.w3.org/2000/svg" width="34.928" height="32" viewBox="0 0 34.928 32">
  <g id="Group_37781" data-name="Group 37781" transform="translate(0 -21.461)">
    <g id="Group_37782" data-name="Group 37782" transform="translate(0 21.461)">
      <g id="Group_37781-2" data-name="Group 37781">
        <path id="Path_105496" data-name="Path 105496" d="M34.556,41.686a2.159,2.159,0,0,0-2.982-.577l-4.457,2.983L27.1,34.807l1.549,1.451a1.763,1.763,0,0,0,1.209.478h0a1.776,1.776,0,0,0,1.289-.56,1.77,1.77,0,0,0-.082-2.5l-2.936-2.75a.5.5,0,0,0-.682.728l2.936,2.75a.773.773,0,0,1-.527,1.336h0a.769.769,0,0,1-.528-.209h0L17.677,24.61a.5.5,0,0,0-.683,0L5.367,35.564a.773.773,0,0,1-1.059-1.125L16.8,22.667a.774.774,0,0,1,1.058,0l7.311,6.849a.5.5,0,1,0,.682-.728l-7.311-6.849a1.773,1.773,0,0,0-2.423,0l-4,3.768v-.672a.793.793,0,0,0-.793-.792h0l-2.862,0a.793.793,0,0,0-.792.794l.008,4.849-4.055,3.82A1.77,1.77,0,0,0,4.785,36.77h.054a1.757,1.757,0,0,0,1.212-.482L7.6,34.834,7.6,39.22a10.506,10.506,0,0,0-1.514-.111H5.236v-.3a1.822,1.822,0,0,0-1.82-1.82H1.82A1.822,1.822,0,0,0,0,38.81v7.812a.5.5,0,0,0,1,0V38.81a.824.824,0,0,1,.823-.823h1.6a.824.824,0,0,1,.823.823V50.616a.824.824,0,0,1-.823.823H1.82A.824.824,0,0,1,1,50.616v-.872a.5.5,0,0,0-1,0v.872a1.822,1.822,0,0,0,1.82,1.82h1.6a1.822,1.822,0,0,0,1.82-1.82v-.068l7.3,2.765.041.014a3.482,3.482,0,0,0,.948.135,3.227,3.227,0,0,0,.5-.039l10.73-1.547h.008a5.253,5.253,0,0,0,2.489-1.115l.018-.016,6.932-6.234A2.159,2.159,0,0,0,34.556,41.686ZM11.122,25.243l0,1.4-2.45,2.308-.006-3.709Zm6.215.414,8.769,8.214.015,10.887L24.71,45.7l-1.495-.084-.039-.4a3.157,3.157,0,0,0-2.536-2.792l-.009-6.477a.9.9,0,0,0-.9-.9h0l-4.752.007a.9.9,0,0,0-.9.9l.008,5.647a9.475,9.475,0,0,1-2.68-1.062q-.157-.092-.317-.178l-.126-.065c-.065-.034-.13-.068-.2-.1l-.158-.076-.168-.079-.173-.076-.159-.068-.179-.071-.159-.061-.178-.064-.168-.058L9.25,39.6l-.184-.056-.159-.046L8.7,39.439l-.1-.026L8.592,33.9Zm2.3,16.649-4.17-.48-.393-.045-.008-5.724,4.562-.006Zm13.9,1.459-6.925,6.228a4.254,4.254,0,0,1-2,.9L13.889,52.434h-.014a2.377,2.377,0,0,1-1.006-.064L5.236,49.482V40.106h.853a9.52,9.52,0,0,1,2.15.247l.078.019c.086.021.172.042.258.065l.022.006q.129.035.257.074l.046.014q.136.042.271.088l.028.01q.281.1.555.211l.03.013q.137.058.272.119l.007,0q.131.06.259.124l.03.015q.126.063.25.13l.047.025c.083.046.167.092.249.14a10.473,10.473,0,0,0,3.839,1.336l.013,0,5.586.643.092.015a2.162,2.162,0,0,1,1.688,1.553,2.191,2.191,0,0,1,.067.363l.022.223-10.469-.917a.5.5,0,1,0-.087.993l11.068.97h.016l2.087.117h.028l.029,0,.033,0,.044-.008.031-.007a.486.486,0,0,0,.047-.017l.025-.01a.492.492,0,0,0,.067-.038L26.9,45.439h0l5.233-3.5a1.157,1.157,0,0,1,1.411,1.828Z" transform="translate(0 -21.461)"/>
      </g>
    </g>
  </g>
</svg>
