<svg xmlns="http://www.w3.org/2000/svg" width="59.981" height="59.999" viewBox="0 0 59.981 59.999">
  <g id="Group_37865" data-name="Group 37865" transform="translate(-2.009 -2.001)">
    <path id="Path_105691" data-name="Path 105691" d="M3.108,8.343C1.029,11.774,1.963,17.232,5.38,21.615A1.006,1.006,0,0,0,6.17,22a.988.988,0,0,0,.432-.1,1,1,0,0,0,.542-1.131,10.821,10.821,0,0,1,.3-6.242,5.487,5.487,0,0,1,2.782-3.023l.688-.34.633,1.342a.986.986,0,0,0,.948.572,1,1,0,0,0,.895-.652L15.94,5.515a1,1,0,0,0-.637-1.3L8.461,2.047a1,1,0,0,0-1.206,1.38l.656,1.39-1.095.552A7.216,7.216,0,0,0,3.108,8.343ZM7.669,7.18,9.682,6.163a1,1,0,0,0,.453-1.319l-.094-.2L13.7,5.8,12.334,9.5l-.055-.115a1,1,0,0,0-.579-.519.986.986,0,0,0-.775.053L9.359,9.7a7.509,7.509,0,0,0-3.806,4.162,11.622,11.622,0,0,0-.678,2.964c-1.135-2.771-1.21-5.542-.056-7.446A5.24,5.24,0,0,1,7.562,7.226a1.148,1.148,0,0,0,.107-.046Z" fill="#fe5c58"/>
    <path id="Path_105692" data-name="Path 105692" d="M53.778,52.495l-.688.34-.633-1.342a.987.987,0,0,0-.948-.572,1,1,0,0,0-.9.652L48.06,58.485a1,1,0,0,0,.637,1.3l6.841,2.168a1.024,1.024,0,0,0,.3.047,1,1,0,0,0,.9-1.427l-.656-1.39,1.1-.553a7.207,7.207,0,0,0,3.708-2.974c2.079-3.431,1.145-8.889-2.272-13.272a1,1,0,0,0-1.763.845,10.821,10.821,0,0,1-.3,6.242A5.487,5.487,0,0,1,53.778,52.5Zm4.668-2.357a11.622,11.622,0,0,0,.678-2.964c1.136,2.771,1.211,5.542.057,7.446a5.24,5.24,0,0,1-2.743,2.154,1,1,0,0,0-.106.046l-2.013,1.017a1,1,0,0,0-.453,1.319l.094.2L50.3,58.195,51.667,54.5l.055.115a1,1,0,0,0,1.354.466l1.565-.782a7.507,7.507,0,0,0,3.805-4.162Z" fill="#fe5c58"/>
    <path id="Path_105693" data-name="Path 105693" d="M51.5,20.392a1,1,0,0,0,0-1.414L45.023,12.5a1,1,0,0,0-1.414,0l-1.372,1.372a.821.821,0,0,1-.958.153,20.007,20.007,0,0,0-3.127-1.3.82.82,0,0,1-.568-.785V10a1,1,0,0,0-1-1H27.418a1,1,0,0,0-1,1v1.94a.82.82,0,0,1-.566.784,20.091,20.091,0,0,0-3.128,1.3.82.82,0,0,1-.958-.151L20.393,12.5a1,1,0,0,0-1.414,0L12.5,18.977a1,1,0,0,0,0,1.414l1.372,1.372a.821.821,0,0,1,.153.958,20.079,20.079,0,0,0-1.3,3.128.815.815,0,0,1-.784.567H10a1,1,0,0,0-1,1v9.166a1,1,0,0,0,1,1h1.94a.82.82,0,0,1,.784.566,20.091,20.091,0,0,0,1.3,3.128.82.82,0,0,1-.151.958L12.5,43.607a1,1,0,0,0,0,1.414L18.977,51.5a1,1,0,0,0,1.414,0l1.372-1.372a.824.824,0,0,1,.958-.153,20.007,20.007,0,0,0,3.127,1.3.82.82,0,0,1,.568.785V54a1,1,0,0,0,1,1h9.166a1,1,0,0,0,1-1V52.06a.82.82,0,0,1,.566-.784,20.091,20.091,0,0,0,3.128-1.3.82.82,0,0,1,.958.151L43.607,51.5a1,1,0,0,0,1.414,0L51.5,45.023a1,1,0,0,0,0-1.414L50.13,42.237a.821.821,0,0,1-.153-.958,20.007,20.007,0,0,0,1.3-3.127.82.82,0,0,1,.785-.568H54a1,1,0,0,0,1-1V27.418a1,1,0,0,0-1-1H52.06a.817.817,0,0,1-.784-.566,20.091,20.091,0,0,0-1.3-3.128.82.82,0,0,1,.151-.958Zm.556,8.025H53v7.166h-.94a2.813,2.813,0,0,0-2.69,1.961A18.093,18.093,0,0,1,48.2,40.359a2.815,2.815,0,0,0,.515,3.29l.666.666-5.067,5.067-.667-.667a2.814,2.814,0,0,0-3.29-.513,18.218,18.218,0,0,1-2.816,1.167,2.812,2.812,0,0,0-1.959,2.689V53H28.419v-.94a2.813,2.813,0,0,0-1.961-2.69A18.093,18.093,0,0,1,23.643,48.2a2.814,2.814,0,0,0-3.29.515l-.666.666L14.62,44.317l.667-.667a2.814,2.814,0,0,0,.513-3.29,18.218,18.218,0,0,1-1.167-2.816,2.812,2.812,0,0,0-2.689-1.959H11V28.419h.94a2.811,2.811,0,0,0,2.69-1.961A18.093,18.093,0,0,1,15.8,23.643a2.815,2.815,0,0,0-.515-3.29l-.666-.666,5.067-5.067.667.667a2.814,2.814,0,0,0,3.29.513,18.218,18.218,0,0,1,2.816-1.167,2.812,2.812,0,0,0,1.959-2.689V11h7.166v.94a2.813,2.813,0,0,0,1.961,2.69A18.093,18.093,0,0,1,40.357,15.8a2.819,2.819,0,0,0,3.29-.515l.666-.666,5.067,5.067-.667.667a2.814,2.814,0,0,0-.513,3.29,18.145,18.145,0,0,1,1.166,2.815,2.818,2.818,0,0,0,2.694,1.962Z" fill="#fe5c58"/>
    <path id="Path_105694" data-name="Path 105694" d="M32,16A16,16,0,1,0,48,32,16.019,16.019,0,0,0,32,16Zm0,30A14,14,0,1,1,46,32,14.015,14.015,0,0,1,32,46Z" fill="#fe5c58"/>
    <path id="Path_105695" data-name="Path 105695" d="M34,28H30a1,1,0,0,0-1,1v9a1,1,0,0,0,1,1h4a1,1,0,0,0,1-1V29A1,1,0,0,0,34,28Zm-1,9H31V30h2Z" fill="#fe5c58"/>
    <path id="Path_105696" data-name="Path 105696" d="M27,31H23a1,1,0,0,0-1,1v6a1,1,0,0,0,1,1h4a1,1,0,0,0,1-1V32A1,1,0,0,0,27,31Zm-1,6H24V33h2Z" fill="#fe5c58"/>
    <path id="Path_105697" data-name="Path 105697" d="M41,25H37a1,1,0,0,0-1,1V38a1,1,0,0,0,1,1h4a1,1,0,0,0,1-1V26A1,1,0,0,0,41,25ZM40,37H38V27h2Z" fill="#fe5c58"/>
  </g>
</svg>
