<svg width="32" height="32" viewBox="0 0 32 32" fill="none" xmlns="http://www.w3.org/2000/svg">
<path d="M14.281 12.914L18.081 9.11402C18.1465 9.05074 18.1988 8.97505 18.2348 8.89135C18.2708 8.80765 18.2897 8.71762 18.2905 8.62652C18.2913 8.53542 18.274 8.44507 18.2395 8.36075C18.205 8.27643 18.154 8.19982 18.0896 8.1354C18.0252 8.07098 17.9486 8.02004 17.8643 7.98554C17.7799 7.95105 17.6896 7.9337 17.5985 7.9345C17.5074 7.9353 17.4174 7.95424 17.3337 7.99022C17.25 8.02619 17.1743 8.07847 17.111 8.14402L13.311 11.944C13.1824 12.0726 13.1101 12.247 13.11 12.4288C13.11 12.6107 13.1822 12.7851 13.3108 12.9138C13.4393 13.0424 13.6137 13.1147 13.7956 13.1147C13.9774 13.1148 14.1524 13.0426 14.281 12.914Z" fill="black"/>
<path d="M20.4855 12.35C20.651 12.3502 20.8129 12.3013 20.9506 12.2095C21.0883 12.1176 21.1957 11.987 21.2591 11.8341C21.3226 11.6812 21.3392 11.5129 21.307 11.3506C21.2747 11.1882 21.195 11.0391 21.078 10.922C20.9609 10.805 20.8118 10.7253 20.6494 10.693C20.4871 10.6608 20.3188 10.6774 20.1659 10.7409C20.013 10.8043 19.8824 10.9117 19.7906 11.0494C19.6987 11.1871 19.6498 11.349 19.65 11.5145C19.6503 11.736 19.7384 11.9484 19.895 12.105C20.0516 12.2616 20.264 12.3498 20.4855 12.35Z" fill="black"/>
<path d="M31.314 14.293H31.0365C30.9703 14.2928 30.9057 14.2731 30.8507 14.2362C30.7957 14.1994 30.7529 14.1471 30.7275 14.0859C30.7022 14.0248 30.6955 13.9575 30.7083 13.8926C30.7211 13.8277 30.7528 13.768 30.7995 13.721L31.7995 12.721C31.8632 12.6574 31.9138 12.5818 31.9483 12.4987C31.9828 12.4155 32.0005 12.3263 32.0005 12.2363C32.0005 12.1462 31.9828 12.0571 31.9483 11.9739C31.9138 11.8907 31.8632 11.8151 31.7995 11.7515L30.3195 10.2725C30.2077 10.1605 30.0606 10.0906 29.9031 10.0746C29.7456 10.0587 29.5875 10.0977 29.4555 10.185C29.1513 10.386 28.7946 10.4927 28.43 10.492C27.9749 10.4873 27.536 10.3222 27.1905 10.026C26.8451 9.72967 26.6151 9.32108 26.541 8.87202C26.5067 8.64929 26.5179 8.42192 26.574 8.20364C26.63 7.98537 26.7297 7.78071 26.867 7.60202C26.9552 7.46979 26.995 7.31114 26.9796 7.15295C26.9642 6.99476 26.8945 6.84675 26.7825 6.73402L25.266 5.21802C25.1543 5.10595 25.0072 5.03604 24.8498 5.02018C24.6924 5.00432 24.5343 5.04348 24.4025 5.13102C24.0979 5.33248 23.7407 5.43962 23.3755 5.43902C22.9211 5.43488 22.4829 5.27027 22.1381 4.97429C21.7934 4.67831 21.5644 4.27001 21.4915 3.82152C21.4582 3.59759 21.4698 3.36928 21.5256 3.14987C21.5814 2.93046 21.6803 2.72435 21.8165 2.54352C21.9031 2.41158 21.9416 2.25387 21.9255 2.0969C21.9095 1.93992 21.8399 1.79324 21.7285 1.68152L20.25 0.200019C20.1863 0.136281 20.1107 0.0857172 20.0275 0.0512183C19.9443 0.0167195 19.8551 -0.0010376 19.765 -0.0010376C19.6749 -0.0010376 19.5857 0.0167195 19.5025 0.0512183C19.4193 0.0857172 19.3437 0.136281 19.28 0.200019L5.284 14.195C5.25305 14.2265 5.21617 14.2515 5.1755 14.2687C5.13482 14.2859 5.09115 14.2948 5.047 14.295H0.686C0.504407 14.295 0.330223 14.367 0.20163 14.4952C0.0730379 14.6235 0.000529424 14.7974 0 14.979V17.072C0.000891197 17.2311 0.0567222 17.385 0.158042 17.5076C0.259363 17.6303 0.399948 17.7141 0.556 17.745C0.876554 17.8153 1.17344 17.9674 1.41772 18.1866C1.66201 18.4057 1.84537 18.6844 1.94995 18.9955C2.05453 19.3065 2.07675 19.6394 2.01446 19.9616C1.95217 20.2838 1.80748 20.5843 1.5945 20.834C1.32475 21.1442 0.951725 21.3462 0.5445 21.4025C0.390691 21.4354 0.252782 21.52 0.153717 21.6422C0.0546526 21.7643 0.000405105 21.9167 0 22.074V24.2185C0.000891197 24.3776 0.0567222 24.5315 0.158042 24.6541C0.259363 24.7768 0.399948 24.8606 0.556 24.8915C0.876603 24.9618 1.17352 25.114 1.41782 25.3332C1.66212 25.5524 1.84547 25.8312 1.95001 26.1423C2.05454 26.4534 2.07669 26.7863 2.0143 27.1086C1.95191 27.4308 1.80711 27.7314 1.594 27.981C1.32458 28.2912 0.951937 28.4933 0.545 28.55C0.391266 28.5828 0.253369 28.6672 0.154225 28.7891C0.0550804 28.9111 0.000657698 29.0633 0 29.2205V31.314C0 31.496 0.0722748 31.6704 0.200925 31.7991C0.329575 31.9277 0.504061 32 0.686 32H31.314C31.4959 32 31.6704 31.9277 31.7991 31.7991C31.9277 31.6704 32 31.496 32 31.314V29.2205C31.9991 29.061 31.943 28.9067 31.8413 28.7837C31.7396 28.6608 31.5985 28.5768 31.442 28.546C31.1218 28.4753 30.8254 28.3229 30.5816 28.1037C30.3377 27.8845 30.1548 27.6059 30.0505 27.2951C29.9462 26.9842 29.9241 26.6517 29.9864 26.3298C30.0487 26.0078 30.1933 25.7075 30.406 25.458C30.6757 25.1476 31.0487 24.9455 31.456 24.889C31.6095 24.8561 31.7472 24.7716 31.8462 24.6496C31.9451 24.5277 31.9994 24.3756 32 24.2185V22.074C31.999 21.9146 31.9429 21.7604 31.8412 21.6375C31.7395 21.5147 31.5985 21.4308 31.442 21.4C31.1218 21.3293 30.8254 21.1769 30.5816 20.9577C30.3377 20.7385 30.1548 20.4599 30.0505 20.1491C29.9462 19.8382 29.9241 19.5057 29.9864 19.1838C30.0487 18.8618 30.1933 18.5615 30.406 18.312C30.6758 18.0016 31.0487 17.7994 31.456 17.7425C31.6097 17.7098 31.7475 17.6254 31.8465 17.5034C31.9455 17.3814 31.9997 17.2291 32 17.072V14.979C31.9995 14.7972 31.927 14.6231 31.7985 14.4945C31.67 14.366 31.4958 14.2935 31.314 14.293ZM7.7 13.721L19.527 1.89252C19.5581 1.86138 19.5951 1.83667 19.6357 1.81981C19.6764 1.80296 19.72 1.79428 19.764 1.79428C19.808 1.79428 19.8516 1.80296 19.8923 1.81981C19.9329 1.83667 19.9699 1.86138 20.001 1.89252C20.119 2.04252 20.4255 2.19552 20.323 2.48502C20.1491 2.97402 20.0953 3.49766 20.1661 4.01182C20.2369 4.52597 20.4303 5.01557 20.7299 5.43935C21.0295 5.86314 21.4266 6.20868 21.8878 6.44688C22.3489 6.68507 22.8605 6.80893 23.3795 6.80802C24.3565 6.80802 24.541 6.43252 24.8105 6.70152C25.1325 7.07902 25.4875 7.22502 25.3765 7.53802C25.2027 8.027 25.149 8.55057 25.2197 9.06466C25.2904 9.57876 25.4836 10.0684 25.7829 10.4923C26.0823 10.9162 26.479 11.262 26.9399 11.5006C27.4007 11.7392 27.9121 11.8637 28.431 11.8635C29.398 11.8635 29.5935 11.487 29.8625 11.755C29.9545 11.86 30.4125 12.167 30.1075 12.4725L28.6 13.9815C28.5012 14.0803 28.3839 14.1587 28.2547 14.2122C28.1256 14.2656 27.9872 14.2931 27.8475 14.293H7.9345C7.86853 14.2923 7.80422 14.2722 7.74962 14.2352C7.69502 14.1982 7.65255 14.1458 7.62752 14.0848C7.6025 14.0238 7.59602 13.9567 7.60892 13.892C7.62181 13.8273 7.65349 13.7678 7.7 13.721ZM30.628 16.345C30.6281 16.4041 30.6124 16.4622 30.5828 16.5133C30.5531 16.5644 30.5104 16.6068 30.459 16.636C30.0753 16.8159 29.7267 17.0625 29.4295 17.3645C29.089 17.7406 28.8408 18.1908 28.7047 18.6795C28.5686 19.1682 28.5482 19.6819 28.6453 20.1799C28.7424 20.6778 28.9542 21.1462 29.2639 21.548C29.5736 21.9498 29.9727 22.2739 30.4295 22.4945C30.4885 22.5215 30.5387 22.5646 30.5741 22.619C30.6095 22.6733 30.6287 22.7366 30.6295 22.8015V23.4225C30.6381 23.4981 30.6236 23.5746 30.5879 23.6418C30.5522 23.709 30.497 23.7638 30.4295 23.799C29.9727 24.0196 29.5736 24.3436 29.2639 24.7453C28.9542 25.1471 28.7424 25.6155 28.6453 26.1134C28.5482 26.6113 28.5686 27.125 28.7047 27.6136C28.8408 28.1023 29.089 28.5525 29.4295 28.9285C29.7269 29.2306 30.0757 29.4772 30.4595 29.657C30.5109 29.6864 30.5536 29.7288 30.5832 29.78C30.6129 29.8312 30.6285 29.8893 30.6285 29.9485C30.6075 30.0435 30.743 30.6285 30.2935 30.6285H1.7065C1.2445 30.6285 1.397 30.062 1.372 29.9485C1.37201 29.8894 1.38764 29.8312 1.41732 29.7801C1.44699 29.7289 1.48966 29.6864 1.541 29.657C1.92487 29.4771 2.27364 29.2302 2.571 28.928C2.91131 28.552 3.1593 28.1018 3.29531 27.6132C3.43132 27.1246 3.45161 26.6111 3.35455 26.1133C3.2575 25.6155 3.04577 25.1471 2.73618 24.7454C2.42659 24.3437 2.02765 24.0197 1.571 23.799C1.51201 23.772 1.4619 23.7289 1.4265 23.6745C1.39109 23.6202 1.37184 23.5569 1.371 23.492V22.8705C1.36227 22.795 1.37672 22.7185 1.41244 22.6514C1.44817 22.5842 1.50346 22.5295 1.571 22.4945C2.02766 22.2738 2.4266 21.9497 2.73619 21.548C3.04578 21.1462 3.2575 20.6778 3.35455 20.18C3.4516 19.6822 3.43132 19.1686 3.29531 18.6799C3.1593 18.1913 2.91131 17.7411 2.571 17.365C2.27364 17.0628 1.92487 16.816 1.541 16.636C1.48963 16.6068 1.44693 16.5644 1.41724 16.5133C1.38756 16.4622 1.37195 16.4041 1.372 16.345C1.393 16.249 1.2575 15.665 1.7065 15.665H30.293C30.7555 15.665 30.603 16.2315 30.628 16.345Z" fill="black"/>
<path d="M7.7695 19.75H24.23C24.3216 19.7525 24.4128 19.7366 24.4982 19.7032C24.5835 19.6699 24.6613 19.6198 24.727 19.5558C24.7927 19.4919 24.8449 19.4155 24.8805 19.3311C24.9162 19.2466 24.9345 19.1559 24.9345 19.0643C24.9345 18.9726 24.9162 18.8819 24.8805 18.7975C24.8449 18.713 24.7927 18.6366 24.727 18.5727C24.6613 18.5088 24.5835 18.4587 24.4982 18.4253C24.4128 18.392 24.3216 18.376 24.23 18.3785H7.7695C7.59083 18.3833 7.4211 18.4577 7.29644 18.5858C7.17177 18.7139 7.10202 18.8855 7.10202 19.0643C7.10202 19.243 7.17177 19.4147 7.29644 19.5428C7.4211 19.6708 7.59083 19.7452 7.7695 19.75Z" fill="black"/>
<path d="M24.23 26.5445H7.7695C7.58756 26.5445 7.41307 26.6168 7.28442 26.7454C7.15577 26.8741 7.0835 27.0486 7.0835 27.2305C7.0835 27.4125 7.15577 27.5869 7.28442 27.7156C7.41307 27.8442 7.58756 27.9165 7.7695 27.9165H24.23C24.4119 27.9165 24.5864 27.8442 24.7151 27.7156C24.8437 27.5869 24.916 27.4125 24.916 27.2305C24.916 27.0486 24.8437 26.8741 24.7151 26.7454C24.5864 26.6168 24.4119 26.5445 24.23 26.5445Z" fill="black"/>
<path d="M7.77 23.983C7.93544 23.983 8.09717 23.934 8.23473 23.842C8.3723 23.7501 8.47951 23.6195 8.54283 23.4666C8.60614 23.3138 8.6227 23.1456 8.59043 22.9833C8.55815 22.8211 8.47848 22.672 8.3615 22.555C8.24451 22.438 8.09546 22.3584 7.93319 22.3261C7.77093 22.2938 7.60274 22.3104 7.44989 22.3737C7.29703 22.437 7.16639 22.5442 7.07448 22.6818C6.98256 22.8193 6.9335 22.9811 6.9335 23.1465C6.9335 23.3684 7.02163 23.5811 7.1785 23.738C7.33538 23.8949 7.54815 23.983 7.77 23.983Z" fill="black"/>
<path d="M9.677 23.1465C9.6769 23.312 9.72589 23.4738 9.81777 23.6114C9.90964 23.7491 10.0403 23.8564 10.1932 23.9197C10.346 23.9831 10.5143 23.9997 10.6766 23.9675C10.8389 23.9352 10.988 23.8555 11.105 23.7385C11.222 23.6215 11.3017 23.4724 11.334 23.3101C11.3662 23.1478 11.3496 22.9795 11.2862 22.8267C11.2229 22.6738 11.1156 22.5432 10.9779 22.4513C10.8403 22.3594 10.6785 22.3104 10.513 22.3105C10.2913 22.3107 10.0788 22.3988 9.922 22.5555C9.76525 22.7123 9.67713 22.9248 9.677 23.1465Z" fill="black"/>
<path d="M12.4205 23.1465C12.4204 23.312 12.4694 23.4738 12.5613 23.6114C12.6531 23.7491 12.7838 23.8564 12.9367 23.9197C13.0895 23.9831 13.2578 23.9997 13.4201 23.9675C13.5824 23.9352 13.7315 23.8555 13.8485 23.7385C13.9655 23.6215 14.0452 23.4724 14.0775 23.3101C14.1097 23.1478 14.0931 22.9795 14.0297 22.8267C13.9664 22.6738 13.8591 22.5432 13.7214 22.4513C13.5838 22.3594 13.422 22.3104 13.2565 22.3105C13.0348 22.3105 12.8221 22.3986 12.6654 22.5554C12.5086 22.7122 12.4205 22.9248 12.4205 23.1465Z" fill="black"/>
<path d="M15.1635 23.1465C15.1634 23.312 15.2124 23.4738 15.3042 23.6114C15.3961 23.749 15.5267 23.8563 15.6795 23.9197C15.8324 23.9831 16.0006 23.9997 16.1629 23.9675C16.3252 23.9353 16.4743 23.8557 16.5913 23.7387C16.7084 23.6217 16.7881 23.4727 16.8204 23.3104C16.8527 23.1481 16.8362 22.9799 16.7729 22.827C16.7096 22.6741 16.6024 22.5435 16.4648 22.4515C16.3272 22.3596 16.1655 22.3105 16 22.3105C15.7782 22.3105 15.5655 22.3986 15.4087 22.5553C15.2518 22.7121 15.1636 22.9248 15.1635 23.1465Z" fill="black"/>
<path d="M17.907 23.1465C17.9069 23.312 17.9559 23.4738 18.0477 23.6114C18.1396 23.749 18.2702 23.8563 18.423 23.9197C18.5759 23.9831 18.7441 23.9997 18.9064 23.9675C19.0687 23.9353 19.2178 23.8557 19.3348 23.7387C19.4519 23.6217 19.5316 23.4727 19.5639 23.3104C19.5962 23.1481 19.5797 22.9799 19.5164 22.827C19.4531 22.6741 19.3459 22.5435 19.2083 22.4515C19.0707 22.3596 18.909 22.3105 18.7435 22.3105C18.5217 22.3105 18.309 22.3986 18.1522 22.5553C17.9953 22.7121 17.9071 22.9248 17.907 23.1465Z" fill="black"/>
<path d="M20.65 23.1465C20.6499 23.312 20.6989 23.4738 20.7907 23.6114C20.8826 23.749 21.0132 23.8563 21.166 23.9197C21.3189 23.9831 21.4871 23.9997 21.6494 23.9675C21.8117 23.9353 21.9608 23.8557 22.0778 23.7387C22.1949 23.6217 22.2746 23.4727 22.3069 23.3104C22.3392 23.1481 22.3227 22.9799 22.2594 22.827C22.1961 22.6741 22.0889 22.5435 21.9513 22.4515C21.8137 22.3596 21.652 22.3105 21.4865 22.3105C21.2647 22.3105 21.052 22.3986 20.8952 22.5553C20.7383 22.7121 20.6501 22.9248 20.65 23.1465Z" fill="black"/>
<path d="M24.2305 22.3105C24.065 22.3104 23.9032 22.3594 23.7656 22.4513C23.6279 22.5432 23.5206 22.6738 23.4573 22.8267C23.3939 22.9795 23.3773 23.1478 23.4095 23.3101C23.4418 23.4724 23.5215 23.6215 23.6385 23.7385C23.7555 23.8555 23.9046 23.9352 24.0669 23.9675C24.2292 23.9997 24.3975 23.9831 24.5503 23.9197C24.7032 23.8564 24.8339 23.7491 24.9257 23.6114C25.0176 23.4738 25.0666 23.312 25.0665 23.1465C25.0665 22.9248 24.9784 22.7122 24.8216 22.5554C24.6649 22.3986 24.4522 22.3105 24.2305 22.3105Z" fill="black"/>
</svg>
