<svg xmlns="http://www.w3.org/2000/svg" width="27.139" height="32.3" viewBox="0 0 27.139 32.3">
  <g id="Group_37994" data-name="Group 37994" transform="translate(-5.85 -0.85)">
    <path id="Path_105956" data-name="Path 105956" d="M32.323,10.29A1.032,1.032,0,0,1,31.29,9.258a.516.516,0,0,0-.516-.516H24.581V4.1a3.1,3.1,0,0,0-3.1-3.1H9.1A3.1,3.1,0,0,0,6,4.1V29.9A3.1,3.1,0,0,0,9.1,33H21.484a3.1,3.1,0,0,0,3.1-3.1v-6.71h3.1a.516.516,0,0,0,.516-.516,1.032,1.032,0,0,1,1.032-1.032.516.516,0,0,0,.516-.516V20.1h1.032a.516.516,0,0,0,.516-.516,1.032,1.032,0,0,1,1.032-1.032.516.516,0,0,0,.516-.516V10.806A.516.516,0,0,0,32.323,10.29ZM23.548,29.9a2.065,2.065,0,0,1-2.065,2.065H9.1A2.065,2.065,0,0,1,7.032,29.9V4.1A2.065,2.065,0,0,1,9.1,2.032H21.484A2.065,2.065,0,0,1,23.548,4.1V8.742H22.516V4.1a1.032,1.032,0,0,0-1.032-1.032H18.9a.519.519,0,0,0-.286.087L17.2,4.1H13.381l-1.417-.946a.519.519,0,0,0-.286-.087H9.1A1.032,1.032,0,0,0,8.065,4.1v25.29a1.548,1.548,0,0,0,1.548,1.548H20.968a1.548,1.548,0,0,0,1.548-1.548V23.194h1.032Zm-9.29-18.065v-.581a2.073,2.073,0,0,0,1.483-1.483h2.646v2.065Zm0,10.323V21.129H13.226v1.032h-.581a2.073,2.073,0,0,0-1.483-1.483V14.354a2.073,2.073,0,0,0,1.483-1.483h.581V13.9h1.032V12.871H15.29v9.29ZM15.29,8.742a.516.516,0,0,0-.516.516,1.032,1.032,0,0,1-1.032,1.032.516.516,0,0,0-.516.516v1.032H12.194a.516.516,0,0,0-.516.516,1.032,1.032,0,0,1-1.032,1.032.516.516,0,0,0-.516.516v7.226a.516.516,0,0,0,.516.516,1.032,1.032,0,0,1,1.032,1.032.516.516,0,0,0,.516.516h9.29v6.194a.516.516,0,0,1-.516.516H9.613a.516.516,0,0,1-.516-.516V4.1h2.426l1.418.946a.519.519,0,0,0,.285.087h4.129a.519.519,0,0,0,.286-.087L19.058,4.1h2.426V8.742ZM28.71,20.678a2.073,2.073,0,0,0-1.483,1.483h-10.9v-9.29h10.9a2.073,2.073,0,0,0,1.483,1.483Zm3.1-3.1a2.073,2.073,0,0,0-1.483,1.483h-.581V13.9a.516.516,0,0,0-.516-.516,1.032,1.032,0,0,1-1.032-1.032.516.516,0,0,0-.516-.516H19.419V9.774h10.9a2.073,2.073,0,0,0,1.483,1.483Z" transform="translate(0 0)" stroke="#fff" stroke-width="0.3"/>
    <path id="Path_105957" data-name="Path 105957" d="M38.041,29.076l-1.586-.242-.715-1.522a.542.542,0,0,0-.981,0l-.715,1.522-1.586.242a.542.542,0,0,0-.306.914l1.164,1.192-.276,1.69a.542.542,0,0,0,.8.561l1.412-.78,1.412.78a.542.542,0,0,0,.8-.561l-.276-1.69,1.164-1.192a.542.542,0,0,0-.306-.914Zm-1.824,1.546a.542.542,0,0,0-.147.465l.14.859-.7-.386a.542.542,0,0,0-.524,0l-.7.386.14-.859a.542.542,0,0,0-.147-.465l-.618-.633.829-.127a.542.542,0,0,0,.408-.306l.347-.738.347.738a.542.542,0,0,0,.408.306l.829.127Z" transform="translate(-12.78 -12.741)" stroke="#fff" stroke-width="0.3"/>
    <rect id="Rectangle_12589" data-name="Rectangle 12589" width="2" height="1" transform="translate(12.725 15.073)" stroke="#fff" stroke-width="0.3"/>
    <rect id="Rectangle_12590" data-name="Rectangle 12590" width="2" height="1" transform="translate(12.725 16.976)" stroke="#fff" stroke-width="0.3"/>
    <rect id="Rectangle_12591" data-name="Rectangle 12591" width="2" height="1" transform="translate(12.725 18.878)" stroke="#fff" stroke-width="0.3"/>
    <path id="Path_105958" data-name="Path 105958" d="M22.625,53.25A1.625,1.625,0,1,0,21,51.625a1.625,1.625,0,0,0,1.625,1.625Zm0-2.167a.542.542,0,1,1-.542.542A.542.542,0,0,1,22.625,51.083Z" transform="translate(-7.308 -24.043)" stroke="#fff" stroke-width="0.3"/>
  </g>
</svg>
