<svg width="32" height="32" viewBox="0 0 32 32" fill="none" xmlns="http://www.w3.org/2000/svg">
<g clip-path="url(#clip0_126_249)">
<path d="M30.644 13.4331C29.5614 11.2873 27.9276 9.53465 25.9176 8.32459L26.6172 6.20015L27.2302 6.40202C27.3487 6.4409 27.4706 6.46027 27.592 6.46027C27.7715 6.46027 27.9501 6.41802 28.1153 6.33459C28.3927 6.19452 28.5986 5.95559 28.695 5.66221L29.2461 3.9894C29.4458 3.38127 29.1138 2.72415 28.5061 2.52459L26.2616 1.78584C26.0157 1.7049 25.7508 1.83859 25.6698 2.08452C25.5889 2.3304 25.7226 2.59534 25.9685 2.67627L28.2133 3.41515C28.3281 3.45277 28.3932 3.5819 28.3555 3.69652L27.8044 5.36934C27.7797 5.44452 27.7239 5.48209 27.6928 5.49771C27.6616 5.51346 27.598 5.53602 27.5229 5.51146L20.9432 3.34471C20.8687 3.32021 20.8316 3.2649 20.8161 3.23409C20.8005 3.20284 20.7779 3.13915 20.8028 3.06334L21.3539 1.39052C21.3786 1.3154 21.4344 1.27777 21.4655 1.26215C21.4966 1.24652 21.5602 1.22384 21.6352 1.24834L23.9683 2.01727C24.2141 2.09834 24.4791 1.96465 24.5602 1.71884C24.6412 1.47296 24.5075 1.20802 24.2617 1.12696L21.9282 0.357836C21.6344 0.261523 21.3201 0.285398 21.043 0.425336C20.7656 0.565398 20.5597 0.804273 20.4634 1.09765L19.9123 2.77046C19.7125 3.37884 20.0437 4.03602 20.6503 4.23527L21.2638 4.43727L20.5633 6.56059C19.6073 6.4709 18.6429 6.49227 17.6766 6.62627C17.4202 6.66177 17.2411 6.89846 17.2767 7.15484C17.3122 7.41127 17.5493 7.59071 17.8053 7.55477C19.5742 7.30965 21.337 7.47065 23.0453 8.03346C26.0031 9.0079 28.4045 11.0755 29.8069 13.8553C31.2093 16.6351 31.445 19.7946 30.4706 22.7517C28.4609 28.8559 21.8585 32.1868 15.7528 30.1771C12.7959 29.2035 10.3951 27.1363 8.9929 24.356C7.59065 21.5758 7.35496 18.4161 8.3294 15.459C9.48021 11.9626 12.2587 9.1854 15.762 8.03002C16.0078 7.9489 16.1413 7.6839 16.0603 7.43802C15.9791 7.19227 15.7144 7.05877 15.4683 7.13971C14.6728 7.40209 13.9036 7.74527 13.1752 8.15965H9.42009C9.16121 8.15965 8.9514 8.36946 8.9514 8.62834C8.9514 8.88721 9.16121 9.09702 9.42009 9.09702H11.7578C11.3397 9.41527 10.941 9.75827 10.5669 10.1256C9.25821 11.411 8.23796 12.9923 7.59571 14.7215H4.31821C4.05934 14.7215 3.84952 14.9313 3.84952 15.1901C3.84952 15.449 4.05934 15.6588 4.31821 15.6588H7.2884C6.75909 17.5113 6.66221 19.4255 6.99009 21.2816H1.98334C1.72446 21.2816 1.51465 21.4914 1.51465 21.7503C1.51465 22.0091 1.72446 22.219 1.98334 22.219H7.1934C7.4184 23.0943 7.73927 23.9518 8.15602 24.7781C8.73121 25.9186 9.46227 26.9476 10.3223 27.8435H6.10921C5.85034 27.8435 5.64052 28.0533 5.64052 28.3121C5.64052 28.571 5.85034 28.7808 6.10921 28.7808H11.3281C12.5318 29.7847 13.9263 30.5626 15.4598 31.0675C16.763 31.4965 18.0865 31.7002 19.3893 31.7001C24.6806 31.6998 29.6187 28.3369 31.361 23.0449C32.4139 19.8501 32.1592 16.4365 30.644 13.4331V13.4331ZM21.5088 6.68671L22.1541 4.73052L25.7268 5.90702L25.0824 7.86384C24.5248 7.5834 23.9425 7.34215 23.3387 7.14321C22.7345 6.94415 22.1239 6.79252 21.5088 6.68671Z" fill="black"/>
<path d="M0.468688 9.09692H6.29706C6.55594 9.09692 6.76575 8.88711 6.76575 8.62823C6.76575 8.36936 6.55594 8.15955 6.29706 8.15955H0.468688C0.209812 8.15955 0 8.36936 0 8.62823C0 8.88711 0.209812 9.09692 0.468688 9.09692V9.09692Z" fill="black"/>
<path d="M2.3432 11.4406C2.08432 11.4406 1.87451 11.6504 1.87451 11.9092C1.87451 12.1681 2.08432 12.3779 2.3432 12.3779H6.74901C7.00789 12.3779 7.2177 12.1681 7.2177 11.9092C7.2177 11.6504 7.00789 11.4406 6.74901 11.4406H2.3432Z" fill="black"/>
<path d="M4.23419 18.4693C4.23419 18.2104 4.02438 18.0006 3.7655 18.0006H0.468688C0.209812 18.0006 0 18.2104 0 18.4693C0 18.7282 0.209812 18.938 0.468688 18.938H3.7655C4.02438 18.938 4.23419 18.7282 4.23419 18.4693Z" fill="black"/>
<path d="M6.10874 25.0313C6.10874 24.7724 5.89893 24.5626 5.64005 24.5626H3.34418C3.0853 24.5626 2.87549 24.7724 2.87549 25.0313C2.87549 25.2902 3.08524 25.5 3.34418 25.5H5.64005C5.89893 25.5 6.10874 25.2902 6.10874 25.0313Z" fill="black"/>
<path d="M9.97965 16.0038C8.26971 21.1985 11.1041 26.8156 16.2978 28.5252C17.3184 28.8616 18.3672 29.0285 19.4115 29.0285C20.9415 29.0285 22.4616 28.67 23.8675 27.9609C26.2326 26.7679 27.9918 24.7251 28.8209 22.2088C28.8222 22.2048 28.8235 22.2008 28.8247 22.1968L28.8284 22.1846C30.5228 16.9982 27.6865 11.3923 22.5037 9.68568C21.5486 9.36731 20.5411 9.19824 19.5348 9.18343C18.5233 9.16849 17.5108 9.31181 16.5428 9.60531C15.9889 9.77324 15.4498 9.98987 14.9331 10.2506C12.568 11.4441 10.8088 13.4872 9.97965 16.0038V16.0038ZM28.0701 21.4484L21.4273 19.2608C21.4596 18.8895 21.389 18.5156 21.217 18.1746C21.0449 17.8334 20.7862 17.5544 20.4685 17.3598L22.6509 10.7338C26.9187 12.3877 29.2669 17.0306 28.0701 21.4484ZM19.8974 20.0629C19.637 20.1942 19.3411 20.2162 19.064 20.1252C18.4925 19.9371 18.1808 19.3189 18.3689 18.7469C18.5198 18.2883 18.9477 17.9969 19.4065 17.9969C19.5191 17.9969 19.6338 18.0146 19.7465 18.0516C19.7466 18.0516 19.7468 18.0517 19.747 18.0517C19.7471 18.0518 19.7473 18.0518 19.7475 18.0519C20.0241 18.143 20.2486 18.3364 20.3799 18.5966C20.5111 18.8568 20.5333 19.1527 20.4423 19.4296C20.4423 19.4297 20.4423 19.4298 20.4422 19.4299C20.4421 19.4301 20.4421 19.4302 20.4421 19.4304C20.351 19.7071 20.1576 19.9317 19.8974 20.0629V20.0629ZM19.3911 10.1202C20.1837 10.1202 20.9794 10.2269 21.7604 10.4407L19.578 17.0667C19.2066 17.0344 18.8327 17.1051 18.4916 17.2772C18.3759 17.3356 18.2675 17.4042 18.1668 17.4814L15.0401 14.6312C14.8487 14.4568 14.5523 14.4705 14.3779 14.6618C14.2035 14.8531 14.2173 15.1496 14.4085 15.324L17.5763 18.2115C17.539 18.2897 17.506 18.3704 17.4785 18.454C17.3091 18.9687 17.3502 19.5186 17.5942 20.0025C17.8383 20.4864 18.2563 20.8463 18.771 21.0156C18.9056 21.0599 19.0426 21.0882 19.1802 21.1039L19.3395 22.4673C19.3673 22.706 19.5698 22.8817 19.8044 22.8817C19.8226 22.8817 19.841 22.8806 19.8594 22.8784C20.1165 22.8484 20.3006 22.6156 20.2705 22.3585L20.1108 20.9908C20.1815 20.9644 20.2511 20.9344 20.3195 20.8999C20.6606 20.7279 20.9396 20.4692 21.1341 20.1513L27.779 22.3396C27.0348 24.2737 25.6672 25.8669 23.8696 26.8953L23.3466 25.8583C23.2301 25.6271 22.9482 25.5342 22.7171 25.6509C22.486 25.7674 22.3931 26.0492 22.5097 26.2804L23.0334 27.3189C21.1372 28.1602 19.0408 28.3179 17.0401 27.7701L17.405 26.6624C17.4861 26.4166 17.3524 26.1516 17.1065 26.0706C16.8604 25.9895 16.5956 26.1232 16.5147 26.3691L16.1497 27.4769C14.1629 26.7071 12.5928 25.2907 11.6021 23.5511L12.6358 23.0297C12.8669 22.9132 12.9598 22.6314 12.8432 22.4002C12.7267 22.1691 12.4448 22.0761 12.2137 22.1928L11.1811 22.7136C10.3765 20.8832 10.1751 18.7807 10.7399 16.7279L11.8315 17.088C11.8802 17.1041 11.9297 17.1117 11.9783 17.1117C12.1751 17.1117 12.3583 16.9868 12.4233 16.7897C12.5045 16.5439 12.3709 16.2789 12.1251 16.1978L11.035 15.8382C11.7852 13.9117 13.155 12.3256 14.9527 11.3034L15.4662 12.3191C15.5487 12.4822 15.7137 12.5764 15.8849 12.5764C15.956 12.5764 16.0282 12.5601 16.096 12.5259C16.327 12.4091 16.4196 12.1271 16.3028 11.8961L15.7905 10.8826C16.9398 10.3763 18.1617 10.1202 19.3911 10.1202V10.1202Z" fill="black"/>
</g>
<defs>
<clipPath id="clip0_126_249">
<rect width="32" height="32" fill="white"/>
</clipPath>
</defs>
</svg>
