<svg id="Group_37780" data-name="Group 37780" xmlns="http://www.w3.org/2000/svg" width="32" height="36.328" viewBox="0 0 32 36.328">
  <path id="Path_105492" data-name="Path 105492" d="M61.969,25.646a.532.532,0,0,0,.532-.532V23.845a3.5,3.5,0,0,0-3.491-3.491H56.662V3.924A1.664,1.664,0,0,0,55,2.262h-.675v-.6A1.664,1.664,0,0,0,52.664,0H37a.53.53,0,0,0-.377.156L30.657,6.113a.532.532,0,0,0,.376.909h4.838a1.663,1.663,0,0,0,1.662-1.662v-4.3H52.664a.6.6,0,0,1,.6.6V20.354H50.018a3.5,3.5,0,0,0-3.491,3.491v5.021H32.163a.6.6,0,0,1-.6-.6V8.976a.532.532,0,1,0-1.064,0V28.269a1.664,1.664,0,0,0,1.662,1.662h.675v.6A1.663,1.663,0,0,0,34.5,32.192H46.526v.644a3.5,3.5,0,0,0,3.491,3.491H59.01A3.5,3.5,0,0,0,62.5,32.837V27.6a.532.532,0,1,0-1.064,0v5.239a2.43,2.43,0,0,1-2.427,2.427H50.018a2.43,2.43,0,0,1-2.427-2.427V23.845a2.43,2.43,0,0,1,2.427-2.427h8.992a2.43,2.43,0,0,1,2.427,2.427v1.268a.532.532,0,0,0,.532.532ZM36.469,5.361a.6.6,0,0,1-.6.6H32.32l4.149-4.142ZM34.5,31.128a.6.6,0,0,1-.6-.6v-.6H46.526v1.2Zm19.827-27.8H55a.6.6,0,0,1,.6.6v16.43H54.326Z" transform="translate(-30.501 0)"/>
  <path id="Path_105493" data-name="Path 105493" d="M303.946,349.19l-2.782,2.782-.9-.9a1.055,1.055,0,0,0-1.491,0l-.795.795a1.055,1.055,0,0,0,0,1.491l2.036,2.036a1.536,1.536,0,0,0,2.172,0l3.982-3.982a1.055,1.055,0,0,0,0-1.491l-.736-.736A1.055,1.055,0,0,0,303.946,349.19Zm1.583,1.583-3.982,3.982a.625.625,0,0,1-.885,0l-2.036-2.036a.144.144,0,0,1,0-.2l.795-.795a.144.144,0,0,1,.2,0l1.217,1.217a.455.455,0,0,0,.644,0l3.1-3.1a.144.144,0,0,1,.2,0l.736.736A.144.144,0,0,1,305.53,350.773Z" transform="translate(-277.828 -323.451)"/>
  <path id="Path_105494" data-name="Path 105494" d="M168.064,51.389a1.243,1.243,0,0,0,1.241-1.241V43.225a1.243,1.243,0,0,0-1.241-1.241h-6.923a1.243,1.243,0,0,0-1.241,1.241v6.923a1.243,1.243,0,0,0,1.241,1.241Zm-5.159-.91V49.343a1.231,1.231,0,0,1,1.23-1.23h.942a1.231,1.231,0,0,1,1.229,1.23v1.136Zm2.333-3.909a.633.633,0,1,1-1.266,0v-.5a.633.633,0,1,1,1.266,0Zm-4.428,3.577V43.225a.331.331,0,0,1,.331-.331h6.923a.331.331,0,0,1,.331.331v6.923a.331.331,0,0,1-.331.331h-.848V49.343a2.143,2.143,0,0,0-1.3-1.966,1.533,1.533,0,0,0,.228-.807v-.5a1.543,1.543,0,1,0-3.086,0v.5a1.533,1.533,0,0,0,.228.807,2.143,2.143,0,0,0-1.3,1.966v1.136h-.853A.332.332,0,0,1,160.81,50.148Z" transform="translate(-150.022 -39.437)"/>
  <path id="Path_105495" data-name="Path 105495" d="M82.8,240.751a.455.455,0,0,0,.455.455H96.294a.455.455,0,1,0,0-.91H83.257A.455.455,0,0,0,82.8,240.751Z" transform="translate(-79.629 -223.172)"/>
  <path id="Path_105496" data-name="Path 105496" d="M90.48,278.224H83.257a.455.455,0,0,0,0,.91H90.48a.455.455,0,1,0,0-.91Z" transform="translate(-79.629 -258.397)"/>
  <path id="Path_105497" data-name="Path 105497" d="M179.243,316.151h-1.489a.455.455,0,1,0,0,.91h1.489a.455.455,0,1,0,0-.91Z" transform="translate(-166.738 -293.621)"/>
  <path id="Path_105498" data-name="Path 105498" d="M83.257,317.061h3.611a.455.455,0,1,0,0-.91H83.257a.455.455,0,0,0,0,.91Z" transform="translate(-79.629 -293.621)"/>
  <path id="Path_105499" data-name="Path 105499" d="M83.257,354.989H90.48a.455.455,0,1,0,0-.91H83.257a.455.455,0,1,0,0,.91Z" transform="translate(-79.629 -328.846)"/>
  <path id="Path_105500" data-name="Path 105500" d="M84.43,157.479l-1.5,1.5a.455.455,0,0,0,.644.644l1.5-1.5a.455.455,0,1,0-.644-.644Z" transform="translate(-79.628 -146.046)"/>
</svg>
