<svg width="32" height="32" viewBox="0 0 32 32" fill="none" xmlns="http://www.w3.org/2000/svg">
<g clip-path="url(#clip0_21_715)">
<path d="M29.8906 28.4336H29.1103V15.0825C29.1103 14.0278 28.1653 13.1682 27.0009 13.1682H25.934V11.2479C25.934 11.2235 25.934 11.2052 25.9279 11.1808V10.248C25.9219 9.90665 25.7877 9.58354 25.55 9.34578C25.2269 9.02877 24.8001 8.85807 24.349 8.86416H24.0929V7.25472C24.0929 7.24252 24.0868 7.23033 24.0868 7.21814V7.20594C24.0807 7.19375 24.0807 7.18156 24.0746 7.16937V7.15717L24.0564 7.12059V7.1084L24.032 7.07182C24.0259 7.06573 24.0259 7.06573 24.0259 7.05963L23.9954 7.02915L23.6845 6.72433V2.97504C23.6845 2.77386 23.5199 2.60926 23.3187 2.60926H14.6313V2.16422C14.6313 0.969327 13.662 0 12.4671 0H4.51739C3.3225 0 2.35317 0.969327 2.35317 2.16422L2.38975 9.83349C2.38975 11.0284 3.35908 11.9977 4.55397 11.9977H5.46843V13.1621H4.78563C3.62732 13.1621 2.67628 14.0217 2.67628 15.0825V28.4336H2.10931C1.90813 28.4336 1.74353 28.5982 1.74353 28.7994V30.0187C1.74353 31.1099 2.75553 32 3.9931 32H28.0007C29.2444 32 30.2564 31.1099 30.2564 30.0187V28.7994C30.2564 28.5982 30.0918 28.4336 29.8906 28.4336V28.4336ZM27.0009 13.8937C27.6106 13.8937 28.1348 14.2412 28.3116 14.7167H25.934V13.8937H27.0009ZM7.02911 25.4586H6.2V12.205L7.02911 13.217V25.4586ZM7.76068 14.1071L8.51663 15.0276C8.58979 15.113 8.69343 15.1617 8.80316 15.1617C8.84584 15.1617 8.88851 15.1556 8.92509 15.1374C9.0714 15.0886 9.16894 14.9484 9.16894 14.796V11.9977H12.5037C13.6986 11.9977 14.6679 11.0284 14.6679 9.83349L14.6435 4.60278H20.3193V7.2852C20.3193 7.48638 20.4839 7.65098 20.685 7.65098H23.3675V8.88855C22.642 9.00438 22.0811 9.55915 22.075 10.2237L22.0628 11.2052V23.2456C22.0628 23.27 22.0628 23.2943 22.0689 23.3187V23.337C22.0689 23.4041 22.0872 23.465 22.1177 23.5199L23.2638 25.5744C23.2943 25.6232 23.3309 25.6658 23.3675 25.7085V26.5803H7.76068V14.1071ZM22.8493 6.91941H21.0508V5.11488L22.8493 6.91941ZM23.6357 11.8148V22.8737H22.7944V11.8148H23.6357ZM24.3673 22.8737V11.8148H25.2025V22.8798L24.3673 22.8737ZM24.0564 25.2025C24.0076 25.2208 23.9466 25.2208 23.8978 25.2025L23.0078 23.6114H24.9891L24.0564 25.2025ZM25.0318 9.85788C25.1354 9.96152 25.1964 10.0956 25.2025 10.242V10.8821H22.8005V10.2298C22.8066 9.88226 23.1968 9.59573 23.654 9.59573H24.349C24.605 9.58964 24.8489 9.68108 25.0318 9.85788V9.85788ZM22.9529 3.34083V5.98666L20.9411 3.97485L20.9045 3.94437H20.8984C20.8679 3.92608 20.8375 3.90779 20.807 3.8956H20.8009C20.7704 3.88341 20.7399 3.87731 20.7094 3.87731H14.6374V3.34083H22.9529ZM4.55397 11.2661C3.76144 11.2661 3.12132 10.626 3.12132 9.83349L3.08474 2.16422C3.08474 1.37169 3.72486 0.731568 4.51739 0.731568H12.4671C13.2596 0.731568 13.8997 1.37169 13.8997 2.16422V4.60278L13.9241 9.83349C13.9241 10.626 13.284 11.2661 12.4915 11.2661H8.80316C8.60198 11.2661 8.43738 11.4307 8.43738 11.6319V13.7718L7.76068 12.9548L7.02911 12.0648L6.48653 11.4003C6.41337 11.3149 6.30973 11.2661 6.2 11.2661H4.55397ZM4.78563 13.8937H5.46843V14.7167H3.47491C3.6578 14.2412 4.17599 13.8937 4.78563 13.8937ZM3.40785 15.4483H5.46843V25.8243C5.46843 26.0255 5.63303 26.1901 5.83421 26.1901H7.02911V26.9461C7.02911 27.1473 7.19371 27.3119 7.39489 27.3119H23.7332C23.9344 27.3119 24.099 27.1473 24.099 26.9461V25.9402C24.3368 25.9158 24.5502 25.7878 24.6782 25.5805L25.8853 23.5382C25.9158 23.4833 25.934 23.4224 25.934 23.3553V23.2517V15.4483H28.3787V28.4336H18.972C18.7708 28.4336 18.6062 28.5982 18.6062 28.7994V29.2322C18.6062 29.4029 18.4477 29.5432 18.2526 29.5432H12.5463C12.3513 29.5432 12.1928 29.4029 12.1928 29.2322V28.7994C12.1928 28.5982 12.0282 28.4336 11.827 28.4336H3.40785V15.4483ZM29.5248 30.0187C29.5248 30.7076 28.842 31.2684 28.0007 31.2684H3.9931C3.15789 31.2684 2.4751 30.7076 2.4751 30.0187V29.1652H11.4612V29.2322C11.4612 29.8053 11.9428 30.2747 12.5463 30.2747H18.2526C18.85 30.2747 19.3377 29.8053 19.3377 29.2322V29.1652H29.5248V30.0187Z" fill="black"/>
<path d="M10.9187 12.7476C10.1505 12.7476 9.52258 13.3755 9.52258 14.1436C9.52258 14.9118 10.1505 15.5397 10.9187 15.5397C11.6868 15.5397 12.3147 14.9118 12.3147 14.1436C12.3086 13.3755 11.6868 12.7537 10.9187 12.7476ZM10.9187 14.8081C10.5529 14.8081 10.2542 14.5094 10.2542 14.1436C10.2542 13.7778 10.5529 13.4791 10.9187 13.4791C11.2844 13.4791 11.5832 13.7778 11.5832 14.1436C11.5832 14.5094 11.2844 14.8081 10.9187 14.8081Z" fill="black"/>
<path d="M10.9187 17.2651C10.1505 17.2651 9.52258 17.8931 9.52258 18.6612C9.52258 19.4294 10.1505 20.0573 10.9187 20.0573C11.6868 20.0573 12.3147 19.4294 12.3147 18.6612C12.3147 17.8931 11.6868 17.2651 10.9187 17.2651ZM10.9187 19.3257C10.5529 19.3257 10.2542 19.027 10.2542 18.6612C10.2542 18.2954 10.5529 17.9967 10.9187 17.9967C11.2844 17.9967 11.5832 18.2954 11.5832 18.6612C11.5832 19.027 11.2844 19.3257 10.9187 19.3257Z" fill="black"/>
<path d="M14.7898 7.58984H19.4231V8.32141H14.7898V7.58984Z" fill="black"/>
<path d="M14.7898 9.41895H19.4231V10.1505H14.7898V9.41895Z" fill="black"/>
<path d="M13.2902 12.7476H20.6851V13.4791H13.2902V12.7476Z" fill="black"/>
<path d="M13.2902 14.4302H19.2524V15.1617H13.2902V14.4302Z" fill="black"/>
<path d="M13.2902 17.2651H20.6851V17.9967H13.2902V17.2651Z" fill="black"/>
<path d="M13.2902 18.9414H19.2524V19.673H13.2902V18.9414Z" fill="black"/>
<path d="M13.2902 22.2764H20.6851V23.0079H13.2902V22.2764Z" fill="black"/>
<path d="M13.2902 23.959H19.2524V24.6906H13.2902V23.959Z" fill="black"/>
<path d="M10.9187 22.2764C10.1505 22.2764 9.52258 22.9043 9.52258 23.6724C9.52258 24.4406 10.1505 25.0685 10.9187 25.0685C11.6868 25.0685 12.3147 24.4406 12.3147 23.6724C12.3086 22.9043 11.6868 22.2825 10.9187 22.2764ZM10.9187 24.337C10.5529 24.337 10.2542 24.0382 10.2542 23.6724C10.2542 23.3067 10.5529 23.0079 10.9187 23.0079C11.2844 23.0079 11.5832 23.3067 11.5832 23.6724C11.5832 24.0382 11.2844 24.337 10.9187 24.337Z" fill="black"/>
<path d="M7.51069 4.49908C7.58995 4.09672 7.72407 3.80409 7.91305 3.6212C8.09595 3.4505 8.3398 3.36515 8.58976 3.37124C8.87629 3.37124 9.08966 3.4444 9.24817 3.60291C9.40058 3.74312 9.48593 3.94431 9.47983 4.15158C9.47983 4.2979 9.43715 4.44421 9.3518 4.56614C9.32132 4.60881 9.1933 4.76122 8.64462 5.25503C8.09595 5.74884 7.87648 6.05976 7.71187 6.41335C7.54727 6.76694 7.46192 7.21198 7.46192 7.74236C7.46192 7.79113 7.46802 7.91916 7.46802 8.13253C7.47411 8.33371 7.63262 8.49222 7.8338 8.49222H9.15672C9.25426 8.49222 9.3518 8.45564 9.41887 8.38248C9.48593 8.30933 9.5225 8.21788 9.5225 8.12034C9.51641 7.58995 9.57128 7.40096 9.59566 7.3461C9.62005 7.29123 9.71149 7.12053 10.0773 6.78523C10.7052 6.19997 11.1076 5.74884 11.3148 5.39525C11.5221 5.02946 11.6319 4.62101 11.6319 4.20035C11.6319 3.45659 11.3453 2.79818 10.7845 2.24341C10.2236 1.68864 9.46154 1.4082 8.52879 1.4082C7.59604 1.4082 6.90715 1.68254 6.34628 2.23122C5.8037 2.75551 5.48059 3.46879 5.45011 4.22474C5.43792 4.41373 5.57204 4.57833 5.76103 4.60881L7.10223 4.7917C7.29122 4.81609 7.46802 4.68807 7.51069 4.49908V4.49908ZM6.21826 3.93211C6.30361 3.48098 6.52917 3.07252 6.85838 2.75551C7.27903 2.34095 7.82771 2.13977 8.52879 2.13977C9.22988 2.13977 9.83952 2.34095 10.2663 2.7616C10.693 3.18226 10.9003 3.65168 10.9003 4.20035C10.9003 4.49298 10.821 4.77951 10.6747 5.02946C10.565 5.22455 10.2846 5.59643 9.58347 6.24265C9.22988 6.57185 9.0165 6.8279 8.91896 7.05347C8.83971 7.27904 8.79703 7.5168 8.79703 7.76065H8.19349V7.74236C8.19349 7.32171 8.25445 6.97422 8.37638 6.71817C8.49831 6.46212 8.74826 6.1512 9.13843 5.79761C9.72978 5.26722 9.88829 5.08433 9.95535 4.98069C10.126 4.73684 10.2114 4.45031 10.2114 4.15158C10.2175 3.74922 10.0529 3.36515 9.76636 3.08471C9.46764 2.78599 9.07137 2.63968 8.58976 2.63968C8.15081 2.62748 7.73016 2.79209 7.41315 3.09081C7.17539 3.31638 6.9925 3.62729 6.87667 4.02356L6.21826 3.93211Z" fill="black"/>
<path d="M9.15062 8.75439H7.8338C7.63262 8.75439 7.46802 8.919 7.46802 9.12018V10.3029C7.46802 10.5041 7.63262 10.6687 7.8338 10.6687H9.15062C9.3518 10.6687 9.51641 10.5041 9.51641 10.3029V9.12018C9.51641 8.919 9.3518 8.75439 9.15062 8.75439ZM8.78484 9.9371H8.19959V9.48596H8.78484V9.9371Z" fill="black"/>
</g>
<defs>
<clipPath id="clip0_21_715">
<rect width="32" height="32" fill="white"/>
</clipPath>
</defs>
</svg>
