<svg xmlns="http://www.w3.org/2000/svg" width="30.795" height="32" viewBox="0 0 30.795 32">
  <g id="Group_37834" data-name="Group 37834" transform="translate(-9.637)">
    <path id="Path_105644" data-name="Path 105644" d="M342.957,88.1h-6.736a.469.469,0,1,0,0,.937h6.736a.469.469,0,1,0,0-.937Z" transform="translate(-305.729 -82.595)"/>
    <path id="Path_105645" data-name="Path 105645" d="M342.957,119.294h-6.736a.469.469,0,1,0,0,.937h6.736a.469.469,0,1,0,0-.937Z" transform="translate(-305.729 -111.838)"/>
    <path id="Path_105646" data-name="Path 105646" d="M342.957,56.908h-6.736a.469.469,0,1,0,0,.937h6.736a.469.469,0,1,0,0-.937Z" transform="translate(-305.729 -53.352)"/>
    <path id="Path_105647" data-name="Path 105647" d="M343.425,150.957a.469.469,0,0,0-.469-.469h-6.736a.469.469,0,1,0,0,.937h6.736A.469.469,0,0,0,343.425,150.957Z" transform="translate(-305.729 -141.082)"/>
    <path id="Path_105648" data-name="Path 105648" d="M336.221,181.681a.469.469,0,1,0,0,.937h3.368a.469.469,0,1,0,0-.937Z" transform="translate(-305.731 -170.326)"/>
    <path id="Path_105649" data-name="Path 105649" d="M154.42,286.9h6.736a.469.469,0,1,0,0-.937H154.42a.469.469,0,1,0,0,.937Z" transform="translate(-135.293 -268.089)"/>
    <path id="Path_105650" data-name="Path 105650" d="M154.42,318.093h6.736a.469.469,0,0,0,0-.937H154.42a.469.469,0,0,0,0,.937Z" transform="translate(-135.293 -297.333)"/>
    <path id="Path_105651" data-name="Path 105651" d="M154.42,255.706h1.871a.469.469,0,0,0,0-.937H154.42a.469.469,0,0,0,0,.937Z" transform="translate(-135.294 -238.845)"/>
    <path id="Path_105652" data-name="Path 105652" d="M154.42,349.286h6.736a.469.469,0,1,0,0-.937H154.42a.469.469,0,1,0,0,.937Z" transform="translate(-135.293 -326.576)"/>
    <path id="Path_105653" data-name="Path 105653" d="M154.42,380.479h3.368a.469.469,0,1,0,0-.937H154.42a.469.469,0,1,0,0,.937Z" transform="translate(-135.294 -355.82)"/>
    <path id="Path_105654" data-name="Path 105654" d="M221.268,76.833l-1.258-.183-.563-1.14a.748.748,0,0,0-1.34,0l-.563,1.14-1.258.183a.747.747,0,0,0-.414,1.275l.91.887-.215,1.253a.747.747,0,0,0,1.084.788l1.125-.592,1.125.592a.748.748,0,0,0,1.084-.788l-.215-1.253.91-.887A.747.747,0,0,0,221.268,76.833Zm-1.222,1.561a.747.747,0,0,0-.215.662l.167.972-.873-.459a.747.747,0,0,0-.7,0l-.873.459.167-.972a.747.747,0,0,0-.215-.661l-.706-.688.976-.142a.747.747,0,0,0,.563-.409l.437-.884.436.885a.747.747,0,0,0,.563.409l.976.142Z" transform="translate(-193.132 -70.402)"/>
    <path id="Path_105655" data-name="Path 105655" d="M47.2,287.261a1.62,1.62,0,0,0-2.1,2.459l1.686,1.61a.6.6,0,0,0,.836,0l1.686-1.609a1.62,1.62,0,0,0-2.1-2.459Zm1.473.807h0a.684.684,0,0,1-.016.974l-1.457,1.39-1.457-1.391a.681.681,0,0,1,.467-1.174.774.774,0,0,1,.571.274.6.6,0,0,0,.836,0l.082-.078A.7.7,0,0,1,48.677,288.068Z" transform="translate(-32.777 -268.994)"/>
    <path id="Path_105656" data-name="Path 105656" d="M39.964,7.178a.469.469,0,0,0,.469-.469V3.546A3.55,3.55,0,0,0,36.886,0H23.91a3.55,3.55,0,0,0-3.546,3.546v8.559H13.183a3.55,3.55,0,0,0-3.546,3.546v8.719a3.55,3.55,0,0,0,3.546,3.546.5.5,0,0,1,.391.183,17.853,17.853,0,0,0,4.36,3.758.942.942,0,0,0,1.34-1.217,12.623,12.623,0,0,1-.954-2.663.044.044,0,0,1,.009-.04.05.05,0,0,1,.041-.02H21.4a.469.469,0,1,0,0-.938h-3.03a.988.988,0,0,0-.963,1.212,13.56,13.56,0,0,0,1.025,2.861l0,.005,0,0,0,0A16.9,16.9,0,0,1,14.3,27.506a1.436,1.436,0,0,0-1.117-.527,2.611,2.611,0,0,1-2.609-2.609V15.651a2.611,2.611,0,0,1,2.609-2.609h7.268l.006.027a3.554,3.554,0,0,0,3.453,2.742h4.857v8.559a2.611,2.611,0,0,1-2.609,2.609H23.588a.469.469,0,1,0,0,.938h2.571A3.55,3.55,0,0,0,29.7,24.371V15.811H31.7a.05.05,0,0,1,.041.02.044.044,0,0,1,.009.04,12.616,12.616,0,0,1-.954,2.663.942.942,0,0,0,1.341,1.217,17.852,17.852,0,0,0,4.36-3.758.5.5,0,0,1,.391-.183,3.55,3.55,0,0,0,3.546-3.546V8.9a.469.469,0,0,0-.938,0v3.368a2.611,2.611,0,0,1-2.609,2.609,1.436,1.436,0,0,0-1.117.526,16.9,16.9,0,0,1-4.128,3.554l0,0,0,0,0-.005a13.555,13.555,0,0,0,1.025-2.861.988.988,0,0,0-.963-1.212H23.91A2.629,2.629,0,0,1,21.3,12.265V3.546A2.612,2.612,0,0,1,23.91.938H36.886a2.611,2.611,0,0,1,2.609,2.609V6.709a.469.469,0,0,0,.469.469Z"/>
  </g>
</svg>
