<svg id="Group_37959" data-name="Group 37959" xmlns="http://www.w3.org/2000/svg" width="32" height="31.297" viewBox="0 0 32 31.297">
  <path id="Path_105795" data-name="Path 105795" d="M31.531,32.372H30.7V15.531a2.24,2.24,0,0,0-2.237-2.237h-1.1a1.9,1.9,0,0,0-.826-2.5L20.408,7.543a.469.469,0,0,0-.439.828L26.1,11.619a.967.967,0,0,1,0,1.708L20.14,16.484l-3.788-4.32a.469.469,0,0,0-.7.618l3.641,4.153-2.254,1.194a2.211,2.211,0,0,1-2.069,0L5.9,13.327a.967.967,0,0,1,0-1.708l9.064-4.8a2.21,2.21,0,0,1,2.069,0l1.3.688a.469.469,0,0,0,.439-.828l-1.3-.688a3.147,3.147,0,0,0-2.946,0l-9.065,4.8a1.9,1.9,0,0,0-.826,2.5h-1.1A2.24,2.24,0,0,0,1.3,15.531v16.84H.469A.469.469,0,0,0,0,32.841V33.88a3.044,3.044,0,0,0,3.04,3.04H28.96A3.044,3.044,0,0,0,32,33.88V32.841A.469.469,0,0,0,31.531,32.372Zm-11.5-8.132.611,1.059a.485.485,0,0,1-.42.727h-.383a.485.485,0,0,1-.42-.727Zm.469-6.886,1.94-1.028v1.861a3.43,3.43,0,0,1-1.94,3.1ZM16,19.324a3.149,3.149,0,0,0,1.473-.366l2.09-1.107v3.8a11.37,11.37,0,0,1-7.895-.286,3.429,3.429,0,0,1-2.11-3.181V16.326l4.968,2.632A3.146,3.146,0,0,0,16,19.324ZM2.236,15.531a1.3,1.3,0,0,1,1.3-1.3H5.607l2.36,1.25H3.954a.469.469,0,0,0-.469.469v14.7a.469.469,0,0,0,.469.469H6.429a.469.469,0,1,0,0-.937H4.423V16.42h4.2v1.768a4.364,4.364,0,0,0,2.687,4.047,12.32,12.32,0,0,0,8.254.4v.538l-.954,1.653a1.422,1.422,0,0,0,1.232,2.134h.383a1.422,1.422,0,0,0,1.232-2.134L20.5,23.176v-.866l.19-.076a4.364,4.364,0,0,0,2.687-4.047V16.42h4.2V30.185H8.3a.469.469,0,1,0,0,.937H28.046a.469.469,0,0,0,.469-.469v-14.7a.469.469,0,0,0-.469-.469H24.034l2.36-1.25h2.071a1.3,1.3,0,0,1,1.3,1.3v16.84H2.236ZM18.9,33.31a1.286,1.286,0,0,1-1.214.867H14.315A1.286,1.286,0,0,1,13.1,33.31Zm12.164.57a2.105,2.105,0,0,1-2.1,2.1H3.04a2.1,2.1,0,0,1-2.1-2.1v-.57h11.2a2.224,2.224,0,0,0,2.181,1.8h3.369a2.224,2.224,0,0,0,2.181-1.8h11.2Z" transform="translate(0 -5.622)"/>
  <path id="Path_105796" data-name="Path 105796" d="M108.747,364.327a.71.71,0,0,0-.71-.71h-14.2a.71.71,0,1,0,0,1.419h14.2A.71.71,0,0,0,108.747,364.327Z" transform="translate(-88.726 -341.597)"/>
  <path id="Path_105797" data-name="Path 105797" d="M93.833,333.492h9.5a.71.71,0,1,0,0-1.419h-9.5a.71.71,0,1,0,0,1.419Z" transform="translate(-88.173 -311.993)"/>
</svg>
