<svg xmlns="http://www.w3.org/2000/svg" xmlns:xlink="http://www.w3.org/1999/xlink" width="32" height="32" viewBox="0 0 32 32">
  <defs>
    <clipPath id="clip-path">
      <rect id="Rectangle_12584" data-name="Rectangle 12584" width="27.952" height="28"/>
    </clipPath>
  </defs>
  <g id="Group_37673" data-name="Group 37673" transform="translate(10187 1859)">
    <g id="Rectangle_12544" data-name="Rectangle 12544" transform="translate(-10187 -1859)" stroke="#707070" stroke-width="1" opacity="0">
      <rect width="32" height="32" stroke="none"/>
      <rect x="0.5" y="0.5" width="31" height="31" fill="none"/>
    </g>
    <g id="Group_37703" data-name="Group 37703" transform="translate(-10185 -1857)">
      <g id="Group_37703-2" data-name="Group 37703" clip-path="url(#clip-path)">
        <path id="Path_105542" data-name="Path 105542" d="M39.9,14.383c-.071.513-.124,1.029-.215,1.538a13.356,13.356,0,0,1-4.641,8.033A13.3,13.3,0,0,1,28.244,27a13.81,13.81,0,0,1-4.238-.084c-.322-.052-.517-.264-.478-.517s.293-.4.612-.362q.962.1,1.923.2c.088.009.178,0,.3,0,0-.268,0-.52,0-.772,0-.355.158-.537.444-.532s.422.181.428.521c0,.237,0,.474.006.711a.16.16,0,0,0,.018.05,12.413,12.413,0,0,0,7.792-3.454c-.206-.2-.416-.395-.618-.6-.252-.256-.272-.493-.068-.689s.432-.162.67.076c.2.2.387.41.575.61,1.795-1.335,3.7-6.187,3.386-8.6-.257,0-.518,0-.78,0-.318-.006-.49-.157-.5-.424s.171-.44.5-.449c.236-.006.472-.007.708-.011.007,0,.015-.01.022-.015a12.228,12.228,0,0,0-3.363-7.774c-.2.211-.381.431-.587.629a.414.414,0,0,1-.682-.019.4.4,0,0,1,.057-.567c.2-.208.422-.4.653-.619A12.947,12.947,0,0,0,27.237.923c0,.267,0,.52,0,.772-.008.315-.164.487-.432.488s-.43-.169-.438-.483c-.007-.263,0-.526,0-.827a12.479,12.479,0,0,0-8.571,3.385c.234.226.469.436.684.665a.41.41,0,0,1-.15.717.613.613,0,0,1-.459-.127,7.082,7.082,0,0,1-.625-.638c-1.573,1.069-3.581,5.6-3.469,7.813.4,0,.794,0,1.193,0a.437.437,0,1,1,.01.871c-.416.009-.832,0-1.319,0,.06.634.116,1.237.174,1.839a3.109,3.109,0,0,1,.034.352.412.412,0,0,1-.4.431.388.388,0,0,1-.423-.371,12.916,12.916,0,0,1,1.6-9A13.325,13.325,0,0,1,23.824.247c.488-.1.99-.133,1.485-.2.08-.011.158-.032.237-.048h1.747c.314.04.629.075.943.122a13.465,13.465,0,0,1,8.152,4.345,13.159,13.159,0,0,1,3.24,6.392c.118.586.184,1.183.274,1.774Z" transform="translate(-11.95)"/>
        <path id="Path_105543" data-name="Path 105543" d="M4.7,267.7c-.157-.035-.314-.073-.471-.1a5.246,5.246,0,0,1-3.175-8.287,5.248,5.248,0,0,1,8.374.129c.291.413.517.872.78,1.321.076-.158.159-.34.249-.518.146-.289.381-.388.62-.266a.445.445,0,0,1,.152.639q-.393.825-.8,1.643c-.16.319-.3.353-.609.189-.545-.291-1.092-.579-1.638-.866a.48.48,0,0,1-.316-.492.443.443,0,0,1,.656-.338c.157.071.305.16.458.242l.49.266a4.377,4.377,0,1,0-1.247,4.416c.04-.037.08-.075.122-.109a.424.424,0,0,1,.63.019.409.409,0,0,1-.068.624,6.919,6.919,0,0,1-1.262.891,12.991,12.991,0,0,1-1.7.549c-.05.016-.1.035-.149.052Z" transform="translate(0 -239.699)"/>
        <path id="Path_105544" data-name="Path 105544" d="M214.447,80.97l.228-.46.817.256-.337.752,2.119,1.669c.107.084.217.166.319.257a.429.429,0,0,1,.084.587.423.423,0,0,1-.581.115,1.532,1.532,0,0,1-.2-.144l-2.228-1.742-.574.516-.563-.645.382-.4c-.1-.078-.178-.145-.261-.21-.847-.659-1.691-1.322-2.545-1.972a.688.688,0,0,1-.295-.6q.009-3.935,0-7.87a1.225,1.225,0,0,1,.014-.245.432.432,0,0,1,.847.01,1.548,1.548,0,0,1,.012.272q0,1.681,0,3.361c0,1.387,0,2.774,0,4.161a.444.444,0,0,0,.2.4c.787.588,1.564,1.189,2.345,1.784.064.049.132.092.212.147" transform="translate(-196.404 -65.67)"/>
        <path id="Path_105545" data-name="Path 105545" d="M33.365,304.914c.241-.258.439-.482.649-.694q1.192-1.2,2.392-2.4c.083-.083.175-.2.273-.213a.632.632,0,0,1,.46.09.662.662,0,0,1,.09.461c-.006.089-.118.177-.194.254q-1.618,1.626-3.24,3.247c-.35.35-.52.35-.867.006-.232-.231-.467-.46-.693-.7s-.24-.459-.059-.652.424-.187.67.042c.087.081.17.165.251.251s.145.163.267.3" transform="translate(-29.861 -280.987)"/>
        <path id="Path_105546" data-name="Path 105546" d="M268.867,198.236l-.086,1.063-.884-.176.085-.822.885-.064" transform="translate(-249.584 -184.685)"/>
        <path id="Path_105547" data-name="Path 105547" d="M154.022,214.457l.307.741-.78.44-.4-.912.875-.269" transform="translate(-142.678 -199.797)"/>
        <path id="Path_105548" data-name="Path 105548" d="M172.38,144.934l-.609-.656.824-.577.441.747-.656.485" transform="translate(-160.029 -133.879)"/>
        <path id="Path_105549" data-name="Path 105549" d="M258.84,160.075l-.794.4-.439-.654.7-.572.533.829" transform="translate(-239.997 -148.36)"/>
        <path id="Path_105550" data-name="Path 105550" d="M229.7,136.238l.916.35-.388.781-.742-.262.214-.869" transform="translate(-213.797 -126.925)"/>
        <path id="Path_105551" data-name="Path 105551" d="M160.235,157.265l-.439.655-.785-.4.565-.832.66.572" transform="translate(-148.141 -145.982)"/>
        <path id="Path_105552" data-name="Path 105552" d="M266.97,180.152l-.868.089-.179-.784.826-.264.222.958" transform="translate(-247.745 -166.944)"/>
        <path id="Path_105553" data-name="Path 105553" d="M236.406,245.328l-.872.44-.306-.828.7-.355.481.743" transform="translate(-219.149 -227.865)"/>
        <path id="Path_105554" data-name="Path 105554" d="M197.054,250.369l.776.136-.083.876-.959-.174.266-.837" transform="translate(-183.336 -233.254)"/>
        <path id="Path_105555" data-name="Path 105555" d="M151.847,176.874l.263-.918.832.305-.214.741-.881-.128" transform="translate(-141.467 -163.928)"/>
        <path id="Path_105556" data-name="Path 105556" d="M218.712,251.717l.221.83-.961.14-.043-.882.783-.088" transform="translate(-203.032 -234.51)"/>
        <path id="Path_105557" data-name="Path 105557" d="M163.948,230.459l-.57.615-.666-.737.707-.488.529.609" transform="translate(-151.589 -214.138)"/>
        <path id="Path_105558" data-name="Path 105558" d="M150.751,197.635h.874v.8l-.832.132-.042-.929" transform="translate(-140.446 -184.125)"/>
        <path id="Path_105559" data-name="Path 105559" d="M178.842,243.235l-.388.773-.827-.481.512-.684.7.393" transform="translate(-165.484 -226.241)"/>
        <path id="Path_105560" data-name="Path 105560" d="M189.782,135.9l.914-.307c.055.278.106.522.147.767a.147.147,0,0,1-.056.127,5.224,5.224,0,0,1-.57.168c-.038.009-.115-.045-.136-.089-.1-.209-.192-.425-.3-.667" transform="translate(-176.809 -126.323)"/>
        <path id="Path_105561" data-name="Path 105561" d="M244.843,145.938l.476-.738.712.58-.621.605-.566-.447" transform="translate(-228.106 -135.274)"/>
      </g>
    </g>
  </g>
</svg>
