<svg xmlns="http://www.w3.org/2000/svg" width="24.544" height="32" viewBox="0 0 24.544 32">
  <g id="Group_37785" data-name="Group 37785" transform="translate(-59.701)">
    <g id="Group_37785-2" data-name="Group 37785" transform="translate(59.701 0)">
      <path id="Path_105526" data-name="Path 105526" d="M79.273,22.639a.469.469,0,0,0-.469.468v5.658a2.3,2.3,0,0,1-2.3,2.3H62.944a2.3,2.3,0,0,1-2.3-2.3V3.235a2.3,2.3,0,0,1,2.3-2.3H76.5a2.3,2.3,0,0,1,2.3,2.3v3.05a.469.469,0,0,0,.939,0V3.235A3.242,3.242,0,0,0,76.5,0H62.944A3.242,3.242,0,0,0,59.7,3.235V28.765A3.242,3.242,0,0,0,62.944,32H76.5a3.242,3.242,0,0,0,3.243-3.235V23.107a.469.469,0,0,0-.469-.468Z" transform="translate(-59.701 0)"/>
      <path id="Path_105527" data-name="Path 105527" d="M213.414,34.812a.463.463,0,0,0,.463-.463v-3A1.348,1.348,0,0,0,212.531,30h-1.523a.657.657,0,0,0-.616.433l-.075.208a.755.755,0,0,1-.708.5h-4.224a.463.463,0,0,0,0,.927h4.224a1.684,1.684,0,0,0,1.58-1.11l.01-.028h1.332a.421.421,0,0,1,.42.42v3A.463.463,0,0,0,213.414,34.812Z" transform="translate(-195.797 -28.146)"/>
      <path id="Path_105528" data-name="Path 105528" d="M265.95,122.05a5.913,5.913,0,0,0-3.467,1.114.463.463,0,1,0,.54.753A5.027,5.027,0,0,1,270.977,128c0,1.9-2.59,5-5.013,7.264a.02.02,0,0,1-.028,0c-2.424-2.269-5.013-5.369-5.013-7.264a5,5,0,0,1,.843-2.787.463.463,0,1,0-.771-.514,5.927,5.927,0,0,0-1,3.3c0,1.209.752,2.77,2.235,4.64a32.031,32.031,0,0,0,3.071,3.3.95.95,0,0,0,1.295,0,32.057,32.057,0,0,0,3.071-3.3c1.483-1.87,2.235-3.431,2.235-4.64A5.961,5.961,0,0,0,265.95,122.05Z" transform="translate(-247.36 -114.363)"/>
      <path id="Path_105529" data-name="Path 105529" d="M309.145,167.871a3.328,3.328,0,1,0-3.328,3.328A3.332,3.332,0,0,0,309.145,167.871Zm-5.73,0a2.4,2.4,0,1,1,2.4,2.4A2.4,2.4,0,0,1,303.415,167.871Z" transform="translate(-287.227 -154.239)"/>
      <path id="Path_105530" data-name="Path 105530" d="M100.936,45.986a.459.459,0,0,0-.655-.01L97,49.2a.535.535,0,0,0,.012.773l7.788,7.163a.42.42,0,0,1-.369.222h-1.687l-6.892-6.338a.52.52,0,0,0-.717.012l-4.5,4.424V53.274L94.1,49.866a.473.473,0,0,0,.01-.663.459.459,0,0,0-.655-.01L90.63,51.967v-20.6a.423.423,0,0,1,.42-.425h1.394l.01.028a1.685,1.685,0,0,0,1.58,1.123h1.277a.469.469,0,0,0,0-.938H94.033a.755.755,0,0,1-.708-.5l-.075-.21A.657.657,0,0,0,92.635,30H91.05A1.357,1.357,0,0,0,89.7,31.364V56.931a1.357,1.357,0,0,0,1.347,1.363h13.381a1.357,1.357,0,0,0,1.347-1.363V51.32a.463.463,0,1,0-.927,0v4.594l-6.9-6.345,2.974-2.92A.473.473,0,0,0,100.936,45.986ZM90.63,56.93V56.76l4.878-4.791,5.857,5.386H91.05A.423.423,0,0,1,90.63,56.93Z" transform="translate(-87.849 -28.147)"/>
      <path id="Path_105531" data-name="Path 105531" d="M175.39,247.516l-4.147,4.024a.463.463,0,0,0,.645.665l4.147-4.024a.463.463,0,0,0-.645-.665Z" transform="translate(-164.125 -231.906)"/>
      <path id="Path_105532" data-name="Path 105532" d="M140.987,130.108a.463.463,0,0,0,.463-.463v-2.231a2.007,2.007,0,1,0-.927,0v2.231A.463.463,0,0,0,140.987,130.108Zm-1.08-4.647a1.08,1.08,0,1,1,1.08,1.08A1.081,1.081,0,0,1,139.907,125.461Z" transform="translate(-134.019 -115.723)"/>
    </g>
  </g>
</svg>
