<svg width="32" height="32" viewBox="0 0 32 32" fill="none" xmlns="http://www.w3.org/2000/svg">
<g clip-path="url(#clip0_40_13)">
<path d="M1 15.5658C1.21094 15.2753 1.5 15.1968 1.84375 15.1968C3.75781 15.2046 5.67188 15.1968 7.58594 15.2046C7.85156 15.2046 7.98437 15.1261 8.07031 14.8671C8.24219 14.3489 8.47656 13.8465 8.74219 13.3676C8.92187 13.0536 8.90625 13.03 8.55469 13.03C7.6875 13.03 6.82031 13.03 5.94531 13.03C5.78906 13.03 5.63281 13.0222 5.47656 12.9986C5.14062 12.9437 4.9375 12.6846 4.96094 12.3549C4.97656 12.033 5.21875 11.7975 5.55469 11.7896C6.03906 11.7739 6.53125 11.7818 7.01562 11.7818C7.84375 11.7818 8.67187 11.7739 9.50781 11.7818C9.6875 11.7818 9.8125 11.7268 9.92969 11.5777C11.5937 9.53654 13.6875 8.17839 16.2344 7.53464C16.4453 7.47969 16.5312 7.37763 16.5078 7.16566C16.5 7.04791 16.4922 6.93015 16.5078 6.81239C16.5703 6.30995 16.4609 5.98023 15.9375 5.71331C15.1641 5.32863 14.8516 4.33946 15.0859 3.49945C15.3281 2.63589 16.0937 2.01569 16.9766 2.00784C18.4141 1.99999 19.8438 1.99999 21.2813 2.00784C22.2344 2.01569 23.0234 2.69084 23.2344 3.64861C23.4297 4.52787 22.9687 5.46994 22.1172 5.85462C21.8281 5.98808 21.7188 6.13724 21.75 6.44341C21.7734 6.66323 21.7734 6.89874 21.75 7.11856C21.7266 7.36193 21.8281 7.46399 22.0547 7.51894C23.1328 7.77801 24.1563 8.18624 25.1094 8.75933C28.3516 10.722 30.2656 13.5796 30.8906 17.3243C30.9219 17.5363 30.9531 17.7482 30.9844 17.9602C30.9844 18.6903 30.9844 19.4126 30.9844 20.1427C30.8672 20.9905 30.7344 21.8305 30.4688 22.6391C30.1563 23.6283 29.7344 24.5625 29.1797 25.4339C28.9375 25.8186 28.5859 25.9285 28.2656 25.7323C27.9453 25.5281 27.8906 25.167 28.1328 24.7823C29.4062 22.749 29.9063 20.5273 29.7266 18.1486C29.3828 13.4069 25.7031 9.34027 21.0313 8.56307C17.4531 7.96642 14.3125 8.92419 11.6953 11.4521C9.92187 13.1713 8.89062 15.2989 8.60937 17.7718C8.27344 20.7157 8.99219 23.3849 10.8359 25.7087C12.5547 27.8833 14.8125 29.1787 17.5469 29.6026C20.1563 30.003 22.5938 29.5005 24.8359 28.0874C25.0859 27.9304 25.3359 27.8598 25.6016 28.0246C26.0156 28.2758 25.9844 28.8175 25.5313 29.108C24.4453 29.8067 23.2734 30.317 22.0234 30.6232C16.8203 31.9028 11.5625 29.6497 8.84375 24.9865C8.59375 24.5547 8.35937 24.1072 8.19531 23.6362C8.10937 23.3928 7.98437 23.3064 7.72656 23.3143C6.5 23.33 5.26563 23.3221 4.03906 23.3143C3.60938 23.3143 3.34375 23.0945 3.3125 22.749C3.28125 22.333 3.55469 22.066 4.03125 22.0582C5.09375 22.0503 6.15625 22.0582 7.22656 22.0582C7.30469 22.0582 7.38281 22.0582 7.46094 22.0582C7.60156 22.0582 7.65625 21.9954 7.61719 21.8541C7.48437 21.281 7.38281 20.7 7.34375 20.1113C7.32812 19.915 7.23438 19.8443 7.03906 19.8522C6.30469 19.86 5.57813 19.86 4.84375 19.8522C4.39844 19.8522 4.14063 19.6245 4.14063 19.2477C4.14063 18.863 4.39844 18.6353 4.83594 18.6353C5.55469 18.6353 6.28125 18.6275 7 18.6353C7.22656 18.6353 7.29687 18.5647 7.3125 18.337C7.34375 17.811 7.39844 17.2772 7.51562 16.7669C7.57812 16.5157 7.53125 16.4293 7.24219 16.4293C5.41406 16.445 3.59375 16.4293 1.76562 16.4372C1.4375 16.4372 1.17188 16.343 0.984375 16.0682C1 15.919 1 15.7385 1 15.5658ZM19.1484 3.26393C18.4531 3.26393 17.7656 3.27178 17.0703 3.26393C16.7812 3.26393 16.5547 3.36599 16.3984 3.60936C16.2266 3.86843 16.2031 4.1432 16.3594 4.41797C16.5234 4.70844 16.7812 4.83405 17.1094 4.83405C18.4531 4.83405 19.8047 4.83405 21.1484 4.83405C21.7031 4.83405 22.0313 4.52787 22.0313 4.04114C22.0313 3.5544 21.7188 3.27178 21.1641 3.27178C20.4922 3.25608 19.8203 3.26393 19.1484 3.26393ZM19.1641 6.09014C18.7812 6.09014 18.4062 6.09014 18.0234 6.09014C17.8594 6.09014 17.7656 6.14509 17.7734 6.32565C17.7812 6.56117 17.7734 6.79669 17.7734 7.0322C17.7734 7.17351 17.8125 7.24417 17.9844 7.22847C18.7734 7.14211 19.5547 7.14211 20.3438 7.22847C20.5078 7.24417 20.5547 7.18922 20.5547 7.04005C20.5547 6.81239 20.5469 6.59257 20.5547 6.36491C20.5625 6.15294 20.4687 6.09014 20.2734 6.09799C19.9062 6.09014 19.5312 6.09014 19.1641 6.09014Z" fill="black"/>
<path d="M10.0547 19.0749C10.0234 14.1447 14.0234 9.88186 19.2266 9.91326C24.3516 9.94466 28.2813 14.129 28.2891 19.067C28.2969 24.2327 24.0234 28.3385 18.9531 28.2443C14.0781 28.1658 10.0156 24.0207 10.0547 19.0749ZM19.1641 26.9882C23.2734 27.051 27.0156 23.691 27.0547 19.1141C27.0859 14.7335 23.5313 11.1615 19.1719 11.1615C14.8281 11.1615 11.2656 14.7178 11.2813 19.0749C11.2969 23.6518 15.0234 27.0432 19.1641 26.9882Z" fill="black"/>
<path d="M27.1094 27.6951C26.7813 27.6873 26.5 27.3968 26.5078 27.0671C26.5156 26.7374 26.8047 26.4469 27.1328 26.4547C27.4609 26.4626 27.7422 26.7609 27.7344 27.0828C27.7266 27.4125 27.4297 27.703 27.1094 27.6951Z" fill="black"/>
<path d="M19.1719 20.9357C17.9375 20.9357 17.0469 19.7738 17.3906 18.5727C17.4531 18.3371 17.4219 18.188 17.25 18.031C16.9141 17.7169 16.5938 17.3872 16.2734 17.0575C15.9766 16.7513 15.9609 16.3824 16.2188 16.1154C16.4766 15.8564 16.8438 15.8799 17.1484 16.1861C17.4844 16.5158 17.8203 16.8455 18.1406 17.1831C18.2891 17.3401 18.4297 17.3794 18.6328 17.3009C18.9922 17.1674 19.3672 17.1753 19.7266 17.3087C19.9219 17.3794 20.0469 17.3323 20.1875 17.191C21.0469 16.3195 21.9141 15.456 22.7735 14.5846C22.9375 14.4197 23.1172 14.2784 23.3594 14.3177C23.6016 14.3569 23.7735 14.4904 23.8594 14.718C23.9531 14.9614 23.8906 15.1891 23.7188 15.3696C23.4688 15.6444 23.1953 15.9035 22.9375 16.1625C22.3203 16.7827 21.7188 17.4029 21.0938 18.0074C20.9141 18.1801 20.875 18.3293 20.9453 18.5727C21.2734 19.7738 20.3906 20.9357 19.1719 20.9357ZM19.1641 19.6796C19.5078 19.6796 19.7891 19.4048 19.7813 19.0672C19.7734 18.7454 19.5 18.4706 19.1797 18.4628C18.8438 18.4549 18.5547 18.7375 18.5469 19.0672C18.5391 19.4048 18.8203 19.6796 19.1641 19.6796Z" fill="black"/>
<path d="M13.1563 19.6952C13 19.6952 12.8437 19.7188 12.6953 19.656C12.4375 19.5461 12.2891 19.3577 12.2891 19.075C12.2969 18.7924 12.4453 18.5883 12.7109 18.502C12.9766 18.4156 13.25 18.4313 13.5234 18.4706C13.8516 18.5255 14.0781 18.8081 14.0625 19.1064C14.0469 19.4126 13.8047 19.6638 13.4766 19.7031C13.375 19.7031 13.2656 19.6952 13.1563 19.6952Z" fill="black"/>
<path d="M19.7656 25.1122C19.7656 25.23 19.7812 25.3478 19.7656 25.4655C19.7266 25.756 19.4844 25.9837 19.1953 25.9994C18.9062 26.0151 18.6406 25.8188 18.5781 25.5283C18.5234 25.2693 18.5156 25.0023 18.5703 24.7433C18.6328 24.4293 18.8828 24.2173 19.1797 24.2173C19.4922 24.2251 19.7422 24.4607 19.7734 24.7904C19.7734 24.8924 19.7656 25.0023 19.7656 25.1122Z" fill="black"/>
<path d="M25.1562 19.695C25.0469 19.695 24.9453 19.7029 24.8359 19.695C24.5312 19.6636 24.2891 19.4202 24.2734 19.1219C24.2578 18.8236 24.4609 18.5567 24.7734 18.486C25.0156 18.4311 25.2578 18.4389 25.5 18.4782C25.8516 18.541 26.0625 18.7844 26.0469 19.1219C26.0312 19.4517 25.7891 19.6793 25.4297 19.695C25.3281 19.7029 25.2422 19.7029 25.1562 19.695C25.1562 19.7029 25.1562 19.7029 25.1562 19.695Z" fill="black"/>
<path d="M18.5625 13.0614C18.5625 12.9437 18.5469 12.8259 18.5625 12.7082C18.6016 12.3941 18.8516 12.1822 19.1641 12.1743C19.4609 12.1743 19.7031 12.3706 19.7656 12.6768C19.8047 12.8966 19.8125 13.1242 19.7812 13.3519C19.7266 13.7366 19.4922 13.9485 19.1406 13.9407C18.7969 13.9328 18.5703 13.6816 18.5547 13.3048C18.5547 13.2184 18.5625 13.1399 18.5625 13.0614Z" fill="black"/>
</g>
<defs>
<clipPath id="clip0_40_13">
<rect width="30" height="29" fill="white" transform="translate(1 2)"/>
</clipPath>
</defs>
</svg>
