<svg width="32" height="32" viewBox="0 0 32 32" fill="none" xmlns="http://www.w3.org/2000/svg">
<path d="M27.3881 19.8594L20.2957 25.9386L18.5114 24.1548C18.2995 23.9754 17.9854 23.9885 17.7893 24.1851C17.5932 24.3816 17.5807 24.6958 17.7606 24.9072L19.8936 27.0403C20.0906 27.237 20.4058 27.249 20.6172 27.068L28.0829 20.6689C28.236 20.5475 28.3104 20.3522 28.277 20.1598C28.2435 19.9673 28.1075 19.8086 27.9226 19.7459C27.7376 19.6833 27.5331 19.7268 27.3897 19.8594H27.3881V19.8594Z" fill="black"/>
<path d="M12.268 13.9404V10.1319C12.268 9.83735 12.0293 9.59863 11.7348 9.59863C11.4403 9.59863 11.2016 9.83741 11.2016 10.1319V13.9404C10.1615 14.2089 9.48343 15.2089 9.61879 16.2745C9.75414 17.34 10.6607 18.1387 11.7348 18.1387C12.8089 18.1387 13.7155 17.34 13.8508 16.2745C13.9861 15.2089 13.308 14.209 12.268 13.9404ZM11.7347 17.0643C11.1457 17.0643 10.6682 16.5868 10.6682 15.9978C10.6682 15.4087 11.1457 14.9312 11.7347 14.9312C12.3238 14.9312 12.8013 15.4087 12.8013 15.9978C12.8013 16.5868 12.3238 17.0643 11.7347 17.0643Z" fill="black"/>
<path d="M11.7347 7.9991C12.0292 7.9991 12.268 7.76036 12.268 7.46586C12.268 7.17136 12.0292 6.93262 11.7347 6.93262C11.4402 6.93262 11.2015 7.17136 11.2015 7.46586C11.2015 7.76036 11.4402 7.9991 11.7347 7.9991Z" fill="black"/>
<path d="M11.7347 25.0631C12.0292 25.0631 12.268 24.8243 12.268 24.5298C12.268 24.2353 12.0292 23.9966 11.7347 23.9966C11.4402 23.9966 11.2015 24.2353 11.2015 24.5298C11.2015 24.8243 11.4402 25.0631 11.7347 25.0631Z" fill="black"/>
<path d="M3.20255 16.5308C3.49705 16.5308 3.73579 16.2921 3.73579 15.9976C3.73579 15.7031 3.49705 15.4644 3.20255 15.4644C2.90805 15.4644 2.66931 15.7031 2.66931 15.9976C2.66931 16.2921 2.90805 16.5308 3.20255 16.5308Z" fill="black"/>
<path d="M4.0025 19.802C3.81571 19.9099 3.71229 20.1196 3.74041 20.3334C3.76859 20.5473 3.92276 20.7231 4.13111 20.7789C4.33945 20.8347 4.56092 20.7595 4.69222 20.5884C4.82351 20.4173 4.83882 20.1839 4.73096 19.9972C4.58367 19.7421 4.25753 19.6548 4.0025 19.802V19.802Z" fill="black"/>
<path d="M19.467 12.1934C19.6538 12.0855 19.7572 11.8758 19.7291 11.6619C19.7009 11.4481 19.5468 11.2722 19.3384 11.2164C19.1301 11.1606 18.9086 11.2358 18.7773 11.4069C18.646 11.578 18.6307 11.8114 18.7386 11.9982C18.8859 12.2532 19.2119 12.3406 19.467 12.1934Z" fill="black"/>
<path d="M7.20202 8.07055C7.01524 8.17841 6.91181 8.38813 6.93993 8.60197C6.96812 8.81582 7.12228 8.99167 7.33063 9.04747C7.53898 9.10328 7.76045 9.0281 7.89174 8.857C8.02304 8.6859 8.03835 8.45249 7.93049 8.26571C7.78319 8.01068 7.45705 7.92332 7.20202 8.07055Z" fill="black"/>
<path d="M4.53573 11.2697C4.34895 11.1618 4.1156 11.1771 3.94444 11.3084C3.77334 11.4397 3.69816 11.6612 3.75396 11.8696C3.80977 12.0779 3.98562 12.2321 4.19947 12.2602C4.41331 12.2884 4.62303 12.1849 4.73089 11.9982C4.87819 11.7431 4.79082 11.417 4.53573 11.2697V11.2697Z" fill="black"/>
<path d="M15.7342 8.99416C15.921 9.10202 16.1543 9.08671 16.3255 8.95542C16.4966 8.82412 16.5718 8.60265 16.516 8.39431C16.4602 8.18596 16.2843 8.03179 16.0705 8.00361C15.8566 7.97543 15.6469 8.07891 15.5391 8.2657C15.3918 8.52079 15.4792 8.84693 15.7342 8.99416V8.99416Z" fill="black"/>
<path d="M7.73526 23.0016C7.54847 22.8938 7.31513 22.9091 7.14396 23.0404C6.97286 23.1717 6.89768 23.3931 6.95349 23.6015C7.00929 23.8098 7.18514 23.964 7.39899 23.9922C7.61284 24.0204 7.82256 23.9169 7.93042 23.7301C8.07771 23.475 7.99035 23.1489 7.73526 23.0016Z" fill="black"/>
<path d="M23.2644 13.8813C22.3333 8.91472 18.338 5.09537 13.3346 4.38871V3.19956C14.2181 3.19956 14.9344 2.48329 14.9344 1.59978C14.9344 0.716277 14.2181 0 13.3345 0H10.1349C9.25144 0 8.53516 0.716277 8.53516 1.59978C8.53516 2.48329 9.25144 3.19956 10.1349 3.19956V4.37809C8.23308 4.63893 6.42495 5.3652 4.8711 6.49249L3.72201 5.34383C2.99224 4.61474 1.80958 4.61537 1.0805 5.34514C0.351409 6.07492 0.352033 7.25757 1.08181 7.98666L2.2294 9.13425C-0.705635 13.1859 -0.744504 18.6541 2.13266 22.7471C5.00983 26.8401 10.1682 28.655 14.9743 27.2651C17.0692 31.1183 21.6228 32.9183 25.7861 31.5389C29.9494 30.1596 32.5274 25.9967 31.9071 21.6549C31.2868 17.3131 27.6463 14.0387 23.2633 13.8802L23.2644 13.8813ZM9.60171 1.59978C9.60171 1.30526 9.84049 1.06654 10.1349 1.06654H13.3345C13.629 1.06654 13.8677 1.30532 13.8677 1.59978C13.8677 1.89424 13.629 2.13302 13.3345 2.13302H10.1349C9.84049 2.13302 9.60171 1.8943 9.60171 1.59978ZM11.2015 3.19956H12.268V4.2906C12.0904 4.2826 11.9145 4.26604 11.7348 4.26604C11.5551 4.26604 11.3786 4.27135 11.2016 4.27935V3.19956H11.2015ZM1.83746 7.2337C1.52425 6.92105 1.52375 6.41375 1.83639 6.10054C2.14904 5.78733 2.65634 5.78683 2.96955 6.09948L4.03128 7.16065C3.62821 7.51254 3.24945 7.8913 2.89756 8.29437L1.83746 7.2337ZM11.7347 26.663C6.1165 26.6659 1.45938 22.3099 1.08743 16.704C0.715484 11.098 4.75624 6.16478 10.3256 5.42538C15.895 4.68598 21.083 8.39385 22.1867 13.9027C19.3204 14.133 16.7346 15.7127 15.2213 18.1577C13.708 20.6027 13.4477 23.6217 14.52 26.2898C13.612 26.5359 12.6755 26.6614 11.7347 26.663V26.663ZM22.9332 30.9291C18.5155 30.9291 14.9343 27.3478 14.9343 22.9302C14.9343 18.5125 18.5155 14.9313 22.9332 14.9313C27.3508 14.9313 30.9321 18.5125 30.9321 22.9302C30.9271 27.3458 27.3488 30.9241 22.9332 30.9291Z" fill="black"/>
</svg>
