<svg width="32" height="32" viewBox="0 0 32 32" fill="none" xmlns="http://www.w3.org/2000/svg">
<path d="M21.6887 22.7556H16.3554V17.7778H17.4221C17.8934 17.7774 18.3454 17.59 18.6787 17.2566C19.012 16.9233 19.1994 16.4714 19.1999 16V13.3028L20.518 11.9848C20.5847 11.9181 20.6221 11.8277 20.6221 11.7334C20.6221 11.6391 20.5847 11.5486 20.518 11.4819C20.4513 11.4152 20.3608 11.3778 20.2665 11.3778C20.1722 11.3778 20.0818 11.4152 20.0151 11.4819L19.0491 12.4479C18.9114 12.1306 18.6841 11.8603 18.3951 11.6703C18.1061 11.4802 17.768 11.3786 17.4221 11.3778H16.3554V6.40004H17.4221C17.8934 6.39962 18.3454 6.21219 18.6787 5.87888C19.012 5.54557 19.1994 5.09363 19.1999 4.62226V1.92502L20.518 0.60705C20.5847 0.540362 20.6221 0.449913 20.6221 0.355602C20.6221 0.26129 20.5847 0.170842 20.518 0.104153C20.4513 0.0374651 20.3608 0 20.2665 0C20.1722 0 20.0818 0.0374651 20.0151 0.104153L19.0491 1.07013C18.9114 0.752816 18.6841 0.482566 18.3951 0.292496C18.1061 0.102426 17.768 0.000791149 17.4221 4.68783e-05H15.9999C15.9056 4.68783e-05 15.8151 0.037507 15.7484 0.104187C15.6818 0.170866 15.6443 0.261303 15.6443 0.355602C15.6443 0.449901 15.6818 0.540338 15.7484 0.607017C15.8151 0.673697 15.9056 0.711157 15.9999 0.711157H17.4221C17.6813 0.713379 17.9307 0.810802 18.1228 0.984895C18.3148 1.15899 18.4362 1.39761 18.4639 1.65537L16.7536 3.3653C16.5536 3.56532 16.2823 3.67768 15.9994 3.67768C15.7166 3.67768 15.4453 3.56532 15.2452 3.3653L13.5359 1.65537C13.5635 1.39761 13.6849 1.15899 13.877 0.984895C14.069 0.810802 14.3184 0.713379 14.5776 0.711157C14.6719 0.711157 14.7624 0.673697 14.8291 0.607017C14.8957 0.540338 14.9332 0.449901 14.9332 0.355602C14.9332 0.261303 14.8957 0.170866 14.8291 0.104187C14.7624 0.037507 14.6719 4.68783e-05 14.5776 4.68783e-05C14.1063 0.000461136 13.6543 0.187895 13.321 0.521203C12.9877 0.854511 12.8003 1.30645 12.7999 1.77782V4.62226C12.8003 5.09363 12.9877 5.54557 13.321 5.87888C13.6543 6.21219 14.1063 6.39962 14.5776 6.40004H15.6443V11.3778H14.5776C14.1063 11.3782 13.6543 11.5657 13.321 11.899C12.9877 12.2323 12.8003 12.6842 12.7999 13.1556V16C12.8003 16.4714 12.9877 16.9233 13.321 17.2566C13.6543 17.59 14.1063 17.7774 14.5776 17.7778H15.6443V22.7556H10.311C9.83961 22.756 9.38767 22.9434 9.05436 23.2767C8.72105 23.61 8.53362 24.062 8.5332 24.5333V30.2222C8.53362 30.6936 8.72105 31.1455 9.05436 31.4788C9.38767 31.8122 9.83961 31.9996 10.311 32H21.6887C22.1601 31.9996 22.6121 31.8122 22.9454 31.4788C23.2787 31.1455 23.4661 30.6936 23.4665 30.2222V27.3778C23.4665 27.2835 23.4291 27.193 23.3624 27.1264C23.2957 27.0597 23.2053 27.0222 23.111 27.0222C23.0167 27.0222 22.9262 27.0597 22.8595 27.1264C22.7929 27.193 22.7554 27.2835 22.7554 27.3778V30.2222C22.755 30.505 22.6425 30.7761 22.4425 30.976C22.2426 31.176 21.9715 31.2885 21.6887 31.2889H10.311C10.0282 31.2885 9.75714 31.176 9.55719 30.976C9.35724 30.7761 9.24473 30.505 9.24431 30.2222V24.5333C9.24473 24.2506 9.35724 23.9795 9.55719 23.7796C9.75714 23.5796 10.0282 23.4671 10.311 23.4667H12.7999V24.8875C12.7999 25.1932 12.8983 25.4907 13.0807 25.736C13.2631 25.9813 13.5196 26.1614 13.8123 26.2494C14.105 26.3375 14.4183 26.3289 14.7058 26.225C14.9932 26.121 15.2396 25.9272 15.4082 25.6723C15.476 25.5781 15.5652 25.5014 15.6686 25.4487C15.7719 25.396 15.8863 25.3687 16.0023 25.3691C16.1184 25.3695 16.2326 25.3976 16.3356 25.451C16.4385 25.5045 16.5273 25.5817 16.5943 25.6764C16.7205 25.8713 16.8934 26.0315 17.0973 26.1426C17.3012 26.2537 17.5295 26.3121 17.7617 26.3125C17.9067 26.3122 18.0508 26.2907 18.1895 26.2487C18.4837 26.1637 18.7418 25.9845 18.9242 25.7386C19.1067 25.4927 19.2033 25.1936 19.1993 24.8875V23.4667H21.6887C21.9715 23.4671 22.2426 23.5796 22.4425 23.7796C22.6425 23.9795 22.755 24.2506 22.7554 24.5333V25.9556C22.7554 26.0499 22.7929 26.1403 22.8595 26.207C22.9262 26.2737 23.0167 26.3111 23.111 26.3111C23.2053 26.3111 23.2957 26.2737 23.3624 26.207C23.4291 26.1403 23.4665 26.0499 23.4665 25.9556V24.5333C23.4661 24.062 23.2787 23.61 22.9454 23.2767C22.6121 22.9434 22.1601 22.756 21.6887 22.7556ZM13.511 4.62226V2.63613L14.7429 3.86806C15.0766 4.20076 15.5286 4.38758 15.9999 4.38758C16.4711 4.38758 16.9231 4.20076 17.2568 3.86806L18.4887 2.63613V4.62226C18.4883 4.90503 18.3758 5.1761 18.1759 5.37605C17.9759 5.576 17.7048 5.68851 17.4221 5.68893H14.5776C14.2949 5.68851 14.0238 5.576 13.8239 5.37605C13.6239 5.1761 13.5114 4.90503 13.511 4.62226V4.62226ZM14.5776 12.0889H17.4221C17.6813 12.0911 17.9307 12.1886 18.1228 12.3627C18.3148 12.5368 18.4362 12.7754 18.4639 13.0331L16.7536 14.7431C16.5536 14.9431 16.2823 15.0554 15.9994 15.0554C15.7166 15.0554 15.4453 14.9431 15.2452 14.7431L13.5359 13.0331C13.5635 12.7754 13.6849 12.5368 13.877 12.3627C14.069 12.1886 14.3184 12.0911 14.5776 12.0889ZM13.511 16V14.0139L14.7429 15.2458C15.0766 15.5785 15.5286 15.7653 15.9999 15.7653C16.4711 15.7653 16.9231 15.5785 17.2568 15.2458L18.4887 14.0139V16C18.4883 16.2828 18.3758 16.5539 18.1759 16.7538C17.9759 16.9538 17.7048 17.0663 17.4221 17.0667H14.5776C14.2949 17.0663 14.0238 16.9538 13.8239 16.7538C13.6239 16.5539 13.5114 16.2828 13.511 16V16ZM18.4887 24.8875C18.4888 25.0405 18.4394 25.1895 18.348 25.3123C18.2565 25.435 18.1279 25.525 17.9813 25.5689C17.8346 25.6127 17.6778 25.608 17.534 25.5556C17.3902 25.5031 17.2671 25.4057 17.1831 25.2777C17.0461 25.0923 16.8674 24.9416 16.6614 24.838C16.4554 24.7343 16.228 24.6805 15.9974 24.6809C15.7668 24.6813 15.5395 24.736 15.3339 24.8404C15.1283 24.9448 14.9501 25.0961 14.8137 25.282C14.7291 25.409 14.6058 25.5053 14.4621 25.5569C14.3185 25.6084 14.162 25.6123 14.016 25.5681C13.8699 25.5238 13.7419 25.4338 13.651 25.3112C13.5601 25.1887 13.511 25.0401 13.511 24.8875V23.4667H18.4887V24.8875Z" fill="black"/>
<path d="M23.1109 2.13335H31.6442C31.7385 2.13335 31.829 2.09589 31.8957 2.02921C31.9623 1.96253 31.9998 1.8721 31.9998 1.7778C31.9998 1.6835 31.9623 1.59306 31.8957 1.52638C31.829 1.4597 31.7385 1.42224 31.6442 1.42224H23.1109C23.0166 1.42224 22.9262 1.4597 22.8595 1.52638C22.7928 1.59306 22.7554 1.6835 22.7554 1.7778C22.7554 1.8721 22.7928 1.96253 22.8595 2.02921C22.9262 2.09589 23.0166 2.13335 23.1109 2.13335Z" fill="black"/>
<path d="M23.1109 4.97783H25.9554C26.0497 4.97783 26.1401 4.94037 26.2068 4.87369C26.2735 4.80701 26.3109 4.71658 26.3109 4.62228C26.3109 4.52798 26.2735 4.43754 26.2068 4.37086C26.1401 4.30418 26.0497 4.26672 25.9554 4.26672H23.1109C23.0166 4.26672 22.9262 4.30418 22.8595 4.37086C22.7928 4.43754 22.7554 4.52798 22.7554 4.62228C22.7554 4.71658 22.7928 4.80701 22.8595 4.87369C22.9262 4.94037 23.0166 4.97783 23.1109 4.97783Z" fill="black"/>
<path d="M10.6667 17.4222V13.1556C10.6662 12.6842 10.4788 12.2323 10.1455 11.899C9.81219 11.5657 9.36024 11.3782 8.88888 11.3778H1.77778C1.30641 11.3782 0.854464 11.5657 0.521156 11.899C0.187848 12.2323 0.000414257 12.6842 0 13.1556V16C0 16.0943 0.0374601 16.1848 0.10414 16.2514C0.170819 16.3181 0.261256 16.3556 0.355555 16.3556C0.449854 16.3556 0.540291 16.3181 0.60697 16.2514C0.67365 16.1848 0.71111 16.0943 0.71111 16V14.9334H9.95554V17.4222C9.95513 17.705 9.84261 17.9761 9.64266 18.176C9.44272 18.376 9.17165 18.4885 8.88888 18.4889H1.77778C1.49501 18.4885 1.22394 18.376 1.02399 18.176C0.824037 17.9761 0.711524 17.705 0.71111 17.4222C0.71111 17.3279 0.67365 17.2375 0.60697 17.1708C0.540291 17.1041 0.449854 17.0667 0.355555 17.0667C0.261256 17.0667 0.170819 17.1041 0.10414 17.1708C0.0374601 17.2375 0 17.3279 0 17.4222C0.000414257 17.8936 0.187848 18.3456 0.521156 18.6789C0.854464 19.0122 1.30641 19.1996 1.77778 19.2H8.88888C9.36024 19.1996 9.81219 19.0122 10.1455 18.6789C10.4788 18.3456 10.6662 17.8936 10.6667 17.4222ZM0.71111 14.2222V13.1556C0.711524 12.8728 0.824037 12.6017 1.02399 12.4018C1.22394 12.2018 1.49501 12.0893 1.77778 12.0889H8.88888C9.17165 12.0893 9.44272 12.2018 9.64266 12.4018C9.84261 12.6017 9.95513 12.8728 9.95554 13.1556V14.2222H0.71111Z" fill="black"/>
<path d="M8.88896 17.7778C8.98326 17.7778 9.0737 17.7404 9.14038 17.6737C9.20706 17.607 9.24452 17.5166 9.24452 17.4223C9.24452 17.328 9.20706 17.2375 9.14038 17.1709C9.0737 17.1042 8.98326 17.0667 8.88896 17.0667H6.04452C5.95022 17.0667 5.85978 17.1042 5.7931 17.1709C5.72642 17.2375 5.68896 17.328 5.68896 17.4223C5.68896 17.5166 5.72642 17.607 5.7931 17.6737C5.85978 17.7404 5.95022 17.7778 6.04452 17.7778H8.88896Z" fill="black"/>
<path d="M31.6442 12.8H23.1109C23.0166 12.8 22.9262 12.8375 22.8595 12.9042C22.7928 12.9709 22.7554 13.0613 22.7554 13.1556C22.7554 13.2499 22.7928 13.3403 22.8595 13.407C22.9262 13.4737 23.0166 13.5112 23.1109 13.5112H31.6442C31.7385 13.5112 31.829 13.4737 31.8957 13.407C31.9623 13.3403 31.9998 13.2499 31.9998 13.1556C31.9998 13.0613 31.9623 12.9709 31.8957 12.9042C31.829 12.8375 31.7385 12.8 31.6442 12.8Z" fill="black"/>
<path d="M25.9554 15.6445H23.1109C23.0166 15.6445 22.9262 15.6819 22.8595 15.7486C22.7928 15.8153 22.7554 15.9057 22.7554 16C22.7554 16.0943 22.7928 16.1848 22.8595 16.2514C22.9262 16.3181 23.0166 16.3556 23.1109 16.3556H25.9554C26.0497 16.3556 26.1401 16.3181 26.2068 16.2514C26.2735 16.1848 26.3109 16.0943 26.3109 16C26.3109 15.9057 26.2735 15.8153 26.2068 15.7486C26.1401 15.6819 26.0497 15.6445 25.9554 15.6445Z" fill="black"/>
</svg>
