<svg id="Group_37825" data-name="Group 37825" xmlns="http://www.w3.org/2000/svg" width="32" height="32" viewBox="0 0 32 32">
  <g id="Group_37825-2" data-name="Group 37825">
    <path id="Path_105626" data-name="Path 105626" d="M30.281,4.329h-8.2A6.454,6.454,0,0,0,16,0a6.375,6.375,0,0,0-2.912.694.469.469,0,0,0,.424.836A5.446,5.446,0,0,1,16,.937a5.505,5.505,0,1,1-4.183,1.926.469.469,0,0,0-.712-.61,6.433,6.433,0,0,0-1.19,2.076h-8.2A1.721,1.721,0,0,0,0,6.047V30.281A1.721,1.721,0,0,0,1.719,32H30.281A1.721,1.721,0,0,0,32,30.281V6.047A1.721,1.721,0,0,0,30.281,4.329Zm0,.938a.782.782,0,0,1,.781.781V9.531h-9.41a6.465,6.465,0,0,0,.682-4.265Zm-28.563,0H9.666a6.458,6.458,0,0,0,.681,4.265H.938V6.047a.782.782,0,0,1,.781-.781Zm28.563,25.8H1.719a.782.782,0,0,1-.781-.781V10.469H10.974a6.435,6.435,0,0,0,10.059-.008c.027.005,10.03.008,10.03.008V30.281A.782.782,0,0,1,30.281,31.063Z"/>
    <path id="Path_105627" data-name="Path 105627" d="M77.663,362.293H57.788c-3.464,0-3.47,5.408,0,5.408H77.663C81.127,367.7,81.133,362.293,77.663,362.293Zm0,4.467H57.788a1.764,1.764,0,0,1,0-3.526H77.663A1.764,1.764,0,0,1,77.663,366.76Z" transform="translate(-51.726 -339.686)"/>
    <path id="Path_105628" data-name="Path 105628" d="M114.361,397.891a.471.471,0,0,0,0,.941A.471.471,0,0,0,114.361,397.891Z" transform="translate(-106.788 -373.026)"/>
    <path id="Path_105629" data-name="Path 105629" d="M152.889,397.891a.471.471,0,0,0,0,.941A.471.471,0,0,0,152.889,397.891Z" transform="translate(-142.908 -373.026)"/>
    <path id="Path_105630" data-name="Path 105630" d="M191.417,397.891a.471.471,0,0,0,0,.941A.471.471,0,0,0,191.417,397.891Z" transform="translate(-179.028 -373.026)"/>
    <path id="Path_105631" data-name="Path 105631" d="M229.946,397.891a.471.471,0,0,0,0,.941A.471.471,0,0,0,229.946,397.891Z" transform="translate(-215.149 -373.026)"/>
    <path id="Path_105632" data-name="Path 105632" d="M268.474,397.891a.471.471,0,0,0,0,.941A.471.471,0,0,0,268.474,397.891Z" transform="translate(-251.27 -373.026)"/>
    <path id="Path_105633" data-name="Path 105633" d="M307,397.891a.471.471,0,0,0,0,.941A.471.471,0,0,0,307,397.891Z" transform="translate(-287.391 -373.026)"/>
    <path id="Path_105634" data-name="Path 105634" d="M345.531,397.891a.471.471,0,0,0,0,.941A.471.471,0,0,0,345.531,397.891Z" transform="translate(-323.511 -373.026)"/>
    <path id="Path_105635" data-name="Path 105635" d="M384.059,397.891a.471.471,0,0,0,0,.941A.471.471,0,0,0,384.059,397.891Z" transform="translate(-359.631 -373.026)"/>
    <path id="Path_105636" data-name="Path 105636" d="M77.663,249.118H57.788c-3.464,0-3.47,5.408,0,5.408H73.551a.471.471,0,0,0,0-.941H57.788a1.764,1.764,0,0,1,0-3.526H77.663a1.764,1.764,0,0,1,0,3.526H76.048a.471.471,0,0,0,0,.941h1.615c3.464,0,3.47-5.408,0-5.408Z" transform="translate(-51.726 -233.56)"/>
    <path id="Path_105637" data-name="Path 105637" d="M216.325,42.1a1.675,1.675,0,0,0-1.673,1.673v1.11a1.1,1.1,0,0,0-.983,1.092v2.428a1.1,1.1,0,0,0,1.1,1.1h3.116a1.1,1.1,0,0,0,1.1-1.1V45.977A1.1,1.1,0,0,0,218,44.885v-1.11A1.675,1.675,0,0,0,216.325,42.1Zm-.732,1.673a.733.733,0,0,1,1.465,0v1.1h-1.465Zm2.447,4.63a.157.157,0,0,1-.157.157h-3.116a.157.157,0,0,1-.157-.157V45.977a.157.157,0,0,1,.157-.157h3.116a.157.157,0,0,1,.157.157Z" transform="translate(-200.325 -39.461)"/>
    <path id="Path_105638" data-name="Path 105638" d="M131.6,285.187a.469.469,0,0,0-.467-.471h-16.8a.471.471,0,0,0,0,.941h16.8A.469.469,0,0,0,131.6,285.187Z" transform="translate(-106.733 -266.923)"/>
    <path id="Path_105639" data-name="Path 105639" d="M249.21,115.716a.471.471,0,0,0,0,.941A.471.471,0,0,0,249.21,115.716Z" transform="translate(-233.21 -108.485)"/>
  </g>
</svg>
