<svg xmlns="http://www.w3.org/2000/svg" width="32" height="32" viewBox="0 0 32 32">
  <g id="Group_37780" data-name="Group 37780" transform="translate(-10.343 -16)">
    <g id="_OUTLINE" data-name="/ OUTLINE" transform="translate(10.343 16)">
      <path id="Path_105492" data-name="Path 105492" d="M114.118,83.176a1.06,1.06,0,0,0,1.059-1.059V81.059A1.06,1.06,0,0,0,114.118,80h-1.059A1.06,1.06,0,0,0,112,81.059v1.059a1.06,1.06,0,0,0,1.059,1.059Zm-1.059-2.118h1.059v1.059h-1.059Z" transform="translate(-105.305 -75.083)"/>
      <path id="Path_105493" data-name="Path 105493" d="M177.059,83.176h1.059a1.06,1.06,0,0,0,1.059-1.059V81.059A1.06,1.06,0,0,0,178.118,80h-1.059A1.06,1.06,0,0,0,176,81.059v1.059A1.06,1.06,0,0,0,177.059,83.176Zm0-2.118h1.059v1.059h-1.059Z" transform="translate(-165.09 -75.083)"/>
      <path id="Path_105494" data-name="Path 105494" d="M241.059,83.176h1.059a1.06,1.06,0,0,0,1.059-1.059V81.059A1.06,1.06,0,0,0,242.118,80h-1.059A1.06,1.06,0,0,0,240,81.059v1.059A1.06,1.06,0,0,0,241.059,83.176Zm0-2.118h1.059v1.059h-1.059Z" transform="translate(-224.875 -75.083)"/>
      <path id="Path_105495" data-name="Path 105495" d="M30.747,24.434V17.581A1.583,1.583,0,0,0,29.165,16H16.514a1.583,1.583,0,0,0-1.581,1.581V29.4l-2.7,2.7a1.571,1.571,0,0,0-.463,1.118V37.7a1.571,1.571,0,0,1-.463,1.118l-.964.964.745.745.964-.964a2.618,2.618,0,0,0,.772-1.864V33.214a.524.524,0,0,1,.154-.373l2.854-2.854A.964.964,0,1,1,17.2,31.35l-1.8,1.8a1.571,1.571,0,0,0-.463,1.118v6.506a1.583,1.583,0,0,0,1.581,1.581h2.944l-.591.591a1.571,1.571,0,0,1-1.118.463h-.889A2.618,2.618,0,0,0,15,44.182l-3.072,3.072L12.67,48l3.072-3.072a1.571,1.571,0,0,1,1.118-.463h.889a2.618,2.618,0,0,0,1.864-.772l.764-.763a11.587,11.587,0,0,0,9.316,4.7h1.054a11.6,11.6,0,0,0,0-23.193Zm-4.365-7.38-.164.655a.526.526,0,0,1-.511.4H19.973a.526.526,0,0,1-.511-.4l-.164-.655Zm-9.867,11.6a2.028,2.028,0,0,0-.527.07V17.581a.528.528,0,0,1,.527-.527h1.7l.228.911a1.579,1.579,0,0,0,1.534,1.2h5.733a1.579,1.579,0,0,0,1.534-1.2l.228-.911h1.7a.528.528,0,0,1,.527.527v6.853H18.1v4.982a2.051,2.051,0,0,0-.154-.174A2,2,0,0,0,16.514,28.651Zm0,12.651a.528.528,0,0,1-.527-.527V34.268a.524.524,0,0,1,.154-.373l1.8-1.8a2.053,2.053,0,0,0,.154-.174v4.108A11.526,11.526,0,0,0,19.364,41.3Zm14.232,5.271H29.692A10.554,10.554,0,0,1,19.15,36.031V25.488h11.6a10.542,10.542,0,1,1,0,21.085Z" transform="translate(-10.343 -16)"/>
      <rect id="Rectangle_12551" data-name="Rectangle 12551" width="1.059" height="1.588" transform="translate(24.09 0.529)"/>
      <rect id="Rectangle_12552" data-name="Rectangle 12552" width="1.588" height="1.059" transform="translate(22.507 2.118)"/>
      <rect id="Rectangle_12553" data-name="Rectangle 12553" width="1.059" height="1.588" transform="translate(24.09 3.176)"/>
      <rect id="Rectangle_12554" data-name="Rectangle 12554" width="1.588" height="1.059" transform="translate(25.142 2.118)"/>
      <rect id="Rectangle_12555" data-name="Rectangle 12555" width="1.059" height="1.588" transform="translate(28.824 5.286)"/>
      <rect id="Rectangle_12556" data-name="Rectangle 12556" width="1.588" height="1.059" transform="translate(27.236 6.325)"/>
      <rect id="Rectangle_12557" data-name="Rectangle 12557" width="1.059" height="1.588" transform="translate(28.824 7.378)"/>
      <rect id="Rectangle_12558" data-name="Rectangle 12558" width="1.588" height="1.059" transform="translate(29.882 6.325)"/>
      <path id="Path_105496" data-name="Path 105496" d="M198.293,208H185.588A1.59,1.59,0,0,0,184,209.588v11.646h1.059v-1.588h2.148a4.764,4.764,0,1,0,9.469,0h2.148v1.588h1.059V209.588A1.59,1.59,0,0,0,198.293,208Zm.529,9v1.588h-2.39a4.723,4.723,0,0,0-.35-.768l-.344-.6-3.8,3.8-1.214-1.214-.749.749,1.962,1.962L195.455,219a3.7,3.7,0,1,1-1.662-2.033l.53-.916a4.765,4.765,0,0,0-6.874,2.539h-2.391v-3.706a.53.53,0,0,1,.529-.529h12.705a.53.53,0,0,1,.529.529Zm-11.646-3.706v-1.588a.53.53,0,0,1,.529-.529h2.118a.53.53,0,0,1,.529.529v1.588Zm6.353,0v-1.588a.53.53,0,0,1,.529-.529h2.118a.53.53,0,0,1,.529.529v1.588Zm5.294.091a1.58,1.58,0,0,0-.529-.091h-.529v-1.588a1.59,1.59,0,0,0-1.588-1.588h-2.118a1.59,1.59,0,0,0-1.588,1.588v1.588h-1.059v-1.588a1.59,1.59,0,0,0-1.588-1.588h-2.118a1.59,1.59,0,0,0-1.588,1.588v1.588h-.529a1.581,1.581,0,0,0-.529.091v-3.8a.53.53,0,0,1,.529-.529h12.705a.53.53,0,0,1,.529.529Z" transform="translate(-171.92 -195.432)"/>
    </g>
  </g>
</svg>
