<svg width="32" height="32" viewBox="0 0 32 32" fill="none" xmlns="http://www.w3.org/2000/svg">
<path d="M3.09668 28.9032H4.12894V29.9355H3.09668V28.9032Z" fill="black"/>
<path d="M5.16113 28.9032H6.19339V29.9355H5.16113V28.9032Z" fill="black"/>
<path d="M7.22559 28.9032H8.25784V29.9355H7.22559V28.9032Z" fill="black"/>
<path d="M24.7744 28.9032H28.9034V29.9355H24.7744V28.9032Z" fill="black"/>
<path d="M30.9677 26.8387V9.80645C30.9677 8.38357 29.81 7.22581 28.3871 7.22581H26.8387C26.8387 3.24118 23.5975 0 19.6129 0C15.6283 0 12.3871 3.24118 12.3871 7.22581H3.6129C2.19002 7.22581 1.03226 8.38357 1.03226 9.80645V26.8387H0V29.4194C0 30.8422 1.15776 32 2.58065 32H29.4194C30.8422 32 32 30.8422 32 29.4194V26.8387H30.9677ZM28.3871 8.25806C29.2407 8.25806 29.9355 8.95287 29.9355 9.80645V26.8387H28.9032V10.3226C28.9032 9.75328 28.4403 9.29032 27.871 9.29032H26.5343C26.6338 8.9559 26.7056 8.61063 26.756 8.25806H28.3871ZM13.7193 5.32913L19.1973 7.61189L21.0731 13.2382C20.6038 13.3523 20.1167 13.4194 19.6129 13.4194C16.1976 13.4194 13.4194 10.6411 13.4194 7.22581C13.4194 6.56401 13.5262 5.92717 13.7193 5.32913V5.32913ZM22.0537 12.9161L20.2034 7.36517L24.3374 3.23085C25.252 4.31023 25.8065 5.70363 25.8065 7.22581C25.8065 9.77445 24.2581 11.967 22.0537 12.9161ZM19.6129 1.03226C21.1351 1.03226 22.5285 1.58669 23.6084 2.50076L19.4927 6.61618L14.1192 4.37777C15.152 2.39289 17.2248 1.03226 19.6129 1.03226ZM2.06452 9.80645C2.06452 8.95287 2.75932 8.25806 3.6129 8.25806H12.4698C12.5202 8.61063 12.5915 8.9559 12.6915 9.29032H4.12903C3.55973 9.29032 3.09677 9.75328 3.09677 10.3226V26.8387H2.06452V9.80645ZM30.9677 29.4194C30.9677 30.2729 30.2729 30.9677 29.4194 30.9677H2.58065C1.72707 30.9677 1.03226 30.2729 1.03226 29.4194V27.871H11.6656C12.4078 28.5383 13.3574 28.9032 14.3634 28.9032H17.6371C18.6431 28.9032 19.5927 28.5383 20.3349 27.871H26.8387V26.8387H19.9153L19.7641 26.9899C19.1958 27.5582 18.4408 27.871 17.6366 27.871H14.3629C13.5592 27.871 12.8037 27.5582 12.2354 26.9899L12.0847 26.8387H4.12903V10.3226H13.0943C14.2571 12.7598 16.7377 14.4516 19.6129 14.4516C22.4882 14.4516 24.9687 12.7598 26.1316 10.3226H27.871V27.871H30.9677V29.4194Z" fill="black"/>
<path d="M25.2902 21.6775C24.9734 21.6775 24.6785 21.774 24.4328 21.938L22.6322 20.588C22.678 20.4418 22.7095 20.2896 22.7095 20.1291C22.7095 19.2755 22.0147 18.5807 21.1611 18.5807C20.3076 18.5807 19.6127 19.2755 19.6127 20.1291C19.6127 20.3067 19.6488 20.4748 19.704 20.6339L16.8134 22.9466C16.5765 22.7989 16.2992 22.7097 15.9998 22.7097C15.6526 22.7097 15.335 22.8289 15.0765 23.0225L12.8509 21.5386C12.8819 21.4174 12.9031 21.2924 12.9031 21.1613C12.9031 20.3078 12.2083 19.6129 11.3547 19.6129C10.5011 19.6129 9.80629 20.3078 9.80629 21.1613C9.80629 21.2924 9.82746 21.4174 9.85846 21.5386L7.63291 23.0225C7.37434 22.8284 7.0568 22.7097 6.70952 22.7097C5.85594 22.7097 5.16113 23.4045 5.16113 24.2581C5.16113 25.1117 5.85594 25.8065 6.70952 25.8065C7.5631 25.8065 8.25791 25.1117 8.25791 24.2581C8.25791 24.1271 8.23674 24.0021 8.20574 23.8808L10.4313 22.397C10.6899 22.591 11.0074 22.7097 11.3547 22.7097C11.702 22.7097 12.0195 22.591 12.2781 22.397L14.5036 23.8808C14.4726 24.0021 14.4515 24.1276 14.4515 24.2581C14.4515 25.1117 15.1463 25.8065 15.9998 25.8065C16.8534 25.8065 17.5482 25.1117 17.5482 24.2581C17.5482 24.0804 17.5122 23.9123 17.457 23.7533L20.3476 21.4406C20.5845 21.5882 20.8617 21.6775 21.1611 21.6775C21.4779 21.6775 21.7728 21.5809 22.0185 21.4169L23.8191 22.7669C23.7733 22.9131 23.7418 23.0653 23.7418 23.2258C23.7418 24.0794 24.4366 24.7742 25.2902 24.7742C26.1437 24.7742 26.8386 24.0794 26.8386 23.2258C26.8386 22.3723 26.1437 21.6775 25.2902 21.6775V21.6775ZM6.70952 24.7742C6.42525 24.7742 6.19339 24.5424 6.19339 24.2581C6.19339 23.9738 6.42525 23.742 6.70952 23.742C6.99379 23.742 7.22565 23.9738 7.22565 24.2581C7.22565 24.5424 6.99379 24.7742 6.70952 24.7742ZM11.3547 21.6775C11.0704 21.6775 10.8386 21.4456 10.8386 21.1613C10.8386 20.8771 11.0704 20.6452 11.3547 20.6452C11.639 20.6452 11.8708 20.8771 11.8708 21.1613C11.8708 21.4456 11.639 21.6775 11.3547 21.6775ZM15.9998 24.7742C15.7156 24.7742 15.4837 24.5424 15.4837 24.2581C15.4837 23.9738 15.7156 23.742 15.9998 23.742C16.2841 23.742 16.516 23.9738 16.516 24.2581C16.516 24.5424 16.2841 24.7742 15.9998 24.7742ZM21.1611 20.6452C20.8769 20.6452 20.645 20.4133 20.645 20.1291C20.645 19.8448 20.8769 19.6129 21.1611 19.6129C21.4454 19.6129 21.6773 19.8448 21.6773 20.1291C21.6773 20.4133 21.4454 20.6452 21.1611 20.6452ZM25.2902 23.742C25.0059 23.742 24.774 23.5101 24.774 23.2258C24.774 22.9416 25.0059 22.7097 25.2902 22.7097C25.5744 22.7097 25.8063 22.9416 25.8063 23.2258C25.8063 23.5101 25.5744 23.742 25.2902 23.742Z" fill="black"/>
<path d="M13.4192 11.3549H5.16113V18.5807H13.4192V11.3549ZM12.3869 17.5484H6.19339V12.3871H12.3869V17.5484Z" fill="black"/>
<path d="M7.22559 13.4193H11.3546V14.4516H7.22559V13.4193Z" fill="black"/>
<path d="M7.22559 15.4839H11.3546V16.5161H7.22559V15.4839Z" fill="black"/>
<path d="M14.4517 16.5161H15.4839V17.5484H14.4517V16.5161Z" fill="black"/>
<path d="M16.5161 16.5161H26.8387V17.5484H16.5161V16.5161Z" fill="black"/>
</svg>
