<svg width="32" height="32" viewBox="0 0 32 32" fill="none" xmlns="http://www.w3.org/2000/svg">
<path d="M10.391 9.28833C9.40136 9.28833 8.59617 10.0935 8.59617 11.0832C8.59617 12.0729 9.40136 12.8781 10.391 12.8781C11.3807 12.8781 12.1859 12.0729 12.1859 11.0832C12.1859 10.0935 11.3807 9.28833 10.391 9.28833ZM10.391 11.8781C9.95273 11.8781 9.59617 11.5215 9.59617 11.0833C9.59617 10.645 9.95273 10.2884 10.391 10.2884C10.8294 10.2884 11.1859 10.645 11.1859 11.0833C11.1859 11.5215 10.8293 11.8781 10.391 11.8781ZM11.3579 5.0112L5.90392 12.6028C5.74323 12.8261 5.43192 12.8768 5.20861 12.7161C4.98529 12.5554 4.93461 12.2441 5.09529 12.0208L10.5492 4.4292C10.7099 4.20589 11.0212 4.1552 11.2445 4.31589C11.4679 4.47664 11.5185 4.78795 11.3579 5.0112V5.0112ZM7.85242 5.89283C7.85242 4.90314 7.04723 4.09789 6.05754 4.09789C5.06786 4.09789 4.26267 4.90308 4.26267 5.89283C4.26267 6.88252 5.06779 7.6877 6.05754 7.6877C7.04723 7.6877 7.85242 6.88252 7.85242 5.89283V5.89283ZM5.26267 5.89283C5.26267 5.45452 5.61929 5.09789 6.05754 5.09789C6.49579 5.09789 6.85242 5.45452 6.85242 5.89283C6.85242 6.33114 6.49586 6.6877 6.05754 6.6877C5.61923 6.6877 5.26267 6.33108 5.26267 5.89283ZM31.3559 13.6451L30.1429 7.12189C29.9921 6.31183 29.7219 5.39452 28.8602 4.73339C28.0491 4.1112 27.1549 4.05377 26.3676 4.10277L23.6517 1.08352C23.2819 0.672391 22.7941 0.455078 22.2412 0.455078H2.5073C1.46117 0.455078 0.610107 1.30614 0.610107 2.35227V14.6238C0.610107 15.6699 1.46123 16.521 2.5073 16.521H9.69261L6.23729 21.0249C5.60061 21.8549 5.75786 23.0482 6.58773 23.685L16.3242 31.1545C16.6679 31.4181 17.0738 31.5456 17.4767 31.5456C18.047 31.5456 18.6111 31.2902 18.9842 30.8039L30.9959 15.1468C31.3325 14.708 31.457 14.1888 31.3559 13.6451ZM2.5073 15.521C2.01255 15.521 1.61011 15.1185 1.61011 14.6238V2.35227C1.61011 1.85752 2.01261 1.45508 2.5073 1.45508H22.2412C22.5102 1.45508 22.7284 1.55227 22.9082 1.75227L25.1101 4.20008L19.6062 4.63114C19.0549 4.67427 18.5856 4.92902 18.249 5.36777L10.4598 15.521H2.5073ZM30.2025 14.5381L18.1909 30.1952C17.8898 30.5878 17.3255 30.6622 16.9329 30.361L7.19654 22.8916C6.80404 22.5905 6.72973 22.026 7.03079 21.6335L19.0424 5.97645C19.2062 5.76302 19.4161 5.64908 19.6842 5.62808L26.2989 5.11002C26.9797 5.05677 27.69 5.09602 28.2515 5.52677C28.73 5.89389 28.9931 6.40895 29.1597 7.3047L30.3727 13.8279C30.4219 14.0924 30.3662 14.3246 30.2025 14.5381V14.5381ZM26.9189 7.26377C26.132 6.66014 25.0006 6.80914 24.3969 7.59608C23.7931 8.38302 23.9422 9.51445 24.7291 10.1182C25.5064 10.7145 26.6559 10.562 27.2512 9.78589C27.8549 8.99895 27.7059 7.86752 26.9189 7.26377V7.26377ZM26.4579 9.1772C26.193 9.52233 25.6825 9.58927 25.3379 9.32477C24.9927 9.05989 24.9256 8.54977 25.1903 8.20477C25.3474 7.99995 25.5849 7.89245 25.825 7.89245C26.4698 7.89252 26.8546 8.66002 26.4579 9.1772ZM26.131 13.5411L24.5056 15.6605C24.3384 15.8794 24.0254 15.9214 23.8064 15.7542L19.4895 12.4435C19.2706 12.2763 19.2286 11.9633 19.3958 11.7443C19.563 11.5253 19.876 11.4833 20.095 11.6505L24.0169 14.6583L25.338 12.9356C25.5052 12.7166 25.8183 12.6746 26.0373 12.8418C26.2563 13.009 26.2982 13.3221 26.131 13.5411ZM16.6065 22.9441C16.6065 22.9441 14.4098 21.2593 14.4091 21.2588C13.6302 20.6615 12.4363 20.8188 11.8375 21.5996L11.0247 22.6593C10.8575 22.8782 10.8995 23.1913 11.1185 23.3585L15.4353 26.6692C15.6542 26.8364 15.9674 26.7944 16.1345 26.5755C16.1345 26.5755 16.9464 25.517 16.9473 25.5158C17.5409 24.7418 17.3764 23.5345 16.6065 22.9441ZM16.1544 24.9103L15.6459 25.5733L12.1207 22.8697C12.1207 22.8697 12.6305 22.205 12.6305 22.205C12.9044 21.8479 13.442 21.7743 13.8037 22.0518C13.8037 22.0518 16.001 23.7369 16.0012 23.737C16.3583 24.011 16.4319 24.5483 16.1544 24.9103ZM20.4626 20.9321L18.8372 23.0515C18.67 23.2705 18.3569 23.3125 18.1379 23.1453L13.8211 19.8346C13.6022 19.6674 13.5602 19.3543 13.7274 19.1353L15.3528 17.016C15.52 16.797 15.833 16.755 16.052 16.9222C16.271 17.0894 16.313 17.4025 16.1458 17.6215L14.8233 19.3458L16.19 20.394L17.037 19.2896C17.2042 19.0706 17.5173 19.0286 17.7363 19.1958C17.9552 19.363 17.9972 19.6761 17.83 19.8951L16.9817 21.0012L18.3485 22.0494L19.6697 20.3267C19.8369 20.1078 20.1499 20.0658 20.3689 20.233C20.5879 20.4001 20.6298 20.7131 20.4626 20.9321V20.9321ZM23.3195 16.2208L17.9406 14.2948L17.9402 14.2961C17.7944 14.2442 17.6265 14.2607 17.4894 14.3553C17.2629 14.5117 17.206 14.8222 17.3625 15.0487L20.6173 19.7442C20.7737 19.9707 21.0842 20.0276 21.3107 19.8711C21.5372 19.7148 21.594 19.4043 21.4376 19.1778L20.6586 18.0539L21.6961 16.7011L22.9835 17.1621C23.2435 17.2548 23.5294 17.1193 23.6222 16.8593C23.715 16.5995 23.5795 16.3135 23.3195 16.2208ZM20.0617 17.1928L19.0688 15.7604L20.7097 16.348L20.0617 17.1928Z" fill="black"/>
</svg>
