<svg xmlns="http://www.w3.org/2000/svg" xmlns:xlink="http://www.w3.org/1999/xlink" width="32" height="32" viewBox="0 0 32 32">
  <defs>
    <clipPath id="clip-path">
      <rect id="Rectangle_12600" data-name="Rectangle 12600" width="28" height="27.719"/>
    </clipPath>
  </defs>
  <g id="Group_37666" data-name="Group 37666" transform="translate(10187 1859)">
    <rect id="Rectangle_12544" data-name="Rectangle 12544" width="32" height="32" transform="translate(-10187 -1859)" opacity="0"/>
    <g id="Group_37720" data-name="Group 37720" transform="translate(-10185 -1857)">
      <g id="Group_37720-2" data-name="Group 37720" clip-path="url(#clip-path)">
        <path id="Path_105651" data-name="Path 105651" d="M19.8,14.389a4.879,4.879,0,0,1-6.01,0,4.782,4.782,0,0,1-2.977,1.035A4.851,4.851,0,0,1,7.8,14.388a4.977,4.977,0,0,1-4.039.951c-.007.125-.018.225-.018.324q0,3.087,0,6.173a3.185,3.185,0,0,0,3.332,3.319h4.659a2.41,2.41,0,0,1,.314.012.713.713,0,0,1,.675.745.7.7,0,0,1-.718.7c-1.828,0-3.662.06-5.484-.051a4.541,4.541,0,0,1-4.223-4.6q-.009-3.43,0-6.859a.526.526,0,0,0-.258-.5A4.61,4.61,0,0,1,.006,10.862,4.94,4.94,0,0,1,.257,9.07C1,6.743,1.729,4.409,2.459,2.077A2.574,2.574,0,0,1,5.229,0q8.731-.012,17.462,0a4.774,4.774,0,0,1,.851.087,2.4,2.4,0,0,1,1.972,1.8c.779,2.606,1.536,5.218,2.323,7.821a3.868,3.868,0,0,1-.235,2.806,4.878,4.878,0,0,1-3.973,2.846,4.858,4.858,0,0,1-3.829-.977m-.093-2.154c.253.272.453.5.668.717a3.815,3.815,0,0,0,5.2-.035,2.771,2.771,0,0,0,.805-2.966c-.116-.352-.207-.712-.312-1.068Q25.1,5.6,24.133,2.317a1.04,1.04,0,0,0-1.049-.842c-.2-.014-.4-.025-.6-.025q-8.559,0-17.118,0c-.19,0-.381.011-.57.03a.857.857,0,0,0-.7.437,3.011,3.011,0,0,0-.25.573C3.1,4.857,2.375,7.229,1.62,9.593a3.364,3.364,0,0,0-.126,1.573A3.054,3.054,0,0,0,3.748,13.81a3.17,3.17,0,0,0,3.486-.929c.163-.181.314-.372.489-.582a4.064,4.064,0,0,0,3.021,1.672A3.35,3.35,0,0,0,13.7,12.277a4.048,4.048,0,0,0,3.027,1.694,3.309,3.309,0,0,0,2.978-1.737" transform="translate(0 0)"/>
        <path id="Path_105652" data-name="Path 105652" d="M201.533,206.029c.232.606.44,1.123.626,1.648a.228.228,0,0,0,.264.183c.3-.008.59,0,.886,0a.731.731,0,0,1,.808.73.741.741,0,0,1-.818.726c-.352,0-.7,0-1.013,0l-.741,1.834c.229.216.528.481.806.766a.721.721,0,0,1-.589,1.222,1,1,0,0,1-.469-.236c-.275-.248-.52-.528-.724-.739-.6.23-1.151.433-1.692.653a.28.28,0,0,0-.114.214c-.013.3,0,.609-.007.914a.736.736,0,1,1-1.464,0c-.005-.3.007-.61-.008-.914a.27.27,0,0,0-.134-.2c-.538-.206-1.081-.4-1.758-.64-.158.181-.385.463-.637.721a.734.734,0,0,1-1.108.069.753.753,0,0,1,.074-1.093l.7-.718c-.215-.564-.421-1.12-.643-1.669-.024-.058-.145-.1-.223-.107-.314-.012-.629,0-.943-.008a.723.723,0,1,1,.005-1.443c.361-.007.723,0,1.1,0,.094-.3.167-.608.282-.895s.273-.563.463-.948c-.259-.232-.566-.487-.849-.766a.68.68,0,0,1-.153-.791.608.608,0,0,1,.586-.427,1.164,1.164,0,0,1,.612.227,10.01,10.01,0,0,1,.808.772c.287-.151.556-.316.843-.439s.591-.2.908-.308c0-.354,0-.715,0-1.076a.724.724,0,1,1,1.441.011c0,.351,0,.7,0,1l1.871.753c.19-.2.43-.471.684-.725a.726.726,0,0,1,1.086-.06.718.718,0,0,1-.055,1.086c-.247.25-.507.487-.708.678m-6.386,2.588a2.836,2.836,0,0,0,5.671-.011,2.836,2.836,0,1,0-5.671.011" transform="translate(-177.199 -187.028)"/>
      </g>
    </g>
  </g>
</svg>
