<svg width="32" height="32" viewBox="0 0 32 32" fill="none" xmlns="http://www.w3.org/2000/svg">
<g clip-path="url(#clip0_21_613)">
<path d="M13.8666 27.7331C16.6278 27.7365 19.3263 26.9108 21.6128 25.363L27.5018 31.2323C28.1978 31.9356 29.2294 32.1891 30.172 31.8882C31.1146 31.5873 31.8087 30.7831 31.9684 29.8066C32.1282 28.8302 31.7266 27.8467 30.929 27.2611L24.6202 22.6088C28.7033 17.5793 28.7577 10.3923 24.7511 5.30164C20.7446 0.210957 13.7461 -1.42521 7.89786 1.36155C2.04966 4.14831 -1.08794 10.6145 0.342129 16.9329C1.7722 23.2513 7.38841 27.7362 13.8666 27.7331ZM30.2976 28.1208C30.6639 28.3893 30.8945 28.8046 30.9287 29.2575C30.9628 29.7105 30.7971 30.1557 30.4752 30.476C29.852 31.0653 28.877 31.0653 28.2538 30.476L22.48 24.7219C22.9866 24.319 23.4649 23.8817 23.9114 23.4131L30.2976 28.1208ZM13.8666 1.06644C20.9359 1.06644 26.6666 6.7972 26.6666 13.8664C26.6666 20.9357 20.9359 26.6664 13.8666 26.6664C6.79739 26.6664 1.06664 20.9357 1.06664 13.8664C1.07487 6.80061 6.8008 1.07467 13.8666 1.06644Z" fill="black"/>
<path d="M6.9333 10.2589V17.4739C6.93332 18.0284 7.22049 18.5434 7.69224 18.8349C8.164 19.1264 8.75306 19.1529 9.24903 18.9048L11.7333 17.6627L15.7616 19.6797V19.6755C15.8354 19.713 15.9171 19.7328 16 19.7331C16.0825 19.734 16.1641 19.7157 16.2384 19.6797L19.9184 17.8408C20.4614 17.57 20.8033 17.014 20.8 16.4072V9.19226C20.7999 8.63771 20.5128 8.12271 20.041 7.8312C19.5693 7.5397 18.9802 7.51326 18.4842 7.76133L16 9.00346L11.9717 6.98906V6.99279C11.8226 6.91715 11.6467 6.91577 11.4965 6.98906L7.8165 8.82799C7.27366 9.0979 6.93123 9.65269 6.9333 10.2589V10.2589ZM16.5333 9.92933L18.9616 8.71546C19.1268 8.63287 19.3231 8.64171 19.4803 8.73882C19.6375 8.83594 19.7332 9.00749 19.7333 9.19226V16.4072C19.7341 16.6094 19.6196 16.7944 19.4384 16.884L16.5333 18.3368V9.92933ZM12.2666 8.32933L15.4666 9.92933V18.3368L12.2666 16.7368V8.32933ZM7.99996 10.2589C7.99919 10.0567 8.11362 9.87172 8.2949 9.78213L11.2 8.32933L11.2 16.7368L8.7717 17.9507C8.60642 18.0333 8.41016 18.0244 8.25297 17.9273C8.09579 17.8302 8.00006 17.6586 7.99996 17.4739V10.2589Z" fill="black"/>
<path d="M13.8666 25.6C20.3468 25.6 25.6 20.3468 25.6 13.8666C25.6 7.38649 20.3468 2.1333 13.8666 2.1333C13.5721 2.1333 13.3333 2.37208 13.3333 2.66663C13.3333 2.96119 13.5721 3.19997 13.8666 3.19997C19.4408 3.20223 24.0726 7.4974 24.4946 13.0555C24.9167 18.6137 20.9866 23.559 15.4767 24.4029C9.9668 25.2468 4.73665 21.7046 3.47575 16.2749C2.21485 10.8453 5.34871 5.36066 10.6666 3.6901C10.9476 3.60174 11.1038 3.3023 11.0154 3.0213C10.9271 2.7403 10.6276 2.58414 10.3466 2.6725C4.81877 4.40878 1.38595 9.92014 2.26521 15.6472C3.14446 21.3742 8.0725 25.6019 13.8666 25.6V25.6Z" fill="black"/>
</g>
<defs>
<clipPath id="clip0_21_613">
<rect width="32" height="32" fill="white"/>
</clipPath>
</defs>
</svg>
