<svg id="Group_37721" data-name="Group 37721" xmlns="http://www.w3.org/2000/svg" xmlns:xlink="http://www.w3.org/1999/xlink" width="21.604" height="28" viewBox="0 0 21.604 28">
  <defs>
    <clipPath id="clip-path">
      <rect id="Rectangle_12600" data-name="Rectangle 12600" width="21.603" height="28" stroke="#fff" stroke-width="0.5"/>
    </clipPath>
  </defs>
  <g id="Group_37720" data-name="Group 37720" clip-path="url(#clip-path)">
    <path id="Path_105651" data-name="Path 105651" d="M4.045,14.39V9.351c-.2-.023-.4-.034-.594-.071a2.081,2.081,0,0,1-1.714-2q-.03-2.642,0-5.284A2.077,2.077,0,0,1,3.269.052,1.316,1.316,0,0,1,3.62.017C5.426.015,7.234.052,9.039,0a2.122,2.122,0,0,1,2.009,1.745,3.958,3.958,0,0,1,.04.545q0,2.341,0,4.682A2.159,2.159,0,0,1,8.851,9.329a.647.647,0,0,0-.09.02v.692a2.393,2.393,0,0,1,2.566.856,2.429,2.429,0,0,1,1.686-.232,2.4,2.4,0,0,1,1.421.977,2.378,2.378,0,0,1,1.681-.183,2.322,2.322,0,0,1,1.731,2.031c.01.1.02.2.02.3-.01,2.135.038,4.273-.048,6.406a14.514,14.514,0,0,1-2.447,7.415.807.807,0,0,1-.713.387c-3.065,0-6.131.006-9.2-.011a.974.974,0,0,1-.626-.271,13.23,13.23,0,0,1-3.714-6.781C.829,19.415.43,17.916.077,16.408a2.025,2.025,0,0,1,1.9-2.652,2.551,2.551,0,0,1,2.072.634M5.7,13.249q0,3.107,0,6.214c0,.091,0,.183,0,.274a.816.816,0,0,1-.949.814.856.856,0,0,1-.76-.746q-.433-1.849-.865-3.7c-.144-.612-.394-.786-1.011-.713-.442.052-.54.187-.442.614.38,1.661.768,3.319,1.14,4.982A11.624,11.624,0,0,0,5.7,26.247a.421.421,0,0,0,.285.1q4.022.008,8.044,0a.4.4,0,0,0,.293-.169,12.847,12.847,0,0,0,1.758-5.02,19.837,19.837,0,0,0,.139-2.237c.02-1.7.009-3.394.006-5.091,0-.5-.277-.8-.7-.8s-.7.312-.7.8c0,.365,0,.73,0,1.095a.829.829,0,1,1-1.642.01c0-.648,0-1.3,0-1.944a.7.7,0,0,0-.489-.711.688.688,0,0,0-.9.673c-.019.5,0,1-.011,1.505a.815.815,0,0,1-.907.834.825.825,0,0,1-.729-.877c-.007-.684,0-1.369,0-2.053a.7.7,0,1,0-1.391-.054c-.01.684,0,1.369-.005,2.053a.819.819,0,0,1-1.014.819A.833.833,0,0,1,7.1,14.3q0-3.682,0-7.364c0-.1,0-.2,0-.3a.7.7,0,0,0-.688-.65.691.691,0,0,0-.692.611,2.486,2.486,0,0,0-.016.355q0,3.148,0,6.3M4.085,7.67c0-.435-.032-.855.006-1.269A2.317,2.317,0,0,1,6.3,4.346a2.345,2.345,0,0,1,2.448,2.3c.008.342,0,.685,0,1.024.5.021.7-.154.7-.591q.006-2.436,0-4.873a.526.526,0,0,0-.6-.6q-2.435,0-4.871,0c-.422,0-.6.177-.6.6q0,2.436,0,4.873c0,.449.19.618.716.593" transform="translate(0 0)" stroke="#fff" stroke-width="0.5"/>
    <path id="Path_105652" data-name="Path 105652" d="M227.414.027c.875,0,1.754.045,2.625-.013a2.085,2.085,0,0,1,2,1.718,3.774,3.774,0,0,1,.044.571q.005,2.354,0,4.707a2.163,2.163,0,0,1-2.318,2.328q-2.38,0-4.76,0a2.139,2.139,0,0,1-2.283-2.271q0-2.449,0-4.9A2.117,2.117,0,0,1,224.143.1a1.328,1.328,0,0,1,.426-.073c.948-.006,1.9,0,2.845,0m-3.047,4.614q0,1.2,0,2.407c0,.479.165.647.635.647q2.406,0,4.812,0c.448,0,.63-.181.63-.631q0-2.407,0-4.814c0-.452-.182-.633-.629-.634q-2.42,0-4.84,0c-.436,0-.608.175-.609.618,0,.8,0,1.6,0,2.407" transform="translate(-210.484 -0.011)" stroke="#fff" stroke-width="0.5"/>
  </g>
</svg>
