<svg width="32" height="32" viewBox="0 0 32 32" fill="none" xmlns="http://www.w3.org/2000/svg">
<path d="M31.61 31.5L30.518 26.041C31.168 24.366 31.5 22.6065 31.5 20.8075V16.8285C31.5 14.944 30.7875 13.1725 29.5 11.808V4.5C29.5 3.9485 29.0515 3.5 28.5 3.5H17.5C16.9485 3.5 16.5 3.9485 16.5 4.5V16.2805C15.897 15.7705 15.2235 15.3625 14.5 15.067V14.5C14.5 13.397 13.603 12.5 12.5 12.5H8.5C7.397 12.5 6.5 13.397 6.5 14.5V15.054C3.9945 16.0715 2.1575 18.401 1.872 21.2535L1.5475 24.5H1.5C0.9485 24.5 0.5 24.9485 0.5 25.5C0.5 27.1545 1.8455 28.5 3.5 28.5H17.5C19.1545 28.5 20.5 27.1545 20.5 25.5C20.5 24.9485 20.0515 24.5 19.5 24.5H19.4525L19.128 21.254C19.0675 20.6515 18.9325 20.065 18.733 19.5H22.187C22.0625 20.0645 22 20.641 22 21.222C22 22.462 22.293 23.7045 22.848 24.814L23.476 26.0705L22.39 31.5H31.61ZM23.61 30.5L24.41 26.5H29.59L30.39 30.5H23.61ZM27.5 4.5H28.5V18.5H27.5V4.5ZM20.5 4.5V18.5H19.5V4.5H20.5ZM17.5 4.5H18.5V18.5H17.5V4.5ZM7.5 14.5C7.5 13.9485 7.9485 13.5 8.5 13.5H12.5C13.0515 13.5 13.5 13.9485 13.5 14.5V14.736C12.9055 14.586 12.2915 14.5 11.665 14.5H9.335C8.7015 14.5 8.0885 14.585 7.5 14.732V14.5ZM17.5 27.5H3.5C2.397 27.5 1.5 26.603 1.5 25.5H19.5C19.5 26.603 18.603 27.5 17.5 27.5ZM18.133 21.3535L18.4475 24.5H2.5525L2.867 21.3535C3.201 18.0165 5.9815 15.5 9.335 15.5H11.665C13.517 15.5 15.266 16.291 16.5 17.6655V18.5C16.5 19.0515 16.9485 19.5 17.5 19.5H17.66C17.906 20.09 18.0685 20.711 18.133 21.3535V21.3535ZM22.4715 18.5H21.5V4.5H26.5V15.19C26.095 14.192 25.1305 13.5 24 13.5C23.4485 13.5 23 13.9485 23 14.5V15.1065C23 16.247 22.8265 17.375 22.4715 18.5ZM23.3755 18.9545C23.79 17.7115 24 16.4165 24 15.1065V14.5C24.882 14.5 25.6135 15.162 25.7015 16.04L25.9125 18.1495C25.9895 18.9195 26.6315 19.5 27.405 19.5H28.5C29.0515 19.5 29.5 19.0515 29.5 18.5V13.4185C30.1485 14.4275 30.5 15.6005 30.5 16.8285V20.8075C30.5 22.418 30.2125 23.994 29.653 25.5H24.309L23.7425 24.3665C23.2565 23.3955 23 22.308 23 21.222C23 20.4655 23.1215 19.7175 23.3755 18.9545V18.9545Z" fill="black"/>
<path d="M25.5 5.5H22.5V8.5H25.5V5.5ZM24.5 7.5H23.5V6.5H24.5V7.5Z" fill="black"/>
<path d="M23.5 9.5H24.5V12.5H23.5V9.5Z" fill="black"/>
<path d="M11.236 4.5C11.898 4.5 12.493 4.1325 12.7885 3.5405L12.947 3.2235L12.0525 2.776L11.894 3.093C11.769 3.344 11.5165 3.5 11.236 3.5C10.8305 3.5 10.5 3.17 10.5 2.764C10.5 2.067 11.067 1.5 11.764 1.5H12C12.827 1.5 13.5 2.173 13.5 3V3.171C13.5 4.16 13.0275 5.1045 12.2365 5.698C11.7755 6.0435 11.5 6.594 11.5 7.171C11.5 7.873 11.89 8.5045 12.518 8.818L12.973 9.0455C13.298 9.208 13.5 9.5345 13.5 9.898C13.5 10.153 13.401 10.392 13.2215 10.572L13.147 10.646L13.853 11.354L13.928 11.2795C14.297 10.9105 14.5 10.42 14.5 9.898C14.5 9.154 14.0865 8.485 13.4205 8.151L12.965 7.9235C12.678 7.78 12.5 7.4915 12.5 7.171C12.5 6.9075 12.6255 6.656 12.8365 6.4975C13.878 5.7165 14.5 4.4725 14.5 3.171V3C14.5 1.6215 13.3785 0.5 12 0.5H11.764C10.5155 0.5 9.5 1.5155 9.5 2.764C9.5 3.721 10.279 4.5 11.236 4.5V4.5Z" fill="black"/>
<path d="M4.0125 6.0655L4.882 6.5C5.263 6.6905 5.5 7.0735 5.5 7.5C5.5 7.9265 5.263 8.3095 4.882 8.5L4.496 8.6935C3.8815 9 3.5 9.617 3.5 10.3035C3.5 10.907 3.8 11.4675 4.302 11.802L5.223 12.416L5.7775 11.584L4.8565 10.97C4.6335 10.8215 4.5 10.5725 4.5 10.3035C4.5 9.9985 4.6695 9.724 4.9425 9.5875L5.3285 9.394C6.0515 9.0335 6.5 8.3075 6.5 7.5C6.5 6.6925 6.0515 5.9665 5.329 5.6055L4.4595 5.171C3.8675 4.875 3.5 4.28 3.5 3.578C3.5 3.0595 3.7475 2.564 4.1625 2.253C4.81 1.7675 5.6125 1.5 6.422 1.5H7V0.5H6.422C5.3975 0.5 4.382 0.8385 3.5625 1.453C2.897 1.952 2.5 2.7465 2.5 3.618C2.5 4.661 3.0795 5.5985 4.0125 6.0655V6.0655Z" fill="black"/>
<path d="M6.843 3.13773L7.2235 2.94723L6.776 2.05273L6.396 2.24323C5.8435 2.51923 5.5 3.07423 5.5 3.69273C5.5 4.39123 5.9455 5.00973 6.608 5.22973L7.342 5.47423L7.6585 4.52623L6.9245 4.28123C6.6705 4.19673 6.5 3.96023 6.5 3.69273C6.5 3.45573 6.6315 3.24323 6.843 3.13773V3.13773Z" fill="black"/>
<path d="M9.5 6.95238C9.5 7.17138 9.4145 7.37838 9.2595 7.53338L8.3535 8.43938C7.811 8.98188 7.5 9.73288 7.5 10.4999H8.5C8.5 9.99588 8.7045 9.50288 9.0605 9.14638L9.9665 8.24038C10.3105 7.89638 10.5 7.43888 10.5 6.95238C10.5 6.16738 9.9995 5.47288 9.2545 5.22438L8.658 5.02588L8.342 5.97388L8.938 6.17238C9.274 6.28488 9.5 6.59838 9.5 6.95238V6.95238Z" fill="black"/>
<path d="M10.1465 11.1465L10.8535 11.8535L11 11.707C11.3225 11.384 11.5 10.9555 11.5 10.5C11.5 10.0445 11.3225 9.61548 11 9.29298L10.8535 9.14648L10.1465 9.85349L10.2925 9.99998C10.4265 10.134 10.5 10.311 10.5 10.5C10.5 10.689 10.4265 10.866 10.293 11L10.1465 11.1465Z" fill="black"/>
</svg>
