<svg width="32" height="32" viewBox="0 0 32 32" fill="none" xmlns="http://www.w3.org/2000/svg">
<path d="M25.5312 23.8701C25.7901 23.8701 26 23.6603 26 23.4014C26 23.1425 25.7901 22.9326 25.5312 22.9326C25.2724 22.9326 25.0625 23.1425 25.0625 23.4014C25.0625 23.6603 25.2724 23.8701 25.5312 23.8701Z" fill="black"/>
<path d="M27.1875 23.8701C27.4464 23.8701 27.6562 23.6603 27.6562 23.4014C27.6562 23.1425 27.4464 22.9326 27.1875 22.9326C26.9286 22.9326 26.7188 23.1425 26.7188 23.4014C26.7188 23.6603 26.9286 23.8701 27.1875 23.8701Z" fill="black"/>
<path d="M28.8438 23.8701C29.1026 23.8701 29.3125 23.6603 29.3125 23.4014C29.3125 23.1425 29.1026 22.9326 28.8438 22.9326C28.5849 22.9326 28.375 23.1425 28.375 23.4014C28.375 23.6603 28.5849 23.8701 28.8438 23.8701Z" fill="black"/>
<path d="M30.3672 3.71H23.6573C21.8665 1.45144 19.0997 0 16 0C12.9003 0 10.1335 1.45144 8.34262 3.71H1.63281C0.857375 3.71 0.226562 4.34081 0.226562 5.11625V24.0029C0.226562 24.9507 0.997563 25.7217 1.94531 25.7217H11.9431V28.4685H4.88888C4.45806 28.4685 4.10763 28.8189 4.10763 29.2498V31.2188C4.10763 31.6496 4.45806 32 4.88888 32H27.1111C27.5419 32 27.8923 31.6496 27.8923 31.2188V29.2498C27.8923 28.8189 27.5419 28.4685 27.1111 28.4685H24.6875C24.4286 28.4685 24.2188 28.6784 24.2188 28.9373C24.2188 29.1961 24.4286 29.406 24.6875 29.406H26.9548V31.0625H5.04513V29.406H22.5C22.7589 29.406 22.9688 29.1961 22.9688 28.9373C22.9688 28.6784 22.7589 28.4685 22.5 28.4685H20.0569V25.7217H30.0547C31.0024 25.7217 31.7734 24.9507 31.7734 24.0029V5.11625C31.7734 4.34088 31.1426 3.71 30.3672 3.71V3.71ZM23.9095 5.84375C24.4332 6.89481 24.7539 8.064 24.8188 9.29994H21.0765C21.0476 8.09231 20.906 6.925 20.6639 5.84375H23.9095ZM19.4367 14.6312C18.7689 16.7382 17.69 18.2318 16.4688 18.5403V14.6312H19.4367ZM16.4688 13.6937V10.2375H20.1384C20.1066 11.4662 19.9501 12.6373 19.6966 13.6937H16.4688ZM19.6821 16.5531C19.9721 15.9686 20.2196 15.3226 20.4228 14.6312H23.3682C22.2502 16.3197 20.5681 17.6036 18.5925 18.2114C18.9903 17.7641 19.3567 17.2089 19.6821 16.5531V16.5531ZM20.6639 13.6937C20.906 12.6124 21.0476 11.4451 21.0765 10.2375H24.8188C24.7538 11.4734 24.4331 12.6426 23.9094 13.6937H20.6639ZM23.3682 4.90625H20.4228C20.2196 4.21481 19.972 3.56888 19.6821 2.98431C19.3567 2.3285 18.9903 1.77331 18.5926 1.326C20.5682 1.93394 22.2502 3.21775 23.3682 4.90625ZM16.4688 0.997187C17.6901 1.30569 18.7689 2.79931 19.4367 4.90625H16.4688V0.997187ZM16 6.84375C16.2589 6.84375 16.4688 6.63388 16.4688 6.375V5.84375H19.6966C19.9502 6.90013 20.1066 8.07125 20.1384 9.29994H16.4688V8.625C16.4688 8.36612 16.2589 8.15625 16 8.15625C15.7411 8.15625 15.5312 8.36612 15.5312 8.625V9.3H11.8616C11.8934 8.07131 12.0499 6.90012 12.3034 5.84381H15.5312V6.37506C15.5312 6.63387 15.7411 6.84375 16 6.84375V6.84375ZM11.5772 14.6312C11.7804 15.3226 12.0279 15.9686 12.3179 16.5531C12.6433 17.2089 13.0097 17.7641 13.4074 18.2114C11.4318 17.6036 9.74981 16.3197 8.63175 14.6312H11.5772ZM8.0905 13.6937C7.56681 12.6426 7.24619 11.4735 7.18119 10.2375H10.9236C10.9525 11.4451 11.0941 12.6124 11.3361 13.6937H8.0905ZM12.5633 14.6312H15.5312V18.5403C14.3099 18.2317 13.2311 16.7382 12.5633 14.6312ZM12.3034 13.6937C12.0498 12.6373 11.8934 11.4662 11.8616 10.2375H15.5312V13.6937H12.3034ZM15.5312 0.997187V4.90625H12.5633C13.2311 2.79931 14.31 1.30569 15.5312 0.997187ZM13.4074 1.32606C13.0096 1.77331 12.6433 2.32856 12.3179 2.98438C12.028 3.56894 11.7804 4.21487 11.5772 4.90631H8.63175C9.74981 3.21775 11.4318 1.93394 13.4074 1.32606V1.32606ZM11.3361 5.84375C11.0941 6.925 10.9525 8.09237 10.9236 9.29994H7.18125C7.24619 8.06394 7.56688 6.89481 8.09056 5.84375H11.3361ZM19.1194 28.4685H12.8806V25.7217H19.1194V28.4685ZM30.8359 21.2351H9.56244C9.30356 21.2351 9.09369 21.4449 9.09369 21.7038C9.09369 21.9627 9.30356 22.1726 9.56244 22.1726H30.8359V24.0029C30.8359 24.4337 30.4855 24.7842 30.0547 24.7842H1.94531C1.5145 24.7842 1.16406 24.4337 1.16406 24.0029V22.1726H7.375C7.63388 22.1726 7.84375 21.9627 7.84375 21.7038C7.84375 21.4449 7.63388 21.2351 7.375 21.2351H1.16406V5.11625C1.16406 4.85775 1.37431 4.6475 1.63281 4.6475H7.68475C6.76369 6.13756 6.23125 7.892 6.23125 9.76875C6.23125 15.1553 10.6135 19.5375 16 19.5375C21.3865 19.5375 25.7687 15.1553 25.7687 9.76875C25.7687 7.89206 25.2363 6.13756 24.3153 4.64756H30.3672C30.6257 4.64756 30.8359 4.85781 30.8359 5.11631V21.2351Z" fill="black"/>
<path d="M6.13281 18.6875H3.13281C2.87394 18.6875 2.66406 18.8974 2.66406 19.1562C2.66406 19.4151 2.87394 19.625 3.13281 19.625H6.13281C6.39169 19.625 6.60156 19.4151 6.60156 19.1562C6.60156 18.8974 6.39169 18.6875 6.13281 18.6875Z" fill="black"/>
<path d="M3.13281 18H4.25781C4.51669 18 4.72656 17.7901 4.72656 17.5312C4.72656 17.2724 4.51669 17.0625 4.25781 17.0625H3.13281C2.87394 17.0625 2.66406 17.2724 2.66406 17.5312C2.66406 17.7901 2.87394 18 3.13281 18Z" fill="black"/>
<path d="M28.8828 18.6875H27.6328C27.3739 18.6875 27.1641 18.8974 27.1641 19.1562C27.1641 19.4151 27.3739 19.625 27.6328 19.625H28.8828C29.1418 19.625 29.3516 19.4151 29.3516 19.1562C29.3516 18.8974 29.1418 18.6875 28.8828 18.6875Z" fill="black"/>
<path d="M28.8828 17.0625H27.6328C27.3739 17.0625 27.1641 17.2724 27.1641 17.5312C27.1641 17.7901 27.3739 18 27.6328 18H28.8828C29.1418 18 29.3516 17.7901 29.3516 17.5312C29.3516 17.2724 29.1418 17.0625 28.8828 17.0625Z" fill="black"/>
<path d="M28.8828 15.4375H27.6328C27.3739 15.4375 27.1641 15.6474 27.1641 15.9062C27.1641 16.1651 27.3739 16.375 27.6328 16.375H28.8828C29.1418 16.375 29.3516 16.1651 29.3516 15.9062C29.3516 15.6474 29.1418 15.4375 28.8828 15.4375Z" fill="black"/>
</svg>
