<svg width="32" height="32" viewBox="0 0 32 32" fill="none" xmlns="http://www.w3.org/2000/svg">
<path d="M22 1H12C11.3372 1.00074 10.7017 1.26438 10.2331 1.73306C9.76438 2.20173 9.50074 2.83719 9.5 3.5V5C8.17392 5 6.90215 5.52678 5.96447 6.46447C5.02678 7.40215 4.5 8.67392 4.5 10C4.5 11.3261 5.02678 12.5979 5.96447 13.5355C6.90215 14.4732 8.17392 15 9.5 15V24.5C9.50074 25.1628 9.76438 25.7983 10.2331 26.2669C10.7017 26.7356 11.3372 26.9993 12 27H18.9886L19 27.0199V30.5C19 30.6326 19.0527 30.7598 19.1464 30.8536C19.2402 30.9473 19.3674 31 19.5 31H27C27.1326 31 27.2598 30.9473 27.3536 30.8536C27.4473 30.7598 27.5 30.6326 27.5 30.5V27.1063L28.4699 24.4391C28.4898 24.3843 28.5 24.3265 28.5 24.2682V18C28.5 17.76 28.4425 17.5235 28.3321 17.3104C28.2218 17.0973 28.062 16.9137 27.8661 16.7752C27.6701 16.6366 27.4438 16.5471 27.2061 16.5141C26.9684 16.4812 26.7263 16.5057 26.5 16.5857V16.5C26.5002 16.26 26.4427 16.0234 26.3324 15.8102C26.2222 15.597 26.0623 15.4135 25.8663 15.2749C25.6703 15.1364 25.4439 15.0469 25.2061 15.0141C24.9684 14.9813 24.7262 15.006 24.5 15.0863V3.5C24.4993 2.83719 24.2356 2.20173 23.7669 1.73306C23.2983 1.26438 22.6628 1.00074 22 1V1ZM12 2H22C22.3101 2.0004 22.6124 2.09673 22.8656 2.27576C23.1187 2.4548 23.3103 2.70778 23.414 3H10.586C10.6897 2.70778 10.8813 2.4548 11.1344 2.27576C11.3876 2.09673 11.6899 2.0004 12 2ZM10.5 4H23.5V14.5863C23.1766 14.4714 22.8235 14.4712 22.5 14.5857V7.5C22.5 7.36739 22.4473 7.24021 22.3536 7.14645C22.2598 7.05268 22.1326 7 22 7H13.4972C12.7634 6.02231 11.6974 5.34676 10.5 5.10063V4ZM20 9H18C17.8674 9 17.7402 9.05268 17.6464 9.14645C17.5527 9.24021 17.5 9.36739 17.5 9.5V11.5C17.5 11.6326 17.5527 11.7598 17.6464 11.8536C17.7402 11.9473 17.8674 12 18 12H19.586C19.529 12.1605 19.4999 12.3296 19.5 12.5V13H18C17.8674 13 17.7402 13.0527 17.6464 13.1464C17.5527 13.2402 17.5 13.3674 17.5 13.5V15.5C17.5 15.6326 17.5527 15.7598 17.6464 15.8536C17.7402 15.9473 17.8674 16 18 16H19.5V18.3119C19.3283 18.3432 19.1606 18.3935 19 18.4619V17.5C19 17.3674 18.9473 17.2402 18.8536 17.1464C18.7598 17.0527 18.6326 17 18.5 17H15.5C15.3674 17 15.2402 17.0527 15.1464 17.1464C15.0527 17.2402 15 17.3674 15 17.5V20H12.5V13.9972C13.1898 13.4783 13.7343 12.7904 14.0813 12H16C16.1326 12 16.2598 11.9473 16.3536 11.8536C16.4473 11.7598 16.5 11.6326 16.5 11.5V9.5C16.5 9.36739 16.4473 9.24021 16.3536 9.14645C16.2598 9.05268 16.1326 9 16 9H14.3994C14.329 8.65634 14.2224 8.32113 14.0813 8H21.5V11.086C21.1765 10.9713 20.8235 10.9713 20.5 11.086V9.5C20.5 9.36739 20.4473 9.24021 20.3536 9.14645C20.2598 9.05268 20.1326 9 20 9ZM19.5 10V11H18.5V10H19.5ZM19.5 14V15H18.5V14H19.5ZM18 18V19.3207C17.8656 19.5324 17.7594 19.7608 17.6841 20H16V18H18ZM14.5 11V10H15.5V11H14.5ZM9.5 14C8.70887 14 7.93552 13.7654 7.27772 13.3259C6.61992 12.8864 6.10723 12.2616 5.80448 11.5307C5.50173 10.7998 5.42252 9.99556 5.57686 9.21964C5.7312 8.44371 6.11216 7.73098 6.67157 7.17157C7.23098 6.61216 7.94371 6.2312 8.71964 6.07686C9.49556 5.92252 10.2998 6.00173 11.0307 6.30448C11.7616 6.60723 12.3864 7.11992 12.8259 7.77772C13.2654 8.43552 13.5 9.20887 13.5 10C13.4988 11.0605 13.077 12.0772 12.3271 12.8271C11.5772 13.577 10.5605 13.9988 9.5 14V14ZM10.5 14.8994C10.8437 14.829 11.1789 14.7224 11.5 14.5813V20.5C11.5 20.6326 11.5527 20.7598 11.6464 20.8536C11.7402 20.9473 11.8674 21 12 21H17.5076C17.5028 21.0879 17.5 21.1771 17.5 21.2679V24H10.5V14.8994ZM12 26C11.6899 25.9996 11.3876 25.9033 11.1344 25.7242C10.8813 25.5452 10.6897 25.2922 10.586 25H17.8431L18.4158 26H12ZM25 16C25.1326 16.0001 25.2597 16.0529 25.3534 16.1466C25.4471 16.2403 25.4999 16.3674 25.5 16.5V21C25.5 21.1326 25.5527 21.2598 25.6464 21.3536C25.7402 21.4473 25.8674 21.5 26 21.5C26.1326 21.5 26.2598 21.4473 26.3536 21.3536C26.4473 21.2598 26.5 21.1326 26.5 21V18C26.5 17.8674 26.5527 17.7402 26.6464 17.6464C26.7402 17.5527 26.8674 17.5 27 17.5C27.1326 17.5 27.2598 17.5527 27.3536 17.6464C27.4473 17.7402 27.5 17.8674 27.5 18V24.1798L26.5301 26.847C26.5102 26.9018 26.5 26.9596 26.5 27.0179V30H20V26.8869C20 26.7997 19.9772 26.7141 19.9339 26.6384L18.5 24.1348V21.2679C18.5 20.7508 18.6089 19.6449 19.5 19.345V21C19.5 21.1326 19.5527 21.2598 19.6464 21.3536C19.7402 21.4473 19.8674 21.5 20 21.5C20.1326 21.5 20.2598 21.4473 20.3536 21.3536C20.4473 21.2598 20.5 21.1326 20.5 21V19C20.4999 18.9609 20.4951 18.9219 20.4859 18.8839C20.4951 18.8459 20.4999 18.807 20.5 18.7679V12.5C20.5 12.3674 20.5527 12.2402 20.6464 12.1464C20.7402 12.0527 20.8674 12 21 12C21.1326 12 21.2598 12.0527 21.3536 12.1464C21.4473 12.2402 21.5 12.3674 21.5 12.5V19.3155C21.5 19.4481 21.5527 19.5753 21.6464 19.6691C21.7402 19.7628 21.8674 19.8155 22 19.8155C22.1326 19.8155 22.2598 19.7628 22.3536 19.6691C22.4473 19.5753 22.5 19.4481 22.5 19.3155V16C22.5 15.8674 22.5527 15.7402 22.6464 15.6464C22.7402 15.5527 22.8674 15.5 23 15.5C23.1326 15.5 23.2598 15.5527 23.3536 15.6464C23.4473 15.7402 23.5 15.8674 23.5 16V20C23.5 20.1326 23.5527 20.2598 23.6464 20.3536C23.7402 20.4473 23.8674 20.5 24 20.5C24.1326 20.5 24.2598 20.4473 24.3536 20.3536C24.4473 20.2598 24.5 20.1326 24.5 20V16.5C24.5001 16.3674 24.5529 16.2403 24.6466 16.1466C24.7403 16.0529 24.8674 16.0001 25 16Z" fill="black"/>
<path d="M16 13H14C13.8674 13 13.7402 13.0527 13.6464 13.1464C13.5527 13.2402 13.5 13.3674 13.5 13.5V15.5C13.5 15.6326 13.5527 15.7598 13.6464 15.8536C13.7402 15.9473 13.8674 16 14 16H16C16.1326 16 16.2598 15.9473 16.3536 15.8536C16.4473 15.7598 16.5 15.6326 16.5 15.5V13.5C16.5 13.3674 16.4473 13.2402 16.3536 13.1464C16.2598 13.0527 16.1326 13 16 13ZM15.5 15H14.5V14H15.5V15Z" fill="black"/>
<path d="M11.1465 8.14645L8.50001 10.793L7.85358 10.1465C7.7598 10.0527 7.63262 10 7.50001 10C7.3674 10 7.24022 10.0527 7.14645 10.1465C7.05268 10.2402 7 10.3674 7 10.5C7 10.6326 7.05268 10.7598 7.14645 10.8536L8.14645 11.8536C8.19288 11.9 8.248 11.9368 8.30866 11.962C8.36933 11.9871 8.43435 12 8.50001 12C8.56568 12 8.6307 11.9871 8.69136 11.962C8.75203 11.9368 8.80715 11.9 8.85358 11.8536L11.8536 8.85358C11.9473 8.7598 12 8.63262 12 8.50001C12 8.3674 11.9473 8.24022 11.8536 8.14645C11.7598 8.05268 11.6326 8 11.5 8C11.3674 8 11.2402 8.05268 11.1465 8.14645V8.14645Z" fill="black"/>
<path d="M16 6H22C22.1326 6 22.2598 5.94732 22.3536 5.85355C22.4473 5.75979 22.5 5.63261 22.5 5.5C22.5 5.36739 22.4473 5.24021 22.3536 5.14645C22.2598 5.05268 22.1326 5 22 5H16C15.8674 5 15.7402 5.05268 15.6464 5.14645C15.5527 5.24021 15.5 5.36739 15.5 5.5C15.5 5.63261 15.5527 5.75979 15.6464 5.85355C15.7402 5.94732 15.8674 6 16 6Z" fill="black"/>
<path d="M14 6C14.2761 6 14.5 5.77614 14.5 5.5C14.5 5.22386 14.2761 5 14 5C13.7239 5 13.5 5.22386 13.5 5.5C13.5 5.77614 13.7239 6 14 6Z" fill="black"/>
<path d="M14 22H12C11.8674 22 11.7402 22.0527 11.6464 22.1464C11.5527 22.2402 11.5 22.3674 11.5 22.5C11.5 22.6326 11.5527 22.7598 11.6464 22.8536C11.7402 22.9473 11.8674 23 12 23H14C14.1326 23 14.2598 22.9473 14.3536 22.8536C14.4473 22.7598 14.5 22.6326 14.5 22.5C14.5 22.3674 14.4473 22.2402 14.3536 22.1464C14.2598 22.0527 14.1326 22 14 22Z" fill="black"/>
</svg>
