<svg width="32" height="32" viewBox="0 0 32 32" fill="none" xmlns="http://www.w3.org/2000/svg">
<g clip-path="url(#clip0_21_657)">
<path d="M2.58059 27.8794H16V26.847H2.58059C1.72548 26.847 1.03221 26.1537 1.03221 25.2986V2.58889C1.03221 1.73353 1.72548 1.04051 2.58059 1.04051H25.2903C26.1458 1.04051 26.8387 1.73353 26.8387 2.58889V14.4598H27.8711V2.58889C27.8695 1.16432 26.715 0.00998253 25.2903 0.00830078H2.58059C1.15627 0.00998253 0.00181112 1.16432 0 2.58889V25.2986C0.00181112 26.7232 1.15627 27.8775 2.58059 27.8794Z" fill="black"/>
<path d="M2.0647 2.07275H3.09678V3.10484H2.0647V2.07275Z" fill="black"/>
<path d="M4.12903 2.07275H5.1615V3.10484H4.12903V2.07275Z" fill="black"/>
<path d="M6.19348 2.07275H7.22582V3.10484H6.19348V2.07275Z" fill="black"/>
<path d="M2.0647 4.13721H25.8065V5.16968H2.0647V4.13721Z" fill="black"/>
<path d="M7.37706 6.35303L6.06606 7.66402C4.95791 6.93039 3.47396 7.15548 2.63295 8.18472C1.79207 9.21383 1.86749 10.7129 2.8072 11.6525C3.74679 12.5925 5.24601 12.6679 6.27525 11.8269C7.30435 10.986 7.52958 9.5018 6.79582 8.39391L8.10668 7.08291L7.37706 6.35303ZM4.64498 11.363C3.79 11.363 3.09672 10.6698 3.09672 9.81473C3.09672 8.95949 3.79 8.26648 4.64498 8.26648C4.87525 8.26726 5.10177 8.32004 5.30837 8.42107L4.28029 9.44927L5.00992 10.1792L6.03877 9.1516C6.1398 9.35807 6.19271 9.58459 6.19349 9.81473C6.19349 10.6698 5.50047 11.363 4.64498 11.363Z" fill="black"/>
<path d="M8.77429 8.2666H17.5483V9.29868H8.77429V8.2666Z" fill="black"/>
<path d="M8.77429 10.3311H12.3871V11.3631H8.77429V10.3311Z" fill="black"/>
<path d="M13.4194 10.3311H20.645V11.3631H13.4194V10.3311Z" fill="black"/>
<path d="M18.5806 8.2666H23.7419V9.29868H18.5806V8.2666Z" fill="black"/>
<path d="M7.37706 12.5464L6.06606 13.8574C4.95791 13.1237 3.47396 13.3488 2.63295 14.3781C1.79207 15.4073 1.86749 16.9063 2.8072 17.8461C3.74679 18.7858 5.24601 18.8613 6.27525 18.0203C7.30435 17.1792 7.52958 15.6955 6.79582 14.5873L8.10668 13.2763L7.37706 12.5464ZM4.64498 17.5565C3.79 17.5565 3.09672 16.8632 3.09672 16.0081C3.09672 15.1529 3.79 14.4596 4.64498 14.4596C4.87525 14.4605 5.10177 14.5134 5.30837 14.6144L4.28029 15.6429L5.00992 16.3725L6.03877 15.3448C6.1398 15.5514 6.19271 15.778 6.19349 16.0081C6.19349 16.8632 5.50047 17.5565 4.64498 17.5565Z" fill="black"/>
<path d="M8.77429 14.46H17.5483V15.4923H8.77429V14.46Z" fill="black"/>
<path d="M8.77429 16.5244H12.3871V17.5566H8.77429V16.5244Z" fill="black"/>
<path d="M13.4194 16.5244H17.5483V17.5566H13.4194V16.5244Z" fill="black"/>
<path d="M18.5806 14.46H20.645V15.4923H18.5806V14.46Z" fill="black"/>
<path d="M7.37706 18.7402L6.06606 20.0512C4.95791 19.3176 3.47396 19.5427 2.63295 20.5719C1.79207 21.6012 1.86749 23.1001 2.8072 24.04C3.74679 24.9798 5.24601 25.055 6.27525 24.2141C7.30435 23.3731 7.52958 21.8893 6.79582 20.781L8.10668 19.4701L7.37706 18.7402ZM4.64498 23.7503C3.79 23.7503 3.09672 23.057 3.09672 22.2019C3.09672 21.3467 3.79 20.6536 4.64498 20.6536C4.87525 20.6543 5.10177 20.7071 5.30837 20.8083L4.28029 21.8367L5.00992 22.5664L6.03877 21.5387C6.1398 21.7453 6.19271 21.9719 6.19349 22.2019C6.19349 23.057 5.50047 23.7503 4.64498 23.7503Z" fill="black"/>
<path d="M8.77429 20.6533H15.4839V21.6858H8.77429V20.6533Z" fill="black"/>
<path d="M8.77429 22.7178H12.3871V23.75H8.77429V22.7178Z" fill="black"/>
<path d="M13.4194 22.7178H15.4839V23.75H13.4194V22.7178Z" fill="black"/>
<path d="M24.2582 30.9763C28.5341 30.9763 31.9999 27.5098 31.9999 23.2342C31.9999 18.9583 28.5341 15.4922 24.2582 15.4922C19.9822 15.4922 16.5161 18.9583 16.5161 23.2342C16.5212 27.5078 19.9843 30.9711 24.2582 30.9763ZM24.2582 16.5245C27.9636 16.5245 30.9679 19.5285 30.9679 23.2342C30.9679 26.9399 27.9636 29.9438 24.2582 29.9438C20.5523 29.9438 17.5482 26.9399 17.5482 23.2342C17.5526 19.5303 20.554 16.5287 24.2582 16.5245Z" fill="black"/>
<path d="M21.1098 23.5195L20.1859 23.9808L21.2183 26.0453C21.2923 26.1939 21.4335 26.2977 21.5974 26.3243C21.6241 26.3284 21.6507 26.3306 21.6775 26.331C21.8142 26.331 21.9456 26.2765 22.0426 26.1798L28.2358 19.9862L27.5062 19.2563L21.8188 24.9435L21.1098 23.5195Z" fill="black"/>
</g>
<defs>
<clipPath id="clip0_21_657">
<rect width="32" height="32" fill="white"/>
</clipPath>
</defs>
</svg>
