<svg xmlns="http://www.w3.org/2000/svg" width="60" height="53.234" viewBox="0 0 60 53.234">
  <g id="Group_37982" data-name="Group 37982" transform="translate(-0.001 0)">
    <path id="Path_105850" data-name="Path 105850" d="M78.657,283.648a.882.882,0,0,0-.878.887v14.137h-18.1V281.89a2.062,2.062,0,0,0-2.049-2.07H47.489a2.062,2.062,0,0,0-2.049,2.07v16.782h-18.1V284.535a.878.878,0,1,0-1.756,0v14.551a1.355,1.355,0,0,0,1.346,1.36H78.189a1.355,1.355,0,0,0,1.346-1.36V284.535a.882.882,0,0,0-.878-.887ZM47.2,298.672V281.89a.3.3,0,0,1,.293-.3H57.632a.3.3,0,0,1,.293.3v16.782Zm0,0" transform="translate(-22.56 -247.212)"/>
    <path id="Path_105851" data-name="Path 105851" d="M347.362,309.308a1.89,1.89,0,0,0,1.888-1.888v-9.677a1.89,1.89,0,0,0-1.888-1.888H336.388a1.89,1.89,0,0,0-1.888,1.888v9.677a1.89,1.89,0,0,0,1.888,1.888Zm-11.089-1.888v-9.677a.114.114,0,0,1,.115-.114h10.974a.114.114,0,0,1,.115.114v9.677a.115.115,0,0,1-.115.115H336.388A.115.115,0,0,1,336.273,307.42Zm0,0" transform="translate(-295.486 -261.351)"/>
    <path id="Path_105852" data-name="Path 105852" d="M65.608,309.308A1.89,1.89,0,0,0,67.5,307.42v-9.677a1.89,1.89,0,0,0-1.888-1.888H54.634a1.89,1.89,0,0,0-1.888,1.888v9.677a1.89,1.89,0,0,0,1.888,1.888ZM54.519,307.42v-9.677a.114.114,0,0,1,.115-.114H65.608a.114.114,0,0,1,.115.114v9.677a.115.115,0,0,1-.115.115H54.634A.115.115,0,0,1,54.519,307.42Zm0,0" transform="translate(-46.509 -261.351)"/>
    <path id="Path_105853" data-name="Path 105853" d="M57.418,13.073a1.712,1.712,0,0,1,1.7-1.718A.883.883,0,0,0,60,10.468V8.3a.883.883,0,0,0-.879-.887H44.613a.887.887,0,0,0,0,1.774h13.63V9.7a3.49,3.49,0,0,0-2.47,2.49H41.946V4.314A4.3,4.3,0,0,0,37.67,0H22.332a4.3,4.3,0,0,0-4.276,4.315v3.1H.879A.883.883,0,0,0,0,8.3v2.17a.883.883,0,0,0,.879.887,1.712,1.712,0,0,1,1.7,1.718.888.888,0,0,0,.42.757v6.057H1.421a1.356,1.356,0,0,0-1.348,1.36v4.829a1.356,1.356,0,0,0,1.348,1.36H3v6.824a.879.879,0,1,0,1.758,0V27.434H55.313v6.825a.879.879,0,1,0,1.758,0V27.434h1.582A1.356,1.356,0,0,0,60,26.074V21.246a1.356,1.356,0,0,0-1.348-1.36H57.071V13.779a.889.889,0,0,0,.347-.706ZM19.813,4.314a2.533,2.533,0,0,1,2.519-2.541H37.669a2.533,2.533,0,0,1,2.519,2.541V13.99a2.533,2.533,0,0,1-2.519,2.541H22.332a2.533,2.533,0,0,1-2.519-2.541V4.314Zm38.43,21.346H1.831v-4H58.243ZM4.761,19.886V13.96H15.419a.887.887,0,0,0,0-1.774H4.228A3.49,3.49,0,0,0,1.758,9.7v-.51h16.3v4.8A4.3,4.3,0,0,0,22.331,18.3H37.67a4.3,4.3,0,0,0,4.276-4.315v-.03H55.313v5.926Zm0,0"/>
    <path id="Path_105854" data-name="Path 105854" d="M215.1,359.543h-.709a.887.887,0,1,0,0,1.773h.709a.887.887,0,1,0,0-1.773Zm0,0" transform="translate(-188.49 -317.422)"/>
    <path id="Path_105855" data-name="Path 105855" d="M195.667,31.707h1.087l1.115,5.33a2.252,2.252,0,0,0,2.194,1.783h5.266a2.253,2.253,0,0,0,2.1-1.45l1.739-4.6a1.426,1.426,0,0,0-1.333-1.93h-7.447a.887.887,0,1,0,0,1.774h6.944l-1.561,4.133a.471.471,0,0,1-.438.3h-5.266a.471.471,0,0,1-.458-.372l-1.12-5.351a1.755,1.755,0,0,0-1.711-1.39h-1.107a.887.887,0,0,0,0,1.774Zm0,0" transform="translate(-172.019 -26.395)"/>
    <path id="Path_105856" data-name="Path 105856" d="M232.373,111.383h-.236a.887.887,0,0,0,0,1.774h.236a.887.887,0,1,0,0-1.774Zm0,0" transform="translate(-204.158 -98.335)"/>
    <path id="Path_105857" data-name="Path 105857" d="M264.873,111.383h-.237a.887.887,0,0,0,0,1.774h.237a.887.887,0,0,0,0-1.774Zm0,0" transform="translate(-232.851 -98.335)"/>
  </g>
</svg>
