<svg xmlns="http://www.w3.org/2000/svg" width="31.998" height="32" viewBox="0 0 31.998 32">
  <g id="Group_37959" data-name="Group 37959" transform="translate(0 -0.001)">
    <g id="Page-1" transform="translate(0 0.001)">
      <g id="_083---Money-Bag" data-name="083---Money-Bag">
        <path id="Shape" d="M20.662,30.652a.547.547,0,1,0,1.095,0c0-1.81-1.675-3.307-3.831-3.527v-.578a.547.547,0,1,0-1.095,0v.578C14.675,27.344,13,28.842,13,30.652s1.675,3.307,3.831,3.527V39.1c-1.55-.2-2.736-1.208-2.736-2.426a.547.547,0,0,0-1.095,0c0,1.81,1.675,3.307,3.831,3.527v.578a.547.547,0,1,0,1.095,0V40.2c2.156-.219,3.831-1.716,3.831-3.527s-1.675-3.307-3.831-3.527V28.226C19.476,28.422,20.662,29.434,20.662,30.652Zm-6.568,0c0-1.218,1.186-2.23,2.736-2.426v4.851C15.281,32.882,14.095,31.87,14.095,30.652Zm6.568,6.02c0,1.218-1.186,2.23-2.736,2.426V34.247C19.476,34.443,20.662,35.455,20.662,36.672Z" transform="translate(-6.133 -12.61)"/>
        <path id="Shape-2" data-name="Shape" d="M1.97,30.131a.547.547,0,0,0-.727.266A13.354,13.354,0,0,0,0,36.056c0,6.9,3.867,10.4,11.493,10.4a17.7,17.7,0,0,0,4.574-.527.547.547,0,1,0-.281-1.058,16.874,16.874,0,0,1-4.292.49c-7,0-10.4-3.044-10.4-9.3a12.1,12.1,0,0,1,1.142-5.2A.547.547,0,0,0,1.97,30.131Z" transform="translate(0 -14.457)"/>
        <path id="Shape-3" data-name="Shape" d="M45.682,25H33.642A1.642,1.642,0,0,0,32,26.642V42.514a1.642,1.642,0,0,0,1.642,1.642H45.682a1.642,1.642,0,0,0,1.642-1.642V26.642A1.642,1.642,0,0,0,45.682,25Zm.547,17.514a.547.547,0,0,1-.547.547H33.642a.547.547,0,0,1-.547-.547V26.642a.547.547,0,0,1,.547-.547H45.682a.547.547,0,0,1,.547.547Z" transform="translate(-15.326 -12.158)"/>
        <path id="Shape-4" data-name="Shape" d="M38.095,34.378h7.662a1.1,1.1,0,0,0,1.095-1.095V31.095A1.1,1.1,0,0,0,45.757,30H38.095A1.1,1.1,0,0,0,37,31.095v2.189A1.1,1.1,0,0,0,38.095,34.378Zm0-3.284h7.662v2.189H38.095Z" transform="translate(-17.589 -14.066)"/>
        <path id="Shape-5" data-name="Shape" d="M39.189,41H37.547a.547.547,0,0,0,0,1.095h1.642a.547.547,0,1,0,0-1.095Z" transform="translate(-17.315 -19.155)"/>
        <path id="Shape-6" data-name="Shape" d="M39.189,45H37.547a.547.547,0,0,0,0,1.095h1.642a.547.547,0,1,0,0-1.095Z" transform="translate(-17.315 -21.023)"/>
        <path id="Shape-7" data-name="Shape" d="M39.189,49H37.547a.547.547,0,0,0,0,1.095h1.642a.547.547,0,1,0,0-1.095Z" transform="translate(-17.315 -23.022)"/>
        <path id="Shape-8" data-name="Shape" d="M39.189,53H37.547a.547.547,0,0,0,0,1.095h1.642a.547.547,0,1,0,0-1.095Z" transform="translate(-17.315 -24.833)"/>
        <path id="Shape-9" data-name="Shape" d="M46.189,41H44.547a.547.547,0,1,0,0,1.095h1.642a.547.547,0,1,0,0-1.095Z" transform="translate(-20.59 -19.155)"/>
        <path id="Shape-10" data-name="Shape" d="M46.189,45H44.547a.547.547,0,1,0,0,1.095h1.642a.547.547,0,1,0,0-1.095Z" transform="translate(-20.59 -21.023)"/>
        <path id="Shape-11" data-name="Shape" d="M46.189,49H44.547a.547.547,0,1,0,0,1.095h1.642a.547.547,0,1,0,0-1.095Z" transform="translate(-20.59 -23.022)"/>
        <path id="Shape-12" data-name="Shape" d="M46.189,53H44.547a.547.547,0,1,0,0,1.095h1.642a.547.547,0,1,0,0-1.095Z" transform="translate(-20.59 -24.833)"/>
        <path id="Shape-13" data-name="Shape" d="M53.189,41H51.547a.547.547,0,0,0,0,1.095h1.642a.547.547,0,1,0,0-1.095Z" transform="translate(-23.927 -19.155)"/>
        <path id="Shape-14" data-name="Shape" d="M53.189,45H51.547a.547.547,0,0,0,0,1.095h1.642a.547.547,0,1,0,0-1.095Z" transform="translate(-23.927 -21.023)"/>
        <path id="Shape-15" data-name="Shape" d="M53.189,49H51.547a.547.547,0,0,0,0,1.095h1.642a.547.547,0,1,0,0-1.095Z" transform="translate(-23.927 -23.022)"/>
        <path id="Shape-16" data-name="Shape" d="M53.189,53H51.547a.547.547,0,0,0,0,1.095h1.642a.547.547,0,1,0,0-1.095Z" transform="translate(-23.927 -24.833)"/>
        <path id="Shape-17" data-name="Shape" d="M5.843.692C4.4,2.012,6.934,6.084,8.426,8.21h-.3a1.906,1.906,0,0,0-1.356.559,1.929,1.929,0,0,0-.56,1.356,1.91,1.91,0,0,0,.96,1.65,25.777,25.777,0,0,0-1.8,2.126.547.547,0,1,0,.876.657,26.449,26.449,0,0,1,2.189-2.518H19.621a1.916,1.916,0,0,0,0-3.831h-.3c1.491-2.126,4.023-6.2,2.583-7.518-.662-.606-1.434-.164-2.114.223a4.221,4.221,0,0,1-2.087.728,2.12,2.12,0,0,1-1.56-.69,3.186,3.186,0,0,0-4.543,0,2.12,2.12,0,0,1-1.563.69A4.2,4.2,0,0,1,7.954.914C7.275.526,6.5.086,5.843.692ZM20.2,9.544a.821.821,0,0,1-.582,1.4H8.128a.821.821,0,1,1,0-1.642H19.621a.826.826,0,0,1,.582.24ZM10.04,2.737a3.186,3.186,0,0,0,2.272-.953,2.109,2.109,0,0,1,3.12,0,3.188,3.188,0,0,0,2.275.953,5.244,5.244,0,0,0,2.632-.872,2.289,2.289,0,0,1,.831-.366c.562.514-.923,3.617-3.192,6.712H16.611V5.473a.547.547,0,1,0-1.095,0V8.21H12.233V5.473a.547.547,0,0,0-1.095,0V8.21H9.774C7.5,5.115,6.021,2.013,6.59,1.49a2.717,2.717,0,0,1,.821.374,5.233,5.233,0,0,0,2.629.872Z" transform="translate(-2.381 -0.001)"/>
      </g>
    </g>
  </g>
</svg>
