<svg xmlns="http://www.w3.org/2000/svg" xmlns:xlink="http://www.w3.org/1999/xlink" width="32" height="32" viewBox="0 0 32 32">
  <defs>
    <clipPath id="clip-path">
      <rect id="Rectangle_12620" data-name="Rectangle 12620" width="28" height="27.985"/>
    </clipPath>
  </defs>
  <g id="Group_37673" data-name="Group 37673" transform="translate(10187 1859)">
    <rect id="Rectangle_12544" data-name="Rectangle 12544" width="32" height="32" transform="translate(-10187 -1859)" opacity="0"/>
    <g id="Group_37724" data-name="Group 37724" transform="translate(-10185 -1856.993)">
      <g id="Group_37724-2" data-name="Group 37724" clip-path="url(#clip-path)">
        <path id="Path_105658" data-name="Path 105658" d="M5.195,0c.029.032.075.059.085.1a1.246,1.246,0,0,1,.1.474c-.028.189-.208.254-.4.253q-1.148,0-2.3,0A1.724,1.724,0,0,0,.82,2.7q0,3.116,0,6.232a1.713,1.713,0,0,0,1.838,1.846c.446,0,.893.01,1.339,0a.633.633,0,0,1,.577.288c.463.632.936,1.256,1.406,1.883.058.078.121.153.2.253.4-.535.783-1.053,1.175-1.563.8-1.043.4-.851,1.709-.853,5.394-.008,10.788-.018,16.182.009a1.833,1.833,0,0,0,1.933-1.941c-.036-2.049-.009-4.1-.011-6.15A1.727,1.727,0,0,0,25.3.822H7.506c-.073,0-.146,0-.219,0-.214.006-.434.013-.536-.228A.489.489,0,0,1,6.944,0H25.809c.146.043.293.083.437.13a2.493,2.493,0,0,1,1.735,2.32c.021,2.232.028,4.465,0,6.7A2.5,2.5,0,0,1,25.362,11.6q-5.823.005-11.646,0c-1.686,0-3.372,0-5.057,0a.445.445,0,0,0-.406.2c-.551.748-1.11,1.49-1.669,2.232-.268.357-.546.357-.813,0-.564-.75-1.12-1.506-1.693-2.248a.53.53,0,0,0-.353-.177c-.491-.024-.987.019-1.475-.027A2.518,2.518,0,0,1,.059,9.613C.043,9.543.02,9.474,0,9.4V2.187c.019-.06.041-.118.056-.179A2.526,2.526,0,0,1,1.748.128C1.891.077,2.041.042,2.187,0Z"/>
        <path id="Path_105659" data-name="Path 105659" d="M0,220.341c.1-.451.174-.912.317-1.35a6.133,6.133,0,1,1-.268,2.681,1.32,1.32,0,0,0-.05-.182v-1.148m4.575,1.282c-1.136-1.371-1.208-2.674-.218-3.693a2.477,2.477,0,0,1,3.306-.238,2.4,2.4,0,0,1,.916,1.476,2.516,2.516,0,0,1-.883,2.448,4.279,4.279,0,0,1,2.481,2.756,5.317,5.317,0,0,0-8-7.007,5.249,5.249,0,0,0-.062,6.985,4.234,4.234,0,0,1,2.457-2.725m1.594,4.624A5.375,5.375,0,0,0,9.3,225.214a.3.3,0,0,0,.155-.337,3.367,3.367,0,0,0-6.6-.065.355.355,0,0,0,.163.411,5.426,5.426,0,0,0,3.156,1.023m-1.689-6.591a1.666,1.666,0,1,0,1.664-1.665,1.667,1.667,0,0,0-1.664,1.665" transform="translate(0 -199.071)"/>
        <path id="Path_105660" data-name="Path 105660" d="M197.727,225.484c-1.85,0-3.7-.013-5.55,0a1.414,1.414,0,0,1-1.335-2.014,1.236,1.236,0,0,1,1.072-.813,4.089,4.089,0,0,1,.437-.02q5.386,0,10.771,0a2.639,2.639,0,0,1,.65.061,1.364,1.364,0,0,1,.96,1.5,1.293,1.293,0,0,1-1.209,1.261c-.618.032-1.239.017-1.858.018q-1.968,0-3.937,0m-.021-.82h5.408a2.84,2.84,0,0,0,.327-.012.527.527,0,0,0,.485-.474c.069-.452-.192-.716-.721-.716q-5.476,0-10.953,0a1.992,1.992,0,0,0-.245.017.513.513,0,0,0-.458.407c-.128.45.146.776.666.777q2.745,0,5.49,0" transform="translate(-176.795 -206.377)"/>
        <path id="Path_105661" data-name="Path 105661" d="M198.548,336.369c1.85,0,3.7.012,5.549,0a1.416,1.416,0,0,1,1.334,2.017,1.241,1.241,0,0,1-1.1.816c-.1.009-.2.014-.3.014q-3.786,0-7.572,0c-.4,0-.564-.137-.547-.438a.357.357,0,0,1,.33-.371,2.176,2.176,0,0,1,.3-.011H203.9a2.915,2.915,0,0,0,.355-.014.547.547,0,0,0,.5-.583.555.555,0,0,0-.489-.592,1.279,1.279,0,0,0-.191-.013q-5.522,0-11.044,0c-.407,0-.6.138-.674.459a.564.564,0,0,0,.525.73c.445.022.893.006,1.339.014.3.006.447.14.454.395a.36.36,0,0,1-.373.413c-.546.009-1.1.025-1.638-.02a1.292,1.292,0,0,1-1.115-1.343,1.338,1.338,0,0,1,1.076-1.437,3.168,3.168,0,0,1,.49-.031q2.72,0,5.44,0" transform="translate(-177.55 -311.794)"/>
        <path id="Path_105662" data-name="Path 105662" d="M198.067,282.373c-1.841,0-3.682-.017-5.522.006a1.423,1.423,0,0,1-1.321-2.079,1.231,1.231,0,0,1,1.032-.749,3.749,3.749,0,0,1,.409-.02h8.064a2.146,2.146,0,0,1,.246.007.375.375,0,0,1,.372.418.366.366,0,0,1-.372.389c-.1.007-.2.006-.3.006H192.72a2.214,2.214,0,0,0-.408.026.6.6,0,0,0,.014,1.155,1.9,1.9,0,0,0,.327.02q5.44,0,10.88,0c.3,0,.588-.025.719-.365a.586.586,0,0,0-.507-.83c-.226-.018-.456,0-.683-.012-.277-.013-.414-.15-.416-.4a.374.374,0,0,1,.408-.409,6.733,6.733,0,0,1,.873.019,1.32,1.32,0,0,1,1.16,1.417,1.305,1.305,0,0,1-1.2,1.382c-.572.034-1.147.019-1.721.019q-2.05,0-4.1,0" transform="translate(-177.123 -259.11)"/>
        <path id="Path_105663" data-name="Path 105663" d="M255.478,42.323c.07-.415.141-.883.232-1.347a.363.363,0,0,0-.131-.379c-.307-.285-.6-.584-.9-.872a.583.583,0,0,1-.206-.635.574.574,0,0,1,.534-.4c.433-.055.866-.117,1.294-.2a.452.452,0,0,0,.275-.2c.209-.383.4-.778.585-1.171a.568.568,0,0,1,1.07,0c.189.393.377.787.587,1.17a.447.447,0,0,0,.275.2c.447.085.9.145,1.348.211a.549.549,0,0,1,.477.391.528.528,0,0,1-.153.573c-.315.316-.633.629-.96.933a.353.353,0,0,0-.13.377c.091.427.153.859.227,1.29a.564.564,0,0,1-.22.6.552.552,0,0,1-.618.029c-.387-.2-.776-.4-1.156-.614a.385.385,0,0,0-.427,0c-.388.218-.783.427-1.183.621a.557.557,0,0,1-.817-.586m.9-.381c.343-.179.644-.324.931-.491a.711.711,0,0,1,.772,0c.286.163.583.306.923.483-.058-.348-.087-.638-.157-.918a.82.82,0,0,1,.3-.92c.229-.187.433-.406.692-.653-.414-.061-.751-.118-1.091-.159a.683.683,0,0,1-.581-.43c-.141-.31-.3-.611-.472-.958-.161.322-.316.591-.43.875a.8.8,0,0,1-.748.536c-.3.026-.6.084-.908.129.257.267.482.517.726.748a.71.71,0,0,1,.226.714c-.067.327-.115.659-.18,1.043" transform="translate(-235.853 -34.06)"/>
        <path id="Path_105664" data-name="Path 105664" d="M40.714,42.341c.074-.44.162-.914.225-1.392a.447.447,0,0,0-.1-.324c-.3-.317-.62-.615-.935-.919a.565.565,0,0,1-.195-.612.573.573,0,0,1,.528-.4c.433-.056.866-.116,1.294-.2a.486.486,0,0,0,.289-.221c.2-.366.381-.744.561-1.122a.576.576,0,0,1,1.1-.01c.184.386.369.771.574,1.146a.449.449,0,0,0,.272.2c.447.085.9.146,1.348.211a.552.552,0,0,1,.482.386.543.543,0,0,1-.164.6c-.324.32-.659.629-.974.957a.412.412,0,0,0-.1.3c.057.423.135.844.21,1.265a.581.581,0,0,1-.9.658c-.367-.2-.742-.387-1.107-.591a.369.369,0,0,0-.4.012c-.39.216-.783.427-1.183.622a.558.558,0,0,1-.824-.564m3.528-.409c-.062-.369-.105-.682-.17-.991a.744.744,0,0,1,.245-.784c.248-.217.472-.461.735-.722-.391-.057-.722-.112-1.055-.151a.7.7,0,0,1-.6-.445c-.138-.307-.3-.6-.466-.947-.185.371-.345.687-.5,1.005a.615.615,0,0,1-.5.372c-.357.049-.713.107-1.13.17.267.259.49.5.733.707a.757.757,0,0,1,.251.807c-.068.306-.106.619-.166.983.333-.174.622-.307.892-.471a.749.749,0,0,1,.844,0c.27.16.556.292.887.463" transform="translate(-36.779 -34.057)"/>
        <path id="Path_105665" data-name="Path 105665" d="M153.592,39.362a1.586,1.586,0,0,1-.207.332c-.288.3-.586.6-.9.879a.448.448,0,0,0-.144.481c.081.411.141.825.214,1.238a.543.543,0,0,1-.218.578.553.553,0,0,1-.619.028c-.371-.194-.747-.38-1.109-.589a.437.437,0,0,0-.5-.009c-.353.206-.725.38-1.085.575a.572.572,0,0,1-.874-.64c.082-.41.135-.826.218-1.237a.388.388,0,0,0-.137-.406c-.308-.284-.6-.588-.9-.875a.578.578,0,0,1-.2-.637.56.56,0,0,1,.512-.386c.442-.058.884-.122,1.322-.2a.415.415,0,0,0,.256-.187c.207-.384.4-.778.585-1.172a.573.573,0,0,1,1.085,0c.19.393.377.788.584,1.172a.414.414,0,0,0,.257.185c.456.084.918.141,1.376.217a.569.569,0,0,1,.483.658m-4.555,2.578c.338-.177.647-.329.946-.5a.68.68,0,0,1,.723-.006c.3.17.618.324.957.5-.062-.374-.1-.709-.176-1.035a.7.7,0,0,1,.241-.731c.243-.225.47-.468.733-.733-.334-.049-.618-.106-.9-.128a.827.827,0,0,1-.788-.562c-.109-.279-.267-.54-.423-.848-.181.366-.337.674-.486.986a.633.633,0,0,1-.519.389c-.356.047-.71.106-1.084.163.261.269.5.519.741.759a.667.667,0,0,1,.221.662c-.072.346-.118.7-.182,1.084" transform="translate(-136.356 -34.058)"/>
      </g>
    </g>
  </g>
</svg>
