<svg id="Group_37699" data-name="Group 37699" xmlns="http://www.w3.org/2000/svg" xmlns:xlink="http://www.w3.org/1999/xlink" width="30.824" height="32" viewBox="0 0 30.824 32">
  <defs>
    <clipPath id="clip-path">
      <rect id="Rectangle_12580" data-name="Rectangle 12580" width="30.824" height="32" fill="none"/>
    </clipPath>
  </defs>
  <g id="Group_37699-2" data-name="Group 37699" clip-path="url(#clip-path)">
    <path id="Path_105512" data-name="Path 105512" d="M26.984,0a1.508,1.508,0,0,1,.936,1.615c-.026,2.468-.006,4.937-.015,7.406a.361.361,0,0,0,.286.418,2.29,2.29,0,0,1,1.546,2.167c0,.239,0,.477,0,.735a1.216,1.216,0,0,1,1.084,1.225,1.8,1.8,0,0,1-.875,1.687.719.719,0,0,0-.278.36,2.189,2.189,0,0,1-2.028,1.579c-.531.014-1.063-.012-1.594.009A2.247,2.247,0,0,1,23.9,16.081c-.023.008-.05.008-.058.021a2.288,2.288,0,0,1-2.2,1.1c-.488-.024-.979,0-1.468-.007a2.179,2.179,0,0,1-2.1-1.6.64.64,0,0,0-.263-.334,1.87,1.87,0,0,1-.869-1.9,1.238,1.238,0,0,1,1.035-1.01c.021-.357.016-.722.067-1.079A2.287,2.287,0,0,1,20.244,9.3c.5-.015,1,0,1.5,0a2.286,2.286,0,0,1,2,1.076c.039.058.083.114.142.2C24.56,9.316,25.7,9.206,26.94,9.315V6.77H3.128V21.829a.312.312,0,0,0,.448-.2c.346-.722.717-1.433,1.068-2.153a1.522,1.522,0,0,1,1.5-.922q3.187.012,6.375,0a1.521,1.521,0,0,1,1.5.919c.35.72.721,1.43,1.068,2.152a.358.358,0,0,0,.381.235c.885-.009,1.771-.007,2.656,0a1.091,1.091,0,0,1,1.2,1.175q.011,1.25,0,2.5a1.1,1.1,0,0,1-1.164,1.185c-.385.011-.771.009-1.156,0a.339.339,0,0,0-.36.215,2.008,2.008,0,0,1-3.609-.01.322.322,0,0,0-.334-.206q-3,.008-6,0a.344.344,0,0,0-.353.224,1.927,1.927,0,0,1-1.813,1.114A1.915,1.915,0,0,1,2.74,26.945a.357.357,0,0,0-.383-.226c-.385.012-.771.01-1.156,0A1.116,1.116,0,0,1,.007,25.527C0,24.693,0,23.86.008,23.027A1.1,1.1,0,0,1,1.189,21.86c.31,0,.621,0,.974,0v-.423q0-9.953-.01-19.906A1.424,1.424,0,0,1,3.109,0h7.813c.338.266.425.568.181.773a.847.847,0,0,1-.509.16C8.25.943,5.906.939,3.563.94,3.168.94,3.1,1,3.1,1.39q0,2.062,0,4.125c0,.09.013.179.02.267H26.967V5.421q0-1.953,0-3.906c0-.531-.043-.575-.561-.575q-6.577,0-13.155,0c-.268,0-.508-.032-.612-.319s.07-.468.281-.623ZM2.515,25.775c.019-.06.032-.1.043-.136A2.021,2.021,0,0,1,6.5,25.591a.342.342,0,0,0,.259.178c1.947.01,3.895.007,5.842.01.16,0,.225-.046.272-.214a2.009,2.009,0,0,1,1.96-1.535A2.042,2.042,0,0,1,16.8,25.574a.339.339,0,0,0,.239.194c.332.023.666,0,1,.013.262.011.343-.1.339-.35-.012-.729,0-1.458,0-2.187,0-.442,0-.443-.451-.443H1.4c-.062,0-.125,0-.187,0-.168-.011-.256.062-.256.234,0,.833-.006,1.666.009,2.5a.32.32,0,0,0,.211.23c.445.022.891.011,1.343.011m24.174-9.518h.718A1.235,1.235,0,0,0,28.8,14.967a.477.477,0,0,1,.434-.487.744.744,0,0,0,.647-.753c.015-.351-.1-.446-.435-.362a.474.474,0,0,1-.646-.494,1.363,1.363,0,0,0-.008-.341c-.038-.121-.105-.293-.2-.326a3.764,3.764,0,0,0-.989-.24c-.612-.037-1.228-.019-1.842-.006a2.577,2.577,0,0,0-.644.1c-.531.152-.539.173-.548.725-.008.518-.218.686-.707.551-.17-.047-.281-.022-.347.151-.129.339.122.917.476.96.458.056.566.3.6.712a1.187,1.187,0,0,0,1.222,1.1c.291.006.583,0,.874,0M23.3,12.332a3.737,3.737,0,0,0-.959-.326c-.849-.047-1.7-.019-2.554-.016a.933.933,0,0,0-.244.048c-.573.161-.6.191-.608.776-.01.487-.229.656-.7.522-.17-.048-.282-.024-.348.148a.816.816,0,0,0,.532.988c.44.1.481.142.523.59a1.233,1.233,0,0,0,1.3,1.194c.582,0,1.165.01,1.748,0a1.208,1.208,0,0,0,1.154-1,.38.38,0,0,0-.033-.232c-.218-.39-.446-.773-.68-1.177a.377.377,0,0,1-.512-.2.589.589,0,0,1,.031-.484c.176-.272.444-.174.635-.074l.718-.754M8.841,19.5c-.793,0-1.555.045-2.309-.014a1.064,1.064,0,0,0-1.234.768c-.207.536-.5,1.038-.775,1.588H8.841Zm5.3,2.347c-.338-.678-.658-1.3-.962-1.939a.649.649,0,0,0-.661-.412c-.811.012-1.622,0-2.433,0-.089,0-.179.012-.26.017v2.329ZM3.468,26.035a1.067,1.067,0,0,0,1.055,1.087,1.084,1.084,0,0,0,1.086-1.1,1.071,1.071,0,0,0-2.141.009m12.441,0a1.078,1.078,0,1,0-1.062,1.083,1.08,1.08,0,0,0,1.062-1.083m12.81-14.876a1.332,1.332,0,0,0-1.176-.911,16.84,16.84,0,0,0-1.713,0,1.22,1.22,0,0,0-1.129.905,12.244,12.244,0,0,1,4.017.008m-5.674-.005a1.243,1.243,0,0,0-1.145-.91c-.562-.021-1.125-.021-1.687,0a1.243,1.243,0,0,0-1.148.909,12.057,12.057,0,0,1,3.98,0" transform="translate(0)"/>
    <path id="Path_105513" data-name="Path 105513" d="M50.768,223.838c.008-.114.011-.176.016-.238.025-.317.209-.512.477-.5a.482.482,0,0,1,.461.5c.006.083,0,.167,0,.25q0,5.578,0,11.156a1.278,1.278,0,0,1-1.468,1.47H27.352c-.68,0-1.184-.28-1.3-.848a6.314,6.314,0,0,1-.049-1.519c.012-.238.237-.357.489-.332a.43.43,0,0,1,.415.431c.021.311.015.625.007.937-.008.281.12.4.4.393.687-.006,1.375,0,2.062,0H50.218c.521,0,.565-.044.565-.572q0-1.719,0-3.437v-.366h-.372q-2.188,0-4.375,0a1.514,1.514,0,0,1-1.63-1.611q-.009-2.047,0-4.094a1.5,1.5,0,0,1,1.627-1.609q2.187,0,4.375,0h.36m0,.94h-.28q-2.217,0-4.435,0c-.5,0-.7.195-.7.7q0,2.014,0,4.029c0,.514.2.708.727.709q2.2,0,4.4,0c.091,0,.181-.011.287-.018Z" transform="translate(-23.816 -204.468)"/>
    <path id="Path_105514" data-name="Path 105514" d="M49,114.329c0-.276-.007-.535,0-.794a2.3,2.3,0,0,1,2.232-2.248c.53-.016,1.062-.015,1.592,0a2.3,2.3,0,0,1,2.26,2.152c.022.288,0,.58,0,.883a1.236,1.236,0,0,1,1.1,1.241,1.78,1.78,0,0,1-.913,1.694.567.567,0,0,0-.233.288,2.167,2.167,0,0,1-2.166,1.639c-.583.006-1.166.009-1.749,0a2.177,2.177,0,0,1-2.065-1.609.639.639,0,0,0-.271-.331,1.865,1.865,0,0,1-.871-1.807,1.236,1.236,0,0,1,1.082-1.1m3.033,3.912h0c.25,0,.5,0,.749,0A1.225,1.225,0,0,0,54.16,117a.51.51,0,0,1,.485-.541.787.787,0,0,0,.6-.916c-.045-.188-.134-.287-.356-.226-.5.136-.709-.027-.722-.534-.015-.573-.029-.6-.595-.752a2.943,2.943,0,0,0-.677-.088c-.562-.012-1.124-.014-1.686,0a3.068,3.068,0,0,0-.737.106c-.515.144-.52.167-.526.707-.006.524-.217.689-.73.559-.173-.044-.278-.006-.334.172a.806.806,0,0,0,.553.973c.405.082.487.179.513.606a1.217,1.217,0,0,0,1.219,1.174c.291.007.583,0,.874,0m-2-5.1a12.169,12.169,0,0,1,4,0,1.258,1.258,0,0,0-1.176-.912c-.54-.017-1.082-.016-1.622,0a1.308,1.308,0,0,0-1.207.915" transform="translate(-43.904 -101.984)"/>
    <path id="Path_105515" data-name="Path 105515" d="M55.3,23.132c.385,0,.771,0,1.156,0a.468.468,0,1,1,.012.934q-1.171.015-2.343,0a.468.468,0,1,1,.019-.933c.385-.006.771,0,1.156,0" transform="translate(-49.164 -21.199)"/>
    <path id="Path_105516" data-name="Path 105516" d="M55.274,46.491c-.364,0-.729,0-1.093,0-.339-.006-.54-.189-.539-.475s.2-.461.545-.463q1.124-.006,2.249,0a.466.466,0,0,1,.524.453c.007.286-.2.477-.531.483-.385.007-.771,0-1.156,0" transform="translate(-49.163 -41.746)"/>
    <path id="Path_105517" data-name="Path 105517" d="M309.507,176.3h1.622a.74.74,0,0,1-.7.687.844.844,0,0,1-.922-.687" transform="translate(-283.664 -161.581)"/>
    <path id="Path_105518" data-name="Path 105518" d="M301.064,156.076a.438.438,0,0,1-.464.407.452.452,0,0,1-.406-.472.439.439,0,0,1,.471-.4.421.421,0,0,1,.4.465" transform="translate(-275.128 -142.617)"/>
    <path id="Path_105519" data-name="Path 105519" d="M329.935,156.041a.454.454,0,0,1-.438.443.439.439,0,0,1-.436-.438.42.42,0,0,1,.43-.436.441.441,0,0,1,.444.431" transform="translate(-301.587 -142.617)"/>
    <path id="Path_105520" data-name="Path 105520" d="M243.655,176.442a.81.81,0,0,1-.788.681.851.851,0,0,1-.865-.681Z" transform="translate(-221.796 -161.71)"/>
    <path id="Path_105521" data-name="Path 105521" d="M233.586,156.039a.443.443,0,0,1-.419.455.454.454,0,0,1-.454-.426.442.442,0,0,1,.426-.448.422.422,0,0,1,.448.419" transform="translate(-213.282 -142.627)"/>
    <path id="Path_105522" data-name="Path 105522" d="M274.086,256.807c0,.24.011.479,0,.717a.467.467,0,1,1-.933,0c-.015-.245,0-.492,0-.769-.28,0-.517.006-.754,0a.46.46,0,0,1-.491-.454.466.466,0,0,1,.472-.479c.246-.013.494,0,.772,0,0-.263-.007-.489,0-.715.013-.33.211-.542.486-.533s.439.21.455.531c.005.114,0,.229,0,.343s0,.224,0,.372c.235,0,.44,0,.646,0,.386,0,.6.179.6.481s-.209.454-.582.458c-.187,0-.374,0-.561.007a.468.468,0,0,0-.1.044" transform="translate(-249.199 -233.314)"/>
    <path id="Path_105523" data-name="Path 105523" d="M87.365,176.381h1.661a.824.824,0,0,1-.816.688.863.863,0,0,1-.846-.688" transform="translate(-80.07 -161.654)"/>
    <path id="Path_105524" data-name="Path 105524" d="M78.741,156.428a.44.44,0,0,1-.44-.434.418.418,0,0,1,.426-.44.44.44,0,0,1,.448.426.455.455,0,0,1-.434.447" transform="translate(-71.763 -142.566)"/>
    <path id="Path_105525" data-name="Path 105525" d="M107.82,155.984a.44.44,0,0,1-.431.444.455.455,0,0,1-.443-.438.438.438,0,0,1,.438-.435.42.42,0,0,1,.436.429" transform="translate(-98.016 -142.567)"/>
  </g>
</svg>
