<svg xmlns="http://www.w3.org/2000/svg" xmlns:xlink="http://www.w3.org/1999/xlink" width="32" height="32" viewBox="0 0 32 32">
  <defs>
    <clipPath id="clip-path">
      <rect id="Rectangle_12583" data-name="Rectangle 12583" width="28" height="27.994"/>
    </clipPath>
  </defs>
  <g id="Group_37671" data-name="Group 37671" transform="translate(10187 1859)">
    <g id="Rectangle_12544" data-name="Rectangle 12544" transform="translate(-10187 -1859)" stroke="#707070" stroke-width="1" opacity="0">
      <rect width="32" height="32" stroke="none"/>
      <rect x="0.5" y="0.5" width="31" height="31" fill="none"/>
    </g>
    <g id="Group_37702" data-name="Group 37702" transform="translate(-10185 -1856.997)">
      <g id="Group_37702-2" data-name="Group 37702" clip-path="url(#clip-path)">
        <path id="Path_105535" data-name="Path 105535" d="M0,12.7q0-4.56,0-9.12A2.155,2.155,0,0,1,2.313,1.275c.4,0,.8-.015,1.192,0A.545.545,0,0,0,4.1.948,1.737,1.737,0,0,1,5.744,0,1.786,1.786,0,0,1,7.4,1.026a.405.405,0,0,0,.432.254q4.261-.011,8.523,0a.384.384,0,0,0,.408-.241,1.881,1.881,0,0,1,3.362,0,.377.377,0,0,0,.411.24c.457-.011.914-.006,1.371,0A2.147,2.147,0,0,1,24.17,3.541c.006,2,0,3.994,0,5.991s0,3.994,0,5.991a.377.377,0,0,0,.253.4,6.354,6.354,0,1,1-8.47,8.534.443.443,0,0,0-.467-.294q-6.586.012-13.171.005A2.15,2.15,0,0,1,.086,22.559,3.143,3.143,0,0,1,0,21.793Q0,17.247,0,12.7M22.874,7.644H1.282v.312q0,6.944,0,13.889c0,.729.318,1.042,1.059,1.042H15.378a6.4,6.4,0,0,1,7.5-7.518Zm-6.33,13.981a5.08,5.08,0,1,0,5.126-5.086,5.07,5.07,0,0,0-5.126,5.086M1.282,6.341h21.6c0-1.027.013-2.038-.007-3.048a.776.776,0,0,0-.711-.731c-.591-.034-1.185-.009-1.77-.009a8.166,8.166,0,0,1-.111,1.11,1.9,1.9,0,0,1-3.732-.408c-.009-.233,0-.466,0-.694H7.626c0,.245.008.472,0,.7a1.9,1.9,0,0,1-3.774.2c-.04-.291-.037-.589-.055-.907-.593,0-1.178-.024-1.759.008a.827.827,0,0,0-.75.828c-.013.387,0,.775-.005,1.162,0,.593,0,1.186,0,1.794M6.363,2.557c0-.208.006-.417,0-.625a.626.626,0,0,0-.626-.653.609.609,0,0,0-.634.639q-.016.624,0,1.249a.608.608,0,0,0,.634.639.626.626,0,0,0,.627-.653c.007-.2,0-.4,0-.595m12.708-.011h0q0-.312,0-.625c0-.02,0-.04,0-.059a.628.628,0,0,0-1.251-.023c-.023.465-.022.933,0,1.4A.627.627,0,0,0,19.07,3.2c.012-.218,0-.436,0-.654" transform="translate(0 -0.001)"/>
        <path id="Path_105536" data-name="Path 105536" d="M49.8,207.681c.4,0,.794,0,1.191,0a.621.621,0,0,1,.7.692q.01,1.206,0,2.413a.633.633,0,0,1-.7.706q-1.206.014-2.412,0a.645.645,0,0,1-.7-.715q-.013-1.191,0-2.383a.644.644,0,0,1,.723-.714H49.8m.623,1.284H49.181v1.225h1.241Z" transform="translate(-44.067 -191.145)"/>
        <path id="Path_105537" data-name="Path 105537" d="M51.688,129.657c0,.4,0,.795,0,1.192a.632.632,0,0,1-.7.7q-1.206.008-2.413,0a.635.635,0,0,1-.7-.682q-.017-1.221,0-2.443a.641.641,0,0,1,.72-.688q1.192-.006,2.383,0a.633.633,0,0,1,.707.7c0,.02,0,.04,0,.06q0,.581,0,1.162m-1.283-.631H49.171v1.243H50.4Z" transform="translate(-44.057 -117.566)"/>
        <path id="Path_105538" data-name="Path 105538" d="M209.649,127.736c.407,0,.814-.006,1.221,0a.621.621,0,0,1,.675.64q.024,1.266,0,2.532a.62.62,0,0,1-.675.64q-1.236.01-2.472,0a.612.612,0,0,1-.655-.654q-.013-1.251,0-2.5a.613.613,0,0,1,.656-.654c.417-.009.834,0,1.251,0m-.62,2.523h1.221v-1.242h-1.221Z" transform="translate(-191.196 -117.564)"/>
        <path id="Path_105539" data-name="Path 105539" d="M129.745,207.681c.407,0,.814-.007,1.221,0a.621.621,0,0,1,.666.675q.01,1.221,0,2.443a.628.628,0,0,1-.658.689q-1.251.021-2.5,0a.627.627,0,0,1-.652-.695q-.008-1.207,0-2.413a.631.631,0,0,1,.7-.7c.407-.006.814,0,1.221,0m.605,1.289H129.11V210.2h1.241Z" transform="translate(-117.641 -191.145)"/>
        <path id="Path_105540" data-name="Path 105540" d="M127.826,129.61c0-.4-.005-.795,0-1.192a.633.633,0,0,1,.691-.685q1.221-.008,2.443,0a.627.627,0,0,1,.677.668q.011,1.236,0,2.473a.628.628,0,0,1-.675.67q-1.221.01-2.443,0a.64.64,0,0,1-.693-.714c0-.407,0-.814,0-1.222m2.533-.584h-1.242v1.232h1.242Z" transform="translate(-117.647 -117.559)"/>
        <path id="Path_105541" data-name="Path 105541" d="M264.786,233.431a1.838,1.838,0,0,0,.846,2.042,1.588,1.588,0,0,1,.286.3.617.617,0,0,1-.064.837.585.585,0,0,1-.812.044c-.479-.445-.942-.909-1.385-1.391a.806.806,0,0,1-.147-.5c-.015-.774-.01-1.548-.005-2.322,0-.459.25-.734.64-.734s.632.277.639.736c.005.327,0,.655,0,.982" transform="translate(-242.522 -213.265)"/>
      </g>
    </g>
  </g>
</svg>
