<svg xmlns="http://www.w3.org/2000/svg" width="55.226" height="60" viewBox="0 0 55.226 60">
  <g id="Group_37855" data-name="Group 37855" transform="translate(-20.37)">
    <path id="Path_105686" data-name="Path 105686" d="M67.6,38.328a3.9,3.9,0,0,0-3.9-3.9H51.9a16.225,16.225,0,0,0,.017-12.337.923.923,0,0,0-.049-.1,3.681,3.681,0,0,0-6.586.3.941.941,0,0,0-.077.313L44.93,26.56a9.556,9.556,0,0,1-3.452,5.756c-.724.254-2.051,1.154-5.511,4.446v-.1a1.957,1.957,0,0,0-1.955-1.955H24.171a1.957,1.957,0,0,0-1.955,1.955V56.3a1.957,1.957,0,0,0,1.955,1.956h9.841A1.957,1.957,0,0,0,35.967,56.3v-.086a10.753,10.753,0,0,1,5.766,2.837,3.429,3.429,0,0,0,2.4.945H59.393a3.9,3.9,0,0,0,3-6.387,4.15,4.15,0,0,0,2.084-3.436,3.88,3.88,0,0,0-.822-2.392,4.24,4.24,0,0,0,2.13-3.532,3.878,3.878,0,0,0-.728-2.266A3.906,3.906,0,0,0,67.6,38.328ZM34.092,56.3a.083.083,0,0,1-.08.08H24.171a.083.083,0,0,1-.08-.08V36.664a.083.083,0,0,1,.08-.08h9.841a.083.083,0,0,1,.08.08ZM63.705,40.352H60.447a.937.937,0,1,0,0,1.875h1.439a2.027,2.027,0,0,1,2.025,2.025,2.446,2.446,0,0,1-2.112,2.22,3.885,3.885,0,0,0-1.221-.2.937.937,0,1,0,0,1.875,2.016,2.016,0,0,1,.695.123c.025.011.05.021.076.029A2.028,2.028,0,0,1,62.6,50.176a2.433,2.433,0,0,1-2.187,2.16,3.892,3.892,0,0,0-1.022-.136.937.937,0,0,0,0,1.875,2.02,2.02,0,0,1,.58.085l.068.022a2.025,2.025,0,0,1-.647,3.943H44.138a1.569,1.569,0,0,1-1.128-.443A12.825,12.825,0,0,0,35.967,54.3V39.365l.166-.162c4.6-4.469,5.729-5.049,5.968-5.119a.94.94,0,0,0,.382-.175,11.428,11.428,0,0,0,4.3-7.066.979.979,0,0,0,.012-.1l.27-3.826a1.806,1.806,0,0,1,3.141-.061A14.358,14.358,0,0,1,49.6,34.93a.937.937,0,0,0,.83,1.373H63.705a2.025,2.025,0,1,1,0,4.049Zm-32.791-.689v.113a.937.937,0,0,1-1.875,0v-.113a.937.937,0,0,1,1.875,0ZM59.045,8.037a.937.937,0,0,0-.8-.644L51.522,6.76,48.843.565a.937.937,0,0,0-1.721,0L44.443,6.76l-6.719.633a.937.937,0,0,0-.532,1.637l5.064,4.462-1.474,6.586a.937.937,0,0,0,1.392,1.012l5.808-3.437,5.808,3.437a.937.937,0,0,0,1.392-1.012l-1.474-6.586L58.772,9.03A.937.937,0,0,0,59.045,8.037Zm-6.992,4.415a.938.938,0,0,0-.3.908l1.122,5.012L48.46,15.755a.937.937,0,0,0-.955,0l-4.419,2.616,1.121-5.012a.937.937,0,0,0-.3-.908L40.059,9.056l5.113-.482a.937.937,0,0,0,.772-.561L47.982,3.3,50.02,8.014a.938.938,0,0,0,.772.561l5.113.482Zm23.5,1.079a.938.938,0,0,0-.8-.644l-4.735-.446L68.123,8.075a.938.938,0,0,0-1.721,0l-1.887,4.366-4.735.446a.937.937,0,0,0-.532,1.637l3.569,3.144-1.039,4.641A.937.937,0,0,0,63.17,23.32L67.263,20.9l4.093,2.422a.937.937,0,0,0,1.392-1.012l-1.039-4.641,3.569-3.144a.937.937,0,0,0,.272-.993Zm-5.5,3.1a.938.938,0,0,0-.3.908l.687,3.067L67.74,19a.937.937,0,0,0-.955,0l-2.7,1.6.686-3.067a.938.938,0,0,0-.3-.908L62.114,14.55l3.129-.295a.937.937,0,0,0,.773-.561l1.247-2.885,1.247,2.885a.938.938,0,0,0,.773.561l3.129.295ZM36.187,12.887l-4.735-.446L29.563,8.075a.937.937,0,0,0-1.721,0l-1.887,4.366-4.735.446a.937.937,0,0,0-.532,1.637l3.569,3.144-1.039,4.641a.937.937,0,0,0,1.392,1.011L28.7,20.9l4.093,2.422a.937.937,0,0,0,1.392-1.012l-1.039-4.641,3.569-3.144a.937.937,0,0,0-.532-1.637Zm-4.693,3.741a.937.937,0,0,0-.3.908l.686,3.067L29.18,19a.937.937,0,0,0-.955,0l-2.7,1.6.687-3.067a.937.937,0,0,0-.3-.908L23.554,14.55l3.129-.295a.937.937,0,0,0,.773-.561L28.7,10.81l1.247,2.884a.937.937,0,0,0,.772.561l3.129.295Z" transform="translate(0 0)" fill="#fe5c58"/>
  </g>
</svg>
