<svg id="Group_37775" data-name="Group 37775" xmlns="http://www.w3.org/2000/svg" width="32" height="30.667" viewBox="0 0 32 30.667">
  <path id="Path_105468" data-name="Path 105468" d="M245.332,341.332h1.388v9.714h-1.388Zm0,0" transform="translate(-230.026 -320.379)"/>
  <path id="Path_105469" data-name="Path 105469" d="M96,298.668h19.511v1.388H96Zm0,0" transform="translate(-89.756 -280.036)"/>
  <path id="Path_105470" data-name="Path 105470" d="M408.8,60.27A3.469,3.469,0,1,1,412.27,56.8,3.473,3.473,0,0,1,408.8,60.27Zm0-5.55a2.081,2.081,0,1,0,2.081,2.081A2.084,2.084,0,0,0,408.8,54.72Zm0,0" transform="translate(-380.27 -49.863)"/>
  <path id="Path_105471" data-name="Path 105471" d="M302.137,201.453a.68.68,0,0,1-.273-.056.693.693,0,0,1-.364-.911l2.081-4.857a.693.693,0,0,1,.638-.42h4.857a2.084,2.084,0,0,0,2.081-2.081v-9.02a1.389,1.389,0,0,0-1.388-1.388h-.694c-.487,0-.93.322-1.528,1.113-.67.885-2.7,3.383-2.791,3.488a.7.7,0,0,1-.538.255h-3.469a.694.694,0,0,0-.694.694v1.388a.694.694,0,1,1-1.388,0V188.27a2.084,2.084,0,0,1,2.081-2.081h3.139c.547-.673,2.021-2.491,2.552-3.194a3.441,3.441,0,0,1,2.635-1.663h.694a2.778,2.778,0,0,1,2.775,2.775v9.02a3.473,3.473,0,0,1-3.469,3.469h-4.4l-1.9,4.436A.693.693,0,0,1,302.137,201.453Zm0,0" transform="translate(-280.544 -170.786)"/>
  <path id="Path_105472" data-name="Path 105472" d="M299.364,311.157a.695.695,0,0,1-.658-.914l2.3-6.9a2.77,2.77,0,0,1,2.632-1.9h1.969v-2.081a.694.694,0,0,1,1.388,0v2.775a.693.693,0,0,1-.694.694H303.64a1.384,1.384,0,0,0-1.316.948l-2.3,6.9a.7.7,0,0,1-.659.475Zm0,0" transform="translate(-280.257 -280.49)"/>
  <path id="Path_105473" data-name="Path 105473" d="M406.023,260.173a.694.694,0,0,1-.554-1.109l2.081-2.775a.693.693,0,0,1,1.11.832l-2.081,2.775A.69.69,0,0,1,406.023,260.173Zm0,0" transform="translate(-380.268 -240.108)"/>
  <path id="Path_105474" data-name="Path 105474" d="M3.469,60.27A3.469,3.469,0,1,1,6.938,56.8,3.473,3.473,0,0,1,3.469,60.27Zm0-5.55A2.081,2.081,0,1,0,5.55,56.8,2.084,2.084,0,0,0,3.469,54.72Zm0,0" transform="translate(0 -49.863)"/>
  <path id="Path_105475" data-name="Path 105475" d="M10.407,201.453a.693.693,0,0,1-.637-.421l-1.9-4.436h-4.4A3.473,3.473,0,0,1,0,193.127v-9.02a2.778,2.778,0,0,1,2.775-2.775h.694A3.438,3.438,0,0,1,6.1,183c.532.7,2,2.521,2.552,3.194h3.139a2.084,2.084,0,0,1,2.081,2.081v1.388a.694.694,0,1,1-1.388,0V188.27a.7.7,0,0,0-.694-.694H8.326a.692.692,0,0,1-.538-.255c-.086-.105-2.121-2.6-2.791-3.489-.6-.79-1.041-1.112-1.529-1.112H2.775a1.389,1.389,0,0,0-1.388,1.388v9.02a2.084,2.084,0,0,0,2.081,2.081H8.326a.693.693,0,0,1,.638.42l2.081,4.857a.694.694,0,0,1-.364.911.68.68,0,0,1-.273.056Zm0,0" transform="translate(0 -170.786)"/>
  <path id="Path_105476" data-name="Path 105476" d="M92.964,311.157a.7.7,0,0,1-.659-.475l-2.3-6.9a1.386,1.386,0,0,0-1.316-.948H86.026a.694.694,0,0,1-.694-.694v-2.775a.694.694,0,0,1,1.388,0v2.081h1.969a2.771,2.771,0,0,1,2.633,1.9l2.3,6.9a.693.693,0,0,1-.439.878.7.7,0,0,1-.22.036Zm0,0" transform="translate(-80.071 -280.49)"/>
  <path id="Path_105477" data-name="Path 105477" d="M56.106,260.173a.694.694,0,0,1-.556-.277l-2.081-2.775a.694.694,0,0,1,1.11-.832l2.081,2.775a.694.694,0,0,1-.554,1.109Zm0,0" transform="translate(-49.861 -240.108)"/>
  <path id="Path_105478" data-name="Path 105478" d="M171.795,137.713a.693.693,0,0,1-.694-.694v-4.857a2.778,2.778,0,0,0-2.775-2.775h-4.163a2.778,2.778,0,0,0-2.775,2.775v2.081a.694.694,0,1,1-1.388,0v-2.081A4.167,4.167,0,0,1,164.163,128h4.163a4.167,4.167,0,0,1,4.163,4.163v4.857a.693.693,0,0,1-.694.694Zm0,0" transform="translate(-150.244 -120.142)"/>
  <path id="Path_105479" data-name="Path 105479" d="M206.137,6.938a3.469,3.469,0,1,1,3.469-3.469A3.473,3.473,0,0,1,206.137,6.938Zm0-5.551a2.081,2.081,0,1,0,2.081,2.081A2.084,2.084,0,0,0,206.137,1.388Zm0,0" transform="translate(-190.137)"/>
  <path id="Path_105480" data-name="Path 105480" d="M245.332,170.668h1.388v1.388h-1.388Zm0,0" transform="translate(-230.026 -160.021)"/>
</svg>
