<svg width="32" height="32" viewBox="0 0 32 32" fill="none" xmlns="http://www.w3.org/2000/svg">
<path d="M15.7487 21.9361V18.2349C15.7487 17.9759 15.5388 17.7661 15.2799 17.7661C15.021 17.7661 14.8112 17.9759 14.8112 18.2349V18.3072C14.4638 18.0681 14.0436 17.9278 13.591 17.9278C12.4013 17.9278 11.4335 18.8957 11.4335 20.0854C11.4335 21.2751 12.4013 22.243 13.591 22.243C14.0436 22.243 14.4638 22.1026 14.8112 21.8636V21.936C14.8112 22.1949 15.021 22.4047 15.2799 22.4047C15.5388 22.4047 15.7487 22.1949 15.7487 21.9361V21.9361ZM13.591 21.3056C12.9182 21.3056 12.3709 20.7582 12.3709 20.0855C12.3709 19.4127 12.9182 18.8654 13.591 18.8654C14.2637 18.8654 14.8111 19.4127 14.8111 20.0855C14.8111 20.7582 14.2638 21.3056 13.591 21.3056Z" fill="black"/>
<path d="M18.5145 22.2431C18.9671 22.2431 19.3873 22.1027 19.7346 21.8637V21.9361C19.7346 22.195 19.9444 22.4048 20.2034 22.4048C20.4623 22.4048 20.6721 22.195 20.6721 21.9361V18.2349C20.6721 17.9759 20.4623 17.7661 20.2034 17.7661C19.9444 17.7661 19.7346 17.9759 19.7346 18.2349V18.3072C19.3873 18.0681 18.9671 17.9278 18.5145 17.9278C17.3248 17.9278 16.3569 18.8957 16.3569 20.0854C16.3569 21.2752 17.3247 22.2431 18.5145 22.2431ZM18.5145 18.8653C19.1873 18.8653 19.7346 19.4127 19.7346 20.0854C19.7346 20.7582 19.1872 21.3055 18.5145 21.3055C17.8417 21.3055 17.2944 20.7582 17.2944 20.0854C17.2944 19.4127 17.8417 18.8653 18.5145 18.8653Z" fill="black"/>
<path d="M23.4088 21.4671C22.8195 21.4671 22.3401 21.0367 22.3401 20.5075C22.3401 20.2486 22.1303 20.0388 21.8713 20.0388C21.6124 20.0388 21.4026 20.2486 21.4026 20.5075C21.4026 21.5535 22.3025 22.4046 23.4088 22.4046C24.515 22.4046 25.415 21.5536 25.415 20.5075C25.415 19.4615 24.5151 18.6105 23.4088 18.6105C22.8195 18.6105 22.3401 18.18 22.3401 17.651C22.3401 17.1218 22.8195 16.6914 23.4088 16.6914C23.9982 16.6914 24.4775 17.1218 24.4775 17.651C24.4775 17.9099 24.6873 18.1197 24.9463 18.1197C25.2052 18.1197 25.415 17.9099 25.415 17.651C25.415 16.605 24.5151 15.7539 23.4088 15.7539C22.3026 15.7539 21.4026 16.6049 21.4026 17.651C21.4026 18.697 22.3025 19.548 23.4088 19.548C23.9982 19.548 24.4775 19.9784 24.4775 20.5075C24.4775 21.0367 23.9982 21.4671 23.4088 21.4671Z" fill="black"/>
<path d="M8.80135 16.6919C9.39067 16.6919 9.87004 17.1223 9.87004 17.6515C9.87004 17.9104 10.0799 18.1202 10.3388 18.1202C10.5977 18.1202 10.8075 17.9104 10.8075 17.6515C10.8075 16.6055 9.9076 15.7544 8.80135 15.7544C7.6951 15.7544 6.79517 16.6054 6.79517 17.6515C6.79517 18.6975 7.6951 19.5485 8.80135 19.5485C9.39067 19.5485 9.87004 19.9789 9.87004 20.508C9.87004 21.0371 9.39067 21.4676 8.80135 21.4676C8.21204 21.4676 7.73267 21.0371 7.73267 20.508C7.73267 20.2491 7.52285 20.0393 7.26392 20.0393C7.00498 20.0393 6.79517 20.2491 6.79517 20.508C6.79517 21.554 7.6951 22.4051 8.80135 22.4051C9.9076 22.4051 10.8075 21.5541 10.8075 20.508C10.8075 19.462 9.9076 18.611 8.80135 18.611C8.21204 18.611 7.73267 18.1805 7.73267 17.6515C7.73273 17.1223 8.2121 16.6919 8.80135 16.6919Z" fill="black"/>
<path d="M31.9995 21.0665C32.0317 18.8175 30.4544 16.8848 28.2491 16.471C28.0269 16.4293 27.8736 16.2316 27.8847 16.0008C27.9554 14.5251 27.317 13.143 26.1334 12.2088C24.9583 11.2811 23.4179 10.9705 22.0134 11.3779C21.7849 11.4442 21.5469 11.3326 21.4606 11.118C21.1387 10.3178 20.6829 9.58208 20.1058 8.9312C19.9342 8.73751 19.6379 8.7197 19.4441 8.89145C19.2504 9.0632 19.2326 9.35945 19.4043 9.55314C19.9099 10.1234 20.3092 10.7676 20.5908 11.4678C20.8574 12.1308 21.5816 12.4792 22.2744 12.2783C23.389 11.955 24.6144 12.2042 25.5524 12.9446C26.4954 13.689 27.0042 14.7865 26.9482 15.956C26.9151 16.648 27.4 17.2656 28.0761 17.3924C29.8319 17.7219 31.0876 19.2614 31.062 21.053C31.0334 23.0481 29.358 24.6712 27.3271 24.6712H17.0938C16.8348 24.6712 16.625 24.881 16.625 25.1399C16.625 25.3989 16.8348 25.6087 17.0938 25.6087H27.3272C29.8677 25.6086 31.9637 23.571 31.9995 21.0665V21.0665Z" fill="black"/>
<path d="M15.3751 25.1399C15.3751 24.881 15.1652 24.6712 14.9063 24.6712H5.91899C3.19637 24.6712 0.96187 22.484 0.937807 19.7955C0.925057 18.3761 1.49399 17.0697 2.53993 16.1169C3.57912 15.1702 4.96712 14.7081 6.34837 14.8496C6.72499 14.8882 7.10543 14.7695 7.39274 14.5241C7.68174 14.2773 7.85243 13.9331 7.87337 13.5547C8.06674 10.0634 10.9617 7.32861 14.4642 7.32861C15.6503 7.32861 16.8139 7.6473 17.8291 8.25011C18.0517 8.38236 18.3393 8.30905 18.4714 8.08643C18.6036 7.8638 18.5302 7.57618 18.3077 7.44405C17.1477 6.75524 15.8187 6.39111 14.4642 6.39111C10.4644 6.39111 7.15818 9.51493 6.93731 13.5029C6.93068 13.6229 6.87612 13.7324 6.78393 13.8112C6.68899 13.8922 6.56837 13.9296 6.44381 13.917C4.79781 13.7482 3.14474 14.2977 1.90856 15.4239C0.66287 16.5587 -0.0147551 18.1142 0.000369904 19.8039C0.0290574 23.0047 2.68412 25.6087 5.91906 25.6087H14.9063C15.1652 25.6087 15.3751 25.3989 15.3751 25.1399V25.1399Z" fill="black"/>
</svg>
