<svg width="32" height="32" viewBox="0 0 32 32" fill="none" xmlns="http://www.w3.org/2000/svg">
<path d="M29.3333 2.13333H28.2667V1.6C28.2667 1.17565 28.0981 0.768687 27.798 0.468629C27.498 0.168571 27.091 6.7435e-08 26.6667 6.7435e-08C26.2423 6.7435e-08 25.8354 0.168571 25.5353 0.468629C25.2352 0.768687 25.0667 1.17565 25.0667 1.6V2.13333H22.9333V1.6C22.9333 1.17565 22.7648 0.768687 22.4647 0.468629C22.1646 0.168571 21.7577 0 21.3333 0C20.909 0 20.502 0.168571 20.202 0.468629C19.9019 0.768687 19.7333 1.17565 19.7333 1.6V2.13333H17.6V1.6C17.6 1.17565 17.4314 0.768687 17.1314 0.468629C16.8313 0.168571 16.4243 0 16 0C15.5757 0 15.1687 0.168571 14.8686 0.468629C14.5686 0.768687 14.4 1.17565 14.4 1.6V2.13333H12.2667V1.6C12.2667 1.17565 12.0981 0.768687 11.798 0.468629C11.498 0.168571 11.091 0 10.6667 0C10.2423 0 9.83535 0.168571 9.5353 0.468629C9.23524 0.768687 9.06667 1.17565 9.06667 1.6V2.13333H6.93333V1.6C6.93333 1.17565 6.76476 0.768687 6.4647 0.468629C6.16465 0.168571 5.75768 0 5.33333 0C4.90899 0 4.50202 0.168571 4.20196 0.468629C3.9019 0.768687 3.73333 1.17565 3.73333 1.6V2.13333H2.66667C1.95968 2.13418 1.2819 2.4154 0.781984 2.91532C0.28207 3.41523 0.000846857 4.09302 0 4.8L0 25.0667C0.000846857 25.7737 0.28207 26.4514 0.781984 26.9514C1.2819 27.4513 1.95968 27.7325 2.66667 27.7333H3.7648C3.87864 28.758 4.31967 29.7188 5.0225 30.4731C5.72533 31.2274 6.65253 31.7351 7.66664 31.921C8.68074 32.1068 9.72774 31.9609 10.6524 31.5049C11.5771 31.0489 12.3302 30.307 12.8 29.3893C13.2698 30.307 14.0229 31.0489 14.9476 31.5049C15.8723 31.9609 16.9193 32.1068 17.9334 31.921C18.9475 31.7351 19.8747 31.2274 20.5775 30.4731C21.2803 29.7188 21.7214 28.758 21.8352 27.7333H22.9333V30.4C22.9333 30.8243 23.1019 31.2313 23.402 31.5314C23.702 31.8314 24.109 32 24.5333 32C24.9577 32 25.3646 31.8314 25.6647 31.5314C25.9648 31.2313 26.1333 30.8243 26.1333 30.4V27.7333H29.3333C30.0403 27.7325 30.7181 27.4513 31.218 26.9514C31.7179 26.4514 31.9992 25.7737 32 25.0667V4.8C31.9992 4.09302 31.7179 3.41523 31.218 2.91532C30.7181 2.4154 30.0403 2.13418 29.3333 2.13333V2.13333ZM26.1333 1.6C26.1333 1.45855 26.1895 1.3229 26.2895 1.22288C26.3896 1.12286 26.5252 1.06667 26.6667 1.06667C26.8081 1.06667 26.9438 1.12286 27.0438 1.22288C27.1438 1.3229 27.2 1.45855 27.2 1.6V3.73333C27.2 3.87478 27.1438 4.01044 27.0438 4.11046C26.9438 4.21048 26.8081 4.26667 26.6667 4.26667C26.5252 4.26667 26.3896 4.21048 26.2895 4.11046C26.1895 4.01044 26.1333 3.87478 26.1333 3.73333V1.6ZM20.8 1.6C20.8 1.45855 20.8562 1.3229 20.9562 1.22288C21.0562 1.12286 21.1919 1.06667 21.3333 1.06667C21.4748 1.06667 21.6104 1.12286 21.7105 1.22288C21.8105 1.3229 21.8667 1.45855 21.8667 1.6V3.73333C21.8667 3.87478 21.8105 4.01044 21.7105 4.11046C21.6104 4.21048 21.4748 4.26667 21.3333 4.26667C21.1919 4.26667 21.0562 4.21048 20.9562 4.11046C20.8562 4.01044 20.8 3.87478 20.8 3.73333V1.6ZM15.4667 1.6C15.4667 1.45855 15.5229 1.3229 15.6229 1.22288C15.7229 1.12286 15.8586 1.06667 16 1.06667C16.1414 1.06667 16.2771 1.12286 16.3771 1.22288C16.4771 1.3229 16.5333 1.45855 16.5333 1.6V3.73333C16.5333 3.87478 16.4771 4.01044 16.3771 4.11046C16.2771 4.21048 16.1414 4.26667 16 4.26667C15.8586 4.26667 15.7229 4.21048 15.6229 4.11046C15.5229 4.01044 15.4667 3.87478 15.4667 3.73333V1.6ZM10.1333 1.6C10.1333 1.45855 10.1895 1.3229 10.2895 1.22288C10.3896 1.12286 10.5252 1.06667 10.6667 1.06667C10.8081 1.06667 10.9438 1.12286 11.0438 1.22288C11.1438 1.3229 11.2 1.45855 11.2 1.6V3.73333C11.2 3.87478 11.1438 4.01044 11.0438 4.11046C10.9438 4.21048 10.8081 4.26667 10.6667 4.26667C10.5252 4.26667 10.3896 4.21048 10.2895 4.11046C10.1895 4.01044 10.1333 3.87478 10.1333 3.73333V1.6ZM4.8 1.6C4.8 1.45855 4.85619 1.3229 4.95621 1.22288C5.05623 1.12286 5.19188 1.06667 5.33333 1.06667C5.47478 1.06667 5.61044 1.12286 5.71046 1.22288C5.81048 1.3229 5.86667 1.45855 5.86667 1.6V3.73333C5.86667 3.87478 5.81048 4.01044 5.71046 4.11046C5.61044 4.21048 5.47478 4.26667 5.33333 4.26667C5.19188 4.26667 5.05623 4.21048 4.95621 4.11046C4.85619 4.01044 4.8 3.87478 4.8 3.73333V1.6ZM2.66667 3.2H3.73333V3.73333C3.73333 4.15768 3.9019 4.56465 4.20196 4.8647C4.50202 5.16476 4.90899 5.33333 5.33333 5.33333C5.75768 5.33333 6.16465 5.16476 6.4647 4.8647C6.76476 4.56465 6.93333 4.15768 6.93333 3.73333V3.2H9.06667V3.73333C9.06667 4.15768 9.23524 4.56465 9.5353 4.8647C9.83535 5.16476 10.2423 5.33333 10.6667 5.33333C11.091 5.33333 11.498 5.16476 11.798 4.8647C12.0981 4.56465 12.2667 4.15768 12.2667 3.73333V3.2H14.4V3.73333C14.4 4.15768 14.5686 4.56465 14.8686 4.8647C15.1687 5.16476 15.5757 5.33333 16 5.33333C16.4243 5.33333 16.8313 5.16476 17.1314 4.8647C17.4314 4.56465 17.6 4.15768 17.6 3.73333V3.2H19.7333V3.73333C19.7333 4.15768 19.9019 4.56465 20.202 4.8647C20.502 5.16476 20.909 5.33333 21.3333 5.33333C21.7577 5.33333 22.1646 5.16476 22.4647 4.8647C22.7648 4.56465 22.9333 4.15768 22.9333 3.73333V3.2H25.0667V3.73333C25.0667 4.15768 25.2352 4.56465 25.5353 4.8647C25.8354 5.16476 26.2423 5.33333 26.6667 5.33333C27.091 5.33333 27.498 5.16476 27.798 4.8647C28.0981 4.56465 28.2667 4.15768 28.2667 3.73333V3.2H29.3333C29.7577 3.2 30.1646 3.36857 30.4647 3.66863C30.7648 3.96869 30.9333 4.37565 30.9333 4.8V6.4H1.06667V4.8C1.06667 4.37565 1.23524 3.96869 1.5353 3.66863C1.83535 3.36857 2.24232 3.2 2.66667 3.2V3.2ZM8.53333 30.9333C7.79495 30.9333 7.07315 30.7144 6.4592 30.3042C5.84526 29.8939 5.36675 29.3109 5.08418 28.6287C4.80162 27.9465 4.72768 27.1959 4.87174 26.4717C5.01579 25.7475 5.37135 25.0823 5.89347 24.5601C6.41558 24.038 7.0808 23.6825 7.805 23.5384C8.52919 23.3944 9.27984 23.4683 9.96202 23.7509C10.6442 24.0334 11.2273 24.5119 11.6375 25.1259C12.0477 25.7398 12.2667 26.4616 12.2667 27.2C12.2654 28.1898 11.8717 29.1386 11.1718 29.8385C10.4719 30.5383 9.52309 30.9321 8.53333 30.9333V30.9333ZM14.4 23.2117C13.9975 23.4823 13.6379 23.8119 13.3333 24.1893V19.2C13.3333 19.0586 13.2771 18.9229 13.1771 18.8229C13.0771 18.7229 12.9414 18.6667 12.8 18.6667C12.6586 18.6667 12.5229 18.7229 12.4229 18.8229C12.3229 18.9229 12.2667 19.0586 12.2667 19.2V24.1893C11.9621 23.8119 11.6025 23.4823 11.2 23.2117V16.2827C11.2004 15.1029 11.4061 13.9322 11.808 12.8229L12.816 10.1451L13.7915 12.8213C14.1936 13.9311 14.3996 15.1023 14.4 16.2827V23.2117ZM17.0667 30.9333C16.3283 30.9333 15.6065 30.7144 14.9925 30.3042C14.3786 29.8939 13.9001 29.3109 13.6175 28.6287C13.3349 27.9465 13.261 27.1959 13.4051 26.4717C13.5491 25.7475 13.9047 25.0823 14.4268 24.5601C14.9489 24.038 15.6141 23.6825 16.3383 23.5384C17.0625 23.3944 17.8132 23.4683 18.4954 23.7509C19.1775 24.0334 19.7606 24.5119 20.1708 25.1259C20.581 25.7398 20.8 26.4616 20.8 27.2C20.7987 28.1898 20.405 29.1386 19.7051 29.8385C19.0053 30.5383 18.0564 30.9321 17.0667 30.9333V30.9333ZM25.0667 30.4C25.0667 30.5415 25.0105 30.6771 24.9105 30.7771C24.8104 30.8771 24.6748 30.9333 24.5333 30.9333C24.3919 30.9333 24.2562 30.8771 24.1562 30.7771C24.0562 30.6771 24 30.5415 24 30.4V10.1333C24.2829 10.1333 24.5542 10.2457 24.7542 10.4458C24.9543 10.6458 25.0667 10.9171 25.0667 11.2V30.4ZM29.3333 26.6667H26.1333V11.2C26.1333 10.6342 25.9086 10.0916 25.5085 9.69151C25.1084 9.29143 24.5658 9.06667 24 9.06667H19.7333C19.5919 9.06667 19.4562 9.12286 19.3562 9.22288C19.2562 9.3229 19.2 9.45855 19.2 9.6C19.2 9.74145 19.2562 9.87711 19.3562 9.97712C19.4562 10.0771 19.5919 10.1333 19.7333 10.1333H22.9333V11.2H19.7333C19.5919 11.2 19.4562 11.2562 19.3562 11.3562C19.2562 11.4562 19.2 11.5919 19.2 11.7333C19.2 11.8748 19.2562 12.0104 19.3562 12.1105C19.4562 12.2105 19.5919 12.2667 19.7333 12.2667H22.9333V13.3333H19.7333C19.5919 13.3333 19.4562 13.3895 19.3562 13.4895C19.2562 13.5896 19.2 13.7252 19.2 13.8667C19.2 14.0081 19.2562 14.1438 19.3562 14.2438C19.4562 14.3438 19.5919 14.4 19.7333 14.4H22.9333V15.4667H19.7333C19.5919 15.4667 19.4562 15.5229 19.3562 15.6229C19.2562 15.7229 19.2 15.8586 19.2 16C19.2 16.1414 19.2562 16.2771 19.3562 16.3771C19.4562 16.4771 19.5919 16.5333 19.7333 16.5333H22.9333V17.6H19.7333C19.5919 17.6 19.4562 17.6562 19.3562 17.7562C19.2562 17.8562 19.2 17.9919 19.2 18.1333C19.2 18.2748 19.2562 18.4104 19.3562 18.5105C19.4562 18.6105 19.5919 18.6667 19.7333 18.6667H22.9333V19.7333H19.7333C19.5919 19.7333 19.4562 19.7895 19.3562 19.8895C19.2562 19.9896 19.2 20.1252 19.2 20.2667C19.2 20.4081 19.2562 20.5438 19.3562 20.6438C19.4562 20.7438 19.5919 20.8 19.7333 20.8H22.9333V26.6667H21.8352C21.757 25.9477 21.5168 25.2559 21.1327 24.6432C20.7486 24.0304 20.2306 23.5127 19.6177 23.129C19.0047 22.7453 18.3127 22.5055 17.5937 22.4278C16.8748 22.35 16.1475 22.4362 15.4667 22.68V16.2827C15.4662 14.9781 15.2386 13.6836 14.7941 12.4571L13.8187 9.7808C13.7431 9.57132 13.6047 9.39025 13.4225 9.26226C13.2402 9.13427 13.023 9.0656 12.8003 9.0656C12.5776 9.0656 12.3603 9.13427 12.178 9.26226C11.9958 9.39025 11.8575 9.57132 11.7819 9.7808L10.8053 12.4587C10.3611 13.6847 10.1337 14.9787 10.1333 16.2827V22.68C9.45249 22.4362 8.72524 22.35 8.00626 22.4278C7.28729 22.5055 6.5953 22.7453 5.98233 23.129C5.36936 23.5127 4.85136 24.0304 4.46727 24.6432C4.08318 25.2559 3.84301 25.9477 3.7648 26.6667H2.66667C2.24232 26.6667 1.83535 26.4981 1.5353 26.198C1.23524 25.898 1.06667 25.491 1.06667 25.0667V7.46667H30.9333V25.0667C30.9333 25.491 30.7648 25.898 30.4647 26.198C30.1646 26.4981 29.7577 26.6667 29.3333 26.6667V26.6667Z" fill="black"/>
<path d="M8.53337 24.5332C8.00595 24.5332 7.49038 24.6896 7.05185 24.9826C6.61332 25.2756 6.27152 25.6921 6.06969 26.1794C5.86785 26.6667 5.81505 27.2028 5.91794 27.7201C6.02083 28.2374 6.27481 28.7125 6.64775 29.0855C7.02069 29.4584 7.49584 29.7124 8.01313 29.8153C8.53041 29.9182 9.06659 29.8654 9.55386 29.6635C10.0411 29.4617 10.4576 29.1199 10.7506 28.6814C11.0436 28.2429 11.2 27.7273 11.2 27.1999C11.1992 26.4929 10.918 25.8151 10.4181 25.3152C9.91814 24.8153 9.24035 24.534 8.53337 24.5332V24.5332ZM8.53337 25.5999C8.86311 25.6012 9.18437 25.7044 9.45321 25.8954C9.72204 26.0863 9.92532 26.3557 10.0352 26.6665H7.0315C7.14141 26.3557 7.34469 26.0863 7.61353 25.8954C7.88236 25.7044 8.20363 25.6012 8.53337 25.5999V25.5999ZM8.53337 28.7999C8.20363 28.7985 7.88236 28.6953 7.61353 28.5044C7.34469 28.3134 7.14141 28.0441 7.0315 27.7332H10.0352C9.92532 28.0441 9.72204 28.3134 9.45321 28.5044C9.18437 28.6953 8.86311 28.7985 8.53337 28.7999V28.7999Z" fill="black"/>
<path d="M17.0667 24.5332C16.5393 24.5332 16.0237 24.6896 15.5852 24.9826C15.1466 25.2756 14.8048 25.6921 14.603 26.1794C14.4012 26.6667 14.3484 27.2028 14.4513 27.7201C14.5542 28.2374 14.8081 28.7125 15.1811 29.0855C15.554 29.4584 16.0292 29.7124 16.5465 29.8153C17.0637 29.9182 17.5999 29.8654 18.0872 29.6635C18.5745 29.4617 18.9909 29.1199 19.2839 28.6814C19.577 28.2429 19.7334 27.7273 19.7334 27.1999C19.7325 26.4929 19.4513 25.8151 18.9514 25.3152C18.4515 24.8153 17.7737 24.534 17.0667 24.5332V24.5332ZM17.0667 25.5999C17.3964 25.6012 17.7177 25.7044 17.9865 25.8954C18.2554 26.0863 18.4586 26.3557 18.5686 26.6665H15.5648C15.6747 26.3557 15.878 26.0863 16.1469 25.8954C16.4157 25.7044 16.737 25.6012 17.0667 25.5999V25.5999ZM17.0667 28.7999C16.737 28.7985 16.4157 28.6953 16.1469 28.5044C15.878 28.3134 15.6747 28.0441 15.5648 27.7332H18.5686C18.4586 28.0441 18.2554 28.3134 17.9865 28.5044C17.7177 28.6953 17.3964 28.7985 17.0667 28.7999V28.7999Z" fill="black"/>
<path d="M12.8001 16C12.6586 16 12.523 16.0562 12.4229 16.1562C12.3229 16.2562 12.2667 16.3919 12.2667 16.5333V17.0667C12.2667 17.2081 12.3229 17.3438 12.4229 17.4438C12.523 17.5438 12.6586 17.6 12.8001 17.6C12.9415 17.6 13.0772 17.5438 13.1772 17.4438C13.2772 17.3438 13.3334 17.2081 13.3334 17.0667V16.5333C13.3334 16.3919 13.2772 16.2562 13.1772 16.1562C13.0772 16.0562 12.9415 16 12.8001 16Z" fill="black"/>
</svg>
