<svg width="32" height="32" viewBox="0 0 32 32" fill="none" xmlns="http://www.w3.org/2000/svg">
<path d="M31.3102 29.9807H0.725307C0.526195 29.9807 0.369751 29.8242 0.369751 29.6251V2.48202C0.369751 2.28291 0.526195 2.12646 0.725307 2.12646H31.3102C31.5093 2.12646 31.6657 2.28291 31.6657 2.48202V29.6251C31.6657 29.8242 31.5093 29.9807 31.3102 29.9807ZM1.08086 29.2696H30.9546V2.83758H1.08086V29.2696Z" fill="black"/>
<path d="M31.3102 8.27752H0.725307C0.526195 8.27752 0.369751 8.12107 0.369751 7.92196C0.369751 7.72285 0.526195 7.56641 0.725307 7.56641H31.3102C31.5093 7.56641 31.6657 7.72285 31.6657 7.92196C31.6657 8.12107 31.5093 8.27752 31.3102 8.27752Z" fill="black"/>
<path d="M28.5866 6.39318H27.1928C26.6879 6.39318 26.2826 5.98073 26.2826 5.48296V4.92829C26.2826 4.4234 26.695 4.01807 27.1928 4.01807H28.5866C29.0915 4.01807 29.4968 4.43051 29.4968 4.92829V5.47584C29.4968 5.98073 29.0915 6.39318 28.5866 6.39318V6.39318ZM27.1928 4.72207C27.0861 4.72207 26.9937 4.81451 26.9937 4.92118V5.47584C26.9937 5.58251 27.0861 5.67496 27.1928 5.67496H28.5866C28.6933 5.67496 28.7857 5.58251 28.7857 5.47584V4.92118C28.7857 4.81451 28.6933 4.72207 28.5866 4.72207H27.1928Z" fill="black"/>
<path d="M24.4977 6.39318H23.1039C22.5991 6.39318 22.1937 5.98073 22.1937 5.48296V4.92829C22.1937 4.4234 22.6062 4.01807 23.1039 4.01807H24.4977C25.0026 4.01807 25.4079 4.43051 25.4079 4.92829V5.47584C25.4079 5.98073 25.0026 6.39318 24.4977 6.39318V6.39318ZM23.1039 4.72207C22.9973 4.72207 22.9048 4.81451 22.9048 4.92118V5.47584C22.9048 5.58251 22.9973 5.67496 23.1039 5.67496H24.4977C24.6044 5.67496 24.6968 5.58251 24.6968 5.47584V4.92118C24.6968 4.81451 24.6044 4.72207 24.4977 4.72207H23.1039Z" fill="black"/>
<path d="M20.4089 6.39318H19.0151C18.5102 6.39318 18.1049 5.98073 18.1049 5.48296V4.92829C18.1049 4.4234 18.5173 4.01807 19.0151 4.01807H20.4089C20.9137 4.01807 21.3191 4.43051 21.3191 4.92829V5.47584C21.3191 5.98073 20.9066 6.39318 20.4089 6.39318V6.39318ZM19.0151 4.72207C18.9084 4.72207 18.816 4.81451 18.816 4.92118V5.47584C18.816 5.58251 18.9084 5.67496 19.0151 5.67496H20.4089C20.5155 5.67496 20.608 5.58251 20.608 5.47584V4.92118C20.608 4.81451 20.5155 4.72207 20.4089 4.72207H19.0151Z" fill="black"/>
<path d="M12.5938 19.6269H4.40175C3.78309 19.6269 3.2782 19.122 3.2782 18.5033V10.3042C3.2782 9.68555 3.78309 9.18066 4.40175 9.18066H12.6009C13.2195 9.18066 13.7244 9.68555 13.7244 10.3042V18.5033C13.7244 19.122 13.2195 19.6269 12.5938 19.6269ZM4.40175 9.88466C4.1742 9.88466 3.98931 10.0696 3.98931 10.2971V18.4962C3.98931 18.7238 4.1742 18.9087 4.40175 18.9087H12.6009C12.8284 18.9087 13.0133 18.7238 13.0133 18.4962V10.3042C13.0133 10.0767 12.8284 9.89178 12.6009 9.89178H4.40175V9.88466Z" fill="black"/>
<path d="M6.61327 18.3751C6.41416 18.3751 6.22216 18.3253 6.05149 18.2258C5.42571 17.8631 5.27638 16.9529 5.71727 16.192C5.92349 15.8364 6.22216 15.5662 6.56349 15.424C6.93327 15.2675 7.32438 15.2889 7.63727 15.4667C7.95016 15.6444 8.15638 15.9787 8.21327 16.3769C8.26304 16.7467 8.17771 17.1449 7.97149 17.5004C7.76527 17.856 7.4666 18.1262 7.12527 18.2684C6.96171 18.3395 6.78393 18.3751 6.61327 18.3751V18.3751ZM7.0826 16.0284C6.98304 16.0284 6.89771 16.0569 6.84082 16.0782C6.64171 16.1564 6.45682 16.3271 6.33593 16.5475C6.09416 16.96 6.12971 17.4436 6.40704 17.6071C6.5706 17.6996 6.75549 17.6498 6.85504 17.6071C7.05416 17.5289 7.23904 17.3582 7.35993 17.1378C7.48082 16.9173 7.53771 16.6756 7.50927 16.4693C7.49504 16.3627 7.44527 16.1778 7.28171 16.0782C7.21771 16.0427 7.1466 16.0284 7.0826 16.0284V16.0284Z" fill="black"/>
<path d="M7.46658 16.1281C7.40969 16.1281 7.34569 16.1139 7.2888 16.0783C7.11814 15.9788 7.06125 15.7654 7.1608 15.5948L10.0408 10.6028C10.1404 10.4321 10.3537 10.3752 10.5244 10.4748C10.695 10.5743 10.7519 10.7877 10.6524 10.9583L7.77236 15.9503C7.70836 16.0641 7.58747 16.1281 7.46658 16.1281V16.1281Z" fill="black"/>
<path d="M10.3822 18.3753C10.2115 18.3753 10.0409 18.3398 9.87018 18.2687C9.52885 18.1264 9.22307 17.8562 9.02396 17.5007C8.82485 17.1451 8.73241 16.7469 8.78218 16.3771C8.83196 15.9789 9.0453 15.6447 9.35819 15.4669C9.98396 15.1042 10.8444 15.4313 11.2853 16.1922C11.7262 16.9531 11.5769 17.8633 10.9511 18.226C10.7733 18.3256 10.5813 18.3753 10.3822 18.3753ZM9.91285 16.0287C9.83463 16.0287 9.76352 16.0429 9.69952 16.0856C9.53596 16.178 9.48618 16.37 9.47196 16.4767C9.44352 16.69 9.50041 16.9318 9.6213 17.1451C9.7493 17.3584 9.92707 17.5291 10.1262 17.6144C10.2257 17.6571 10.4106 17.7069 10.5742 17.6144C10.8515 17.4509 10.8871 16.9673 10.6453 16.5549C10.4746 16.2278 10.176 16.0287 9.91285 16.0287Z" fill="black"/>
<path d="M9.52883 16.1281C9.40794 16.1281 9.28706 16.0641 9.22306 15.9503L6.34305 10.9583C6.2435 10.7877 6.30039 10.5743 6.47106 10.4748C6.64172 10.3752 6.85506 10.4321 6.95461 10.6028L9.83461 15.5948C9.93417 15.7654 9.87728 15.9788 9.70661 16.0783C9.64972 16.1139 9.58572 16.1281 9.52883 16.1281V16.1281Z" fill="black"/>
<path d="M28.4089 10.7096H16.3556C16.1564 10.7096 16 10.5532 16 10.3541C16 10.155 16.1564 9.99854 16.3556 9.99854H28.4089C28.608 9.99854 28.7644 10.155 28.7644 10.3541C28.7644 10.5532 28.608 10.7096 28.4089 10.7096Z" fill="black"/>
<path d="M28.4089 13.405H16.3556C16.1564 13.405 16 13.2485 16 13.0494C16 12.8503 16.1564 12.6938 16.3556 12.6938H28.4089C28.608 12.6938 28.7644 12.8503 28.7644 13.0494C28.7644 13.2485 28.608 13.405 28.4089 13.405Z" fill="black"/>
<path d="M28.4089 16.1071H16.3556C16.1564 16.1071 16 15.9507 16 15.7516C16 15.5524 16.1564 15.396 16.3556 15.396H28.4089C28.608 15.396 28.7644 15.5524 28.7644 15.7516C28.7644 15.9507 28.608 16.1071 28.4089 16.1071Z" fill="black"/>
<path d="M28.4089 18.8093H16.3556C16.1564 18.8093 16 18.6528 16 18.4537C16 18.2546 16.1564 18.0981 16.3556 18.0981H28.4089C28.608 18.0981 28.7644 18.2546 28.7644 18.4537C28.7644 18.6528 28.608 18.8093 28.4089 18.8093Z" fill="black"/>
<path d="M13.0773 21.881H3.91818C3.71907 21.881 3.56262 21.7246 3.56262 21.5255C3.56262 21.3264 3.71907 21.1699 3.91818 21.1699H13.0773C13.2764 21.1699 13.4328 21.3264 13.4328 21.5255C13.4328 21.7246 13.2764 21.881 13.0773 21.881Z" fill="black"/>
<path d="M13.0773 24.4338H3.91818C3.71907 24.4338 3.56262 24.2773 3.56262 24.0782C3.56262 23.8791 3.71907 23.7227 3.91818 23.7227H13.0773C13.2764 23.7227 13.4328 23.8791 13.4328 24.0782C13.4328 24.2773 13.2764 24.4338 13.0773 24.4338Z" fill="black"/>
<path d="M13.0773 26.987H3.91818C3.71907 26.987 3.56262 26.8305 3.56262 26.6314C3.56262 26.4323 3.71907 26.2759 3.91818 26.2759H13.0773C13.2764 26.2759 13.4328 26.4323 13.4328 26.6314C13.4328 26.8305 13.2764 26.987 13.0773 26.987Z" fill="black"/>
<path d="M24.7822 26.9868H19.2071C18.3395 26.9868 17.6355 26.2828 17.6355 25.4153V22.7415C17.6355 21.8739 18.3395 21.1699 19.2071 21.1699H25.5502C26.4177 21.1699 27.1217 21.8739 27.1217 22.7415V24.3984C27.1217 24.5975 26.9653 24.7539 26.7662 24.7539C26.5671 24.7539 26.4106 24.5975 26.4106 24.3984V22.7415C26.4106 22.265 26.0266 21.881 25.5502 21.881H19.2071C18.7306 21.881 18.3466 22.265 18.3466 22.7415V25.4153C18.3466 25.8917 18.7306 26.2757 19.2071 26.2757H24.7822C24.9813 26.2757 25.1377 26.4321 25.1377 26.6313C25.1377 26.8304 24.9813 26.9868 24.7822 26.9868Z" fill="black"/>
<path d="M27.3991 28.3664C27.3066 28.3664 27.2142 28.3309 27.1502 28.2598L25.6284 26.738L25.1164 27.25C25.024 27.3424 24.8888 27.378 24.768 27.3424C24.64 27.3069 24.5475 27.2073 24.5191 27.0793L23.8151 23.8936C23.7866 23.7727 23.8222 23.6518 23.9075 23.5664C23.9928 23.4811 24.1208 23.4456 24.2346 23.474L27.4204 24.178C27.5484 24.2064 27.648 24.2989 27.6835 24.4269C27.7191 24.5549 27.6835 24.6829 27.5911 24.7753L27.0791 25.2873L28.6008 26.8091C28.6648 26.8731 28.7075 26.9656 28.7075 27.058C28.7075 27.1504 28.672 27.2429 28.6008 27.3069L27.648 28.2598C27.584 28.3309 27.4915 28.3664 27.3991 28.3664V28.3664ZM25.6284 25.8847C25.7208 25.8847 25.8133 25.9202 25.8773 25.9913L27.3991 27.5131L27.8542 27.058L26.3324 25.5362C26.1902 25.394 26.1902 25.1736 26.3324 25.0313L26.6382 24.7256L24.6328 24.2847L25.0737 26.29L25.3795 25.9842C25.4435 25.9202 25.536 25.8847 25.6284 25.8847Z" fill="black"/>
</svg>
