<svg xmlns="http://www.w3.org/2000/svg" xmlns:xlink="http://www.w3.org/1999/xlink" width="32" height="32" viewBox="0 0 32 32">
  <defs>
    <clipPath id="clip-path">
      <rect id="Rectangle_12556" data-name="Rectangle 12556" width="27.945" height="28"/>
    </clipPath>
  </defs>
  <g id="Group_37669" data-name="Group 37669" transform="translate(10187 1859)">
    <g id="Rectangle_12544" data-name="Rectangle 12544" transform="translate(-10187 -1859)" stroke="#707070" stroke-width="1" opacity="0">
      <rect width="32" height="32" stroke="none"/>
      <rect x="0.5" y="0.5" width="31" height="31" fill="none"/>
    </g>
    <g id="Group_37675" data-name="Group 37675" transform="translate(-10185 -1857)">
      <g id="Group_37675-2" data-name="Group 37675" clip-path="url(#clip-path)">
        <path id="Path_105400" data-name="Path 105400" d="M0,95.286V77.148H1.629v3.263h.279q5.771,0,11.541-.006a.586.586,0,0,0,.378-.145Q16.962,77.138,20.082,74c.032-.032.061-.067.124-.137H16.5V72.223h6.509v6.528H21.4V75.029c-.107.1-.173.156-.235.217q-3.058,3.063-6.119,6.125a.608.608,0,0,0-.2.474q.01,5.741,0,11.482v.313h3.275v1.647Zm1.657-1.662H13.194V82.064H1.657Z" transform="translate(0 -67.286)"/>
        <path id="Path_105401" data-name="Path 105401" d="M360.893,364.136V362.5h1.631v-1.7h1.644v3.336Z" transform="translate(-336.223 -336.136)"/>
        <path id="Path_105402" data-name="Path 105402" d="M3.275,0V1.636H1.647V3.26H0V0Z" transform="translate(0)"/>
        <path id="Path_105403" data-name="Path 105403" d="M364.168,3.281h-1.634V1.647h-1.641V0h3.275Z" transform="translate(-336.223)"/>
        <rect id="Rectangle_12546" data-name="Rectangle 12546" width="3.329" height="1.623" transform="translate(4.912 0)"/>
        <rect id="Rectangle_12547" data-name="Rectangle 12547" width="3.329" height="1.623" transform="translate(9.879 0)"/>
        <rect id="Rectangle_12548" data-name="Rectangle 12548" width="1.619" height="3.336" transform="translate(26.326 19.688)"/>
        <rect id="Rectangle_12549" data-name="Rectangle 12549" width="3.275" height="1.622" transform="translate(14.846)"/>
        <rect id="Rectangle_12550" data-name="Rectangle 12550" width="3.275" height="1.622" transform="translate(19.758)"/>
        <rect id="Rectangle_12551" data-name="Rectangle 12551" width="1.619" height="3.281" transform="translate(26.326 4.922)"/>
        <rect id="Rectangle_12552" data-name="Rectangle 12552" width="1.619" height="3.281" transform="translate(26.326 9.844)"/>
        <rect id="Rectangle_12553" data-name="Rectangle 12553" width="1.619" height="3.281" transform="translate(26.326 14.766)"/>
        <rect id="Rectangle_12554" data-name="Rectangle 12554" width="3.275" height="1.622" transform="translate(19.758 26.378)"/>
        <rect id="Rectangle_12555" data-name="Rectangle 12555" width="1.604" height="3.247" transform="translate(0.014 4.944)"/>
      </g>
    </g>
  </g>
</svg>
