<svg id="Group_37995" data-name="Group 37995" xmlns="http://www.w3.org/2000/svg" width="18.659" height="32" viewBox="0 0 18.659 32">
  <g id="Group_37995-2" data-name="Group 37995" transform="translate(0 0)">
    <path id="Path_105959" data-name="Path 105959" d="M18.646,18.9a1.336,1.336,0,0,0-.285-.825l-.006-.012-3.326-3.636V2.106h-.012A2.371,2.371,0,0,0,12.668,0H2.367A2.372,2.372,0,0,0,.012,2.106H0V24.2a2.37,2.37,0,0,0,2.367,2.367h7.648a3.558,3.558,0,0,0,.668,1.153V32h7.976V18.9ZM2.367.607h10.3a1.758,1.758,0,0,1,1.736,1.5H.625A1.759,1.759,0,0,1,2.367.607Zm9.778,5.044V7.727H11.1V6.774H8.789v.953H8.37v-.34H7.848v.34H6.385V6.774H4.079v.953H3V5.675H6.561V5.141H2.47V7.727H.607V2.713H14.422v5.02H12.68V5.123H8.631v.534h3.514ZM9.311,8.334h1.263v.225H9.311Zm0-.607V7.3h1.263v.431Zm-4.716.607H5.857v.225H4.595Zm0-.607V7.3H5.857v.431ZM.607,8.334H2.47V9.19H3V8.334H4.073V9.08H6.379V8.334H7.842v.31H7.32v.522H6.8v.322H7.32v.5H6.8v.006H5.754V9.469H5.232v.522H4.71v.522H5.2v.528h.558v-.528h.5v.528H6.8v-.528h.528v-.5h.516v-.85H8.37V8.334h.419V9.08H11.1V8.334h1.05v.88h.534v-.88h1.742V18.786l-1.487-1.73a1.618,1.618,0,0,0-2.191-.273A1.527,1.527,0,0,0,10.1,17.8a1.467,1.467,0,0,0,.273,1.1l2.052,2.871c-.018.1-.036.237-.055.413H.607ZM9.863,25.961h-7.5A1.762,1.762,0,0,1,.607,24.2V22.8H12.322a6.042,6.042,0,0,0,.17,1.942A5.411,5.411,0,0,0,13,25.924a.971.971,0,0,1-.14.018c-.018,0-.042.006-.061.006h-.036c-.036,0-.067.006-.1.006h-2.8Zm.8.607h2a.9.9,0,0,0,.127-.006h.036a.673.673,0,0,0,.115-.012h.012c.018,0,.042-.006.061-.006h.012a.41.41,0,0,1,.085-.012h.012c.024-.006.042-.006.061-.012.061-.012.115-.03.176-.049a4.23,4.23,0,0,0,1.7,1.22l.1.049.255-.552-.1-.049a3.763,3.763,0,0,1-1.378-.935,3.491,3.491,0,0,1-.364-.486,4.789,4.789,0,0,1-.5-1.141,5.229,5.229,0,0,1-.14-1.766c.012-.231.036-.437.055-.607.03-.261.061-.425.061-.431l.024-.127-2.209-3.09-.006-.006a.86.86,0,0,1-.164-.649.955.955,0,0,1,.395-.619,1.039,1.039,0,0,1,1.147-.036l-.5.419a.3.3,0,1,0,.388.461l.534-.449,1.754,2.046.607.71.206.237.073.03a2.608,2.608,0,0,1,1.378,1.517L17.25,22a3.218,3.218,0,0,0-1.657-1.839l-.571-.662V15.326l2.859,3.126a.756.756,0,0,1,.152.449v9.517h-6.75v-.941l-.091-.091a2.806,2.806,0,0,1-.528-.819Zm7.375,4.825H11.284V29.026h6.762v2.367Z" transform="translate(0 0)"/>
    <path id="Path_105960" data-name="Path 105960" d="M144.8,191.9h2.6v-2.6h-2.6Zm.589-2.014h1.425v1.425h-1.425Z" transform="translate(-136.17 -177.924)"/>
    <path id="Path_105961" data-name="Path 105961" d="M69.7,189.3H67.1v2.6h2.6Zm-.589,2.014H67.689v-1.425h1.425Z" transform="translate(-63.101 -177.924)"/>
    <path id="Path_105962" data-name="Path 105962" d="M68.9,173.1h.582v.589H68.9Z" transform="translate(-64.733 -162.616)"/>
    <path id="Path_105963" data-name="Path 105963" d="M114.456,164.9h-1.185v1.158H112.1v1.178h.582v1.171h.589v.6h.589v-1.774h-.582v-.555h.582l.007-1.178h.589Z" transform="translate(-105.406 -155.056)"/>
    <path id="Path_105964" data-name="Path 105964" d="M155.7,165.441v.644h.589V165.5h.589v-.6H155.1v.541Z" transform="translate(-145.797 -154.935)"/>
    <path id="Path_105965" data-name="Path 105965" d="M111.9,216.1h.589v.589H111.9Z" transform="translate(-105.133 -203.011)"/>
    <path id="Path_105966" data-name="Path 105966" d="M56.9,156.3h.589v.589H56.9Z" transform="translate(-53.459 -146.833)"/>
    <path id="Path_105967" data-name="Path 105967" d="M181,156.3h.589v.589H181Z" transform="translate(-170.054 -146.833)"/>
    <path id="Path_105968" data-name="Path 105968" d="M112,109.8h.589v.589H112Z" transform="translate(-105.227 -103.15)"/>
    <path id="Path_105969" data-name="Path 105969" d="M146.5,156.3h.589v.589H146.5Z" transform="translate(-137.641 -146.833)"/>
    <path id="Path_105970" data-name="Path 105970" d="M120.6,234.7h.589v.589H120.6Z" transform="translate(-113.307 -220.484)"/>
    <path id="Path_105971" data-name="Path 105971" d="M146.023,187.3h-.6v3.966H141.4v.6h4.623Z" transform="translate(-133.127 -176.143)"/>
    <path id="Path_105972" data-name="Path 105972" d="M41.3,187h-.6v4.617h4.569v-.6H41.3Z" transform="translate(-37.912 -175.863)"/>
    <path id="Path_105973" data-name="Path 105973" d="M102.8,397.8h1.829v.685H102.8Z" transform="translate(-96.636 -373.714)"/>
    <path id="Path_105974" data-name="Path 105974" d="M192.8,492.7h.774v.685H192.8Z" transform="translate(-181.155 -463.063)"/>
  </g>
</svg>
