<svg id="Group_3795600" data-name="Group 3795600" xmlns="http://www.w3.org/2000/svg" width="32" height="32.001" viewBox="0 0 32 32.001">
  <g id="Page-1_94_" transform="translate(0 0)">
    <g id="_x30_95---Event-Management">
      <path id="Shape_343_" d="M31.948,19.156a1.227,1.227,0,0,0-1.024-1.061l-1.133-.186a9.707,9.707,0,0,0-1.123-2.7l.673-.934a1.23,1.23,0,0,0-.027-1.483,9.748,9.748,0,0,0-.742-.817,10.956,10.956,0,0,0-.83-.751V4.8a2.67,2.67,0,0,0-2.667-2.667h-1.6V1.6a1.6,1.6,0,1,0-3.2,0v.533H18.142V1.6a1.6,1.6,0,0,0-3.2,0v.533H12.809V1.6a1.6,1.6,0,0,0-3.2,0v.533H7.476V1.6a1.6,1.6,0,1,0-3.2,0v.533h-1.6A2.67,2.67,0,0,0,.01,4.8V25.065a2.67,2.67,0,0,0,2.667,2.667h8.555l.007.011c.218.267.468.542.743.816.239.239.5.473.828.752a1.22,1.22,0,0,0,1.469.02l.936-.67a9.694,9.694,0,0,0,2.7,1.123l.186,1.132a1.227,1.227,0,0,0,1.067,1.026,10.387,10.387,0,0,0,2.215,0,1.227,1.227,0,0,0,1.061-1.024l.186-1.133a9.694,9.694,0,0,0,2.7-1.123l.934.669a1.227,1.227,0,0,0,1.489-.03c.307-.259.572-.5.812-.739.274-.275.524-.549.751-.828a1.227,1.227,0,0,0,.02-1.472l-.671-.936a9.69,9.69,0,0,0,1.123-2.7l1.132-.186a1.23,1.23,0,0,0,1.026-1.067,10.43,10.43,0,0,0,0-2.209ZM21.342,1.6a.533.533,0,1,1,1.067,0V3.733a.533.533,0,1,1-1.067,0Zm-5.333,0a.533.533,0,1,1,1.067,0V3.733a.533.533,0,1,1-1.067,0Zm-5.333,0a.533.533,0,1,1,1.067,0V3.733a.533.533,0,1,1-1.067,0Zm-5.333,0a.533.533,0,0,1,1.067,0V3.733a.533.533,0,1,1-1.067,0ZM2.676,3.2h1.6v.533a1.6,1.6,0,1,0,3.2,0V3.2H9.609v.533a1.6,1.6,0,1,0,3.2,0V3.2h2.133v.533a1.6,1.6,0,0,0,3.2,0V3.2h2.133v.533a1.6,1.6,0,1,0,3.2,0V3.2h1.6a1.6,1.6,0,0,1,1.6,1.6V6.4H1.077V4.8a1.6,1.6,0,0,1,1.6-1.6Zm8.54,23.054a1.2,1.2,0,0,0-.195.411H2.676a1.6,1.6,0,0,1-1.6-1.6V7.466h25.6v3.545a1.247,1.247,0,0,0-.4.19l-.936.671a9.7,9.7,0,0,0-2.7-1.123l-.186-1.132A1.23,1.23,0,0,0,21.38,8.591a10.387,10.387,0,0,0-2.215,0A1.227,1.227,0,0,0,18.1,9.615l-.186,1.133a9.7,9.7,0,0,0-2.7,1.123l-.935-.67a1.227,1.227,0,0,0-1.483.027c-.267.22-.543.47-.811.737a9.842,9.842,0,0,0-.753.828,1.227,1.227,0,0,0-.026,1.477l.67.936a9.71,9.71,0,0,0-1.12,2.7l-1.132.186A1.227,1.227,0,0,0,8.6,19.161a10.392,10.392,0,0,0,0,2.215,1.227,1.227,0,0,0,1.024,1.06l1.133.186a9.7,9.7,0,0,0,1.12,2.7Zm19.671-5a.166.166,0,0,1-.137.13l-1.487.244a.533.533,0,0,0-.436.419,8.646,8.646,0,0,1-1.246,3.006.533.533,0,0,0,.012.6l.884,1.235a.16.16,0,0,1,.009.178c-.2.239-.422.487-.67.737-.22.219-.457.434-.726.662a.163.163,0,0,1-.2,0l-1.227-.878a.533.533,0,0,0-.6-.012,8.648,8.648,0,0,1-3.006,1.247.533.533,0,0,0-.418.436L21.4,30.743a.16.16,0,0,1-.124.135,9.281,9.281,0,0,1-1.985,0,.16.16,0,0,1-.129-.137l-.244-1.487a.533.533,0,0,0-.418-.436,8.647,8.647,0,0,1-3.007-1.246.533.533,0,0,0-.6.012l-1.23.88a.16.16,0,0,1-.177.018c-.29-.244-.526-.459-.743-.676-.25-.25-.475-.5-.662-.726a.16.16,0,0,1,0-.2l.879-1.227a.533.533,0,0,0,.012-.6,8.656,8.656,0,0,1-1.247-3.006.533.533,0,0,0-.436-.419L9.8,21.386a.166.166,0,0,1-.136-.123,9.314,9.314,0,0,1,0-1.985.16.16,0,0,1,.137-.129l1.487-.244a.533.533,0,0,0,.436-.419,8.655,8.655,0,0,1,1.246-3.007.533.533,0,0,0-.012-.6l-.88-1.227a.164.164,0,0,1-.012-.185,8.781,8.781,0,0,1,.671-.737c.248-.248.5-.473.725-.661a.16.16,0,0,1,.2,0l1.227.879a.533.533,0,0,0,.6.012,8.652,8.652,0,0,1,3.006-1.247.533.533,0,0,0,.418-.436l.244-1.488a.16.16,0,0,1,.123-.135,9.281,9.281,0,0,1,1.985,0,.16.16,0,0,1,.13.138l.244,1.487a.533.533,0,0,0,.418.436,8.652,8.652,0,0,1,3.008,1.243.533.533,0,0,0,.6-.012l1.227-.88a.16.16,0,0,1,.185-.013c.239.2.487.422.741.676a8.707,8.707,0,0,1,.662.727.164.164,0,0,1-.009.191l-.879,1.227a.533.533,0,0,0-.012.6,8.646,8.646,0,0,1,1.247,3.006.533.533,0,0,0,.436.419l1.488.244a.16.16,0,0,1,.135.127,9.449,9.449,0,0,1,.056.993,9.614,9.614,0,0,1-.053.989Z" transform="translate(-0.01 0)"/>
      <path id="Shape_342_" d="M249.561,242.257a7.294,7.294,0,1,0,7.294,7.294,7.294,7.294,0,0,0-7.294-7.294Zm0,13.546a6.252,6.252,0,1,1,6.252-6.252A6.252,6.252,0,0,1,249.561,255.8Z" transform="translate(-229.3 -228.876)"/>
      <path id="Shape_341_" d="M301.873,295.548l-2.153-.306-.961-1.908a1.1,1.1,0,0,0-1.967,0l-.961,1.908-2.153.306a1.09,1.09,0,0,0-.891.748,1.077,1.077,0,0,0,.284,1.113l1.552,1.481-.366,2.089a1.076,1.076,0,0,0,.427,1.059,1.1,1.1,0,0,0,1.163.092l1.929-.993,1.929.993a1.1,1.1,0,0,0,1.163-.092,1.076,1.076,0,0,0,.427-1.059l-.366-2.089,1.552-1.481a1.075,1.075,0,0,0,.285-1.113A1.09,1.09,0,0,0,301.873,295.548Zm-1.935,2.739a.56.56,0,0,0-.165.5l.444,2.343-2.185-1.126a.56.56,0,0,0-.513,0l-2.159,1.164.417-2.384a.56.56,0,0,0-.165-.5l-1.715-1.638,2.381-.339a.56.56,0,0,0,.421-.3l1.071-2.145,1.08,2.145a.56.56,0,0,0,.421.3l2.381.339Z" transform="translate(-277.602 -277.574)"/>
    </g>
  </g>
</svg>
