<svg xmlns="http://www.w3.org/2000/svg" width="32" height="32.001" viewBox="0 0 32 32.001">
  <g id="Group_37933" data-name="Group 37933" transform="translate(-1 -1)">
    <g id="Group_37933-2" data-name="Group 37933" transform="translate(1 1)">
      <path id="Path_105735" data-name="Path 105735" d="M28.621,19.062V4.911a2.46,2.46,0,0,0-2.457-2.457H24.129a2.168,2.168,0,0,0-4.094,0H9.589a2.168,2.168,0,0,0-4.094,0H3.457A2.46,2.46,0,0,0,1,4.911V26.165a2.46,2.46,0,0,0,2.457,2.457h15.6a7.269,7.269,0,1,0,9.56-9.56ZM21.353,3.181a.727.727,0,1,1,1.454,0V4.635a.727.727,0,1,1-1.454,0Zm-14.538,0a.727.727,0,1,1,1.454,0V4.635a.727.727,0,1,1-1.454,0Zm-3.358.727h1.9v.727a2.181,2.181,0,0,0,4.361,0V3.908H19.9v.727a2.181,2.181,0,0,0,4.361,0V3.908h1.9a1,1,0,0,1,1,1V8.269H2.454V4.911A1,1,0,0,1,3.457,3.908Zm0,23.26a1,1,0,0,1-1-1V9.723H27.168v8.868a7.269,7.269,0,0,0-8.577,8.577Zm22.257,4.361a5.815,5.815,0,1,1,5.815-5.815A5.815,5.815,0,0,1,25.714,31.529Z" transform="translate(-1 -1)"/>
      <path id="Path_105736" data-name="Path 105736" d="M18.5,17.793V16a.5.5,0,0,0-1,0v2a.5.5,0,0,0,.146.354l1,1a.5.5,0,0,0,.708-.708Z" transform="translate(7.236 7.042)"/>
      <path id="Path_105737" data-name="Path 105737" d="M11.5,14h-2a.5.5,0,0,0-.5.5v2a.5.5,0,0,0,.5.5h2a.5.5,0,0,0,.5-.5v-2A.5.5,0,0,0,11.5,14ZM11,16H10V15h1Z" transform="translate(3.203 5.83)"/>
      <path id="Path_105738" data-name="Path 105738" d="M6.5,14h-2a.5.5,0,0,0-.5.5v2a.5.5,0,0,0,.5.5h2a.5.5,0,0,0,.5-.5v-2A.5.5,0,0,0,6.5,14ZM6,16H5V15H6Z" transform="translate(-1 5.83)"/>
      <path id="Path_105739" data-name="Path 105739" d="M14.5,12h2a.5.5,0,0,0,.5-.5v-2a.5.5,0,0,0-.5-.5h-2a.5.5,0,0,0-.5.5v2A.5.5,0,0,0,14.5,12Zm.5-2h1v1H15Z" transform="translate(5.83 3.204)"/>
      <path id="Path_105740" data-name="Path 105740" d="M11.5,9h-2a.5.5,0,0,0-.5.5v2a.5.5,0,0,0,.5.5h2a.5.5,0,0,0,.5-.5v-2A.5.5,0,0,0,11.5,9ZM11,11H10V10h1Z" transform="translate(3.203 3.204)"/>
      <path id="Path_105741" data-name="Path 105741" d="M6.5,9h-2a.5.5,0,0,0-.5.5v2a.5.5,0,0,0,.5.5h2a.5.5,0,0,0,.5-.5v-2A.5.5,0,0,0,6.5,9ZM6,11H5V10H6Z" transform="translate(-1 3.204)"/>
    </g>
  </g>
</svg>
