<svg width="32" height="32" viewBox="0 0 32 32" fill="none" xmlns="http://www.w3.org/2000/svg">
<path d="M21.9344 0.415176H22.3641C23.283 0.415176 24.1506 0.819551 24.7445 1.52468C24.8166 1.61024 24.9448 1.62174 25.0311 1.54918C25.1171 1.47686 25.1281 1.34843 25.0557 1.26243C24.3843 0.465426 23.4033 0.00830078 22.3641 0.00830078H21.9344C21.822 0.00830078 21.731 0.0993633 21.731 0.211738C21.731 0.324113 21.822 0.415176 21.9344 0.415176V0.415176Z" fill="black"/>
<path d="M25.6581 2.28606C25.6179 2.18131 25.5003 2.12837 25.3953 2.16893C25.2903 2.20899 25.2379 2.32674 25.278 2.43168C25.3538 2.62956 25.4081 2.83493 25.4394 3.04187C25.4556 3.14931 25.5548 3.22893 25.6709 3.21274C25.7821 3.19587 25.8585 3.09224 25.8418 2.98118C25.8061 2.74531 25.7443 2.51149 25.6581 2.28606Z" fill="black"/>
<path d="M6.35932 23.7134C6.24695 23.7134 6.15588 23.8044 6.15588 23.9168V26.9588C6.15588 27.0712 6.24695 27.1623 6.35932 27.1623C6.4717 27.1623 6.56276 27.0712 6.56276 26.9588V23.9168C6.56276 23.8045 6.4717 23.7134 6.35932 23.7134V23.7134Z" fill="black"/>
<path d="M6.35932 22.1006C6.24695 22.1006 6.15588 22.1916 6.15588 22.304V22.8606C6.15588 22.973 6.24695 23.0641 6.35932 23.0641C6.4717 23.0641 6.56276 22.973 6.56276 22.8606V22.304C6.56276 22.1916 6.4717 22.1006 6.35932 22.1006Z" fill="black"/>
<path d="M22.1015 3.69092H9.94129C9.29061 3.69092 8.76123 4.22023 8.76123 4.87098V27.5354C8.76123 28.1861 9.29061 28.7154 9.94136 28.7154L22.1016 28.714C22.7523 28.714 23.2816 28.1847 23.2816 27.5339V4.87098C23.2816 4.22023 22.7522 3.69092 22.1015 3.69092V3.69092ZM22.8747 27.5339C22.8747 27.9602 22.5279 28.307 22.1017 28.307L9.94142 28.3085C9.51504 28.3085 9.16823 27.9617 9.16823 27.5354V4.87098C9.16823 4.44467 9.51504 4.09786 9.94136 4.09786H22.1016C22.5279 4.09786 22.8747 4.44467 22.8747 4.87098V27.5339Z" fill="black"/>
<path d="M16.0214 29.2886C15.5462 29.2886 15.1595 29.6751 15.1595 30.1503C15.1595 30.6255 15.5462 31.0121 16.0214 31.0121C16.4965 31.0121 16.8831 30.6255 16.8831 30.1503C16.8831 29.6751 16.4965 29.2886 16.0214 29.2886ZM16.0214 30.6052C15.7705 30.6052 15.5664 30.4011 15.5664 30.1503C15.5664 29.8994 15.7705 29.6955 16.0214 29.6955C16.2722 29.6955 16.4762 29.8994 16.4762 30.1503C16.4762 30.4011 16.2722 30.6052 16.0214 30.6052Z" fill="black"/>
<path d="M14.5661 2.90736H19.7483C19.8607 2.90736 19.9517 2.8163 19.9517 2.70393C19.9517 2.59155 19.8607 2.50049 19.7483 2.50049H14.5661C14.4537 2.50049 14.3627 2.59155 14.3627 2.70393C14.3627 2.8163 14.4537 2.90736 14.5661 2.90736Z" fill="black"/>
<path d="M12.6918 3.30453C13.0231 3.30453 13.2926 3.03509 13.2926 2.70384C13.2926 2.37259 13.0231 2.10303 12.6918 2.10303C12.3606 2.10303 12.0911 2.37259 12.0911 2.70384C12.0911 3.03509 12.3606 3.30453 12.6918 3.30453ZM12.6918 2.50996C12.7987 2.50996 12.8856 2.5969 12.8856 2.7039C12.8856 2.81071 12.7987 2.89765 12.6918 2.89765C12.5849 2.89765 12.498 2.81071 12.498 2.7039C12.498 2.5969 12.5849 2.50996 12.6918 2.50996Z" fill="black"/>
<path d="M24.8008 5.07211H24.5845V3.53061C24.5845 2.30655 23.5885 1.31055 22.3644 1.31055H9.67838C8.45419 1.31055 7.45825 2.30655 7.45825 3.53061V29.3958C7.45825 30.8273 8.62288 31.9919 10.0544 31.9919H21.99C23.4206 31.9919 24.5845 30.8273 24.5845 29.3958V13.4806H24.8008C25.1929 13.4806 25.5121 13.1616 25.5121 12.7693V11.4379C25.5121 11.0456 25.193 10.7266 24.8008 10.7266H24.5845V10.4303H24.8008C25.1929 10.4303 25.5121 10.1113 25.5121 9.71898V5.78336C25.5121 5.39111 25.1929 5.07211 24.8008 5.07211V5.07211ZM21.99 31.585H10.0544C8.84725 31.585 7.86513 30.6029 7.86513 29.3958V3.53061C7.86513 2.5308 8.67856 1.71742 9.67838 1.71742H22.3644C23.3642 1.71742 24.1776 2.5308 24.1776 3.53061C24.1774 6.81561 24.1776 28.7268 24.1776 29.3958C24.1776 30.6029 23.1963 31.585 21.99 31.585ZM24.8008 11.1335C24.9686 11.1335 25.1051 11.2701 25.1051 11.4379V12.7693C25.1051 12.9372 24.9686 13.0737 24.8008 13.0737H24.5845V11.1335H24.8008V11.1335ZM25.1051 9.71905C25.1051 9.88692 24.9686 10.0234 24.8008 10.0234H24.5845V5.47905H24.8008C24.9686 5.47905 25.1051 5.61561 25.1051 5.78342V9.71905Z" fill="black"/>
<path d="M21.5009 18.0041C21.5747 17.8952 21.6178 17.7641 21.6178 17.623C21.6178 17.3184 21.4153 17.0629 21.1385 16.9757V14.3915C21.1385 14.3001 21.0655 14.2184 20.9938 14.1968L15.8278 12.638C15.6491 12.5842 15.4603 12.5841 15.2815 12.6382L10.4391 14.0991C10.15 14.1865 10.1503 14.5972 10.4392 14.6839L11.926 15.1326V16.9949C11.926 17.3529 12.1542 17.6654 12.4937 17.7727C14.6074 18.44 16.7519 18.4402 18.8666 17.7727C19.2063 17.6654 19.4344 17.3529 19.4344 16.9949V15.0569L20.7315 14.6655V16.9757C20.4551 17.0628 20.2528 17.3184 20.2528 17.6232C20.2528 17.7643 20.2959 17.8955 20.3696 18.0044L20.0646 19.2111C19.9878 19.5144 20.2173 19.8087 20.5299 19.8087H21.3405C21.6535 19.8087 21.8825 19.5141 21.8058 19.2111L21.5009 18.0041ZM19.0276 16.9948C19.0276 17.1744 18.9138 17.331 18.7443 17.3844C16.7113 18.0261 14.6496 18.0261 12.6163 17.3844C12.4468 17.3309 12.333 17.1744 12.333 16.9948V15.2553L15.2816 16.1451C15.4668 16.2007 15.6553 16.1971 15.8279 16.1449L19.0276 15.1794V16.9948ZM15.7104 15.7553C15.6085 15.7861 15.5008 15.786 15.3991 15.7555L10.8786 14.3916L15.3989 13.0277C15.5008 12.9969 15.6084 12.9971 15.7103 13.0276L20.2306 14.3915L15.7104 15.7553ZM20.9346 17.3482C21.087 17.3482 21.2109 17.4716 21.2109 17.623C21.2109 17.7745 21.087 17.8978 20.9346 17.8978C20.7831 17.8978 20.6598 17.7744 20.6598 17.623C20.6598 17.4716 20.7831 17.3482 20.9346 17.3482ZM21.3407 19.4017H20.5301C20.4818 19.4017 20.4477 19.3562 20.4593 19.3107L20.7229 18.2677C20.7899 18.2898 20.8603 18.3047 20.9347 18.3047C21.0096 18.3047 21.0803 18.2897 21.1478 18.2674L21.4115 19.3107C21.4231 19.3563 21.3889 19.4017 21.3407 19.4017V19.4017Z" fill="black"/>
<path d="M10.2668 10.5619C10.1544 10.5619 10.0634 10.4708 10.0634 10.3585V8.69172C10.0634 8.57934 10.1544 8.48828 10.2668 8.48828C10.3792 8.48828 10.4702 8.57934 10.4702 8.69172V10.3585C10.4702 10.4708 10.3792 10.5619 10.2668 10.5619Z" fill="black"/>
<path d="M10.2668 7.83557C10.1544 7.83557 10.0634 7.74451 10.0634 7.63213V7.07551C10.0634 6.96313 10.1544 6.87207 10.2668 6.87207C10.3792 6.87207 10.4702 6.96313 10.4702 7.07551V7.63213C10.4702 7.74451 10.3792 7.83557 10.2668 7.83557Z" fill="black"/>
</svg>
