<svg id="Group_37957" data-name="Group 37957" xmlns="http://www.w3.org/2000/svg" width="32" height="32" viewBox="0 0 32 32">
  <g id="Group_37957-2" data-name="Group 37957" transform="translate(0)">
    <path id="Path_105776" data-name="Path 105776" d="M81.744,184.371a.5.5,0,0,0-.5.5v8.566a.5.5,0,0,0,.417.494c.035.006.085.015,1.015.015.451,0,1.11,0,2.074-.007a.5.5,0,0,0,0-1h0c-.76,0-1.873.008-2.5.007v-8.072A.5.5,0,0,0,81.744,184.371Z" transform="translate(-76.212 -173.159)"/>
    <path id="Path_105777" data-name="Path 105777" d="M173.431,184.872v8.573a.5.5,0,1,0,1,0v-8.573a.5.5,0,0,0-1,0Z" transform="translate(-162.614 -173.159)"/>
    <path id="Path_105778" data-name="Path 105778" d="M368.293,185.96a.5.5,0,1,0,0-1h-3.579a.5.5,0,0,0-.5.5v8.5a.5.5,0,0,0,.5.5h3.579a.5.5,0,1,0,0-1h-3.078v-3.245h2.814a.5.5,0,1,0,0-1h-2.814V185.96Z" transform="translate(-341.693 -173.706)"/>
    <path id="Path_105779" data-name="Path 105779" d="M228.012,184.728l-2.513,7.565-2.634-7.587a.5.5,0,0,0-.947.329l2.932,8.448a.7.7,0,0,0,.655.462h0a.7.7,0,0,0,.654-.475l2.8-8.426a.5.5,0,0,0-.952-.316Z" transform="translate(-208.275 -173.157)"/>
    <path id="Path_105780" data-name="Path 105780" d="M106.969,128.258h-1.659a.5.5,0,1,0,0,1h1.659a1.056,1.056,0,0,1,1.055,1.055v12.962a1.056,1.056,0,0,1-1.055,1.055H80.662a.5.5,0,1,0,0,1h26.307a2.06,2.06,0,0,0,2.058-2.058V130.316a2.06,2.06,0,0,0-2.058-2.058Z" transform="translate(-77.027 -120.797)"/>
    <path id="Path_105781" data-name="Path 105781" d="M3.716,144.333H2.058A1.056,1.056,0,0,1,1,143.278V130.316a1.056,1.056,0,0,1,1.055-1.055H28.365a.5.5,0,1,0,0-1H2.058A2.06,2.06,0,0,0,0,130.316v12.962a2.06,2.06,0,0,0,2.058,2.058H3.716a.5.5,0,1,0,0-1Z" transform="translate(0 -120.797)"/>
    <path id="Path_105782" data-name="Path 105782" d="M148.688,4.5a.5.5,0,0,0,.7-.138,7.534,7.534,0,0,1,12.54,0,.5.5,0,1,0,.834-.557,8.536,8.536,0,0,0-14.207,0,.5.5,0,0,0,.138.7Z" transform="translate(-139.654)"/>
    <path id="Path_105783" data-name="Path 105783" d="M190.81,43.247a.5.5,0,1,0,.834-.557,5.858,5.858,0,0,0-9.749,0,.5.5,0,1,0,.834.557,4.856,4.856,0,0,1,8.082,0Z" transform="translate(-170.769 -37.402)"/>
    <path id="Path_105784" data-name="Path 105784" d="M217.892,80.161a3.176,3.176,0,0,0-2.645,1.417.5.5,0,1,0,.834.557,2.175,2.175,0,0,1,3.623,0,.5.5,0,0,0,.834-.557A3.176,3.176,0,0,0,217.892,80.161Z" transform="translate(-201.892 -75.175)"/>
    <path id="Path_105785" data-name="Path 105785" d="M162.619,443.531a.5.5,0,0,0-.7.138,7.534,7.534,0,0,1-12.54,0,.5.5,0,1,0-.834.557,8.536,8.536,0,0,0,14.207,0A.5.5,0,0,0,162.619,443.531Z" transform="translate(-139.654 -416.029)"/>
    <path id="Path_105786" data-name="Path 105786" d="M182.728,421.44a.5.5,0,1,0-.834.557,5.858,5.858,0,0,0,9.749,0,.5.5,0,1,0-.834-.557,4.856,4.856,0,0,1-8.082,0Z" transform="translate(-170.769 -395.285)"/>
    <path id="Path_105787" data-name="Path 105787" d="M217.894,401.178a3.176,3.176,0,0,0,2.645-1.417.5.5,0,0,0-.834-.557,2.175,2.175,0,0,1-3.623,0,.5.5,0,0,0-.834.557A3.176,3.176,0,0,0,217.894,401.178Z" transform="translate(-201.894 -374.164)"/>
  </g>
</svg>
