<svg xmlns="http://www.w3.org/2000/svg" width="32" height="32.002" viewBox="0 0 32 32.002">
  <g id="Group_37996" data-name="Group 37996" transform="translate(-4.557 -4.557)">
    <g id="Group_37996-2" data-name="Group 37996" transform="translate(4.557 4.557)">
      <path id="Path_105969" data-name="Path 105969" d="M19.219,21.491,21.49,19.22a.479.479,0,0,0,0-.678l-1.21-1.21a7.3,7.3,0,0,0,.595-1.435h1.71a.48.48,0,0,0,.48-.48V12.206a.48.48,0,0,0-.48-.48H20.879a7.247,7.247,0,0,0-.6-1.436L21.49,9.082a.48.48,0,0,0,0-.679L19.219,6.132a.479.479,0,0,0-.678,0L17.333,7.34a7.247,7.247,0,0,0-1.436-.6V5.037a.48.48,0,0,0-.48-.48H12.205a.48.48,0,0,0-.48.48v1.71a7.313,7.313,0,0,0-1.434.6L9.082,6.132a.48.48,0,0,0-.679,0L6.132,8.4a.48.48,0,0,0,0,.679l1.209,1.209a7.318,7.318,0,0,0-.6,1.435H5.037a.48.48,0,0,0-.48.48v3.211a.48.48,0,0,0,.48.48H6.743a7.245,7.245,0,0,0,.6,1.436L6.132,18.541a.479.479,0,0,0,0,.678L8.4,21.491a.48.48,0,0,0,.679,0l1.208-1.208a7.262,7.262,0,0,0,1.436.6v1.707a.48.48,0,0,0,.48.48h3.212a.48.48,0,0,0,.48-.48v-1.71a7.313,7.313,0,0,0,1.434-.6l1.21,1.21A.48.48,0,0,0,19.219,21.491Zm-1.47-2.149a.479.479,0,0,0-.59-.07,6.353,6.353,0,0,1-1.854.768.48.48,0,0,0-.368.466v1.6H12.685V20.51a.48.48,0,0,0-.369-.466,6.312,6.312,0,0,1-1.852-.771.48.48,0,0,0-.591.069l-1.131,1.13L7.15,18.88l1.13-1.13a.48.48,0,0,0,.069-.591,6.309,6.309,0,0,1-.77-1.853.48.48,0,0,0-.466-.369h-1.6V12.685h1.6a.48.48,0,0,0,.466-.368,6.339,6.339,0,0,1,.768-1.853.481.481,0,0,0-.07-.591L7.15,8.742,8.742,7.15,9.873,8.281a.48.48,0,0,0,.591.07,6.352,6.352,0,0,1,1.853-.768.48.48,0,0,0,.368-.466v-1.6h2.252v1.6a.48.48,0,0,0,.369.466,6.31,6.31,0,0,1,1.853.77.479.479,0,0,0,.591-.069l1.13-1.13,1.592,1.593-1.13,1.13a.481.481,0,0,0-.069.591,6.3,6.3,0,0,1,.77,1.853.48.48,0,0,0,.466.369h1.6v2.252h-1.6a.48.48,0,0,0-.466.369,6.349,6.349,0,0,1-.768,1.853.479.479,0,0,0,.07.59l1.13,1.131L18.88,20.472Z" transform="translate(-4.557 -4.557)"/>
      <path id="Path_105970" data-name="Path 105970" d="M27.312,23.158a4.154,4.154,0,1,0,4.154,4.154,4.154,4.154,0,0,0-4.154-4.154Zm0,7.349a3.194,3.194,0,1,1,3.194-3.194,3.194,3.194,0,0,1-3.194,3.194Z" transform="translate(-18.183 -18.183)"/>
      <path id="Path_105971" data-name="Path 105971" d="M73.972,63.111H72.265a7.245,7.245,0,0,0-.6-1.436l1.208-1.208a.479.479,0,0,0,0-.678l-2.271-2.271a.48.48,0,0,0-.679,0l-1.208,1.208a7.265,7.265,0,0,0-1.436-.6V56.422a.48.48,0,0,0-.48-.48H63.592a.48.48,0,0,0-.48.48v1.71a7.308,7.308,0,0,0-1.435.6l-1.209-1.209a.479.479,0,0,0-.678,0l-2.271,2.271a.48.48,0,0,0,0,.678l1.21,1.21a7.288,7.288,0,0,0-.595,1.435h-1.71a.48.48,0,0,0-.48.48V66.8a.48.48,0,0,0,.48.48h1.707a7.247,7.247,0,0,0,.6,1.436l-1.208,1.208a.48.48,0,0,0,0,.679l2.271,2.271a.479.479,0,0,0,.678,0l1.208-1.206a7.241,7.241,0,0,0,1.436.6v1.707a.48.48,0,0,0,.48.48H66.8a.48.48,0,0,0,.48-.48v-1.71a7.307,7.307,0,0,0,1.435-.6l1.209,1.209a.48.48,0,0,0,.679,0l2.271-2.271a.48.48,0,0,0,0-.679l-1.209-1.21a7.313,7.313,0,0,0,.6-1.434h1.71a.48.48,0,0,0,.48-.48V63.591a.48.48,0,0,0-.48-.48Zm-.48,3.212h-1.6a.48.48,0,0,0-.466.368,6.351,6.351,0,0,1-.768,1.853.48.48,0,0,0,.07.591l1.131,1.131-1.592,1.592-1.131-1.131a.481.481,0,0,0-.591-.07,6.356,6.356,0,0,1-1.854.768.48.48,0,0,0-.368.466v1.6H64.071v-1.6a.48.48,0,0,0-.369-.466,6.31,6.31,0,0,1-1.853-.77.479.479,0,0,0-.591.069l-1.13,1.13-1.592-1.591,1.13-1.13a.48.48,0,0,0,.069-.591,6.308,6.308,0,0,1-.77-1.853.48.48,0,0,0-.466-.369H56.9V64.071h1.6a.48.48,0,0,0,.466-.369,6.349,6.349,0,0,1,.768-1.853.479.479,0,0,0-.07-.59l-1.129-1.131,1.592-1.592,1.131,1.131a.479.479,0,0,0,.59.07,6.353,6.353,0,0,1,1.854-.768.48.48,0,0,0,.368-.466V56.9h2.252v1.6a.48.48,0,0,0,.369.466,6.314,6.314,0,0,1,1.853.77.479.479,0,0,0,.591-.069l1.13-1.131,1.592,1.592-1.13,1.13a.48.48,0,0,0-.069.591,6.3,6.3,0,0,1,.77,1.853.48.48,0,0,0,.466.369h1.6Z" transform="translate(-42.451 -42.451)"/>
      <path id="Path_105972" data-name="Path 105972" d="M78.7,74.544A4.154,4.154,0,1,0,82.852,78.7,4.154,4.154,0,0,0,78.7,74.544Zm0,7.349A3.194,3.194,0,1,1,81.892,78.7,3.194,3.194,0,0,1,78.7,81.893Z" transform="translate(-55.826 -55.826)"/>
      <path id="Path_105973" data-name="Path 105973" d="M75.8,18.368A12.312,12.312,0,0,1,82.6,23.4a2.111,2.111,0,1,0,.842-.466,13.268,13.268,0,0,0-7.367-5.481.48.48,0,1,0-.271.921Zm9.347,6.585A1.144,1.144,0,1,1,84,23.81,1.144,1.144,0,0,1,85.147,24.954Z" transform="translate(-56.614 -13.899)"/>
      <path id="Path_105974" data-name="Path 105974" d="M23.961,84.105a12.312,12.312,0,0,1-6.8-5.027,2.111,2.111,0,1,0-.842.466,13.267,13.267,0,0,0,7.366,5.481.48.48,0,0,0,.271-.92ZM14.613,77.52a1.144,1.144,0,1,1,1.144,1.145A1.144,1.144,0,0,1,14.613,77.52Z" transform="translate(-11.147 -56.575)"/>
    </g>
  </g>
</svg>
