<svg xmlns="http://www.w3.org/2000/svg" width="60" height="55.08" viewBox="0 0 60 55.08">
  <g id="Group_37741" data-name="Group 37741" transform="translate(0 -20.992)">
    <path id="Path_105449" data-name="Path 105449" d="M58.532,57A5.034,5.034,0,0,0,55.4,55.691a21.635,21.635,0,0,0-2.811-20.348,1.182,1.182,0,1,0-1.905,1.4,19.254,19.254,0,0,1,1.879,19.589,4.822,4.822,0,0,0-.918.666l-7.994,7.382c-.119.11-.66.466-2.656.466H40.96c-3.138-.009-7.914-.017-11.521-.024l-1.7,0a1.565,1.565,0,0,1-1.661-1.443,1.586,1.586,0,0,1,1.661-1.446h7.575a4.271,4.271,0,0,0,4.383-4.138,3.927,3.927,0,0,0-.05-.626,5.352,5.352,0,0,0-2.168-10.23H32.918a2.989,2.989,0,0,1,0-5.978h8.694a1.182,1.182,0,1,0,0-2.364H36.357l.007-2.845a1.182,1.182,0,0,0-1.179-1.185h0A1.182,1.182,0,0,0,34,35.745L33.993,38.6H32.918a5.353,5.353,0,0,0,0,10.705h4.559a2.985,2.985,0,0,1,1.108,5.743,4.488,4.488,0,0,0-3.273-1.39H16.765a19.349,19.349,0,0,1-.3-9.949q.212.139.428.268a3.251,3.251,0,0,0,1.658.585,3.267,3.267,0,0,0,1.661-.584A17.285,17.285,0,0,0,26.3,37.08a19.652,19.652,0,0,0,2.274-7.028,19.26,19.26,0,0,1,14.4.48,1.182,1.182,0,0,0,.961-2.159,21.638,21.638,0,0,0-15.306-.839c-.167-1.284-.83-1.711-1.83-2.249l-7.692-4.151a1.182,1.182,0,0,0-1.123,0l-7.7,4.153a2.762,2.762,0,0,0-1.87,2.889,18.727,18.727,0,0,0,2.375,8.9,20.3,20.3,0,0,0,3.65,5,21.7,21.7,0,0,0-.06,11.874,9.242,9.242,0,0,0-2.831,1.268A4.157,4.157,0,0,0,7.435,52.01H4.2A4.1,4.1,0,0,0,0,55.985V71.748A4.1,4.1,0,0,0,4.2,75.72H7.435a4.1,4.1,0,0,0,4.2-3.972v-.025l7.49,3.359c.025.011.051.022.076.031,2.321.852,5.283.91,13.513.953,6.231.007,7.044.007,8.227.007,2.975,0,4.5-.27,6.192-1.938q5.291-4.891,10.585-9.779l.81-.748a4.453,4.453,0,0,0,0-6.609ZM9.275,71.748a1.738,1.738,0,0,1-1.84,1.609H4.2a1.738,1.738,0,0,1-1.84-1.609V55.985A1.761,1.761,0,0,1,4.2,54.373H7.435a1.761,1.761,0,0,1,1.84,1.612V71.748Zm3.608-35.785A16.366,16.366,0,0,1,10.788,28.2a2.354,2.354,0,0,1,.037-.486,5.734,5.734,0,0,1,.59-.342l7.137-3.851,7.1,3.834.029.016a5.737,5.737,0,0,1,.591.343,2.392,2.392,0,0,1,.037.489,16.328,16.328,0,0,1-2.094,7.765A15,15,0,0,1,19,41.945a3.432,3.432,0,0,1-.448.24,3.449,3.449,0,0,1-.444-.239h0a15.207,15.207,0,0,1-5.223-5.982ZM56.928,61.871l-.81.748q-5.3,4.9-10.6,9.793l-.028.027c-1,.984-1.713,1.27-4.545,1.27-1.182,0-2,0-8.219-.007-7.532-.039-10.694-.083-12.669-.795l-8.418-3.775V58.259a6.8,6.8,0,0,1,5.074-2.241h18.6a2.07,2.07,0,0,1,1.786.949l.019.035a1.591,1.591,0,0,1,.214.79,1.911,1.911,0,0,1-2.019,1.775H27.738a3.814,3.814,0,1,0,0,7.616l1.7,0c3.607.006,8.382.015,11.52.023H41c2.1,0,3.455-.348,4.262-1.094l7.994-7.382a2.789,2.789,0,0,1,3.676,0,2.091,2.091,0,0,1,0,3.137Z" transform="translate(0 0)" fill="#fe5c58"/>
    <path id="Path_105450" data-name="Path 105450" d="M400.969,109.611a1.373,1.373,0,0,0,.971-2.344l0,0a1.373,1.373,0,1,0-.967,2.347Z" transform="translate(-353.078 -75.88)" fill="#fe5c58"/>
    <path id="Path_105451" data-name="Path 105451" d="M130.346,96.315a1.369,1.369,0,0,0,.983-.415l4.845-4.97a1.373,1.373,0,0,0-1.966-1.917L130.3,93.021l-1.355-1.269a1.373,1.373,0,0,0-1.876,2l2.338,2.188A1.369,1.369,0,0,0,130.346,96.315Z" transform="translate(-112.194 -58.404)" fill="#fe5c58"/>
  </g>
</svg>
