<svg xmlns="http://www.w3.org/2000/svg" width="56.285" height="61" viewBox="0 0 56.285 61">
  <g id="Group_37806" data-name="Group 37806" transform="translate(-19.616 0.5)">
    <g id="Group_37806-2" data-name="Group 37806" transform="translate(20.116 0)">
      <path id="Path_105555" data-name="Path 105555" d="M196.164,15.951h-.649a18.1,18.1,0,0,0-1.6-3.862l.461-.461a2.807,2.807,0,0,0,0-3.962L191.3,4.6a2.8,2.8,0,0,0-3.964,0l-.461.461a18.039,18.039,0,0,0-3.862-1.6V2.8a2.805,2.805,0,0,0-2.8-2.8h-4.345a2.806,2.806,0,0,0-2.8,2.8v.649a18.092,18.092,0,0,0-3.865,1.6l-.459-.459a2.8,2.8,0,0,0-3.964,0l-3.072,3.073a2.807,2.807,0,0,0,0,3.962l.461.461a18.013,18.013,0,0,0-1.6,3.862h-.651a2.806,2.806,0,0,0-2.8,2.8V23.1a2.806,2.806,0,0,0,2.8,2.8h.651a18.019,18.019,0,0,0,1.6,3.862l-.461.461a2.807,2.807,0,0,0,0,3.962l3.07,3.07a2.776,2.776,0,0,0,1.983.823h0a2.775,2.775,0,0,0,1.981-.821l.461-.461a18,18,0,0,0,3.865,1.6v.651a2.806,2.806,0,0,0,2.8,2.8h4.345a2.806,2.806,0,0,0,2.8-2.8V38.4a17.946,17.946,0,0,0,3.862-1.6l.458.458a2.8,2.8,0,0,0,3.964,0l3.077-3.073a2.807,2.807,0,0,0,0-3.962l-.461-.461a18.111,18.111,0,0,0,1.6-3.862h.649a2.806,2.806,0,0,0,2.8-2.8V18.754a2.805,2.805,0,0,0-2.8-2.8Zm-15.649,23.1a.306.306,0,0,1-.3.3h-4.345a.306.306,0,0,1-.3-.3v-9.5a1.25,1.25,0,0,0-.815-1.172A8.563,8.563,0,0,1,172.9,13.244c.106-.072.2-.131.281-.18,0,.163-.016.317-.022.4-.009.127-.017.227-.017.326v5.9a5.173,5.173,0,0,0,4.818,5.149,1.26,1.26,0,0,0,.166,0,5.171,5.171,0,0,0,4.814-5.149v-5.9c0-.1-.007-.2-.017-.325-.006-.081-.018-.236-.022-.4.082.048.175.107.28.179a8.564,8.564,0,0,1-1.849,15.133,1.25,1.25,0,0,0-.815,1.172v9.5ZM196.467,23.1a.31.31,0,0,1-.3.3h-1.62a1.25,1.25,0,0,0-1.219.974,15.637,15.637,0,0,1-2.038,4.917,1.25,1.25,0,0,0,.173,1.552L192.609,32a.307.307,0,0,1,0,.425L189.53,35.5a.3.3,0,0,1-.423,0l-1.148-1.148a1.25,1.25,0,0,0-1.553-.172,15.511,15.511,0,0,1-3.389,1.609v-5.4a11.062,11.062,0,0,0,1.575-19.2c-.466-.318-1.881-1.286-3.12-.573-1.216.7-1.095,2.341-1.043,3.042,0,.061.009.112.01.141v5.9a2.41,2.41,0,1,1-4.8,0V13.8c0-.038.006-.089.01-.15.052-.7.174-2.341-1.041-3.041-1.238-.714-2.656.254-3.122.573a11.061,11.061,0,0,0,1.578,19.2v5.4a15.593,15.593,0,0,1-3.394-1.61,1.25,1.25,0,0,0-1.552.173L166.97,35.5a.3.3,0,0,1-.423,0l-3.072-3.073a.307.307,0,0,1,0-.426l1.148-1.148A1.25,1.25,0,0,0,164.8,29.3a15.556,15.556,0,0,1-2.038-4.915,1.25,1.25,0,0,0-1.22-.976h-1.623a.31.31,0,0,1-.3-.3V18.754a.306.306,0,0,1,.3-.3h1.623a1.25,1.25,0,0,0,1.22-.976A15.552,15.552,0,0,1,164.8,12.56a1.25,1.25,0,0,0-.173-1.552L163.474,9.86a.307.307,0,0,1,0-.426l3.075-3.075a.3.3,0,0,1,.423,0l1.148,1.148a1.25,1.25,0,0,0,1.552.173,15.628,15.628,0,0,1,4.92-2.042,1.25,1.25,0,0,0,.975-1.219V2.8a.306.306,0,0,1,.3-.3h4.345a.306.306,0,0,1,.3.3v1.62a1.25,1.25,0,0,0,.975,1.219,15.565,15.565,0,0,1,4.915,2.041,1.25,1.25,0,0,0,1.553-.172L189.11,6.36a.3.3,0,0,1,.423,0l3.076,3.072a.307.307,0,0,1,0,.426l-1.148,1.148a1.25,1.25,0,0,0-.173,1.552,15.639,15.639,0,0,1,2.038,4.917,1.25,1.25,0,0,0,1.219.974h1.62a.306.306,0,0,1,.3.3V23.1Z" transform="translate(-143.681 0)" fill="#fe5c58" stroke="#fff" stroke-width="1"/>
      <path id="Path_105556" data-name="Path 105556" d="M380.223,437.753a1.25,1.25,0,1,0,1.768,1.768l0,0a1.25,1.25,0,0,0-1.772-1.765Z" transform="translate(-337.826 -386.716)" fill="#fe5c58" stroke="#fff" stroke-width="1"/>
      <path id="Path_105557" data-name="Path 105557" d="M67.985,333.653l-9.292,5.1a4.188,4.188,0,0,0-3.112-1.415H49.214a1.648,1.648,0,0,1-.449-.032,3.509,3.509,0,0,1-.346-.324l-.058-.058c-5.151-5.179-9.5-4.851-14.45-2.765a3.188,3.188,0,0,1-1.62.375h-1.44a3.14,3.14,0,0,0-2.95-2.278H23.221a3.221,3.221,0,0,0-3.1,3.32V348.7a3.219,3.219,0,0,0,3.1,3.316H27.9a3.139,3.139,0,0,0,2.95-2.275h2.633a1.173,1.173,0,0,1,.5.081c.1.03.218.066.372.11l12.113,3.462c.534.154,1.024.306,1.5.452a14.41,14.41,0,0,0,4.216.884,8.88,8.88,0,0,0,5.257-2.02l.03-.022,2.312-1.761a1.306,1.306,0,0,0,.273-1.744,1.123,1.123,0,0,0-1.632-.292l-2.3,1.75c-3.067,2.179-4.369,1.776-7.508.8-.484-.15-.984-.3-1.541-.465l-12.114-3.462c-.142-.041-.253-.074-.344-.1a3.069,3.069,0,0,0-1.138-.175H31.01v-10.2h1.315l.067,0a5.191,5.191,0,0,0,2.379-.547c4.346-1.832,7.7-2.049,11.987,2.262l.058.058a2.75,2.75,0,0,0,2.4,1.035h6.366a1.973,1.973,0,0,1,1.738,1.1l.012.021a2.225,2.225,0,0,1,.238,1.007,2.059,2.059,0,0,1-1.988,2.12H45.263a1.253,1.253,0,0,0,0,2.5H55.581a4.487,4.487,0,0,0,4.329-4.621,4.921,4.921,0,0,0-.1-1.008l9.249-5.074a1.911,1.911,0,0,1,2.667.6,2.191,2.191,0,0,1-.672,2.807l-4.057,3.087a1.306,1.306,0,0,0-.274,1.744,1.148,1.148,0,0,0,.954.525,1.115,1.115,0,0,0,.678-.232l4.058-3.087a4.77,4.77,0,0,0,1.306-6.157,4.16,4.16,0,0,0-5.728-1.513ZM28.669,348.7a.8.8,0,0,1-.767.816H23.221a.8.8,0,0,1-.764-.816V335.573a.794.794,0,0,1,.764-.82H27.9a.805.805,0,0,1,.767.82Z" transform="translate(-20.116 -294.727)" fill="#fe5c58" stroke="#fff" stroke-width="1"/>
    </g>
  </g>
</svg>
