<svg xmlns="http://www.w3.org/2000/svg" width="34.286" height="32" viewBox="0 0 34.286 32">
  <g id="Group_37826" data-name="Group 37826" transform="translate(-2 -4)">
    <path id="Path_105635" data-name="Path 105635" d="M32.857,40.378h-.589a3.075,3.075,0,0,0,1.017-3.344,2.819,2.819,0,0,0-5.428,0,3.075,3.075,0,0,0,1.017,3.344H27.143a.558.558,0,0,0-.157.023l-3.923,1.175h-7.84L11.3,40.4a.558.558,0,0,0-.157-.023H9.411a3.075,3.075,0,0,0,1.017-3.344,2.873,2.873,0,0,0-2.714-2.058A2.873,2.873,0,0,0,5,37.035a3.075,3.075,0,0,0,1.017,3.344H5.429A3.252,3.252,0,0,0,2,43.372v6.585H3.143V43.372c0-1.109,1.186-1.8,2.286-1.8h5.634l3.923,1.175a.558.558,0,0,0,.157.023h3.429v.678l-3.422.512-3.341-.583a.553.553,0,0,0-.463.133.611.611,0,0,0-.2.457v5.986h1.143V44.677l2.763.479a.539.539,0,0,0,.175,0l3.919-.581,3.919.587a.539.539,0,0,0,.175,0L26,44.683v5.274h1.143V43.97a.611.611,0,0,0-.2-.457.553.553,0,0,0-.463-.133l-3.341.583-3.422-.512v-.678h3.429a.558.558,0,0,0,.157-.023l3.923-1.175h5.634c1.1,0,2.286.687,2.286,1.8v6.585h1.143V43.372A3.252,3.252,0,0,0,32.857,40.378Zm-2.286-4.19a1.8,1.8,0,1,1-1.714,1.8A1.757,1.757,0,0,1,30.571,36.188Zm-22.857,0a1.8,1.8,0,0,1,0,3.592,1.8,1.8,0,0,1,0-3.592Z" transform="translate(0 -13.957)"/>
    <path id="Path_105636" data-name="Path 105636" d="M56,52h1.2v4.789H56Z" transform="translate(-23.306 -20.789)"/>
    <path id="Path_105637" data-name="Path 105637" d="M6,52H7.2v4.789H6Z" transform="translate(-1.605 -20.789)"/>
    <path id="Path_105638" data-name="Path 105638" d="M36.116,6.993H26.981V4.6A.585.585,0,0,0,26.41,4H3.571A.585.585,0,0,0,3,4.6v13.17a.585.585,0,0,0,.571.6h7.89L11,21.262a.609.609,0,0,0,.283.619.55.55,0,0,0,.652-.067l3.833-3.448h1.5v1.2a.585.585,0,0,0,.571.6h.971L22.1,22.457a.549.549,0,0,0,.585.028.6.6,0,0,0,.3-.526v-1.8H36.116a.585.585,0,0,0,.571-.6V7.592A.585.585,0,0,0,36.116,6.993Zm-18.842.6V17.17H15.561a.556.556,0,0,0-.372.144l-2.8,2.519.312-1.967a.619.619,0,0,0-.128-.485.561.561,0,0,0-.435-.212H4.142V5.2h21.7v1.8H17.845A.585.585,0,0,0,17.274,7.592ZM35.545,18.966H22.413a.585.585,0,0,0-.571.6v1.276L19.3,19.066a.556.556,0,0,0-.317-.1h-.571V8.19H35.545Z" transform="translate(-0.401)"/>
    <path id="Path_105639" data-name="Path 105639" d="M17.018,10.588,13.426,9.049a.6.6,0,0,0-.472,0L9.363,10.588a.6.6,0,0,0-.363.55v4.105a.6.6,0,0,0,.363.55l3.592,1.539a.6.6,0,0,0,.472,0l3.592-1.539a.6.6,0,0,0,.363-.55V11.138a.6.6,0,0,0-.363-.55ZM13.19,10.25l2.072.888-2.072.888-2.072-.888Zm-2.993,1.8,2.395,1.025v2.8L10.2,14.849Zm3.592,3.831V13.071l2.395-1.026v2.8Z" transform="translate(-2.81 -2.007)"/>
    <path id="Path_105640" data-name="Path 105640" d="M41.2,18.286H40a2.262,2.262,0,0,0,2.395,2.1v1.2h1.2v-1.2a2.262,2.262,0,0,0,2.395-2.1,2.262,2.262,0,0,0-2.395-2.1v-1.8c.649,0,1.2.411,1.2.9h1.2a2.262,2.262,0,0,0-2.395-2.1V12h-1.2v1.2A2.262,2.262,0,0,0,40,15.292a2.262,2.262,0,0,0,2.395,2.1v1.8C41.746,19.184,41.2,18.772,41.2,18.286Zm0-2.993c0-.487.548-.9,1.2-.9v1.8C41.746,16.19,41.2,15.779,41.2,15.292Zm2.395,2.1c.649,0,1.2.411,1.2.9s-.548.9-1.2.9Z" transform="translate(-16.492 -3.211)"/>
  </g>
</svg>
