<svg xmlns="http://www.w3.org/2000/svg" xmlns:xlink="http://www.w3.org/1999/xlink" width="32" height="32" viewBox="0 0 32 32">
  <defs>
    <clipPath id="clip-path">
      <rect id="Rectangle_12535" data-name="Rectangle 12535" width="32" height="32" fill="#fff" stroke="#707070" stroke-width="1"/>
    </clipPath>
  </defs>
  <g id="Frame" clip-path="url(#clip-path)">
    <path id="Path_104957" data-name="Path 104957" d="M29.188,242H2.813A2.816,2.816,0,0,0,0,244.814v11.25a2.816,2.816,0,0,0,2.812,2.813H29.188A2.816,2.816,0,0,0,32,256.063v-11.25A2.816,2.816,0,0,0,29.188,242Zm.938,14.062a.939.939,0,0,1-.937.938H2.813a.939.939,0,0,1-.937-.937v-11.25a.939.939,0,0,1,.937-.937H29.188a.939.939,0,0,1,.938.938Z" transform="translate(-0.001 -226.876)" stroke="#fff" stroke-width="0.5"/>
    <path id="Path_104958" data-name="Path 104958" d="M65.688,309.5H62.876v-6.562a.938.938,0,0,0-1.875,0v7.5a.938.938,0,0,0,.938.938h3.75a.938.938,0,0,0,0-1.875Z" transform="translate(-57.188 -283.126)" stroke="#fff" stroke-width="0.5"/>
    <path id="Path_104959" data-name="Path 104959" d="M181.938,302a.938.938,0,0,0-.937.938v7.5a.938.938,0,0,0,1.875,0v-7.5A.938.938,0,0,0,181.938,302Z" transform="translate(-169.688 -283.126)" stroke="#fff" stroke-width="0.5"/>
    <path id="Path_104960" data-name="Path 104960" d="M365.688,303.876a.938.938,0,0,0,0-1.875h-3.75a.938.938,0,0,0-.937.938v7.5a.938.938,0,0,0,.938.938h3.75a.938.938,0,0,0,0-1.875h-2.812v-1.875h2.813a.938.938,0,0,0,0-1.875h-2.812v-1.875Z" transform="translate(-338.438 -283.126)" stroke="#fff" stroke-width="0.5"/>
    <path id="Path_104961" data-name="Path 104961" d="M245.912,302.026a.938.938,0,0,0-1.137.682l-.965,3.862-.965-3.862a.937.937,0,0,0-1.819.455l1.875,7.5a.937.937,0,0,0,1.819,0l1.875-7.5A.937.937,0,0,0,245.912,302.026Z" transform="translate(-225.934 -283.122)" stroke="#fff" stroke-width="0.5"/>
    <path id="Path_104962" data-name="Path 104962" d="M94.526,12.937a.938.938,0,0,0,.187-1.313,8.472,8.472,0,0,1,0-10.124.937.937,0,1,0-1.5-1.126,10.357,10.357,0,0,0,0,12.376A.937.937,0,0,0,94.526,12.937Z" transform="translate(-85.464 0)" stroke="#fff" stroke-width="0.5"/>
    <path id="Path_104963" data-name="Path 104963" d="M361.389,12.937a.937.937,0,0,0,1.313-.187,10.357,10.357,0,0,0,0-12.376A.937.937,0,1,0,361.2,1.5a8.472,8.472,0,0,1,0,10.124A.938.938,0,0,0,361.389,12.937Z" transform="translate(-338.451 0)" stroke="#fff" stroke-width="0.5"/>
    <path id="Path_104964" data-name="Path 104964" d="M154.033,39.137a.938.938,0,0,0,.073-1.324,4.678,4.678,0,0,1,0-6.249.938.938,0,0,0-1.4-1.251,6.57,6.57,0,0,0,0,8.751A.938.938,0,0,0,154.033,39.137Z" transform="translate(-141.6 -28.126)" stroke="#fff" stroke-width="0.5"/>
    <path id="Path_104965" data-name="Path 104965" d="M308.4,39.137a.938.938,0,0,0,1.324-.073,6.57,6.57,0,0,0,0-8.751.937.937,0,1,0-1.4,1.251,4.678,4.678,0,0,1,0,6.249A.937.937,0,0,0,308.4,39.137Z" transform="translate(-288.829 -28.126)" stroke="#fff" stroke-width="0.5"/>
    <path id="Path_104966" data-name="Path 104966" d="M213.813,65.625A2.812,2.812,0,1,0,211,62.813,2.816,2.816,0,0,0,213.813,65.625Zm0-3.75a.937.937,0,1,1-.937.937A.939.939,0,0,1,213.813,61.875Z" transform="translate(-197.813 -56.25)" stroke="#fff" stroke-width="0.5"/>
  </g>
</svg>
