<svg xmlns="http://www.w3.org/2000/svg" xmlns:xlink="http://www.w3.org/1999/xlink" width="32" height="32" viewBox="0 0 32 32">
  <defs>
    <clipPath id="clip-path">
      <rect id="Rectangle_12582" data-name="Rectangle 12582" width="28" height="27.99"/>
    </clipPath>
  </defs>
  <g id="Group_37669" data-name="Group 37669" transform="translate(10187 1859)">
    <g id="Rectangle_12544" data-name="Rectangle 12544" transform="translate(-10187 -1859)" stroke="#707070" stroke-width="1" opacity="0">
      <rect width="32" height="32" stroke="none"/>
      <rect x="0.5" y="0.5" width="31" height="31" fill="none"/>
    </g>
    <g id="Group_37701" data-name="Group 37701" transform="translate(-10185 -1857)">
      <g id="Group_37701-2" data-name="Group 37701" clip-path="url(#clip-path)">
        <path id="Path_105527" data-name="Path 105527" d="M28,14.87c-.07.513-.12,1.029-.215,1.538a13.768,13.768,0,0,1-6.674,9.633,13.674,13.674,0,0,1-8.464,1.888A14.023,14.023,0,0,1,.342,17.044,13.659,13.659,0,0,1,3.159,5.164a13.6,13.6,0,0,1,8.754-5c.4-.063.809-.107,1.214-.159h1.75c.467.061.937.107,1.4.185a14.039,14.039,0,0,1,11.505,11.4c.091.508.145,1.023.216,1.535Zm-2.94,6.064c-.61-.413-.728-.578-.557-.847.328-.517.687-.133,1.039.017a12.653,12.653,0,0,0,1.226-3.367c-.368-.118-.919-.058-.811-.639s.6-.321.963-.313a12.957,12.957,0,0,0-8.01-13.866c-.168.307-.194.849-.731.674-.583-.19-.247-.65-.171-1a10.425,10.425,0,0,0-3.541-.6c0,.13.009.266,0,.4a.464.464,0,1,1-.928-.007c-.011-.141-.014-.283-.021-.421a11.232,11.232,0,0,0-3.524.629c.1.356.4.812-.181.994-.524.163-.553-.36-.724-.688A12.72,12.72,0,0,0,5.986,3.7c.209.314.655.626.2,1s-.659-.126-.933-.387a12.794,12.794,0,0,0-2.3,2.75c.6.4.728.57.552.846-.329.518-.687.134-1.037-.021a12.636,12.636,0,0,0-1.229,3.37c.366.117.914.058.8.644-.111.565-.591.318-.964.307a12.049,12.049,0,0,0,0,3.579c.728-.074.918-.027.967.29.1.614-.439.545-.783.66A13,13,0,0,0,13.515,27.021c.006-.077.017-.156.018-.235.01-.452.16-.66.475-.656s.452.208.463.67c0,.078.015.155.022.229a11.173,11.173,0,0,0,3.516-.635c-.041-.124-.087-.249-.125-.377a.465.465,0,1,1,.872-.321c.055.129.1.261.157.4a12.788,12.788,0,0,0,3.1-1.8c-.406-.593-.448-.793-.218-1s.4-.154.972.369a12.937,12.937,0,0,0,2.3-2.735" transform="translate(0)"/>
        <path id="Path_105528" data-name="Path 105528" d="M132.017,90.906c0-.3,0-.572,0-.843.007-.349.186-.553.47-.55s.457.206.463.558c.005.264,0,.527,0,.834.2,0,.39-.008.577,0a9.161,9.161,0,0,1,1.519.108A2.711,2.711,0,0,1,137.14,93.6c.007.191.011.383,0,.574a.442.442,0,0,1-.443.458.451.451,0,0,1-.478-.427c-.018-.162-.006-.328-.009-.491a1.859,1.859,0,0,0-1.875-1.874c-.445-.007-.89,0-1.359,0V96.5c.137,0,.279-.005.42,0a10.45,10.45,0,0,1,1.577.089,2.7,2.7,0,0,1,2.162,2.609,8.017,8.017,0,0,1-.057,1.579,2.742,2.742,0,0,1-2.654,2.251c-.48.014-.961,0-1.472,0,0,.3,0,.573,0,.843-.008.35-.185.553-.47.551s-.457-.207-.463-.558c0-.264,0-.527,0-.834-.112,0-.208,0-.3,0a14.12,14.12,0,0,1-1.527-.051,2.742,2.742,0,0,1-2.357-2.643c-.007-.2-.011-.4,0-.6a.433.433,0,0,1,.414-.428.439.439,0,0,1,.493.373,3.9,3.9,0,0,1,.021.545,1.862,1.862,0,0,0,1.877,1.873c.445.007.89,0,1.359,0V97.439c-.384,0-.774.026-1.159-.007a4.357,4.357,0,0,1-1.228-.2,2.631,2.631,0,0,1-1.767-2.436,7.164,7.164,0,0,1,.052-1.633,2.743,2.743,0,0,1,2.682-2.252c.471-.01.943,0,1.444,0m-.018.939c-.538,0-1.049-.036-1.554.008a1.833,1.833,0,0,0-1.687,1.85c-.006.327-.007.655,0,.982a1.777,1.777,0,0,0,1.462,1.76,12.413,12.413,0,0,0,1.777.016Zm.969,5.617v4.619a13.716,13.716,0,0,0,1.641-.012,1.8,1.8,0,0,0,1.6-1.838c.006-.364.011-.728-.008-1.091a1.806,1.806,0,0,0-1.568-1.67c-.54-.047-1.088-.009-1.667-.009" transform="translate(-118.483 -82.976)"/>
        <path id="Path_105529" data-name="Path 105529" d="M39.37,49.47a10.268,10.268,0,0,0,1.991,6.142c.032.044.066.087.1.132.2.286.177.551-.061.72a.468.468,0,0,1-.684-.161A11.191,11.191,0,0,1,56.306,40.566a1.1,1.1,0,0,1,.242.217.458.458,0,0,1-.557.684,1.662,1.662,0,0,1-.273-.179A10.271,10.271,0,0,0,39.429,48.5c-.041.352-.044.709-.059.966" transform="translate(-35.639 -35.559)"/>
        <path id="Path_105530" data-name="Path 105530" d="M126.6,125.922a12.276,12.276,0,0,1-4.788-1.151.467.467,0,0,1-.312-.542.423.423,0,0,1,.447-.366,1.154,1.154,0,0,1,.41.134,10.117,10.117,0,0,0,4.537.919,10.238,10.238,0,0,0,9.822-8.461,10.063,10.063,0,0,0-1.186-6.88,3.591,3.591,0,0,1-.184-.335.456.456,0,0,1,.182-.572.449.449,0,0,1,.592.095,1.011,1.011,0,0,1,.108.157,11.18,11.18,0,0,1-7.2,16.665c-.8.178-1.618.229-2.429.339" transform="translate(-112.619 -100.664)"/>
      </g>
    </g>
  </g>
</svg>
