<svg xmlns="http://www.w3.org/2000/svg" width="32" height="32.446" viewBox="0 0 32 32.446">
  <g id="Group_37827" data-name="Group 37827" transform="translate(-3.515)">
    <g id="Group_37827-2" data-name="Group 37827" transform="translate(3.515 0)">
      <path id="Path_105641" data-name="Path 105641" d="M119.656,37.43h-4.812a.461.461,0,1,0,0,.922h4.812a.461.461,0,1,0,0-.922Z" transform="translate(-107.309 -35.13)"/>
      <path id="Path_105642" data-name="Path 105642" d="M53.382,38.352h1.4a.461.461,0,0,0,0-.922h-1.4a.461.461,0,0,0,0,.922Z" transform="translate(-49.885 -35.13)"/>
      <path id="Path_105643" data-name="Path 105643" d="M53.382,74.306h4.812a.461.461,0,0,0,0-.922H53.382a.461.461,0,0,0,0,.922Z" transform="translate(-49.885 -68.874)"/>
      <path id="Path_105644" data-name="Path 105644" d="M171.727,73.384h-1.4a.461.461,0,1,0,0,.922h1.4a.461.461,0,0,0,0-.922Z" transform="translate(-159.297 -68.874)"/>
      <path id="Path_105645" data-name="Path 105645" d="M32.713,10.32a2.26,2.26,0,0,0-2.2,1.782h-2.6a4.913,4.913,0,0,0-1.086-2.628L30.09,6.207a3.192,3.192,0,0,0,4.49-4.539,3.194,3.194,0,0,0-5.068,3.773L29.5,5.45,26.153,8.8a4.937,4.937,0,0,0-.66-.458,4.879,4.879,0,0,0-5.537.458L18.45,7.3a1.594,1.594,0,0,0,.26-.874V1.6a1.6,1.6,0,0,0-1.6-1.6H6.322a1.6,1.6,0,0,0-1.6,1.6V6.422a1.6,1.6,0,0,0,1.6,1.6h3.746a.475.475,0,1,0,0-.951H6.322a.652.652,0,0,1-.651-.652V1.6A.652.652,0,0,1,6.322.951H17.108a.652.652,0,0,1,.651.652V6.422a.652.652,0,0,1-.651.652H12.263a.475.475,0,0,0,0,.951h4.845a1.592,1.592,0,0,0,.607-.12l1.57,1.571a4.89,4.89,0,0,0-1.027,4l-5.7,3.293h0a5.114,5.114,0,0,0-6.488-1.153,5.121,5.121,0,1,0,7.027,1.94l5.432-3.141a4.847,4.847,0,0,0,2.783,2.722V21.77a4.1,4.1,0,0,1-.03.542c-.967-1.4-1.858-2.435-3.569-2.138a1.465,1.465,0,0,0-1.165.888,1.538,1.538,0,0,0,.288,1.5l3.995,5.865a4.4,4.4,0,0,1,.893,2.919,1.1,1.1,0,0,0,1.1,1.1h7.488a1.1,1.1,0,0,0,1.1-1.1V29.406a2.513,2.513,0,0,1,.351-1.388,5.062,5.062,0,0,0,.6-2.021.487.487,0,0,0,0-.051V24.319a.475.475,0,0,0-.951,0v1.6a4.114,4.114,0,0,1-.5,1.664,3.442,3.442,0,0,0-.456,1.822v1.938a.153.153,0,0,1-.152.151H22.828a.153.153,0,0,1-.152-.151,5.324,5.324,0,0,0-1.058-3.454l-4-5.877L17.6,21.99a.63.63,0,0,1-.161-.585.545.545,0,0,1,.442-.294c1.1-.191,1.685.376,2.667,1.806l.021.029c.359.446.717.61,1.066.488.437-.154.631-.666.631-1.663V12.689a.792.792,0,1,1,1.577,0v8.2a.475.475,0,1,0,.951,0v-3.8a.774.774,0,0,1,.789-.863.86.86,0,0,1,.267.042l.043.016a.786.786,0,0,1,.479.8V21.52a.475.475,0,1,0,.951,0V18.16a.792.792,0,1,1,1.577,0v4a.475.475,0,0,0,.951,0V19.237a.774.774,0,0,1,.787-.863.8.8,0,0,1,.543.205.864.864,0,0,1,.245.658v2.886a.475.475,0,0,0,.951,0V19.237a1.719,1.719,0,0,0-1.739-1.814,1.787,1.787,0,0,0-.85.214,1.7,1.7,0,0,0-1.677-1.291,1.79,1.79,0,0,0-.851.214,1.683,1.683,0,0,0-.479-.827,4.877,4.877,0,0,0,1.134-2.68h2.6a2.255,2.255,0,1,0,2.205-2.733ZM30.739,2.34h0a2.242,2.242,0,0,1,3.168,3.173A2.242,2.242,0,0,1,30.739,2.34ZM10.716,23.67h0a4.162,4.162,0,0,1-5.692-1.527,4.168,4.168,0,1,1,5.692,1.527ZM26.985,12.585a3.929,3.929,0,0,1-1.09,2.712,1.8,1.8,0,0,0-1.1.154V12.689a1.741,1.741,0,1,0-3.478,0v3.417a3.931,3.931,0,1,1,5.67-3.54s0,.008,0,.012,0,0,0,.007Zm5.728,1.3a1.306,1.306,0,1,1,1.3-1.305A1.307,1.307,0,0,1,32.713,13.883Z" transform="translate(-3.515 0)"/>
      <path id="Path_105646" data-name="Path 105646" d="M49.225,278.556a2.336,2.336,0,0,0-1.208,4.512,2.321,2.321,0,0,0,1.772-.234h0a2.337,2.337,0,0,0-.564-4.279Zm.1,3.481a1.415,1.415,0,1,1,.516-1.93A1.4,1.4,0,0,1,49.327,282.037Z" transform="translate(-43.659 -260.736)"/>
    </g>
  </g>
</svg>
