<svg width="32" height="32" viewBox="0 0 32 32" fill="none" xmlns="http://www.w3.org/2000/svg">
<g clip-path="url(#clip0_129_338)">
<path d="M23.3212 30.0121C23.0303 30.0121 22.8364 30.2061 22.8364 30.497V31.0303H0.969697V6.06063H5.86667C5.62424 6.83639 5.67273 7.36972 5.67273 7.90305C5.67273 8.19396 5.86667 8.3879 6.15758 8.3879H17.697C17.9879 8.3879 18.1818 8.19396 18.1818 7.90305C18.1818 7.36972 18.2303 6.83639 17.9879 6.06063H22.8848V9.40608C22.8848 9.69699 23.0788 9.89093 23.3697 9.89093C23.6606 9.89093 23.8545 9.69699 23.8545 9.40608V5.57578C23.8545 5.28487 23.6606 5.09093 23.3697 5.09093H17.5515C17.0667 4.21821 16.2909 3.53942 15.3212 3.05457C15.2242 1.3576 13.7212 -0.0484619 11.9273 -0.0484619C10.1333 -0.0484619 8.6303 1.30911 8.53333 3.05457C7.56364 3.49093 6.83636 4.21821 6.30303 5.09093H0.484848C0.193939 5.09093 0 5.28487 0 5.57578V31.5152C0 31.8061 0.193939 32 0.484848 32H23.3212C23.6121 32 23.8061 31.8061 23.8061 31.5152V30.497C23.8061 30.2546 23.5636 30.0121 23.3212 30.0121ZM9.16364 3.83033C9.35758 3.73336 9.50303 3.53942 9.45455 3.24851C9.45455 1.9879 10.5212 0.96972 11.8788 0.96972C13.2364 0.96972 14.303 1.9879 14.303 3.24851C14.2545 3.53942 14.4 3.73336 14.5939 3.83033C16.1455 4.41214 17.1152 5.81821 17.1636 7.41821H6.64242C6.64242 5.86669 7.66061 4.46063 9.16364 3.83033V3.83033Z" fill="black"/>
<path d="M11.8787 5.67275C12.8969 5.67275 13.7696 4.84851 13.7696 3.78184C13.7696 2.71517 12.9454 1.89093 11.8787 1.89093C10.8605 1.89093 9.98779 2.71517 9.98779 3.78184C9.98779 4.84851 10.8605 5.67275 11.8787 5.67275ZM11.8787 2.86063C12.3636 2.86063 12.7999 3.24851 12.7999 3.78184C12.7999 4.31517 12.412 4.70305 11.8787 4.70305C11.3939 4.70305 10.9575 4.31517 10.9575 3.78184C10.9575 3.24851 11.3939 2.86063 11.8787 2.86063V2.86063Z" fill="black"/>
<path d="M7.12751 11.297C7.12751 11.0061 6.93357 10.8121 6.64266 10.8121H3.34569C3.05478 10.8121 2.86084 11.0061 2.86084 11.297V14.8364C2.86084 15.1273 3.05478 15.3212 3.34569 15.3212H6.64266C6.93357 15.3212 7.12751 15.1273 7.12751 14.8364V11.297ZM6.15781 14.303H3.83054V11.7333H6.15781V14.303Z" fill="black"/>
<path d="M7.12751 17.794C7.12751 17.5031 6.93357 17.3091 6.64266 17.3091H3.34569C3.05478 17.3091 2.86084 17.5031 2.86084 17.794V21.3334C2.86084 21.6243 3.05478 21.8182 3.34569 21.8182H6.64266C6.93357 21.8182 7.12751 21.6243 7.12751 21.3334V17.794ZM6.15781 20.8485H3.83054V18.2788H6.15781V20.8485Z" fill="black"/>
<path d="M6.64266 23.8546H3.34569C3.05478 23.8546 2.86084 24.0485 2.86084 24.3394V27.8788C2.86084 28.1697 3.05478 28.3636 3.34569 28.3636H6.64266C6.93357 28.3636 7.12751 28.1697 7.12751 27.8788V24.3394C7.12751 24.0485 6.88508 23.8546 6.64266 23.8546ZM6.15781 27.3939H3.83054V24.8243H6.15781V27.3939Z" fill="black"/>
<path d="M31.709 15.5152L22.8847 10.7152C22.7393 10.6182 22.5453 10.6182 22.4484 10.7152C21.8665 11.0061 14.8362 14.7879 13.6726 15.4182C13.5271 15.5152 13.4302 15.7091 13.4302 15.8546V23.6122C13.4302 23.7576 13.5271 23.9515 13.6726 24L22.4484 29.5273C22.5938 29.6243 22.7878 29.6243 22.9332 29.5273L31.7574 24.8243C31.9029 24.7273 31.9999 24.5818 31.9999 24.3879V15.9515C31.9999 15.8061 31.9029 15.6122 31.709 15.5152V15.5152ZM22.6908 11.6849L30.5453 15.9515L28.509 17.0667L20.6544 12.7515L22.6908 11.6849ZM26.5696 18.3758L18.4241 13.9637L19.5878 13.3334L27.9756 17.9394V20.3152L26.812 20.9455V18.8122C26.812 18.6182 26.715 18.4243 26.5696 18.3758V18.3758ZM17.4059 14.497L25.309 18.8122L22.6908 20.2667L14.8847 15.8546L17.4059 14.497ZM14.3514 23.2728V16.6303L22.1574 21.0425V28.2182L14.3514 23.2728ZM23.1756 28.2667V21.0909L25.8423 19.6364V21.7697C25.8423 21.9637 25.9393 22.1091 26.0847 22.2061C26.2302 22.3031 26.4241 22.3031 26.5696 22.2061L28.7029 21.0425C28.8484 20.9455 28.9453 20.8 28.9453 20.6061V17.9394L31.0302 16.8243V24.1455L23.1756 28.2667Z" fill="black"/>
<path d="M15.903 13.0425C15.903 12.7516 15.7091 12.5576 15.4182 12.5576H8.48485C8.19394 12.5576 8 12.7516 8 13.0425C8 13.3334 8.19394 13.5273 8.48485 13.5273H15.4182C15.6606 13.5273 15.903 13.3334 15.903 13.0425Z" fill="black"/>
<path d="M12.4608 19.103H8.43651C8.1456 19.103 7.95166 19.297 7.95166 19.5879C7.95166 19.8788 8.1456 20.0727 8.43651 20.0727H12.4608C12.7517 20.0727 12.9456 19.8788 12.9456 19.5879C12.9456 19.297 12.7032 19.103 12.4608 19.103Z" fill="black"/>
<path d="M7.66064 26.0849C7.66064 26.3758 7.85458 26.5697 8.14549 26.5697H14.497C14.7879 26.5697 14.9819 26.3758 14.9819 26.0849C14.9819 25.794 14.7879 25.6 14.497 25.6H8.14549C7.90307 25.6 7.66064 25.8425 7.66064 26.0849V26.0849Z" fill="black"/>
</g>
<defs>
<clipPath id="clip0_129_338">
<rect width="32" height="32" fill="white"/>
</clipPath>
</defs>
</svg>
