<svg xmlns="http://www.w3.org/2000/svg" width="32" height="34.095" viewBox="0 0 32 34.095">
  <g id="Group_38020" data-name="Group 38020" transform="translate(-15.731)">
    <path id="Path_106013" data-name="Path 106013" d="M43.986,0H42.52a.5.5,0,0,0,0,1h1.466a2.744,2.744,0,0,1,2.746,2.736v11.56a2.744,2.744,0,0,1-2.746,2.736H42.324a.5.5,0,0,0-.3.1l-3.051,2.334V18.53a.5.5,0,0,0-.5-.5H32.391a2.732,2.732,0,0,1-1.4-.381V12.042a3.048,3.048,0,0,0-1.347-2.527V3.735A2.744,2.744,0,0,1,32.391,1h7a.5.5,0,0,0,0-1h-7a3.744,3.744,0,0,0-3.745,3.735V9.076a3.063,3.063,0,0,0-.712-.084H18.789a3.058,3.058,0,0,0-3.058,3.051v1.079a.5.5,0,0,0,1,0V12.042A2.058,2.058,0,0,1,18.789,9.99h9.144a2.058,2.058,0,0,1,2.06,2.052v5.806a.5.5,0,0,0,0,.132v3.178c0,.063,0,.125-.009.188h-1.03a2.317,2.317,0,0,0-2.278,1.9.5.5,0,0,0-.129.072l-2.234,1.725v-1.33a.5.5,0,0,0-.5-.5H18.789a2.058,2.058,0,0,1-2.059-2.052V16.118a.5.5,0,0,0-1,0v5.041a3.058,3.058,0,0,0,3.058,3.051h4.524v1.847a.507.507,0,0,0,.8.4l2.52-1.946v5.62a2.315,2.315,0,0,0,2.316,2.31h3.065V33.6a.507.507,0,0,0,.8.4l2.022-1.561h.6a2.315,2.315,0,0,0,2.316-2.31v-.887a.5.5,0,0,0-1,0v.887a1.315,1.315,0,0,1-1.317,1.311h-.768a.5.5,0,0,0-.305.1l-1.352,1.044v-.648a.5.5,0,0,0-.5-.5H28.954a1.315,1.315,0,0,1-1.317-1.311V23.656a1.315,1.315,0,0,1,1.317-1.311h6.489a1.315,1.315,0,0,1,1.317,1.311v2.452a.5.5,0,0,0,1,0V23.656a2.315,2.315,0,0,0-2.316-2.31H30.987c0-.062.006-2.585.006-2.585a3.739,3.739,0,0,0,1.4.269h5.58v2.448a.507.507,0,0,0,.8.4l3.719-2.845h1.493a3.744,3.744,0,0,0,3.745-3.735V3.735A3.744,3.744,0,0,0,43.986,0Z"/>
    <path id="Path_106014" data-name="Path 106014" d="M274.04,54.592a1.1,1.1,0,0,0-1.358,1.055,3.113,3.113,0,0,1-.779,2.061l-1.46,1.652a.529.529,0,0,0-.444-.241h-2.85a.53.53,0,0,0-.53.53v6.413a.53.53,0,0,0,.53.53H270a.53.53,0,0,0,.482-.31,3.7,3.7,0,0,0,1.926.543h5.037a1.387,1.387,0,0,0,1.369-1.436c-.016-.34,0-4.905,0-5.006a1.371,1.371,0,0,0-1.368-1.37L274.826,59l.108-.257a4.138,4.138,0,0,0-.218-3.641,1.08,1.08,0,0,0-.676-.515Zm-4.571,10.94h-1.79V60.178h1.79Zm7.975-5.459a.311.311,0,0,1,.31.31c0,.1,0,.374,0,.745-.008,2.048-.013,3.988,0,4.311a.31.31,0,0,1-.31.326h-5.037a2.638,2.638,0,0,1-1.655-.586L270.529,65V60.863l2.168-2.454a4.172,4.172,0,0,0,1.044-2.762.03.03,0,0,1,.054-.014,3.071,3.071,0,0,1,.162,2.7l-.418.99a.53.53,0,0,0,.487.736Z" transform="translate(-235.108 -50.677)"/>
    <path id="Path_106015" data-name="Path 106015" d="M72.981,198.232a.53.53,0,0,0,0,1.06h1.562l-.292,1.765a.53.53,0,1,0,1.046.173l.32-1.938H76.9l-.292,1.765a.53.53,0,1,0,1.046.173l.32-1.938H80.1a.53.53,0,0,0,0-1.06H78.145l.214-1.293H80.1a.53.53,0,1,0,0-1.06H78.534l.292-1.765a.53.53,0,0,0-1.046-.173l-.32,1.938H76.181l.292-1.765a.53.53,0,1,0-1.046-.173l-.32,1.938H72.981a.53.53,0,0,0,0,1.06h1.951l-.214,1.293Zm3.025-1.293h1.278l-.214,1.293H75.792Z" transform="translate(-52.713 -180.84)"/>
    <path id="Path_106016" data-name="Path 106016" d="M222.925,368.862a1.782,1.782,0,0,0-1.568-.352,1.971,1.971,0,0,0-1.47,1.989,2.6,2.6,0,0,0,.783,1.862,7.773,7.773,0,0,0,2.014,1.389.53.53,0,0,0,.5,0c1.679-.89,2.8-1.783,2.8-3.251a1.959,1.959,0,0,0-1.522-1.979A1.777,1.777,0,0,0,222.925,368.862Zm1.991,1.637c0,.792-.525,1.377-1.985,2.181-1.46-.8-1.985-1.389-1.985-2.181a.906.906,0,0,1,.66-.959.794.794,0,0,1,.187-.022.731.731,0,0,1,.667.427.53.53,0,0,0,.951-.019.689.689,0,0,1,.812-.37A.9.9,0,0,1,224.916,370.5Z" transform="translate(-190.74 -344.498)"/>
  </g>
</svg>
