<svg xmlns="http://www.w3.org/2000/svg" xmlns:xlink="http://www.w3.org/1999/xlink" width="60" height="60" viewBox="0 0 60 60">
  <defs>
    <clipPath id="clip-path">
      <rect id="Rectangle_12536" data-name="Rectangle 12536" width="54" height="50.415"/>
    </clipPath>
  </defs>
  <g id="Group_37657" data-name="Group 37657" transform="translate(-423 -1990)">
    <g id="Rectangle_12523" data-name="Rectangle 12523" transform="translate(423 1990)" stroke="#707070" stroke-width="1" opacity="0">
      <rect width="60" height="60" stroke="none"/>
      <rect x="0.5" y="0.5" width="59" height="59" fill="none"/>
    </g>
    <g id="Group_37658" data-name="Group 37658" transform="translate(426 1995)">
      <g id="Group_37657-2" data-name="Group 37657" clip-path="url(#clip-path)">
        <path id="Path_105363" data-name="Path 105363" d="M0,139.5c.205-.831.35-1.682.627-2.488A9.708,9.708,0,0,1,4.3,132.187c.541-.384.992-.353,1.284.078.273.4.156.841-.362,1.206a8.551,8.551,0,0,0,.029,14.015.819.819,0,0,1,.313,1.212c-.288.385-.759.412-1.256.052a10.035,10.035,0,0,1-4.209-6.9A2.7,2.7,0,0,0,0,141.5v-2" transform="translate(0 -117.98)"/>
        <path id="Path_105364" data-name="Path 105364" d="M129.456,22.492q0,9.646,0,19.292c0,.176.009.352-.007.527a.727.727,0,0,1-.74.738.735.735,0,0,1-.814-.662,3.177,3.177,0,0,1-.02-.63q0-19.186,0-38.373a1.535,1.535,0,0,0-.456-1.39,2.007,2.007,0,0,0-1.048-.391c-1.739-.039-3.479-.01-5.218-.026a.474.474,0,0,0-.533.371c-.172.5-.366.987-.569,1.472a3.358,3.358,0,0,1-3.207,2.246q-4.268.071-8.538,0a3.358,3.358,0,0,1-3.211-2.24q-.306-.727-.569-1.472A.475.475,0,0,0,104,1.577c-1.739.017-3.479,0-5.218.012a1.411,1.411,0,0,0-1.5,1.525c-.008.562,0,1.125,0,1.687-.008.6-.327.974-.81.964s-.762-.36-.768-.941c-.006-.615-.009-1.23,0-1.845A2.971,2.971,0,0,1,98.69.009c2.161-.016,4.322,0,6.483,0H126.1a3.031,3.031,0,0,1,3.357,3.355q0,9.567,0,19.134M106.093,1.6c.119.319.206.564.3.806a2.131,2.131,0,0,0,2.494,1.7c2.46,0,4.92-.027,7.379.01,1.624.024,2.29-.594,2.709-2.512Z" transform="translate(-85.579 0)"/>
        <path id="Path_105365" data-name="Path 105365" d="M95.7,90.251q0-9.647,0-19.294a4.4,4.4,0,0,1,.01-.527.78.78,0,0,1,1.534-.108,2.741,2.741,0,0,1,.037.681q0,19.215,0,38.431c0,.488-.008,1.018.413,1.3a2.5,2.5,0,0,0,1.29.438c7.011.026,14.023.019,21.034.019q3.11,0,6.221,0a1.45,1.45,0,0,0,1.644-1.652c0-.545-.009-1.09,0-1.634a.813.813,0,0,1,.778-.887c.478-.01.79.337.8.908q.013.9,0,1.792a2.973,2.973,0,0,1-3.074,3.052q-7.644.012-15.288,0-6.063,0-12.125,0a3.007,3.007,0,0,1-3.273-3.277q0-9.621,0-19.242" transform="translate(-85.587 -62.358)"/>
        <path id="Path_105366" data-name="Path 105366" d="M192.363,145.181a7.915,7.915,0,0,1-2.471,5.628,32.768,32.768,0,0,1-2.965,2.51c-.779.625-1.607,1.189-2.4,1.8a.862.862,0,0,1-1.187.039c-1.05-.791-2.113-1.566-3.174-2.344A12.04,12.04,0,0,1,176.037,148a6.214,6.214,0,0,1-.394-4.115,5.019,5.019,0,0,1,7.911-2.816c.235.172.386.257.674.047a4.854,4.854,0,0,1,5.35-.506,4.938,4.938,0,0,1,2.785,4.571m-8.466,8.341c.931-.654,1.855-1.261,2.731-1.931a18.776,18.776,0,0,0,2.026-1.755,7.058,7.058,0,0,0,2.057-3.723,3.7,3.7,0,0,0-1.86-4.108,3.511,3.511,0,0,0-4.285.945c-.46.482-.883.455-1.383-.087a3.479,3.479,0,0,0-6.128,2.37,6.355,6.355,0,0,0,1.63,4.067c1.425,1.8,3.451,2.847,5.214,4.222" transform="translate(-156.918 -125.236)"/>
        <path id="Path_105367" data-name="Path 105367" d="M462.534,140.468a10.06,10.06,0,0,1-4.207,8.021,1.876,1.876,0,0,1-.4.257.744.744,0,0,1-.978-.259.733.733,0,0,1,.1-1,4,4,0,0,1,.457-.353,8.552,8.552,0,0,0-.081-13.761,3.666,3.666,0,0,1-.335-.254.75.75,0,0,1-.14-1.041.713.713,0,0,1,1.059-.208,14.985,14.985,0,0,1,1.939,1.687,10.1,10.1,0,0,1,2.586,6.917" transform="translate(-408.534 -117.795)"/>
        <path id="Path_105368" data-name="Path 105368" d="M198.85,422.816c-1.914,0-3.829.017-5.742-.018a1.176,1.176,0,0,1-.825-.41.754.754,0,0,1,.687-1.144c.472-.029.948-.009,1.422-.009h9.9a3.543,3.543,0,0,1,.526.015.762.762,0,0,1,.689.845.723.723,0,0,1-.761.715c-.544.018-1.089.006-1.633.006H198.85" transform="translate(-171.852 -376.722)"/>
        <path id="Path_105369" data-name="Path 105369" d="M41.589,183.043A5.513,5.513,0,0,1,42.444,180a.794.794,0,1,1,1.366.787,4.179,4.179,0,0,0,0,4.485.791.791,0,0,1-.226,1.15.81.81,0,0,1-1.123-.34,5.505,5.505,0,0,1-.875-3.039" transform="translate(-37.195 -160.539)"/>
        <path id="Path_105370" data-name="Path 105370" d="M449.348,183.3a5.358,5.358,0,0,1-.825,2.7c-.308.51-.77.669-1.182.421a.81.81,0,0,1-.194-1.2,4.166,4.166,0,0,0,0-4.395c-.29-.511-.214-.942.2-1.2.425-.263.853-.112,1.179.415a5.99,5.99,0,0,1,.825,3.253" transform="translate(-399.749 -160.538)"/>
      </g>
    </g>
  </g>
</svg>
