<svg xmlns="http://www.w3.org/2000/svg" xmlns:xlink="http://www.w3.org/1999/xlink" width="60" height="60" viewBox="0 0 60 60">
  <defs>
    <clipPath id="clip-path">
      <rect id="Rectangle_12592" data-name="Rectangle 12592" width="54" height="53.985"/>
    </clipPath>
  </defs>
  <g id="Group_37654" data-name="Group 37654" transform="translate(-423 -1990)">
    <g id="Rectangle_12523" data-name="Rectangle 12523" transform="translate(423 1990)" stroke="#707070" stroke-width="1" opacity="0">
      <rect width="60" height="60" stroke="none"/>
      <rect x="0.5" y="0.5" width="59" height="59" fill="none"/>
    </g>
    <g id="Group_37712" data-name="Group 37712" transform="translate(426 1993.008)">
      <g id="Group_37711" data-name="Group 37711" clip-path="url(#clip-path)">
        <path id="Path_105604" data-name="Path 105604" d="M0,.741C.04.686.082.632.119.575A1.069,1.069,0,0,1,1.325.041a1.071,1.071,0,0,1,.782,1.117q.008,4.3,0,8.592c0,.876,0,1.752,0,2.661h1.9v-.577q0-5.166,0-10.331c0-.141,0-.281,0-.422a1.051,1.051,0,1,1,2.1-.023c.017.351,0,.7,0,1.054q0,4.849,0,9.7v.6h1.9v-.583q0-5.192,0-10.384A3.785,3.785,0,0,1,8.03.918,1.049,1.049,0,0,1,10.107.9a3.481,3.481,0,0,1,.016.526q0,5.192,0,10.384v.6h1.9v-.537q0-5.218,0-10.437a3.72,3.72,0,0,1,.015-.526A1.049,1.049,0,0,1,14.116.908a3.576,3.576,0,0,1,.016.526q0,6.114,0,12.229a6.392,6.392,0,0,1-3.6,6.031c-.344.183-.3.421-.3.691q0,15.1,0,30.2a3.193,3.193,0,0,1-1.952,3.15c-.22.1-.458.166-.688.248H6.539C4.446,53.195,3.9,52.4,3.9,50.117q0-14.883.007-29.766a.69.69,0,0,0-.429-.721A6.4,6.4,0,0,1,.139,15.258C.1,15.092.047,14.929,0,14.764V.741M2.151,14.572a4.4,4.4,0,0,0,2.765,3.409c.99.4,1.1.532,1.1,1.582q0,15.417,0,30.835c0,.967.35,1.464,1.037,1.476.7.012,1.072-.5,1.072-1.493q0-15.417,0-30.835c0-1.02.119-1.176,1.064-1.549a4.312,4.312,0,0,0,2.671-2.92,4.155,4.155,0,0,0,.083-.5Z" transform="translate(0 -0.002)"/>
        <path id="Path_105605" data-name="Path 105605" d="M318.924,53.984a9.682,9.682,0,0,1-1.639-.9,2.933,2.933,0,0,1-1-2.4c.005-4.954,0-9.908.011-14.862a1.184,1.184,0,0,0-.406-.958c-.578-.539-1.132-1.1-1.677-1.677a5.253,5.253,0,0,1-1.506-3.714c-.012-4.761-.12-9.525.027-14.282A18.3,18.3,0,0,1,320.8.3a1.1,1.1,0,0,1,1.226-.185,1.139,1.139,0,0,1,.6,1.14q-.006,24.718-.005,49.436a3.137,3.137,0,0,1-2.447,3.2,1.256,1.256,0,0,0-.188.089Zm1.582-50.778c-.316.29-.543.481-.75.691a16.415,16.415,0,0,0-4.935,11.779c-.039,4.55-.007,9.1-.011,13.65a3.465,3.465,0,0,0,1.056,2.554c.659.658,1.3,1.331,1.981,1.97A1.709,1.709,0,0,1,318.4,35.2c-.015,5.059-.009,10.119-.008,15.178,0,.992.37,1.5,1.074,1.49.686-.014,1.035-.511,1.035-1.478q0-23.268,0-46.536Z" transform="translate(-268.618 0)"/>
        <path id="Path_105606" data-name="Path 105606" d="M115.307,100.323a14.975,14.975,0,1,1-14.94-14.98,15,15,0,0,1,14.94,14.98m-27.841,0a12.866,12.866,0,1,0,12.866-12.875,12.887,12.887,0,0,0-12.866,12.875" transform="translate(-73.334 -73.322)"/>
        <path id="Path_105607" data-name="Path 105607" d="M122.817,277.525a20.785,20.785,0,0,1-11.28-3.1,1.092,1.092,0,0,1-.628-1.167.93.93,0,0,1,.881-.843,1.643,1.643,0,0,1,.882.243,18.1,18.1,0,0,0,23.278-3.535c.186-.211.353-.44.55-.638a1.02,1.02,0,0,1,1.426-.088,1.036,1.036,0,0,1,.176,1.421,6.083,6.083,0,0,1-.46.576,19.757,19.757,0,0,1-14.825,7.131" transform="translate(-95.271 -230.377)"/>
        <path id="Path_105608" data-name="Path 105608" d="M131.629,48.421c6.4.1,11.218,2.093,15.2,6.076a1.939,1.939,0,0,1,.466.683.977.977,0,0,1-.473,1.173,1.024,1.024,0,0,1-1.264-.157c-.559-.508-1.083-1.056-1.667-1.532a18.106,18.106,0,0,0-19.341-2.3c-.079.038-.157.079-.237.114A1.056,1.056,0,0,1,122.833,52a1,1,0,0,1,.549-1.4,33.68,33.68,0,0,1,4.288-1.564,34.723,34.723,0,0,1,3.96-.62" transform="translate(-105.439 -41.601)"/>
        <path id="Path_105609" data-name="Path 105609" d="M90.5,281.066a1.015,1.015,0,0,1-.993,1.063,1.106,1.106,0,0,1-1.134-1.062A1.058,1.058,0,0,1,89.43,280a1.1,1.1,0,0,1,1.071,1.07" transform="translate(-75.925 -240.556)"/>
        <path id="Path_105610" data-name="Path 105610" d="M122.836,136.434a9.648,9.648,0,0,1,5.734-8.475,1.059,1.059,0,1,1,.887,1.9,7.54,7.54,0,0,0-4.514,6.862,1.062,1.062,0,0,1-1.067,1.124,1.076,1.076,0,0,1-1.041-1.153c0-.088,0-.175,0-.263" transform="translate(-105.533 -109.807)"/>
        <path id="Path_105611" data-name="Path 105611" d="M185.019,124.917a1.034,1.034,0,0,1-1.052-1.073,1.045,1.045,0,0,1,1.047-1.031,1.07,1.07,0,0,1,1.088,1.052,1.055,1.055,0,0,1-1.083,1.051" transform="translate(-158.054 -105.514)"/>
      </g>
    </g>
  </g>
</svg>
