<svg xmlns="http://www.w3.org/2000/svg" width="32" height="32" viewBox="0 0 32 32">
  <g id="Group_37826" data-name="Group 37826" transform="translate(0 -0.001)">
    <g id="Group_37827" data-name="Group 37827" transform="translate(6.029 0.001)">
      <g id="Group_37826-2" data-name="Group 37826" transform="translate(0 0)">
        <path id="Path_105640" data-name="Path 105640" d="M121.709,15.523h-7.543V14.457H116.2a.468.468,0,0,0,0-.937h-2.035V12.454h1.413a1.957,1.957,0,0,0,1.393-.577L120.053,8.8a1.469,1.469,0,1,0-.663-.663l-3.081,3.081a1.027,1.027,0,0,1-.731.3h-1.413V10.484a2.474,2.474,0,0,0-2.471-2.471h-1.034V3.865a1.47,1.47,0,1,0-.937,0V8.012h-1.066V5.977a.468.468,0,1,0-.937,0V8.012h-1.066V.469a.468.468,0,0,0-.937,0V8.012h-1.066V5.977a.468.468,0,1,0-.937,0V8.012H102.65V6.6a1.958,1.958,0,0,0-.577-1.393L98.99,2.124a1.471,1.471,0,1,0-.662.662l3.082,3.082a1.027,1.027,0,0,1,.3.731V8.012h-1.034a2.482,2.482,0,0,0-.618.078A.468.468,0,1,0,100.3,9a1.543,1.543,0,0,1,.384-.048h11.015a1.536,1.536,0,0,1,1.534,1.534V21.5a1.543,1.543,0,0,1-.048.384.468.468,0,1,0,.907.233,2.479,2.479,0,0,0,.078-.617V20.465h4.147a1.47,1.47,0,1,0,0-.937h-4.147V18.462H116.2a.468.468,0,0,0,0-.937h-2.035V16.46h7.543a.468.468,0,1,0,0-.937ZM120.33,7.1a.533.533,0,1,1-.156.377A.529.529,0,0,1,120.33,7.1ZM98.052,1.848a.533.533,0,1,1,0-.754A.534.534,0,0,1,98.052,1.848Zm12.141,1.157a.533.533,0,1,1,.533-.533A.534.534,0,0,1,110.192,3.005Zm9.513,16.459a.533.533,0,1,1-.533.533A.534.534,0,0,1,119.706,19.464Z" transform="translate(-96.206 -0.001)"/>
      </g>
    </g>
    <g id="Group_37829" data-name="Group 37829" transform="translate(0 9.534)">
      <g id="Group_37828" data-name="Group 37828">
        <path id="Path_105641" data-name="Path 105641" d="M25.541,172.264a1.471,1.471,0,0,0-1.692-.276l-3.082-3.082a1.027,1.027,0,0,1-.3-.731v-1.413H21.5a2.481,2.481,0,0,0,.617-.078.468.468,0,1,0-.234-.907,1.542,1.542,0,0,1-.384.048H10.483a1.536,1.536,0,0,1-1.534-1.534V153.276A1.541,1.541,0,0,1,9,152.892a.468.468,0,0,0-.907-.234,2.477,2.477,0,0,0-.078.618v1.034H3.864a1.47,1.47,0,1,0,0,.937H8.011v1.066H5.976a.468.468,0,0,0,0,.937H8.011v1.066H.468a.468.468,0,0,0,0,.937H8.011v1.066H5.976a.468.468,0,0,0,0,.937H8.011v1.066H6.6A1.958,1.958,0,0,0,5.2,162.9l-3.081,3.081a1.469,1.469,0,1,0,.663.662l3.081-3.081a1.027,1.027,0,0,1,.731-.3H8.011v1.034a2.474,2.474,0,0,0,2.471,2.471h1.034v4.147a1.47,1.47,0,1,0,.937,0v-4.147h1.066V168.8a.468.468,0,0,0,.937,0v-2.035h1.066V174.3a.468.468,0,0,0,.937,0v-7.543h1.066V168.8a.468.468,0,0,0,.937,0v-2.035h1.066v1.413a1.957,1.957,0,0,0,.577,1.393l3.082,3.082a1.469,1.469,0,1,0,2.355-.386ZM2.471,155.311A.533.533,0,1,1,3,154.778.534.534,0,0,1,2.471,155.311Zm-.625,12.361A.533.533,0,1,1,2,167.3.529.529,0,0,1,1.847,167.672Zm10.671,4.63a.533.533,0,1,1-.533-.533A.534.534,0,0,1,12.518,172.3Zm12.361,1.378a.533.533,0,1,1,0-.754A.534.534,0,0,1,24.879,173.68Z" transform="translate(0 -152.306)"/>
      </g>
    </g>
    <g id="Group_37831" data-name="Group 37831" transform="translate(11.025 10.525)">
      <g id="Group_37830" data-name="Group 37830">
        <path id="Path_105642" data-name="Path 105642" d="M186.306,172.564a2.263,2.263,0,0,0-1.736-2.126,1.6,1.6,0,0,0,.046-.377,1.806,1.806,0,0,0-1.877-1.72,1.949,1.949,0,0,0-1.408.585,1.949,1.949,0,0,0-1.408-.585,1.806,1.806,0,0,0-1.877,1.72,1.6,1.6,0,0,0,.046.377,2.263,2.263,0,0,0-1.736,2.126,2.057,2.057,0,0,0,.493,1.333,2.316,2.316,0,0,0-.493,1.421,2.413,2.413,0,0,0,1.127,2h0a2.073,2.073,0,0,0,2.158,1.971,2.235,2.235,0,0,0,1.69-.747,2.235,2.235,0,0,0,1.69.747,2.088,2.088,0,0,0,2.154-1.849,2.19,2.19,0,0,0,1.131-1.874,2.112,2.112,0,0,0-.651-1.5A2.112,2.112,0,0,0,186.306,172.564Zm-1.658,1.916a1.25,1.25,0,0,1,.721,1.088,1.2,1.2,0,0,1-.413.881,2.1,2.1,0,0,0-1.232-.992.468.468,0,0,0-.281.894,1.063,1.063,0,0,1,.8.97,1.238,1.238,0,0,1-2.443,0v-3a1.141,1.141,0,0,1,1.221-1.034.468.468,0,0,0,0-.937,2.29,2.29,0,0,0-1.221.347v-.6a.468.468,0,0,0-.937,0v2.6a2.232,2.232,0,0,0-.518-.24.468.468,0,0,0-.281.894,1.063,1.063,0,0,1,.8.97v1a1.238,1.238,0,0,1-2.443,0,.944.944,0,0,1,.292-.669.468.468,0,0,0-.66-.665,1.992,1.992,0,0,0-.289.363,1.429,1.429,0,0,1-.469-1.033,1.6,1.6,0,0,1,1.325-1.483.468.468,0,0,0-.209-.913,2.853,2.853,0,0,0-.859.35,1.13,1.13,0,0,1-.256-.708,1.406,1.406,0,0,1,1.492-1.284h.012a.468.468,0,0,0,.4-.715l-.011-.017-.006-.008-.023-.03h0a.7.7,0,0,1-.171-.449.955.955,0,0,1,1.879,0,.468.468,0,0,0,.937,0,.955.955,0,0,1,1.879,0,.659.659,0,0,1-.07.295,2.6,2.6,0,0,0-.769.193.468.468,0,0,0,.364.863,1.691,1.691,0,0,1,.648-.131h.026a1.406,1.406,0,0,1,1.491,1.284,1.25,1.25,0,0,1-.721,1.088.468.468,0,0,0,0,.829Z" transform="translate(-176.357 -168.34)"/>
      </g>
    </g>
  </g>
</svg>
