<svg xmlns="http://www.w3.org/2000/svg" xmlns:xlink="http://www.w3.org/1999/xlink" width="28" height="27.99" viewBox="0 0 28 27.99">
  <defs>
    <clipPath id="clip-path">
      <rect id="Rectangle_12543" data-name="Rectangle 12543" width="28" height="27.989"/>
    </clipPath>
  </defs>
  <g id="Group_37666" data-name="Group 37666" transform="translate(0 -0.001)">
    <g id="Group_37666-2" data-name="Group 37666" transform="translate(0 0.001)" clip-path="url(#clip-path)">
      <path id="Path_105396" data-name="Path 105396" d="M28,23.389c-.09.313-.166.631-.273.939a5.489,5.489,0,0,1-10.214.357c-.035-.082-.076-.163-.118-.254a11.166,11.166,0,0,1-6.736,0c-.043.091-.087.178-.126.267a5.489,5.489,0,0,1-8.646,1.926.664.664,0,0,1-.221-.433c0-.332.388-.455.681-.246a7.348,7.348,0,0,0,1.036.707,4.457,4.457,0,0,0,5.032-.522,4.386,4.386,0,0,0,1.6-4.8,4.406,4.406,0,0,0-3.668-3.416,4.4,4.4,0,0,0-4.48,1.669,4.507,4.507,0,0,0-.654,4.765,1.371,1.371,0,0,1,.1.254.391.391,0,0,1-.257.46.377.377,0,0,1-.515-.23A8.1,8.1,0,0,1,.07,23.24a5.427,5.427,0,0,1,3.358-5.829c.041-.018.079-.042.132-.07a11.059,11.059,0,0,1-.012-6.717,11.616,11.616,0,0,1-1.187-.688A5.257,5.257,0,0,1,.142,4.3,5.309,5.309,0,0,1,4.4.055,1.348,1.348,0,0,0,4.552,0H6.469a1.607,1.607,0,0,0,.173.062A5.489,5.489,0,0,1,10.25,2.687c.153.256.273.532.413.808a11.079,11.079,0,0,1,6.71-.006c.026-.02.037-.024.04-.031.042-.091.081-.183.123-.274A5.47,5.47,0,0,1,20.758.245c.272-.1.555-.164.832-.245h1.918a1.813,1.813,0,0,0,.174.06,5.462,5.462,0,0,1,4.037,3.524c.12.311.189.641.282.962V6.354a1.01,1.01,0,0,0-.055.148,5.366,5.366,0,0,1-2.1,3.323,15.564,15.564,0,0,1-1.333.808c.673,3.155.673,3.455-.012,6.713.069.033.141.071.214.1a5.281,5.281,0,0,1,2.7,2.525A14.277,14.277,0,0,1,28,21.581ZM10.9,4.287c.008.1.009.172.021.242a5.284,5.284,0,0,1-.013,1.905A5.413,5.413,0,0,1,9.791,8.872a.412.412,0,0,1-.6.118.424.424,0,0,1-.041-.629c.021-.03.045-.057.067-.087a4.5,4.5,0,0,0,.867-3.694A4.45,4.45,0,0,0,6.571.906a4.386,4.386,0,0,0-4.8,1.742,4.414,4.414,0,0,0-.344,5.068A4.639,4.639,0,0,0,7.63,9.6c.364-.184.581-.158.714.086s.028.463-.347.651a5.4,5.4,0,0,1-2.941.576c-.233-.021-.466-.049-.711-.075a10.214,10.214,0,0,0,.007,6.271,5.436,5.436,0,0,1,5.022,1.5,5.438,5.438,0,0,1,1.519,5.03,10.278,10.278,0,0,0,6.267,0A5.543,5.543,0,0,1,23.7,17.1a10.277,10.277,0,0,0,0-6.276,5.44,5.44,0,0,1-5.031-1.511A5.428,5.428,0,0,1,17.16,4.286a10.247,10.247,0,0,0-6.263,0M22.539.767a4.676,4.676,0,1,0,4.688,4.678A4.681,4.681,0,0,0,22.539.767m.02,26.4a4.676,4.676,0,1,0-4.688-4.678,4.689,4.689,0,0,0,4.688,4.678" transform="translate(0 0)"/>
      <path id="Path_105397" data-name="Path 105397" d="M72.787,370.68c0-.51,0-1.021,0-1.531a.564.564,0,0,1,.9-.529q1.342.762,2.674,1.541a.569.569,0,0,1,.006,1.057q-1.331.781-2.674,1.543a.567.567,0,0,1-.9-.522c0-.519,0-1.039,0-1.559m.833,1.176,2.015-1.166-2.015-1.162Z" transform="translate(-68.783 -348.252)"/>
      <path id="Path_105398" data-name="Path 105398" d="M187.387,182.462c-.168-.007-.3-.009-.439-.02a.791.791,0,0,1-.75-.766q-.018-1.122,0-2.245a.792.792,0,0,1,.794-.779,9.554,9.554,0,0,1,1.532.01,4.778,4.778,0,0,0,2.515-.525c.38-.152.742-.348,1.11-.529.218-.107.432-.2.431-.521,0-.1.222-.271.342-.272a.668.668,0,0,1,.4.252c.059.065.044.208.044.316q0,3.162,0,6.324a1.141,1.141,0,0,1-.021.271.375.375,0,0,1-.418.315.355.355,0,0,1-.371-.362.351.351,0,0,0-.237-.351c-.222-.106-.439-.222-.655-.341a.412.412,0,1,1,.377-.728c.155.072.306.15.486.239v-4.332l-3.141,1.2v1.924c.31.093.63.185.949.285s.432.3.353.547c-.072.227-.3.319-.585.237a1.524,1.524,0,0,1-.261-.079c-.527-.261-1.067-.031-1.628-.081.033.654.064,1.272.095,1.89.013.255.03.51.034.766.005.285-.143.456-.386.465s-.416-.159-.433-.459c-.043-.783-.08-1.567-.119-2.351,0-.09-.011-.18-.018-.3m1.148-2.973h-1.5v2.121h1.5Z" transform="translate(-175.952 -167.094)"/>
      <path id="Path_105399" data-name="Path 105399" d="M42.388,54.791a1.556,1.556,0,0,1,.962-1.237,1.429,1.429,0,0,1,1.315.091.367.367,0,0,0,.446-.007.632.632,0,0,1,.235-.134c.144-.015.336-.041.427.035a.513.513,0,0,1,.147.42,1.868,1.868,0,0,1-.282.673,1.31,1.31,0,0,0-.206.688,3.457,3.457,0,0,1-1.651,2.868,3.755,3.755,0,0,1-3.9.019.41.41,0,0,1,.185-.774c.271-.022.541-.051.862-.081a1.8,1.8,0,0,0-.148-.178,2.808,2.808,0,0,1-.606-3.2c.143-.359.5-.387.755-.065a2.3,2.3,0,0,0,1.462.879m-.666,3.1A2.677,2.677,0,0,0,44.6,55.445a3.428,3.428,0,0,0,.006-.789c-.029-.207-.517-.414-.79-.381a.684.684,0,0,0-.585.567,2.308,2.308,0,0,0-.013.273c-.01.384-.158.535-.534.526a3.019,3.019,0,0,1-1.554-.455c-.112-.07-.223-.142-.353-.225a1.719,1.719,0,0,0,.711,1.723c.161.117.349.2.517.3a.405.405,0,0,1,.033.688c-.082.065-.175.118-.313.211" transform="translate(-37.474 -50.498)"/>
      <path id="Path_105400" data-name="Path 105400" d="M379.078,44.346c-.233,0-.415.007-.6,0a.386.386,0,0,1-.392-.379.406.406,0,0,1,.372-.431,2.4,2.4,0,0,1,.3-.006h.315c0-.361,0-.7,0-1.045a1.573,1.573,0,0,1,.517-1.247,1.949,1.949,0,0,1,1.65-.371.358.358,0,0,1,.309.421.376.376,0,0,1-.372.369c-.182.013-.365,0-.547.008a.7.7,0,0,0-.726.7c-.019.372,0,.745,0,1.162.193,0,.371,0,.549,0,.3.007.483.16.488.4s-.175.411-.5.417c-.171,0-.341,0-.546,0,0,.228,0,.426,0,.624,0,.575,0,1.149,0,1.724,0,.332-.146.505-.4.507s-.412-.172-.414-.5c0-.675,0-1.35,0-2.025v-.335" transform="translate(-357.299 -38.588)"/>
      <path id="Path_105401" data-name="Path 105401" d="M360,356.177c.556,0,1.113,0,1.669,0a1.135,1.135,0,0,1,1.235,1.249q.005,1.669,0,3.338A1.142,1.142,0,0,1,361.679,362q-1.683.006-3.366,0a1.139,1.139,0,0,1-1.233-1.226q-.008-1.683,0-3.365a1.13,1.13,0,0,1,1.226-1.229c.566-.006,1.131,0,1.7,0m-.011,5c.557,0,1.114,0,1.671,0,.311,0,.42-.1.421-.405q.006-1.684,0-3.368c0-.3-.1-.4-.392-.4q-1.7-.007-3.4,0c-.3,0-.392.1-.393.4q-.005,1.684,0,3.368c0,.306.108.406.418.408.557,0,1.114,0,1.671,0" transform="translate(-337.442 -336.591)"/>
      <path id="Path_105402" data-name="Path 105402" d="M390.085,387.809a1.237,1.237,0,1,1-2.473-.06,1.237,1.237,0,0,1,2.473.06m-.823-.017a.414.414,0,1,0-.828-.014.414.414,0,0,0,.828.014" transform="translate(-366.298 -365.291)"/>
    </g>
  </g>
</svg>
