<svg width="32" height="32" viewBox="0 0 32 32" fill="none" xmlns="http://www.w3.org/2000/svg">
<path d="M17.5 26.5001C17.2235 26.5001 17 26.2761 17 26.0001V17.6001C17 17.3241 17.2235 17.1001 17.5 17.1001C17.7765 17.1001 18 17.3241 18 17.6001V26.0001C18 26.2761 17.7765 26.5001 17.5 26.5001Z" fill="black"/>
<path d="M23.4005 26.5001C23.124 26.5001 22.9005 26.2761 22.9005 26.0001V17.6001C22.9005 17.3241 23.124 17.1001 23.4005 17.1001C23.677 17.1001 23.9005 17.3241 23.9005 17.6001V26.0001C23.9005 26.2761 23.677 26.5001 23.4005 26.5001Z" fill="black"/>
<path d="M8.59998 22.3001C8.32348 22.3001 8.09998 22.0761 8.09998 21.8001V17.6001C8.09998 17.3241 8.32348 17.1001 8.59998 17.1001C8.87598 17.1001 9.09998 17.3241 9.09998 17.6001V21.8001C9.09998 22.0761 8.87598 22.3001 8.59998 22.3001Z" fill="black"/>
<path d="M14.5 22.3001C14.224 22.3001 14 22.0761 14 21.8001V17.6001C14 17.3241 14.224 17.1001 14.5 17.1001C14.7765 17.1001 15 17.3241 15 17.6001V21.8001C15 22.0761 14.7765 22.3001 14.5 22.3001Z" fill="black"/>
<path d="M29 29.5C28.7235 29.5 28.5 29.276 28.5 29V26C28.5 25.724 28.7235 25.5 29 25.5C29.2765 25.5 29.5 25.724 29.5 26V29C29.5 29.276 29.2765 29.5 29 29.5Z" fill="black"/>
<path d="M29 29.5H3C2.724 29.5 2.5 29.276 2.5 29C2.5 28.724 2.724 28.5 3 28.5H29C29.2765 28.5 29.5 28.724 29.5 29C29.5 29.276 29.2765 29.5 29 29.5Z" fill="black"/>
<path d="M3 29.5C2.724 29.5 2.5 29.276 2.5 29V26C2.5 25.724 2.724 25.5 3 25.5C3.2765 25.5 3.5 25.724 3.5 26V29C3.5 29.276 3.2765 29.5 3 29.5Z" fill="black"/>
<path d="M25 5.5C24.7235 5.5 24.5 5.276 24.5 5C24.5 4.173 23.827 3.5 23 3.5C22.7235 3.5 22.5 3.276 22.5 3C22.5 2.724 22.7235 2.5 23 2.5C24.3785 2.5 25.5 3.6215 25.5 5C25.5 5.276 25.2765 5.5 25 5.5Z" fill="black"/>
<path d="M25 6.5C24.7235 6.5 24.5 6.276 24.5 6V5C24.5 4.724 24.7235 4.5 25 4.5C25.2765 4.5 25.5 4.724 25.5 5V6C25.5 6.276 25.2765 6.5 25 6.5Z" fill="black"/>
<path d="M23 3.5H9C8.724 3.5 8.5 3.276 8.5 3C8.5 2.724 8.724 2.5 9 2.5H23C23.2765 2.5 23.5 2.724 23.5 3C23.5 3.276 23.2765 3.5 23 3.5Z" fill="black"/>
<path d="M7 5.5C6.724 5.5 6.5 5.276 6.5 5C6.5 3.6215 7.6215 2.5 9 2.5C9.2765 2.5 9.5 2.724 9.5 3C9.5 3.276 9.2765 3.5 9 3.5C8.173 3.5 7.5 4.173 7.5 5C7.5 5.276 7.2765 5.5 7 5.5Z" fill="black"/>
<path d="M7 6.5C6.724 6.5 6.5 6.276 6.5 6V5C6.5 4.724 6.724 4.5 7 4.5C7.2765 4.5 7.5 4.724 7.5 5V6C7.5 6.276 7.2765 6.5 7 6.5Z" fill="black"/>
<path d="M29 26.5H3C2.724 26.5 2.5 26.276 2.5 26C2.5 25.724 2.724 25.5 3 25.5H29C29.2765 25.5 29.5 25.724 29.5 26C29.5 26.276 29.2765 26.5 29 26.5Z" fill="black"/>
<path d="M25 6.5H7C6.724 6.5 6.5 6.276 6.5 6C6.5 5.724 6.724 5.5 7 5.5H25C25.2765 5.5 25.5 5.724 25.5 6C25.5 6.276 25.2765 6.5 25 6.5Z" fill="black"/>
<path d="M14.5 22.2998H8.59998C8.32348 22.2998 8.09998 22.0758 8.09998 21.7998C8.09998 21.5238 8.32348 21.2998 8.59998 21.2998H14.5C14.7765 21.2998 15 21.5238 15 21.7998C15 22.0758 14.7765 22.2998 14.5 22.2998Z" fill="black"/>
<path d="M26.4005 26.5001C26.124 26.5001 25.9005 26.2761 25.9005 26.0001V14.6001C25.9005 14.3241 26.124 14.1001 26.4005 14.1001C26.677 14.1001 26.9005 14.3241 26.9005 14.6001V26.0001C26.9005 26.2761 26.677 26.5001 26.4005 26.5001Z" fill="black"/>
<path d="M5.59998 26.5001C5.32348 26.5001 5.09998 26.2761 5.09998 26.0001V14.6001C5.09998 14.3241 5.32348 14.1001 5.59998 14.1001C5.87598 14.1001 6.09998 14.3241 6.09998 14.6001V26.0001C6.09998 26.2761 5.87598 26.5001 5.59998 26.5001Z" fill="black"/>
<path d="M14.5 18.1001H8.59998C8.32348 18.1001 8.09998 17.8761 8.09998 17.6001C8.09998 17.3241 8.32348 17.1001 8.59998 17.1001H14.5C14.7765 17.1001 15 17.3241 15 17.6001C15 17.8761 14.7765 18.1001 14.5 18.1001Z" fill="black"/>
<path d="M23.4005 18.1001H17.5C17.2235 18.1001 17 17.8761 17 17.6001C17 17.3241 17.2235 17.1001 17.5 17.1001H23.4005C23.677 17.1001 23.9005 17.3241 23.9005 17.6001C23.9005 17.8761 23.677 18.1001 23.4005 18.1001Z" fill="black"/>
<path d="M26.4005 15.1C24.72 15.1 23.3005 13.6805 23.3005 12C23.3005 11.724 23.524 11.5 23.8005 11.5C24.077 11.5 24.3005 11.724 24.3005 12C24.3005 13.1385 25.2625 14.1 26.4005 14.1C27.5385 14.1 28.5 13.1385 28.5 12C28.5 11.724 28.7235 11.5 29 11.5C29.2765 11.5 29.5 11.724 29.5 12C29.5 13.6805 28.0805 15.1 26.4005 15.1Z" fill="black"/>
<path d="M21.2 15.1C19.5195 15.1 18.1 13.6805 18.1 12C18.1 11.724 18.3235 11.5 18.6 11.5C18.8765 11.5 19.1 11.724 19.1 12C19.1 13.1385 20.062 14.1 21.2 14.1C22.338 14.1 23.3 13.1385 23.3 12C23.3 11.724 23.5235 11.5 23.8 11.5C24.0765 11.5 24.3 11.724 24.3 12C24.3005 13.6805 22.881 15.1 21.2 15.1Z" fill="black"/>
<path d="M16 15.1C14.32 15.1 12.9 13.6805 12.9 12C12.9 11.724 13.124 11.5 13.4 11.5C13.6765 11.5 13.9 11.724 13.9 12C13.9 13.1385 14.862 14.1 16 14.1C17.138 14.1 18.1 13.1385 18.1 12C18.1 11.724 18.3235 11.5 18.6 11.5C18.8765 11.5 19.1 11.724 19.1 12C19.1 13.6805 17.6805 15.1 16 15.1Z" fill="black"/>
<path d="M5.6 15.1C3.92 15.1 2.5 13.6805 2.5 12C2.5 11.724 2.724 11.5 3 11.5C3.2765 11.5 3.5 11.724 3.5 12C3.5 13.1385 4.462 14.1 5.6 14.1C6.738 14.1 7.7 13.1385 7.7 12C7.7 11.724 7.9235 11.5 8.2 11.5C8.476 11.5 8.7 11.724 8.7 12C8.7 13.6805 7.2805 15.1 5.6 15.1Z" fill="black"/>
<path d="M10.8006 15.1C9.12006 15.1 7.70056 13.6805 7.70056 12C7.70056 11.724 7.92406 11.5 8.20056 11.5C8.47656 11.5 8.70056 11.724 8.70056 12C8.70056 13.1385 9.66206 14.1 10.8006 14.1C11.9386 14.1 12.9001 13.1385 12.9001 12C12.9001 11.724 13.1241 11.5 13.4001 11.5C13.6766 11.5 13.9001 11.724 13.9001 12C13.9001 13.6805 12.4806 15.1 10.8006 15.1Z" fill="black"/>
<path d="M3 12.5C2.724 12.5 2.5 12.276 2.5 12V10C2.5 9.724 2.724 9.5 3 9.5C3.2765 9.5 3.5 9.724 3.5 10V12C3.5 12.276 3.2765 12.5 3 12.5Z" fill="black"/>
<path d="M8.19995 12.5C7.92345 12.5 7.69995 12.276 7.69995 12V10C7.69995 9.724 7.92345 9.5 8.19995 9.5C8.47595 9.5 8.69995 9.724 8.69995 10V12C8.69995 12.276 8.47595 12.5 8.19995 12.5Z" fill="black"/>
<path d="M13.4 12.5C13.124 12.5 12.9 12.276 12.9 12V10C12.9 9.724 13.124 9.5 13.4 9.5C13.6765 9.5 13.9 9.724 13.9 10V12C13.9 12.276 13.6765 12.5 13.4 12.5Z" fill="black"/>
<path d="M18.6 12.5C18.3235 12.5 18.1 12.276 18.1 12V10C18.1 9.724 18.3235 9.5 18.6 9.5C18.8765 9.5 19.1 9.724 19.1 10V12C19.1 12.276 18.8765 12.5 18.6 12.5Z" fill="black"/>
<path d="M23.8005 12.5C23.524 12.5 23.3005 12.276 23.3005 12V10C23.3005 9.724 23.524 9.5 23.8005 9.5C24.077 9.5 24.3005 9.724 24.3005 10V12C24.3005 12.276 24.0765 12.5 23.8005 12.5Z" fill="black"/>
<path d="M29 12.5C28.7235 12.5 28.5 12.276 28.5 12V10C28.5 9.724 28.7235 9.5 29 9.5C29.2765 9.5 29.5 9.724 29.5 10V12C29.5 12.276 29.2765 12.5 29 12.5Z" fill="black"/>
<path d="M29 10.5001C28.872 10.5001 28.744 10.4511 28.6465 10.3536L24.6465 6.35362C24.451 6.15812 24.451 5.84212 24.6465 5.64662C24.842 5.45112 25.158 5.45112 25.3535 5.64662L29.3535 9.64662C29.549 9.84212 29.549 10.1581 29.3535 10.3536C29.256 10.4511 29.128 10.5001 29 10.5001Z" fill="black"/>
<path d="M3 10.5001C2.872 10.5001 2.744 10.4511 2.6465 10.3536C2.451 10.1581 2.451 9.84212 2.6465 9.64662L6.6465 5.64662C6.842 5.45112 7.158 5.45112 7.3535 5.64662C7.549 5.84212 7.549 6.15812 7.3535 6.35362L3.3535 10.3536C3.256 10.4511 3.128 10.5001 3 10.5001V10.5001Z" fill="black"/>
<path d="M23.801 10.5C23.631 10.5 23.4655 10.4135 23.372 10.2575L20.972 6.25745C20.83 6.02045 20.9065 5.71345 21.1435 5.57145C21.3805 5.42895 21.688 5.50645 21.8295 5.74295L24.2295 9.74295C24.3715 9.97995 24.295 10.287 24.058 10.429C23.977 10.477 23.888 10.5 23.801 10.5Z" fill="black"/>
<path d="M18.5996 10.5001C18.3661 10.5001 18.1571 10.3356 18.1101 10.0981L17.3101 6.0981C17.2561 5.8271 17.4316 5.5641 17.7021 5.5096C17.9761 5.4561 18.2366 5.6316 18.2906 5.9016L19.0906 9.9016C19.1446 10.1726 18.9691 10.4356 18.6986 10.4901C18.6651 10.4971 18.6321 10.5001 18.5996 10.5001V10.5001Z" fill="black"/>
<path d="M13.4005 10.5001C13.3685 10.5001 13.335 10.4971 13.302 10.4901C13.0315 10.4361 12.8555 10.1726 12.91 9.90162L13.7105 5.90162C13.764 5.63112 14.0275 5.45612 14.299 5.50962C14.5695 5.56362 14.7455 5.82712 14.691 6.09812L13.8905 10.0981C13.843 10.3356 13.634 10.5001 13.4005 10.5001V10.5001Z" fill="black"/>
<path d="M8.19955 10.5001C8.11155 10.5001 8.02305 10.4771 7.94255 10.4286C7.70555 10.2866 7.62905 9.97962 7.77105 9.74262L10.1711 5.74262C10.3131 5.50562 10.6201 5.42962 10.8571 5.57112C11.0941 5.71312 11.1706 6.02012 11.0286 6.25712L8.62855 10.2571C8.53505 10.4136 8.36955 10.5001 8.19955 10.5001Z" fill="black"/>
<path d="M29 10.5H3C2.724 10.5 2.5 10.276 2.5 10C2.5 9.724 2.724 9.5 3 9.5H29C29.2765 9.5 29.5 9.724 29.5 10C29.5 10.276 29.2765 10.5 29 10.5Z" fill="black"/>
</svg>
