<svg width="32" height="32" viewBox="0 0 32 32" fill="none" xmlns="http://www.w3.org/2000/svg">
<g clip-path="url(#clip0_14_263)">
<path d="M25.279 31.5017L25.1301 29.144C25.0727 28.238 24.7473 27.3814 24.1891 26.6668C24.0297 26.4627 23.7352 26.4264 23.5311 26.586C23.3271 26.7453 23.291 27.0399 23.4503 27.2439C23.8918 27.809 24.149 28.4865 24.1945 29.2031L24.3118 31.0625H7.68833L7.80565 29.2033C7.8659 28.2532 8.29333 27.3845 9.00915 26.7575C9.43358 26.3858 9.94746 26.1181 10.4954 25.9829L13.027 25.3572C13.3636 25.2739 13.5987 24.9739 13.5987 24.6278V22.8214C14.4106 23.1472 15.2428 23.3233 16.0001 23.3233C16.7471 23.3233 17.5693 23.1512 18.3727 22.8328V24.6203C18.3727 24.9669 18.6076 25.2671 18.9441 25.3504L21.5054 25.983C21.7228 26.0365 21.9372 26.1117 22.1426 26.2065C22.2062 26.2359 22.273 26.2498 22.3388 26.2498C22.516 26.2498 22.6855 26.1488 22.7647 25.9775C22.8732 25.7424 22.7707 25.4639 22.5356 25.3554C22.276 25.2355 22.0046 25.1403 21.7296 25.0728L19.3103 24.4752V22.3887C20.6978 21.6186 21.8444 20.4583 22.5576 19.0949C22.6776 18.8655 22.589 18.5823 22.3596 18.4623C22.1301 18.3421 21.847 18.4309 21.727 18.6603C21.0597 19.9359 19.9593 21.012 18.6286 21.6902C17.7488 22.1388 16.8154 22.3859 16.0001 22.3859C15.1749 22.3859 14.232 22.1339 13.3445 21.676C12.0561 21.0133 10.9806 19.9708 10.3161 18.7405C10.1931 18.5127 9.90877 18.4278 9.6809 18.5509C9.45308 18.674 9.36821 18.9583 9.49127 19.1861C10.2004 20.499 11.3196 21.6215 12.6613 22.3727V24.482L10.2708 25.0727C9.57827 25.2435 8.9284 25.5821 8.39165 26.0522C7.48665 26.845 6.94633 27.943 6.87015 29.1442L6.7214 31.5018C6.71321 31.631 6.7589 31.7578 6.84746 31.8522C6.93602 31.9465 7.05971 32 7.18921 32H24.8112C24.9406 32 25.0643 31.9465 25.153 31.8522C25.2416 31.7577 25.2872 31.6309 25.279 31.5017Z" fill="black"/>
<path d="M29.7978 7.34275C29.539 7.34275 29.3291 7.55257 29.3291 7.8115V17.4257C29.3291 20.7138 25.8503 22.3819 23.7765 23.0836C22.674 23.4568 22.111 23.2586 22.0016 23.0343C21.9365 22.9009 22.0202 22.7227 22.2052 22.601C23.0037 22.076 26.2296 19.6203 26.2296 18.0746C26.2296 17.3765 26.1631 16.7066 26.1073 16.2676C26.0755 16.0173 25.925 15.7944 25.7046 15.6715C25.4839 15.5483 25.2149 15.5374 24.9848 15.6419L22.4818 16.7793C22.3021 16.861 22.0935 16.8164 21.963 16.6683C21.8815 16.5758 21.8425 16.4572 21.8533 16.3344C21.8641 16.2116 21.9232 16.1017 22.0197 16.0248C22.4662 15.6691 22.8405 15.3878 23.1545 15.1642C23.1581 15.1615 23.162 15.1591 23.1655 15.1563C23.9092 14.6278 24.3087 14.4289 24.5038 14.3544C24.5131 14.3513 24.5223 14.3481 24.5313 14.3443C24.621 14.3122 24.6595 14.3098 24.6647 14.3096H26.1997C26.4586 14.3096 26.6685 14.0998 26.6685 13.8408V8.07807C26.6685 7.81913 26.4586 7.60932 26.1997 7.60932C25.9408 7.60932 25.731 7.81913 25.731 8.07807V13.372H24.9839C25.1125 12.8222 25.2253 12.1173 25.1929 11.4133C25.147 10.4166 24.8115 9.66013 24.2183 9.20625C24.1677 7.55044 23.7346 6.20632 22.9291 5.208C22.355 4.49632 21.6088 3.97638 20.7095 3.65825C20.4186 2.15513 19.2242 0.818129 17.6516 0.272004C16.2966 -0.198496 13.5069 -0.463746 10.0471 3.04738C9.86545 3.23175 9.86764 3.5285 10.052 3.71019C10.2364 3.89194 10.5332 3.88975 10.7149 3.70532C13.8128 0.561442 16.198 0.759754 17.3439 1.15763C17.6706 1.27107 17.9647 1.42125 18.2271 1.59669C17.9266 1.58713 17.6213 1.61294 17.3212 1.67594C16.3604 1.87807 15.4315 2.41163 14.4813 3.30725C14.293 3.48482 14.2841 3.7815 14.4617 3.96994C14.554 4.06775 14.6783 4.11713 14.8029 4.11713C14.9182 4.11713 15.0338 4.07482 15.1243 3.9895C15.9454 3.21563 16.7271 2.75894 17.5141 2.59338C18.1904 2.45138 18.8925 2.55644 19.417 2.87319C19.6469 3.277 19.7826 3.69294 19.8236 4.06632C19.839 4.20194 19.8429 4.33488 19.8353 4.46194C19.8251 4.63575 19.7938 4.81207 19.7416 4.99063C19.5772 5.55238 19.2048 6.13719 18.6281 6.741C18.163 7.22819 17.6179 7.67363 17.0743 8.06732C17.0742 8.06744 17.0741 8.06757 17.0739 8.06769C15.9646 8.87207 14.542 9.68332 12.8456 10.479C11.2106 11.2466 9.78852 12.6594 9.0777 14.1832C8.42345 13.7394 8.01427 13.5386 7.75002 13.4475C7.50021 11.1298 7.64589 7.91082 9.55183 5.11732C9.6977 4.9035 9.64264 4.61188 9.42883 4.46594C9.21495 4.32 8.92333 4.37513 8.77745 4.589C6.76058 7.545 6.55933 10.9074 6.79971 13.3719H6.26921V8.078C6.26921 7.81907 6.05933 7.60925 5.80046 7.60925C5.54158 7.60925 5.33171 7.81907 5.33171 8.078V13.8408C5.33171 14.0997 5.54158 14.3095 5.80046 14.3095H7.33502C7.35214 14.3099 7.70402 14.3327 9.00608 15.2796C9.01102 15.2834 9.01602 15.287 9.02108 15.2906C9.29696 15.4916 9.6142 15.7328 9.98058 16.0248C10.077 16.1016 10.1361 16.2115 10.147 16.3343C10.1578 16.4571 10.1188 16.5756 10.0373 16.6682C9.90677 16.8163 9.69814 16.8609 9.51846 16.7792L7.01546 15.6418C6.78533 15.5373 6.51633 15.5483 6.29564 15.6714C6.07527 15.7943 5.92471 16.0171 5.89296 16.2674C5.83714 16.7064 5.77064 17.3764 5.77064 18.0745C5.77064 19.6201 8.99645 22.0759 9.79502 22.6009C9.98002 22.7225 10.0637 22.9008 9.99858 23.0342C9.88914 23.2584 9.32614 23.4565 8.22364 23.0834C6.14996 22.3818 2.67114 20.7136 2.67114 17.4256V7.81163C2.67114 7.55269 2.46127 7.34288 2.20239 7.34288C1.94352 7.34288 1.73364 7.55269 1.73364 7.81163V17.4258C1.73364 19.1117 2.47495 20.5946 3.93714 21.8334C5.21964 22.92 6.81264 23.5959 7.92314 23.9718C8.45708 24.1524 8.91496 24.2288 9.30108 24.2288C10.1328 24.2287 10.6319 23.8744 10.8411 23.4456C11.1148 22.8847 10.8916 22.2001 10.3101 21.8178C9.74558 21.4466 8.82089 20.7211 8.02764 19.9374C7.05483 18.9761 6.70821 18.3449 6.70821 18.0748C6.70821 17.5179 6.75414 16.9768 6.80027 16.574L9.13064 17.6329C9.68833 17.8863 10.3355 17.7479 10.7406 17.2883C10.9936 17.0013 11.1145 16.6333 11.081 16.2523C11.0474 15.8712 10.8641 15.5301 10.5649 15.2916C10.308 15.0869 10.0729 14.9053 9.85539 14.7419C10.4412 13.3661 11.7633 12.0231 13.244 11.328C14.8933 10.5545 16.2971 9.7625 17.4217 8.97157C20.5983 10.1433 21.7386 12.5373 22.3363 14.5994C22.068 14.797 21.7697 15.0253 21.4353 15.2916C21.1361 15.5301 20.9528 15.8712 20.9193 16.2523C20.8857 16.6334 21.0066 17.0013 21.2596 17.2883C21.6646 17.7479 22.3117 17.8863 22.8696 17.633L25.1998 16.5741C25.246 16.9768 25.2919 17.518 25.2919 18.0748C25.2919 18.3449 24.9453 18.9762 23.9725 19.9374C23.1793 20.7212 22.2546 21.4466 21.69 21.8178C21.1085 22.2001 20.8853 22.8848 21.159 23.4457C21.3683 23.8746 21.8671 24.2289 22.699 24.2289C23.0851 24.2289 23.5431 24.1525 24.077 23.9719C25.1875 23.5961 26.7805 22.9201 28.063 21.8335C29.5252 20.5948 30.2665 19.1118 30.2665 17.4259V7.81169C30.2666 7.55263 30.0567 7.34275 29.7978 7.34275ZM18.2955 8.31213C19.4251 7.39057 20.5921 6.13319 20.7568 4.68588C22.44 5.44907 23.0551 7.02944 23.2283 8.51544L23.0466 8.38744C22.8349 8.23838 22.5425 8.28913 22.3934 8.50075C22.2443 8.71244 22.295 9.00482 22.5066 9.15394L23.4843 9.84263C23.4896 9.84638 23.4953 9.84888 23.5007 9.85238C23.5071 9.8565 23.513 9.86125 23.5197 9.86507C24.4795 10.4193 24.3693 12.1581 23.9654 13.5652C23.757 13.6633 23.4895 13.8121 23.1455 14.0354C22.5291 12.0641 21.3183 9.64063 18.2955 8.31213Z" fill="black"/>
</g>
<defs>
<clipPath id="clip0_14_263">
<rect width="32" height="32" fill="white"/>
</clipPath>
</defs>
</svg>
