<svg id="Group_37662" data-name="Group 37662" xmlns="http://www.w3.org/2000/svg" xmlns:xlink="http://www.w3.org/1999/xlink" width="31.468" height="32" viewBox="0 0 31.468 32">
  <defs>
    <clipPath id="clip-path">
      <rect id="Rectangle_12539" data-name="Rectangle 12539" width="31.468" height="32" stroke="#000" stroke-width="0.2"/>
    </clipPath>
  </defs>
  <g id="Group_37662-2" data-name="Group 37662" clip-path="url(#clip-path)">
    <path id="Path_105376" data-name="Path 105376" d="M8.745,9.917c-.914-3.547-.1-6.489,2.891-8.553a6.8,6.8,0,0,1,7.9-.191c3.216,2.018,4.131,5.041,3.194,8.744h.51q3.061,0,6.123,0a1.932,1.932,0,0,1,2.1,2.076q.012,8.948,0,17.9a1.929,1.929,0,0,1-2.121,2.094q-3.8,0-7.594,0a1.929,1.929,0,0,1-2.125-2.12c-.01-1.939,0-3.879-.023-5.818a.9.9,0,0,0-.229-.546,5.592,5.592,0,0,1-1.6-3.96,2.522,2.522,0,0,1,1.616-2.47c.086-.036.213-.125.214-.191.014-1.016.009-2.033.009-3.117a7.449,7.449,0,0,1-7.714.016,2.6,2.6,0,0,0-.045.322c0,.85,0,1.7-.008,2.551a.406.406,0,0,0,.283.45,2.458,2.458,0,0,1,1.56,2.336,5.376,5.376,0,0,1-1.56,4.005.981.981,0,0,0-.284.741c.011,1.86-.037,3.721.023,5.579A2.085,2.085,0,0,1,9.629,32c-2.49-.056-4.983-.015-7.474-.017A1.94,1.94,0,0,1,.016,29.833C.014,23.921.034,18.009,0,12.1A2.093,2.093,0,0,1,2.2,9.9c2.013.062,4.028.016,6.043.015h.5M20.125,24.273c0,.158,0,.288,0,.417,0,1.355.013,2.71-.01,4.064-.006.375.113.463.471.461q4.949-.019,9.9,0c.39,0,.479-.12.478-.494q-.017-8.128-.008-16.257c0-.212.005-.425,0-.637a1.432,1.432,0,0,0-1.241-1.389.4.4,0,0,0-.5.246c-.181.4-.4.777-.6,1.169a.792.792,0,0,1-.766.471q-2.305,0-4.611,0a.79.79,0,0,1-.763-.473c-.2-.4-.4-.81-.635-1.193a.518.518,0,0,0-.39-.214,1.346,1.346,0,0,0-1.3,1.311c-.03,1.633-.014,3.267-.021,4.9,0,.209.092.265.29.272a2.6,2.6,0,0,1,1.825.85c.062.064.135.118.254.22a3.241,3.241,0,0,1,.284-.35,2.466,2.466,0,0,1,2.56-.634,2.4,2.4,0,0,1,1.742,2.026,4.7,4.7,0,0,1-.416,2.756,7.427,7.427,0,0,1-4.025,3.655.68.68,0,0,1-.515-.057c-.652-.345-1.289-.72-2-1.12m-8.814-7.382a1.182,1.182,0,0,0,.028-.173c0-1.66.007-3.32-.014-4.98a1.361,1.361,0,0,0-1.232-1.3.406.406,0,0,0-.5.261c-.18.4-.4.778-.6,1.166a.743.743,0,0,1-.692.45c-1.577,0-3.153,0-4.73,0a.763.763,0,0,1-.718-.478c-.186-.381-.4-.748-.574-1.136a.413.413,0,0,0-.506-.261,1.477,1.477,0,0,0-1.25,1.539q.024,8.407,0,16.815c0,.345.118.418.436.417q4.989-.014,9.977,0c.294,0,.42-.056.416-.389-.016-1.408,0-2.816,0-4.224a2.03,2.03,0,0,0-.041-.3c-.676.38-1.311.76-1.97,1.091a.8.8,0,0,1-.62,0,10.649,10.649,0,0,1-1.489-.831A6.055,6.055,0,0,1,4.349,19.9a2.692,2.692,0,0,1,1.506-2.783,2.577,2.577,0,0,1,3.054.741.913.913,0,0,0,.117.092,3.035,3.035,0,0,1,2.285-1.056M15.987.66V1.2c0,.478.016.957-.011,1.434-.007.118-.154.228-.237.341-.083-.114-.214-.219-.237-.344a3.778,3.778,0,0,1-.017-.675c0-.435,0-.87,0-1.387-.541.093-1.026.146-1.495.262A6.907,6.907,0,0,0,8.911,6.818c-.025.3.057.409.362.395a11.1,11.1,0,0,1,1.271.006c.123.008.236.149.354.229a1.656,1.656,0,0,1-.362.267,1.148,1.148,0,0,1-.394.01H8.835c.13.63.257,1.183.356,1.74.062.349.229.463.589.461a1.916,1.916,0,0,1,2.074,2.083c.006,1.234,0,1.246,1.139,1.739a5.942,5.942,0,0,0,2.485.547c0-.259,0-.482,0-.7,0-.452-.01-.9.02-1.354.007-.1.161-.192.247-.288a1.277,1.277,0,0,1,.235.3,1.045,1.045,0,0,1,.009.355c0,.554,0,1.107,0,1.651a6.231,6.231,0,0,0,2.766-.621,1.251,1.251,0,0,0,.889-1.445,2.517,2.517,0,0,1,.273-1.328,1.829,1.829,0,0,1,1.794-.955c.164,0,.443-.092.474-.2.182-.629.306-1.274.465-1.983-.629,0-1.143.018-1.654-.012-.145-.009-.282-.16-.423-.245.14-.087.275-.24.42-.248.511-.031,1.026-.012,1.537-.012A6.705,6.705,0,0,0,15.987.66M4.826,19.673c.051.326.083.657.156.978A5.765,5.765,0,0,0,7.947,24.41c1.286.743.852.71,2.154.013a4.15,4.15,0,0,0,.436-.276,5.678,5.678,0,0,0,2.649-4.233,2.088,2.088,0,0,0-1.756-2.467,2.142,2.142,0,0,0-2.009.892c-.292.353-.511.343-.8-.014a2.081,2.081,0,0,0-2.46-.778,2.153,2.153,0,0,0-1.336,2.126m21.771.008c0-.119.005-.239,0-.358a2.005,2.005,0,0,0-1.348-1.8,1.963,1.963,0,0,0-2.149.528c-.647.652-.627.657-1.307.01a2.021,2.021,0,0,0-2.27-.482A1.922,1.922,0,0,0,18.3,19.424a4.553,4.553,0,0,0,.127,1.3,6.392,6.392,0,0,0,3.885,4.187.451.451,0,0,0,.366-.042,16.981,16.981,0,0,0,2.02-1.319,4.973,4.973,0,0,0,1.9-3.868m4.32,10.066H20.159a1.408,1.408,0,0,0,1.433,1.712q3.952.006,7.9,0a1.4,1.4,0,0,0,1.42-1.712m-19.608-.016H.583a1.367,1.367,0,0,0,1.411,1.724c2.607.008,5.215,0,7.822,0a1.41,1.41,0,0,0,1.493-1.728m11.01-19.29c.245.461.45.88.692,1.277.048.079.238.1.363.1q2.163.01,4.326,0c.134,0,.334-.037.389-.127.237-.387.431-.8.665-1.25Zm-13.171.02H2.722c.227.437.412.83.637,1.2a.5.5,0,0,0,.371.155q2.2.017,4.406,0a.5.5,0,0,0,.375-.152c.225-.369.409-.764.636-1.2" transform="translate(0 0)" stroke="#000" stroke-width="0.2"/>
    <path id="Path_105377" data-name="Path 105377" d="M161.764,43.41c-.438-1.144-.836-2.165-1.217-3.193-.078-.21-.342-.5.007-.65s.372.248.453.451q.7,1.755,1.354,3.525a1.579,1.579,0,0,1,.021.48A1.784,1.784,0,0,1,161.9,44c-.815-.271-1.628-.551-2.431-.856-.131-.05-.209-.24-.311-.365.159-.035.338-.135.474-.093.679.208,1.346.453,2.133.724" transform="translate(-146.473 -36.382)" stroke="#000" stroke-width="0.2"/>
  </g>
</svg>
