<svg width="32" height="32" viewBox="0 0 32 32" fill="none" xmlns="http://www.w3.org/2000/svg">
<path d="M10.4998 13V16C10.4998 16.25 10.6498 16.4 10.8998 16.5C11.1498 16.6 11.3998 16.4 11.4498 16.2L11.7998 15.5C12.0498 15.1 12.4498 15.2 12.4998 15.25V15.45C12.4998 16 12.9498 16.45 13.4998 16.5V17C13.4998 17.1 13.5498 17.25 13.6498 17.3L14.4998 18.15V19C14.0998 18.7 13.5498 18.5 12.9998 18.5C12.6498 18.5 12.3498 18.55 12.0998 18.65C11.6498 17.95 10.8998 17.5 9.99977 17.5C9.59977 17.5 9.14977 17.6 8.79977 17.8C8.54977 17.95 8.44977 18.25 8.59977 18.5C8.74977 18.75 9.04977 18.85 9.29977 18.7C9.49977 18.55 9.74977 18.5 9.99977 18.5C10.8498 18.5 11.4998 19.15 11.4998 20C11.4998 20.25 11.4498 20.5 11.2998 20.8C11.1998 21.05 11.2498 21.4 11.4998 21.45C11.8998 21.55 12.0998 21.4 12.1498 21.25C12.3498 20.85 12.4498 20.45 12.4498 20.05C12.4498 19.9 12.4498 19.8 12.3998 19.65C12.6498 19.5 12.8498 19.5 12.9998 19.5C13.8498 19.5 14.4998 20.15 14.4998 21C14.4998 21.3 14.6998 21.5 14.9998 21.5C15.2998 21.5 15.4998 21.3 15.4998 21V18.5H16.4998V21C16.4998 21.3 16.6998 21.5 16.9998 21.5C17.2998 21.5 17.4998 21.3 17.4998 21C17.4998 20.15 18.1498 19.5 18.9998 19.5C19.1498 19.5 19.3498 19.5 19.5498 19.6C19.5498 19.75 19.4998 19.85 19.4998 20C19.4998 20.4 19.5998 20.85 19.7998 21.2C19.8998 21.4 20.1498 21.55 20.4498 21.4C20.6998 21.3 20.7998 21 20.6498 20.75C20.5498 20.5 20.4998 20.25 20.4998 20C20.4998 19.15 21.1498 18.5 21.9998 18.5C22.2498 18.5 22.4998 18.55 22.6998 18.7C22.9498 18.85 23.2498 18.75 23.3998 18.5C23.5498 18.25 23.4498 17.95 23.1998 17.8C22.8498 17.6 22.3998 17.5 21.9998 17.5C21.0998 17.5 20.3498 17.95 19.8998 18.65C19.6498 18.55 19.3498 18.5 18.9998 18.5C18.4498 18.5 17.8998 18.7 17.4998 19V18.2L18.3498 17.35C18.4498 17.25 18.4998 17.15 18.4998 17.05V16.5C19.0498 16.45 19.4998 16 19.4998 15.45V15.25C19.5998 15.2 19.7998 15.05 20.1998 15.45L20.5498 16.2C20.6498 16.4 20.8498 16.55 21.0998 16.5C21.3498 16.45 21.4998 16.25 21.4998 16V13C21.4998 12.9 21.4498 12.75 21.3498 12.7L19.4998 10.8V7.84997C19.4998 6.79997 19.3498 5.79997 19.0498 4.84997C18.9498 4.59997 18.6998 4.44997 18.3998 4.54997C18.1498 4.64997 17.9998 4.89997 18.0998 5.19997C18.3998 6.04997 18.4998 6.99997 18.4998 7.89997V15.5H13.4998V7.84997C13.4998 5.54997 14.3998 3.34997 15.9998 1.69997C16.4998 2.19997 16.8998 2.74997 17.2498 3.34997C17.3998 3.59997 17.6998 3.64997 17.9498 3.49997C18.1998 3.34997 18.2498 3.04997 18.0998 2.79997C17.6998 2.09997 17.1998 1.49997 16.6498 0.899974L16.3498 0.599974C16.2498 0.499974 15.9998 0.299974 15.6498 0.599974L15.3498 0.899974C13.4998 2.79997 12.4998 5.24997 12.4998 7.84997V10.8L10.6498 12.65C10.5498 12.75 10.4998 12.85 10.4998 13V13ZM19.4998 12.2L20.4998 13.2V14.4C20.1498 14.15 19.6498 14.2 19.4998 14.2V12.2ZM14.4998 16.5H17.4998V16.8L16.7998 17.5H15.1998L14.4998 16.8V16.5ZM11.4998 13.2L12.4998 12.2V14.2C12.1498 14.1 11.6998 14.3 11.4998 14.4V13.2Z" fill="black"/>
<path d="M15.5 11V14C15.5 14.3 15.7 14.5 16 14.5C16.3 14.5 16.5 14.3 16.5 14V11C16.5 10.7 16.3 10.5 16 10.5C15.7 10.5 15.5 10.7 15.5 11Z" fill="black"/>
<path d="M17.5 6C17.5 5.15 16.85 4.5 16 4.5C15.15 4.5 14.5 5.15 14.5 6C14.5 6.3 14.7 6.5 15 6.5C15.3 6.5 15.5 6.3 15.5 6C15.5 5.7 15.7 5.5 16 5.5C16.3 5.5 16.5 5.7 16.5 6C16.5 6.3 16.3 6.5 16 6.5C15.7 6.5 15.5 6.7 15.5 7C15.5 7.3 15.7 7.5 16 7.5C16.85 7.5 17.5 6.85 17.5 6Z" fill="black"/>
<path d="M7 16.5C7.3 16.5 7.5 16.3 7.5 16C7.5 13.15 8.9 10.5 11.3 8.89995C11.55 8.74995 11.6 8.44995 11.45 8.19995C11.3 7.94995 11 7.89995 10.75 8.04995C8.1 9.84995 6.5 12.8 6.5 16C6.5 16.3 6.7 16.5 7 16.5V16.5Z" fill="black"/>
<path d="M7.1001 17.4999C6.8501 17.5499 6.6501 17.8499 6.7001 18.0999C6.8001 18.4499 6.9001 18.7999 7.0001 19.0999C7.0501 19.2999 7.3501 19.5499 7.6501 19.3999C7.9001 19.2999 8.0501 18.9999 7.9501 18.7499C7.8501 18.4499 7.7501 18.1499 7.7001 17.8499C7.6501 17.5999 7.4001 17.4499 7.1001 17.4999V17.4999Z" fill="black"/>
<path d="M25.45 14.9C25.15 12.15 23.6 9.7 21.25 8.1C21 7.95 20.7 8 20.55 8.25C20.4 8.5 20.45 8.8 20.7 8.95C22.8 10.35 24.15 12.55 24.45 15C24.8 18.15 23.4 21.25 20.8 23.05C20 23.6 19.5 24.55 19.55 25.5H12.5C12.5 24.5 12.05 23.6 11.25 23.05C10.35 22.4 9.55 21.65 8.95 20.75C8.8 20.5 8.5 20.45 8.25 20.6C8 20.75 7.95 21.05 8.1 21.3C8.8 22.3 9.65 23.2 10.65 23.9C11.15 24.25 11.5 24.8 11.5 25.45C11.45 26.05 11.95 26.5 12.5 26.55V29.5C12.5 30.1 12.95 30.55 13.55 30.55H14.6C14.8 31.15 15.35 31.55 16 31.55C16.65 31.55 17.2 31.15 17.4 30.55H18.45C19.05 30.55 19.5 30.1 19.5 29.5V28.5C19.5 28.2 19.3 28 19 28C18.7 28 18.5 28.2 18.5 28.5V29.5H17C16.75 29.5 16.5 29.7 16.5 30C16.5 30.3 16.3 30.5 16 30.5C15.7 30.5 15.5 30.25 15.5 30C15.5 29.75 15.25 29.5 15 29.5H13.5V26.5H18.5V27.1C18.5 27.4 18.7 27.6 19 27.6C19.3 27.6 19.5 27.4 19.5 27.1V26.5C20.1 26.5 20.55 26 20.55 25.4C20.55 24.75 20.9 24.2 21.45 23.8C24.3 21.8 25.85 18.4 25.45 14.9Z" fill="black"/>
<path d="M15 27.5C14.7 27.5 14.5 27.7 14.5 28C14.5 28.3 14.7 28.5 15 28.5H17C17.3 28.5 17.5 28.3 17.5 28C17.5 27.7 17.3 27.5 17 27.5H15Z" fill="black"/>
<path d="M7.15039 7.85002C7.25039 7.95002 7.65039 8.10002 7.85039 7.85002C8.05039 7.65002 8.05039 7.35002 7.85039 7.15002L5.75039 5.05002C5.55039 4.85002 5.25039 4.85002 5.05039 5.05002C4.85039 5.25002 4.85039 5.55002 5.05039 5.75002L7.15039 7.85002Z" fill="black"/>
<path d="M4 15.5H1C0.7 15.5 0.5 15.7 0.5 16C0.5 16.3 0.7 16.5 1 16.5H4C4.3 16.5 4.5 16.3 4.5 16C4.5 15.7 4.3 15.5 4 15.5Z" fill="black"/>
<path d="M7.15039 24.15L5.05039 26.25C4.85039 26.45 4.85039 26.75 5.05039 26.95C5.30039 27.2 5.65039 27.05 5.75039 26.95L7.85039 24.85C8.05039 24.65 8.05039 24.35 7.85039 24.15C7.65039 23.95 7.35039 23.95 7.15039 24.15V24.15Z" fill="black"/>
<path d="M24.85 24.15C24.65 23.95 24.35 23.95 24.15 24.15C23.95 24.35 23.95 24.65 24.15 24.85L26.25 26.95C26.35 27.05 26.7 27.2 26.95 26.95C27.15 26.75 27.15 26.45 26.95 26.25L24.85 24.15Z" fill="black"/>
<path d="M31 15.5H28C27.7 15.5 27.5 15.7 27.5 16C27.5 16.3 27.7 16.5 28 16.5H31C31.3 16.5 31.5 16.3 31.5 16C31.5 15.7 31.3 15.5 31 15.5Z" fill="black"/>
<path d="M26.2505 5.05002L24.1505 7.15002C23.9505 7.35002 24.0005 7.65002 24.1505 7.85002C24.3505 8.15002 24.7505 7.95002 24.8505 7.85002L26.9505 5.75002C27.1505 5.55002 27.1505 5.25002 26.9505 5.05002C26.7505 4.85002 26.4505 4.85002 26.2505 5.05002Z" fill="black"/>
</svg>
