<svg xmlns="http://www.w3.org/2000/svg" width="60" height="60" viewBox="0 0 60 60">
  <g id="Group_37924" data-name="Group 37924" transform="translate(-0.002)">
    <g id="Group_37925" data-name="Group 37925" transform="translate(0.002 11.644)">
      <g id="Group_37924-2" data-name="Group 37924" transform="translate(0)">
        <path id="Path_105728" data-name="Path 105728" d="M49.555,140.6a.881.881,0,0,0-1.242-.107,28.344,28.344,0,0,1-18.224,6.641c-.823,0-1.64-.037-2.451-.106-1.049-1.87-4.409-7.29-8.4-7.868-.162-.023-.315-.045-.441-.507a10.719,10.719,0,0,1-.178-2.276,14.628,14.628,0,0,0-1.3-6.752c-1.443-2.782-3.8-2.843-5.358-2.884s-1.672-.107-1.672-1.021c0-3.494-3.607-6.638-8.51-7.531A28.074,28.074,0,0,1,7.33,101.953.882.882,0,1,0,5.914,100.9a30.09,30.09,0,0,0,2.9,39.188c.118.118.238.233.357.349l.144.14c.119.114.24.226.361.338l.154.143c.138.126.279.25.419.374l.095.084q.244.212.491.419l.019.016a30.09,30.09,0,0,0,38.593-.106A.881.881,0,0,0,49.555,140.6Zm-38.178-.528-.16-.141q-.141-.126-.281-.255l-.217-.2c-.082-.077-.164-.154-.245-.232s-.159-.154-.238-.232-.154-.151-.23-.227-.136-.14-.2-.209c-.217-.223-.432-.449-.643-.68A28.253,28.253,0,0,1,1.791,120v-.01c3.845.807,6.728,3.2,6.728,5.732,0,2.7,2.04,2.749,3.39,2.784,1.478.038,2.874.075,3.838,1.933a13.2,13.2,0,0,1,1.1,5.972c.038,2.064.077,4.2,2.131,4.495,1.469.212,3.168,1.491,4.914,3.7a25.811,25.811,0,0,1,1.517,2.146A28.218,28.218,0,0,1,11.377,140.076Z" transform="translate(-0.002 -100.546)"/>
      </g>
    </g>
    <g id="Group_37927" data-name="Group 37927" transform="translate(8.009)">
      <g id="Group_37926" data-name="Group 37926">
        <path id="Path_105729" data-name="Path 105729" d="M113.912,11.745A12.326,12.326,0,0,0,101.633,0a12.2,12.2,0,0,0-4.448.836A30.03,30.03,0,0,0,90.141,0,29.858,29.858,0,0,0,68.376,9.39a.884.884,0,0,0,.033,1.246.877.877,0,0,0,1.242-.033A28.2,28.2,0,0,1,94.727,2.136a12.373,12.373,0,0,0-5.036,7.276,12.532,12.532,0,0,0-3.934,1.875c-1.728,1.317-2.385,2.5-1.953,3.5.362.844,1.334,1.254,3.105,1.254a20.711,20.711,0,0,0,2.866-.244,17.859,17.859,0,0,0,.7,2.209,6.04,6.04,0,0,0-2.953,2.243c-.534.6-1.139,1.282-1.981,2.071-1.817,1.7-1.831,3.167-1.524,4.1.6,1.814,2.88,3.03,6.421,3.424,2.409.268,5.65,1.14,5.992,5.593a4.7,4.7,0,0,1-.836,3.06,9.486,9.486,0,0,0-.924,2.02,7.68,7.68,0,0,0,0,4.092,5.324,5.324,0,0,0,2.871,3.563,3.283,3.283,0,0,0,1.4.306c2.523,0,5.058-2.7,6.247-3.962.121-.129.226-.24.311-.328.728-.745.976-2.29,1.3-4.748a15.165,15.165,0,0,1,.5-2.724c.352-.825,2.777-3.014,4.387-4.306a.884.884,0,0,0,.06-1.325,44.274,44.274,0,0,1-4.2-4.754q.244-.281.489-.574,1.064-1.275,1.937-2.531c.553.471,1.174,1.053,1.883,1.764a4.339,4.339,0,0,0,3.211,1.23,9.533,9.533,0,0,0,2.986-.554,28.873,28.873,0,0,1,.339,4.419A28.275,28.275,0,0,1,110.785,49.4a.884.884,0,0,0,.043,1.246.877.877,0,0,0,1.242-.043,30.164,30.164,0,0,0,1.842-38.862ZM85.467,14.087a4.489,4.489,0,0,1,1.352-1.4,9.66,9.66,0,0,1,2.56-1.319c-.024.318-.039.638-.039.962a13.859,13.859,0,0,0,.11,1.732C86.638,14.458,85.723,14.207,85.467,14.087ZM109.811,31.66c-1.3,1.09-3.628,3.156-4.144,4.363a14.369,14.369,0,0,0-.623,3.188c-.155,1.176-.442,3.365-.812,3.744-.092.094-.2.214-.335.352-1.052,1.119-3.844,4.091-5.628,3.265-2.05-.949-2.432-3.832-1.919-5.547a7.826,7.826,0,0,1,.77-1.657A6.435,6.435,0,0,0,98.18,35.3a7.636,7.636,0,0,0-1.638-4.447,8.574,8.574,0,0,0-5.911-2.763c-3.223-.359-4.669-1.385-4.947-2.227-.264-.8.428-1.666,1.055-2.254.9-.844,1.563-1.589,2.094-2.187.991-1.116,1.462-1.639,2.366-1.763a30.639,30.639,0,0,0,4.054,6.1,42.08,42.08,0,0,0,5.843,5.766.877.877,0,0,0,1.076,0,40.184,40.184,0,0,0,4.152-3.862A44.22,44.22,0,0,0,109.811,31.66Zm-8.178-1.972C99.414,27.812,91.1,20.254,91.1,12.334a10.536,10.536,0,1,1,21.071,0C112.169,20.244,103.851,27.811,101.633,29.688Zm11.444-5.943c-.823-.825-1.523-1.477-2.154-2a19.915,19.915,0,0,0,2.822-7.187,28.429,28.429,0,0,1,3.951,9.364C116.065,24.493,114.144,24.815,113.077,23.745Z" transform="translate(-68.135 0)"/>
      </g>
    </g>
    <g id="Group_37929" data-name="Group 37929" transform="translate(10.809 15.39)">
      <g id="Group_37928" data-name="Group 37928">
        <path id="Path_105730" data-name="Path 105730" d="M103.129,133.113a2.648,2.648,0,0,0-1.481-1.522c-1.361-.522-2.993.233-4.57.963-.329.152-.669.31-.992.448-2.761,1.183-4.627,5.855-3.443,8.619a2.708,2.708,0,0,0,1.506,1.539,3.007,3.007,0,0,0,1.11.2,10.565,10.565,0,0,0,3.921-1.195c.236-.1.47-.208.7-.307a6.313,6.313,0,0,0,3.11-3.813A7.041,7.041,0,0,0,103.129,133.113Zm-1.8,4.337a4.743,4.743,0,0,1-2.144,2.787c-.236.1-.476.208-.719.315-1.284.569-2.882,1.277-3.672.967a.961.961,0,0,1-.53-.592,5.914,5.914,0,0,1,2.516-6.3c.346-.148.7-.311,1.038-.468a8.589,8.589,0,0,1,2.833-.976,1.022,1.022,0,0,1,.366.059c.127.049.316.161.491.57A5.367,5.367,0,0,1,101.33,137.45Z" transform="translate(-92.281 -131.418)"/>
      </g>
    </g>
    <g id="Group_37931" data-name="Group 37931" transform="translate(36.043 6.884)">
      <g id="Group_37930" data-name="Group 37930">
        <path id="Path_105731" data-name="Path 105731" d="M313.2,58.579a.882.882,0,0,0,0,1.763,3.686,3.686,0,1,1-2.632,1.106.882.882,0,0,0-1.259-1.235,5.449,5.449,0,1,0,3.891-1.634Z" transform="translate(-307.747 -58.579)"/>
      </g>
    </g>
  </g>
</svg>
