<svg xmlns="http://www.w3.org/2000/svg" width="32" height="31.662" viewBox="0 0 32 31.662">
  <g id="Group_38019" data-name="Group 38019" transform="translate(-2 -2)">
    <g id="Blogger-Content-Copywriter-Influencer-Writer" transform="translate(2 2)">
      <path id="Path_106006" data-name="Path 106006" d="M15,18h1.113v1.113H15Z" transform="translate(-8.153 -9.573)"/>
      <path id="Path_106007" data-name="Path 106007" d="M21,18h1.113v1.113H21Z" transform="translate(-10.992 -9.573)"/>
      <path id="Path_106008" data-name="Path 106008" d="M33.979,21.435a1.57,1.57,0,0,0-.355-1.276,1.586,1.586,0,0,0-1.207-.556h-8.5a2.1,2.1,0,0,0-2.079,1.754l-.939,5.6H18.728L17.2,22.779a3.727,3.727,0,0,0-1.968-2.1l-3.208-1.418V18.8a4.723,4.723,0,0,0,3.166-4.448V7.525A.526.526,0,0,0,14.665,7H8.332A2.632,2.632,0,0,0,5.694,9.625v2.127a1.827,1.827,0,0,0,.116,3.634A4.783,4.783,0,0,0,7.8,18.279v.956l-2.675.971A4.72,4.72,0,0,0,2,24.643v2.836a2.577,2.577,0,0,0,.544,1.575H2.528A.526.526,0,0,0,2,29.579v2.1a.526.526,0,0,0,.528.525H3.583v3.151a.526.526,0,0,0,.528.525h27.44a.526.526,0,0,0,.528-.525V32.2h1.055a.526.526,0,0,0,.528-.525v-2.1a.526.526,0,0,0-.528-.525h-.459a1.109,1.109,0,0,0,.069-.268ZM5.694,14.3a.783.783,0,0,1,0-1.481Zm17.187,7.225a1.048,1.048,0,0,1,1.04-.877h.148l-1.409,8.4H21.62ZM20.728,28l-.179,1.05H16.776a.526.526,0,0,1-.528-.525V28ZM6.749,9.625A1.584,1.584,0,0,1,8.332,8.05h5.8V9.736c-.311.047-.6.105-.871.158a10.9,10.9,0,0,1-2.3.257,3.263,3.263,0,0,1-1.4-.231A4.354,4.354,0,0,0,7.8,9.625a.526.526,0,0,0-.528.525V11.2a.526.526,0,0,1-.528.525Zm0,4.726V12.776A1.584,1.584,0,0,0,8.332,11.2v-.5a2.767,2.767,0,0,1,.871.21,4.354,4.354,0,0,0,1.768.294,11.843,11.843,0,0,0,2.5-.278c.216-.042.438-.084.67-.126v3.555a3.694,3.694,0,0,1-7.388,0Zm4.222,4.694V19.6a1.055,1.055,0,0,1-2.111,0v-.8a4.667,4.667,0,0,0,1.583.278,4.382,4.382,0,0,0,.528-.032Zm-7.916,5.6a3.67,3.67,0,0,1,2.432-3.45l2.449-.888a2.1,2.1,0,0,0,3.947.042L14.8,21.64a2.634,2.634,0,0,1,1.409,1.5L17.6,26.954H15.757l-1.129-2.82a.542.542,0,0,0-.5-.331.526.526,0,0,0-.528.525v4.726H11.5a2.612,2.612,0,0,0-1.335-2.268l-.253-2-1.045.126.19,1.533c-.063-.005-.127-.021-.2-.021H5.694V23.8H4.639v3.151a.526.526,0,0,0,.528.525H7.8v1.575H4.639a1.584,1.584,0,0,1-1.583-1.575Zm12.232,4.411h-.633V27.032l.538,1.344v.152a1.568,1.568,0,0,0,.095.525Zm-4.844,0H8.86V27.479a1.584,1.584,0,0,1,1.583,1.575Zm20.58,5.776H4.639V32.2H31.024Zm1.583-3.676H3.055V30.1H32.607Zm-.9-2.541a.521.521,0,0,1-.517.441H23.731l1.409-8.4h7.277a.529.529,0,0,1,.4.184.523.523,0,0,1,.12.425Z" transform="translate(-2 -4.218)"/>
      <path id="Path_106009" data-name="Path 106009" d="M50.669,38a1.669,1.669,0,1,0,1.669,1.669A1.669,1.669,0,0,0,50.669,38Zm0,2.225a.556.556,0,1,1,.556-.556A.556.556,0,0,1,50.669,40.225Z" transform="translate(-24.589 -19.117)"/>
      <path id="Path_106010" data-name="Path 106010" d="M47.021,2H33.669A1.674,1.674,0,0,0,32,3.669v8.9a1.674,1.674,0,0,0,1.669,1.669h3.616l1.5,2a.556.556,0,0,0,.89,0l1.5-2h5.842a1.674,1.674,0,0,0,1.669-1.669v-8.9A1.674,1.674,0,0,0,47.021,2Zm.556,10.571a.556.556,0,0,1-.556.556H40.9a.564.564,0,0,0-.445.223l-1.224,1.63-1.224-1.63a.564.564,0,0,0-.445-.223H33.669a.556.556,0,0,1-.556-.556v-8.9a.556.556,0,0,1,.556-.556H47.021a.556.556,0,0,1,.556.556Z" transform="translate(-17.047 -2)"/>
      <path id="Path_106011" data-name="Path 106011" d="M38,8H48.014V9.113H38Z" transform="translate(-19.709 -4.662)"/>
      <path id="Path_106012" data-name="Path 106012" d="M38,12H48.014v1.113H38Z" transform="translate(-19.709 -6.437)"/>
      <path id="Path_106013" data-name="Path 106013" d="M38,16H48.014v1.113H38Z" transform="translate(-19.709 -8.626)"/>
    </g>
  </g>
</svg>
