<svg width="32" height="32" viewBox="0 0 32 32" fill="none" xmlns="http://www.w3.org/2000/svg">
<g clip-path="url(#clip0_19_505)">
<path d="M12.4929 22.5454H3.81806C3.29031 22.5454 2.84837 22.1498 2.79012 21.6253L1.9945 14.4648H21.9894L21.7689 16.4493C21.7403 16.7066 21.9257 16.9383 22.183 16.9669C22.2006 16.9688 22.2181 16.9698 22.2353 16.9698C22.471 16.9698 22.674 16.7925 22.7006 16.5528L22.9326 14.4647H23.0141C23.5488 14.4647 23.9838 14.0297 23.9838 13.495V11.491C23.9838 10.9562 23.5488 10.5212 23.0141 10.5212H17.3916L14.2005 4.99403C13.9331 4.53103 13.3389 4.37178 12.8757 4.63915L12.0081 5.14015C12.0024 5.1434 11.9974 5.14728 11.9919 5.15059C11.9863 5.14728 11.9813 5.1434 11.9757 5.14015L11.1081 4.63915C10.8838 4.50965 10.6224 4.47521 10.3722 4.54221C10.1219 4.60928 9.91281 4.76971 9.78331 4.99403L6.59219 10.5212H0.96975C0.435 10.5212 0 10.9562 0 11.491V13.495C0 14.0297 0.435 14.4647 0.96975 14.4647H1.05119L1.85831 21.7288C1.96937 22.7288 2.81188 23.4829 3.818 23.4829H12.4929C12.7518 23.4829 12.9616 23.273 12.9616 23.0142C12.9616 22.7553 12.7518 22.5454 12.4929 22.5454V22.5454ZM12.4769 5.95196L13.3445 5.45096C13.3496 5.44803 13.3551 5.44665 13.3606 5.44665C13.3718 5.44665 13.3827 5.45246 13.3886 5.46278L16.9045 11.5524C16.9134 11.5678 16.9081 11.5876 16.8927 11.5965L16.025 12.0975C16.0221 12.0991 16.0132 12.1041 16.0006 12.1007C15.9876 12.0973 15.9826 12.0886 15.981 12.0857L12.4651 5.99615C12.4562 5.98059 12.4615 5.96084 12.4769 5.95196V5.95196ZM10.5953 5.46278C10.5969 5.4599 10.6019 5.45121 10.6148 5.44778C10.618 5.4469 10.6209 5.44659 10.6236 5.44659C10.6317 5.44659 10.6372 5.44978 10.6393 5.45103L11.5069 5.95203C11.5224 5.9609 11.5277 5.98065 11.5188 5.99609L8.00288 12.0857C8.00125 12.0885 7.99619 12.0973 7.98331 12.1007C7.97038 12.1042 7.96163 12.0992 7.95881 12.0975L7.09119 11.5965C7.07575 11.5876 7.07044 11.5678 7.07937 11.5524L10.5953 5.46278ZM0.9375 13.495V11.491C0.9375 11.4732 0.951937 11.4587 0.96975 11.4587H6.14425C6.10244 11.8305 6.27831 12.2097 6.62244 12.4083L7.49006 12.9093C7.6395 12.9956 7.80531 13.0397 7.97337 13.0397C8.05762 13.0397 8.14238 13.0287 8.22594 13.0062C8.47613 12.9392 8.68531 12.7787 8.81481 12.5544L11.9919 7.05153L13.9952 10.5212H11.4909C11.2321 10.5212 11.0222 10.7311 11.0222 10.99C11.0222 11.2488 11.2321 11.4587 11.4909 11.4587H14.5364L15.169 12.5543C15.2985 12.7787 15.5076 12.9392 15.7579 13.0062C15.8414 13.0286 15.9262 13.0397 16.0104 13.0397C16.1784 13.0397 16.3443 12.9956 16.4937 12.9093L17.3614 12.4083C17.7056 12.2097 17.8814 11.8304 17.8396 11.4587H23.0141C23.0319 11.4587 23.0463 11.4732 23.0463 11.491V13.495C23.0463 13.5128 23.0319 13.5272 23.0141 13.5272H0.96975C0.951937 13.5272 0.9375 13.5128 0.9375 13.495V13.495Z" fill="black"/>
<path d="M11.5232 16V21.0101C11.5232 21.269 11.7331 21.4789 11.9919 21.4789C12.2508 21.4789 12.4607 21.269 12.4607 21.0101V16C12.4607 15.7411 12.2508 15.5312 11.9919 15.5312C11.7331 15.5312 11.5232 15.7411 11.5232 16V16Z" fill="black"/>
<path d="M14.0283 16V16.501C14.0283 16.7599 14.2381 16.9698 14.497 16.9698C14.7559 16.9698 14.9658 16.7599 14.9658 16.501V16C14.9658 15.7411 14.7559 15.5312 14.497 15.5312C14.2381 15.5312 14.0283 15.7411 14.0283 16Z" fill="black"/>
<path d="M16.5333 16V16.501C16.5333 16.7599 16.7431 16.9698 17.002 16.9698C17.2609 16.9698 17.4708 16.7599 17.4708 16.501V16C17.4708 15.7411 17.2609 15.5312 17.002 15.5312C16.7431 15.5312 16.5333 15.7411 16.5333 16Z" fill="black"/>
<path d="M19.0383 16V16.501C19.0383 16.7599 19.2482 16.9698 19.5071 16.9698C19.766 16.9698 19.9758 16.7599 19.9758 16.501V16C19.9758 15.7411 19.766 15.5312 19.5071 15.5312C19.2482 15.5312 19.0383 15.7411 19.0383 16Z" fill="black"/>
<path d="M4.00806 16V21.0101C4.00806 21.269 4.21793 21.4789 4.47681 21.4789C4.73568 21.4789 4.94556 21.269 4.94556 21.0101V16C4.94556 15.7411 4.73568 15.5312 4.47681 15.5312C4.21793 15.5312 4.00806 15.7411 4.00806 16V16Z" fill="black"/>
<path d="M9.01813 16V21.0101C9.01813 21.269 9.228 21.4789 9.48688 21.4789C9.74575 21.4789 9.95563 21.269 9.95563 21.0101V16C9.95563 15.7411 9.74575 15.5312 9.48688 15.5312C9.228 15.5312 9.01813 15.7411 9.01813 16V16Z" fill="black"/>
<path d="M6.51306 16V21.0101C6.51306 21.269 6.72294 21.4789 6.98181 21.4789C7.24069 21.4789 7.45056 21.269 7.45056 21.0101V16C7.45056 15.7411 7.24069 15.5312 6.98181 15.5312C6.72294 15.5312 6.51306 15.7411 6.51306 16V16Z" fill="black"/>
<path d="M30.835 22.0764L29.8609 20.1281C29.5248 19.4558 28.8489 19.0381 28.0973 19.0381H26.9899V19.0059C26.9899 18.4711 26.5549 18.0361 26.0201 18.0361H14.998C14.4633 18.0361 14.0283 18.4711 14.0283 19.0059V25.018C14.0283 25.5528 14.4633 25.9878 14.998 25.9878H17.0486C17.1563 26.8341 17.8804 27.4908 18.7556 27.4908C19.6307 27.4908 20.3548 26.8341 20.4625 25.9878H27.5698C27.6774 26.8341 28.4016 27.4908 29.2768 27.4908C30.1776 27.4908 30.9184 26.7951 30.9916 25.9129C31.5768 25.7186 32.0001 25.1664 32.0001 24.517V23.5149C32 22.8088 31.4997 22.2175 30.835 22.0764V22.0764ZM28.0973 19.9756C28.4916 19.9756 28.8461 20.1947 29.0224 20.5474L29.7708 22.0442H26.9899V19.9756H28.0973ZM14.9658 25.018V19.0059C14.9658 18.9881 14.9802 18.9736 14.998 18.9736H26.0202C26.038 18.9736 26.0524 18.9881 26.0524 19.0059V25.0503H20.3188C20.0458 24.4594 19.448 24.0483 18.7556 24.0483C18.0631 24.0483 17.4653 24.4594 17.1924 25.0503H14.998C14.9802 25.0503 14.9658 25.0358 14.9658 25.018V25.018ZM18.7556 26.5533C18.3234 26.5533 17.9718 26.2018 17.9718 25.7695C17.9718 25.3373 18.3233 24.9858 18.7556 24.9858C19.1878 24.9858 19.5393 25.3373 19.5393 25.7695C19.5393 26.2017 19.1877 26.5533 18.7556 26.5533ZM29.2767 26.5533C28.8445 26.5533 28.4929 26.2018 28.4929 25.7695C28.4929 25.3373 28.8445 24.9858 29.2767 24.9858C29.7089 24.9858 30.0605 25.3373 30.0605 25.7695C30.0605 26.2017 29.7089 26.5533 29.2767 26.5533ZM31.0625 24.517C31.0625 24.7111 30.9579 24.8808 30.8024 24.9741C30.5147 24.4244 29.939 24.0483 29.2767 24.0483C28.5843 24.0483 27.9864 24.4594 27.7135 25.0503H26.9899V22.9817H30.5293C30.8233 22.9817 31.0625 23.2209 31.0625 23.5149V24.517Z" fill="black"/>
<path d="M18.004 22.4806H21.3796L20.7615 22.8669C20.542 23.0041 20.4753 23.2933 20.6125 23.5129C20.7014 23.6551 20.8542 23.7332 21.0104 23.7332C21.0952 23.7332 21.1812 23.7102 21.2584 23.6619L23.2624 22.4094C23.3995 22.3237 23.4827 22.1735 23.4827 22.0119C23.4827 21.8502 23.3995 21.7 23.2624 21.6144L21.2584 20.3619C21.0388 20.2246 20.7496 20.2914 20.6125 20.5109C20.4753 20.7305 20.542 21.0197 20.7615 21.1569L21.3795 21.5431H18.0039C17.745 21.5431 17.5352 21.753 17.5352 22.0119C17.5352 22.2707 17.7451 22.4806 18.004 22.4806V22.4806Z" fill="black"/>
</g>
<defs>
<clipPath id="clip0_19_505">
<rect width="32" height="32" fill="white"/>
</clipPath>
</defs>
</svg>
