<svg xmlns="http://www.w3.org/2000/svg" width="32.3" height="34.247" viewBox="0 0 32.3 34.247">
  <g id="Group_37962" data-name="Group 37962" transform="translate(-14.524 0.151)">
    <g id="Group_37962-2" data-name="Group 37962" transform="translate(14.674 -0.001)">
      <path id="Path_105783" data-name="Path 105783" d="M218.393,281.771h-1.857v-4.519a.563.563,0,0,0-1.082-.205l-2.951,7.5a.569.569,0,0,0,.521.766H214.7v4.519a.564.564,0,0,0,1.078.216l3.127-7.5A.565.565,0,0,0,218.393,281.771Zm-2.567,5.258v-2.28a.56.56,0,0,0-.56-.56h-1.418l1.568-3.983v2.126a.56.56,0,0,0,.56.56h1.577Z" transform="translate(-199.708 -260.318)" stroke="#fff" stroke-width="0.3"/>
      <path id="Path_105784" data-name="Path 105784" d="M23.138,300.884a3.5,3.5,0,0,0,.42-1.665v-2.513a3.525,3.525,0,0,0-7.05,0v2.513a3.5,3.5,0,0,0,.42,1.665,4.2,4.2,0,0,0-2.253,3.733.56.56,0,0,0,1.121,0,3.086,3.086,0,0,1,1.832-2.827,3.539,3.539,0,0,0,4.811,0,3.086,3.086,0,0,1,1.832,2.827v2.875a1.006,1.006,0,0,1-1.224.9v-1.835a.56.56,0,1,0-1.121,0V308.4H18.14v-1.835a.56.56,0,1,0-1.121,0V308.4a1,1,0,0,1-1.224-.9.56.56,0,1,0-1.121,0,2.028,2.028,0,0,0,2.025,2.025h6.666a2.028,2.028,0,0,0,2.025-2.025v-2.875A4.2,4.2,0,0,0,23.138,300.884Zm-3.11-6.578h.009a2.4,2.4,0,0,1,2.358,1.958l-4.767,1.006v-.565A2.4,2.4,0,0,1,20.028,294.307Zm0,7.312a2.4,2.4,0,0,1-2.4-2.4v-.8l4.808-1.015v1.817a2.4,2.4,0,0,1-2.4,2.4Z" transform="translate(-14.674 -275.571)" stroke="#fff" stroke-width="0.3"/>
      <path id="Path_105785" data-name="Path 105785" d="M194.886,14.288a.56.56,0,0,0-1.121,0,1.006,1.006,0,0,1-1.224.9V13.357a.56.56,0,1,0-1.121,0v1.835h-3.785V13.357a.56.56,0,1,0-1.121,0v1.835a1,1,0,0,1-1.224-.9V11.413a3.086,3.086,0,0,1,1.832-2.827,3.538,3.538,0,0,0,4.811,0,3.086,3.086,0,0,1,1.832,2.827.56.56,0,1,0,1.121,0,4.2,4.2,0,0,0-2.253-3.733,3.5,3.5,0,0,0,.42-1.665s0-2.513,0-2.518A3.525,3.525,0,0,0,186,3.5c-.007.839,0,1.679,0,2.518a3.5,3.5,0,0,0,.42,1.665,4.2,4.2,0,0,0-2.253,3.733v2.875a2.028,2.028,0,0,0,2.025,2.025h6.666a2.027,2.027,0,0,0,2.025-2.025Zm-5.363-5.874a2.4,2.4,0,0,1-2.4-2.4v-.8L191.931,4.2V6.014a2.4,2.4,0,0,1-2.4,2.4h-.009Zm0-7.312A2.408,2.408,0,0,1,191.89,3.06l-4.767,1.006V3.506a2.407,2.407,0,0,1,2.4-2.4Z" transform="translate(-173.527 0.001)" stroke="#fff" stroke-width="0.3"/>
      <path id="Path_105786" data-name="Path 105786" d="M317.248,361.284a.56.56,0,0,0-.56-.56h-2a.56.56,0,0,0,0,1.121h2A.56.56,0,0,0,317.248,361.284Z" transform="translate(-294.502 -336.887)" stroke="#fff" stroke-width="0.3"/>
      <path id="Path_105787" data-name="Path 105787" d="M158.483,360.724h-2a.56.56,0,0,0,0,1.121h2A.56.56,0,0,0,158.483,360.724Z" transform="translate(-146.665 -336.887)" stroke="#fff" stroke-width="0.3"/>
      <path id="Path_105788" data-name="Path 105788" d="M85.582,192.314a.588.588,0,0,0,.725-.321,11.079,11.079,0,0,1,4.451-5.374.56.56,0,1,0-.593-.951,12.207,12.207,0,0,0-4.9,5.922A.56.56,0,0,0,85.582,192.314Z" transform="translate(-79.952 -173.607)" stroke="#fff" stroke-width="0.3"/>
      <path id="Path_105789" data-name="Path 105789" d="M349.195,186.618a11.08,11.08,0,0,1,4.451,5.374.588.588,0,0,0,.725.321.56.56,0,0,0,.321-.725,12.208,12.208,0,0,0-4.9-5.922.56.56,0,1,0-.593.951Z" transform="translate(-328.001 -173.606)" stroke="#fff" stroke-width="0.3"/>
      <path id="Path_105790" data-name="Path 105790" d="M362.125,300.884a3.5,3.5,0,0,0,.42-1.665v-2.513a3.525,3.525,0,0,0-7.05,0v2.513a3.5,3.5,0,0,0,.42,1.666,4.227,4.227,0,0,0-2.254,3.732v2.875a2.028,2.028,0,0,0,2.025,2.025h6.666a2.028,2.028,0,0,0,2.025-2.025v-2.875A4.2,4.2,0,0,0,362.125,300.884Zm-5.509-1.665v-.8l4.808-1.015v1.817a2.388,2.388,0,0,1-.565,1.545l-.01.011a2.394,2.394,0,0,1-1.825.844h-.009A2.4,2.4,0,0,1,356.615,299.219Zm2.4-4.912h.009a2.4,2.4,0,0,1,2.358,1.958l-4.767,1.006v-.565A2.4,2.4,0,0,1,359.015,294.307Zm4.242,13.186a1.006,1.006,0,0,1-1.224.9v-1.835a.56.56,0,1,0-1.121,0V308.4h-3.785v-1.835a.56.56,0,1,0-1.121,0V308.4a1,1,0,0,1-1.224-.9v-2.875a3.1,3.1,0,0,1,1.832-2.827,3.538,3.538,0,0,0,4.811,0,3.085,3.085,0,0,1,1.832,2.827v2.875Z" transform="translate(-332.378 -275.571)" stroke="#fff" stroke-width="0.3"/>
    </g>
  </g>
</svg>
