<svg xmlns="http://www.w3.org/2000/svg" xmlns:xlink="http://www.w3.org/1999/xlink" width="32" height="32" viewBox="0 0 32 32">
  <defs>
    <clipPath id="clip-path">
      <rect id="Rectangle_12621" data-name="Rectangle 12621" width="27.044" height="28"/>
    </clipPath>
  </defs>
  <g id="Group_37675" data-name="Group 37675" transform="translate(10187 1859)">
    <g id="Rectangle_12544" data-name="Rectangle 12544" transform="translate(-10187 -1859)" stroke="#707070" stroke-width="1" opacity="0">
      <rect width="32" height="32" stroke="none"/>
      <rect x="0.5" y="0.5" width="31" height="31" fill="none"/>
    </g>
    <g id="Group_37725" data-name="Group 37725" transform="translate(-10185 -1857)">
      <g id="Group_37725-2" data-name="Group 37725" clip-path="url(#clip-path)">
        <path id="Path_105666" data-name="Path 105666" d="M2.092,7.24C.724,6.855.595,4.847,1.409,4a1.227,1.227,0,0,1,.931-.389q2.478.007,4.957,0a1.052,1.052,0,0,0,.476-.122q2.055-1.11,4.1-2.239A2.731,2.731,0,0,1,13.219.9Q17.7.909,22.175.9h.362c0-.162-.006-.3,0-.438A.439.439,0,0,1,23,.005Q24.79,0,26.578.005c.311,0,.463.194.464.547q0,2.116,0,4.233c0,.48,0,.959,0,1.439,0,.387-.163.549-.549.55q-1.7,0-3.408,0c-.387,0-.545-.162-.549-.549,0-.253,0-.507,0-.782h-.89A2.505,2.505,0,0,1,19.221,7.7c.252.859.5,1.711.752,2.563.362,1.234.733,2.466,1.083,3.7a3.333,3.333,0,0,1,.123.888q.012,6.251.005,12.5c0,.515-.132.646-.652.646H.648C.131,28,0,27.869,0,27.35q0-6.279.006-12.558a3.356,3.356,0,0,1,.139-.913C.772,11.715,1.413,9.555,2.05,7.394c.013-.044.024-.089.042-.154M.9,27.077H15.775v-.356q0-5.939.006-11.879a3.479,3.479,0,0,1,.133-.942c.485-1.687.99-3.368,1.487-5.052.063-.213.121-.427.2-.7-.126.093-.2.145-.275.2-.638.495-1.268,1-1.916,1.483a1.955,1.955,0,0,1-2.245.083,1.979,1.979,0,0,1-.875-2.074,5.573,5.573,0,0,1,.191-.607H3.048c-.031.094-.063.181-.089.271C2.311,9.7,1.659,11.9,1.02,14.1a2.934,2.934,0,0,0-.114.8Q.9,20.826.9,26.752ZM9.53,3.557l.015.057h3.209c1.127,0,2.253,0,3.38,0a.479.479,0,0,1,.5.282.468.468,0,0,1-.155.556c-.047.046-.093.093-.14.139q-1.414,1.417-2.829,2.833a1.084,1.084,0,0,0,1.38,1.67,25.155,25.155,0,0,0,1.993-1.566A2.553,2.553,0,0,1,19.1,6.775a.51.51,0,0,0,.084,0,1.538,1.538,0,0,0,1.545-1.482.73.73,0,0,1,.807-.775c.325,0,.651,0,.978,0v-2.7c-.056,0-.093-.01-.129-.01q-4.634,0-9.267.005a1.337,1.337,0,0,0-.6.13c-1,.526-2,1.074-2.991,1.614m7.146,22.826.068.022c.369-.375.732-.756,1.11-1.122a.557.557,0,0,0,.177-.445q-.007-4.685,0-9.37c0-.357.167-.563.448-.564s.448.206.452.561c0,.066,0,.132,0,.2q0,4.586,0,9.172a.511.511,0,0,0,.061.316c.4.427.823.838,1.289,1.306v-.316q0-5.658,0-11.317a2.336,2.336,0,0,0-.1-.636q-.79-2.733-1.6-5.461c-.024-.083-.06-.162-.111-.3-.048.143-.077.221-.1.3-.533,1.81-1.068,3.62-1.594,5.433a2.43,2.43,0,0,0-.1.664q-.009,5.644,0,11.289ZM15.127,4.532c-.1-.008-.134-.014-.169-.014q-6.291,0-12.581,0a.429.429,0,0,0-.422.265,1.4,1.4,0,0,0,0,1.276.445.445,0,0,0,.446.272Q7.773,6.32,13.149,6.32a.424.424,0,0,0,.273-.095c.558-.543,1.107-1.1,1.705-1.693m11-3.607h-2.67V5.857h2.67Zm-6.59,26.166L18.5,26.047l-1.043,1.044Z" transform="translate(0 0)"/>
        <path id="Path_105667" data-name="Path 105667" d="M48.7,187.81h.9c0-.411,0-.812,0-1.214,0-.375.171-.587.461-.58s.438.212.44.572c0,.4,0,.8,0,1.218h.9c0-.428,0-.857,0-1.285a.453.453,0,0,1,.367-.5.439.439,0,0,1,.53.44c.011.6.007,1.2,0,1.805a.748.748,0,0,1-.089.292,6.9,6.9,0,0,1-.418.829,2.46,2.46,0,0,0-.332,1.661c.132,1.422.217,2.849.322,4.274a1.365,1.365,0,0,1-1.391,1.525c-.244,0-.488,0-.732,0a1.344,1.344,0,0,1-1.342-1.433c.086-1.388.2-2.775.3-4.163.022-.309.052-.618.068-.928a.855.855,0,0,0-.047-.27,1.108,1.108,0,0,0-.087-.176,4.791,4.791,0,0,1-.749-3.323c.006-.335.171-.536.443-.541s.456.2.458.555c0,.4,0,.807,0,1.239m.87,2.731c-.036.507-.069.993-.1,1.479-.082,1.125-.167,2.25-.245,3.376a.467.467,0,0,0,.515.553c.188,0,.375,0,.563,0,.454,0,.614-.191.578-.653-.074-.966-.139-1.932-.209-2.9-.044-.616-.091-1.232-.137-1.857Zm-.581-1.8c.141.284.261.547.4.8a.282.282,0,0,0,.21.088c.3.01.6.008.9,0,.068,0,.172-.018.2-.062.148-.263.277-.537.42-.824Z" transform="translate(-44.188 -172.014)"/>
        <path id="Path_105668" data-name="Path 105668" d="M117.461,189.648a33.44,33.44,0,0,0,.326,5.479,1.79,1.79,0,0,1-.292,1.308,2.245,2.245,0,0,1-2.776-.009,1.532,1.532,0,0,1-.306-1.026c.1-1.066.2-2.134.321-3.2.037-.312,0-.49-.321-.628-.6-.262-.6-.286-.51-.973a8.975,8.975,0,0,1,.749-2.731,3.559,3.559,0,0,1,1.029-1.356,2.116,2.116,0,0,1,1.22-.45c.376-.017.557.156.559.535,0,.893,0,1.786,0,3.048m-.916,1.823v-4.383a1.687,1.687,0,0,0-.938.889,8.03,8.03,0,0,0-.778,2.456c-.045.239,0,.379.236.477.263.109.56.2.606.561Zm-.932.921c-.1,1.038-.207,2.053-.3,3.07-.031.347.149.524.5.532.187,0,.375,0,.562,0,.385-.005.555-.175.528-.556-.033-.468-.083-.934-.13-1.4-.055-.547-.115-1.093-.173-1.646Z" transform="translate(-105.292 -172.059)"/>
      </g>
    </g>
  </g>
</svg>
