<svg xmlns="http://www.w3.org/2000/svg" xmlns:xlink="http://www.w3.org/1999/xlink" width="60" height="60" viewBox="0 0 60 60">
  <defs>
    <clipPath id="clip-path">
      <rect id="Rectangle_12568" data-name="Rectangle 12568" width="54" height="53.9"/>
    </clipPath>
  </defs>
  <g id="Group_37654" data-name="Group 37654" transform="translate(-423 -1990)">
    <g id="Rectangle_12523" data-name="Rectangle 12523" transform="translate(423 1990)" stroke="#707070" stroke-width="1" opacity="0">
      <rect width="60" height="60" stroke="none"/>
      <rect x="0.5" y="0.5" width="59" height="59" fill="none"/>
    </g>
    <g id="Group_37689" data-name="Group 37689" transform="translate(426 1993)">
      <g id="Group_37688" data-name="Group 37688" clip-path="url(#clip-path)">
        <path id="Path_105452" data-name="Path 105452" d="M30.48,0c.283.081.568.153.847.243A5.241,5.241,0,0,1,35.009,5.23c.017,6.191.008,12.382.005,18.574a1.065,1.065,0,1,1-2.106-.022q0-6.393,0-12.786v-.648H2.153V43.134c.149.007.317.022.485.022q7.117,0,14.234.007a.694.694,0,0,0,.7-.383,4.958,4.958,0,0,1,4.592-2.551.974.974,0,0,0,1.1-.721c.676-1.71,1.426-3.39,2.142-5.083a4.31,4.31,0,0,1,4.3-2.862q5.114.009,10.228,0a4.29,4.29,0,0,1,4.268,2.826c.77,1.8,1.544,3.607,2.3,5.417a.562.562,0,0,0,.615.416,15.334,15.334,0,0,1,2.419.059,5.039,5.039,0,0,1,4.372,4.167.843.843,0,0,0,.088.182v5.684a1.368,1.368,0,0,1-1.43.75c-.769-.041-1.543-.01-2.306-.01-.05.112-.086.191-.119.271a3.909,3.909,0,0,1-3.638,2.566,3.868,3.868,0,0,1-3.664-2.519c-.125-.305-.295-.325-.555-.325-2.442,0-4.884.012-7.326-.007a.807.807,0,0,0-.794.424,4.955,4.955,0,0,1-4.312,2.414q-12.334.039-24.667,0A5.238,5.238,0,0,1,.11,49.705,3.466,3.466,0,0,0,0,49.367V4.525c.037-.113.083-.223.11-.338A5.135,5.135,0,0,1,2.729.671,13.032,13.032,0,0,1,4.535,0ZM2.119,8.175H32.906c0-.9,0-1.754,0-2.612A3.188,3.188,0,0,0,29.423,2.1H5.589c-.158,0-.317,0-.475.005A3.132,3.132,0,0,0,2.131,4.986c-.06,1.047-.011,2.1-.011,3.189M16.869,45.3H2.109c0,1.035,0,2.033,0,3.031A3.187,3.187,0,0,0,5.59,51.788h16.4c-.035-.655-.37-.776-.914-.75-.964.047-1.932.018-2.9.016-.948,0-1.31-.361-1.311-1.3,0-1.471,0-2.942,0-4.454m35.021,3.635c0-1.154,0-2.256,0-3.358a3.046,3.046,0,0,0-3.256-3.259q-6.088,0-12.176,0H35.9v6.628h.542c1.915,0,3.831-.014,5.745.011a.647.647,0,0,0,.723-.48,3.836,3.836,0,0,1,3.6-2.373,3.9,3.9,0,0,1,3.582,2.415c.059.14.112.283.164.416ZM33.737,42.362a.989.989,0,0,0-.158-.037c-3.9,0-7.8-.019-11.7,0a2.859,2.859,0,0,0-2.832,2.5c-.132,1.348-.028,2.718-.028,4.116.847,0,1.669.015,2.49-.015.13,0,.278-.189.374-.322a9.115,9.115,0,0,1,1.09-1.52,3.873,3.873,0,0,1,6.174,1.433c.07.164.242.4.371.4,1.4.029,2.8.018,4.219.018ZM35.9,33.681v6.5h8.5c-.812-1.865-1.572-3.686-2.4-5.475a1.783,1.783,0,0,0-1.624-1.014c-1.473-.038-2.947-.011-4.476-.011m-2.165-.011c-1.348,0-2.662.021-3.974-.006a2.335,2.335,0,0,0-2.409,1.582c-.625,1.5-1.272,3-1.907,4.5-.058.137-.1.282-.15.442h8.441ZM44.7,49.987a1.776,1.776,0,0,0,1.8,1.8,1.788,1.788,0,1,0-.033-3.577A1.77,1.77,0,0,0,44.7,49.987M25.511,48.21a1.788,1.788,0,1,0,1.808,1.74,1.8,1.8,0,0,0-1.808-1.74m6.229,2.841c-.705,0-1.271.045-1.827-.012-.572-.059-.8.19-.838.733a3.479,3.479,0,0,0,2.665-.721" transform="translate(0 0.001)"/>
        <path id="Path_105453" data-name="Path 105453" d="M69.37,117.538a11.424,11.424,0,0,1,11.4,11.919,10.965,10.965,0,0,1-2.3,6.325q-3.719,4.809-7.485,9.582a1.91,1.91,0,0,1-3.181-.015c-2.491-3.175-5-6.339-7.453-9.54a11.36,11.36,0,0,1,7.344-18.12c.555-.082,1.118-.1,1.678-.151m.014,26.409c.138-.158.244-.269.338-.39q3.454-4.417,6.906-8.836a9.26,9.26,0,1,0-14.462,0q2.364,3.031,4.732,6.058c.818,1.046,1.639,2.09,2.486,3.171" transform="translate(-51.89 -105.141)"/>
        <path id="Path_105454" data-name="Path 105454" d="M313.066,252.541a1.049,1.049,0,1,1-1.027,1.045,1.062,1.062,0,0,1,1.027-1.045" transform="translate(-279.129 -225.905)"/>
        <path id="Path_105455" data-name="Path 105455" d="M124.286,42.05c-1.228,0-2.455,0-3.683,0a1.063,1.063,0,1,1,.02-2.1q3.683-.006,7.366,0c.753,0,1.242.431,1.235,1.063s-.49,1.037-1.255,1.039c-1.228,0-2.455,0-3.683,0" transform="translate(-106.802 -35.73)"/>
        <path id="Path_105456" data-name="Path 105456" d="M354.829,420.528c-.228,0-.458.016-.684,0a1.041,1.041,0,0,1-.953-.96.973.973,0,0,1,.762-1.055,7.2,7.2,0,0,1,1.775-.024.982.982,0,0,1,.8,1.081,1.05,1.05,0,0,1-1.015.956c-.227.014-.456,0-.685,0v0" transform="translate(-315.937 -374.31)"/>
        <path id="Path_105457" data-name="Path 105457" d="M98.216,224.681c-.892,0-1.337-.3-1.394-.938a1.045,1.045,0,0,1,1.117-1.166q1.72-.066,1.73,1.048c0,.684-.508,1.057-1.453,1.057" transform="translate(-86.606 -199.099)"/>
        <path id="Path_105458" data-name="Path 105458" d="M153.208,224.7c-.975,0-1.461-.39-1.412-1.132.046-.7.532-.993,1.63-.973a1.1,1.1,0,0,1,1.22,1.033c.017.685-.5,1.073-1.438,1.073" transform="translate(-135.784 -199.116)"/>
        <path id="Path_105459" data-name="Path 105459" d="M125.838,192.994a3.4,3.4,0,0,1,.769.128.95.95,0,0,1,.61,1.006.926.926,0,0,1-.775.934,4,4,0,0,1-1.148.03,1.014,1.014,0,0,1-.924-1.084,1.037,1.037,0,0,1,1.042-.978c.14-.009.281,0,.421,0l0-.035" transform="translate(-111.251 -172.639)"/>
        <path id="Path_105460" data-name="Path 105460" d="M208.19,224.7c-.974,0-1.461-.391-1.412-1.133.047-.7.533-.993,1.63-.973a1.1,1.1,0,0,1,1.22,1.033c.017.684-.5,1.073-1.438,1.073" transform="translate(-184.966 -199.116)"/>
        <path id="Path_105461" data-name="Path 105461" d="M181.271,193.288c.088,0,.176,0,.263,0a1.052,1.052,0,1,1,.066,2.1,4.016,4.016,0,0,1-.839-.027,1.035,1.035,0,0,1,.089-2.061c.139-.011.28,0,.421,0v-.006" transform="translate(-160.889 -172.902)"/>
      </g>
    </g>
  </g>
</svg>
