<svg width="32" height="32" viewBox="0 0 32 32" fill="none" xmlns="http://www.w3.org/2000/svg">
<path d="M13.4941 11.468C13.4553 11.468 13.4166 11.4612 13.3784 11.4469C13.2086 11.3829 13.1231 11.1936 13.1869 11.024L14.321 8.01468C14.3688 7.88686 14.4913 7.80225 14.628 7.80225H14.6281C14.7642 7.80225 14.8867 7.88688 14.9352 8.01475L16.0687 11.0239C16.1325 11.1935 16.047 11.383 15.8772 11.4469C15.7079 11.5107 15.5182 11.4251 15.4543 11.2555L14.6281 9.0613L13.8012 11.2555C13.7517 11.3869 13.6268 11.468 13.4941 11.468L13.4941 11.468Z" fill="black"/>
<path d="M15.4093 10.5373H13.8468C13.6656 10.5373 13.5186 10.3905 13.5186 10.2092C13.5186 10.0279 13.6656 9.88095 13.8468 9.88095L15.4093 9.88086C15.5906 9.88086 15.7376 10.0279 15.7376 10.2092C15.7376 10.3904 15.5905 10.5374 15.4093 10.5373H15.4093Z" fill="black"/>
<path d="M21.1802 11.4678C20.999 11.4678 20.8519 11.3211 20.8519 11.1398L20.8519 8.13039C20.8519 7.94909 20.999 7.80225 21.1802 7.80225C21.3614 7.80217 21.5084 7.9492 21.5084 8.13048L21.5084 11.1397C21.5084 11.321 21.3614 11.4679 21.1802 11.4678V11.4678Z" fill="black"/>
<path d="M22.0492 8.45857H20.3112C20.13 8.45857 19.9829 8.31176 19.9829 8.13048C19.983 7.94904 20.1299 7.80225 20.3111 7.80225H22.0492C22.2305 7.80225 22.3774 7.94915 22.3774 8.13048C22.3774 8.31163 22.2304 8.45864 22.0492 8.45857H22.0492Z" fill="black"/>
<path d="M22.0492 11.4678H20.3112C20.13 11.4678 19.9829 11.3211 19.9829 11.1398C19.983 10.9585 20.1299 10.8116 20.3111 10.8116L22.0492 10.8115C22.2305 10.8115 22.3774 10.9585 22.3774 11.1398C22.3774 11.3211 22.2304 11.468 22.0492 11.4678H22.0492Z" fill="black"/>
<path d="M12.4809 8.4587H9.95083C9.76961 8.4587 9.62256 8.31184 9.62256 8.13056C9.62261 7.94916 9.76959 7.80232 9.95079 7.80232L12.4809 7.80225C12.6621 7.80225 12.8092 7.94927 12.8092 8.13056C12.8092 8.31176 12.6621 8.45877 12.4809 8.4587V8.4587Z" fill="black"/>
<path d="M11.2158 11.4678C11.0346 11.4678 10.8876 11.3211 10.8876 11.1398V8.13039C10.8876 7.94909 11.0346 7.80225 11.2158 7.80225C11.3971 7.80217 11.544 7.9492 11.544 8.13048L11.544 11.1397C11.544 11.321 11.397 11.4679 11.2158 11.4678V11.4678Z" fill="black"/>
<path d="M16.7747 11.4681C16.7001 11.4681 16.6254 11.4429 16.5639 11.3914C16.4248 11.2747 16.4066 11.0678 16.5234 10.9289L19.0467 7.92101C19.1636 7.78203 19.3703 7.76402 19.5094 7.88056C19.6479 7.99691 19.6661 8.20411 19.5498 8.343L17.026 11.3508C16.9611 11.4282 16.8682 11.4681 16.7747 11.4681L16.7747 11.4681Z" fill="black"/>
<path d="M19.2986 11.4681C19.2045 11.4681 19.1116 11.4283 19.0466 11.3508L16.5234 8.34297C16.4066 8.2041 16.4248 7.99702 16.5638 7.88055C16.7023 7.76394 16.9097 7.78213 17.026 7.921L19.5498 10.9289C19.6661 11.0678 19.6478 11.2748 19.5094 11.3914C19.4478 11.4428 19.3726 11.4681 19.2986 11.4681V11.4681Z" fill="black"/>
<path d="M10.2791 22.1822H21.721V20.8372C21.721 20.0957 21.1175 19.4924 20.3761 19.4924L11.6244 19.4923C10.8825 19.4923 10.279 20.0957 10.279 20.8373L10.279 22.1822H10.2791ZM22.0492 22.8386H9.95083C9.76961 22.8386 9.62256 22.6917 9.62256 22.5104L9.62261 20.8372C9.62261 19.7337 10.5206 18.836 11.6244 18.836L20.3762 18.8359C21.48 18.8359 22.3774 19.7338 22.3774 20.8373L22.3775 22.5103C22.3775 22.6916 22.2304 22.8387 22.0493 22.8385L22.0492 22.8386Z" fill="black"/>
<path d="M20.0707 19.4925C19.9112 19.4925 19.7715 19.3766 19.7464 19.2143L19.3248 16.4792C19.2313 15.8694 18.7213 15.2131 17.8232 15.2131L14.1768 15.2131C13.2793 15.2131 12.7692 15.8695 12.6752 16.4793L12.2535 19.2143C12.2262 19.3934 12.0586 19.5163 11.8791 19.4887C11.7002 19.461 11.5771 19.2935 11.605 19.1143L12.0267 16.3792C12.192 15.3062 13.0764 14.5567 14.1767 14.5567L17.8232 14.5566C18.9242 14.5566 19.8085 15.3062 19.9738 16.3793L20.3955 19.1143C20.4229 19.2934 20.3003 19.4611 20.1208 19.4887C20.1043 19.4913 20.0872 19.4926 20.0707 19.4926L20.0707 19.4925Z" fill="black"/>
<path d="M13.3056 21.1653H11.9864C11.8051 21.1653 11.6581 21.0184 11.6581 20.8371C11.6581 20.6557 11.8051 20.5089 11.9863 20.5089L13.3056 20.5088C13.4867 20.5088 13.6337 20.6558 13.6337 20.8371C13.6338 21.0183 13.4867 21.1653 13.3056 21.1653V21.1653Z" fill="black"/>
<path d="M20.0143 21.1653H18.6951C18.5139 21.1653 18.3668 21.0184 18.3668 20.8371C18.3669 20.6557 18.5139 20.5089 18.6951 20.5089L20.0143 20.5088C20.1955 20.5088 20.3425 20.6558 20.3425 20.8371C20.3425 21.0183 20.1955 21.1653 20.0143 21.1653V21.1653Z" fill="black"/>
<path d="M12.8149 24.3509H11.9784C11.478 24.3509 11.0706 23.9438 11.0706 23.4434V22.5102C11.0706 22.329 11.2176 22.1821 11.3988 22.1821C11.58 22.1821 11.727 22.329 11.727 22.5103V23.4433C11.727 23.5817 11.8399 23.6944 11.9783 23.6944H12.8149C12.9533 23.6944 13.0656 23.5818 13.0656 23.4434V22.5102C13.0656 22.329 13.2126 22.1821 13.3938 22.1821C13.5751 22.1821 13.7221 22.329 13.7221 22.5103L13.7221 23.4433C13.7221 23.9438 13.3152 24.3509 12.8149 24.3509H12.8149Z" fill="black"/>
<path d="M20.0223 24.3509H19.1857C18.6854 24.3509 18.278 23.9438 18.278 23.4434V22.5102C18.278 22.329 18.425 22.1821 18.6062 22.1821C18.788 22.1821 18.9344 22.329 18.9344 22.5103L18.9344 23.4433C18.9344 23.5817 19.0472 23.6944 19.1857 23.6944H20.0223C20.1607 23.6944 20.273 23.5818 20.273 23.4434L20.273 22.5102C20.273 22.329 20.42 22.1821 20.6012 22.1821C20.7825 22.1821 20.9294 22.329 20.9294 22.5103L20.9295 23.4433C20.9295 23.9438 20.5226 24.3509 20.0223 24.3509H20.0223Z" fill="black"/>
<path d="M17.2175 15.2128C17.0363 15.2128 16.8892 15.0659 16.8892 14.8847L16.8893 13.7971H15.1113V14.8846C15.1113 15.0659 14.9643 15.2129 14.7831 15.2129C14.6019 15.2128 14.4548 15.0659 14.4548 14.8847L14.4549 13.4688C14.4549 13.2875 14.6019 13.1407 14.7831 13.1407L17.2175 13.1406C17.3987 13.1406 17.5457 13.2876 17.5457 13.4689L17.5457 14.8846C17.5457 15.0659 17.3987 15.2129 17.2175 15.2128L17.2175 15.2128Z" fill="black"/>
<path d="M9.84822 2.32298C8.76608 2.32298 7.88621 3.20331 7.88621 4.28531V27.7147C7.88621 28.7967 8.76606 29.677 9.84819 29.677H22.1518C23.2339 29.677 24.1143 28.7967 24.1143 27.7147L24.1143 4.28517C24.1143 3.20317 23.2339 2.32297 22.1517 2.32297H9.84819L9.84822 2.32298ZM22.1518 30.3334H9.84822C8.4042 30.3334 7.22974 29.1587 7.22974 27.7147V4.28516C7.22974 2.84121 8.40419 1.6665 9.84819 1.6665H22.1518C23.5957 1.6665 24.7707 2.84128 24.7707 4.28529L24.7708 27.7147C24.7708 29.1586 23.5957 30.3334 22.1518 30.3334L22.1518 30.3334Z" fill="black"/>
<path d="M17.9418 28.1442H14.0582C13.877 28.1442 13.73 27.9973 13.73 27.8161C13.73 27.6347 13.877 27.4878 14.0582 27.4878L17.9418 27.4878C18.1235 27.4878 18.2699 27.6348 18.2699 27.8161C18.27 27.9973 18.1235 28.1443 17.9418 28.1442H17.9418Z" fill="black"/>
<path d="M25.2175 14.5649H24.4425C24.2613 14.5649 24.1143 14.418 24.1143 14.2367C24.1143 14.0554 24.2613 13.9085 24.4425 13.9085H25.2175C25.4643 13.9085 25.6643 13.7081 25.6643 13.4617L25.6643 9.37818C25.6643 9.13176 25.4642 8.93134 25.2175 8.93134L24.4425 8.93123C24.2613 8.93123 24.1143 8.78444 24.1143 8.60317C24.1143 8.42182 24.2613 8.27494 24.4425 8.27494L25.2175 8.2749C25.8261 8.2749 26.3207 8.76984 26.3207 9.37822L26.3207 13.4616C26.3207 14.07 25.8261 14.565 25.2175 14.5649L25.2175 14.5649Z" fill="black"/>
<path d="M7.55798 11.0479H6.78248C6.17442 11.0479 5.6792 10.5531 5.6792 9.9447L5.67925 9.37818C5.67925 8.7698 6.1744 8.27494 6.78243 8.27494L7.55799 8.2749C7.73923 8.2749 7.88622 8.42184 7.88622 8.60318C7.88622 8.78442 7.7392 8.93134 7.55799 8.93134L6.78248 8.93123C6.5363 8.93123 6.33566 9.13181 6.33566 9.37822L6.33571 9.94465C6.33571 10.1911 6.53626 10.3916 6.78243 10.3916L7.55799 10.3915C7.73923 10.3915 7.88622 10.5385 7.88622 10.7198C7.88622 10.901 7.7392 11.048 7.55799 11.0479L7.55798 11.0479Z" fill="black"/>
<path d="M7.55798 14.565H6.78248C6.17442 14.565 5.6792 14.0702 5.6792 13.4618L5.67925 12.8953C5.67925 12.2869 6.1744 11.792 6.78243 11.792L7.55799 11.792C7.73923 11.792 7.88622 11.939 7.88622 12.1202C7.88622 12.3014 7.7392 12.4485 7.55799 12.4485L6.78248 12.4484C6.5363 12.4484 6.33566 12.6489 6.33566 12.8953L6.33571 13.4617C6.33571 13.7082 6.53626 13.9087 6.78243 13.9087H7.55799C7.73923 13.9087 7.88622 14.0556 7.88622 14.2369C7.88622 14.4181 7.7392 14.5651 7.55799 14.565L7.55798 14.565Z" fill="black"/>
<path d="M20.0132 4.51192H11.9875C11.8062 4.51192 11.6592 4.36506 11.6592 4.1838C11.6592 4.00239 11.8062 3.85558 11.9874 3.85558L20.0132 3.85547C20.1944 3.85547 20.3414 4.0025 20.3414 4.1838C20.3414 4.36499 20.1943 4.51201 20.0132 4.51192H20.0132Z" fill="black"/>
</svg>
