<svg id="Group_37694" data-name="Group 37694" xmlns="http://www.w3.org/2000/svg" xmlns:xlink="http://www.w3.org/1999/xlink" width="23.05" height="32" viewBox="0 0 23.05 32">
  <defs>
    <clipPath id="clip-path">
      <rect id="Rectangle_12576" data-name="Rectangle 12576" width="23.05" height="32"/>
    </clipPath>
  </defs>
  <g id="Group_37693" data-name="Group 37693" clip-path="url(#clip-path)">
    <path id="Path_105470" data-name="Path 105470" d="M1.738,14.43C.2,14.242-.007,14.018,0,12.632c.008-.906.391-1.215,1.7-1.351v-.808A1.6,1.6,0,0,1,.3,10.04,1.83,1.83,0,0,1,0,8.751,1.128,1.128,0,0,1,.507,7.635a6.587,6.587,0,0,1,1.231-.379c0-.046,0-.171,0-.3,0-1.291,0-2.581,0-3.872A2.9,2.9,0,0,1,4.815,0Q11.531,0,18.248,0a2.9,2.9,0,0,1,3.068,3.059c.005,1.291,0,2.581,0,3.872V7.35c.161.008.3.016.429.02a1.234,1.234,0,0,1,1.3,1.321q.006,2.163,0,4.326A1.242,1.242,0,0,1,21.671,14.4c-.1,0-.206,0-.354,0v.47q0,7.029,0,14.058a2.909,2.909,0,0,1-2.361,3.02,3.7,3.7,0,0,1-.729.052q-6.7,0-13.4,0a2.907,2.907,0,0,1-3.088-3.109q0-7.012,0-14.023V14.43m.723,1.551q0,6.454,0,12.908a2.216,2.216,0,0,0,2.4,2.385H18.191a2.217,2.217,0,0,0,2.4-2.384q0-12.891,0-25.781a2.216,2.216,0,0,0-2.4-2.384H4.9A2.226,2.226,0,0,0,2.461,3.178q0,6.4,0,12.8m18.873-2.35c.683.093.978-.044.983-.493.016-1.5.012-3,0-4.5,0-.355-.2-.515-.56-.526-.136,0-.272,0-.424,0ZM1.717,12.07c-.512-.085-.758-.028-.9.2a1.618,1.618,0,0,0,.036,1.2c.245.276.558.191.865.173Zm0-2.349V8.12c-.33,0-.749-.135-.864.217a2.007,2.007,0,0,0,0,1.168c.115.356.534.208.864.216" transform="translate(-0.001 0)"/>
    <path id="Path_105471" data-name="Path 105471" d="M59.86,148.162c0,.242,0,.439,0,.635a1.024,1.024,0,0,1-1.022,1.059c-.29.015-.581.011-.872,0a1.019,1.019,0,0,1-1.069-1.048c-.011-.2,0-.392,0-.619-.128-.012-.227-.029-.326-.029-1.477,0-2.953,0-4.43-.007-.262,0-.363.076-.331.336a1.876,1.876,0,0,1,0,.348,1.018,1.018,0,0,1-1.029,1.016c-.29.014-.582.011-.872,0a1.029,1.029,0,0,1-1.062-1.092c0-.185,0-.37,0-.6-.391,0-.759,0-1.127,0s-.481-.106-.483-.476c0-.593-.008-1.186,0-1.779a2.2,2.2,0,0,1,1.925-2.172c.269-.035.361-.13.394-.4.092-.76.224-1.516.342-2.274a2.381,2.381,0,0,1,2.469-2.135c.068,0,.137-.006.257-.012,0-.353,0-.7,0-1.04,0-.42.12-.536.542-.538q1.186,0,2.372,0c.436,0,.545.117.549.566,0,.324,0,.649,0,1,.248.017.478.013.7.05a2.378,2.378,0,0,1,2.022,2.1c.121.78.246,1.56.353,2.342.028.2.086.294.308.327a2.206,2.206,0,0,1,2,2.318c0,.546,0,1.093,0,1.639,0,.373-.1.475-.479.481-.359.006-.718,0-1.132,0m.88-.738c0-.518.017-1,0-1.49a1.487,1.487,0,0,0-1.582-1.5H53.19c-1.232,0-2.465,0-3.7,0a1.423,1.423,0,0,0-1.471,1.138,15.03,15.03,0,0,0-.016,1.849Zm-2.272-3.752c-.135-.863-.257-1.7-.4-2.534a1.609,1.609,0,0,0-1.656-1.479q-2.07-.039-4.142,0a1.516,1.516,0,0,0-1.556,1.16c-.21.933-.327,1.887-.488,2.852Zm-3.142-5.57H53.391v.824h1.935ZM49.52,148.184c.075.332.076.808.213.852a2.017,2.017,0,0,0,1.176.008c.149-.049.155-.533.236-.86Zm9.651.005H57.566l.2.882,1.229-.005.178-.876" transform="translate(-42.825 -124.532)"/>
    <path id="Path_105472" data-name="Path 105472" d="M131.236,75.494c.41.491.812.942,1.172,1.426a.519.519,0,0,1,0,.483c-.058.085-.3.079-.454.049-.092-.018-.165-.154-.24-.242-.314-.371-.626-.745-.96-1.143-.372.441-.719.859-1.074,1.27-.2.236-.473.257-.622.057s-.071-.368.068-.533c.374-.443.746-.889,1.146-1.365l-.957-1.148c-.074-.089-.151-.176-.224-.267a.365.365,0,1,1,.557-.47c.31.362.615.728.922,1.092.052.062.106.122.188.215.355-.424.691-.847,1.057-1.244a.62.62,0,0,1,.437-.2c.284.025.357.363.145.626-.373.459-.757.908-1.161,1.391" transform="translate(-116.953 -66.6)"/>
    <path id="Path_105473" data-name="Path 105473" d="M76.777,26.854H72.594c-.1,0-.238.035-.307-.016-.123-.091-.275-.229-.286-.359-.009-.1.155-.252.275-.328.085-.053.226-.021.342-.021h8.506c.26-.006.519.018.523.357s-.245.369-.511.368q-2.179,0-4.358,0" transform="translate(-65.288 -23.686)"/>
    <path id="Path_105474" data-name="Path 105474" d="M91.372,76.847a2.477,2.477,0,0,1-.314,0,.32.32,0,0,0-.4.281,4.493,4.493,0,0,1-.171.456.359.359,0,0,1-.488.264c-.253-.086-.276-.3-.2-.517.185-.512.383-1.02.575-1.53.209-.554.4-1.114.636-1.656.061-.142.248-.321.376-.32a.553.553,0,0,1,.377.321c.41,1.035.793,2.08,1.185,3.122.09.24.114.477-.178.579s-.431-.078-.51-.33c-.007-.022-.019-.043-.027-.064-.232-.6-.232-.6-.866-.6m.356-.756-.343-.885-.321.885Z" transform="translate(-81.397 -66.942)"/>
    <path id="Path_105475" data-name="Path 105475" d="M173.22,74.237v2.636c.184,0,.364,0,.545,0,.247,0,.408.122.405.376s-.167.347-.394.349c-.627,0-1.253,0-1.88,0a.334.334,0,0,1-.378-.361.343.343,0,0,1,.382-.36c.173-.006.347,0,.55,0V74.237c-.175,0-.354,0-.534,0-.246,0-.407-.112-.4-.375.008-.243.164-.343.395-.343h1.847c.248,0,.411.113.409.368,0,.238-.16.347-.391.35-.173,0-.346,0-.559,0" transform="translate(-155.53 -66.665)"/>
    <path id="Path_105476" data-name="Path 105476" d="M48.745,74.24c-.373,0-.685,0-1,0-.247,0-.41-.118-.4-.376.009-.236.166-.343.4-.343H50.5a.343.343,0,0,1,.388.355.339.339,0,0,1-.38.361c-.323,0-.646,0-1.019,0v.613q0,1.063,0,2.126c0,.441-.115.64-.38.615-.4-.037-.363-.352-.363-.631q0-1.168,0-2.335V74.24" transform="translate(-42.933 -66.668)"/>
    <path id="Path_105477" data-name="Path 105477" d="M99.14,309.3c.685,0,1.37,0,2.055,0,.246,0,.455.054.465.344.011.311-.2.381-.464.381q-2.055,0-4.11,0c-.263,0-.475-.069-.465-.38.01-.29.218-.346.464-.345.685,0,1.37,0,2.055,0" transform="translate(-87.614 -280.469)"/>
    <path id="Path_105478" data-name="Path 105478" d="M73.121,225.511c.232,0,.464-.011.7,0s.407.147.356.372a.525.525,0,0,1-.343.345,9.105,9.105,0,0,1-1.491,0,.479.479,0,0,1-.312-.358c0-.122.2-.309.334-.342a3.424,3.424,0,0,1,.761-.016h0" transform="translate(-65.312 -204.478)"/>
    <path id="Path_105479" data-name="Path 105479" d="M153.242,225.494a2.844,2.844,0,0,1,.691.015.572.572,0,0,1,.355.335c.06.225-.118.374-.342.382q-.729.024-1.459,0a.342.342,0,0,1-.367-.377.355.355,0,0,1,.391-.355c.243-.009.487,0,.73,0" transform="translate(-137.94 -204.461)"/>
  </g>
</svg>
