<svg id="Group_37696" data-name="Group 37696" xmlns="http://www.w3.org/2000/svg" xmlns:xlink="http://www.w3.org/1999/xlink" width="27.204" height="32" viewBox="0 0 27.204 32">
  <defs>
    <clipPath id="clip-path">
      <rect id="Rectangle_12577" data-name="Rectangle 12577" width="27.204" height="32" fill="none"/>
    </clipPath>
  </defs>
  <g id="Group_37695" data-name="Group 37695" clip-path="url(#clip-path)">
    <path id="Path_105480" data-name="Path 105480" d="M68.907,12.4c0,.679,0,1.277,0,1.876,0,.419-.2.664-.536.661s-.529-.246-.529-.668q0-5.682,0-11.363A1.626,1.626,0,0,0,66.02,1.071h-9.2a1.616,1.616,0,0,0-1.781,1.772c0,.3.01.6,0,.9a.525.525,0,0,1-.535.526.509.509,0,0,1-.518-.5,9.58,9.58,0,0,1,.056-1.593A2.59,2.59,0,0,1,56.591.01q4.848-.019,9.7,0A2.64,2.64,0,0,1,68.9,2.7q.014,3.9,0,7.8a.815.815,0,0,0,.259.64q3.088,3.085,6.163,6.184a3.464,3.464,0,0,1,1.051,2.542q0,5.682,0,11.363a2.014,2.014,0,0,1-.011.332A.523.523,0,0,1,75.82,32a.512.512,0,0,1-.5-.45,1.99,1.99,0,0,1-.011-.366q0-5.632,0-11.263a2.53,2.53,0,0,0-.772-1.881q-2.675-2.674-5.336-5.361c-.076-.077-.157-.149-.295-.28" transform="translate(-49.171 0)"/>
    <path id="Path_105481" data-name="Path 105481" d="M5.364,59.938a5.232,5.232,0,0,1,5.3,5.429,8.832,8.832,0,0,1-.9,3.285A25.674,25.674,0,0,1,5.8,74.621a.527.527,0,0,1-.884.033A23.214,23.214,0,0,1,.5,67.616,6.179,6.179,0,0,1,.175,63.8a5.314,5.314,0,0,1,5.189-3.861m-.01,13.624c.057-.1.079-.155.11-.2.818-1.16,1.685-2.288,2.442-3.487a10.442,10.442,0,0,0,1.648-4.142,4.124,4.124,0,0,0-3.372-4.652A4.285,4.285,0,0,0,1.188,64.15,4.958,4.958,0,0,0,1.382,66.9a17.416,17.416,0,0,0,2.58,4.82c.429.6.891,1.181,1.391,1.841" transform="translate(0 -54.6)"/>
    <path id="Path_105482" data-name="Path 105482" d="M169.548,155.782a2.637,2.637,0,0,0-.709,2.373,3.194,3.194,0,0,0,.714,1.171c.744.808,1.545,1.564,2.321,2.342.339.34.348.484.137.906a3.123,3.123,0,0,0,.271,3.391c.057.082.128.154.186.235a.53.53,0,1,1-.821.67,4.189,4.189,0,0,1-1.015-2.135,4.034,4.034,0,0,1,.25-2.253.309.309,0,0,0-.091-.4c-.65-.637-1.291-1.284-1.934-1.93a3.346,3.346,0,0,1-.393-4.684,7.053,7.053,0,0,1,.636-.769.531.531,0,0,1,.845-.021q3.03,2.929,6.051,5.866a.541.541,0,1,1-.752.756q-2.68-2.6-5.355-5.2c-.1-.1-.206-.2-.341-.325" transform="translate(-152.754 -140.723)"/>
    <path id="Path_105483" data-name="Path 105483" d="M61.012,243.874c-1.433,0-2.866,0-4.3,0a2.672,2.672,0,0,1-2.795-2.782c0-.311-.008-.622,0-.933a.53.53,0,1,1,1.06,0c.011.3,0,.6,0,.9a1.611,1.611,0,0,0,1.738,1.749q4.283,0,8.566,0c.089,0,.178,0,.267,0,.39.008.63.214.626.537s-.243.527-.636.528q-2.266,0-4.533,0" transform="translate(-49.113 -218.271)"/>
    <path id="Path_105484" data-name="Path 105484" d="M171.323,297.429c0,.588,0,1.176,0,1.764,0,.392-.207.631-.528.634s-.535-.237-.536-.626c0-1.009-.007-2.019,0-3.028a.438.438,0,0,0-.238-.419,11.049,11.049,0,0,1-1.058-.8.519.519,0,0,1-.062-.792.566.566,0,0,1,.779.005c.429.31.864.612,1.311.9a.621.621,0,0,1,.331.568c0,.6,0,1.2,0,1.8" transform="translate(-153.719 -267.826)"/>
    <path id="Path_105485" data-name="Path 105485" d="M115.978,25.056c-.5,0-1,0-1.5,0-.386,0-.626-.22-.619-.544a.54.54,0,0,1,.609-.52q1.516-.007,3.032,0c.386,0,.627.22.619.543a.542.542,0,0,1-.609.52c-.511.006-1.022,0-1.533,0" transform="translate(-103.719 -21.852)"/>
    <path id="Path_105486" data-name="Path 105486" d="M126.932,251.547c.178,0,.356-.012.533,0a.525.525,0,0,1,.5.524.516.516,0,0,1-.495.529c-.377.019-.755.018-1.132,0a.516.516,0,0,1-.5-.523.523.523,0,0,1,.494-.53c.2-.016.4,0,.6,0" transform="translate(-114.631 -229.14)"/>
    <path id="Path_105487" data-name="Path 105487" d="M32.682,89.888A2.666,2.666,0,1,1,30,92.55a2.673,2.673,0,0,1,2.677-2.662m1.588,2.675a1.6,1.6,0,1,0-1.592,1.59,1.605,1.605,0,0,0,1.592-1.59" transform="translate(-27.333 -81.883)"/>
  </g>
</svg>
