<svg id="Group_37697" data-name="Group 37697" xmlns="http://www.w3.org/2000/svg" xmlns:xlink="http://www.w3.org/1999/xlink" width="31.94" height="32" viewBox="0 0 31.94 32">
  <defs>
    <clipPath id="clip-path">
      <rect id="Rectangle_12578" data-name="Rectangle 12578" width="31.94" height="32" fill="none" stroke="#fff" stroke-width="0.4"/>
    </clipPath>
  </defs>
  <g id="Group_37697-2" data-name="Group 37697" clip-path="url(#clip-path)">
    <path id="Path_105488" data-name="Path 105488" d="M75.714,39.453h-9.1c-.045.061-.1.1-.1.139-.166,1.982-.735,2.508-2.715,2.512-.309,0-.617,0-.926,0-1.559-.014-2.235-.646-2.379-2.213-.014-.149-.02-.389-.1-.426-.733-.332-.528-.98-.545-1.547-.016-.542,0-1.084,0-1.626-.007-2.229-.39-4.547,1.639-6.254-.571-.378-1.554-.255-1.238-1.132.355-.984,1.211-.171,1.9-.325.286-.592.624-1.226.9-1.885A3.917,3.917,0,0,1,67.037,24.1c.741.02,1.021-.214,1.168-.929.327-1.593.581-1.758,2.178-1.765l.386,0c2.165,0,2.18,0,2.717,2.074.119.459.3.639.78.608a9.485,9.485,0,0,1,1.617.035,3.877,3.877,0,0,1,3.193,2.254c.3.6.592,1.2.842,1.824.167.414.4.549.825.418a1.986,1.986,0,0,1,.9-.154c.273.055.666.285.708.5s-.221.59-.451.744a3.118,3.118,0,0,1-.984.253,2.124,2.124,0,0,0,.19.388,6.451,6.451,0,0,1,1.326,4.915c-.087.921-.006,1.857-.02,2.786-.008.52.156,1.1-.527,1.4-.113.05-.106.419-.121.643a2,2,0,0,1-1.959,1.995c-.41.029-.823.012-1.234.011-2.1,0-2.631-.483-2.861-2.65m-14.5-1.407H81.062V36.094c-1.042,0-2.042.042-3.035-.025a1.13,1.13,0,0,1-.859-.534,2.748,2.748,0,0,1,2.509-3.444c.264-.016.529-.028.874-.046-.357-.606-.625-1.137-.972-1.609a.973.973,0,0,0-.687-.338q-7.756-.029-15.513,0a.905.905,0,0,0-.651.268c-.377.509-.683,1.071-1.065,1.69.28.016.45.031.621.035a2.7,2.7,0,0,1,2.871,3c0,.721-.257,1.045-1,1.019-.969-.033-1.94-.008-2.94-.008Zm2.36-9.354h15.1c-.311-.665-.559-1.261-.86-1.828a2.468,2.468,0,0,0-2.227-1.428q-4.472-.042-8.944,0a2.348,2.348,0,0,0-2.053,1.186c-.379.632-.656,1.325-1.015,2.068M61.91,39.463c-.144,1.107.008,1.29,1.037,1.3.383,0,.767,0,1.15,0,.977-.014,1.192-.316.916-1.295Zm18.443,0H77.2c-.162,1.087,0,1.292,1.021,1.3q.575,0,1.149,0c.965-.008,1.114-.193.982-1.3m-8.16-15.415c-.163-1.384-.233-1.434-2.091-1.279-.862.072-.513.788-.707,1.279Zm8.889,9.472c-1.427-.228-2.541-.079-2.566,1.168h2.566Zm-17.306,1.2c-.078-1.29-1.2-1.443-2.538-1.19v1.19Z" transform="translate(-50.538 -18.09)" stroke="#fff" stroke-width="0.4"/>
    <path id="Path_105489" data-name="Path 105489" d="M17.338,109.035c0-.628,0-1.191,0-1.755,0-.468.175-.9.681-.8a1.036,1.036,0,0,1,.6.78c.048,2.193.047,4.388.015,6.582a1.863,1.863,0,0,1-1.929,1.9q-7.366.03-14.733,0a1.9,1.9,0,0,1-1.9-2.019c-.012-4.569,0-9.138-.007-13.707,0-.489.1-.916.692-.894.546.02.619.441.619.89q0,4.143,0,8.286c0,.227.021.455.035.733Zm-.007,1.45H1.379c0,1-.006,1.945,0,2.893.007.862.193,1.056,1.035,1.061,1.284.009,2.569,0,3.853,0q5.009,0,10.018,0c.536,0,1.02-.077,1.037-.741.027-1.052.007-2.1.007-3.219" transform="translate(-0.057 -83.759)" stroke="#fff" stroke-width="0.4"/>
    <path id="Path_105490" data-name="Path 105490" d="M1.418,2.663H15.346c.206,0,.458-.073.606.021.249.157.594.419.6.639s-.333.545-.587.636A3.309,3.309,0,0,1,14.891,4Q8.6,4,2.316,4H1.322c0,1.918,0,3.744,0,5.571a3.145,3.145,0,0,1-.027,1,2.883,2.883,0,0,1-.6.752c-.227-.256-.639-.5-.651-.769C-.024,9.112.009,7.665.009,6.219c0-1.342,0-2.685.005-4.027A1.972,1.972,0,0,1,2.146.007Q9.86-.006,17.574,0c.484,0,1,.01,1,.665s-.527.657-1.007.657q-7.56,0-15.12,0c-1.006,0-1.205.252-1.028,1.344" transform="translate(0 0.001)" stroke="#fff" stroke-width="0.4"/>
    <path id="Path_105491" data-name="Path 105491" d="M19.86,129.09c.282,0,.566-.021.845,0a1.946,1.946,0,0,1,1.778,1.817A1.9,1.9,0,0,1,20.94,133a7.768,7.768,0,0,1-1.988.043,1.943,1.943,0,0,1-1.753-2.077,1.971,1.971,0,0,1,1.968-1.88c.23-.01.461,0,.692,0v.009m-.052,2.647c.179,0,.392.063.53-.013.3-.165.739-.362.794-.617.106-.492-.312-.7-.777-.706a2.973,2.973,0,0,0-1.063.027c-.293.111-.5.443-.748.678a5.835,5.835,0,0,0,.736.615c.131.08.349.014.528.015" transform="translate(-14.531 -109.069)" stroke="#fff" stroke-width="0.4"/>
    <path id="Path_105492" data-name="Path 105492" d="M20.321,74.4a17.22,17.22,0,0,1-2.152-.029,1.079,1.079,0,0,1-.782-.612c-.1-.494.315-.689.792-.688,1.437,0,2.876-.032,4.31.03a1.045,1.045,0,0,1,.781.611c.1.5-.325.687-.794.687H20.321" transform="translate(-14.68 -61.738)" stroke="#fff" stroke-width="0.4"/>
    <path id="Path_105493" data-name="Path 105493" d="M20.166,55.871a18.713,18.713,0,0,1,2.228.029c.288.035.536.4.8.613-.259.222-.51.624-.778.636-1.459.063-2.924.063-4.383,0-.274-.012-.532-.4-.8-.615.258-.222.5-.6.778-.635a16.731,16.731,0,0,1,2.15-.03" transform="translate(-14.565 -47.193)" stroke="#fff" stroke-width="0.4"/>
    <path id="Path_105494" data-name="Path 105494" d="M19.881,90.2a13.34,13.34,0,0,1,1.917.03c.263.039.479.4.716.621-.226.229-.444.645-.681.657a39.139,39.139,0,0,1-3.916,0c-.238-.012-.456-.432-.683-.663.242-.215.462-.575.729-.614a13.342,13.342,0,0,1,1.917-.029" transform="translate(-14.562 -76.2)" stroke="#fff" stroke-width="0.4"/>
    <path id="Path_105495" data-name="Path 105495" d="M19.863,108.7a11.413,11.413,0,0,1-1.839-.029c-.292-.048-.532-.41-.8-.63.257-.229.5-.64.774-.655a33.394,33.394,0,0,1,3.762,0c.26.015.5.437.744.671-.267.213-.512.564-.805.611a11.731,11.731,0,0,1-1.84.029" transform="translate(-14.557 -90.695)" stroke="#fff" stroke-width="0.4"/>
    <path id="Path_105496" data-name="Path 105496" d="M53.373,39.87a3.022,3.022,0,0,1-.992-.026c-.259-.1-.607-.407-.607-.623a.882.882,0,0,1,.585-.639,8.236,8.236,0,0,1,2.07.007.873.873,0,0,1,.563.654c-.009.217-.365.51-.627.6a3.1,3.1,0,0,1-.992.024" transform="translate(-43.749 -32.55)" stroke="#fff" stroke-width="0.4"/>
    <path id="Path_105497" data-name="Path 105497" d="M35.165,40.6c-.3-.437-.634-.723-.588-.919a.993.993,0,0,1,.661-.623c.166-.03.581.388.578.6,0,.258-.332.51-.65.942" transform="translate(-29.214 -33)" stroke="#fff" stroke-width="0.4"/>
    <path id="Path_105498" data-name="Path 105498" d="M18.8,39.809c-.472.259-.765.549-1.015.517-.213-.028-.379-.427-.566-.662.248-.2.483-.523.747-.549.2-.02.436.345.834.695" transform="translate(-14.552 -33.05)" stroke="#fff" stroke-width="0.4"/>
    <path id="Path_105499" data-name="Path 105499" d="M1.027,80.084c.293.426.633.713.587.9-.064.262-.422.451-.654.671-.2-.228-.535-.447-.552-.687-.015-.224.311-.472.619-.887" transform="translate(-0.345 -67.67)" stroke="#fff" stroke-width="0.4"/>
    <path id="Path_105500" data-name="Path 105500" d="M106.307,90.267c1.1,0,2.209-.011,3.313,0,1.283.016,1.892.943,1.319,2.079-1.175,2.33-.535,1.887-2.991,1.921-1.566.022-3.133-.01-4.7.011a.978.978,0,0,1-1.031-.627c-.2-.447-.443-.872-.648-1.316a1.342,1.342,0,0,1,1.272-2.067c1.155-.02,2.311,0,3.467,0m3.415,1.39h-6.907c.371,1.269.371,1.269,1.546,1.269h3.7c1.215,0,1.215,0,1.656-1.269" transform="translate(-85.663 -76.269)" stroke="#fff" stroke-width="0.4"/>
    <path id="Path_105501" data-name="Path 105501" d="M49.165,181.867a4.8,4.8,0,0,1-1.219-.026c-.283-.077-.5-.388-.751-.6.221-.236.425-.655.665-.676a15.366,15.366,0,0,1,2.676,0c.228.019.425.409.636.629-.235.221-.438.562-.712.636a5.126,5.126,0,0,1-1.3.028v0" transform="translate(-39.879 -152.53)" stroke="#fff" stroke-width="0.4"/>
  </g>
</svg>
