<svg xmlns="http://www.w3.org/2000/svg" width="30.815" height="32" viewBox="0 0 30.815 32">
  <g id="Group_37823" data-name="Group 37823" transform="translate(-9.483)">
    <path id="Path_105619" data-name="Path 105619" d="M39.829,12.616a.469.469,0,0,0,.469-.469V9.185A1.991,1.991,0,0,0,38.308,7.2H35.543V4.638a1.263,1.263,0,0,0,.793-1.171V2.715A2.718,2.718,0,0,0,33.621,0h-2.5a2.718,2.718,0,0,0-2.715,2.715v.752A1.263,1.263,0,0,0,29.2,4.638V7.2H26.433a1.991,1.991,0,0,0-1.989,1.989v4.192h-3.01V12.6a2.12,2.12,0,0,0-4.24,0v.778h-3.67a1.8,1.8,0,0,0-1.8,1.8v5.907a.469.469,0,0,0,.938,0V19.534a1.788,1.788,0,0,0,.861.22h.64v.5a.876.876,0,0,0-.794.871v.479a.876.876,0,0,0,.875.875h2.38a.876.876,0,0,0,.875-.875v-.479a.876.876,0,0,0-.794-.871v-.5h5.216v.5a.876.876,0,0,0-.794.871v.479A.876.876,0,0,0,22,22.48h2.38a.876.876,0,0,0,.875-.875v-.479a.876.876,0,0,0-.794-.871v-.5h.64a1.787,1.787,0,0,0,.861-.22V30.2a.862.862,0,0,1-.861.861H13.523a.862.862,0,0,1-.861-.861V23.282a.469.469,0,1,0-.937,0v.473h-.443a1.8,1.8,0,0,0-1.8,1.8v2.738a1.8,1.8,0,0,0,1.8,1.8h.443V30.2a1.8,1.8,0,0,0,1.8,1.8H25.1a1.8,1.8,0,0,0,1.8-1.8V30.09h.385v.579a1.284,1.284,0,0,0,2.569,0v-.841h5.027v.841a1.285,1.285,0,0,0,2.569,0v-.841h.855A1.991,1.991,0,0,0,40.3,27.839V14.361a.469.469,0,1,0-.937,0V27.839a1.053,1.053,0,0,1-1.052,1.051H29.041a1.79,1.79,0,0,0,.1-.6V25.554a1.8,1.8,0,0,0-.6-1.336V9.826a.469.469,0,1,0-.937,0V23.775a1.808,1.808,0,0,0-.266-.02H26.9V15.176A1.8,1.8,0,0,0,25.381,13.4V9.185a1.053,1.053,0,0,1,1.052-1.051H38.308A1.053,1.053,0,0,1,39.36,9.185v2.962a.469.469,0,0,0,.469.469ZM11.282,29.153a.862.862,0,0,1-.861-.861V25.554a.862.862,0,0,1,.861-.861h.443v4.46Zm12.245-9.872s0,0,0,0,0,0,0,0v.961h-.667V14.315h.667Zm-5.4-6.682a1.183,1.183,0,0,1,2.365,0v.778H18.131Zm-2.363,7.652H15.1V14.315h.667Zm-2.245-1.434a.862.862,0,0,1-.861-.861V15.176a.862.862,0,0,1,.861-.861h.64v4.5Zm3.039,2.726H14.307v-.354h2.255Zm.144-2.726v-4.5h5.216v4.5Zm7.614,2.726H22.066v-.354H24.32Zm4.6,9.127a.347.347,0,0,1-.694,0v-.81l.054-.031h.64Zm7.6,0a.347.347,0,0,1-.694,0v-.841h.694v.841Zm-9.17-5.977a.862.862,0,0,1,.861.861v2.738a.862.862,0,0,1-.861.861H26.9v-4.46Zm-1.38-9.516v2.779a.862.862,0,0,1-.861.861h-.64v-4.5h.64A.862.862,0,0,1,25.966,15.176ZM29.343,2.715A1.78,1.78,0,0,1,31.12.938h2.5A1.78,1.78,0,0,1,35.4,2.715v.752a.325.325,0,0,1-.649,0V2.715a1.13,1.13,0,0,0-1.129-1.129h-2.5a1.13,1.13,0,0,0-1.128,1.129v.752a.325.325,0,0,1-.649,0Zm.793,1.923a1.263,1.263,0,0,0,.794-1.171V2.715a.191.191,0,0,1,.191-.191h2.5a.191.191,0,0,1,.191.191v.752a1.263,1.263,0,0,0,.793,1.171V7.2H30.136Z"/>
    <path id="Path_105620" data-name="Path 105620" d="M345.3,150.186v16.7a.475.475,0,1,0,.951,0v-16.7a.475.475,0,1,0-.951,0Z" transform="translate(-314.842 -140.513)"/>
    <path id="Path_105621" data-name="Path 105621" d="M391.067,150.186v16.7a.475.475,0,1,0,.951,0v-16.7a.475.475,0,0,0-.951,0Z" transform="translate(-357.746 -140.513)"/>
    <path id="Path_105622" data-name="Path 105622" d="M436.831,150.186v16.7a.475.475,0,0,0,.951,0v-16.7a.475.475,0,0,0-.951,0Z" transform="translate(-400.697 -140.513)"/>
    <path id="Path_105623" data-name="Path 105623" d="M95.557,384.567a1.151,1.151,0,0,0,1.15-1.15v-3.484a1.151,1.151,0,0,0-1.15-1.15H87.684a1.151,1.151,0,0,0-1.15,1.15v3.484a1.151,1.151,0,0,0,1.15,1.15Zm-8.072-1.15v-3.484a.2.2,0,0,1,.2-.2h7.873a.2.2,0,0,1,.2.2v3.484a.2.2,0,0,1-.2.2H87.684A.2.2,0,0,1,87.485,383.417Z" transform="translate(-72.268 -355.228)"/>
  </g>
</svg>
