<svg width="32" height="32" viewBox="0 0 32 32" fill="none" xmlns="http://www.w3.org/2000/svg">
<g clip-path="url(#clip0_23_869)">
<path d="M19.1255 20.1654C19.5216 20.1654 19.892 20.0092 20.1686 19.7257L22.6255 17.2067C23.1863 16.6317 23.1747 15.7077 22.5996 15.1469C22.0245 14.5862 21.1004 14.5979 20.5396 15.1728L19.0983 16.6504L18.8458 16.4049C18.2699 15.8452 17.3458 15.858 16.7857 16.4338C16.2259 17.0096 16.2388 17.9336 16.8147 18.4935L18.11 19.753C18.3835 20.0189 18.7442 20.1654 19.1255 20.1654ZM17.4594 17.0887C17.6584 16.884 17.9867 16.8798 18.191 17.0785L18.7797 17.6509C18.9654 17.8316 19.2624 17.8275 19.4434 17.6421L21.2122 15.8287C21.4114 15.6244 21.7396 15.6205 21.9437 15.8195C22.148 16.0187 22.152 16.3468 21.953 16.551L19.496 19.0699C19.3062 19.273 18.9603 19.2773 18.765 19.0797L17.4696 17.8202C17.2652 17.6213 17.2605 17.2931 17.4594 17.0887V17.0887Z" fill="black"/>
<path d="M15.4947 20.4851C15.3384 20.278 15.044 20.2368 14.8367 20.393C14.6296 20.5493 14.5885 20.8438 14.7447 21.0508C14.9157 21.2775 15.105 21.4949 15.307 21.6969C16.4619 22.8517 17.9975 23.4877 19.6308 23.4877C21.2641 23.4877 22.7996 22.8517 23.9546 21.6969C25.1096 20.5422 25.7456 19.0068 25.7456 17.3737C25.7456 15.7406 25.1095 14.2053 23.9546 13.0505C21.5704 10.6667 17.6912 10.6668 15.307 13.0505C13.6816 14.6757 13.1064 17.0465 13.8059 19.2378C13.8848 19.4849 14.1493 19.6212 14.3962 19.5424C14.6434 19.4635 14.7798 19.1992 14.7009 18.9522C14.1087 17.0973 14.5955 15.0904 15.9714 13.7148C17.9891 11.6972 21.2725 11.6972 23.2902 13.7148C24.2677 14.6922 24.8061 15.9916 24.8061 17.3738C24.8061 18.756 24.2677 20.0554 23.2902 21.0328C22.3128 22.0101 21.0132 22.5484 19.6308 22.5484C18.2485 22.5484 16.9488 22.0102 15.9713 21.0328C15.7999 20.8613 15.6396 20.6771 15.4947 20.4851V20.4851Z" fill="black"/>
<path d="M31.3537 25.9544L28.3903 22.9914C28.2068 22.808 27.9094 22.8079 27.7259 22.9914L27.7078 23.0095L26.5673 21.8692C27.3339 20.6874 27.7907 19.3218 27.8806 17.8966C27.8969 17.6378 27.7002 17.4147 27.4413 17.3983C27.1826 17.3826 26.9594 17.5787 26.9429 17.8375C26.8308 19.6168 26.0738 21.2918 24.8116 22.5539C23.3851 23.9803 21.5118 24.6942 19.6379 24.6961C19.6355 24.696 19.6332 24.6957 19.6308 24.6957H19.5934C17.7297 24.6863 15.8688 23.9726 14.4499 22.5539C13.0661 21.1702 12.3039 19.3306 12.3039 17.3738C12.3039 15.4169 13.0661 13.5773 14.4499 12.1936C17.3066 9.33725 21.9549 9.33725 24.8116 12.1936C25.8756 13.2575 26.5777 14.5994 26.8421 16.0745C26.8879 16.3298 27.1322 16.4994 27.3874 16.4539C27.6428 16.4082 27.8126 16.1641 27.7669 15.9087C27.4684 14.2439 26.6762 12.7296 25.4759 11.5294C24.8811 10.9347 24.2174 10.4501 23.5103 10.0749V6.28956C23.5099 6.16594 23.46 6.04494 23.3728 5.95744L17.5521 0.137562C17.4646 0.0504375 17.3436 0.0003125 17.2199 0H1.40913C0.632128 0 -5.95703e-05 0.632063 -5.95703e-05 1.409V5.35669C-5.95703e-05 5.61606 0.21019 5.82638 0.46969 5.82638C0.729128 5.82638 0.93944 5.61613 0.93944 5.35669V1.409C0.93944 1.15 1.15013 0.939313 1.40919 0.939313H16.7503V5.35025C16.7503 6.12719 17.3825 6.75925 18.1595 6.75925H22.571V9.64956C21.6545 9.30231 20.6883 9.12394 19.7204 9.1135C19.7158 9.11287 19.7113 9.11194 19.7065 9.11194H9.219C8.95957 9.11194 8.74925 9.32225 8.74925 9.58162C8.74925 9.841 8.95957 10.0513 9.219 10.0513H15.7956C15.1256 10.4017 14.4939 10.8502 13.9219 11.3966H9.219C8.95957 11.3966 8.74925 11.6069 8.74925 11.8663C8.74925 12.1257 8.95957 12.336 9.219 12.336H13.0765C12.3098 13.3292 11.7858 14.4731 11.5349 15.6941H9.21907C8.95963 15.6941 8.74932 15.9044 8.74932 16.1638C8.74932 16.4232 8.95963 16.6335 9.21907 16.6335H11.3978C11.3761 16.8783 11.3647 17.1252 11.3647 17.3739C11.3647 17.5779 11.3721 17.7807 11.3867 17.9822H9.21913C8.95969 17.9822 8.74938 18.1925 8.74938 18.4519C8.74938 18.7113 8.95969 18.9216 9.21913 18.9216H11.5091C11.7487 20.1929 12.2828 21.3841 13.0779 22.4134H9.21913C8.95969 22.4134 8.74938 22.6237 8.74938 22.8831C8.74938 23.1426 8.95969 23.3528 9.21913 23.3528H13.9238C14.495 23.8982 15.1256 24.346 15.7945 24.6959H9.21888C8.95944 24.6959 8.74913 24.9062 8.74913 25.1656C8.74913 25.425 8.95944 25.6353 9.21888 25.6353H19.6308C20.6284 25.6352 21.6261 25.456 22.5709 25.0981V30.5912C22.5709 30.8502 22.3602 31.0609 22.1011 31.0609H1.40913C1.15013 31.0609 0.939378 30.8502 0.939378 30.5912V7.23562C0.939378 6.97625 0.729065 6.76594 0.469628 6.76594C0.21019 6.76594 -0.00012207 6.97619 -0.00012207 7.23562V30.5912C-5.95703e-05 31.3679 0.632128 32 1.40913 32H22.1012C22.8782 32 23.5104 31.3679 23.5104 30.591V24.6724C23.72 24.5612 23.9258 24.4402 24.1271 24.3097L25.2673 25.4497C25.0699 25.6219 25.0594 25.9502 25.2491 26.1321L28.2126 29.0952C29.0393 29.9568 30.527 29.9567 31.3536 29.0952C32.2154 28.2686 32.2153 26.781 31.3537 25.9544V25.9544ZM18.1594 5.81994C17.9004 5.81994 17.6897 5.60925 17.6897 5.35025V1.60356L21.9066 5.81994H18.1594ZM24.8933 23.7474C25.0938 23.5817 25.2884 23.4056 25.4759 23.2181C25.6623 23.0317 25.8386 22.8372 26.0051 22.6356L27.0434 23.6737L25.9315 24.7854L24.8933 23.7474ZM30.6894 28.4309C30.2124 28.9281 29.3539 28.928 28.8769 28.4309L26.2455 25.7999L28.0581 23.9876L30.6894 26.6186C31.1866 27.0957 31.1866 27.9539 30.6894 28.4309Z" fill="black"/>
<path d="M4.26272 12.8003H6.31772C6.8971 12.8003 7.36847 12.3291 7.36847 11.7498V9.69509C7.36847 9.11578 6.89716 8.64453 6.31772 8.64453H4.26272C3.68341 8.64453 3.21204 9.11578 3.21204 9.69509V11.7498C3.21204 12.3291 3.68341 12.8003 4.26272 12.8003V12.8003ZM4.15154 9.69509C4.15154 9.63378 4.20147 9.58391 4.26272 9.58391H6.31772C6.3791 9.58391 6.42897 9.63378 6.42897 9.69509V11.7498C6.42897 11.8112 6.37904 11.861 6.31772 11.861H4.26272C4.20141 11.861 4.15154 11.8112 4.15154 11.7498V9.69509Z" fill="black"/>
<path d="M3.21204 18.3352C3.21204 18.9145 3.68335 19.3857 4.26272 19.3857H6.31772C6.8971 19.3857 7.36847 18.9145 7.36847 18.3352V16.2805C7.36847 15.7012 6.89716 15.23 6.31772 15.23H4.26272C3.68341 15.23 3.21204 15.7012 3.21204 16.2805V18.3352ZM4.15154 16.2805C4.15154 16.2192 4.20147 16.1693 4.26272 16.1693H6.31772C6.3791 16.1693 6.42897 16.2192 6.42897 16.2805V18.3352C6.42897 18.3965 6.37904 18.4464 6.31772 18.4464H4.26272C4.20141 18.4464 4.15154 18.3965 4.15154 18.3352V16.2805Z" fill="black"/>
<path d="M3.21204 25.0545C3.21204 25.6338 3.68335 26.105 4.26272 26.105H6.31772C6.8971 26.105 7.36847 25.6338 7.36847 25.0545V22.9998C7.36847 22.4205 6.89716 21.9492 6.31772 21.9492H4.26272C3.68341 21.9492 3.21204 22.4205 3.21204 22.9998V25.0545ZM4.15154 22.9998C4.15154 22.9385 4.20147 22.8886 4.26272 22.8886H6.31772C6.3791 22.8886 6.42897 22.9385 6.42897 22.9998V25.0545C6.42897 25.1158 6.37904 25.1657 6.31772 25.1657H4.26272C4.20141 25.1657 4.15154 25.1158 4.15154 25.0545V22.9998Z" fill="black"/>
</g>
<defs>
<clipPath id="clip0_23_869">
<rect width="32" height="32" fill="white"/>
</clipPath>
</defs>
</svg>
