<svg xmlns="http://www.w3.org/2000/svg" xmlns:xlink="http://www.w3.org/1999/xlink" width="60" height="60" viewBox="0 0 60 60">
  <defs>
    <clipPath id="clip-path">
      <rect id="Rectangle_12588" data-name="Rectangle 12588" width="54" height="53.956" fill="#fe5c58"/>
    </clipPath>
  </defs>
  <g id="Group_37651" data-name="Group 37651" transform="translate(-423 -1990)">
    <g id="Rectangle_12523" data-name="Rectangle 12523" transform="translate(423 1990)" fill="#fe5c58" stroke="#707070" stroke-width="1" opacity="0">
      <rect width="60" height="60" stroke="none"/>
      <rect x="0.5" y="0.5" width="59" height="59" fill="none"/>
    </g>
    <g id="Group_37707" data-name="Group 37707" transform="translate(426 1993)">
      <g id="Group_37707-2" data-name="Group 37707" clip-path="url(#clip-path)">
        <path id="Path_105576" data-name="Path 105576" d="M20.462,0c1.034.178,2.079.3,3.1.543A19.106,19.106,0,0,1,38.076,17.12a31.5,31.5,0,0,1,0,3.785.7.7,0,0,0,.417.773c4.943,2.667,9.872,5.361,14.811,8.038a1.06,1.06,0,0,1,.614,1.053q-.02,7.04,0,14.08a1.143,1.143,0,0,1-.679,1.132q-7.359,3.882-14.706,7.787a1.2,1.2,0,0,1-1.361-.048q-7.4-4.713-14.825-9.381a1.008,1.008,0,0,1-.51-.957c.007-1.564,0-3.129,0-4.693v-.552c-1.114.053-2.178.16-3.241.146A19.144,19.144,0,0,1,.311,22.535C.2,21.847.1,21.155,0,20.465V17.828c.105-.707.2-1.415.317-2.12A19.212,19.212,0,0,1,14.672.53C15.678.309,16.7.175,17.719,0Zm1.379,36.4c0-1.95.016-3.847-.009-5.743a1.316,1.316,0,0,1,.816-1.321Q29.34,25.825,36,22.259a.8.8,0,0,0,.366-.5,17.123,17.123,0,0,0-.12-5.977A17.462,17.462,0,0,0,1.711,17.56,16.953,16.953,0,0,0,7.2,31.85,17.283,17.283,0,0,0,21.841,36.4m30.365-4.48c-1.118.608-2.154,1.187-3.207,1.733a.662.662,0,0,0-.4.7c.02,1.282,0,2.565.014,3.848a1.157,1.157,0,0,1-.673,1.144c-1.082.581-2.149,1.19-3.224,1.785-.859.476-1.431.136-1.441-.867-.01-.949,0-1.9,0-2.847,0-.162-.023-.325-.04-.558-1.46.791-2.839,1.553-4.234,2.285a.666.666,0,0,0-.395.7c.012,3.813.007,7.626.009,11.439,0,.146.021.291.036.473.148-.064.246-.1.336-.147q6.442-3.412,12.887-6.819a.589.589,0,0,0,.337-.624q-.01-5.878,0-11.755v-.489M36.942,51.689a1.805,1.805,0,0,0,.046-.239c0-3.938.009-7.876-.014-11.814a.838.838,0,0,0-.4-.573q-6.32-3.591-12.66-7.147c-.115-.065-.242-.109-.39-.175-.014.136-.031.222-.031.308,0,3.569-.008,7.138.014,10.707a.866.866,0,0,0,.367.6c2.819,1.818,5.652,3.615,8.482,5.416l4.586,2.917M24.415,30.266c.15.1.228.16.314.209q6.421,3.62,12.849,7.226a.8.8,0,0,0,.651-.012c1.28-.657,2.544-1.346,3.811-2.027.117-.063.222-.146.37-.244-.215-.12-.38-.215-.547-.306-3.888-2.107-7.8-4.165-11.645-6.353a2.458,2.458,0,0,0-2.977-.014,28.723,28.723,0,0,1-2.825,1.521m9.845-5.253c.065.073.074.09.089.1q6.593,3.621,13.19,7.236a.484.484,0,0,0,.378.053c1.136-.6,2.263-1.221,3.4-1.839-.045-.062-.052-.081-.066-.089Q44.643,26.88,38.03,23.3a.537.537,0,0,0-.429-.015c-1.109.561-2.208,1.141-3.341,1.732m10.75,14.1c.664-.416,1.234-.754,1.777-1.13a.625.625,0,0,0,.161-.452c.013-1.124.021-2.249-.007-3.373a.714.714,0,0,0-.3-.519q-6.911-3.818-13.842-7.6c-.116-.064-.293-.157-.378-.113-.641.33-1.265.691-1.96,1.079.26.148.411.237.564.321q6.627,3.625,13.26,7.24a1.238,1.238,0,0,1,.734,1.259c-.027,1.052-.008,2.106-.008,3.289" fill="#fe5c58"/>
        <path id="Path_105577" data-name="Path 105577" d="M247.813,0a1.114,1.114,0,0,1,.535,1.108q-.016,9.727-.007,19.455v.666c.179-.157.294-.249.4-.352.946-.943,1.887-1.891,2.835-2.831.437-.433.893-.473,1.25-.129.38.367.349.82-.114,1.284q-2.25,2.26-4.511,4.51c-.491.488-.861.481-1.358-.013q-2.26-2.251-4.509-4.512c-.434-.436-.475-.892-.132-1.248s.83-.329,1.287.125c1.032,1.025,2.058,2.056,3.166,3.166V1.642H233.345c-.158,0-.316,0-.474,0-.439.009-.873-.032-1.063-.5A.932.932,0,0,1,232.2,0Z" transform="translate(-199.085)" fill="#fe5c58"/>
        <path id="Path_105578" data-name="Path 105578" d="M100.432,73.554a3.551,3.551,0,0,1-.828-3.417,3.1,3.1,0,0,1,1.98-2.17.561.561,0,0,0,.426-.647c-.016-1.968,0-3.935-.01-5.9,0-.471.126-.84.648-.929.588-.1.964.226.969.865.011,1.441,0,2.881,0,4.322,0,.439.03.881-.008,1.317a.918.918,0,0,0,.65,1.092,3.447,3.447,0,0,1,1.827,4.1,3.293,3.293,0,0,1-3.845,2.247c-.324-.057-.43.1-.563.324-.833,1.424-1.675,2.843-2.514,4.263-.071.121-.138.246-.219.36a.837.837,0,1,1-1.416-.893c.838-1.441,1.691-2.874,2.538-4.31.115-.2.228-.393.362-.624m4.1-2.443a1.723,1.723,0,1,0-1.748,1.711,1.828,1.828,0,0,0,1.748-1.711" transform="translate(-83.665 -51.95)" fill="#fe5c58"/>
        <path id="Path_105579" data-name="Path 105579" d="M36.541,75a2.825,2.825,0,0,1,.505.13c.525.282,1.056.556,1.56.872a.78.78,0,0,1,.306,1.094.819.819,0,0,1-1.13.348c-.531-.269-1.052-.561-1.562-.869a.7.7,0,0,1-.268-.968A2.588,2.588,0,0,1,36.541,75" transform="translate(-30.807 -64.433)" fill="#fe5c58"/>
        <path id="Path_105580" data-name="Path 105580" d="M180.2,36.967a3.491,3.491,0,0,1-.155.474c-.274.509-.541,1.022-.844,1.513a.77.77,0,0,1-1.03.373.779.779,0,0,1-.451-1.044,9.128,9.128,0,0,1,1.005-1.771.977.977,0,0,1,.88-.177c.257.086.424.437.6.631" transform="translate(-152.617 -31.186)" fill="#fe5c58"/>
        <path id="Path_105581" data-name="Path 105581" d="M77.382,212.942a.857.857,0,0,1,.908,1.155,11.248,11.248,0,0,1-.905,1.654.751.751,0,0,1-1.066.236.8.8,0,0,1-.349-1.08,14.414,14.414,0,0,1,.876-1.553,1.817,1.817,0,0,1,.536-.412" transform="translate(-65.187 -182.938)" fill="#fe5c58"/>
        <path id="Path_105582" data-name="Path 105582" d="M37.429,182.035a4.742,4.742,0,0,1-.709-.731.628.628,0,0,1,.219-.883,10.661,10.661,0,0,1,1.8-.965.934.934,0,0,1,.835.294c.154.21.192.776.05.885-.656.5-1.392.9-2.2,1.4" transform="translate(-31.461 -154.151)" fill="#fe5c58"/>
        <path id="Path_105583" data-name="Path 105583" d="M75.637,36.805a1.717,1.717,0,0,1,.488.392,15.845,15.845,0,0,1,.846,1.506.776.776,0,0,1-.27,1.1.836.836,0,0,1-1.149-.287A14.764,14.764,0,0,1,74.717,38c-.287-.608.128-1.223.921-1.2" transform="translate(-64.111 -31.619)" fill="#fe5c58"/>
        <path id="Path_105584" data-name="Path 105584" d="M213.092,77.655c-.437-.12-.743-.246-.86-.648a.754.754,0,0,1,.38-.938c.484-.282.971-.561,1.47-.813a.818.818,0,1,1,.789,1.434c-.582.339-1.185.645-1.778.965" transform="translate(-182.292 -64.55)" fill="#fe5c58"/>
        <path id="Path_105585" data-name="Path 105585" d="M227.594,131.74c-.281,0-.562.013-.842,0a.73.73,0,0,1-.764-.761.766.766,0,0,1,.754-.838c.6-.024,1.193-.024,1.788,0a.8.8,0,0,1,.01,1.589c-.314.024-.631,0-.947,0v0" transform="translate(-194.145 -111.786)" fill="#fe5c58"/>
        <path id="Path_105586" data-name="Path 105586" d="M130.141,227.673c0-.3-.014-.6,0-.893a.711.711,0,0,1,.727-.739.783.783,0,0,1,.857.681,15.015,15.015,0,0,1,0,1.941.69.69,0,0,1-.777.63.718.718,0,0,1-.795-.675,9.378,9.378,0,0,1-.006-.944h-.006" transform="translate(-111.8 -194.189)" fill="#fe5c58"/>
        <path id="Path_105587" data-name="Path 105587" d="M131.71,23.842c0,.263.014.527,0,.789a.732.732,0,0,1-.761.766.77.77,0,0,1-.837-.756c-.025-.6-.026-1.193,0-1.787a.8.8,0,0,1,1.588-.01c.026.331.005.666.005,1Z" transform="translate(-111.76 -19.028)" fill="#fe5c58"/>
        <path id="Path_105588" data-name="Path 105588" d="M23.777,130.167c.28,0,.56-.011.84,0a.732.732,0,0,1,.786.736.808.808,0,0,1-.744.858,17.528,17.528,0,0,1-1.835,0,.693.693,0,0,1-.665-.793.706.706,0,0,1,.674-.788c.312-.03.629-.006.944-.006v-.006" transform="translate(-19.037 -111.823)" fill="#fe5c58"/>
        <path id="Path_105589" data-name="Path 105589" d="M187.485,288.638c-.011.839-.627,1.172-1.227.85-.711-.381-1.4-.8-2.1-1.2q-3.3-1.91-6.606-3.82c-.392-.226-.7-.5-.6-1a.849.849,0,0,1,1.365-.5c1.744,1.014,3.482,2.039,5.222,3.059,1.135.666,2.279,1.316,3.4,2.01a2.52,2.52,0,0,1,.551.6" transform="translate(-152.002 -242.951)" fill="#fe5c58"/>
        <path id="Path_105590" data-name="Path 105590" d="M178.1,258.854a5.306,5.306,0,0,1,.63.244q4.374,2.521,8.743,5.049a.774.774,0,0,1,.426.969,1.111,1.111,0,0,1-.67.553,1.146,1.146,0,0,1-.722-.223q-3.3-1.858-6.584-3.739c-.7-.4-1.407-.788-2.1-1.2a.715.715,0,0,1-.388-.93,3.209,3.209,0,0,1,.664-.721" transform="translate(-152.382 -222.381)" fill="#fe5c58"/>
      </g>
    </g>
  </g>
</svg>
