<svg width="31" height="32" viewBox="0 0 31 32" fill="none" xmlns="http://www.w3.org/2000/svg">
<g clip-path="url(#clip0_14_249)">
<path d="M12.5439 25.9062H10.001C8.40398 25.9062 8.40137 28.4688 10.001 28.4688H12.5439C14.1409 28.4688 14.1435 25.9062 12.5439 25.9062ZM12.5439 27.5312H10.001C9.57047 27.5312 9.57047 26.8438 10.001 26.8438H12.5439C12.9744 26.8438 12.9744 27.5312 12.5439 27.5312Z" fill="black"/>
<path d="M11.1148 18.4999C11.2199 18.5388 11.325 18.5388 11.4301 18.4999C11.4818 18.4801 12.7119 18.0051 13.9578 17.0946C15.6682 15.8446 16.5724 14.3698 16.5724 12.8297C16.5724 11.0031 15.1328 9.51709 13.3633 9.51709C12.5904 9.51709 11.8508 9.80421 11.2725 10.3176C10.6941 9.80421 9.95452 9.51709 9.1817 9.51709C7.41222 9.51709 5.97266 11.0031 5.97266 12.8297C5.97266 14.3698 6.8768 15.8446 8.58725 17.0946C9.833 18.0051 11.063 18.4801 11.1148 18.4999ZM6.88074 12.8297C6.88074 11.52 7.91288 10.4546 9.18158 10.4546C9.85292 10.4546 10.4894 10.757 10.9278 11.2843C11.1575 11.5022 11.3872 11.5022 11.617 11.2843C12.0554 10.757 12.6918 10.4546 13.3632 10.4546C14.6319 10.4546 15.664 11.52 15.664 12.8297C15.664 15.5174 12.0742 17.2108 11.2721 17.5555C10.4689 17.2115 6.88074 15.5231 6.88074 12.8297V12.8297Z" fill="black"/>
<path d="M25.7179 18.8099C25.4036 18.5657 24.945 18.8394 24.9941 19.2427C24.9959 19.2579 25.1565 20.6813 24.2474 21.6759C23.9884 21.5354 23.5501 21.2358 23.1545 20.6677C22.3326 19.4878 22.0609 17.6885 22.3689 15.4644C22.4167 15.1188 22.0795 14.8377 21.7622 14.9583C21.1908 15.1758 20.6383 15.4553 20.1122 15.7894V1.71875C20.1122 0.771 19.3652 0 18.4471 0H4.09753C3.1794 0 2.4325 0.771 2.4325 1.71875V6.02994C2.4325 6.636 3.3407 6.636 3.3407 6.02994V3.81844H19.204V16.4416C18.3053 17.1673 17.5115 18.0631 16.8714 19.0881C15.8789 20.6775 15.3244 22.4677 15.2653 24.2274H3.34082V8.75C3.34082 8.14394 2.43262 8.14394 2.43262 8.75V28.375C2.43262 29.3227 3.17952 30.0938 4.09766 30.0938H17.3264C18.5159 31.3369 20.0935 31.995 21.8998 31.9998C21.9027 31.9998 21.9056 32 21.9085 32C21.9097 32 21.9108 31.9999 21.9119 31.9999C21.9144 31.9999 21.9169 32 21.9194 32C24.1425 32 26.2145 30.8311 27.4622 28.8732C27.7849 28.3669 27.026 27.8516 26.7035 28.3581C26.0948 29.3133 25.2602 30.0513 24.3044 30.5133C24.5075 30.1208 24.623 29.6731 24.623 29.198C24.623 26.9642 22.2911 25.0164 22.1918 24.9345C22.0272 24.7988 21.7939 24.7978 21.6282 24.9319C21.5288 25.0124 19.194 26.9288 19.194 29.1979C19.194 29.6904 19.3181 30.1533 19.5352 30.5559C18.9173 30.2688 18.3621 29.8632 17.886 29.3426C16.9357 28.3035 16.336 26.8446 16.1974 25.2349C16.0347 23.3437 16.5451 21.3411 17.6348 19.5961C18.5816 18.0801 19.8928 16.8752 21.3793 16.1419C21.1981 18.3047 21.5617 20.0306 22.4634 21.2803C23.2505 22.371 24.1719 22.6661 24.2107 22.6781C24.3582 22.7237 24.5177 22.6893 24.635 22.5866C25.4601 21.8639 25.7622 20.9172 25.8651 20.1963C27.2886 21.7323 27.9528 24.0522 27.5383 26.2524C27.4263 26.8474 28.3177 27.0264 28.4299 26.4314C28.9716 23.5557 27.8817 20.4929 25.7179 18.8099V18.8099ZM3.34082 2.88094V1.71875C3.34082 1.28794 3.68031 0.9375 4.09766 0.9375H18.4473C18.8646 0.9375 19.2041 1.28794 19.2041 1.71875V2.88094H3.34082ZM20.1022 29.1979C20.1022 27.7982 21.3363 26.4645 21.9064 25.9232C22.4768 26.4715 23.7148 27.8203 23.7148 29.1979C23.7148 30.2243 22.9073 31.0595 21.9136 31.0624C21.883 31.0624 21.853 31.0607 21.8226 31.0602C20.8664 31.0138 20.1022 30.1964 20.1022 29.1979ZM16.582 29.1562H4.09766C3.68031 29.1562 3.34082 28.8058 3.34082 28.375V25.1649H15.2813C15.3784 26.5768 15.8064 27.9829 16.582 29.1562Z" fill="black"/>
</g>
<defs>
<clipPath id="clip0_14_249">
<rect width="31" height="32" fill="white"/>
</clipPath>
</defs>
</svg>
