<svg xmlns="http://www.w3.org/2000/svg" width="32" height="21.979" viewBox="0 0 32 21.979">
  <g id="Group_37829" data-name="Group 37829" transform="translate(0 -80.164)">
    <path id="Path_105654" data-name="Path 105654" d="M421.768,384.777a.494.494,0,0,0,0,.989h.005a.494.494,0,0,0-.005-.989Z" transform="translate(-395.255 -285.736)"/>
    <path id="Path_105655" data-name="Path 105655" d="M173.268,384.777a.494.494,0,1,0,0,.989h.005a.494.494,0,0,0-.005-.989Z" transform="translate(-161.994 -285.736)"/>
    <path id="Path_105656" data-name="Path 105656" d="M121.489,184.6l-1.581-1.13-.023-4.782a1.25,1.25,0,0,0-1.305-1.271h-3.838a.91.91,0,0,0-.165-.715.9.9,0,0,0-.72-.342h-3.446a.494.494,0,1,0,0,.989h3.33L110.324,190.1h-7.509a2.014,2.014,0,0,0-2.114-2.114,3.441,3.441,0,0,0-3.033,2.114H95.494l.966-3.605a.494.494,0,0,0-.955-.256l-.991,3.7a.924.924,0,0,0,.145.809.9.9,0,0,0,.72.342h2.075a2.014,2.014,0,0,0,2.114,2.114,3.441,3.441,0,0,0,3.033-2.114h11.235a2.014,2.014,0,0,0,2.114,2.114,3.441,3.441,0,0,0,3.033-2.114h.175a1.975,1.975,0,0,0,1.818-1.423l.972-3.629a1.3,1.3,0,0,0-.46-1.436Zm-19.718,5.867a2.474,2.474,0,0,1-2.2,1.747,1.117,1.117,0,0,1-.917-.4,1.234,1.234,0,0,1-.153-1.092,2.474,2.474,0,0,1,2.2-1.747,1.117,1.117,0,0,1,.917.4A1.235,1.235,0,0,1,101.771,190.465Zm17.147-7.237h-3.2a.324.324,0,0,1-.262-.1.386.386,0,0,1-.034-.331l.425-1.585a.986.986,0,0,1,.863-.69h2.2Zm-.765,7.237a2.474,2.474,0,0,1-2.2,1.747,1.117,1.117,0,0,1-.917-.4,1.234,1.234,0,0,1-.153-1.092,2.474,2.474,0,0,1,2.2-1.747,1.117,1.117,0,0,1,.917.4A1.235,1.235,0,0,1,118.153,190.465Zm1.869-1.057a1,1,0,0,1-.824.688,2.014,2.014,0,0,0-2.115-2.112,3.441,3.441,0,0,0-3.033,2.114h-2.7l.868-3.239h5.962a.494.494,0,1,0,0-.989h-5.7l2-7.467h4.1c.144,0,.315.05.317.287l0,.838h-2.194a1.975,1.975,0,0,0-1.818,1.423l-.425,1.585a1.357,1.357,0,0,0,.2,1.189,1.3,1.3,0,0,0,1.047.49h3.541l1.658,1.185c.141.1.1.313.08.376l-.025.092h-.678a.494.494,0,1,0,0,.989h.413Z" transform="translate(-90.004 -91.057)"/>
    <path id="Path_105657" data-name="Path 105657" d="M80.038,95.95a7.893,7.893,0,1,0-7.893-7.893A7.9,7.9,0,0,0,80.038,95.95Zm0-14.8a6.9,6.9,0,1,1-6.9,6.9A6.912,6.912,0,0,1,80.038,81.153Z" transform="translate(-67.389)"/>
    <path id="Path_105658" data-name="Path 105658" d="M152.8,143.08a.493.493,0,0,0,.35-.145l1.074-1.074a1.55,1.55,0,0,0,2.079-2.079l2.66-2.66a.494.494,0,0,0-.7-.7l-2.66,2.66a1.55,1.55,0,0,0-2.079,2.079l-1.074,1.074a.494.494,0,0,0,.35.844Zm2.114-3.171a.562.562,0,1,1-.562.562A.563.563,0,0,1,154.915,139.909Z" transform="translate(-142.919 -52.687)"/>
    <path id="Path_105659" data-name="Path 105659" d="M184.865,113.745a.494.494,0,0,0,.494-.494v-.528a.494.494,0,1,0-.989,0v.528A.494.494,0,0,0,184.865,113.745Z" transform="translate(-172.867 -29.95)"/>
    <path id="Path_105660" data-name="Path 105660" d="M184.865,264.535a.494.494,0,0,0-.494.494v.528a.494.494,0,1,0,.989,0v-.528A.494.494,0,0,0,184.865,264.535Z" transform="translate(-172.867 -172.892)"/>
    <path id="Path_105661" data-name="Path 105661" d="M257.01,193.379h.528a.494.494,0,1,0,0-.989h-.528a.494.494,0,1,0,0,.989Z" transform="translate(-240.525 -105.229)"/>
    <path id="Path_105662" data-name="Path 105662" d="M105.727,192.884a.494.494,0,0,0-.494-.494H104.7a.494.494,0,1,0,0,.989h.528A.494.494,0,0,0,105.727,192.884Z" transform="translate(-97.714 -105.229)"/>
    <path id="Path_105663" data-name="Path 105663" d="M5.779,296.6H.494a.494.494,0,1,0,0,.989H5.779a.494.494,0,1,0,0-.989Z" transform="translate(0 -202.941)"/>
    <path id="Path_105664" data-name="Path 105664" d="M27.713,328.664H24.542a.494.494,0,1,0,0,.989h3.171a.494.494,0,1,0,0-.989Z" transform="translate(-22.463 -233.007)"/>
    <path id="Path_105665" data-name="Path 105665" d="M49.648,360.728H48.591a.494.494,0,1,0,0,.989h1.057a.494.494,0,1,0,0-.989Z" transform="translate(-44.926 -263.072)"/>
  </g>
</svg>
