<svg id="Group_37923" data-name="Group 37923" xmlns="http://www.w3.org/2000/svg" width="60" height="60" viewBox="0 0 60 60">
  <path id="Path_105726" data-name="Path 105726" d="M33.813,6.529a.938.938,0,0,1-.937.938H30.938V9.4a.937.937,0,1,1-1.875,0V7.466H27.125a.938.938,0,0,1,0-1.875h1.938V3.653a.938.938,0,0,1,1.875,0V5.591h1.938a.937.937,0,0,1,.938.938ZM60,22.711v2.93a.938.938,0,0,1-.937.938h-1V55.2h1a.938.938,0,0,1,.938.938v2.93a.938.938,0,0,1-.937.938H.938A.938.938,0,0,1,0,59.062v-2.93A.938.938,0,0,1,.938,55.2h1V26.578h-1A.938.938,0,0,1,0,25.641v-2.93a.938.938,0,0,1,.938-.937H15.176V15.9h-2.7a.938.938,0,0,1-.937-.938v-2.93a.938.938,0,0,1,.938-.938h8.672V.937A.938.938,0,0,1,22.09,0H37.91a.938.938,0,0,1,.938.938V11.094H47.52a.938.938,0,0,1,.938.938v2.93a.938.938,0,0,1-.937.938h-2.7v5.874H59.063a.938.938,0,0,1,.938.938ZM23.027,11.094H36.973V1.875H23.027Zm-9.609,2.93H46.582V12.969H13.418ZM17.051,15.9V55.2h6.381v-14.1a.938.938,0,0,1,.938-.937H35.631a.938.938,0,0,1,.938.938V55.2h6.381V15.9ZM34.693,42.032H25.307V55.2h9.387ZM1.875,24.7h13.3V23.648H1.875ZM3.808,55.2H15.176V26.578H3.808ZM58.125,57.07H1.875v1.055h56.25ZM56.192,26.578H44.824V55.2H56.193V26.578Zm1.933-2.93h-13.3V24.7h13.3ZM17.953,26.071V20.516a.938.938,0,0,1,.938-.937h5.555a.938.938,0,0,1,.938.938v5.555a.938.938,0,0,1-.938.938H18.891A.937.937,0,0,1,17.953,26.071Zm1.875-.938h3.68v-3.68h-3.68Zm6.457.938V20.516a.938.938,0,0,1,.938-.937h5.555a.938.938,0,0,1,.938.938v5.555a.938.938,0,0,1-.937.938H27.223A.937.937,0,0,1,26.285,26.071Zm1.875-.938h3.68v-3.68H28.16Zm6.457.938V20.516a.938.938,0,0,1,.938-.937h5.555a.938.938,0,0,1,.938.938v5.555a.938.938,0,0,1-.937.938H35.555A.937.937,0,0,1,34.617,26.071Zm1.875-.938h3.68v-3.68h-3.68ZM7.284,28.527a.938.938,0,0,0-.938.938v4.1a.938.938,0,1,0,1.875,0v-4.1a.937.937,0,0,0-.937-.937Zm4.414,0a.938.938,0,0,0-.938.938v4.1a.938.938,0,0,0,1.875,0v-4.1a.937.937,0,0,0-.937-.937ZM7.284,36.613a.938.938,0,0,0-.938.938v4.1a.938.938,0,1,0,1.875,0v-4.1A.937.937,0,0,0,7.284,36.613Zm4.414,0a.938.938,0,0,0-.938.938v4.1a.938.938,0,0,0,1.875,0v-4.1A.937.937,0,0,0,11.7,36.613ZM48.3,34.5a.938.938,0,0,0,.938-.937v-4.1a.937.937,0,0,0-1.875,0v4.1A.937.937,0,0,0,48.3,34.5Zm4.414,0a.938.938,0,0,0,.938-.937v-4.1a.938.938,0,0,0-1.875,0v4.1A.937.937,0,0,0,52.716,34.5ZM48.3,42.589a.938.938,0,0,0,.938-.937v-4.1a.937.937,0,0,0-1.875,0v4.1A.938.938,0,0,0,48.3,42.589Zm4.414,0a.938.938,0,0,0,.938-.937v-4.1a.938.938,0,0,0-1.875,0v4.1A.938.938,0,0,0,52.716,42.589Z"/>
</svg>
