<svg xmlns="http://www.w3.org/2000/svg" width="32" height="30.546" viewBox="0 0 32 30.546">
  <g id="Group_38018" data-name="Group 38018" transform="translate(-4.001 -6)">
    <path id="Refund" d="M20.728,6a15.278,15.278,0,0,0-13.8,8.727h-2.2a.727.727,0,0,0-.651,1.052L6.986,21.6a.727.727,0,0,0,1.3,0L11.2,15.78a.728.728,0,0,0-.651-1.053H8.559a13.818,13.818,0,1,1-.643,11.722.727.727,0,1,0-1.348.545A15.273,15.273,0,1,0,20.728,6ZM7.637,19.647,5.9,16.182H9.369Zm16,3.081a2.184,2.184,0,0,1-2.182,2.182V26A.727.727,0,1,1,20,26V24.909H18.91a.727.727,0,1,1,0-1.455h2.545a.727.727,0,0,0,0-1.455H20a2.182,2.182,0,1,1,0-4.364V16.546a.727.727,0,1,1,1.455,0v1.091h1.091a.727.727,0,1,1,0,1.455H20a.727.727,0,1,0,0,1.455h1.455A2.184,2.184,0,0,1,23.637,22.727Zm-2.909,6.909a8.364,8.364,0,1,1,8.364-8.364A8.373,8.373,0,0,1,20.728,29.637Zm0-15.273a6.909,6.909,0,1,0,6.909,6.909A6.917,6.917,0,0,0,20.728,14.364Z"/>
  </g>
</svg>
