<svg xmlns="http://www.w3.org/2000/svg" width="32.611" height="32.565" viewBox="0 0 32.611 32.565">
  <g id="Group_37821" data-name="Group 37821" transform="translate(-15.61 -15.729)">
    <g id="Outline" transform="translate(15.971 15.994)">
      <path id="Path_105593" data-name="Path 105593" d="M44.767,33.2l-2.637-.375-1.624-.661V30.923a5.3,5.3,0,0,0,2.107-3.73h.027a2.133,2.133,0,0,0,.581-4.185,2.124,2.124,0,0,0-.047-1.241v-2.04a3.733,3.733,0,0,0-3.733-3.733H35.172a3.733,3.733,0,0,0-3.733,3.733v2.04a2.124,2.124,0,0,0-.047,1.241,2.133,2.133,0,0,0,.581,4.185H32a5.3,5.3,0,0,0,2.107,3.731V32.19l-1.653.793-2.865.611a3.765,3.765,0,0,0-2.926,3.257,6.455,6.455,0,0,0-1.088-.8V27.932a6.383,6.383,0,0,0,2.885-7.512.533.533,0,0,0-.882-.213l-3.442,3.416a.773.773,0,0,1-.544.221.756.756,0,0,1-.53-.222l-1.915-1.915a.756.756,0,0,1-.222-.529.772.772,0,0,1,.219-.542l3.418-3.445a.533.533,0,0,0-.213-.883,6.4,6.4,0,0,0-5.173,11.623v8.123a6.383,6.383,0,0,0-2.885,7.512.533.533,0,0,0,.882.213l3.442-3.416a.773.773,0,0,1,.544-.221.756.756,0,0,1,.53.222L23.6,42.279a.756.756,0,0,1,.222.53.772.772,0,0,1-.219.542L20.186,46.8a.533.533,0,0,0,.213.883A6.456,6.456,0,0,0,26.789,46.2a2.671,2.671,0,0,0,2.517,1.788h1.6c.037,0,5.866-1.226,5.866-1.226v1.226h1.067V46.769L43.6,47.981a.538.538,0,0,0,.11.011h1.6a2.67,2.67,0,0,0,2.667-2.667V36.9A3.759,3.759,0,0,0,44.767,33.2Zm-7.461,5.735-.768-2.146h1.533Zm-2.133-7.393a5.306,5.306,0,0,0,4.266,0v.9l-1.023,3.281H36.2l-1.023-3.281Zm4.14,4.889,1-3.2,1.12.456-.318,3.82-1.8-1.026.017-.047Zm.185-13.15a13.3,13.3,0,0,0-4.384,0l-1.463.244a1.085,1.085,0,0,1-1.26-1.135H42.22a1.085,1.085,0,0,1-1.26,1.135Zm-.592-1.958h-3.2V20.26h3.2Zm4.8,3.733a1.069,1.069,0,0,1-1.067,1.067V24l.007-.006A1.068,1.068,0,0,1,43.705,25.06Zm-11.2-5.333a2.667,2.667,0,0,1,2.667-2.667h4.266a2.667,2.667,0,0,1,2.667,2.667v1.6H39.972v-1.6a.533.533,0,0,0-.533-.533H35.172a.533.533,0,0,0-.533.533v1.6H32.506Zm-1.287,6.086a1.065,1.065,0,0,1,.748-1.82l.005.005v2.128A1.074,1.074,0,0,1,31.219,25.813Zm1.82.847V24.568a2.17,2.17,0,0,0,.787.013l.326-.054a.8.8,0,1,0,1.381-.228,12.234,12.234,0,0,1,3.544,0,.8.8,0,1,0,1.381.228l.326.054a2.737,2.737,0,0,0,.787-.013V26.66a4.266,4.266,0,1,1-8.533,0Zm1.274,6.614.985,3.158-.02.007.018.05-1.8,1.026-.309-3.7Zm-4.5,1.363,2.338-.5.358,4.3a.533.533,0,0,0,.283.428,1.017,1.017,0,0,0,.513-.009l2.359-1.348,1.11,3.11v1.219L33.7,41.6l-2.262-.969V38.393H30.372v1.782l-.323-.139a.533.533,0,0,0-.21-.043H27.706V37.246A2.687,2.687,0,0,1,29.812,34.637ZM23.035,46.887a5.391,5.391,0,0,1-1.421-.016L24.365,44.1a1.835,1.835,0,0,0,.525-1.29,1.805,1.805,0,0,0-.535-1.284L22.441,39.61a1.805,1.805,0,0,0-1.284-.535,1.837,1.837,0,0,0-1.293.528l-2.769,2.748a5.324,5.324,0,0,1,2.855-5.505.533.533,0,0,0,.291-.475V27.615a.533.533,0,0,0-.29-.475,5.329,5.329,0,0,1,3.183-10.025l-2.751,2.772a1.835,1.835,0,0,0-.525,1.29,1.805,1.805,0,0,0,.535,1.284l1.915,1.915a1.805,1.805,0,0,0,1.284.535,1.837,1.837,0,0,0,1.293-.528l2.77-2.748A5.324,5.324,0,0,1,24.8,27.14a.533.533,0,0,0-.291.475v8.757a.533.533,0,0,0,.29.475A5.4,5.4,0,0,1,26.639,38.4v6.365a5.349,5.349,0,0,1-3.6,2.121Zm7.815.039H29.306a1.6,1.6,0,0,1-1.6-1.6v-.533h1.912l.91.91a.533.533,0,0,0,.377.156h2.611l1.2.252Zm16.055-1.6a1.6,1.6,0,0,1-1.6,1.6H43.761L33.682,44.8c-.036-.008-2.556-.011-2.556-.011l-.91-.91a.533.533,0,0,0-.377-.156H27.706V41.059H29.73s3.743,1.594,3.8,1.6L46.9,43.686Zm0-2.709-4.8-.369,2.772-1.188H46.9Zm0-2.624H44.772a4.487,4.487,0,0,0-.533.182V38.393H43.172v1.6H38.905v1.067h3.27L40.91,41.6l-3.071.237v-1.22l1.11-3.11,2.359,1.348a.533.533,0,0,0,.8-.419l.373-4.482,2.138.3A2.686,2.686,0,0,1,46.9,36.9Z" transform="translate(-15.971 -15.994)" stroke="#fff" stroke-width="0.5"/>
      <rect id="Rectangle_12560" data-name="Rectangle 12560" width="1.534" height="1.534" transform="translate(18.385 23.111)" stroke="#fff" stroke-width="0.5"/>
      <path id="Path_105594" data-name="Path 105594" d="M316.854,181.41l-.172-.609-2.234-.141h-.094l-2.125.141v-.766l-.156,1.375,2.281.594A8.461,8.461,0,0,0,316.854,181.41Z" transform="translate(-293.279 -169.079)" stroke="#fff" stroke-width="0.5"/>
      <path id="Path_105595" data-name="Path 105595" d="M313.954,181.41l-.068-.609-.879-.141h-.037l-.836.141v-.766l-.061,1.375.9.594C313.4,182.005,313.45,181.723,313.954,181.41Z" transform="translate(-291.829 -170.079)" stroke="#fff" stroke-width="0.5"/>
      <rect id="Rectangle_12561" data-name="Rectangle 12561" width="1.534" height="10.582" rx="0.767" transform="translate(5.78 10.708)" stroke="#fff" stroke-width="1"/>
    </g>
  </g>
</svg>
