<svg width="32" height="32" viewBox="0 0 32 32" fill="none" xmlns="http://www.w3.org/2000/svg">
<path d="M13.5 3.19092V8.80892L19.118 5.99992L13.5 3.19092ZM14.5 4.80892L16.882 5.99992L14.5 7.19092V4.80892Z" fill="black"/>
<path d="M30 5.5H21.4745C21.221 2.701 18.864 0.5 16 0.5C13.136 0.5 10.779 2.701 10.5255 5.5H2C1.173 5.5 0.5 6.173 0.5 7V30C0.5 30.827 1.173 31.5 2 31.5H30C30.827 31.5 31.5 30.827 31.5 30V7C31.5 6.173 30.827 5.5 30 5.5ZM16 1.5C18.4815 1.5 20.5 3.5185 20.5 6C20.5 8.4815 18.4815 10.5 16 10.5C13.5185 10.5 11.5 8.4815 11.5 6C11.5 3.5185 13.5185 1.5 16 1.5ZM2 6.5H10.5255C10.779 9.299 13.136 11.5 16 11.5C18.864 11.5 21.221 9.299 21.4745 6.5H30C30.276 6.5 30.5 6.724 30.5 7V22.5H14.5V19C14.5 16.8105 12.9275 14.9835 10.853 14.5835C11.5555 13.943 12 13.0235 12 12C12 10.0705 10.4295 8.5 8.5 8.5C6.5705 8.5 5 10.0705 5 12C5 13.0235 5.4445 13.943 6.147 14.5835C4.0725 14.9835 2.5 16.8105 2.5 19V22.5H1.5V7C1.5 6.724 1.724 6.5 2 6.5V6.5ZM11 17.5V22.5H6V17.5H5V22.5H3.5V19C3.5 17.0705 5.0705 15.5 7 15.5H7.3535L6.9815 19.6885L8.5 21.207L10.0185 19.6885L9.646 15.5H10C11.9295 15.5 13.5 17.0705 13.5 19V22.5H12V17.5H11ZM8.9815 19.3115L8.5 19.793L8.0185 19.3115L8.3575 15.5H8.5H8.6425L8.9815 19.3115ZM8.5 14.5C7.1215 14.5 6 13.3785 6 12C6 10.6215 7.1215 9.5 8.5 9.5C9.8785 9.5 11 10.6215 11 12C11 13.3785 9.8785 14.5 8.5 14.5ZM30 30.5H2C1.724 30.5 1.5 30.276 1.5 30V23.5H30.5V30C30.5 30.276 30.276 30.5 30 30.5Z" fill="black"/>
<path d="M10 27.5C10.2761 27.5 10.5 27.2761 10.5 27C10.5 26.7239 10.2761 26.5 10 26.5C9.72386 26.5 9.5 26.7239 9.5 27C9.5 27.2761 9.72386 27.5 10 27.5Z" fill="black"/>
<path d="M28 25.5H11.987C11.53 24.8965 10.813 24.5 10 24.5C9.187 24.5 8.4695 24.8965 8.013 25.5H4C3.173 25.5 2.5 26.173 2.5 27C2.5 27.827 3.173 28.5 4 28.5H8.013C8.47 29.1035 9.187 29.5 10 29.5C10.813 29.5 11.5305 29.1035 11.987 28.5H28C28.827 28.5 29.5 27.827 29.5 27C29.5 26.173 28.827 25.5 28 25.5ZM4 27.5C3.724 27.5 3.5 27.276 3.5 27C3.5 26.724 3.724 26.5 4 26.5H7.5505C7.5175 26.6615 7.5 26.829 7.5 27C7.5 27.171 7.5175 27.3385 7.5505 27.5H4ZM10 28.5C9.173 28.5 8.5 27.827 8.5 27C8.5 26.173 9.173 25.5 10 25.5C10.827 25.5 11.5 26.173 11.5 27C11.5 27.827 10.827 28.5 10 28.5ZM28 27.5H12.4495C12.4825 27.3385 12.5 27.171 12.5 27C12.5 26.829 12.4825 26.6615 12.4495 26.5H28C28.276 26.5 28.5 26.724 28.5 27C28.5 27.276 28.276 27.5 28 27.5Z" fill="black"/>
<path d="M20 21.5H28C28.827 21.5 29.5 20.827 29.5 20V14C29.5 13.173 28.827 12.5 28 12.5H20C19.173 12.5 18.5 13.173 18.5 14V20C18.5 20.827 19.173 21.5 20 21.5ZM19.5 14C19.5 13.724 19.724 13.5 20 13.5H28C28.276 13.5 28.5 13.724 28.5 14V20C28.5 20.276 28.276 20.5 28 20.5H20C19.724 20.5 19.5 20.276 19.5 20V14Z" fill="black"/>
<path d="M20.5 14.5H27.5V15.5H20.5V14.5Z" fill="black"/>
<path d="M20.5 16.5H27.5V17.5H20.5V16.5Z" fill="black"/>
<path d="M26.5 18.5H27.5V19.5H26.5V18.5Z" fill="black"/>
<path d="M20.5 18.5H25.5V19.5H20.5V18.5Z" fill="black"/>
<path d="M2.5 7.5H3.5V8.5H2.5V7.5Z" fill="black"/>
<path d="M2.5 9.5H3.5V10.5H2.5V9.5Z" fill="black"/>
<path d="M2.5 11.5H3.5V12.5H2.5V11.5Z" fill="black"/>
</svg>
