<svg xmlns="http://www.w3.org/2000/svg" width="32" height="31.995" viewBox="0 0 32 31.995">
  <g id="Group_37998" data-name="Group 37998" transform="translate(0.009)">
    <path id="Path_105967" data-name="Path 105967" d="M1.6,31.995h14.4a.528.528,0,0,0,.222-.053,1.055,1.055,0,0,0,.311.053H30.39a.533.533,0,0,0,.533-.489l1.019-12.221a1.066,1.066,0,0,0-1.065-1.154H20.749a1.072,1.072,0,0,0-1.062.978l-.147,1.76a4.344,4.344,0,0,0-1.158-1.277,11.307,11.307,0,0,0,.981-.693.985.985,0,0,0,.35-.913.928.928,0,0,0-.576-.731A2.923,2.923,0,0,1,17.593,14.4V7.513A7.5,7.5,0,0,0,15.411,2.2,7.412,7.412,0,0,0,10.127,0,7.5,7.5,0,0,0,2.662,7.513V14.4a2.919,2.919,0,0,1-1.538,2.853.929.929,0,0,0-.583.733.983.983,0,0,0,.348.911,11.32,11.32,0,0,0,.984.7A4.869,4.869,0,0,0,0,23.657V30.4a1.6,1.6,0,0,0,1.6,1.6Zm4.13-12.4,1.416-.707,2.453,7.856V30.05l-2.5-8.1a.975.975,0,0,0-.9-.624H4.859ZM3.866,7.991a.4.4,0,0,1,.187-.053.193.193,0,0,1,.1.023.926.926,0,0,1,.388.651.747.747,0,0,0,.848.619c.873-.136,3.812-.767,4.982-3.185a.346.346,0,0,1,.4-.17c.73.185,3.159.894,3.757,2.279a.747.747,0,0,0,.647.453.718.718,0,0,0,.682-.373.732.732,0,0,1,.259-.272.3.3,0,0,1,.275.025c.032.019.136.085.136.183,0,1.341-.012,1.645-.358,2.224a.989.989,0,0,1-.643.437.972.972,0,0,0-.743.9,5.013,5.013,0,0,1-1.743,3.507l-.618.506-.006,0-1.084.886a1.94,1.94,0,0,1-2.409,0l-1.083-.886-.005,0-.619-.506a5.013,5.013,0,0,1-1.743-3.508.972.972,0,0,0-.743-.895.989.989,0,0,1-.643-.437A4.387,4.387,0,0,1,3.728,8.17a.242.242,0,0,1,.138-.18Zm10.665,11.6L15.4,21.33H14.065a.986.986,0,0,0-.915.659l-2.49,8.062V26.745l2.453-7.857ZM8.246,17.455a2.956,2.956,0,0,0,3.76,0l.253-.206v.8l-2.133,6.826L7.994,18.049v-.8ZM18.7,30.928H16.526v-1.6h2.309ZM30.878,19.2,29.9,30.928H19.772L20.749,19.2ZM19.192,23.655v1.389l-.267,3.218h-2.4a1.066,1.066,0,0,0-1.066,1.066v1.6H11.506L14.137,22.4h1.418a.967.967,0,0,0,.808-.434.981.981,0,0,0,.069-.946L15.8,19.749A3.608,3.608,0,0,1,19.192,23.655Zm-.624-5.489A12.371,12.371,0,0,1,17.3,19a5.454,5.454,0,0,0-1.933-.338h-.311L13.327,17.8V16.377l.388-.317a6.1,6.1,0,0,0,2.128-4.209,2.207,2.207,0,0,0,.684-.317V14.4A4.063,4.063,0,0,0,18.568,18.166Zm-8.441-17.1a6.35,6.35,0,0,1,4.527,1.885A6.423,6.423,0,0,1,16.5,6.909a1.283,1.283,0,0,0-.933.141,1.748,1.748,0,0,0-.3.23c-.927-1.415-3-2.128-4.231-2.438a1.418,1.418,0,0,0-1.619.74C8.565,7.333,6.4,7.943,5.518,8.125a1.883,1.883,0,0,0-.813-1.074,1.3,1.3,0,0,0-.948-.14,6.425,6.425,0,0,1,6.37-5.844Zm-8.441,17.1A4.06,4.06,0,0,0,3.728,14.4V11.534a2.2,2.2,0,0,0,.684.317A6.1,6.1,0,0,0,6.54,16.06l.388.317V17.8L5.2,18.664h-.31A5.46,5.46,0,0,0,2.958,19a12.357,12.357,0,0,1-1.271-.836Zm-.624,5.491a3.61,3.61,0,0,1,3.394-3.907l-.648,1.3A.968.968,0,0,0,4.7,22.4H6.117l2.632,8.532H1.6a.533.533,0,0,1-.533-.533Z" transform="translate(0 0)"/>
    <path id="Path_105968" data-name="Path 105968" d="M45.855,45.328a2.55,2.55,0,0,0,2.441-2.07,1.948,1.948,0,0,0-.4-1.6A1.879,1.879,0,0,0,46.427,41a2.55,2.55,0,0,0-2.441,2.07,1.948,1.948,0,0,0,.4,1.6A1.879,1.879,0,0,0,45.855,45.328Zm-.8-2.07a1.481,1.481,0,0,1,1.377-1.176.819.819,0,0,1,.642.273.866.866,0,0,1,.162.715,1.481,1.481,0,0,1-1.377,1.176.819.819,0,0,1-.642-.273.866.866,0,0,1-.162-.715Z" transform="translate(-20.642 -19.185)"/>
    <path id="Path_105969" data-name="Path 105969" d="M47.9,0H37.082A1.082,1.082,0,0,0,36,1.082V10.82A1.082,1.082,0,0,0,37.082,11.9h2.033l2.229,2.225a1.608,1.608,0,0,0,2.293,0L45.869,11.9H47.9a1.082,1.082,0,0,0,1.082-1.082V1.082A1.082,1.082,0,0,0,47.9,0Zm0,10.82H45.646a.541.541,0,0,0-.382.158l-2.393,2.389a.537.537,0,0,1-.757,0l-2.391-2.386a.541.541,0,0,0-.384-.161H37.082V1.082H47.9Z" transform="translate(-16.993 0)"/>
    <path id="Path_105970" data-name="Path 105970" d="M40.541,11.574h7.574a.541.541,0,1,0,0-1.082h-.541V7.246a.541.541,0,1,0-1.082,0v3.246H45.41V6.164a.541.541,0,1,0-1.082,0v4.328H43.246V8.328a.541.541,0,0,0-1.082,0v2.164H41.082V4.541a.541.541,0,1,0-1.082,0v6.492A.541.541,0,0,0,40.541,11.574Z" transform="translate(-18.829 -1.836)"/>
    <path id="Path_105971" data-name="Path 105971" d="M46.7,51H44.541a.541.541,0,1,0,0,1.082H46.7A.541.541,0,1,0,46.7,51Z" transform="translate(-20.579 -23.874)"/>
  </g>
</svg>
