<svg xmlns="http://www.w3.org/2000/svg" width="32" height="32.007" viewBox="0 0 32 32.007">
  <g id="Group_37996" data-name="Group 37996" transform="translate(0 0)">
    <g id="Group_37995" data-name="Group 37995">
      <path id="Path_105962" data-name="Path 105962" d="M29.751,334.909,21.6,337.773a1.093,1.093,0,0,1-.371.061H21.1a2.271,2.271,0,0,0-.208-1.728l-.042-.076a2.729,2.729,0,0,0-2.354-1.384h-2.3a3.392,3.392,0,0,1-2.168-.8,4.463,4.463,0,0,0-2.852-1.044H10.9a8.015,8.015,0,0,0-4.633,1.531,1.066,1.066,0,0,0-.878-.464H1.121a1.069,1.069,0,0,0-1.067,1.068v7.475a1.069,1.069,0,0,0,1.067,1.068H5.387a1.06,1.06,0,0,0,.82-.393,5.348,5.348,0,0,0,3.291.927H21.082a3.554,3.554,0,0,0,1.9-.556l8.257-5.3a1.817,1.817,0,0,0,.785-1.182,1.877,1.877,0,0,0-.308-1.434A1.726,1.726,0,0,0,29.751,334.909Zm-24.364,7.5H1.121v-7.475H5.387v7.475Zm25.585-5.635a.735.735,0,0,1-.316.485l-8.252,5.294a2.485,2.485,0,0,1-1.323.389H9.5c-2.039,0-2.833-.8-3.044-1.075v-6.194c1.3-1.778,4.413-1.807,4.444-1.807h.27a3.394,3.394,0,0,1,2.168.8,4.458,4.458,0,0,0,2.852,1.052h2.3a1.634,1.634,0,0,1,1.423.837l.042.076a1.192,1.192,0,0,1-.027,1.208H17.306a4.358,4.358,0,0,0-2.5.8l-.32.225a.534.534,0,1,0,.612.874l.319-.224a3.3,3.3,0,0,1,1.892-.607h3.918a2.156,2.156,0,0,0,.731-.124l8.144-2.861a.651.651,0,0,1,.745.246A.8.8,0,0,1,30.972,336.775Z" transform="translate(-0.054 -312.011)"/>
      <path id="Path_105963" data-name="Path 105963" d="M34.676,444.9a.563.563,0,0,0,.379-.155.617.617,0,0,0,.112-.176.535.535,0,0,0,.043-.2.534.534,0,0,0-.913-.379.534.534,0,0,0,.379.913Z" transform="translate(-32.006 -416.103)"/>
      <path id="Path_105964" data-name="Path 105964" d="M334.456,54.4a1.6,1.6,0,1,0-1.6-1.6A1.6,1.6,0,0,0,334.456,54.4Zm0-2.136a.534.534,0,1,1-.534.534A.534.534,0,0,1,334.456,52.268Z" transform="translate(-312.057 -47.997)"/>
      <path id="Path_105965" data-name="Path 105965" d="M316.321,128.009h4.271a.534.534,0,0,0,.534-.534v-2.136a.534.534,0,0,0-.534-.534h-.534V120a.534.534,0,0,0-.534-.534h-3.2a.534.534,0,0,0-.534.534v2.136a.534.534,0,0,0,.534.534h.534v2.136h-.534a.534.534,0,0,0-.534.534v2.136a.534.534,0,0,0,.534.534Zm.534-2.136h.534a.534.534,0,0,0,.534-.534v-3.2a.534.534,0,0,0-.534-.534h-.534v-1.068h2.136v4.805a.534.534,0,0,0,.534.534h.534v1.068h-3.2Z" transform="translate(-296.058 -112.002)"/>
      <path id="Path_105966" data-name="Path 105966" d="M208.583,17.214v3.075a.534.534,0,0,0,.866.418l2.348-1.86a9.624,9.624,0,1,0-3.214-1.633ZM206.857,5.728a8.534,8.534,0,1,1,4.992,12.018.537.537,0,0,0-.5.09l-1.7,1.349V16.947a.533.533,0,0,0-.221-.432A8.539,8.539,0,0,1,206.857,5.728Z" transform="translate(-192.066 0)"/>
    </g>
  </g>
</svg>
