<svg width="32" height="32" viewBox="0 0 32 32" fill="none" xmlns="http://www.w3.org/2000/svg">
<path d="M9.00003 29.9998H8.10003C7.49896 29.9972 6.91875 29.7791 6.46466 29.3853C6.01058 28.9915 5.71268 28.448 5.62503 27.8533L4.28103 18.4288C4.2622 18.2975 4.19196 18.179 4.08577 18.0994C3.97957 18.0199 3.84613 17.9857 3.71478 18.0046C3.58343 18.0234 3.46494 18.0936 3.38538 18.1998C3.30582 18.306 3.2717 18.4395 3.29053 18.5708L4.63653 27.9948C4.75919 28.8271 5.17602 29.5878 5.81144 30.1391C6.44686 30.6904 7.25879 30.9958 8.10003 30.9998H9.00003C9.13264 30.9998 9.25981 30.9472 9.35358 30.8534C9.44735 30.7596 9.50003 30.6324 9.50003 30.4998C9.50003 30.3672 9.44735 30.24 9.35358 30.1463C9.25981 30.0525 9.13264 29.9998 9.00003 29.9998Z" fill="black"/>
<path d="M15 25C14.8674 25 14.7402 25.0527 14.6464 25.1464C14.5527 25.2402 14.5 25.3674 14.5 25.5V27.5C14.5 27.8978 14.658 28.2794 14.9393 28.5607C15.2206 28.842 15.6022 29 16 29C16.3978 29 16.7794 28.842 17.0607 28.5607C17.342 28.2794 17.5 27.8978 17.5 27.5V21.5C17.5 21.1022 17.342 20.7206 17.0607 20.4393C16.7794 20.158 16.3978 20 16 20C15.6022 20 15.2206 20.158 14.9393 20.4393C14.658 20.7206 14.5 21.1022 14.5 21.5V23.5C14.5 23.6326 14.5527 23.7598 14.6464 23.8536C14.7402 23.9473 14.8674 24 15 24C15.1326 24 15.2598 23.9473 15.3536 23.8536C15.4473 23.7598 15.5 23.6326 15.5 23.5V21.5C15.5 21.3674 15.5527 21.2402 15.6464 21.1464C15.7402 21.0527 15.8674 21 16 21C16.1326 21 16.2598 21.0527 16.3536 21.1464C16.4473 21.2402 16.5 21.3674 16.5 21.5V27.5C16.5 27.6326 16.4473 27.7598 16.3536 27.8536C16.2598 27.9473 16.1326 28 16 28C15.8674 28 15.7402 27.9473 15.6464 27.8536C15.5527 27.7598 15.5 27.6326 15.5 27.5V25.5C15.5 25.3674 15.4473 25.2402 15.3536 25.1464C15.2598 25.0527 15.1326 25 15 25Z" fill="black"/>
<path d="M8 20C7.60218 20 7.22064 20.158 6.93934 20.4393C6.65804 20.7206 6.5 21.1022 6.5 21.5V27.5C6.5 27.8978 6.65804 28.2794 6.93934 28.5607C7.22064 28.842 7.60218 29 8 29C8.39782 29 8.77936 28.842 9.06066 28.5607C9.34196 28.2794 9.5 27.8978 9.5 27.5V21.5C9.5 21.1022 9.34196 20.7206 9.06066 20.4393C8.77936 20.158 8.39782 20 8 20ZM8.5 27.5C8.5 27.6326 8.44732 27.7598 8.35355 27.8536C8.25979 27.9473 8.13261 28 8 28C7.86739 28 7.74021 27.9473 7.64645 27.8536C7.55268 27.7598 7.5 27.6326 7.5 27.5V21.5C7.5 21.3674 7.55268 21.2402 7.64645 21.1464C7.74021 21.0527 7.86739 21 8 21C8.13261 21 8.25979 21.0527 8.35355 21.1464C8.44732 21.2402 8.5 21.3674 8.5 21.5V27.5Z" fill="black"/>
<path d="M10.5 21.5V27.5C10.5 27.8978 10.658 28.2794 10.9393 28.5607C11.2206 28.842 11.6022 29 12 29C12.3978 29 12.7794 28.842 13.0607 28.5607C13.342 28.2794 13.5 27.8978 13.5 27.5V21.5C13.5 21.1022 13.342 20.7206 13.0607 20.4393C12.7794 20.158 12.3978 20 12 20C11.6022 20 11.2206 20.158 10.9393 20.4393C10.658 20.7206 10.5 21.1022 10.5 21.5V21.5ZM12.5 21.5V27.5C12.5 27.6326 12.4473 27.7598 12.3536 27.8536C12.2598 27.9473 12.1326 28 12 28C11.8674 28 11.7402 27.9473 11.6464 27.8536C11.5527 27.7598 11.5 27.6326 11.5 27.5V21.5C11.5 21.3674 11.5527 21.2402 11.6464 21.1464C11.7402 21.0527 11.8674 21 12 21C12.1326 21 12.2598 21.0527 12.3536 21.1464C12.4473 21.2402 12.5 21.3674 12.5 21.5Z" fill="black"/>
<path d="M23 19C23.1326 19 23.2598 18.9473 23.3536 18.8536C23.4473 18.7598 23.5 18.6326 23.5 18.5C23.5 18.3674 23.4473 18.2402 23.3536 18.1464C23.2598 18.0527 23.1326 18 23 18H19.5C19.3674 18 19.2402 18.0527 19.1464 18.1464C19.0527 18.2402 19 18.3674 19 18.5C19 18.6326 19.0527 18.7598 19.1464 18.8536C19.2402 18.9473 19.3674 19 19.5 19H23Z" fill="black"/>
<path d="M12.5 18H6.5C6.36739 18 6.24021 18.0527 6.14645 18.1464C6.05268 18.2402 6 18.3674 6 18.5C6 18.6326 6.05268 18.7598 6.14645 18.8536C6.24021 18.9473 6.36739 19 6.5 19H12.5C12.6326 19 12.7598 18.9473 12.8536 18.8536C12.9473 18.7598 13 18.6326 13 18.5C13 18.3674 12.9473 18.2402 12.8536 18.1464C12.7598 18.0527 12.6326 18 12.5 18Z" fill="black"/>
<path d="M28.9625 21.5184C29.2828 21.288 29.5438 20.985 29.7242 20.6341C29.9046 20.2832 29.9991 19.8945 30 19.4999C30 19.3673 29.9473 19.2401 29.8536 19.1464C29.7598 19.0526 29.6326 18.9999 29.5 18.9999H28.65L28.936 16.9999H29.5C29.8978 16.9999 30.2794 16.8419 30.5607 16.5606C30.842 16.2793 31 15.8977 31 15.4999C31 15.1021 30.842 14.7206 30.5607 14.4393C30.2794 14.158 29.8978 13.9999 29.5 13.9999H26.386L26.8075 13.0379C27.1483 13.303 27.5682 13.446 28 13.4439C28.4402 13.4434 28.868 13.298 29.2172 13.03C29.5664 12.762 29.8176 12.3865 29.932 11.9614C29.9837 11.7698 30.0053 11.5712 29.996 11.3729C30.2702 11.2169 30.5033 10.9978 30.676 10.7338C30.8487 10.4697 30.9561 10.1684 30.9892 9.85465C31.0223 9.5409 30.9803 9.22378 30.8665 8.92951C30.7528 8.63525 30.5706 8.3723 30.335 8.16242C30.4558 7.94906 30.5495 7.72147 30.614 7.48492C30.7474 6.98109 30.748 6.45127 30.6157 5.94715C30.4834 5.44302 30.2227 4.98179 29.859 4.60842C29.813 4.56148 29.7583 4.52404 29.6978 4.49826C29.6374 4.47247 29.5725 4.45884 29.5068 4.45815C29.4411 4.45745 29.3759 4.4697 29.315 4.4942C29.254 4.5187 29.1984 4.55496 29.1515 4.60092C29.1046 4.64689 29.0671 4.70165 29.0413 4.76208C29.0155 4.82251 29.0019 4.88742 29.0012 4.95312C29.0005 5.01882 29.0128 5.08401 29.0373 5.14497C29.0618 5.20594 29.098 5.26148 29.144 5.30842C29.378 5.54641 29.5487 5.83929 29.6402 6.16027C29.7318 6.48126 29.7413 6.82008 29.6681 7.14572C29.5948 7.47136 29.441 7.77341 29.2208 8.02424C29.0006 8.27506 28.7209 8.46664 28.4075 8.58142C28.3136 8.61603 28.2322 8.67805 28.1739 8.75943C28.1156 8.84082 28.083 8.93784 28.0805 9.03792C28.0793 9.1545 28.064 9.27051 28.035 9.38342C27.951 9.70079 27.7648 9.98166 27.5052 10.1827C27.2456 10.3836 26.9271 10.4936 26.5988 10.4954C26.2705 10.4973 25.9507 10.391 25.6889 10.193C25.427 9.99503 25.2376 9.71631 25.15 9.39992C25.15 9.39592 25.145 9.39292 25.1435 9.38842C25.0559 9.0694 25.0762 8.73036 25.2012 8.42407C25.3263 8.11778 25.5491 7.86143 25.835 7.69492C25.9489 7.62815 26.0318 7.51903 26.0655 7.39138C26.0993 7.26374 26.0812 7.12792 26.0151 7.01358C25.9491 6.89923 25.8406 6.81564 25.7131 6.78105C25.5857 6.74646 25.4498 6.76367 25.335 6.82892C24.9266 7.06681 24.5939 7.41544 24.3754 7.83449C24.1568 8.25354 24.0613 8.72589 24.1 9.19692C23.8777 9.24687 23.6466 9.24223 23.4265 9.18342C23.2203 9.12802 23.0285 9.02851 22.8645 8.89177C22.7005 8.75503 22.5681 8.58432 22.4765 8.39142C22.473 8.38392 22.4655 8.37942 22.4615 8.37242C22.3615 8.16327 22.3117 7.9337 22.316 7.70192C22.3175 7.63622 22.306 7.57087 22.2821 7.50961C22.2583 7.44836 22.2227 7.3924 22.1772 7.34494C22.1317 7.29748 22.0774 7.25945 22.0172 7.23302C21.957 7.20659 21.8922 7.19229 21.8265 7.19092C21.6948 7.19105 21.5683 7.24196 21.4732 7.33304C21.3781 7.42413 21.3218 7.54838 21.316 7.67992C21.3124 7.91175 21.341 8.14295 21.401 8.36692C21.1216 8.4693 20.8176 8.48327 20.53 8.40692C20.2214 8.32412 19.9478 8.14383 19.75 7.89292L19.747 7.88692L19.7435 7.88392C19.5872 7.68919 19.4825 7.45816 19.4392 7.21223C19.3959 6.96629 19.4154 6.71341 19.4958 6.47699C19.5762 6.24058 19.715 6.02828 19.8992 5.85975C20.0835 5.69123 20.3074 5.57194 20.55 5.51292C20.6447 5.48868 20.7302 5.43721 20.796 5.36487C20.8618 5.29254 20.9049 5.20251 20.92 5.10592L20.933 5.01042C20.9366 4.97225 20.9427 4.93435 20.951 4.89692C21.0434 4.55582 21.2247 4.24537 21.4764 3.99729C21.7281 3.74921 22.0411 3.5724 22.3835 3.48492C22.2593 4.1772 22.3844 4.89109 22.7365 5.49992C22.7691 5.55725 22.8127 5.60756 22.8648 5.64796C22.9169 5.68836 22.9765 5.71805 23.0402 5.73533C23.1038 5.75261 23.1702 5.75713 23.2356 5.74863C23.301 5.74013 23.3641 5.71878 23.4212 5.68581C23.4783 5.65284 23.5283 5.60889 23.5683 5.55651C23.6084 5.50413 23.6377 5.44435 23.6545 5.3806C23.6714 5.31685 23.6755 5.25039 23.6665 5.18506C23.6576 5.11973 23.6358 5.05681 23.6025 4.99992C23.4403 4.71987 23.349 4.40446 23.3365 4.0811C23.3239 3.75774 23.3905 3.4362 23.5305 3.14442L23.533 3.14042C23.7335 2.71755 24.0762 2.37864 24.5014 2.18297C24.9265 1.98731 25.4069 1.94737 25.8584 2.07013C26.31 2.19289 26.7041 2.47054 26.9716 2.85449C27.2392 3.23845 27.3632 3.70426 27.322 4.17042C27.3136 4.30082 27.3566 4.42932 27.4418 4.52842C27.5269 4.62752 27.6475 4.68934 27.7777 4.70064C27.9079 4.71195 28.0373 4.67184 28.1383 4.58891C28.2393 4.50598 28.3038 4.38682 28.318 4.25692C28.3771 3.58567 28.208 2.91411 27.838 2.35088C27.4681 1.78765 26.919 1.36567 26.2795 1.15321C25.6401 0.940742 24.9476 0.950211 24.3142 1.18008C23.6807 1.40995 23.1434 1.84679 22.789 2.41992C22.1458 2.44023 21.5262 2.66708 21.0219 3.0669C20.5176 3.46672 20.1554 4.01827 19.989 4.63992V4.64842C19.6637 4.77722 19.3694 4.97351 19.1255 5.22435C18.8816 5.47519 18.6937 5.77488 18.574 6.10366C18.4544 6.43244 18.4058 6.78284 18.4315 7.13176C18.4572 7.48068 18.5565 7.8202 18.723 8.12792C18.6144 8.25824 18.5231 8.40211 18.4515 8.55592L18.0225 7.64592C17.8571 7.29587 17.621 6.98385 17.3291 6.72949C17.0373 6.47512 16.6959 6.28392 16.3265 6.16792C16.1916 6.12685 16.0536 6.09626 15.914 6.07642L15.75 3.40292C15.742 3.27032 15.6817 3.1463 15.5823 3.05816C15.4829 2.97002 15.3526 2.92497 15.22 2.93292C15.0874 2.94088 14.9634 3.00119 14.8752 3.10058C14.7871 3.19998 14.742 3.33032 14.75 3.46292L14.908 6.10142C14.7447 6.13702 14.5849 6.18722 14.4305 6.25142L13.75 3.86242C13.7135 3.73486 13.6279 3.627 13.5119 3.56258C13.3959 3.49816 13.2591 3.48246 13.1315 3.51892C13.0039 3.55539 12.8961 3.64104 12.8317 3.75703C12.7672 3.87302 12.7515 4.00986 12.788 4.13742L12.805 4.19642L12.762 4.15242C12.6698 4.05708 12.5436 4.00225 12.411 4C12.2784 3.99775 12.1503 4.04826 12.055 4.14042L10.5735 5.57342C10.5196 5.62547 10.4781 5.68895 10.4521 5.75919C10.426 5.82942 10.4161 5.90461 10.423 5.97921C10.4299 6.0538 10.4535 6.12589 10.492 6.19014C10.5305 6.25439 10.583 6.30917 10.6455 6.35042L12.8805 7.82592C12.8278 7.95658 12.7853 8.09116 12.7535 8.22842C12.6911 8.50819 12.6722 8.7959 12.6975 9.08142C11.9663 9.21515 11.2793 9.5272 10.6975 9.98992L10.354 9.64642C10.2597 9.55535 10.1334 9.50495 10.0023 9.50609C9.8712 9.50723 9.74579 9.55981 9.65309 9.65252C9.56039 9.74522 9.5078 9.87063 9.50666 10.0017C9.50552 10.1328 9.55592 10.2591 9.647 10.3534L9.6815 10.3879C9.28303 10.483 8.91404 10.6745 8.60697 10.9457C8.2999 11.2168 8.06416 11.5593 7.9205 11.9429L7.863 12.0959L6.67 11.6829C6.60783 11.6609 6.54192 11.6515 6.47607 11.6551C6.41022 11.6586 6.34573 11.6752 6.28632 11.7038C6.22691 11.7325 6.17374 11.7726 6.12989 11.8218C6.08603 11.8711 6.05235 11.9285 6.03078 11.9908C6.00922 12.0531 6.0002 12.1191 6.00423 12.1849C6.00827 12.2507 6.02529 12.3151 6.05431 12.3743C6.08333 12.4336 6.12378 12.4865 6.17332 12.53C6.22287 12.5735 6.28053 12.6068 6.343 12.6279L16.393 16.1069C16.5184 16.1503 16.6214 16.2417 16.6794 16.361C16.7374 16.4803 16.7456 16.6178 16.7022 16.7432C16.6589 16.8686 16.5675 16.9716 16.4482 17.0296C16.3289 17.0876 16.1914 17.0958 16.066 17.0524L2.837 12.4729C2.7433 12.4408 2.66126 12.3815 2.60129 12.3026C2.54133 12.2238 2.50614 12.1289 2.5002 12.03C2.49425 11.9311 2.51781 11.8327 2.5679 11.7472C2.61798 11.6617 2.69233 11.5931 2.7815 11.5499C2.84045 11.5209 2.9046 11.5039 2.97018 11.5C3.03577 11.496 3.10149 11.5052 3.1635 11.5269L4.452 11.9729C4.51448 11.9964 4.58102 12.0071 4.64772 12.0045C4.71441 12.0019 4.7799 11.9859 4.84032 11.9575C4.90074 11.9292 4.95488 11.889 4.99953 11.8394C5.04419 11.7898 5.07846 11.7318 5.10033 11.6687C5.12219 11.6056 5.13121 11.5388 5.12685 11.4722C5.12249 11.4056 5.10484 11.3406 5.07494 11.2809C5.04504 11.2212 5.00349 11.1681 4.95275 11.1248C4.90201 11.0814 4.8431 11.0487 4.7795 11.0284L3.4905 10.5824C3.30367 10.5152 3.10536 10.4857 2.90706 10.4957C2.70876 10.5057 2.51441 10.555 2.3353 10.6407C2.15618 10.7264 1.99586 10.8468 1.86363 10.9949C1.7314 11.143 1.62989 11.3159 1.56499 11.5035C1.50009 11.6912 1.47309 11.8898 1.48556 12.088C1.49803 12.2862 1.54972 12.4799 1.63762 12.6579C1.72553 12.836 1.84791 12.9948 1.99766 13.1251C2.14741 13.2555 2.32156 13.3549 2.51 13.4174L4.192 13.9999H2.5C2.10218 13.9999 1.72064 14.158 1.43934 14.4393C1.15804 14.7206 1 15.1021 1 15.4999C1 15.8977 1.15804 16.2793 1.43934 16.5606C1.72064 16.8419 2.10218 16.9999 2.5 16.9999H12.858L15.7395 17.9974C15.926 18.0634 16.1237 18.0918 16.3213 18.081C16.5188 18.0703 16.7123 18.0205 16.8905 17.9347C17.0688 17.8488 17.2283 17.7285 17.3598 17.5808C17.4914 17.433 17.5925 17.2607 17.6571 17.0738C17.7218 16.8868 17.7489 16.6889 17.7368 16.4914C17.7247 16.294 17.6736 16.1008 17.5866 15.9232C17.4995 15.7455 17.3782 15.5868 17.2295 15.4563C17.0809 15.3257 16.9079 15.2259 16.7205 15.1624L16.25 14.9999H29.5C29.6326 14.9999 29.7598 15.0526 29.8536 15.1464C29.9473 15.2401 30 15.3673 30 15.4999C30 15.6325 29.9473 15.7597 29.8536 15.8535C29.7598 15.9472 29.6326 15.9999 29.5 15.9999H19.226C19.0934 15.9999 18.9662 16.0526 18.8724 16.1464C18.7787 16.2401 18.726 16.3673 18.726 16.4999C18.726 16.6325 18.7787 16.7597 18.8724 16.8535C18.9662 16.9472 19.0934 16.9999 19.226 16.9999H27.926L27.6155 19.1704C27.3404 19.2765 27.0865 19.4308 26.8655 19.6259L26.8745 19.5539C26.8989 19.3595 26.8816 19.162 26.8237 18.9748C26.7659 18.7875 26.6688 18.6148 26.539 18.4679C26.4056 18.327 26.2449 18.2147 26.0667 18.138C25.8885 18.0613 25.6965 18.0217 25.5025 18.0217C25.3085 18.0217 25.1165 18.0613 24.9383 18.138C24.7601 18.2147 24.5994 18.327 24.466 18.4679C24.3362 18.6148 24.2391 18.7875 24.1813 18.9748C24.1234 19.162 24.1061 19.3595 24.1305 19.5539L24.314 21.0214C24.207 21.0124 24.1025 20.9999 24 20.9999C23.0903 20.9996 22.2079 21.311 21.5 21.8824V21.4999C21.5 21.1021 21.342 20.7206 21.0607 20.4393C20.7794 20.158 20.3978 19.9999 20 19.9999C19.6022 19.9999 19.2206 20.158 18.9393 20.4393C18.658 20.7206 18.5 21.1021 18.5 21.4999V27.4999C18.4989 27.7918 18.5833 28.0776 18.7428 28.3221C18.9023 28.5665 19.1298 28.759 19.3974 28.8756C19.665 28.9922 19.9609 29.0279 20.2485 28.9783C20.5361 28.9287 20.8029 28.7959 21.016 28.5964C21.2804 29.1058 21.6113 29.5777 22 29.9999H11C10.8674 29.9999 10.7402 30.0526 10.6464 30.1464C10.5527 30.2401 10.5 30.3673 10.5 30.4999C10.5 30.6325 10.5527 30.7597 10.6464 30.8535C10.7402 30.9472 10.8674 30.9999 11 30.9999H23.9C23.9167 31.0008 23.9333 31.0008 23.95 30.9999C23.968 30.9999 23.9865 31.0024 24 31.0024C24.5145 31.0028 25.024 30.9026 25.5 30.7074C25.9762 30.9018 26.4857 31.0011 27 30.9999C27.9 30.9999 28.781 30.4134 29.5445 29.3039C29.6196 29.1946 29.6482 29.0599 29.624 28.9295C29.5999 28.799 29.5248 28.6835 29.4155 28.6084C29.3062 28.5333 29.1715 28.5047 29.041 28.5289C28.9106 28.5531 28.7951 28.6281 28.72 28.7374C28.1605 29.5499 27.55 29.9999 27 29.9999C26.5552 29.9998 26.116 29.8999 25.715 29.7074C25.6478 29.6754 25.5744 29.6588 25.5 29.6588C25.4256 29.6588 25.3522 29.6754 25.285 29.7074C24.8872 29.8983 24.4518 29.9983 24.0105 29.9999C23.997 29.9999 23.9845 29.9974 23.9715 29.9969C22.464 29.9574 21 26.8249 21 24.9999C21.0008 24.2045 21.3171 23.4419 21.8796 22.8795C22.442 22.317 23.2046 22.0007 24 21.9999C24.147 22.0012 24.2936 22.0141 24.4385 22.0384L24.442 22.0664C24.4747 22.3239 24.6002 22.5607 24.795 22.7323C24.9898 22.9039 25.2404 22.9985 25.5 22.9985C25.7596 22.9985 26.0102 22.9039 26.205 22.7323C26.3998 22.5607 26.5253 22.3239 26.558 22.0664L26.5615 22.0389C26.7064 22.0144 26.853 22.0013 27 21.9999C27.7954 22.0007 28.558 22.317 29.1204 22.8795C29.6829 23.4419 29.9992 24.2045 30 24.9999C29.9705 25.7073 29.8246 26.405 29.568 27.0649C29.5431 27.127 29.531 27.1935 29.5322 27.2604C29.5335 27.3273 29.5482 27.3933 29.5754 27.4544C29.6027 27.5155 29.6419 27.5705 29.6908 27.6162C29.7397 27.6619 29.7972 27.6973 29.8601 27.7203C29.9229 27.7433 29.9897 27.7535 30.0565 27.7503C30.1234 27.747 30.1889 27.7304 30.2491 27.7013C30.3094 27.6723 30.3633 27.6314 30.4075 27.5812C30.4517 27.531 30.4853 27.4724 30.5065 27.4089C30.8052 26.6394 30.9721 25.825 31 24.9999C30.9993 24.2911 30.8103 23.5953 30.4523 22.9835C30.0942 22.3718 29.5801 21.8662 28.9625 21.5184V21.5184ZM2.5 15.9999C2.36739 15.9999 2.24021 15.9472 2.14645 15.8535C2.05268 15.7597 2 15.6325 2 15.4999C2 15.3673 2.05268 15.2401 2.14645 15.1464C2.24021 15.0526 2.36739 14.9999 2.5 14.9999H7.0805L9.9695 15.9999H2.5ZM29 9.64143C29.0213 9.55824 29.038 9.47394 29.05 9.38892C29.288 9.26869 29.5089 9.11736 29.707 8.93892C29.8283 9.06022 29.9162 9.21087 29.962 9.37619C30.0078 9.54152 30.01 9.7159 29.9684 9.88234C29.9269 10.0488 29.8429 10.2016 29.7247 10.326C29.6065 10.4503 29.4581 10.5419 29.294 10.5919C29.1714 10.6302 29.0682 10.7141 29.0059 10.8264C28.9435 10.9387 28.9267 11.0706 28.959 11.1949C29.0045 11.3607 29.0059 11.5355 28.963 11.7019C28.929 11.8288 28.8703 11.9477 28.7904 12.0519C28.7104 12.1561 28.6107 12.2435 28.4969 12.3092C28.3832 12.3748 28.2576 12.4174 28.1274 12.4345C27.9972 12.4517 27.8649 12.443 27.738 12.4089C27.5364 12.3551 27.3574 12.2378 27.2275 12.0744L27.5725 11.2874C27.6617 11.2495 27.7487 11.2064 27.833 11.1584C28.1181 10.9952 28.3681 10.7771 28.5684 10.5168C28.7687 10.2564 28.9154 9.95886 29 9.64143V9.64143ZM26.396 11.4824L25.2865 13.9999H22.1365L22.2495 13.5779C22.2695 13.5037 22.272 13.4258 22.257 13.3504L21.463 9.39242C21.5954 9.36207 21.7252 9.3211 21.851 9.26993C22.1161 9.61014 22.4652 9.8755 22.864 10.0399L23.4805 13.0529C23.5016 13.1557 23.5544 13.2492 23.6316 13.3203C23.7088 13.3914 23.8063 13.4364 23.9105 13.4489C23.9302 13.4513 23.9501 13.4525 23.97 13.4524C24.0648 13.4525 24.1576 13.4257 24.2377 13.3751C24.3179 13.3244 24.3819 13.2521 24.4225 13.1664L25.3665 11.1689C25.6791 11.3542 26.0317 11.4617 26.3945 11.4824H26.396ZM24.3825 10.1644C24.4435 10.2734 24.5125 10.3777 24.589 10.4764L24.1605 11.3824L23.924 10.2259C24.0783 10.2198 24.2316 10.1992 24.382 10.1644H24.3825ZM20.4465 9.40492L20.626 10.2984C20.4312 10.3776 20.216 10.3918 20.0125 10.3389C19.8856 10.3049 19.7667 10.2463 19.6625 10.1663C19.5583 10.0863 19.4709 9.98663 19.4053 9.87287C19.3396 9.75912 19.297 9.63354 19.2799 9.50332C19.2628 9.3731 19.2715 9.24078 19.3055 9.11392C19.3267 9.05124 19.3544 8.99092 19.388 8.93392C19.6501 9.13804 19.9505 9.28734 20.2715 9.37292C20.3295 9.38842 20.3885 9.39342 20.4465 9.40492V9.40492ZM19.754 11.3049C19.922 11.3499 20.0951 11.3727 20.269 11.3729C20.4571 11.3711 20.644 11.3423 20.824 11.2874L21.2545 13.4324L21.1025 13.9999H21.013L19.74 11.2999L19.754 11.3049ZM19.9075 13.9999H18.92C18.9547 13.9901 18.9882 13.9765 19.02 13.9594L19.7045 13.5644L19.9075 13.9999ZM16.4745 7.34492L15.951 7.64492C15.8937 7.67752 15.8434 7.72112 15.803 7.77324C15.7626 7.82535 15.7329 7.88494 15.7156 7.94858C15.6983 8.01221 15.6938 8.07864 15.7023 8.14403C15.7108 8.20942 15.7321 8.27248 15.7651 8.32959C15.7981 8.38669 15.842 8.43671 15.8944 8.47677C15.9468 8.51682 16.0066 8.54612 16.0703 8.56297C16.1341 8.57983 16.2005 8.58391 16.2659 8.57497C16.3312 8.56604 16.3941 8.54427 16.451 8.51092L17.1355 8.11592L17.777 9.47742L17.201 9.80993C17.1437 9.84252 17.0934 9.88612 17.053 9.93824C17.0126 9.99035 16.9829 10.0499 16.9656 10.1136C16.9483 10.1772 16.9438 10.2436 16.9523 10.309C16.9608 10.3744 16.9821 10.4375 17.0151 10.4946C17.0481 10.5517 17.092 10.6017 17.1444 10.6418C17.1968 10.6818 17.2566 10.7111 17.3203 10.728C17.3841 10.7448 17.4505 10.7489 17.5159 10.74C17.5812 10.731 17.6441 10.7093 17.701 10.6759L18.205 10.3854L19.2745 12.6544L18.518 13.0914C18.4338 13.1395 18.3656 13.2111 18.3216 13.2975C18.2776 13.3838 18.2598 13.4812 18.2705 13.5775C18.2811 13.6738 18.3197 13.7649 18.3814 13.8396C18.4432 13.9143 18.5254 13.9694 18.618 13.9979H16.875L16.325 13.2034L17.5865 12.4754C17.7014 12.4091 17.7853 12.2999 17.8196 12.1718C17.854 12.0436 17.8361 11.9071 17.7698 11.7922C17.7034 11.6773 17.5942 11.5934 17.4661 11.559C17.3379 11.5247 17.2014 11.5426 17.0865 11.6089L15.75 12.3809L14.893 11.1449L15.9 10.5624C16.0149 10.4961 16.0988 10.3869 16.1331 10.2588C16.1675 10.1306 16.1496 9.99408 16.0833 9.87917C16.0169 9.76427 15.9077 9.68041 15.7796 9.64604C15.6514 9.61168 15.5149 9.62962 15.4 9.69592L14.3185 10.3204L14.004 9.86642C13.7899 9.5582 13.6774 9.19075 13.6824 8.81548C13.6874 8.4402 13.8096 8.07588 14.0318 7.77345C14.2541 7.47103 14.5653 7.24565 14.922 7.12883C15.2786 7.01201 15.6629 7.00959 16.021 7.12192C16.1819 7.17456 16.3346 7.24963 16.4745 7.34492V7.34492ZM11.7155 5.85942L12.39 5.20942L13.39 6.24142L13.5555 6.81992C13.503 6.86992 13.451 6.91992 13.4055 6.97442L11.7155 5.85942ZM8.8565 12.2929C8.96456 12.002 9.16047 11.7519 9.41705 11.5773C9.67364 11.4026 9.9782 11.3122 10.2885 11.3184L10.1435 11.7064C10.0673 11.9079 9.94779 12.0902 9.79351 12.2405C9.63923 12.3908 9.45387 12.5055 9.2505 12.5764L8.808 12.4234L8.8565 12.2929ZM10.4535 12.9929C10.7315 12.7332 10.9459 12.4129 11.08 12.0569L11.154 11.8569C11.25 11.9414 11.3746 11.9858 11.5024 11.9812C11.6301 11.9766 11.7512 11.9232 11.8408 11.8321C11.9304 11.7409 11.9817 11.6189 11.9842 11.4911C11.9866 11.3633 11.9401 11.2394 11.854 11.1449L11.416 10.7069C11.8707 10.365 12.4034 10.1416 12.966 10.0569C13.0281 10.1891 13.1007 10.3162 13.183 10.4369L15.6575 13.9999H13.363L10.4535 12.9929ZM20.5 27.4999C20.5 27.6325 20.4473 27.7597 20.3536 27.8535C20.2598 27.9472 20.1326 27.9999 20 27.9999C19.8674 27.9999 19.7402 27.9472 19.6464 27.8535C19.5527 27.7597 19.5 27.6325 19.5 27.4999V21.4999C19.5 21.3673 19.5527 21.2401 19.6464 21.1464C19.7402 21.0526 19.8674 20.9999 20 20.9999C20.1326 20.9999 20.2598 21.0526 20.3536 21.1464C20.4473 21.2401 20.5 21.3673 20.5 21.4999V23.0679C20.1715 23.6588 19.9994 24.3239 20 24.9999C20.0307 25.8568 20.2071 26.7022 20.5215 27.4999H20.5ZM28.5 19.9999H28.9145C28.8107 20.2922 28.619 20.5452 28.3658 20.7242C28.1126 20.9032 27.8101 20.9995 27.5 20.9999H27.0855C27.1893 20.7077 27.381 20.4547 27.6342 20.2756C27.8874 20.0966 28.1899 20.0003 28.5 19.9999V19.9999ZM25.434 21.9419L25.12 19.4299C25.1132 19.376 25.118 19.3213 25.134 19.2693C25.15 19.2174 25.1768 19.1695 25.2128 19.1287C25.2487 19.088 25.2929 19.0554 25.3424 19.033C25.392 19.0106 25.4457 18.9991 25.5 18.9991C25.5543 18.9991 25.608 19.0106 25.6576 19.033C25.7071 19.0554 25.7513 19.088 25.7872 19.1287C25.8232 19.1695 25.85 19.2174 25.866 19.2693C25.882 19.3213 25.8868 19.376 25.88 19.4299L25.566 21.9414C25.562 21.9559 25.5535 21.9686 25.5416 21.9777C25.5297 21.9868 25.5152 21.9918 25.5002 21.9918C25.4852 21.9919 25.4706 21.987 25.4587 21.978C25.4467 21.969 25.4381 21.9563 25.434 21.9419V21.9419Z" fill="black"/>
<path d="M27.7 23.0938C27.642 23.063 27.5784 23.044 27.513 23.0379C27.4477 23.0317 27.3817 23.0384 27.3189 23.0578C27.2562 23.0771 27.1978 23.1086 27.1472 23.1504C27.0966 23.1923 27.0547 23.2437 27.024 23.3018C26.9933 23.3598 26.9743 23.4233 26.9681 23.4887C26.9619 23.5541 26.9687 23.6201 26.988 23.6828C27.0073 23.7456 27.0388 23.804 27.0807 23.8546C27.1225 23.9052 27.174 23.947 27.232 23.9778C27.5321 24.1362 27.7624 24.4007 27.878 24.7198C27.8991 24.7831 27.9327 24.8416 27.9768 24.8918C28.0209 24.9419 28.0746 24.9827 28.1348 25.0118C28.1949 25.0409 28.2603 25.0576 28.327 25.061C28.3937 25.0643 28.4604 25.0543 28.5231 25.0315C28.5859 25.0087 28.6435 24.9735 28.6924 24.9281C28.7414 24.8827 28.7807 24.8279 28.8082 24.767C28.8356 24.7061 28.8506 24.6404 28.8522 24.5736C28.8538 24.5068 28.842 24.4404 28.8175 24.3783C28.6174 23.8262 28.2191 23.3683 27.7 23.0938V23.0938Z" fill="black"/>
</svg>
