<svg id="Group_37698" data-name="Group 37698" xmlns="http://www.w3.org/2000/svg" xmlns:xlink="http://www.w3.org/1999/xlink" width="24.544" height="32" viewBox="0 0 24.544 32">
  <defs>
    <clipPath id="clip-path">
      <rect id="Rectangle_12579" data-name="Rectangle 12579" width="24.544" height="32"/>
    </clipPath>
  </defs>
  <g id="Group_37698-2" data-name="Group 37698" clip-path="url(#clip-path)">
    <path id="Path_105502" data-name="Path 105502" d="M4.269,108.99a6.992,6.992,0,0,1-1.054-.508,2.111,2.111,0,0,1-.9-1.611c-.016-.176-.019-.354-.019-.53q0-3.625,0-7.249v-.383c-.2-.045-.382-.076-.559-.127a2.414,2.414,0,0,1,.283-4.7c.238-.036.281-.123.28-.334-.007-1.5,0-3,0-4.5a2.189,2.189,0,0,1,.015-.343.428.428,0,0,1,.447-.4.426.426,0,0,1,.457.384,1.947,1.947,0,0,1,.017.342q0,2.2,0,4.406v.368c.651,0,1.266.042,1.872-.013a1.016,1.016,0,0,0,.856-1.042,2.037,2.037,0,0,1,1.523-1.978,3.166,3.166,0,0,1,.773-.079q6.047-.007,12.095,0h.426V88.238H10.855c-.094,0-.188.005-.281,0A.466.466,0,1,1,10.6,87.3c.093-.006.187,0,.281,0h9.909c.007-.123.018-.232.019-.341,0-.823,0-1.646,0-2.468a.444.444,0,0,1,.429-.485.424.424,0,0,1,.479.356,1.529,1.529,0,0,1,.024.341c0,.739,0,1.479,0,2.219V87.3c.242,0,.457,0,.673,0a2.163,2.163,0,0,1,.023,4.325c-.216.007-.433,0-.7,0v3.32c.237,0,.451,0,.665,0a1.092,1.092,0,0,1,1.181,1.193q0,3.031,0,6.062a1.072,1.072,0,0,1-1.164,1.168c-.207,0-.414,0-.657,0-.009.127-.023.235-.023.344,0,.9,0,1.791,0,2.687a2.352,2.352,0,0,1-1.923,2.548c-.018.005-.032.025-.048.038ZM20.786,91.648c-.083-.008-.124-.016-.165-.016q-6.266,0-12.532,0A1.114,1.114,0,0,0,6.9,92.806a1.885,1.885,0,0,1-1.155,1.75,3.893,3.893,0,0,1-1.211.218c-.42.035-.846.008-1.276.008v2.96h9.078a1.541,1.541,0,0,1,.312.01.44.44,0,0,1,.391.484.433.433,0,0,1-.409.436,2.147,2.147,0,0,1-.312.007H3.256v1.477H10.92c.541,0,.771.136.775.459s-.24.479-.8.479H3.259v3.587H20.785v-1.308h-.357l-8.032-.006c-.792,0-1.583,0-2.375-.005a.464.464,0,0,1-.5-.481.472.472,0,0,1,.5-.453c.073,0,.146,0,.219,0h4.18v-1.334c-.335,0-.616.006-.9,0-.337-.01-.55-.2-.549-.473s.213-.454.554-.461c.288-.005.576,0,.891,0v-.385q0-1.7,0-3.406c0-1.055.367-1.418,1.434-1.418h4.936Zm-.389,4.24c0,.571.006,1.091,0,1.611a.7.7,0,0,1-.739.747q-.656.011-1.312,0a.677.677,0,0,1-.72-.7c-.018-.363-.007-.728-.008-1.093,0-.183,0-.365,0-.568-.667,0-1.281.012-1.894-.005-.291-.008-.375.1-.374.381q.015,2.9,0,5.808c0,.285.083.373.373.372q3.279-.017,6.558,0c.312,0,.381-.1.378-.394-.014-1.3-.006-2.6-.006-3.9,0-.656,0-1.311,0-1.967,0-.167-.026-.291-.228-.291H20.4M3.238,105.655c0,.275,0,.532,0,.789a1.434,1.434,0,0,0,1.62,1.609H16.821c.854,0,1.708,0,2.561,0a1.331,1.331,0,0,0,1.347-1,9.663,9.663,0,0,0,.1-1.395Zm18.528-17.4v2.423c.634.042,1.243.075,1.636-.533a1.171,1.171,0,0,0,.02-1.325c-.384-.626-1-.622-1.656-.565M2.278,97.723v-2.9a1.411,1.411,0,0,0-1.34,1.359,1.455,1.455,0,0,0,1.34,1.546m17.166-.428V95.888c-.248,0-.484-.009-.719.006-.058,0-.158.084-.16.132-.013.42-.007.841-.007,1.268Z" transform="translate(0 -76.99)"/>
    <path id="Path_105503" data-name="Path 105503" d="M46.007,4.31H36.156A3.5,3.5,0,0,1,35.71,7.4a6.612,6.612,0,0,1-.416.7c-.582.8-1.163,1.6-1.771,2.378a.78.78,0,0,1-1.344-.014c-.719-.968-1.447-1.934-2.1-2.948a3.4,3.4,0,0,1-.526-3.2H28.436v.373q0,2.312,0,4.625a1.687,1.687,0,0,1-.026.372.384.384,0,0,1-.455.332.9.9,0,0,1-.424-.339c-.059-.073-.031-.221-.031-.335q0-3.406,0-6.812A2.353,2.353,0,0,1,30.036,0H44.413A2.353,2.353,0,0,1,46.94,2.51c0,.854,0,1.708,0,2.562a1.867,1.867,0,0,1,0,.187.479.479,0,0,1-.481.473.467.467,0,0,1-.444-.474c-.014-.31,0-.621,0-.949M28.471,3.354c.427,0,.832-.012,1.236,0a.651.651,0,0,0,.562-.244,3.468,3.468,0,0,1,5.194.017.605.605,0,0,0,.506.226q4.829-.01,9.657,0H46c0-.3,0-.569,0-.836A1.427,1.427,0,0,0,44.415.937H30.039c-.094,0-.188,0-.281,0a1.356,1.356,0,0,0-1.276,1.1,10.275,10.275,0,0,0-.011,1.318m4.375,6.482a16.342,16.342,0,0,0,2.265-3.342A2.8,2.8,0,0,0,35.4,5.455,2.5,2.5,0,0,0,33.012,2.9a2.472,2.472,0,0,0-2.5,3.389,18.887,18.887,0,0,0,1.06,1.83c.387.586.837,1.13,1.274,1.713" transform="translate(-25.197 0)"/>
    <path id="Path_105504" data-name="Path 105504" d="M152.724,69.484c.624,0,1.249,0,1.873,0,.349,0,.551.173.557.453s-.213.48-.569.481q-1.873.006-3.746,0c-.357,0-.577-.193-.573-.478s.215-.456.586-.457c.624,0,1.249,0,1.873,0" transform="translate(-137.721 -63.682)"/>
    <path id="Path_105505" data-name="Path 105505" d="M177.495,90.083c-.291,0-.583.006-.874,0a.465.465,0,1,1-.014-.929q.889-.02,1.78,0a.465.465,0,0,1,.477.476.46.46,0,0,1-.494.453c-.291.008-.583,0-.874,0" transform="translate(-161.43 -81.701)"/>
    <path id="Path_105506" data-name="Path 105506" d="M150.849,90.126c-.364,0-.579-.17-.582-.458s.232-.482.6-.479.573.176.576.468-.2.47-.6.469" transform="translate(-137.722 -81.743)"/>
    <path id="Path_105507" data-name="Path 105507" d="M59.935,304.689c.322,0,.645-.006.967,0a.467.467,0,1,1,.008.932q-.983.012-1.966,0a.467.467,0,1,1-.008-.932c.333-.009.666,0,1,0" transform="translate(-53.567 -279.251)"/>
    <path id="Path_105508" data-name="Path 105508" d="M235.8,282.174c.281,0,.562-.007.843,0a.464.464,0,1,1,.022.927q-.873.023-1.748,0a.465.465,0,1,1,.041-.929c.281-.007.562,0,.843,0" transform="translate(-214.888 -258.616)"/>
    <path id="Path_105509" data-name="Path 105509" d="M126.2,351.537c.364,0,.727-.007,1.091,0a.467.467,0,1,1,.006.93q-1.106.014-2.213,0a.467.467,0,1,1-.006-.929c.374-.01.748,0,1.122,0" transform="translate(-114.171 -322.188)"/>
    <path id="Path_105510" data-name="Path 105510" d="M126.18,21.449c-.364,0-.727.007-1.091,0a.467.467,0,1,1-.007-.93q1.106-.014,2.213,0a.467.467,0,1,1,.007.929c-.374.01-.748,0-1.122,0" transform="translate(-114.171 -18.798)"/>
    <path id="Path_105511" data-name="Path 105511" d="M70.463,45.9a1.769,1.769,0,0,1,1.8-1.765,1.782,1.782,0,1,1-1.8,1.765m1.789.861a.844.844,0,1,0-.023-1.687.83.83,0,0,0-.826.868.84.84,0,0,0,.85.819" transform="translate(-64.58 -40.446)"/>
  </g>
</svg>
