<svg xmlns="http://www.w3.org/2000/svg" width="32" height="32" viewBox="0 0 32 32">
  <g id="Group_37957" data-name="Group 37957" transform="translate(-1 -1)">
    <g id="Group_37957-2" data-name="Group 37957" transform="translate(1 1)">
      <path id="Path_105776" data-name="Path 105776" d="M14.516,11.313h17.56a.516.516,0,0,0,.516-.516V1.516A.516.516,0,0,0,32.076,1H14.516A.516.516,0,0,0,14,1.516V10.8A.516.516,0,0,0,14.516,11.313Zm11.362-1.031h-.516V9.25H24.329v1.031H22.264V9.25H21.231v1.031h-.516V8.735a.517.517,0,0,1,.516-.516h4.132a.517.517,0,0,1,.516.516ZM15.033,2.031H31.56v8.25H26.912V8.735a1.55,1.55,0,0,0-1.549-1.547H21.231a1.55,1.55,0,0,0-1.549,1.547v1.547H15.033Z" transform="translate(-7.296 -1)"/>
      <path id="Path_105777" data-name="Path 105777" d="M1.226,13.287a.517.517,0,0,0,.481.052l5.157-2.063a.516.516,0,0,0,.324-.479V1.515a.516.516,0,0,0-.707-.479L1.324,3.1A.516.516,0,0,0,1,3.578V12.86a.516.516,0,0,0,.226.427Zm.8-9.36,4.125-1.65v8.171L2.031,12.1Z" transform="translate(-1 -1)"/>
      <path id="Path_105778" data-name="Path 105778" d="M56.864,3.1,51.707,1.037A.516.516,0,0,0,51,1.516V10.8a.516.516,0,0,0,.324.479l5.157,2.063a.517.517,0,0,0,.481-.052.516.516,0,0,0,.226-.427V3.578A.516.516,0,0,0,56.864,3.1Zm-.707,9-4.125-1.65V2.277l4.125,1.65Z" transform="translate(-25.188 -1)"/>
      <path id="Path_105779" data-name="Path 105779" d="M28,5.063V6.094a2.063,2.063,0,1,0,4.125,0V5.063a2.063,2.063,0,1,0-4.125,0Zm1.031,0a1.031,1.031,0,0,1,2.063,0V6.094a1.031,1.031,0,0,1-2.063,0Z" transform="translate(-14.063 -1.968)"/>
      <path id="Path_105780" data-name="Path 105780" d="M29.395,37.256a3.08,3.08,0,0,0,.856-2.131V34.094a3.094,3.094,0,1,0-6.188,0v1.031a3.08,3.08,0,0,0,.856,2.131A3.615,3.615,0,0,0,22,40.8V42.86a.515.515,0,0,0,.516.516H31.8a.515.515,0,0,0,.516-.516V40.8A3.615,3.615,0,0,0,29.395,37.256Zm-4.3-3.162a2.063,2.063,0,1,1,4.125,0v1.031a2.063,2.063,0,1,1-4.125,0Zm6.188,8.25H30.25V40.282H29.219v2.063H25.094V40.282H24.063v2.063H23.031V40.8a2.581,2.581,0,0,1,2.578-2.578H28.7A2.581,2.581,0,0,1,31.282,40.8Z" transform="translate(-11.157 -15.501)"/>
      <path id="Path_105781" data-name="Path 105781" d="M50.395,45.256a3.08,3.08,0,0,0,.856-2.131V42.094a3.094,3.094,0,0,0-6.188,0v1.031a3.08,3.08,0,0,0,.856,2.131A3.615,3.615,0,0,0,43,48.8V50.86a.515.515,0,0,0,.516.516H52.8a.515.515,0,0,0,.516-.516V48.8A3.615,3.615,0,0,0,50.395,45.256Zm-4.3-3.162a2.063,2.063,0,0,1,4.125,0v1.031a2.063,2.063,0,1,1-4.125,0Zm6.188,8.251H51.25V48.282H50.219v2.063H46.094V48.282H45.063v2.063H44.031V48.8a2.581,2.581,0,0,1,2.578-2.578H49.7A2.581,2.581,0,0,1,52.282,48.8Z" transform="translate(-21.313 -19.375)"/>
      <path id="Path_105782" data-name="Path 105782" d="M8.395,45.256a3.08,3.08,0,0,0,.856-2.131V42.094a3.094,3.094,0,0,0-6.188,0v1.031a3.08,3.08,0,0,0,.856,2.131A3.615,3.615,0,0,0,1,48.8V50.86a.515.515,0,0,0,.516.516H10.8a.515.515,0,0,0,.516-.516V48.8A3.615,3.615,0,0,0,8.395,45.256Zm-4.3-3.162a2.063,2.063,0,0,1,4.125,0v1.031a2.063,2.063,0,1,1-4.125,0Zm6.188,8.251H9.25V48.282H8.219v2.063H4.094V48.282H3.063v2.063H2.031V48.8A2.581,2.581,0,0,1,4.61,46.219H7.7A2.581,2.581,0,0,1,10.282,48.8Z" transform="translate(-1 -19.375)"/>
      <path id="Path_105783" data-name="Path 105783" d="M14,27h1.031v1.031H14Z" transform="translate(-7.29 -13.58)"/>
      <path id="Path_105784" data-name="Path 105784" d="M17,27h1.031v1.031H17Z" transform="translate(-8.742 -13.58)"/>
      <path id="Path_105785" data-name="Path 105785" d="M20,27h1.031v1.031H20Z" transform="translate(-10.193 -13.58)"/>
      <path id="Path_105786" data-name="Path 105786" d="M16.188,28.157H16.7A1.549,1.549,0,0,0,18.25,26.61V24.547A1.549,1.549,0,0,0,16.7,23H11.547A1.549,1.549,0,0,0,10,24.547V26.61a1.549,1.549,0,0,0,1.547,1.547h1.891L15.363,29.6a.513.513,0,0,0,.309.1.515.515,0,0,0,.516-.516Zm-.516-1.031a.516.516,0,0,0-.516.516v.516l-1.238-.928a.514.514,0,0,0-.309-.1H11.547a.516.516,0,0,1-.516-.516V24.547a.516.516,0,0,1,.516-.516H16.7a.516.516,0,0,1,.516.516V26.61a.516.516,0,0,1-.516.516Z" transform="translate(-5.359 -11.642)"/>
      <path id="Path_105787" data-name="Path 105787" d="M48,30h1.031v1.031H48Z" transform="translate(-23.741 -15.032)"/>
      <path id="Path_105788" data-name="Path 105788" d="M45,30h1.031v1.031H45Z" transform="translate(-22.29 -15.032)"/>
      <path id="Path_105789" data-name="Path 105789" d="M42,30h1.031v1.031H42Z" transform="translate(-20.838 -15.032)"/>
      <path id="Path_105790" data-name="Path 105790" d="M40.888,23.1a.515.515,0,0,0-.825.413v1.031h-.516A1.549,1.549,0,0,0,38,26.094v2.063A1.549,1.549,0,0,0,39.547,29.7H44.7a1.549,1.549,0,0,0,1.547-1.547V26.094A1.549,1.549,0,0,0,44.7,24.547H42.813Zm4.332,2.991v2.063a.516.516,0,0,1-.516.516H39.547a.516.516,0,0,1-.516-.516V26.094a.516.516,0,0,1,.516-.516h1.031a.516.516,0,0,0,.516-.516v-.516l1.238.928a.514.514,0,0,0,.309.1H44.7A.516.516,0,0,1,45.219,26.094Z" transform="translate(-18.891 -11.642)"/>
    </g>
  </g>
</svg>
