<svg width="32" height="32" viewBox="0 0 32 32" fill="none" xmlns="http://www.w3.org/2000/svg">
<path d="M9 30.5H23C23.663 30.5 24.2989 30.2366 24.7678 29.7678C25.2366 29.2989 25.5 28.663 25.5 28V4C25.5 3.33696 25.2366 2.70107 24.7678 2.23223C24.2989 1.76339 23.663 1.5 23 1.5H9C8.33696 1.5 7.70107 1.76339 7.23223 2.23223C6.76339 2.70107 6.5 3.33696 6.5 4V28C6.5 28.663 6.76339 29.2989 7.23223 29.7678C7.70107 30.2366 8.33696 30.5 9 30.5V30.5ZM20 2.5V4H12V2.5H20ZM7.5 4C7.5 3.60218 7.65804 3.22064 7.93934 2.93934C8.22064 2.65804 8.60218 2.5 9 2.5H11V4.5C11 4.63261 11.0527 4.75979 11.1464 4.85355C11.2402 4.94732 11.3674 5 11.5 5H20.5C20.6326 5 20.7598 4.94732 20.8536 4.85355C20.9473 4.75979 21 4.63261 21 4.5V2.5H23C23.3978 2.5 23.7794 2.65804 24.0607 2.93934C24.342 3.22064 24.5 3.60218 24.5 4V28C24.5 28.3978 24.342 28.7794 24.0607 29.0607C23.7794 29.342 23.3978 29.5 23 29.5H9C8.60218 29.5 8.22064 29.342 7.93934 29.0607C7.65804 28.7794 7.5 28.3978 7.5 28V4Z" fill="black"/>
<path d="M16 24.5C15.6044 24.5 15.2178 24.6173 14.8889 24.8371C14.56 25.0568 14.3036 25.3692 14.1522 25.7346C14.0009 26.1001 13.9613 26.5022 14.0384 26.8902C14.1156 27.2781 14.3061 27.6345 14.5858 27.9142C14.8655 28.1939 15.2219 28.3844 15.6098 28.4616C15.9978 28.5387 16.3999 28.4991 16.7654 28.3478C17.1308 28.1964 17.4432 27.94 17.6629 27.6111C17.8827 27.2822 18 26.8956 18 26.5C18 25.9696 17.7893 25.4609 17.4142 25.0858C17.0391 24.7107 16.5304 24.5 16 24.5V24.5ZM16 27.5C15.8022 27.5 15.6089 27.4414 15.4444 27.3315C15.28 27.2216 15.1518 27.0654 15.0761 26.8827C15.0004 26.7 14.9806 26.4989 15.0192 26.3049C15.0578 26.1109 15.153 25.9327 15.2929 25.7929C15.4327 25.653 15.6109 25.5578 15.8049 25.5192C15.9989 25.4806 16.2 25.5004 16.3827 25.5761C16.5654 25.6518 16.7216 25.78 16.8315 25.9444C16.9414 26.1089 17 26.3022 17 26.5C17 26.7652 16.8946 27.0196 16.7071 27.2071C16.5196 27.3946 16.2652 27.5 16 27.5Z" fill="black"/>
<path d="M10.5 16.5H22V17.5H10.5V16.5Z" fill="black"/>
<path d="M10.5 19H18.5V20H10.5V19Z" fill="black"/>
<path d="M10.5 21.5H22V22.5H10.5V21.5Z" fill="black"/>
<path d="M9.93 10.9202L12.5 11.5952V13.2252C12.5 13.696 12.687 14.1475 13.0199 14.4803C13.3528 14.8132 13.8042 15.0002 14.275 15.0002H17.725C18.1958 15.0002 18.6472 14.8132 18.9801 14.4803C19.313 14.1475 19.5 13.696 19.5 13.2252V11.5952L22.07 10.9202C22.1805 10.8951 22.2791 10.8331 22.3498 10.7445C22.4204 10.656 22.4589 10.546 22.4589 10.4327C22.4589 10.3194 22.4204 10.2095 22.3498 10.1209C22.2791 10.0324 22.1805 9.97041 22.07 9.94523L16.13 8.69523C16.0608 8.68037 15.9892 8.68037 15.92 8.69523L9.98 9.94523C9.86778 9.96415 9.76538 10.0208 9.6897 10.1058C9.61402 10.1908 9.5696 10.299 9.56377 10.4127C9.55794 10.5263 9.59105 10.6386 9.65764 10.7308C9.72423 10.8231 9.82031 10.8899 9.93 10.9202V10.9202ZM18.5 13.2252C18.5007 13.3272 18.4811 13.4283 18.4424 13.5226C18.4036 13.6169 18.3466 13.7026 18.2745 13.7747C18.2024 13.8468 18.1167 13.9039 18.0224 13.9426C17.928 13.9813 17.827 14.0009 17.725 14.0002H14.275C14.173 14.0009 14.072 13.9813 13.9776 13.9426C13.8833 13.9039 13.7976 13.8468 13.7255 13.7747C13.6534 13.7026 13.5964 13.6169 13.5576 13.5226C13.5189 13.4283 13.4993 13.3272 13.5 13.2252V11.8602L15.875 12.5002C15.9571 12.5202 16.0429 12.5202 16.125 12.5002L18.5 11.8602V13.2252ZM16 9.69523L19.775 10.5002L16 11.5002L12.225 10.5002L16 9.69523Z" fill="black"/>
</svg>
