<svg width="32" height="32" viewBox="0 0 32 32" fill="none" xmlns="http://www.w3.org/2000/svg">
<g clip-path="url(#clip0_21_619)">
<path d="M15.9331 11.7518C16.1921 11.7518 16.4019 11.542 16.4019 11.2831V10.3179C16.4019 10.059 16.1921 9.84919 15.9331 9.84919C15.6742 9.84919 15.4644 10.059 15.4644 10.3179V11.2831C15.4644 11.542 15.6742 11.7518 15.9331 11.7518ZM13.1987 26.7812C12.9398 26.7812 12.7299 26.9911 12.7299 27.25C12.7299 27.5089 12.9398 27.7188 13.1987 27.7188C13.4576 27.7188 13.6674 27.5089 13.6674 27.25C13.6674 26.9911 13.4576 26.7812 13.1987 26.7812ZM30.2791 24.3369H30.0527C29.9842 23.2372 29.6516 22.1708 29.0793 21.2296C28.9448 21.0083 28.6564 20.9381 28.4352 21.0726C28.2141 21.2071 28.1437 21.4954 28.2782 21.7167C28.7612 22.511 29.0466 23.4093 29.1137 24.3369H17.3982C17.6173 21.2966 20.1609 18.8901 23.2559 18.8901C24.6043 18.8901 25.8723 19.3344 26.9227 20.1751C27.125 20.337 27.4199 20.3042 27.5816 20.1021C27.7434 19.8999 27.7106 19.6049 27.5086 19.4432C26.8012 18.8771 25.9863 18.4623 25.1214 18.2156C25.1539 18.0746 25.1715 17.9298 25.1715 17.7833C25.1715 16.7266 24.3121 15.867 23.2559 15.867C22.1996 15.867 21.3403 16.7266 21.3403 17.7833C21.3403 17.9288 21.3576 18.0725 21.3897 18.2126C20.7235 18.4026 20.0991 18.6924 19.5327 19.0637L17.1246 18.2551C16.7864 18.1416 16.5591 17.8263 16.5591 17.4707V17.0794C18.4187 15.9455 19.6625 13.9007 19.6625 11.5715V11.0446C20.5335 11.0153 21.2332 10.298 21.2332 9.42C21.2332 8.542 20.5335 7.82469 19.6625 7.79537V3.23425C19.6625 1.45088 18.2087 0 16.4219 0H9.97549C8.18862 0 6.73487 1.45088 6.73487 3.23425V7.79531C5.86387 7.82462 5.16418 8.54194 5.16418 9.41994C5.16418 10.2979 5.86387 11.0152 6.73487 11.0446V11.5714C6.73487 13.9007 7.97874 15.9455 9.83837 17.0794V17.4706C9.83837 17.8262 9.61112 18.1414 9.27287 18.255L3.63124 20.1494C1.85199 20.7464 0.656555 22.4064 0.656555 24.2801V31.5312C0.656555 31.7902 0.866368 32 1.12531 32C1.38424 32 1.59406 31.7902 1.59406 31.5312V24.28C1.59406 22.8097 2.53262 21.5068 3.92956 21.0381L4.83487 20.7341C5.24637 21.3589 5.85149 22.5575 5.75187 24.0961C5.67543 25.2809 5.21387 26.1956 4.84074 26.7534C4.64912 27.0383 4.54774 27.3702 4.54774 27.7131V31.5312C4.54774 31.7902 4.75756 32 5.01649 32C5.27543 32 5.48524 31.7902 5.48524 31.5312V27.7131C5.48524 27.5573 5.53131 27.4063 5.61924 27.2756C6.05699 26.6213 6.59756 25.5491 6.68743 24.1565C6.79387 22.5124 6.21681 21.2012 5.74912 20.4272L6.71812 20.1019C7.83624 23.7025 9.9158 26.9273 12.7299 29.4323V31.5312C12.7299 31.7902 12.9397 32 13.1987 32C13.4576 32 13.6674 31.7902 13.6674 31.5312V29.4317C14.3246 28.8463 14.946 28.2174 15.5229 27.5545C15.7114 27.724 15.9599 27.8281 16.2328 27.8281H20.4372V28.0821C20.4372 28.5193 20.6197 28.9144 20.9122 29.1963V31.5312C20.9122 31.7902 21.122 32 21.3809 32C21.6399 32 21.8497 31.7902 21.8497 31.5312V29.6239C22.0546 29.6436 24.7136 29.6212 24.8035 29.6049V31.5312C24.8035 31.7902 25.0133 32 25.2722 32C25.5312 32 25.741 31.7902 25.741 31.5312V29.0405C25.9496 28.7767 26.0747 28.4439 26.0747 28.0822V27.8282H30.2791C30.8661 27.8282 31.3435 27.3507 31.3435 26.7638V25.4019C31.3434 24.8146 30.8659 24.3369 30.2791 24.3369V24.3369ZM23.2559 16.8044C23.7953 16.8044 24.2341 17.2434 24.2341 17.7831C24.2341 17.8639 24.2237 17.9435 24.2044 18.0207C23.8911 17.9764 23.5743 17.9525 23.2559 17.9525C22.9339 17.9525 22.6172 17.9755 22.307 18.0189C22.2881 17.9423 22.2778 17.8633 22.2778 17.7831C22.2778 17.2435 22.7166 16.8044 23.2559 16.8044V16.8044ZM19.6625 8.73356C20.0164 8.76181 20.2957 9.05888 20.2957 9.41988C20.2957 9.78088 20.0164 10.0779 19.6625 10.1062V8.73356ZM6.73493 10.1062C6.38106 10.078 6.10174 9.78094 6.10174 9.41994C6.10174 9.05894 6.38106 8.76188 6.73493 8.73363V10.1062ZM7.67243 11.5714V7.39925C8.36043 7.27375 9.02349 7.05188 9.64874 6.73756C10.1949 6.46294 10.7047 6.12069 11.1667 5.71863C11.8602 6.14006 12.595 6.49519 13.3532 6.77519C13.5962 6.86487 13.8657 6.74075 13.9554 6.49788C14.0451 6.255 13.9209 5.98544 13.6781 5.89575C12.9286 5.61888 12.2037 5.26281 11.5239 4.83738C11.2519 4.667 10.8967 4.69869 10.6603 4.91425C10.2292 5.307 9.74718 5.63863 9.22756 5.89981C8.73362 6.14819 8.21237 6.33006 7.67237 6.4435V3.23412C7.67237 1.96769 8.70549 0.937375 9.97549 0.937375H16.4219C17.6918 0.937375 18.725 1.96769 18.725 3.23412V6.574C17.7214 6.65969 16.7142 6.61688 15.7251 6.44575C15.4702 6.40194 15.2275 6.57269 15.1833 6.82775C15.1392 7.08288 15.3102 7.32544 15.5653 7.36956C16.6074 7.54975 17.6678 7.59838 18.725 7.51475V11.5712C18.725 14.6109 16.2459 17.0837 13.1987 17.0837C10.1515 17.0839 7.67243 14.611 7.67243 11.5714V11.5714ZM14.6711 20.4935L15.5477 20.2083V21.6668L14.6711 21.3816C14.7136 21.2409 14.7367 21.0919 14.7367 20.9376C14.7367 20.7833 14.7136 20.6341 14.6711 20.4935V20.4935ZM14.1011 19.6931C13.8474 19.5087 13.5357 19.3995 13.1987 19.3995C12.8618 19.3995 12.5501 19.5087 12.2964 19.6931L10.8461 19.2212C10.7284 19.1829 10.6042 19.1777 10.4856 19.2015L10.1232 18.8391C10.5078 18.5267 10.75 18.0613 10.7728 17.5496C11.5223 17.8536 12.3412 18.0215 13.1987 18.0215C14.0563 18.0215 14.8752 17.8536 15.6247 17.5496C15.6475 18.0601 15.8886 18.5246 16.2717 18.837L15.9081 19.2007C15.7906 19.1779 15.6679 19.1834 15.5516 19.2212L14.1011 19.6931ZM13.7992 20.9375C13.7992 21.2686 13.5298 21.538 13.1987 21.538C12.8676 21.538 12.5982 21.2686 12.5982 20.9375C12.5982 20.6064 12.8676 20.337 13.1987 20.337C13.5299 20.337 13.7992 20.6064 13.7992 20.9375ZM11.7262 21.3816L10.8496 21.6668V20.2082L11.7262 20.4934C11.6837 20.6341 11.6606 20.7831 11.6606 20.9375C11.6606 21.0919 11.6837 21.2409 11.7262 21.3816V21.3816ZM15.1684 25.4019V26.5223C14.5649 27.2564 13.9044 27.9516 13.1984 28.5936C10.5845 26.2175 8.65324 23.1834 7.60699 19.8034L9.21999 19.2617L9.91218 19.9539V21.9757C9.91218 22.2032 10.0222 22.419 10.2064 22.5527C10.391 22.6867 10.6306 22.724 10.8459 22.6539L12.2964 22.1819C12.5501 22.3664 12.8618 22.4756 13.1987 22.4756C13.5356 22.4756 13.8474 22.3664 14.101 22.1819L15.5514 22.6539C15.7667 22.7239 16.0064 22.6868 16.191 22.5527C16.3752 22.419 16.4852 22.2033 16.4852 21.9757V19.9494L17.1739 19.2606L18.6463 19.7551C17.3922 20.9104 16.5712 22.5291 16.459 24.3369H16.2327C15.6459 24.3369 15.1684 24.8146 15.1684 25.4019V25.4019ZM25.1371 28.0821C25.1371 28.4188 24.8632 28.6927 24.5266 28.6927H21.9852C21.6486 28.6927 21.3747 28.4188 21.3747 28.0821V26.9013H25.1371V28.0821H25.1371ZM30.4059 26.7638C30.4059 26.8337 30.349 26.8906 30.2791 26.8906H26.0746C26.091 26.3851 25.6778 25.9639 25.1733 25.9638H21.3386C20.834 25.9629 20.422 26.3854 20.4372 26.8906H16.2328C16.1629 26.8906 16.1059 26.8337 16.1059 26.7638V25.4019C16.1059 25.3316 16.1629 25.2744 16.2328 25.2744H30.279C30.3489 25.2744 30.4059 25.3316 30.4059 25.4019V26.7638H30.4059ZM13.1987 24.9062C12.9398 24.9062 12.7299 25.1161 12.7299 25.375C12.7299 25.6339 12.9398 25.8438 13.1987 25.8438C13.4576 25.8438 13.6674 25.6339 13.6674 25.375C13.6674 25.1161 13.4576 24.9062 13.1987 24.9062ZM10.4643 9.84919C10.2054 9.84919 9.99555 10.059 9.99555 10.3179V11.2831C9.99555 11.542 10.2054 11.7518 10.4643 11.7518C10.7232 11.7518 10.9331 11.542 10.9331 11.2831V10.3179C10.9331 10.059 10.7232 9.84919 10.4643 9.84919ZM13.1987 23.0312C12.9398 23.0312 12.7299 23.2411 12.7299 23.5C12.7299 23.7589 12.9398 23.9688 13.1987 23.9688C13.4576 23.9688 13.6674 23.7589 13.6674 23.5C13.6674 23.2411 13.4576 23.0312 13.1987 23.0312ZM14.4267 13.8556C14.2774 13.6443 13.9849 13.5939 13.7734 13.7434C13.6701 13.8164 13.451 13.9372 13.1631 13.9271C12.9066 13.9179 12.7154 13.8083 12.6243 13.7437C12.413 13.5939 12.1205 13.644 11.9709 13.8553C11.8212 14.0665 11.8712 14.3591 12.0824 14.5087C12.2885 14.6547 12.7341 14.8651 13.1983 14.8651C13.7291 14.8651 14.1229 14.6444 14.3145 14.5089C14.526 14.3596 14.5762 14.067 14.4267 13.8556V13.8556Z" fill="black"/>
</g>
<defs>
<clipPath id="clip0_21_619">
<rect width="32" height="32" fill="white"/>
</clipPath>
</defs>
</svg>
