<svg xmlns="http://www.w3.org/2000/svg" width="60.051" height="60" viewBox="0 0 60.051 60">
  <g id="Group_37809" data-name="Group 37809" transform="translate(-1.948 -2)">
    <path id="Path_105560" data-name="Path 105560" d="M35,33a5,5,0,1,0-5,5A5.006,5.006,0,0,0,35,33Zm-8,0a3,3,0,1,1,3,3A3,3,0,0,1,27,33Z" fill="#fe5c58"/>
    <path id="Path_105561" data-name="Path 105561" d="M28,44h4a1,1,0,0,0,1-1l.043-1.538a8.626,8.626,0,0,0,.83-.347l1.077,1.077a1.029,1.029,0,0,0,1.414,0l2.828-2.829a1,1,0,0,0,0-1.414l-1.057-1.118a8.79,8.79,0,0,0,.34-.832H40a1,1,0,0,0,1-1V31a1,1,0,0,0-1-1l-1.537-.041a8.934,8.934,0,0,0-.348-.832l1.077-1.077a1,1,0,0,0,0-1.414l-2.828-2.829a1,1,0,0,0-1.414,0l-1.119,1.056A8.931,8.931,0,0,0,33,24.523V23a1,1,0,0,0-1-1H28a1,1,0,0,0-1,1l-.043,1.538a8.625,8.625,0,0,0-.83.347L25.05,23.808a1.029,1.029,0,0,0-1.414,0l-2.828,2.829a1,1,0,0,0,0,1.414l1.057,1.118a8.79,8.79,0,0,0-.34.832H20a1,1,0,0,0-1,1v4a1,1,0,0,0,1,1l1.537.041a8.934,8.934,0,0,0,.348.832l-1.077,1.077a1,1,0,0,0,0,1.414l2.828,2.829a1,1,0,0,0,1.414,0l1.119-1.056a8.932,8.932,0,0,0,.831.339V43a1,1,0,0,0,1,1Zm-3.287-4.3-.37.37-1.414-1.415.37-.37a2.014,2.014,0,0,0,.374-2.309,6.215,6.215,0,0,1-.252-.611A2.014,2.014,0,0,0,21.524,34H21V32h.524a2.012,2.012,0,0,0,1.9-1.37,6.213,6.213,0,0,1,.252-.61,2.013,2.013,0,0,0-.375-2.307l-.37-.37,1.414-1.415.37.37a2.039,2.039,0,0,0,2.308.375,6.448,6.448,0,0,1,.612-.253A2.037,2.037,0,0,0,29,24.524V24h2v.524a2.036,2.036,0,0,0,1.367,1.9c.209.075.414.16.611.253a2.035,2.035,0,0,0,2.309-.374l.37-.37,1.414,1.415-.37.37a2.014,2.014,0,0,0-.374,2.309,6.214,6.214,0,0,1,.252.611A2.014,2.014,0,0,0,38.476,32H39v2h-.524a2.012,2.012,0,0,0-1.9,1.37,6.214,6.214,0,0,1-.252.61,2.013,2.013,0,0,0,.375,2.307l.37.37-1.414,1.415-.37-.37a2.033,2.033,0,0,0-2.308-.375,6.447,6.447,0,0,1-.612.253A2.037,2.037,0,0,0,31,41.476V42H29v-.524a2.036,2.036,0,0,0-1.367-1.9c-.209-.075-.414-.16-.611-.253a2.038,2.038,0,0,0-2.309.374Z" fill="#fe5c58"/>
    <path id="Path_105562" data-name="Path 105562" d="M42.228,42.441a14.766,14.766,0,0,0,.854-2.145l-1.91-.594a12.755,12.755,0,0,1-.739,1.855Z" fill="#fe5c58"/>
    <path id="Path_105563" data-name="Path 105563" d="M30.366,14.922a19.863,19.863,0,0,0-14.14,5.859,18.131,18.131,0,0,0,0,25.6,16.383,16.383,0,0,0,23.174,0l-1.414-1.414a14.384,14.384,0,0,1-20.346,0,16.128,16.128,0,0,1,0-22.775,17.992,17.992,0,0,1,25.451,0,20.145,20.145,0,0,1,0,28.449,22.331,22.331,0,0,1-20.215,6.146l.419-1.526A1,1,0,0,0,22,54.054l-4.331,1.495a1,1,0,0,0-.46,1.563l2.9,3.7a1,1,0,0,0,.786.382.941.941,0,0,0,.2-.02,1,1,0,0,0,.767-.715l.476-1.731a24.718,24.718,0,0,0,4.918.506A24.311,24.311,0,0,0,44.5,52.058a22.147,22.147,0,0,0,0-31.277,19.86,19.86,0,0,0-14.139-5.859Zm-9.9,43.093-.812-1.033,1.21-.417Z" fill="#fe5c58"/>
    <path id="Path_105564" data-name="Path 105564" d="M8.808,47.69a24.934,24.934,0,0,1,2.531-32.5,27.737,27.737,0,0,1,9.228-6.125L21.22,11a1,1,0,0,0,.809.671.938.938,0,0,0,.139.01,1,1,0,0,0,.824-.434l2.833-4.12a1,1,0,0,0-.511-1.516L20.565,4.05A1,1,0,0,0,19.3,5.319l.623,1.849a29.726,29.726,0,0,0-10,6.609A26.924,26.924,0,0,0,7.192,48.87ZM23.421,7.1l-.944,1.373-.639-1.895Z" fill="#fe5c58"/>
    <path id="Path_105565" data-name="Path 105565" d="M38.237,5.857,37.762,7.8A27.905,27.905,0,0,1,50.87,15.19a31.2,31.2,0,0,1,7.281,32.593l-1.781-.712a1,1,0,0,0-1.347,1.147l1,4.472a1,1,0,0,0,1.5.633l4-2.472a1,1,0,0,0-.154-1.779l-1.362-.545a33.194,33.194,0,0,0-7.724-34.75,29.9,29.9,0,0,0-14.047-7.92ZM57.669,50.883l-.279-1.25,1.4.559Z" fill="#fe5c58"/>
    <path id="Path_105566" data-name="Path 105566" d="M32,10a4,4,0,1,0-4-4A4,4,0,0,0,32,10Zm0-6a2,2,0,1,1-2,2A2,2,0,0,1,32,4Z" fill="#fe5c58"/>
    <path id="Path_105567" data-name="Path 105567" d="M53,62a4,4,0,1,0-4-4A4,4,0,0,0,53,62Zm0-6a2,2,0,1,1-2,2A2,2,0,0,1,53,56Z" fill="#fe5c58"/>
    <path id="Path_105568" data-name="Path 105568" d="M8,53a4,4,0,1,0,4-4A4,4,0,0,0,8,53Zm6,0a2,2,0,1,1-2-2A2,2,0,0,1,14,53Z" fill="#fe5c58"/>
  </g>
</svg>
