<svg width="32" height="32" viewBox="0 0 32 32" fill="none" xmlns="http://www.w3.org/2000/svg">
<path d="M23.3333 16C23.1933 16 23.0533 15.956 22.9347 15.868C22.596 15.616 14.6667 9.64133 14.6667 4.84C14.6667 2.17067 16.8387 0 19.508 0C21.0293 0 22.432 0.708 23.3333 1.872C24.236 0.708 25.6387 0 27.1587 0C29.828 0 32 2.17067 32 4.84C32 9.64133 24.0707 15.616 23.732 15.868C23.6133 15.956 23.4733 16 23.3333 16ZM19.508 1.33333C17.5747 1.33333 16 2.90667 16 4.84C16 8.076 20.9653 12.6373 23.3333 14.4933C25.7013 12.6373 30.6667 8.07733 30.6667 4.84C30.6667 2.90667 29.092 1.33333 27.1587 1.33333C25.7613 1.33333 24.5 2.15867 23.9453 3.43733C23.8387 3.68133 23.5987 3.83867 23.3333 3.83867C23.068 3.83867 22.8267 3.68133 22.7213 3.43733C22.168 2.15867 20.9067 1.33333 19.508 1.33333Z" fill="black"/>
<path d="M26 22.6667H8.66667C8.34933 22.6667 8.076 22.4427 8.01333 22.1307L5.34667 8.79733C5.30667 8.60133 5.35867 8.39867 5.484 8.244C5.60933 8.08933 5.80133 8 6 8H12.6667C13.0347 8 13.3333 8.29867 13.3333 8.66667C13.3333 9.03467 13.0347 9.33333 12.6667 9.33333H6.81333L9.21333 21.3333H25.4533L26.5467 15.8693C26.62 15.5067 26.9853 15.2707 27.3307 15.3467C27.692 15.4187 27.9267 15.7693 27.8547 16.1307L26.6547 22.1307C26.5907 22.4427 26.3173 22.6667 26 22.6667Z" fill="black"/>
<path d="M8.66533 22.6667C8.35467 22.6667 8.07733 22.448 8.01333 22.1307L4.708 5.60533C4.52267 4.67333 3.696 3.99733 2.74667 3.99733H2.74533L0.668 4C0.666667 4 0.666667 4 0.666667 4C0.298667 4 0 3.70133 0 3.33333C0 2.96533 0.298667 2.66667 0.665333 2.66667L2.74267 2.664H2.74667C4.33067 2.664 5.70533 3.79067 6.016 5.344L9.32 21.8693C9.39333 22.2307 9.15867 22.5813 8.796 22.6533C8.75333 22.6627 8.70933 22.6667 8.66533 22.6667Z" fill="black"/>
<path d="M28.6667 25.3333H6C4.89733 25.3333 4 24.436 4 23.3333C4 22.2307 4.89733 21.3333 6 21.3333H8.66667C9.03467 21.3333 9.33333 21.632 9.33333 22C9.33333 22.368 9.03467 22.6667 8.66667 22.6667H6C5.63333 22.6667 5.33333 22.9653 5.33333 23.3333C5.33333 23.7013 5.63333 24 6 24H28.6667C29.0347 24 29.3333 24.2987 29.3333 24.6667C29.3333 25.0347 29.0347 25.3333 28.6667 25.3333Z" fill="black"/>
<path d="M10.6667 32C9.196 32 8 30.804 8 29.3333C8 27.8627 9.196 26.6667 10.6667 26.6667C12.1373 26.6667 13.3333 27.8627 13.3333 29.3333C13.3333 30.804 12.1373 32 10.6667 32ZM10.6667 28C9.93067 28 9.33333 28.5987 9.33333 29.3333C9.33333 30.068 9.93067 30.6667 10.6667 30.6667C11.4027 30.6667 12 30.068 12 29.3333C12 28.5987 11.4027 28 10.6667 28Z" fill="black"/>
<path d="M22.6667 32C21.196 32 20 30.804 20 29.3333C20 27.8627 21.196 26.6667 22.6667 26.6667C24.1373 26.6667 25.3333 27.8627 25.3333 29.3333C25.3333 30.804 24.1373 32 22.6667 32ZM22.6667 28C21.9307 28 21.3333 28.5987 21.3333 29.3333C21.3333 30.068 21.9307 30.6667 22.6667 30.6667C23.4027 30.6667 24 30.068 24 29.3333C24 28.5987 23.4027 28 22.6667 28Z" fill="black"/>
</svg>
