<svg xmlns="http://www.w3.org/2000/svg" width="110" height="110" viewBox="0 0 110 110">
  <g id="Group_38352" data-name="Group 38352" transform="translate(-1 -1)">
    <g id="Group_38351" data-name="Group 38351" transform="translate(1 1)">
      <circle id="Ellipse_574" data-name="Ellipse 574" cx="2" cy="2" r="2" transform="translate(21.05 39.022)" fill="#fe5b57"/>
      <circle id="Ellipse_575" data-name="Ellipse 575" cx="2" cy="2" r="2" transform="translate(35.028 39.022)" fill="#fe5b57"/>
      <path id="Path_106100" data-name="Path 106100" d="M107.452,50.677V8.1h-7.1V1H68.419V8.1h-7.1v21.29H55.267a10.928,10.928,0,0,0-10.333-7.13H44.3a25.819,25.819,0,0,0-17.854-7.1H23.66a17.335,17.335,0,0,0-16.67,22.1L8.9,43.928a7.007,7.007,0,0,0-.8,3.2,7.1,7.1,0,0,0,7.1,7.1h.142a12.443,12.443,0,0,0,7.8,9.8l-.612,3.059A32.864,32.864,0,0,0,1,97.958V111H111V50.677ZM71.968,4.548H96.806V8.1H71.968Zm-7.1,7.1H103.9V50.677H93.258V29.387H64.871ZM47.129,70.9A32.9,32.9,0,0,0,39.8,67.08l-.612-3.059a12.434,12.434,0,0,0,7.8-9.8h.142ZM38.7,70.483c.3.114.607.218.9.341l-.967,9.662-4.968-4.97Zm8.426-19.805v-7.1a3.548,3.548,0,0,1,0,7.1ZM23.658,18.706h2.787a22.3,22.3,0,0,1,15.879,6.577l.52.52h2.09a7.52,7.52,0,0,1,7.517,7.515,19.067,19.067,0,0,1-1.685,7.75,7.01,7.01,0,0,0-3.637-1.036,5.329,5.329,0,0,0-5.323-5.323H33.581A12.692,12.692,0,0,1,24.655,31a5.5,5.5,0,0,0-3.921-1.629h-.02a5.55,5.55,0,0,0-5.521,5.539v5.119a7,7,0,0,0-3.453.935L10.4,36.282A13.787,13.787,0,0,1,23.658,18.706ZM11.645,47.129a3.552,3.552,0,0,1,3.548-3.548v7.1A3.552,3.552,0,0,1,11.645,47.129Zm7.1,5.323V34.914a2,2,0,0,1,1.985-1.991h.007a1.98,1.98,0,0,1,1.409.585,16.261,16.261,0,0,0,11.438,4.75h8.225a1.775,1.775,0,0,1,1.774,1.774V52.452a8.881,8.881,0,0,1-8.871,8.871h-7.1a8.881,8.881,0,0,1-8.871-8.871Zm8.871,12.419h7.1c.344,0,.681-.023,1.018-.051l.6,3.018-5.17,5.17-5.17-5.17.6-3.018C26.932,64.848,27.269,64.871,27.613,64.871Zm1.04,10.645-4.97,4.97-.965-9.662c.3-.122.6-.229.9-.341ZM4.548,97.958A29.307,29.307,0,0,1,19.319,72.5L20.9,88.287,31.161,78.025,41.425,88.289,43,72.5a29.307,29.307,0,0,1,14.77,25.458v9.494h-7.1V89.71H47.129v17.742H15.194V89.71H11.645v17.742h-7.1Zm63.871,9.494h-7.1V97.958A32.864,32.864,0,0,0,50.677,73.719V53.239a7.074,7.074,0,0,0,3.548-6.11,7,7,0,0,0-.836-3.27l.229-.458A22.638,22.638,0,0,0,56,33.319c0-.128-.018-.255-.023-.383H89.71V50.677H68.419Zm28.387,0H82.613V93.258H96.806Zm10.645,0h-7.1V89.71H79.065v17.742h-7.1V54.226h35.484Z" transform="translate(-1 -1)" fill="#fe5b57"/>
      <path id="Path_106101" data-name="Path 106101" d="M30.543,30.087l.092-.274-3.369-1.132-.092.277a5.618,5.618,0,0,1-10.661,0l-.092-.274-3.369,1.132.092.27a9.171,9.171,0,0,0,17.4,0Z" transform="translate(8.324 20.426)" fill="#fe5b57"/>
      <path id="Path_106102" data-name="Path 106102" d="M71.43,33H43V43.661H71.43Zm-3.554,7.107H46.554V36.554H67.876Z" transform="translate(31.463 23.765)" fill="#fe5b57"/>
      <path id="Path_106103" data-name="Path 106103" d="M71.43,41H43V51.661H71.43Zm-3.554,7.107H46.554V44.554H67.876Z" transform="translate(31.463 29.956)" fill="#fe5b57"/>
      <path id="Path_106104" data-name="Path 106104" d="M39,9h3.554v3.554H39Z" transform="translate(28.416 5.215)" fill="#fe5b57"/>
      <path id="Path_106105" data-name="Path 106105" d="M47,9h3.554v3.554H47Z" transform="translate(34.609 5.215)" fill="#fe5b57"/>
      <path id="Path_106106" data-name="Path 106106" d="M55,9h3.554v3.554H55Z" transform="translate(40.785 5.215)" fill="#fe5b57"/>
      <path id="Path_106107" data-name="Path 106107" d="M51,9h3.554v3.554H51Z" transform="translate(37.678 5.215)" fill="#fe5b57"/>
      <path id="Path_106108" data-name="Path 106108" d="M43,9h3.554v3.554H43Z" transform="translate(31.512 5.215)" fill="#fe5b57"/>
      <path id="Path_106109" data-name="Path 106109" d="M39,13h3.554v3.554H39Z" transform="translate(28.416 8.289)" fill="#fe5b57"/>
      <path id="Path_106110" data-name="Path 106110" d="M47,13h3.554v3.554H47Z" transform="translate(34.609 8.289)" fill="#fe5b57"/>
      <path id="Path_106111" data-name="Path 106111" d="M51,13h3.554v3.554H51Z" transform="translate(37.678 8.289)" fill="#fe5b57"/>
      <path id="Path_106112" data-name="Path 106112" d="M55,13h3.554v3.554H55Z" transform="translate(40.785 8.289)" fill="#fe5b57"/>
      <path id="Path_106113" data-name="Path 106113" d="M43,13h3.554v3.554H43Z" transform="translate(31.512 8.289)" fill="#fe5b57"/>
      <path id="Path_106114" data-name="Path 106114" d="M55,25h3.554v3.554H55Z" transform="translate(40.785 17.579)" fill="#fe5b57"/>
      <path id="Path_106115" data-name="Path 106115" d="M55,17h3.554v3.554H55Z" transform="translate(40.785 11.386)" fill="#fe5b57"/>
      <path id="Path_106116" data-name="Path 106116" d="M55,21h3.554v3.554H55Z" transform="translate(40.785 14.482)" fill="#fe5b57"/>
      <path id="Path_106117" data-name="Path 106117" d="M39,21h3.554v3.554H39Z" transform="translate(28.416 14.482)" fill="#fe5b57"/>
      <path id="Path_106118" data-name="Path 106118" d="M43,21h3.554v3.554H43Z" transform="translate(31.512 14.482)" fill="#fe5b57"/>
      <path id="Path_106119" data-name="Path 106119" d="M47,21h3.554v3.554H47Z" transform="translate(34.609 14.482)" fill="#fe5b57"/>
      <path id="Path_106120" data-name="Path 106120" d="M35,21h3.554v3.554H35Z" transform="translate(25.32 14.482)" fill="#fe5b57"/>
      <path id="Path_106121" data-name="Path 106121" d="M35,25h3.554v3.554H35Z" transform="translate(25.32 17.579)" fill="#fe5b57"/>
      <path id="Path_106122" data-name="Path 106122" d="M47,25h3.554v3.554H47Z" transform="translate(34.609 17.579)" fill="#fe5b57"/>
      <path id="Path_106123" data-name="Path 106123" d="M43,25h3.554v3.554H43Z" transform="translate(31.512 17.579)" fill="#fe5b57"/>
      <path id="Path_106124" data-name="Path 106124" d="M39,25h3.554v3.554H39Z" transform="translate(28.416 17.579)" fill="#fe5b57"/>
      <path id="Path_106125" data-name="Path 106125" d="M35,29h3.554v3.554H35Z" transform="translate(25.32 20.675)" fill="#fe5b57"/>
      <path id="Path_106126" data-name="Path 106126" d="M31,29h3.554v3.554H31Z" transform="translate(22.223 20.675)" fill="#fe5b57"/>
      <path id="Path_106127" data-name="Path 106127" d="M35,33h3.554v3.554H35Z" transform="translate(25.32 23.771)" fill="#fe5b57"/>
      <path id="Path_106128" data-name="Path 106128" d="M31,33h3.554v3.554H31Z" transform="translate(22.223 23.771)" fill="#fe5b57"/>
      <path id="Path_106129" data-name="Path 106129" d="M31,37h3.554v3.554H31Z" transform="translate(22.223 26.868)" fill="#fe5b57"/>
      <path id="Path_106130" data-name="Path 106130" d="M35,37h3.554v3.554H35Z" transform="translate(25.32 26.868)" fill="#fe5b57"/>
      <path id="Path_106131" data-name="Path 106131" d="M31,41h3.554v3.554H31Z" transform="translate(22.223 29.964)" fill="#fe5b57"/>
      <path id="Path_106132" data-name="Path 106132" d="M35,41h3.554v3.554H35Z" transform="translate(25.32 29.964)" fill="#fe5b57"/>
    </g>
  </g>
</svg>
