<svg xmlns="http://www.w3.org/2000/svg" width="110" height="110" viewBox="0 0 110 110">
  <g id="Group_38357" data-name="Group 38357" transform="translate(0)">
    <path id="Path_106134" data-name="Path 106134" d="M110,46.129h-3.987l-5.942,3.127a8.82,8.82,0,0,0-2.115-.87l-7.474-1.87v-.85a12.459,12.459,0,0,0,5.324-10.182v-3.1A12.747,12.747,0,0,0,83.768,19.521c-.337-.009-.669,0-1,.02L84.7,15l-9.4-9.392-5.538,3.6a30.01,30.01,0,0,0-6.641-2.755L61.761,0H48.24L46.872,6.463a29.976,29.976,0,0,0-6.641,2.755l-5.538-3.6L25.305,15l1.905,4.54c-.073,0-.142-.016-.215-.018a12.424,12.424,0,0,0-12.8,12.412v3.548a12.454,12.454,0,0,0,5.323,10.18v.852L14.64,47.734,5.8,42.581H0V79.344l17.454,5.817h3.4l.424-1.487,5.35,3.211a5.524,5.524,0,0,0,5.327,5.352,5.523,5.523,0,0,0,5.323,5.323,5.523,5.523,0,0,0,5.323,5.323,5.518,5.518,0,0,0,8.628,4.381l1.571,1.388A5.4,5.4,0,0,0,56.369,110H56.7a5.4,5.4,0,0,0,5.392-5.33,5.4,5.4,0,0,0,5.323-5.323,5.4,5.4,0,0,0,5.323-5.328,5.456,5.456,0,0,0,5.33-5.444,5.194,5.194,0,0,0-.027-.532L110,72.064ZM92.258,32.382v3.1a8.9,8.9,0,0,1-4.441,7.677l-.887.513.007,5.615L95.8,51.5,76.29,61.772V56.992a8.828,8.828,0,0,0-2.541-6.183l6.089-1.521V43.67l-.885-.512a8.9,8.9,0,0,1-4.437-7.674V31.935a8.871,8.871,0,0,1,9.146-8.866,9.173,9.173,0,0,1,8.6,9.313ZM57.675,60.377,49.643,57.81a21.91,21.91,0,0,0-11.369-.518l-1.017.225v-.525a5.319,5.319,0,0,1,4.031-5.165l10.163-2.539V43.669l-.885-.512a8.9,8.9,0,0,1-4.437-7.674V31.935a8.871,8.871,0,0,1,9.146-8.866,9.173,9.173,0,0,1,8.6,9.313v3.1a8.9,8.9,0,0,1-4.441,7.677l-.887.513.007,5.615,10.161,2.539a5.319,5.319,0,0,1,4.031,5.165V63.64l-.438.23H71.216L60.308,60.754a11.184,11.184,0,0,0-2.634-.377ZM37.655,26.554a19.5,19.5,0,0,1,34.616-.143,12.339,12.339,0,0,0-1.3,5.524v3.548a12.454,12.454,0,0,0,5.323,10.18v.852l-7.1,1.777-7.1-1.777v-.85a12.459,12.459,0,0,0,5.324-10.182v-3.1A12.747,12.747,0,0,0,55.381,19.521a12.422,12.422,0,0,0-12.8,12.414v3.548A12.454,12.454,0,0,0,47.9,45.664v.852l-7.1,1.777-7.1-1.777v-.85a12.459,12.459,0,0,0,5.324-10.182v-3.1a13.077,13.077,0,0,0-1.377-5.829ZM29.5,15.824l5.668-5.668L40.153,13.4l.955-.586A26.475,26.475,0,0,1,48.79,9.63l1.092-.262,1.234-5.821h7.769l1.231,5.819,1.092.261a26.5,26.5,0,0,1,7.682,3.187l.955.586,4.989-3.247L80.5,15.817l-2.012,4.712a12.4,12.4,0,0,0-3.745,2.49c-.073.071-.135.147-.206.22a23.041,23.041,0,0,0-39.131.107,12.514,12.514,0,0,0-3.914-2.775ZM23.064,49.288V43.669l-.885-.512a8.9,8.9,0,0,1-4.437-7.674V31.935a8.871,8.871,0,0,1,9.146-8.866,9.173,9.173,0,0,1,8.6,9.313v3.1a8.9,8.9,0,0,1-4.441,7.677l-.887.513.007,5.615L36.25,50.81a8.828,8.828,0,0,0-2.541,6.183v1.314l-5.534,1.23.144-.5.068-3.279L19.03,50.3ZM3.548,46.129H4.841L17.6,53.571,11.163,79.324,3.548,76.785ZM18.029,81.613l-3.492-1.163,6.255-25.016,4.047,2.36V58.3l-6.66,23.313ZM30.161,86.72a2,2,0,0,1,.582-1.407l3.119-3.119a1.99,1.99,0,0,1,2.814,2.814l-3.119,3.119a1.99,1.99,0,0,1-3.4-1.407Zm5.323,5.323a2,2,0,0,1,.582-1.407l3.119-3.119A1.99,1.99,0,0,1,42,90.331L38.879,93.45a1.99,1.99,0,0,1-3.4-1.407Zm5.323,5.323a2,2,0,0,1,.582-1.407l3.119-3.119a1.99,1.99,0,0,1,2.814,2.814L44.2,98.773a1.99,1.99,0,0,1-3.4-1.407Zm7.312,7.312a1.99,1.99,0,0,1-1.407-3.4l3.119-3.119a1.99,1.99,0,0,1,2.814,2.814L49.525,104.1A2,2,0,0,1,48.118,104.677Zm8.58,1.774h-.328a1.839,1.839,0,0,1-1.222-.463l-1.327-1.17,1.332-1.332a5.516,5.516,0,0,0,1.118-1.649l1.613,1.343a1.851,1.851,0,0,1-1.185,3.272ZM72.608,90.484H72.3a1.9,1.9,0,0,1-1.221-.444L61.46,82.023,59.187,84.75l9.343,7.785a1.852,1.852,0,0,1-1.187,3.272h-.387a1.85,1.85,0,0,1-1.183-.43l-9.637-8.03-2.273,2.727,9.343,7.785a1.849,1.849,0,0,1-1.185,3.269,2.93,2.93,0,0,1-1.867-.676l-3.96-3.3a5.519,5.519,0,0,0-4.764-3.1,5.523,5.523,0,0,0-5.323-5.323,5.523,5.523,0,0,0-5.323-5.323,5.524,5.524,0,0,0-9.431-3.721L28.234,82.8a5.467,5.467,0,0,0-.5.607l-5.45-3.27L27.065,63.42l11.978-2.663a18.277,18.277,0,0,1,9.519.431l2.614.836-8.861,4.43a5.914,5.914,0,0,0-3.282,5.316v.351a5.942,5.942,0,0,0,9,5.1l6.606-3.962a3.662,3.662,0,0,1,4.254.41L73.884,87.155a1.91,1.91,0,0,1-1.276,3.328Zm33.843-20.613L76.561,84.817c-.1-.1-.2-.2-.3-.3L61.268,71.03a7.14,7.14,0,0,0-8.456-.818L46.2,74.176a2.393,2.393,0,0,1-3.623-2.055V71.77A2.38,2.38,0,0,1,43.9,69.628l9.9-4.948a7.711,7.711,0,0,1,5.53-.513L70.48,67.352l2.7.068,33.271-17.511Zm0,0" fill="#fe5b57"/>
  </g>
</svg>
