<svg xmlns="http://www.w3.org/2000/svg" width="110.714" height="110.802" viewBox="0 0 110.714 110.802">
  <g id="Group_38359" data-name="Group 38359" transform="translate(-0.203)">
    <g id="Group_38358" data-name="Group 38358" transform="translate(0.203 0)">
      <path id="Path_106135" data-name="Path 106135" d="M110.917,297.822v-9.75h-10.4v-6.5H97.051v-5.417h3.467v-9.75H74.6v3.25H97.267v3.25H30.025v3.25H93.8v5.417H23.061a2.708,2.708,0,1,1,0-5.417h3.714v-3.25H23.061a5.958,5.958,0,0,0,0,11.916H97.267v3.25H41.26v3.25h66.407v3.25H15.911a9.208,9.208,0,0,0,0,18.416H92.454v-3.25H15.911a5.958,5.958,0,0,1,0-11.916H104.2v5.417H32.161v3.25H104.2v3.25H95.7v3.25h11.963v3.25H15.911a12.458,12.458,0,1,1,0-24.916h22.1v-3.25H23.061a9.208,9.208,0,0,1,0-18.416H71.345v-3.25H23.061a12.452,12.452,0,0,0-8.327,21.715,15.706,15.706,0,0,0,1.177,31.367h95.006v-9.75h-3.467V297.822Z" transform="translate(-0.203 -208.686)" fill="#fe5b57"/>
      <path id="Path_106136" data-name="Path 106136" d="M117.7,436.406h3.25v3.25H117.7Z" transform="translate(-92.245 -341.854)" fill="#fe5b57"/>
      <path id="Path_106137" data-name="Path 106137" d="M70.666,48.3l.724.483c.282.188,7.112,4.606,24.734,4.606s24.452-4.418,24.734-4.606l.724-.483V20.939l9.75-3.25V33.031A5.968,5.968,0,0,0,127,38.762v8.125h11.916V38.762a5.968,5.968,0,0,0-4.333-5.731V16.606l5.68-1.893L123.2,9.024l-1.028,3.083,7.816,2.605L96.124,26,62.263,14.713,96.124,3.426l22.961,7.654L120.113,8,96.124,0,51.986,14.713l18.68,6.227Zm65-9.536v4.875h-5.417V38.762a2.708,2.708,0,1,1,5.417,0ZM73.916,22.023l22.208,7.4,22.208-7.4V34.754h-4.008V38h4.008v3.25H111.29V44.5h7.042v1.959c-2.094,1.02-8.832,3.674-22.208,3.674S76,47.478,73.916,46.464Z" transform="translate(-40.767 0)" fill="#fe5b57"/>
      <path id="Path_106138" data-name="Path 106138" d="M87.7,436.406h3.25v3.25H87.7Z" transform="translate(-68.745 -341.854)" fill="#fe5b57"/>
      <path id="Path_106139" data-name="Path 106139" d="M295.7,190.406h3.25v3.25H295.7Z" transform="translate(-231.679 -149.152)" fill="#fe5b57"/>
    </g>
  </g>
</svg>
