<svg xmlns="http://www.w3.org/2000/svg" width="31.512" height="31.512" viewBox="0 0 31.512 31.512">
  <g id="Group_38334" data-name="Group 38334" transform="translate(0)">
    <path id="Path_106037" data-name="Path 106037" d="M28.841,66.89l-1.261-.456v-4.8a4.684,4.684,0,1,0-9.368,0v4.8l-.887.321a6.506,6.506,0,0,0-1.765-.971l-4.235-1.532V62.881h0a3.873,3.873,0,0,0,1.781-3.257V54.615A.615.615,0,0,0,12.49,54H8.065a2.709,2.709,0,0,0-2.706,2.706v2.917A3.873,3.873,0,0,0,7.14,62.88h0v1.371L2.846,65.805A4.324,4.324,0,0,0,0,69.86v9.178a3.154,3.154,0,0,0,3.15,3.15H28.362a3.154,3.154,0,0,0,3.15-3.15V70.7a4.059,4.059,0,0,0-2.671-3.807Zm-9.4-5.252a3.453,3.453,0,0,1,6.906,0v7.311a3.453,3.453,0,0,1-6.906,0ZM6.59,56.706a1.477,1.477,0,0,1,1.475-1.475h3.81v4.392a2.643,2.643,0,1,1-5.285,0ZM9.232,63.5a3.872,3.872,0,0,0,.862-.1v.733H8.371V63.4A3.872,3.872,0,0,0,9.232,63.5ZM3.57,73.918a.615.615,0,0,0-.615.615v6.414a1.922,1.922,0,0,1-1.723-1.909V69.86a3.089,3.089,0,0,1,2.033-2.9l4.423-1.6h3.089l4.364,1.578a5.274,5.274,0,0,1,3.11,3.022l1.442,3.654a3.389,3.389,0,0,0,2.422,2.068l4.152.92a.88.88,0,0,1-.273,1.735l-5.165-.486a4.284,4.284,0,0,1-3.156-1.869l-2.269-3.351a.615.615,0,0,0-1.126.343v7.981H4.185V74.533a.615.615,0,0,0-.615-.615Zm11.94,1.065,1.145,1.691a5.548,5.548,0,0,0,.948,1.071v3.211H15.51Zm3.324,3.574a5.539,5.539,0,0,0,1.881.522l5.165.486a2.117,2.117,0,0,0,1.078-.183v1.575H18.833Zm11.448.48a1.921,1.921,0,0,1-1.919,1.919h-.173V77.464A2.1,2.1,0,0,0,26.534,75.4l-4.152-.92a2.16,2.16,0,0,1-1.544-1.317l0-.013a4.682,4.682,0,0,0,6.746-4.2V67.743l.843.3A2.824,2.824,0,0,1,30.281,70.7Zm0,0" transform="translate(0 -50.676)"/>
    <path id="Path_106038" data-name="Path 106038" d="M362.615,140.426a1.165,1.165,0,0,1,1.164,1.164.615.615,0,1,0,1.231,0,2.4,2.4,0,0,0-2.395-2.395.615.615,0,1,0,0,1.231Zm0,0" transform="translate(-339.72 -130.628)"/>
    <path id="Path_106039" data-name="Path 106039" d="M49.051,339.81a.615.615,0,1,0,.18.435A.618.618,0,0,0,49.051,339.81Zm0,0" transform="translate(-45.046 -318.726)"/>
    <path id="Path_106040" data-name="Path 106040" d="M443.193,2.4h.554v.554a.615.615,0,0,0,1.231,0V2.4h.554a.615.615,0,1,0,0-1.231h-.554V.615a.615.615,0,0,0-1.231,0v.554h-.554a.615.615,0,1,0,0,1.231Zm0,0" transform="translate(-415.339)"/>
    <path id="Path_106041" data-name="Path 106041" d="M254.615,37.416h.554v.554a.615.615,0,1,0,1.231,0v-.554h.554a.615.615,0,1,0,0-1.231H256.4v-.554a.615.615,0,1,0-1.231,0v.554h-.554a.615.615,0,1,0,0,1.231Zm0,0" transform="translate(-238.367 -32.861)"/>
    <path id="Path_106042" data-name="Path 106042" d="M391.525,209.629a.616.616,0,1,0,.435.18A.618.618,0,0,0,391.525,209.629Zm0,0" transform="translate(-366.851 -196.727)"/>
  </g>
</svg>
