<svg xmlns="http://www.w3.org/2000/svg" width="31.566" height="31.566" viewBox="0 0 31.566 31.566">
  <g id="Group_38350" data-name="Group 38350" transform="translate(-1 -1)">
    <path id="Path_106083" data-name="Path 106083" d="M15,57h3.055v1.018H15Z" transform="translate(-6.872 -27.488)"/>
    <path id="Path_106084" data-name="Path 106084" d="M31.532,15.765h.016V13.728A2.549,2.549,0,0,0,29,11.183h-.032c.013-.17.032-.338.032-.509A6.609,6.609,0,0,0,18.311,5.467V3.546A2.549,2.549,0,0,0,15.765,1H3.546A2.549,2.549,0,0,0,1,3.546V30.021a2.549,2.549,0,0,0,2.546,2.546H15.765a2.549,2.549,0,0,0,2.546-2.546v-.509h11.71a2.549,2.549,0,0,0,2.546-2.546V17.8A2.537,2.537,0,0,0,31.532,15.765ZM29,12.2a1.529,1.529,0,0,1,1.527,1.527v1.579a2.543,2.543,0,0,0-.509-.051H27.146A6.588,6.588,0,0,0,28.819,12.2ZM22.384,5.073a5.594,5.594,0,0,1,3.205,10.183h-2.7V14.165a2.032,2.032,0,0,0-.509-4A1.018,1.018,0,1,1,23.4,9.146H24.42a2.035,2.035,0,0,0-1.527-1.964V6.091H21.875V7.182a2.032,2.032,0,0,0,.509,4A1.018,1.018,0,1,1,21.365,12.2H20.347a2.035,2.035,0,0,0,1.527,1.964v1.091h-2.7A5.594,5.594,0,0,1,22.384,5.073Zm-10.131,22.4H2.018V5.073H17.292V6.45a6.587,6.587,0,0,0-1.527,4.223c0,.172.018.34.032.509h-1.05A2.549,2.549,0,0,0,12.2,13.728V26.966A2.543,2.543,0,0,0,12.252,27.475ZM14.747,12.2h1.2a6.6,6.6,0,0,0,.333,1.018H14.747v1.018h2.037v-.059a6.568,6.568,0,0,0,.839,1.077H14.747a1.527,1.527,0,0,1,0-3.055ZM3.546,2.018H15.765a1.529,1.529,0,0,1,1.527,1.527v.509H2.018V3.546A1.529,1.529,0,0,1,3.546,2.018Zm13.747,28a1.529,1.529,0,0,1-1.527,1.527H3.546a1.529,1.529,0,0,1-1.527-1.527V28.493H12.71v-.016a2.537,2.537,0,0,0,2.037,1.034h2.546Zm12.728-1.527H14.747a1.529,1.529,0,0,1-1.527-1.527v-11.2a2.535,2.535,0,0,0,1.527.51H30.021A1.529,1.529,0,0,1,31.548,17.8v1.527h-6.11a3.055,3.055,0,0,0,0,6.11h6.11v1.527A1.529,1.529,0,0,1,30.021,28.493Zm1.527-8.146V24.42h-6.11a2.037,2.037,0,1,1,0-4.073Z"/>
    <path id="Path_106085" data-name="Path 106085" d="M47,42h1.018v1.018H47Z" transform="translate(-22.58 -20.125)"/>
    <path id="Path_106086" data-name="Path 106086" d="M50,19h1.018v1.018H50Z" transform="translate(-24.052 -8.836)"/>
    <path id="Path_106087" data-name="Path 106087" d="M34,19h1.018v1.018H34Z" transform="translate(-16.199 -8.836)"/>
    <path id="Path_106088" data-name="Path 106088" d="M59,11h1.018v1.018H59Z" transform="translate(-28.47 -4.909)"/>
    <path id="Path_106089" data-name="Path 106089" d="M59,15h1.018v1.018H59Z" transform="translate(-28.47 -6.872)"/>
    <path id="Path_106090" data-name="Path 106090" d="M61,13h1.018v1.018H61Z" transform="translate(-29.452 -5.89)"/>
    <path id="Path_106091" data-name="Path 106091" d="M57,13h1.018v1.018H57Z" transform="translate(-27.488 -5.89)"/>
    <path id="Path_106092" data-name="Path 106092" d="M25,13h1.018v1.018H25Z" transform="translate(-11.781 -5.89)"/>
    <path id="Path_106093" data-name="Path 106093" d="M25,17h1.018v1.018H25Z" transform="translate(-11.781 -7.854)"/>
    <path id="Path_106094" data-name="Path 106094" d="M27,15h1.018v1.018H27Z" transform="translate(-12.762 -6.872)"/>
    <path id="Path_106095" data-name="Path 106095" d="M23,15h1.018v1.018H23Z" transform="translate(-10.799 -6.872)"/>
    <path id="Path_106096" data-name="Path 106096" d="M51,1h1.018V2.018H51Z" transform="translate(-24.543)"/>
    <path id="Path_106097" data-name="Path 106097" d="M51,5h1.018V6.018H51Z" transform="translate(-24.543 -1.963)"/>
    <path id="Path_106098" data-name="Path 106098" d="M53,3h1.018V4.018H53Z" transform="translate(-25.525 -0.982)"/>
    <path id="Path_106099" data-name="Path 106099" d="M49,3h1.018V4.018H49Z" transform="translate(-23.561 -0.982)"/>
  </g>
</svg>
