<svg xmlns="http://www.w3.org/2000/svg" width="32.151" height="32.152" viewBox="0 0 32.151 32.152">
  <g id="Group_38348" data-name="Group 38348" transform="translate(0 0.002)">
    <g id="Group_38347" data-name="Group 38347" transform="translate(0 -0.002)">
      <path id="Path_106071" data-name="Path 106071" d="M27.4,20.88l3.818-3.818a.689.689,0,1,0-.975-.975l-3.818,3.818a.689.689,0,1,0,.974.975Z" transform="translate(-13.048 -7.904)"/>
      <path id="Path_106072" data-name="Path 106072" d="M40.139,23.035A.84.84,0,1,0,39.3,22.2a.84.84,0,0,0,.839.839Z" transform="translate(-19.557 -10.626)"/>
      <path id="Path_106073" data-name="Path 106073" d="M31.462,14.359h-.279a.337.337,0,0,1-.238-.575l1-1a.688.688,0,0,0,0-.974L30.462,10.32a.689.689,0,0,0-.868-.088,1.863,1.863,0,0,1-1.03.308,1.944,1.944,0,0,1-1.9-1.628,1.676,1.676,0,0,1,.328-1.276.692.692,0,0,0-.085-.872L25.385,5.242a.688.688,0,0,0-.868-.087,1.865,1.865,0,0,1-1.032.309,1.936,1.936,0,0,1-1.893-1.625,1.715,1.715,0,0,1,.327-1.284.69.69,0,0,0-.088-.866L20.345.2a.689.689,0,0,0-.975,0L5.309,14.261a.336.336,0,0,1-.238.1H.689A.689.689,0,0,0,0,15.049v2.1a.693.693,0,0,0,.559.676,1.909,1.909,0,0,1,1.043,3.1A1.708,1.708,0,0,1,.547,21.5.692.692,0,0,0,0,22.177v2.155a.693.693,0,0,0,.559.676,1.909,1.909,0,0,1,1.043,3.1,1.708,1.708,0,0,1-1.054.572A.692.692,0,0,0,0,29.357v2.1a.689.689,0,0,0,.689.689H31.462a.689.689,0,0,0,.689-.689v-2.1a.7.7,0,0,0-.561-.678,1.909,1.909,0,0,1-1.041-3.1,1.708,1.708,0,0,1,1.055-.572.692.692,0,0,0,.547-.674V22.177a.7.7,0,0,0-.561-.677,1.909,1.909,0,0,1-1.041-3.1,1.711,1.711,0,0,1,1.055-.572.69.69,0,0,0,.547-.674v-2.1a.691.691,0,0,0-.689-.689ZM7.736,13.785,19.619,1.9a.337.337,0,0,1,.476,0c.119.151.427.3.324.6A3.253,3.253,0,0,0,23.49,6.839c.982,0,1.167-.377,1.438-.107.324.379.68.526.569.84a3.256,3.256,0,0,0,3.069,4.346c.972,0,1.168-.378,1.438-.109.092.105.553.414.246.721l-1.016,1.017-.5.5a1.069,1.069,0,0,1-.756.313H7.972a.337.337,0,0,1-.236-.575Zm23.036,2.636a.336.336,0,0,1-.17.292,3.588,3.588,0,0,0-1.034.732,3.279,3.279,0,0,0,1,5.154.344.344,0,0,1,.2.308v.624a.378.378,0,0,1-.2.378,3.279,3.279,0,0,0-1,5.154A3.588,3.588,0,0,0,30.6,29.8a.337.337,0,0,1,.17.293c-.021.1.115.683-.337.683H1.715c-.464,0-.311-.569-.336-.683a.338.338,0,0,1,.17-.293,3.589,3.589,0,0,0,1.035-.732,3.279,3.279,0,0,0-1-5.153.344.344,0,0,1-.2-.308v-.624a.377.377,0,0,1,.2-.378,3.28,3.28,0,0,0,1-5.154,3.589,3.589,0,0,0-1.035-.732.336.336,0,0,1-.17-.292c.021-.1-.115-.683.336-.683H30.436c.465,0,.311.569.337.683Z" transform="translate(0 0.002)"/>
      <path id="Path_106074" data-name="Path 106074" d="M14.875,38.135H31.413a.689.689,0,1,0,0-1.378H14.875a.689.689,0,0,0,0,1.378Z" transform="translate(-7.069 -18.291)"/>
      <path id="Path_106075" data-name="Path 106075" d="M31.394,53.089H14.856a.689.689,0,0,0,0,1.378H31.394a.689.689,0,1,0,0-1.378Z" transform="translate(-7.05 -26.418)"/>
      <path id="Path_106076" data-name="Path 106076" d="M14.707,46.3a.84.84,0,1,0-.84-.84A.84.84,0,0,0,14.707,46.3Z" transform="translate(-6.901 -22.204)"/>
      <path id="Path_106077" data-name="Path 106077" d="M19.354,45.461a.84.84,0,1,0,.84-.84.84.84,0,0,0-.84.84Z" transform="translate(-9.631 -22.204)"/>
      <path id="Path_106078" data-name="Path 106078" d="M24.841,45.461a.84.84,0,1,0,.84-.84.84.84,0,0,0-.84.84Z" transform="translate(-12.362 -22.204)"/>
      <path id="Path_106079" data-name="Path 106079" d="M30.327,45.461a.84.84,0,1,0,.84-.84.84.84,0,0,0-.84.84Z" transform="translate(-15.092 -22.204)"/>
      <path id="Path_106080" data-name="Path 106080" d="M35.814,45.461a.84.84,0,1,0,.84-.84.84.84,0,0,0-.84.84Z" transform="translate(-17.823 -22.204)"/>
      <path id="Path_106081" data-name="Path 106081" d="M41.3,45.461a.84.84,0,1,0,.84-.84.84.84,0,0,0-.84.84Z" transform="translate(-20.553 -22.204)"/>
      <path id="Path_106082" data-name="Path 106082" d="M47.628,44.621a.84.84,0,1,0,.84.84.84.84,0,0,0-.84-.84Z" transform="translate(-23.283 -22.204)"/>
    </g>
  </g>
</svg>
