<svg id="Group_38343" data-name="Group 38343" xmlns="http://www.w3.org/2000/svg" width="32" height="32" viewBox="0 0 32 32">
  <g id="Group_38337" data-name="Group 38337" transform="translate(0)">
    <path id="Path_106043" data-name="Path 106043" d="M18.257,0H2.494A2.437,2.437,0,0,0,0,2.37V28.776a2.437,2.437,0,0,0,2.494,2.37H12.02a.339.339,0,1,0,0-.677H2.494A1.741,1.741,0,0,1,.713,28.776V2.37A1.741,1.741,0,0,1,2.494.677H7.311v1.4H2.288a.348.348,0,0,0-.356.339V28.726a.348.348,0,0,0,.356.339h9.358a.339.339,0,1,0,0-.677h-9V2.758H7.338a1.13,1.13,0,0,0,1.113.849H12.3a1.13,1.13,0,0,0,1.113-.849h4.694V15.451a.357.357,0,0,0,.713,0V2.419a.348.348,0,0,0-.356-.339H13.441V.677h4.817A1.741,1.741,0,0,1,20.039,2.37V15.546a.357.357,0,0,0,.713,0V2.37A2.437,2.437,0,0,0,18.257,0ZM12.728,2.524a.418.418,0,0,1-.428.406H8.451a.418.418,0,0,1-.428-.406V.677h4.7Z" transform="translate(0)"/>
    <g id="Group_38336" data-name="Group 38336" transform="translate(4.322 4.505)">
      <path id="Path_106044" data-name="Path 106044" d="M75.491,63.3a.356.356,0,0,0-.448.008L70.681,66.97a9.7,9.7,0,0,1-4.473,1.993,1.463,1.463,0,0,0,.211,2.9h2.912A2.492,2.492,0,0,0,71.219,71l2.514-2.914a9.966,9.966,0,0,1,.48,3.418.356.356,0,0,0,.356.361h1.265a.356.356,0,0,0,.355-.383,12.2,12.2,0,0,1,.47-4.392,5.244,5.244,0,0,0,.107-.766A3.348,3.348,0,0,0,75.491,63.3ZM70.68,70.534a1.78,1.78,0,0,1-1.349.618H66.419a.748.748,0,0,1-.111-1.483,10.41,10.41,0,0,0,4.812-2.136l.013-.011,4.135-3.476a2.637,2.637,0,0,1,.79,2.2l-.039.356-2.232.447a.356.356,0,0,0-.2.117Zm4.776.618H74.93a9.894,9.894,0,0,0-.589-3.488l1.505-.3A12.9,12.9,0,0,0,75.456,71.152Z" transform="translate(-64.695 -63.221)"/>
      <path id="Path_106045" data-name="Path 106045" d="M72.015,268a6.008,6.008,0,0,0-3.519-1.129h-3.5A6.214,6.214,0,0,0,61.408,268a2.8,2.8,0,0,0-.032,3.795,2.514,2.514,0,0,0,3.645-.033,5.7,5.7,0,0,0,.969-2.71,1.564,1.564,0,0,1,1.522-.011,5.783,5.783,0,0,0,.949,2.717,2.5,2.5,0,0,0,1.821.816,2.386,2.386,0,0,0,1.764-.782A2.836,2.836,0,0,0,72.015,268ZM64.5,271.267a1.8,1.8,0,0,1-2.61.033,2.074,2.074,0,0,1,.032-2.815,5.632,5.632,0,0,1,3.067-.9H65a.392.392,0,0,1,.368.409A6.52,6.52,0,0,1,64.5,271.267Zm2.928-3.048a2.212,2.212,0,0,0-1.359.025c0-.091.007-.177.007-.255a1.151,1.151,0,0,0-.075-.4H67.5a1.164,1.164,0,0,0-.073.4C67.426,268.06,67.428,268.137,67.432,268.219Zm4.092,3.084a1.727,1.727,0,0,1-2.54-.033,6.632,6.632,0,0,1-.845-3.279.386.386,0,0,1,.353-.409H68.5a5.418,5.418,0,0,1,2.995.9,2.111,2.111,0,0,1,.031,2.821Z" transform="translate(-60.649 -252.358)"/>
    </g>
  </g>
  <g id="Group_38338" data-name="Group 38338" transform="translate(21.409 5.515)">
    <path id="Path_106046" data-name="Path 106046" d="M433.034,173.1a.356.356,0,0,0-.356.356v.473a.356.356,0,0,0,.713,0v-.473A.356.356,0,0,0,433.034,173.1Z" transform="translate(-424.888 -166.689)"/>
    <path id="Path_106047" data-name="Path 106047" d="M433.034,206.1a.356.356,0,0,0-.356.356v.4a.356.356,0,1,0,.713,0v-.4A.356.356,0,0,0,433.034,206.1Z" transform="translate(-424.888 -197.338)"/>
    <path id="Path_106048" data-name="Path 106048" d="M447.114,192.424h-.4a.356.356,0,1,0,0,.713h.4a.356.356,0,0,0,0-.713Z" transform="translate(-437.592 -184.634)"/>
    <path id="Path_106049" data-name="Path 106049" d="M414.114,192.424h-.4a.356.356,0,0,0,0,.713h.4a.356.356,0,0,0,0-.713Z" transform="translate(-406.943 -184.634)"/>
    <path id="Path_106050" data-name="Path 106050" d="M343.034,83.1a.356.356,0,0,0-.356.356v.473a.356.356,0,1,0,.713,0v-.473A.356.356,0,0,0,343.034,83.1Z" transform="translate(-341.301 -83.102)"/>
    <path id="Path_106051" data-name="Path 106051" d="M343.034,116.1a.356.356,0,0,0-.356.356v.4a.356.356,0,1,0,.713,0v-.4A.356.356,0,0,0,343.034,116.1Z" transform="translate(-341.301 -113.751)"/>
    <path id="Path_106052" data-name="Path 106052" d="M357.114,102.424h-.4a.356.356,0,1,0,0,.713h.4a.356.356,0,0,0,0-.713Z" transform="translate(-354.005 -101.047)"/>
    <path id="Path_106053" data-name="Path 106053" d="M324.114,102.424h-.4a.356.356,0,1,0,0,.713h.4a.356.356,0,0,0,0-.713Z" transform="translate(-323.356 -101.047)"/>
  </g>
  <g id="Group_38339" data-name="Group 38339" transform="translate(3.962 12.989)">
    <path id="Path_106054" data-name="Path 106054" d="M87.709,215.358H78.857a.356.356,0,1,0,0,.713h8.851a.356.356,0,0,0,0-.713Z" transform="translate(-78.501 -214.634)"/>
    <path id="Path_106055" data-name="Path 106055" d="M87.709,372.358H78.857a.356.356,0,1,0,0,.713h8.851a.356.356,0,0,0,0-.713Z" transform="translate(-78.501 -360.447)"/>
    <path id="Path_106056" data-name="Path 106056" d="M245.791,220.639a.356.356,0,0,0-.356-.352h0a.356.356,0,0,0-.352.361c.019,1.561-.347,2.671-.933,2.828l-.046.009-.494-4.158.448-.13a1.792,1.792,0,0,0,1.224-2.17l-1.026-3.841a1.786,1.786,0,0,0-.9-1.12l-2.771-1.442s-.138-.494-.154-.522v-1.555a3.349,3.349,0,1,0-6.7,0v2.963h-.793a1.634,1.634,0,0,0-1.134.458c-1.125.845-2.216,2.831-2.851,5.194-.691,2.57-.687,5.011.011,6.22a1.5,1.5,0,0,0,1.271.826c.03,0,13.987-.015,14.095-.043C245.283,223.909,245.815,222.624,245.791,220.639Zm-5.3-7.594a1.165,1.165,0,1,0,1.9.9,1.175,1.175,0,0,0-1.23-1.162l-.327-1.233,2.195,1.142a1.071,1.071,0,0,1,.539.672l1.026,3.841a1.075,1.075,0,0,1-.734,1.3l-2.695.783a1.084,1.084,0,0,1-1.331-.751l-1.019-3.816a1.076,1.076,0,0,1,.108-.812l1.236-2.128Zm.28.9a.453.453,0,1,1,.453.453A.454.454,0,0,1,240.769,213.949Zm-8.751-.912a.927.927,0,0,1,.92-.817h.793v.649a.356.356,0,0,0,.713,0v-.649h2.976a.356.356,0,0,0,0-.713h-2.976v-2.963a2.636,2.636,0,0,1,5.273,0v2.58l-1.413,2.434a1.793,1.793,0,0,0-.18,1.354l.3,1.136h-.99v-.37a.356.356,0,1,0-.713,0v.37h-5.063Zm-1.958,10.429a.9.9,0,0,1-.479-.443c-.6-1.037-.575-3.32.059-5.679a12.8,12.8,0,0,1,1.585-3.679Zm.714.028.8-6.733h5.148v.37a.356.356,0,1,0,.713,0v-.37h1.181l.525,1.967a1.8,1.8,0,0,0,2.218,1.251l1.553-.451.472,3.967Z" transform="translate(-217.753 -205.196)"/>
  </g>
  <g id="Group_38340" data-name="Group 38340" transform="translate(17.105 16.949)">
    <ellipse id="Ellipse_571" data-name="Ellipse 571" cx="0.46" cy="0.46" rx="0.46" ry="0.46"/>
  </g>
  <g id="Group_38341" data-name="Group 38341" transform="translate(20.395 22.273)">
    <ellipse id="Ellipse_572" data-name="Ellipse 572" cx="0.46" cy="0.46" rx="0.46" ry="0.46"/>
  </g>
  <g id="Group_38342" data-name="Group 38342" transform="translate(12.844 30.329)">
    <ellipse id="Ellipse_573" data-name="Ellipse 573" cx="0.46" cy="0.46" rx="0.46" ry="0.46"/>
  </g>
</svg>
