<svg xmlns="http://www.w3.org/2000/svg" xmlns:xlink="http://www.w3.org/1999/xlink" width="72" height="72" viewBox="0 0 72 72">
  <defs>
    <clipPath id="clip-path">
      <rect id="Rectangle_12962" data-name="Rectangle 12962" width="53" height="72" transform="translate(0.002 0.144)" fill="#fff"/>
    </clipPath>
  </defs>
  <g id="Group_39471" data-name="Group 39471" transform="translate(-1592 -4232)">
    <rect id="Rectangle_12963" data-name="Rectangle 12963" width="72" height="72" transform="translate(1592 4232)" fill="none"/>
    <g id="logos_firebase" transform="translate(1601.998 4231.856)" clip-path="url(#clip-path)">
      <path id="Path_106190" data-name="Path 106190" d="M0,58.286l.436-.612L21.075,18.436l.044-.415L12.021.9a1.688,1.688,0,0,0-3.159.534Z" transform="translate(0.006 -0.003)" fill="#ffc24a"/>
      <path id="Path_106191" data-name="Path 106191" d="M109.118,70.059l6.774-6.951-6.776-12.961a1.744,1.744,0,0,0-3.075,0l-3.62,6.918v.589l6.7,12.406Z" transform="translate(-81.362 -39.09)" fill="#f4bd62"/>
      <path id="Path_106192" data-name="Path 106192" d="M0,127.452l.2-.2.719-.292L27.325,100.6l.335-.913L21.072,87.105Z" transform="translate(0.006 -69.168)" fill="#f6820c"/>
      <path id="Path_106193" data-name="Path 106193" d="M28.6,128.378l23.9-13.356L45.672,72.9A1.633,1.633,0,0,0,42.9,72.01L0,115.083l23.763,13.294a4.95,4.95,0,0,0,4.833,0" transform="translate(0.006 -56.799)" fill="#fde068"/>
      <path id="Path_106194" data-name="Path 106194" d="M53.308,115.685l-6.773-41.8a1.434,1.434,0,0,0-2.488-.911L1.29,115.775l23.5,13.163a4.913,4.913,0,0,0,4.8,0l23.719-13.255Z" transform="translate(-1.019 -57.574)" fill="#fcca3f"/>
      <path id="Path_106195" data-name="Path 106195" d="M28.6,294.275a4.95,4.95,0,0,1-4.833,0L.192,281.171l-.191.2,23.763,13.294a4.95,4.95,0,0,0,4.833,0l23.9-13.356-.059-.361L28.6,294.275Z" transform="translate(0.005 -223.09)" fill="#eeab37"/>
    </g>
  </g>
</svg>
