<svg xmlns="http://www.w3.org/2000/svg" width="73.059" height="73.242" viewBox="0 0 73.059 73.242">
  <g id="Group_39470" data-name="Group 39470" transform="matrix(1, 0.017, -0.017, 1, 1.07, -0.003)">
    <rect id="Rectangle_12952" data-name="Rectangle 12952" width="71.814" height="72" transform="translate(0.186)" fill="none"/>
    <g id="golang.3e1bb100" transform="translate(0 22.341)">
      <path id="Path_106174" data-name="Path 106174" d="M5.423,33.131c-.14,0-.175-.07-.105-.175l.735-.945a.5.5,0,0,1,.387-.175H18.934c.14,0,.175.1.1.21l-.6.909a.534.534,0,0,1-.35.21L5.423,33.131ZM.14,36.35c-.14,0-.175-.07-.105-.175l.735-.945a.5.5,0,0,1,.387-.175H17.112a.161.161,0,0,1,.175.21l-.28.84a.306.306,0,0,1-.315.21Zm8.469,3.22c-.14,0-.175-.105-.105-.21l.49-.875a.464.464,0,0,1,.35-.21h7c.14,0,.21.1.21.245l-.07.84a.262.262,0,0,1-.245.245L8.608,39.57ZM44.933,32.5l-5.88,1.54c-.525.14-.56.175-1.015-.35a4.648,4.648,0,0,0-1.645-1.33,6.083,6.083,0,0,0-6.334.525,7.443,7.443,0,0,0-3.57,6.649,5.487,5.487,0,0,0,4.724,5.495,6.46,6.46,0,0,0,5.95-2.31c.315-.387.6-.8.945-1.295H31.355c-.735,0-.909-.455-.663-1.05.455-1.085,1.295-2.9,1.785-3.815A.945.945,0,0,1,33.35,36H46.088c-.07.945-.07,1.89-.21,2.834a14.924,14.924,0,0,1-2.869,6.859,14.579,14.579,0,0,1-9.974,5.952,12.4,12.4,0,0,1-9.414-2.31,10.985,10.985,0,0,1-4.444-7.772,13.735,13.735,0,0,1,2.974-10.253,15.529,15.529,0,0,1,9.8-6.054,12.062,12.062,0,0,1,9.274,1.714,10.973,10.973,0,0,1,4.06,4.935c.21.315.07.49-.35.6Z" transform="translate(0 -25)" fill="#00acd7"/>
      <path id="Path_106175" data-name="Path 106175" d="M61.479,51.89a13.142,13.142,0,0,1-8.539-3.08,10.973,10.973,0,0,1-3.779-6.754A13.358,13.358,0,0,1,52,31.488a14.67,14.67,0,0,1,9.8-5.844,12.981,12.981,0,0,1,9.974,1.784,10.891,10.891,0,0,1,4.935,7.8A13.508,13.508,0,0,1,72.677,47.1a16.037,16.037,0,0,1-8.4,4.478c-.945.175-1.89.21-2.8.315Zm8.329-14.137A10.12,10.12,0,0,0,69.7,36.6a5.764,5.764,0,0,0-7.139-4.654,7.644,7.644,0,0,0-6.124,6.089,5.763,5.763,0,0,0,3.214,6.614,6.417,6.417,0,0,0,5.7-.21A7.655,7.655,0,0,0,69.8,37.752Z" transform="translate(-5.137 -25.036)" fill="#00acd7"/>
    </g>
  </g>
</svg>
