<svg xmlns="http://www.w3.org/2000/svg" width="32.079" height="32.079" viewBox="0 0 32.079 32.079">
  <g id="Group_38335" data-name="Group 38335" transform="translate(0 0.001)">
    <g id="Page-1" transform="translate(0 -0.001)">
      <g id="_059---Book-Hotel-Room" data-name="059---Book-Hotel-Room">
        <path id="Shape" d="M13.554,45H7.139a2.139,2.139,0,1,0,0,4.277h6.416a2.139,2.139,0,0,0,0-4.277Zm0,3.208H7.139a1.069,1.069,0,1,1,0-2.139h6.416a1.069,1.069,0,1,1,0,2.139Z" transform="translate(-2.327 -21.475)"/>
        <path id="Shape-2" data-name="Shape" d="M14.089,21.069h-.535v-.535a.535.535,0,1,0-1.069,0v.535H8.208v-.535a.535.535,0,1,0-1.069,0v.535H6.6a1.6,1.6,0,0,0-1.6,1.6v7.485a1.6,1.6,0,0,0,1.6,1.6h7.485a1.6,1.6,0,0,0,1.6-1.6V22.673A1.6,1.6,0,0,0,14.089,21.069ZM6.6,22.139h.535v.535a.535.535,0,0,0,1.069,0v-.535h4.277v.535a.535.535,0,0,0,1.069,0v-.535h.535a.535.535,0,0,1,.535.535v1.6H6.069v-1.6A.535.535,0,0,1,6.6,22.139Zm8.02,8.02a.535.535,0,0,1-.535.535H6.6a.535.535,0,0,1-.535-.535V25.346h8.554Z" transform="translate(-2.327 -9.841)"/>
        <path id="Shape-3" data-name="Shape" d="M14.251,32.214l-1.234,1.646-.1-.1a.535.535,0,0,0-.756.756l.535.535a.535.535,0,0,0,.378.157h.038a.535.535,0,0,0,.39-.214l1.6-2.139a.535.535,0,1,0-.855-.642Z" transform="translate(-5.59 -15.426)"/>
        <path id="Shape-4" data-name="Shape" d="M31.794,6.943,28.871,5.394V2.069A1.069,1.069,0,0,0,27.8,1H25.663a1.069,1.069,0,0,0-1.069,1.069v1.06l-3.773-2a1.033,1.033,0,0,0-1,0L9.966,6.346H2.139A2.139,2.139,0,0,0,0,8.485V30.939a2.139,2.139,0,0,0,2.139,2.139H13.9a2.139,2.139,0,0,0,2.139-2.139v-6.95h15.5a.535.535,0,0,0,0-1.069h-.535V10.088A1.069,1.069,0,0,0,29.94,9.019H28.871A1.069,1.069,0,0,0,27.8,10.088v.535H25.128a1.6,1.6,0,0,0-1.6,1.6v.535H16.039V8.485A2.139,2.139,0,0,0,13.9,6.346H12.249l8.063-4.277L31.294,7.886a.535.535,0,0,0,.5-.945Zm-20.567.473-.481.642a1.075,1.075,0,0,1-.855.428H6.148a1.076,1.076,0,0,1-.855-.428l-.481-.642ZM13.9,32.009H2.139a1.069,1.069,0,0,1-1.069-1.069v-.3a2.117,2.117,0,0,0,1.069.3H13.9a2.117,2.117,0,0,0,1.069-.3v.3A1.069,1.069,0,0,1,13.9,32.009ZM26.2,15.435v-1.6h1.6v5.346H16.039v-1.6h8.02A2.139,2.139,0,0,0,26.2,15.435ZM16.039,20.247H27.8V22.92H16.039ZM28.871,10.088H29.94V22.92H28.871Zm-4.277,2.139a.535.535,0,0,1,.535-.535H27.8v1.069H24.593Zm-.535,1.6h1.069v1.6A1.069,1.069,0,0,1,24.059,16.5h-8.02V13.831ZM14.97,8.485V28.8A1.069,1.069,0,0,1,13.9,29.87H2.139A1.069,1.069,0,0,1,1.069,28.8V8.485A1.069,1.069,0,0,1,2.139,7.415H3.475L4.438,8.7a2.149,2.149,0,0,0,1.711.855H9.891A2.148,2.148,0,0,0,11.6,8.7l.962-1.283H13.9A1.069,1.069,0,0,1,14.97,8.485ZM25.663,2.069H27.8V4.828L25.663,3.7Z" transform="translate(0 -0.999)"/>
      </g>
    </g>
  </g>
</svg>
