<svg xmlns="http://www.w3.org/2000/svg" xml:space="preserve" width="189.981" height="189.953" x="97.519" y="192.523" data-layer-role="icon" data-root-id="669235837046" preserveAspectRatio="xMinYMin" style="height:36px;width:36px;transition:all 0s ease 0s" viewBox="224.2 223.2 677.5 677.4"><path d="M481.5 755V497.7c0-9.5 7.7-17.2 17.2-17.2s17.1 7.7 17.1 17.2V755c0 53.8 38.2 98.8 89 109.2l5.3.5v-367c0-61.5-50-111.5-111.5-111.5H370c-80.5 0-145.8-65.3-145.8-145.8v-17.2h531.7c80.5 0 145.8 65.3 145.8 145.8 0 9.5-7.7 17.2-17.2 17.2s-17.2-7.7-17.2-17.2c0-61.5-49.9-111.5-111.5-111.5H260.3l.5 5.3c10.4 50.8 55.4 89 109.2 89h128.6c80.5 0 145.8 65.3 145.8 145.8v403h-17.2c-80.4.1-145.7-65.2-145.7-145.6z" class="st0" data-layer-id="6338476137046" style="fill-rule:evenodd;clip-rule:evenodd;fill:#3960fb;fill-opacity:1"/></svg>