<svg id="Group_38349" data-name="Group 38349" xmlns="http://www.w3.org/2000/svg" width="32.264" height="32.264" viewBox="0 0 32.264 32.264">
  <g id="Page-1">
    <g id="_035---Marketplace" data-name="035---Marketplace">
      <path id="Shape" d="M3.226,32.264H16.132a3.23,3.23,0,0,0,3.226-3.226.538.538,0,0,0-1.075,0,2.151,2.151,0,0,1-2.151,2.151H3.226a2.151,2.151,0,0,1-2.151-2.151V3.226A2.151,2.151,0,0,1,3.226,1.075h.205L4.6,3.41A1.6,1.6,0,0,0,6.042,4.3h7.274a1.6,1.6,0,0,0,1.443-.892l1.167-2.335h.205a2.151,2.151,0,0,1,2.151,2.151V4.3a.538.538,0,1,0,1.075,0V3.226A3.23,3.23,0,0,0,16.132,0H3.226A3.23,3.23,0,0,0,0,3.226V29.037A3.23,3.23,0,0,0,3.226,32.264ZM13.8,2.929a.535.535,0,0,1-.481.3H6.042a.535.535,0,0,1-.481-.3L4.634,1.075h10.09Z"/>
      <path id="Shape-2" data-name="Shape" d="M18.141,55.075a.538.538,0,1,0,0-1.075h-8.6a.538.538,0,0,0,0,1.075Z" transform="translate(-4.16 -24.963)"/>
      <path id="Shape-3" data-name="Shape" d="M32.735,11H17.678a3.23,3.23,0,0,0-3.226,3.226v3.441l-5.887,3.14a1.075,1.075,0,0,0,0,1.895l5.887,3.139v3.441a3.23,3.23,0,0,0,3.226,3.226H32.735a3.23,3.23,0,0,0,3.226-3.226V14.226A3.23,3.23,0,0,0,32.735,11Zm2.151,18.283a2.151,2.151,0,0,1-2.151,2.151H17.678a2.151,2.151,0,0,1-2.151-2.151V25.519a.538.538,0,0,0-.284-.474l-6.168-3.29,6.17-3.291a.538.538,0,0,0,.283-.473V14.226a2.151,2.151,0,0,1,2.151-2.151H32.735a2.151,2.151,0,0,1,2.151,2.151Z" transform="translate(-3.697 -5.085)"/>
      <path id="Shape-4" data-name="Shape" d="M40.066,31a.538.538,0,0,0-.538.538,3.226,3.226,0,1,1-6.453,0,.538.538,0,1,0-1.075,0,4.3,4.3,0,1,0,8.6,0A.538.538,0,0,0,40.066,31Z" transform="translate(-14.793 -14.33)"/>
      <path id="Shape-5" data-name="Shape" d="M39.443,17H27.613a1.544,1.544,0,0,0-1.075.418A1.591,1.591,0,0,0,26,18.613v11.83a1.613,1.613,0,0,0,1.613,1.613h11.83a1.613,1.613,0,0,0,1.613-1.613V18.613A1.628,1.628,0,0,0,39.443,17ZM27.075,18.613v0l2.3,1.619-2.3,1.641Zm3.539,2.051a.538.538,0,0,0,0-.877l-2.427-1.712H38.872l-2.427,1.712a.538.538,0,0,0,0,.877l2.4,1.713H28.216Zm7.07-.435,2.3-1.619v3.26Zm1.759,10.752H27.613a.538.538,0,0,1-.538-.538v-6.99H39.981v6.99A.538.538,0,0,1,39.443,30.981Z" transform="translate(-12.019 -7.859)"/>
    </g>
  </g>
</svg>
