<svg xmlns="http://www.w3.org/2000/svg" width="31.997" height="31.997" viewBox="0 0 31.997 31.997">
  <g id="Group_38346" data-name="Group 38346" transform="translate(-1 -1)">
    <g id="Group_38345" data-name="Group 38345" transform="translate(1 1)">
      <path id="Path_106057" data-name="Path 106057" d="M47.661,12.87a6.193,6.193,0,1,0-4.936,0,6.186,6.186,0,0,0,.4,11.509V27.32H41.064l4.129,5.505,4.129-5.505H47.257V24.379a6.186,6.186,0,0,0,.4-11.509ZM45.193,2.032a5.158,5.158,0,0,1,4.286,8.031,4.618,4.618,0,0,0-2.542-2.529,2.58,2.58,0,1,0-3.489,0,4.616,4.616,0,0,0-2.542,2.529,5.158,5.158,0,0,1,4.286-8.031ZM43.645,5.645a1.548,1.548,0,1,1,1.548,1.548A1.55,1.55,0,0,1,43.645,5.645Zm-1.953,5.329a3.6,3.6,0,0,1,7,0,5.131,5.131,0,0,1-7,0ZM43.645,17a1.548,1.548,0,1,1,1.548,1.548A1.55,1.55,0,0,1,43.645,17Zm-1.953,5.329a3.6,3.6,0,0,1,7,0,5.131,5.131,0,0,1-7,0Zm5.566,6.025L45.193,31.1l-2.064-2.752h1.032V24.646a5.749,5.749,0,0,0,2.064,0v3.706Zm2.222-6.935a4.618,4.618,0,0,0-2.542-2.529,2.58,2.58,0,1,0-3.489,0,4.616,4.616,0,0,0-2.542,2.529,5.161,5.161,0,1,1,8.572,0Z" transform="translate(-19.389 -1)"/>
      <path id="Path_106058" data-name="Path 106058" d="M20.611,12.87V10.806a1.546,1.546,0,0,0-1.032-1.453v-1.5L18.168,7.4a7.708,7.708,0,0,0-.474-1.15l.677-1.315L15.649,2.209l-1.315.677a7.749,7.749,0,0,0-1.15-.474L12.73,1H8.881L8.428,2.411a7.749,7.749,0,0,0-1.15.474L5.963,2.208,3.241,4.93l.677,1.315A7.73,7.73,0,0,0,3.444,7.4l-1.411.453v1.5A1.545,1.545,0,0,0,1,10.806V12.87a1.546,1.546,0,0,0,1.032,1.453V17a1.546,1.546,0,0,0,1.032,1.453v2.675A1.546,1.546,0,0,0,4.1,22.58v2.675A1.55,1.55,0,0,0,5.645,26.8h.516V33H15.45V26.8h.516a1.55,1.55,0,0,0,1.548-1.548V22.58a1.546,1.546,0,0,0,1.032-1.453V18.452A1.546,1.546,0,0,0,19.579,17V14.323A1.546,1.546,0,0,0,20.611,12.87ZM4.28,8.213l.075-.267a6.68,6.68,0,0,1,.6-1.443l.135-.242L4.5,5.128,6.16,3.47l1.133.583.242-.136a6.714,6.714,0,0,1,1.443-.595l.267-.075.389-1.216h2.344l.39,1.216.267.075a6.714,6.714,0,0,1,1.443.595l.242.136,1.133-.583,1.657,1.658L16.525,6.26l.135.242a6.654,6.654,0,0,1,.6,1.443l.075.267,1.216.389v.656H16.456a5.674,5.674,0,0,0-11.3,0H3.064V8.6Zm10.1,1.045a3.608,3.608,0,0,0-7.143,0H6.191a4.643,4.643,0,0,1,9.229,0Zm-1.043,0H8.277a2.58,2.58,0,0,1,5.057,0Zm1.084,22.708H7.193V26.8h7.225Zm1.548-6.193H5.645a.517.517,0,0,1-.516-.516v-2.58H16.482v2.58A.517.517,0,0,1,15.966,25.772ZM17,21.643H4.613a.517.517,0,0,1-.516-.516v-2.58H17.515v2.58A.517.517,0,0,1,17,21.643Zm1.032-4.129H3.58A.517.517,0,0,1,3.064,17v-2.58H18.547V17A.517.517,0,0,1,18.031,17.515Zm1.548-4.645a.517.517,0,0,1-.516.516H2.548a.517.517,0,0,1-.516-.516V10.806a.517.517,0,0,1,.516-.516H19.063a.517.517,0,0,1,.516.516Z" transform="translate(-1 -1)"/>
      <path id="Path_106059" data-name="Path 106059" d="M5,21H6.032v1.032H5Z" transform="translate(-2.936 -10.678)"/>
      <path id="Path_106060" data-name="Path 106060" d="M9,21h1.032v1.032H9Z" transform="translate(-4.871 -10.678)"/>
      <path id="Path_106061" data-name="Path 106061" d="M13,21h1.032v1.032H13Z" transform="translate(-6.807 -10.678)"/>
      <path id="Path_106062" data-name="Path 106062" d="M23,29h1.032v1.032H23Z" transform="translate(-11.646 -14.55)"/>
      <path id="Path_106063" data-name="Path 106063" d="M27,29h1.032v1.032H27Z" transform="translate(-13.582 -14.55)"/>
      <path id="Path_106064" data-name="Path 106064" d="M31,29h1.032v1.032H31Z" transform="translate(-15.518 -14.55)"/>
      <path id="Path_106065" data-name="Path 106065" d="M13,37h1.032v1.032H13Z" transform="translate(-6.807 -18.421)"/>
      <path id="Path_106066" data-name="Path 106066" d="M17,37h1.032v1.032H17Z" transform="translate(-8.743 -18.421)"/>
      <path id="Path_106067" data-name="Path 106067" d="M9,37h1.032v1.032H9Z" transform="translate(-4.871 -18.421)"/>
      <path id="Path_106068" data-name="Path 106068" d="M19,45h1.032v1.032H19Z" transform="translate(-9.711 -22.292)"/>
      <path id="Path_106069" data-name="Path 106069" d="M23,45h1.032v1.032H23Z" transform="translate(-11.646 -22.292)"/>
      <path id="Path_106070" data-name="Path 106070" d="M27,45h1.032v1.032H27Z" transform="translate(-13.582 -22.292)"/>
    </g>
  </g>
</svg>
